<svg xmlns="http://www.w3.org/2000/svg" width="44.022" height="43.771" viewBox="0 0 44.022 43.771">
  <g id="faster-onboarding" transform="translate(0 -1.457)">
    <path id="Path_3750" data-name="Path 3750" d="M48.179,90.12l-3.024-.655a5.728,5.728,0,0,0-6.314,2.991L31.62,106.584l9.113-2.32" transform="translate(-28.902 -80.323)" fill="#d41e35"/>
    <path id="Path_3751" data-name="Path 3751" d="M237.709,291.416l.655,3.024a5.728,5.728,0,0,1-2.991,6.314l-14.128,7.221,2.32-9.113" transform="translate(-202.224 -265.031)" fill="#ee5064"/>
    <path id="Path_3752" data-name="Path 3752" d="M161.466,33.024a25.947,25.947,0,0,1-14.144,7.446l-9.7-9.7a25.939,25.939,0,0,1,7.446-14.144,27.291,27.291,0,0,1,8.3-5.717,20.533,20.533,0,0,1,14.855-1.037,20.532,20.532,0,0,1-1.035,14.856,27.289,27.289,0,0,1-5.717,8.3Z" transform="translate(-125.791 -6.829)" fill="#fb847d"/>
    <path id="Path_3753" data-name="Path 3753" d="M150.178,21.736a59.709,59.709,0,0,0-9.534,12.056l-3.024-3.024a25.939,25.939,0,0,1,7.446-14.144,27.292,27.292,0,0,1,8.3-5.717,20.533,20.533,0,0,1,14.855-1.037c-2.608.33-6.4,2.257-10.547,5.344A68.923,68.923,0,0,0,150.178,21.736Z" transform="translate(-125.789 -6.827)" fill="#fb5c53"/>
    <path id="Path_3754" data-name="Path 3754" d="M334.538,24.729,320.719,10.909a20.533,20.533,0,0,1,14.855-1.037A20.532,20.532,0,0,1,334.538,24.729Z" transform="translate(-293.146 -6.829)" fill="#a62973"/>
    <path id="Path_3755" data-name="Path 3755" d="M320.719,10.909l4.307,4.307c4.151-3.088,7.939-5.015,10.547-5.344a20.533,20.533,0,0,0-14.854,1.037Z" transform="translate(-293.146 -6.829)" fill="#92145f"/>
    <path id="Path_3756" data-name="Path 3756" d="M7.969,324.413c3.831,0,10.226-3.2,10.226-3.2v3.667c4.584-2.445,9.015-8.709,3.514-14.209S9.945,309.6,7.5,314.187h3.667S7.969,320.582,7.969,324.413Z" transform="translate(-6.856 -280.299)" fill="#ee5064"/>
    <path id="Path_3757" data-name="Path 3757" d="M21.709,310.673c-2.483-2.484-8.615,5.441-8.615,5.441s-4.074,5.519-5.125,8.3c0-3.831,3.2-10.225,3.2-10.225H7.5C9.944,309.6,16.208,305.172,21.709,310.673Z" transform="translate(-6.856 -280.299)" fill="#d41e35"/>
    <circle id="Ellipse_40" data-name="Ellipse 40" cx="7.489" cy="7.489" r="7.489" transform="translate(19.369 11.281)" fill="#ee5064"/>
    <circle id="Ellipse_41" data-name="Ellipse 41" cx="4.638" cy="4.638" r="4.638" transform="translate(22.221 14.133)" fill="#fb847d"/>
    <path id="Path_3758" data-name="Path 3758" d="M303.018,150.247a4.621,4.621,0,0,0-2.276-1.25,4.639,4.639,0,1,1,0,9.058,4.639,4.639,0,0,0,2.276-7.808Z" transform="translate(-274.887 -134.756)" fill="#fb5c53"/>
    <path id="Path_3759" data-name="Path 3759" d="M102.408,331.976a3.1,3.1,0,0,0-4.179-4.179,5.644,5.644,0,0,0-2.755,6.935,5.644,5.644,0,0,0,6.934-2.756Z" transform="translate(-86.964 -297.959)" fill="#dd636e"/>
    <path id="Path_3760" data-name="Path 3760" d="M65.083,2.833a.645.645,0,0,0-.4-.4,19.515,19.515,0,0,0-9.7-.656.645.645,0,1,0,.221,1.27,18.34,18.34,0,0,1,8.757.5,18.92,18.92,0,0,1-.008,11.011q-.315,1.112-.743,2.2L50.757,4.306q1.006-.4,2.036-.7a.645.645,0,1,0-.361-1.238A27.211,27.211,0,0,0,41.119,9.094l-2.683-.582a6.379,6.379,0,0,0-7.025,3.328L24.191,25.968a.645.645,0,0,0,.733.918l8.758-2.23,9.067,9.067-2.306,9.06a.645.645,0,0,0,.918.733l7.786-3.98a.645.645,0,1,0-.587-1.148l-6.516,3.33,1.906-7.488a26.448,26.448,0,0,0,13.192-6.6l.414,1.911a5.088,5.088,0,0,1-2.654,5.6l-4.049,2.069a.645.645,0,1,0,.587,1.148L55.489,36.3a6.379,6.379,0,0,0,3.328-7.025l-.581-2.681A27.206,27.206,0,0,0,65.2,14.915a20.091,20.091,0,0,0-.114-12.083ZM32.56,12.427a5.088,5.088,0,0,1,5.6-2.654l1.9.411A26.534,26.534,0,0,0,33.312,23.42l-7.323,1.865Zm9.219-2.173a26.731,26.731,0,0,1,7.7-5.4L62.669,18.042a26.718,26.718,0,0,1-5.4,7.7A25.436,25.436,0,0,1,43.8,32.951l-9.232-9.232a25.431,25.431,0,0,1,7.211-13.465Z" transform="translate(-22.047 0)" fill="#672376"/>
    <path id="Path_3761" data-name="Path 3761" d="M8.189,300.714c-3.8.566-6.746,3.76-8.113,6.324a.645.645,0,0,0,.569.948H3.291c-.9,1.948-2.822,6.493-2.822,9.581a.645.645,0,0,0,.645.645c3.088,0,7.633-1.926,9.581-2.822v2.646a.645.645,0,0,0,.948.569c2.564-1.367,5.758-4.313,6.324-8.113a8.2,8.2,0,0,0-2.657-7.121A8.2,8.2,0,0,0,8.189,300.714Zm6.194,3.639a2.41,2.41,0,0,1,.444,2.869,5,5,0,0,1-5.848,2.535,5,5,0,0,1,2.535-5.848,2.41,2.41,0,0,1,2.869.444Zm2.309,5.949c-.4,2.719-2.524,5.145-4.707,6.6v-2.53a.645.645,0,0,0-.933-.577c-.059.029-5.579,2.771-9.261,3.1.327-3.68,3.068-9.2,3.1-9.261a.645.645,0,0,0-.577-.933H1.781c1.452-2.183,3.878-4.3,6.6-4.707a6.132,6.132,0,0,1,3.409.452,3.939,3.939,0,0,0-.857.317,6.289,6.289,0,0,0-3.071,7.727.645.645,0,0,0,.389.389,6.289,6.289,0,0,0,7.727-3.071,3.952,3.952,0,0,0,.306-.812,6.127,6.127,0,0,1,.409,3.31Z" transform="translate(0 -273.453)" fill="#672376"/>
    <path id="Path_3762" data-name="Path 3762" d="M231.688,122.148a8.144,8.144,0,1,0-5.752,2.379A8.081,8.081,0,0,0,231.688,122.148Zm-12.6-5.752a6.845,6.845,0,1,1,2,4.84A6.8,6.8,0,0,1,219.092,116.4Z" transform="translate(-199.077 -97.627)" fill="#672376"/>
    <path id="Path_3763" data-name="Path 3763" d="M260.016,142.966a5.28,5.28,0,1,0,0,7.471A5.288,5.288,0,0,0,260.016,142.966Zm-6.559,6.559a3.993,3.993,0,1,1,5.647,0A4,4,0,0,1,253.457,149.524Z" transform="translate(-229.422 -127.931)" fill="#672376"/>
  </g>
</svg>
