<svg id="improvement-in-matches" xmlns="http://www.w3.org/2000/svg" width="48.024" height="48.024" viewBox="0 0 48.024 48.024">
  <path id="Path_1031" data-name="Path 1031" d="M27.761,136.066,42.594,150.9,32.329,161.165a3.779,3.779,0,1,1-4.165,4.165l-5.334,5.335-4.55-4.55a.628.628,0,0,1,.212-1.026,3.779,3.779,0,1,0-4.919-4.919.628.628,0,0,1-1.026.212L8,155.831l5.335-5.335a3.779,3.779,0,1,1,4.165-4.165Zm0,0" transform="translate(-7.292 -123.344)" fill="#a62973"/>
  <path id="Path_1032" data-name="Path 1032" d="M181.461,136.066,196.294,150.9l-3.835,3.836-3.721-3.721a5.3,5.3,0,1,1-8.31-6.557c.084-.1.175-.194.267-.287a5.289,5.289,0,0,1,.649-.551l-3.718-3.717Zm0,0" transform="translate(-161.021 -123.313)" fill="#92145f"/>
  <path id="Path_1033" data-name="Path 1033" d="M215.827,28.955a3.767,3.767,0,0,0-2.447-1.293l5.328-5.328L213.375,17a3.78,3.78,0,1,0-4.165-4.166L203.876,7.5l-4.55,4.55a.627.627,0,0,0,.212,1.026A3.78,3.78,0,1,1,194.619,18a.627.627,0,0,0-1.026-.212l-4.55,4.55,5.334,5.334a3.779,3.779,0,1,0,4.166,4.166l5.334,5.334,5.328-5.328a3.779,3.779,0,1,0,6.623-2.883Zm0,0" transform="translate(-171.389 -6.796)" fill="#ee5064"/>
  <g id="Group_316" data-name="Group 316" transform="translate(0 0)">
    <path id="Path_1034" data-name="Path 1034" d="M26.894,220.569l1.73-1.73a.7.7,0,1,0-1-1l-2.591,2.591a.7.7,0,0,0,.422,1.2,3.075,3.075,0,0,1,1.679,5.382,3.074,3.074,0,0,1-5.068-1.993.7.7,0,0,0-1.2-.423l-4.836,4.836-3.97-3.971a4.484,4.484,0,0,0-1.779-8.6h0a4.488,4.488,0,0,0-4.116,2.7L2.2,215.6l4.836-4.836a.7.7,0,0,0-.422-1.2,3.075,3.075,0,0,1-1.679-5.383A3.075,3.075,0,0,1,10,206.175a.7.7,0,0,0,1.2.422l2.341-2.341a.7.7,0,0,0-1-1l-1.479,1.479a4.484,4.484,0,0,0-7.057-1.62,4.446,4.446,0,0,0-1.545,3.232,4.48,4.48,0,0,0,2.713,4.276L.7,215.1a.7.7,0,0,0,0,1l4.55,4.55a1.332,1.332,0,0,0,2.177-.447,3.075,3.075,0,1,1,4,4,1.332,1.332,0,0,0-.447,2.178l4.55,4.55a.7.7,0,0,0,1,0l4.472-4.472a4.484,4.484,0,0,0,7.057,1.62,4.448,4.448,0,0,0,1.545-3.232,4.479,4.479,0,0,0-2.713-4.276Zm0,0" transform="translate(-0.498 -183.112)" fill="#672376"/>
    <path id="Path_1035" data-name="Path 1035" d="M157.819,10.49a1.331,1.331,0,0,1,2.177.447,3.075,3.075,0,1,0,4-4,1.332,1.332,0,0,1-.447-2.177L168.1.207a.7.7,0,0,1,1,0l4.473,4.473a4.478,4.478,0,0,1,4.276-2.713,4.447,4.447,0,0,1,3.232,1.545,4.484,4.484,0,0,1-1.62,7.057l4.472,4.472a.7.7,0,0,1,0,1l-.854.853a.7.7,0,1,1-1-1l.355-.355L177.6,10.7a.7.7,0,0,1,.422-1.2,3.075,3.075,0,1,0-2.508-5.231,3.037,3.037,0,0,0-.882,1.841.7.7,0,0,1-1.2.422L168.6,1.7l-3.97,3.97a4.484,4.484,0,0,1-1.779,8.6h0a4.489,4.489,0,0,1-4.116-2.7l-3.97,3.97,4.836,4.836a.7.7,0,0,1-.422,1.2,3.075,3.075,0,1,0,2.508,5.231,3.041,3.041,0,0,0,.882-1.841.7.7,0,0,1,1.2-.422l4.835,4.836,4.831-4.83a.7.7,0,0,1,1.2.42,3.075,3.075,0,0,0,5.382,1.668,3.074,3.074,0,0,0-1.983-5.067.7.7,0,0,1-.42-1.2l2.269-2.269a.7.7,0,0,1,1,1l-1.41,1.41a4.483,4.483,0,0,1,1.611,7.052,4.447,4.447,0,0,1-3.232,1.545,4.48,4.48,0,0,1-4.272-2.7L171.9,28.068c-.012.014-.025.028-.038.042l-5.521,5.521a.7.7,0,0,1-1-1l2.261-2.261L163.629,26.4a4.483,4.483,0,1,1-5.888-5.889l-3.972-3.972-2.455,2.456a.7.7,0,0,1-1-1Zm0,0" transform="translate(-136.113 -0.001)" fill="#672376"/>
  </g>
</svg>
