<svg xmlns="http://www.w3.org/2000/svg" width="24" height="24" viewBox="0 0 24 24">
  <path id="linkedin-logo" d="M46.154,24H25.846A1.846,1.846,0,0,0,24,25.846V46.154A1.846,1.846,0,0,0,25.846,48H46.154A1.846,1.846,0,0,0,48,46.154V25.846A1.846,1.846,0,0,0,46.154,24ZM32.308,41.538a.923.923,0,1,1-1.846,0V34.154a.923.923,0,1,1,1.846,0Zm-.923-9.231a1.385,1.385,0,1,1,1.385-1.385A1.385,1.385,0,0,1,31.385,32.308Zm11.077,9.231a.923.923,0,0,1-1.846,0V37.385a2.308,2.308,0,1,0-4.615,0v4.154a.923.923,0,1,1-1.846,0V34.154a.923.923,0,0,1,1.822-.205,4.154,4.154,0,0,1,6.486,3.436Z" transform="translate(-24 -24)"/>
</svg>
