<svg id="new-hire" xmlns="http://www.w3.org/2000/svg" width="44.022" height="47.661" viewBox="0 0 44.022 47.661">
  <g id="Group_346" data-name="Group 346" transform="translate(0.703 0.703)">
    <g id="Group_324" data-name="Group 324" transform="translate(0 8.681)">
      <g id="Group_323" data-name="Group 323">
        <g id="Group_322" data-name="Group 322">
          <path id="Path_1042" data-name="Path 1042" d="M58.611,103.911H29.393a2.344,2.344,0,0,0-2.344,2.344v25.024a2.344,2.344,0,0,0,2.344,2.344h9.044a2.344,2.344,0,0,1,2.12,1.344l2.915,6.181a.586.586,0,0,0,1.06,0l2.916-6.182a2.344,2.344,0,0,1,2.12-1.344h9.044a2.344,2.344,0,0,0,2.344-2.344V106.255A2.344,2.344,0,0,0,58.611,103.911Z" transform="translate(-27.049 -103.911)" fill="#ee5064"/>
        </g>
      </g>
    </g>
    <g id="Group_327" data-name="Group 327" transform="translate(0 8.849)">
      <g id="Group_326" data-name="Group 326">
        <g id="Group_325" data-name="Group 325">
          <path id="Path_1043" data-name="Path 1043" d="M29.687,131.278V106.254a2.344,2.344,0,0,1,2.344-2.344H29.394a2.344,2.344,0,0,0-2.344,2.344v25.024a2.344,2.344,0,0,0,2.344,2.344h2.637A2.344,2.344,0,0,1,29.687,131.278Z" transform="translate(-27.05 -103.91)" fill="#cc2439"/>
        </g>
      </g>
    </g>
    <g id="Group_330" data-name="Group 330" transform="translate(11.282 38.393)">
      <g id="Group_329" data-name="Group 329">
        <g id="Group_328" data-name="Group 328">
          <path id="Path_1044" data-name="Path 1044" d="M153.217,422.03a2.344,2.344,0,0,0-2.12-1.344h-2.637a2.344,2.344,0,0,1,2.12,1.344l2.915,6.181a.586.586,0,0,0,1.06,0l.789-1.673Z" transform="translate(-148.459 -420.686)" fill="#cc2439"/>
        </g>
      </g>
    </g>
    <g id="Group_333" data-name="Group 333" transform="translate(22.28 8.95)">
      <g id="Group_332" data-name="Group 332">
        <g id="Group_331" data-name="Group 331">
          <path id="Path_1045" data-name="Path 1045" d="M276.172,103.911h-9.044A11.4,11.4,0,0,0,278.516,115.3v-9.044A2.344,2.344,0,0,0,276.172,103.911Z" transform="translate(-267.128 -103.911)" fill="#cc2439"/>
        </g>
      </g>
    </g>
    <g id="Group_335" data-name="Group 335" transform="translate(24.529)">
      <g id="Group_334" data-name="Group 334">
        <circle id="Ellipse_13" data-name="Ellipse 13" cx="9.043" cy="9.043" r="9.043" fill="#a62973"/>
      </g>
    </g>
    <g id="Group_337" data-name="Group 337" transform="translate(24.609 0)">
      <g id="Group_336" data-name="Group 336">
        <path id="Path_1046" data-name="Path 1046" d="M294.473,16.543a9.045,9.045,0,0,1,7.871-8.968,9.043,9.043,0,1,0-1.172,18.011,9.141,9.141,0,0,0,1.172-.076A9.045,9.045,0,0,1,294.473,16.543Z" transform="translate(-292.128 -7.5)" fill="#801c57"/>
      </g>
    </g>
    <g id="Group_340" data-name="Group 340" transform="translate(10.303 23.343)">
      <g id="Group_339" data-name="Group 339">
        <g id="Group_338" data-name="Group 338">
          <path id="Path_1047" data-name="Path 1047" d="M151.2,267.458H138.135v-5.965a2.72,2.72,0,0,1,2.72-2.72h7.628a2.72,2.72,0,0,1,2.72,2.72Z" transform="translate(-138.135 -258.773)" fill="#a62973"/>
        </g>
      </g>
    </g>
    <g id="Group_343" data-name="Group 343" transform="translate(10.328 23.343)">
      <g id="Group_342" data-name="Group 342">
        <g id="Group_341" data-name="Group 341">
          <path id="Path_1048" data-name="Path 1048" d="M142.847,258.774h-1.992a2.72,2.72,0,0,0-2.72,2.72v5.965h1.992v-5.965A2.72,2.72,0,0,1,142.847,258.774Z" transform="translate(-138.135 -258.774)" fill="#801c57"/>
        </g>
      </g>
    </g>
    <g id="Group_344" data-name="Group 344" transform="translate(12.818 15.399)">
      <path id="Path_1049" data-name="Path 1049" d="M169.036,181.256a4.012,4.012,0,1,1,4.012-4.012A4.012,4.012,0,0,1,169.036,181.256Z" transform="translate(-165.024 -173.232)" fill="#ffb8a9"/>
    </g>
    <g id="Group_345" data-name="Group 345" transform="translate(12.827 15.399)">
      <path id="Path_1050" data-name="Path 1050" d="M167.015,177.245a4.013,4.013,0,0,1,3.016-3.887,4.012,4.012,0,1,0,0,7.774A4.014,4.014,0,0,1,167.015,177.245Z" transform="translate(-165.023 -173.233)" fill="#ff947e"/>
    </g>
  </g>
  <g id="Group_347" data-name="Group 347" transform="translate(0 0)">
    <path id="Path_1051" data-name="Path 1051" d="M54.159,204.563a.7.7,0,0,0-.7.7v14.195a1.643,1.643,0,0,1-1.641,1.641H42.771a3.06,3.06,0,0,0-2.756,1.747l-2.809,5.956L34.4,222.849A3.061,3.061,0,0,0,31.64,221.1H22.6a1.643,1.643,0,0,1-1.641-1.641V201.923a.7.7,0,1,0-1.407,0v17.537a3.051,3.051,0,0,0,3.048,3.048H31.64a1.648,1.648,0,0,1,1.484.941l2.915,6.181a1.289,1.289,0,0,0,2.332,0l2.916-6.182a1.647,1.647,0,0,1,1.483-.94h9.044a3.051,3.051,0,0,0,3.048-3.048V205.266A.7.7,0,0,0,54.159,204.563Z" transform="translate(-19.549 -182.709)" fill="#672376"/>
    <path id="Path_1052" data-name="Path 1052" d="M20.252,104.32a.7.7,0,0,0,.7-.7V99.459A1.643,1.643,0,0,1,22.6,97.818H41.727a.7.7,0,1,0,0-1.407H22.6a3.051,3.051,0,0,0-3.048,3.048v4.158A.7.7,0,0,0,20.252,104.32Z" transform="translate(-19.549 -87.45)" fill="#672376"/>
    <path id="Path_1053" data-name="Path 1053" d="M302.25,4a.7.7,0,1,0-1.136.83,8.33,8.33,0,1,1-2.524-2.283.7.7,0,1,0,.712-1.213A9.75,9.75,0,1,0,302.25,4Z" transform="translate(-260.1 0)" fill="#672376"/>
    <path id="Path_1054" data-name="Path 1054" d="M343.9,63.892a.7.7,0,0,0,.7-.7V59.975h3.213a.7.7,0,1,0,0-1.407H344.6V55.354a.7.7,0,0,0-1.407,0v3.213h-3.213a.7.7,0,0,0,0,1.407H343.2v3.213A.7.7,0,0,0,343.9,63.892Z" transform="translate(-309.625 -49.525)" fill="#ee5064"/>
    <path id="Path_1055" data-name="Path 1055" d="M107.268,173.756h-.458a4.715,4.715,0,1,0-6.712,0H99.64a3.427,3.427,0,0,0-3.424,3.424v5.261H93.357a.7.7,0,0,0,0,1.407H113.55a.7.7,0,0,0,0-1.407h-2.859v-5.261A3.427,3.427,0,0,0,107.268,173.756Zm-7.122-3.308a3.308,3.308,0,1,1,3.308,3.308A3.312,3.312,0,0,1,100.146,170.447Zm-2.522,6.732a2.019,2.019,0,0,1,2.017-2.017h7.628a2.019,2.019,0,0,1,2.017,2.017v5.261H97.623Z" transform="translate(-85.898 -150.375)" fill="#6d2375"/>
  </g>
</svg>
