<svg id="puzzle" xmlns="http://www.w3.org/2000/svg" xmlns:xlink="http://www.w3.org/1999/xlink" width="718" height="793.725" viewBox="0 0 718 793.725">
  <defs>
    <clipPath id="clip-path">
      <rect id="Rectangle_193" data-name="Rectangle 193" width="718" height="793.725" fill="none"/>
    </clipPath>
  </defs>
  <g id="Group_117" data-name="Group 117" clip-path="url(#clip-path)">
    <path id="Path_484" data-name="Path 484" d="M612.834,675.459C433.336,972.513-63.338,654.285,6.722,333.694,86.624-31.945,607.237-109.883,673.7,163.557c41.789,171.93-5.219,419.818-60.863,511.9" transform="translate(0 0)" fill="#efc6e3"/>
    <path id="Path_485" data-name="Path 485" d="M304.252,75.123C284.209,58.8,324.046,44.517,339.83,41.631s26.5,18.479,32.374,11.55S392.619,29.5,407.746,27.194s26.527,20.211,33.5,18.479,39.983-29.452,57.723,2.887S432.479,87.251,417.356,80.32s-94.669,9.817-113.1-5.2" transform="translate(63.914 5.783)" fill="#d584bd"/>
    <path id="Path_486" data-name="Path 486" d="M499.978,262.08c-10.928-8.9,10.791-16.686,19.4-18.259s14.446,10.073,17.65,6.3S548.154,237.21,556.4,235.95s14.462,11.019,18.263,10.075,21.8-16.056,31.469,1.574-36.247,21.092-44.492,17.315-51.611,5.352-61.661-2.833" transform="translate(106.326 50.462)" fill="#d584bd"/>
    <path id="Path_487" data-name="Path 487" d="M17.266,171.613c-10.928-8.9,10.791-16.686,19.4-18.259s14.446,10.073,17.65,6.3,11.131-12.907,19.377-14.167S88.15,156.5,91.951,155.558s21.8-16.056,31.469,1.574-36.247,21.092-44.492,17.315-51.611,5.352-61.661-2.833" transform="translate(3.05 31.107)" fill="#d584bd"/>
    <path id="Path_488" data-name="Path 488" d="M336.259,603.777h65.113l1.116-12.614-27.986-6.43Z" transform="translate(71.942 125.103)" fill="#a62973"/>
    <path id="Path_489" data-name="Path 489" d="M336.259,603.777h65.113l1.116-12.614-27.986-6.43Z" transform="translate(71.942 125.103)" fill="none" stroke="#000" stroke-linejoin="round" stroke-width="2"/>
    <path id="Path_490" data-name="Path 490" d="M401.909,605.709c-.016-1.892-.034-4.569-.046-5.289H333.005c.012.679.029,3.376.046,5.289Z" transform="translate(71.246 128.459)" fill="#fff"/>
    <path id="Path_491" data-name="Path 491" d="M401.909,605.709c-.016-1.892-.034-4.569-.046-5.289H333.005c.012.679.029,3.376.046,5.289Z" transform="translate(71.246 128.459)" fill="none" stroke="#000" stroke-width="2"/>
    <line id="Line_32" data-name="Line 32" x2="67.562" transform="translate(406.822 728.88)" fill="none" stroke="#000" stroke-linecap="round" stroke-linejoin="round" stroke-width="0.5"/>
    <path id="Path_492" data-name="Path 492" d="M472.182,604.437H437l2.389-20.409,20.466-2.385Z" transform="translate(93.497 124.442)"/>
    <line id="Line_33" data-name="Line 33" x1="37.353" transform="translate(529.55 728.88)" fill="none" stroke="#000" stroke-linecap="round" stroke-linejoin="round" stroke-width="0.5"/>
    <path id="Path_493" data-name="Path 493" d="M422.87,361.919c-31.234,134.707-57.939,268.755-57.939,268.755l35.81,14.666L434.12,512.971l36.011-128.335Z" transform="translate(78.077 77.432)" fill="#ee5064"/>
    <path id="Path_494" data-name="Path 494" d="M422.87,361.919c-31.234,134.707-57.939,268.755-57.939,268.755l35.81,14.666L434.12,512.971l36.011-128.335Z" transform="translate(78.077 77.432)" fill="none" stroke="#000" stroke-width="2"/>
    <path id="Path_495" data-name="Path 495" d="M477.606,374.482c8.538,87.043-6.475,250.872-6.845,265.216l-34.873-2.275-.527-115c1.354-23.071-5.568-98.9-5.568-98.9s-6.009-37.5-4.9-49.041,52.71,0,52.71,0" transform="translate(90.877 79.023)" fill="#ee5064"/>
    <path id="Path_496" data-name="Path 496" d="M477.606,374.482c8.538,87.043-6.475,250.872-6.845,265.216l-34.873-2.275-.527-115c1.354-23.071-5.568-98.9-5.568-98.9s-6.009-37.5-4.9-49.041S477.606,374.482,477.606,374.482Z" transform="translate(90.877 79.023)" fill="none" stroke="#000" stroke-width="2"/>
    <line id="Line_34" data-name="Line 34" x1="20.664" y2="3.639" transform="translate(511.389 500.27)" fill="none" stroke="#000" stroke-linecap="round" stroke-linejoin="round" stroke-width="0.5"/>
    <line id="Line_35" data-name="Line 35" x2="3.665" y2="45.397" transform="translate(520.669 502.546)" fill="none" stroke="#000" stroke-linecap="round" stroke-linejoin="round" stroke-width="0.5"/>
    <line id="Line_36" data-name="Line 36" y1="27.351" x2="5.38" transform="translate(514.664 502.545)" fill="none" stroke="#000" stroke-linecap="round" stroke-linejoin="round" stroke-width="0.5"/>
    <path id="Path_497" data-name="Path 497" d="M423.1,368.506c-1.691,40.3,6.475,47.723,6.475,47.723" transform="translate(90.472 78.842)" fill="none" stroke="#000" stroke-linecap="round" stroke-linejoin="round" stroke-width="0.5"/>
    <path id="Path_498" data-name="Path 498" d="M458.29,616.61s6.767-37.9,7.267-145.132" transform="translate(98.051 100.872)" fill="none" stroke="#000" stroke-linecap="round" stroke-linejoin="round" stroke-width="0.5"/>
    <line id="Line_37" data-name="Line 37" x1="35.812" y1="14.666" transform="translate(443.008 708.106)" fill="none" stroke="#000" stroke-linecap="round" stroke-linejoin="round" stroke-width="0.5"/>
    <line id="Line_38" data-name="Line 38" x1="34.31" y2="153.748" transform="translate(474.082 561.997)" fill="none" stroke="#000" stroke-linecap="round" stroke-linejoin="round" stroke-width="2"/>
    <line id="Line_39" data-name="Line 39" x1="47.824" y1="0.35" transform="translate(496.895 447.347)" fill="none" stroke="#000" stroke-linecap="round" stroke-linejoin="round" stroke-width="0.5"/>
    <line id="Line_40" data-name="Line 40" x1="38.865" y1="0.722" transform="translate(508.848 452.128)" fill="none" stroke="#000" stroke-linecap="round" stroke-linejoin="round" stroke-width="0.5"/>
    <path id="Path_499" data-name="Path 499" d="M482.9,417.079l-59.936-14.61s-13.378-127.746,20.385-144.035c19.242-9.284,53.7,13.914,61.619,34.239,7.4,18.993-8.177,55.408-17.4,84.811Z" transform="translate(89.933 54.841)" fill="#a62973"/>
    <path id="Path_500" data-name="Path 500" d="M482.9,417.079l-59.936-14.61s-13.378-127.746,20.385-144.035c19.242-9.284,53.7,13.914,61.619,34.239,7.4,18.993-8.177,55.408-17.4,84.811Z" transform="translate(89.933 54.841)" fill="none" stroke="#000" stroke-width="2"/>
    <line id="Line_41" data-name="Line 41" x1="59.936" y1="14.61" transform="translate(512.828 457.094)" fill="none" stroke="#000" stroke-linecap="round" stroke-linejoin="round" stroke-width="0.5"/>
    <path id="Path_501" data-name="Path 501" d="M482.446,251.733a6.143,6.143,0,0,0,.828-3.092,3.919,3.919,0,0,0-.062-.591c5.4-9.878,5.652-21.2-6.752-28.087-12.347-6.855-18.366,4.251-23.711,16.224-1.981,4.436-3.947,9.255-4.036,13.871-.157,8.021-.277,14.428,4.455,16.677a9.585,9.585,0,0,0,4.509.838l-.4,4.777c-3.621.717-6.575,2.445-7.795,5.672-3.153,8.337,30.379,21.486,35.643,9.037.8-1.883.05-4.448-2.083-6.927.035-7.17-.284-18.832-.6-28.4" transform="translate(95.99 46.611)" fill="#e17847"/>
    <path id="Path_502" data-name="Path 502" d="M482.446,251.733a6.143,6.143,0,0,0,.828-3.092,3.919,3.919,0,0,0-.062-.591c5.4-9.878,5.652-21.2-6.752-28.087-12.347-6.855-18.366,4.251-23.711,16.224-1.981,4.436-3.947,9.255-4.036,13.871-.157,8.021-.277,14.428,4.455,16.677a9.585,9.585,0,0,0,4.509.838l-.4,4.777c-3.621.717-6.575,2.445-7.795,5.672-3.153,8.337,30.379,21.486,35.643,9.037.8-1.883.05-4.448-2.083-6.927C483.079,272.961,482.76,261.3,482.446,251.733Z" transform="translate(95.99 46.611)" fill="none" stroke="#000" stroke-width="2"/>
    <line id="Line_42" data-name="Line 42" y1="2.282" x2="4.692" transform="translate(571.459 295.724)" fill="none" stroke="#000" stroke-linecap="round" stroke-linejoin="round" stroke-width="2"/>
    <path id="Path_503" data-name="Path 503" d="M471.6,241.794c3.07-1.8,7.189-1.477,7.259,1.956.1,4.927-6.879,9.453-9.55,6.48" transform="translate(100.408 51.501)" fill="none" stroke="#000" stroke-linecap="round" stroke-linejoin="round" stroke-width="2"/>
    <path id="Path_504" data-name="Path 504" d="M458.73,226.724c4.129-2.873,11.132,2.3,13.366-.019" transform="translate(98.145 48.316)" fill="none" stroke="#000" stroke-linecap="round" stroke-linejoin="round" stroke-width="1"/>
    <path id="Path_505" data-name="Path 505" d="M454.5,230.991c6.132-9.242,13.777,1.629,18.493-1.452-1.1,9.372,4.608,16.939,4.608,16.939s4.55,7.232,4.416,14.206c5.984-5.723,8.753-12.91,11-20.192,3.29-10.677-6.172-19.4-10.162-16-2.707-8.008-13.522-13.55-19.02-11.478-7.551,2.847-9.194,11.154-9.332,17.973" transform="translate(97.241 45.482)"/>
    <path id="Path_506" data-name="Path 506" d="M461.432,235.369c1.981-.628,1.7,3.149-.236,2.971s-.589-2.71.236-2.971" transform="translate(98.46 50.342)"/>
    <path id="Path_507" data-name="Path 507" d="M454.317,232.71c1.981-.628,1.7,3.149-.235,2.971s-.589-2.71.235-2.971" transform="translate(96.937 49.773)"/>
    <path id="Path_508" data-name="Path 508" d="M453.99,228.823a15.4,15.4,0,0,1,6.351,2.1" transform="translate(97.131 48.957)" fill="none" stroke="#000" stroke-linecap="round" stroke-linejoin="round" stroke-width="1"/>
    <path id="Path_509" data-name="Path 509" d="M462.829,230.141c5.934,3.114,6.128,7.27,6.128,7.27" transform="translate(99.022 49.239)" fill="none" stroke="#000" stroke-linecap="round" stroke-linejoin="round" stroke-width="1"/>
    <path id="Path_510" data-name="Path 510" d="M459.754,233.549a80.193,80.193,0,0,1-6.03,8.322,2.46,2.46,0,0,0,1.151,2.659" transform="translate(97.059 49.968)" fill="none" stroke="#000" stroke-linecap="round" stroke-linejoin="round" stroke-width="1"/>
    <path id="Path_511" data-name="Path 511" d="M461.239,248.054a20.3,20.3,0,0,1-9.732-1.9c1.021,10.992,9.732,1.9,9.732,1.9" transform="translate(96.6 52.665)" fill="#fff"/>
    <path id="Path_512" data-name="Path 512" d="M474.773,215.111a11.352,11.352,0,0,1,3.749,8.844s2.4-3.059,4.675-2.073" transform="translate(101.577 46.023)" fill="none" stroke="#000" stroke-linecap="round" stroke-linejoin="round" stroke-width="1"/>
    <path id="Path_513" data-name="Path 513" d="M471.479,285.854c-32.737-5.889-25.568-20.422-22.208-22.2" transform="translate(95.462 56.408)" fill="none" stroke="#000" stroke-linecap="round" stroke-linejoin="round" stroke-width="2"/>
    <line id="Line_43" data-name="Line 43" x1="3.017" y2="33.067" transform="translate(577.429 399.042)" fill="none" stroke="#000" stroke-linecap="round" stroke-linejoin="round" stroke-width="2"/>
    <path id="Path_514" data-name="Path 514" d="M285.841,372.029c8.92,0,18.807,3.57,26.947,9.47,5.621,4.072,13.143-.369,13.143-7.717V305.8H263.676c-6.674,0-10.742-8.093-7.051-14.146,5.4-8.848,8.662-19.582,8.662-29.268,0-21.4-15.942-38.755-35.606-38.755s-35.606,17.351-35.606,38.755c0,9.686,3.266,20.42,8.663,29.268,3.692,6.053-.378,14.146-7.052,14.146H133.221V501.379c0,7.95,5.922,14.4,13.226,14.4H325.932V447.786c0-7.348-7.523-11.789-13.143-7.716-8.141,5.9-18.027,9.47-26.947,9.47-19.665,0-35.606-17.352-35.606-38.755s15.942-38.755,35.606-38.755" transform="translate(28.503 47.845)" fill="#fff"/>
    <path id="Path_515" data-name="Path 515" d="M285.841,372.029c8.92,0,18.807,3.57,26.947,9.47,5.621,4.072,13.143-.369,13.143-7.717V305.8H263.676c-6.674,0-10.742-8.093-7.051-14.146,5.4-8.848,8.662-19.582,8.662-29.268,0-21.4-15.942-38.755-35.606-38.755s-35.606,17.351-35.606,38.755c0,9.686,3.266,20.42,8.663,29.268,3.692,6.053-.378,14.146-7.052,14.146H133.221V501.379c0,7.95,5.922,14.4,13.226,14.4H325.932V447.786c0-7.348-7.523-11.789-13.143-7.716-8.141,5.9-18.027,9.47-26.947,9.47-19.665,0-35.606-17.352-35.606-38.755S266.176,372.029,285.841,372.029Z" transform="translate(28.503 47.845)" fill="none" stroke="#000" stroke-linecap="round" stroke-linejoin="round" stroke-width="2"/>
    <path id="Path_516" data-name="Path 516" d="M435.556,291.318c-6.674,0-10.743,8.093-7.052,14.145,5.4,8.85,8.663,19.583,8.663,29.27,0,21.4-15.942,38.755-35.606,38.755s-35.606-17.351-35.606-38.755c0-9.686,3.264-20.419,8.662-29.267,3.69-6.052-.378-14.147-7.051-14.147H305.309V359.3c0,7.348-7.523,11.789-13.142,7.717-8.142-5.9-18.028-9.47-26.948-9.47-19.665,0-35.606,17.351-35.606,38.755s15.942,38.755,35.606,38.755c8.92,0,18.807-3.571,26.948-9.47,5.619-4.073,13.142.368,13.142,7.716v67.988H484.794c7.3,0,13.226-6.445,13.226-14.4V291.318Z" transform="translate(49.125 62.327)" fill="#ffb31f"/>
    <path id="Path_517" data-name="Path 517" d="M435.556,291.318c-6.674,0-10.743,8.093-7.052,14.145,5.4,8.85,8.663,19.583,8.663,29.27,0,21.4-15.942,38.755-35.606,38.755s-35.606-17.351-35.606-38.755c0-9.686,3.264-20.419,8.662-29.267,3.69-6.052-.378-14.147-7.051-14.147H305.309V359.3c0,7.348-7.523,11.789-13.142,7.717-8.142-5.9-18.028-9.47-26.948-9.47-19.665,0-35.606,17.351-35.606,38.755s15.942,38.755,35.606,38.755c8.92,0,18.807-3.571,26.948-9.47,5.619-4.073,13.142.368,13.142,7.716v67.988H484.794c7.3,0,13.226-6.445,13.226-14.4V291.318Z" transform="translate(49.125 62.327)" fill="none" stroke="#000" stroke-linecap="round" stroke-linejoin="round" stroke-width="2"/>
    <path id="Path_518" data-name="Path 518" d="M519.891,451.792c3.877-18.768-16.137-21.936-35.65-24.852-.4,1.15-8.577,32.67-7.222,31.909s37.448,19.2,42.872-7.057" transform="translate(102.025 91.344)" fill="#c92627"/>
    <path id="Path_519" data-name="Path 519" d="M489,462.568a77.534,77.534,0,0,1-12.006-3.72l7.221-31.909" transform="translate(102.052 91.344)" fill="none" stroke="#000" stroke-linecap="round" stroke-linejoin="round" stroke-width="0.5"/>
    <path id="Path_520" data-name="Path 520" d="M466.828,555.294,462.7,591.1l.85,16.348s-48.006-.31-47.72-.773,27.41-23.5,27.41-23.5l1.714-33.3Z" transform="translate(88.967 117.647)" fill="#e17847"/>
    <path id="Path_521" data-name="Path 521" d="M465.7,588.328c-17.971,3.462-27.671-7.1-27.671-7.1l-35.24,20.313h64.338Z" transform="translate(86.176 124.354)" fill="#ee5064"/>
    <path id="Path_522" data-name="Path 522" d="M465.7,588.328c-17.971,3.462-27.671-7.1-27.671-7.1l-35.24,20.313h64.338Z" transform="translate(86.176 124.354)" fill="none" stroke="#000" stroke-linejoin="round" stroke-width="2"/>
    <rect id="Rectangle_187" data-name="Rectangle 187" width="64.338" height="5.48" transform="translate(488.963 725.9)" fill="#fff"/>
    <rect id="Rectangle_188" data-name="Rectangle 188" width="64.338" height="5.48" transform="translate(488.963 725.9)" fill="none" stroke="#000" stroke-linejoin="round" stroke-width="2"/>
    <path id="Path_523" data-name="Path 523" d="M523.5,608.242c-1.883-3.866-11.791-24.207-11.791-24.207l25.508,3.442,5.016-11.93s44.661,26.028,44.187,26.309c-.242.142-7.428,4.174-21.4,6.387Z" transform="translate(109.479 123.138)" fill="#e17847"/>
    <path id="Path_524" data-name="Path 524" d="M523.5,608.242c-1.883-3.866-11.791-24.207-11.791-24.207l25.508,3.442,5.016-11.93s44.661,26.028,44.187,26.309c-.242.142-7.428,4.174-21.4,6.387Z" transform="translate(109.479 123.138)" fill="none" stroke="#000" stroke-width="2"/>
    <path id="Path_525" data-name="Path 525" d="M596.315,608.449l-58.947-33.867-4.649,13.1C548.7,593.267,554,605.422,555.1,608.449Z" transform="translate(113.975 122.931)" fill="#ee5064"/>
    <path id="Path_526" data-name="Path 526" d="M596.315,608.449l-58.947-33.867-4.649,13.1C548.7,593.267,554,605.422,555.1,608.449Z" transform="translate(113.975 122.931)" fill="none" stroke="#000" stroke-width="2"/>
    <path id="Path_527" data-name="Path 527" d="M597.857,609.536l-61.063-34.783,2.57-5.253,62.2,35.432-2.252,4.6Z" transform="translate(114.847 121.844)" fill="#fff"/>
    <path id="Path_528" data-name="Path 528" d="M597.857,609.536l-61.063-34.783,2.57-5.253,62.2,35.432-2.252,4.6Z" transform="translate(114.847 121.844)" fill="none" stroke="#000" stroke-width="2"/>
    <path id="Path_529" data-name="Path 529" d="M596.315,608.449l-58.947-33.867-4.649,13.1s16.7,6.054,22.356,20.766" transform="translate(113.975 122.931)" fill="none" stroke="#000" stroke-linecap="round" stroke-linejoin="round" stroke-width="0.5"/>
    <path id="Path_530" data-name="Path 530" d="M551.069,537.091c-39.064-36.5-103.468-48.616-110.307-37.2S432.7,609.68,432.7,609.68l21.884.9,12.291-75.3s89.063,53.085,84.19,1.81" transform="translate(92.577 106.065)" fill="#672376"/>
    <path id="Path_531" data-name="Path 531" d="M551.069,537.091c-39.064-36.5-103.468-48.616-110.307-37.2S432.7,609.68,432.7,609.68l21.884.9,12.291-75.3S555.942,588.366,551.069,537.091Z" transform="translate(92.577 106.065)" fill="none" stroke="#000" stroke-width="2"/>
    <path id="Path_532" data-name="Path 532" d="M528.705,454.98c-.341-.137-.716-.268-1.06-.376l-48.585-15.009-21.316-51.547.359-10.317c0-7.088-5.54-16.388-5.54-16.388l.028,10.709-3.609,6.582-3.4-7.838a2.1,2.1,0,0,0-2.529-1.259,2.363,2.363,0,0,0-1.544,2.677l3.14,18.945a4.268,4.268,0,0,0,.431,1.25l13.472,62.707a10.809,10.809,0,0,0,6.322,7.842l1.538.618,52.259,20.989c7.5,3.014,15.835-1.164,18.6-9.333s-1.069-17.237-8.575-20.251" transform="translate(94.454 77.309)" fill="#e17847"/>
    <path id="Path_533" data-name="Path 533" d="M528.705,454.98c-.341-.137-.716-.268-1.06-.376l-48.585-15.009-21.316-51.547.359-10.317c0-7.088-5.54-16.388-5.54-16.388l.028,10.709-3.609,6.582-3.4-7.838a2.1,2.1,0,0,0-2.529-1.259,2.363,2.363,0,0,0-1.544,2.677l3.14,18.945a4.268,4.268,0,0,0,.431,1.25l13.472,62.707a10.809,10.809,0,0,0,6.322,7.842l1.538.618,52.259,20.989c7.5,3.014,15.835-1.164,18.6-9.333S536.211,457.994,528.705,454.98Z" transform="translate(94.454 77.309)" fill="none" stroke="#000" stroke-width="2"/>
    <line id="Line_44" data-name="Line 44" x2="1.659" y2="3.828" transform="translate(542.78 454.428)" fill="none" stroke="#000" stroke-linecap="round" stroke-linejoin="round" stroke-width="2"/>
    <path id="Path_534" data-name="Path 534" d="M440.771,624.334c-25.234-5.281-22.82-24.193-17.849-32.449,12.118-20.122,41.262-44.374,76.255-59.335l-.852-26.48,42.517-5.735c19.486,24.913,20.472,63.12-9.454,66.265-9.946,8.628-35.589,19.424-54.5,23.731,0,0,25.693-8.209,77.88,9.8,0,0-1.714,17.822-2.328,24.207Z" transform="translate(89.798 107.046)" fill="#672376"/>
    <path id="Path_535" data-name="Path 535" d="M440.771,624.334c-25.234-5.281-22.82-24.193-17.849-32.449,12.118-20.122,41.262-44.374,76.255-59.335l-.852-26.48,42.517-5.735c19.486,24.913,20.472,63.12-9.454,66.265-9.946,8.628-35.589,19.424-54.5,23.731,0,0,25.693-8.209,77.88,9.8,0,0-1.714,17.822-2.328,24.207Z" transform="translate(89.798 107.046)" fill="none" stroke="#000" stroke-width="2"/>
    <path id="Path_536" data-name="Path 536" d="M479.55,408.614l10.213,38.395h22.929L500.427,405.49Z" transform="translate(102.599 86.754)" fill="#e17847"/>
    <path id="Path_537" data-name="Path 537" d="M479.55,408.614l10.213,38.395h22.929L500.427,405.49Z" transform="translate(102.599 86.754)" fill="none" stroke="#000" stroke-width="2"/>
    <path id="Path_538" data-name="Path 538" d="M500.325,405.564c.49,18.151-11.831,33.778-11.831,33.778s-7-25.52-6.861-25.569,18.692-8.209,18.692-8.209" transform="translate(103.044 86.77)" fill="#a65835"/>
    <path id="Path_539" data-name="Path 539" d="M505.334,391.046c-16.546-16.416-28.76-6.949-31.4.246-2.787,7.6,1.369,35.33,24.244,24.829,17.688-8.12,7.153-25.075,7.153-25.075" transform="translate(101.235 81.721)"/>
    <path id="Path_540" data-name="Path 540" d="M505.334,391.046c-16.546-16.416-28.76-6.949-31.4.246-2.787,7.6,1.369,35.33,24.244,24.829C515.87,408,505.334,391.046,505.334,391.046Z" transform="translate(101.235 81.721)" fill="none" stroke="#000" stroke-width="2"/>
    <path id="Path_541" data-name="Path 541" d="M512.975,452.193c-4.595-7.128-13.63-8.853-20.179-3.852l-33.231,27.781-5.356,4.391L407.8,453.638a6.487,6.487,0,0,0-1.045-.971l-5.351-3.9a4.988,4.988,0,0,0-.606-.351,3.619,3.619,0,0,0-1.47-.608c-3.836-.76-12.064-2.408-12.064-2.408-1.025-.2-1.225,2.771.944,4.333a18.4,18.4,0,0,0,6.22,2.8,3.841,3.841,0,0,1-3.263,2.741c-1.074.232-2.769.717-2.769.717a1.691,1.691,0,0,0-.467.186l-13.529,5.39a2.529,2.529,0,0,0-1.346,3.157,2.215,2.215,0,0,0,2.9,1.465l11.477-4.573.019.1-12.487,8.064a2.587,2.587,0,0,0-.79,3.372,2.161,2.161,0,0,0,3.1.861l11.112-7.176.039.219-7.15,4.618a2.586,2.586,0,0,0-.792,3.372,2.162,2.162,0,0,0,3.1.861l5.777-3.73.017.093-1.794,1.158a2.585,2.585,0,0,0-.79,3.372,2.16,2.16,0,0,0,3.1.861l5.425-3.5,11.3-4.269,42.415,34.831a9.835,9.835,0,0,0,11.672.726l1.414-.907,46.353-29.7c.319-.206.662-.444.97-.68,6.55-5,8.135-14.836,3.54-21.964" transform="translate(79.785 95.292)" fill="#e17847"/>
    <path id="Path_542" data-name="Path 542" d="M512.975,452.193c-4.595-7.128-13.63-8.853-20.179-3.852l-33.231,27.781-5.356,4.391L407.8,453.638a6.487,6.487,0,0,0-1.045-.971l-5.351-3.9a4.988,4.988,0,0,0-.606-.351,3.619,3.619,0,0,0-1.47-.608c-3.836-.76-12.064-2.408-12.064-2.408-1.025-.2-1.225,2.771.944,4.333a18.4,18.4,0,0,0,6.22,2.8,3.841,3.841,0,0,1-3.263,2.741c-1.074.232-2.769.717-2.769.717a1.691,1.691,0,0,0-.467.186l-13.529,5.39a2.529,2.529,0,0,0-1.346,3.157,2.215,2.215,0,0,0,2.9,1.465l11.477-4.573.019.1-12.487,8.064a2.587,2.587,0,0,0-.79,3.372,2.161,2.161,0,0,0,3.1.861l11.112-7.176.039.219-7.15,4.618a2.586,2.586,0,0,0-.792,3.372,2.162,2.162,0,0,0,3.1.861l5.777-3.73.017.093-1.794,1.158a2.585,2.585,0,0,0-.79,3.372,2.16,2.16,0,0,0,3.1.861l5.425-3.5,11.3-4.269,42.415,34.831a9.835,9.835,0,0,0,11.672.726l1.414-.907,46.353-29.7c.319-.206.662-.444.97-.68C515.986,469.156,517.57,459.322,512.975,452.193Z" transform="translate(79.785 95.292)" fill="none" stroke="#000" stroke-linecap="square" stroke-linejoin="round" stroke-width="2"/>
    <path id="Path_543" data-name="Path 543" d="M487.814,387.73c-7.642-.7-10.865,9.279-13.713,16.953-2.145,5.776-5.362,7.814-5.068,8.807a6.018,6.018,0,0,0,3.138,3.371s1.145,11.586,4.289,15.15c2.189,2.479,19.472,1.055,20.29-14.771.242-4.672,7.795-6.225,8.336-11.161,1.425-13-2.116-18.913-17.272-18.349" transform="translate(100.345 82.947)" fill="#e17847"/>
    <path id="Path_544" data-name="Path 544" d="M487.814,387.73c-7.642-.7-10.865,9.279-13.713,16.953-2.145,5.776-5.362,7.814-5.068,8.807a6.018,6.018,0,0,0,3.138,3.371s1.145,11.586,4.289,15.15c2.189,2.479,19.472,1.055,20.29-14.771.242-4.672,7.795-6.225,8.336-11.161C506.512,393.083,502.97,387.166,487.814,387.73Z" transform="translate(100.345 82.947)" fill="none" stroke="#000" stroke-width="2"/>
    <path id="Path_545" data-name="Path 545" d="M476.435,399.089c3.959,2.759,4.157,5.691,4.157,5.691" transform="translate(101.933 85.385)" fill="none" stroke="#000" stroke-linecap="round" stroke-linejoin="round" stroke-width="0.5"/>
    <path id="Path_546" data-name="Path 546" d="M474.91,403.586c-.1,3.367,2.322-.52,1.738-1.616s-1.666-.739-1.738,1.616" transform="translate(101.606 85.874)"/>
    <path id="Path_547" data-name="Path 547" d="M472.463,416.893c2.836.9,4.7-1.961,4.7-1.961" transform="translate(101.083 88.774)" fill="none" stroke="#000" stroke-linecap="round" stroke-linejoin="round" stroke-width="0.5"/>
    <path id="Path_548" data-name="Path 548" d="M480.05,386.087c-8.4,8.39,13.4,26.44,13.4,26.44s6.209,9.942,3.905,17.38c14.959.855,25.775-23.9,19.321-36.148-7.813-14.836-25.214-19.069-36.63-7.672" transform="translate(102.294 81.212)"/>
    <path id="Path_549" data-name="Path 549" d="M480.05,386.087c-8.4,8.39,13.4,26.44,13.4,26.44s6.209,9.942,3.905,17.38c14.959.855,25.775-23.9,19.321-36.148C508.866,378.923,491.466,374.69,480.05,386.087Z" transform="translate(102.294 81.212)" fill="none" stroke="#000" stroke-width="2"/>
    <path id="Path_550" data-name="Path 550" d="M483.044,383.917c-15.475,11.664,7.548,25.017,7.548,25.017" transform="translate(102.202 82.139)" fill="none" stroke="#000" stroke-linecap="round" stroke-linejoin="round" stroke-width="0.5"/>
    <path id="Path_551" data-name="Path 551" d="M490.789,408.938a79.16,79.16,0,0,1,1.809,19.585" transform="translate(105.004 87.492)" fill="none" stroke="#000" stroke-linecap="round" stroke-linejoin="round" stroke-width="0.5"/>
    <path id="Path_552" data-name="Path 552" d="M487.961,414.29c-5.175-4.132,1.014-14.617,4.651-10.684s.191,14.55-4.651,10.684" transform="translate(103.975 86.166)" fill="#e17847"/>
    <path id="Path_553" data-name="Path 553" d="M487.961,414.29c-5.175-4.132,1.014-14.617,4.651-10.684S492.8,418.156,487.961,414.29Z" transform="translate(103.975 86.166)" fill="none" stroke="#000" stroke-width="2"/>
    <line id="Line_45" data-name="Line 45" y1="5.028" x2="1.867" transform="translate(592.837 492.38)" fill="none" stroke="#000" stroke-linecap="round" stroke-linejoin="round" stroke-width="0.5"/>
    <path id="Path_554" data-name="Path 554" d="M486.27,407.552c1.031-3.507,4.109-6.293,6.28-3.947,3.114,3.367,1.034,11.638-2.668,11.516" transform="translate(104.037 86.166)" fill="none" stroke="#000" stroke-linecap="round" stroke-linejoin="round" stroke-width="0.5"/>
    <path id="Path_555" data-name="Path 555" d="M539.019,443.868c-2.6-3.82-8.37-5.175-13.667-5.556-16.315-14.547-36.642,2.311-38.786,4.171a25.025,25.025,0,0,0-7.232,3.571c-7.6,2.921-15.911,10.935-24.069,18.881.549,1.073,17.317,28.269,17.662,26.652.076-.362,2.014-1.5,4.8-3.284A171.306,171.306,0,0,0,490.69,520.9s36.24-5.551,42.061-5.778,4.574-9.5,6.03-27.382,5.7-35.844.238-43.87" transform="translate(97.404 92.521)" fill="#a62973"/>
    <path id="Path_556" data-name="Path 556" d="M539.019,443.868c-2.6-3.82-8.37-5.175-13.667-5.556-16.315-14.547-36.642,2.311-38.786,4.171a25.025,25.025,0,0,0-7.232,3.571c-7.6,2.921-15.911,10.935-24.069,18.881.549,1.073,17.317,28.269,17.662,26.652.076-.362,2.014-1.5,4.8-3.284A171.306,171.306,0,0,0,490.69,520.9s36.24-5.551,42.061-5.778,4.574-9.5,6.03-27.382S544.477,451.894,539.019,443.868Z" transform="translate(97.404 92.521)" fill="none" stroke="#000" stroke-width="2"/>
    <path id="Path_557" data-name="Path 557" d="M526.565,500.335c-1.765.785-40.117,5.557-40.117,5.557" transform="translate(104.075 107.046)" fill="none" stroke="#000" stroke-linecap="round" stroke-linejoin="round" stroke-width="0.5"/>
    <path id="Path_558" data-name="Path 558" d="M524.636,504.7c-22.386-2.311-27.978-15.854-31.435-23.532" transform="translate(105.52 102.945)" fill="none" stroke="#000" stroke-linecap="round" stroke-linejoin="round" stroke-width="1"/>
    <path id="Path_559" data-name="Path 559" d="M519.771,440.07c-16.295-5.55-33.5,1.417-33.5,1.417" transform="translate(104.037 93.693)" fill="none" stroke="#000" stroke-linecap="round" stroke-linejoin="round" stroke-width="1"/>
    <path id="Path_560" data-name="Path 560" d="M457.266,522.331l4.357,7.262-4.357-1.528" transform="translate(97.832 111.752)" fill="none" stroke="#000" stroke-linecap="round" stroke-linejoin="round" stroke-width="2"/>
    <path id="Path_561" data-name="Path 561" d="M448.127,578.449s8.078,2.293,22.688-3.978a19.553,19.553,0,0,1-7.235,7.036" transform="translate(95.876 122.908)" fill="none" stroke="#000" stroke-linecap="round" stroke-linejoin="round" stroke-width="2"/>
    <line id="Line_46" data-name="Line 46" x1="21.826" y2="5.737" transform="translate(609.683 610.55)" fill="none" stroke="#000" stroke-linecap="round" stroke-linejoin="round" stroke-width="2"/>
    <path id="Path_562" data-name="Path 562" d="M491.99,528.622l-6.818-1.749,4.8,4.89" transform="translate(103.802 112.724)" fill="none" stroke="#000" stroke-linecap="round" stroke-linejoin="round" stroke-width="2"/>
    <path id="Path_563" data-name="Path 563" d="M529.968,606.747c.862-6.385,3.267-24.207,3.267-24.207l-12.852,18.212" transform="translate(111.336 124.634)" fill="none" stroke="#000" stroke-linecap="round" stroke-linejoin="round" stroke-width="2"/>
    <path id="Path_564" data-name="Path 564" d="M536.429,587.779c-21.834-9.645-61.082-7.475-61.082-7.475" transform="translate(101.7 124.111)" fill="none" stroke="#000" stroke-linecap="round" stroke-linejoin="round" stroke-width="2"/>
    <path id="Path_565" data-name="Path 565" d="M488.349,445.612c-6.184-5.165-13.443-1.686-13.443-1.686" transform="translate(101.606 94.732)" fill="none" stroke="#000" stroke-linecap="round" stroke-linejoin="round" stroke-width="1"/>
    <path id="Path_566" data-name="Path 566" d="M506.859,398.286c-1.7-5.818,3.751-9.74,12.135-5.539s9.347,18.537,7.063,34.717,10.968,7.485,14.987,23.815-11.366,32.358-28.34,15.63c-9.775-9.634-9.931-29.084-6.048-43.207a50.21,50.21,0,0,0,.2-25.415" transform="translate(107.891 83.652)"/>
    <path id="Path_567" data-name="Path 567" d="M506.859,398.286c-1.7-5.818,3.751-9.74,12.135-5.539s9.347,18.537,7.063,34.717,10.968,7.485,14.987,23.815-11.366,32.358-28.34,15.63c-9.775-9.634-9.931-29.084-6.048-43.207A50.21,50.21,0,0,0,506.859,398.286Z" transform="translate(107.891 83.652)" fill="none" stroke="#000" stroke-width="2"/>
    <path id="Path_568" data-name="Path 568" d="M515.263,393.174c8.67,3.444,10.7,17.646,9.638,33.975s12.785,6.4,18.013,22.321" transform="translate(110.24 84.119)" fill="none" stroke="#000" stroke-linecap="round" stroke-linejoin="round" stroke-width="0.5"/>
    <path id="Path_569" data-name="Path 569" d="M510.684,391.262c-4.791-.293-4.539,6.967-4.539,6.967" transform="translate(108.289 83.708)" fill="none" stroke="#fff" stroke-linecap="round" stroke-linejoin="round" stroke-width="0.5"/>
    <path id="Path_570" data-name="Path 570" d="M509.667,433.034c-15.356-2.839-28.781,9.589-28.781,9.589" transform="translate(102.885 92.557)" fill="none" stroke="#000" stroke-linecap="round" stroke-linejoin="round" stroke-width="0.5"/>
    <path id="Path_571" data-name="Path 571" d="M486.5,500.5c-7.023-17.18-7.784-26.985-7.784-26.985" transform="translate(102.421 101.309)" fill="none" stroke="#000" stroke-linecap="round" stroke-linejoin="round" stroke-width="1"/>
    <path id="Path_572" data-name="Path 572" d="M418.478,324.043h62.464V128.465c0-7.951-5.922-14.4-13.226-14.4H288.231v67.988c0,7.348,7.524,11.789,13.143,7.716,8.141-5.9,18.027-9.47,26.947-9.47,19.665,0,35.606,17.352,35.606,38.755s-15.942,38.755-35.606,38.755c-8.92,0-18.807-3.57-26.947-9.47-5.619-4.072-13.143.369-13.143,7.717v67.982h62.256c6.673,0,10.741,8.1,7.051,14.147-5.4,8.848-8.662,19.581-8.662,29.267,0,21.4,15.942,38.755,35.606,38.755s35.606-17.351,35.606-38.755c0-9.686-3.266-20.42-8.663-29.27-3.692-6.052.378-14.145,7.052-14.145" transform="translate(61.667 24.405)" fill="#0a74be"/>
    <path id="Path_573" data-name="Path 573" d="M418.478,324.043h62.464V128.465c0-7.951-5.922-14.4-13.226-14.4H288.231v67.988c0,7.348,7.524,11.789,13.143,7.716,8.141-5.9,18.027-9.47,26.947-9.47,19.665,0,35.606,17.352,35.606,38.755s-15.942,38.755-35.606,38.755c-8.92,0-18.807-3.57-26.947-9.47-5.619-4.072-13.143.369-13.143,7.717v67.982h62.256c6.673,0,10.741,8.1,7.051,14.147-5.4,8.848-8.662,19.581-8.662,29.267,0,21.4,15.942,38.755,35.606,38.755s35.606-17.351,35.606-38.755c0-9.686-3.266-20.42-8.663-29.27C407.735,332.137,411.8,324.043,418.478,324.043Z" transform="translate(61.667 24.405)" fill="none" stroke="#000" stroke-linecap="round" stroke-linejoin="round" stroke-width="2"/>
    <path id="Path_574" data-name="Path 574" d="M510.918,294.866c-4.154-6.162-13.653-8.465-19.315-3.943l-41.865,31.73L410.6,301.081c2.041-3.712,3.649-11.443,2.779-17.426-1.233-8.494-2.529-11.441-2.529-11.441-4.551.836-5.7,5.842-5.621,9.392.047,2-1.2,4.108-2.306,5.574-6.593-5.527-18.759-15.673-20.678-16.886-2.653-1.676-4.7,1.712-1.509,4.743-2.826-.628-5.056,2.683.944,8-2.859.032-2.185,2.387,1.469,5.975-1.583.04,5.468,8.721,7.207,11.668a30.355,30.355,0,0,0,1.888,2.736,5.875,5.875,0,0,0,1.146,1.485l.151.137c1.787,2.137,3.876,4.225,5.468,4.983l44.624,40.666a9.042,9.042,0,0,0,11.406.779l.983-.69,52.989-32.959c.206-.146-1.021-3.443-.821-3.6a14.652,14.652,0,0,0,2.728-19.346" transform="translate(80.847 57.734)" fill="#e17847"/>
    <path id="Path_575" data-name="Path 575" d="M510.918,294.866c-4.154-6.162-13.653-8.465-19.315-3.943l-41.865,31.73L410.6,301.081c2.041-3.712,3.649-11.443,2.779-17.426-1.233-8.494-2.529-11.441-2.529-11.441-4.551.836-5.7,5.842-5.621,9.392.047,2-1.2,4.108-2.306,5.574-6.593-5.527-18.759-15.673-20.678-16.886-2.653-1.676-4.7,1.712-1.509,4.743-2.826-.628-5.056,2.683.944,8-2.859.032-2.185,2.387,1.469,5.975-1.583.04,5.468,8.721,7.207,11.668a30.355,30.355,0,0,0,1.888,2.736,5.875,5.875,0,0,0,1.146,1.485l.151.137c1.787,2.137,3.876,4.225,5.468,4.983l44.624,40.666a9.042,9.042,0,0,0,11.406.779l.983-.69,52.989-32.959c.206-.146-1.021-3.443-.821-3.6A14.652,14.652,0,0,0,510.918,294.866Z" transform="translate(80.847 57.734)" fill="none" stroke="#000" stroke-width="2"/>
    <path id="Path_576" data-name="Path 576" d="M467.239,333.034l-17.537-26.2s39.629-39.819,48.378-14.3-30.842,40.507-30.842,40.507" transform="translate(96.213 60.76)" fill="#a62973"/>
    <path id="Path_577" data-name="Path 577" d="M467.239,333.034l-17.537-26.2s39.629-39.819,48.378-14.3S467.239,333.034,467.239,333.034Z" transform="translate(96.213 60.76)" fill="none" stroke="#000" stroke-width="2"/>
    <line id="Line_47" data-name="Line 47" x1="7.505" y1="7" transform="translate(462.667 332.998)" fill="none" stroke="#000" stroke-linecap="round" stroke-linejoin="round" stroke-width="1"/>
    <line id="Line_48" data-name="Line 48" x1="4.606" y1="4.03" transform="translate(464.378 341.572)" fill="none" stroke="#000" stroke-linecap="round" stroke-linejoin="round" stroke-width="1"/>
    <path id="Path_578" data-name="Path 578" d="M469.918,328.24c.047-.026-16.33-28.916-16.33-28.916" transform="translate(97.045 64.04)" fill="none" stroke="#000" stroke-linecap="round" stroke-linejoin="round" stroke-width="2"/>
    <path id="Path_579" data-name="Path 579" d="M433.8,338.622l-36.425-33.374A28.167,28.167,0,0,1,386.1,292.463" transform="translate(82.606 62.572)" fill="none" stroke="#000" stroke-linecap="round" stroke-linejoin="round" stroke-width="0.5"/>
    <path id="Path_580" data-name="Path 580" d="M441.482,322.067l-3.947-8.72-2.623,6.435" transform="translate(93.049 67.04)" fill="none" stroke="#000" stroke-linecap="round" stroke-linejoin="round" stroke-width="2"/>
    <path id="Path_581" data-name="Path 581" d="M494.6,287.38c-12.285-14.651-44.9,19.506-44.9,19.506l17.537,26.2s5.822-2.956,11.018-5.855" transform="translate(96.213 60.703)" fill="none" stroke="#000" stroke-linecap="round" stroke-linejoin="round" stroke-width="0.5"/>
    <path id="Path_582" data-name="Path 582" d="M452.69,183.528a2.738,2.738,0,0,0,2.374-3,2.658,2.658,0,0,0-2.762-2.585c-1.052.086-10.121.886-11.172.972a2.739,2.739,0,0,0-2.376,3,2.654,2.654,0,0,0,2.759,2.584c1.055-.086,10.123-.886,11.176-.972" transform="translate(93.87 38.068)" fill="#e17847"/>
    <path id="Path_583" data-name="Path 583" d="M452.69,183.528a2.738,2.738,0,0,0,2.374-3,2.658,2.658,0,0,0-2.762-2.585c-1.052.086-10.121.886-11.172.972a2.739,2.739,0,0,0-2.376,3,2.654,2.654,0,0,0,2.759,2.584C442.569,184.415,451.638,183.615,452.69,183.528Z" transform="translate(93.87 38.068)" fill="none" stroke="#000" stroke-width="2"/>
    <path id="Path_584" data-name="Path 584" d="M449.1,179.2a2.737,2.737,0,0,0,2.374-3,2.656,2.656,0,0,0-2.761-2.585c-1.052.086-6.055.48-7.108.566a2.736,2.736,0,0,0-2.375,3,2.654,2.654,0,0,0,2.76,2.584c1.052-.086,6.055-.478,7.108-.564" transform="translate(93.971 37.141)" fill="#e17847"/>
    <path id="Path_585" data-name="Path 585" d="M449.1,179.2a2.737,2.737,0,0,0,2.374-3,2.656,2.656,0,0,0-2.761-2.585c-1.052.086-6.055.48-7.108.566a2.736,2.736,0,0,0-2.375,3,2.654,2.654,0,0,0,2.76,2.584C443.04,179.674,448.043,179.282,449.1,179.2Z" transform="translate(93.971 37.141)" fill="none" stroke="#000" stroke-width="2"/>
    <path id="Path_586" data-name="Path 586" d="M453.011,188.1a2.737,2.737,0,0,0,2.374-3,2.656,2.656,0,0,0-2.76-2.585c-1.052.086-9.224.836-10.276.923a2.739,2.739,0,0,0-2.375,3,2.656,2.656,0,0,0,2.761,2.585c1.052-.086,9.224-.836,10.276-.923" transform="translate(94.131 39.046)" fill="#e17847"/>
    <path id="Path_587" data-name="Path 587" d="M453.011,188.1a2.737,2.737,0,0,0,2.374-3,2.656,2.656,0,0,0-2.76-2.585c-1.052.086-9.224.836-10.276.923a2.739,2.739,0,0,0-2.375,3,2.656,2.656,0,0,0,2.761,2.585C443.787,188.936,451.958,188.186,453.011,188.1Z" transform="translate(94.131 39.046)" fill="none" stroke="#000" stroke-width="2"/>
    <path id="Path_588" data-name="Path 588" d="M441.028,183.48l9.492-.776" transform="translate(94.358 39.089)" fill="none" stroke="#000" stroke-linecap="round" stroke-linejoin="round" stroke-width="0.5"/>
    <path id="Path_589" data-name="Path 589" d="M450.2,178.1l-9.492.776" transform="translate(94.29 38.104)" fill="none" stroke="#000" stroke-linecap="round" stroke-linejoin="round" stroke-width="0.5"/>
    <path id="Path_590" data-name="Path 590" d="M441.5,178.8l8.533-.7" transform="translate(94.459 38.104)" fill="none" stroke="#000" stroke-linecap="round" stroke-linejoin="round" stroke-width="0.5"/>
    <path id="Path_591" data-name="Path 591" d="M450.327,182.7l-8.4.687" transform="translate(94.551 39.089)" fill="none" stroke="#000" stroke-linecap="round" stroke-linejoin="round" stroke-width="0.5"/>
    <path id="Path_592" data-name="Path 592" d="M450.546,194.971a2.628,2.628,0,0,0,2.877-2.429,2.766,2.766,0,0,0-2.232-3.131c-1.046-.144-6.088-.779-7.134-.924a2.627,2.627,0,0,0-2.877,2.429,2.763,2.763,0,0,0,2.231,3.131c1.048.144,6.088.779,7.136.924" transform="translate(94.386 40.322)" fill="#e17847"/>
    <path id="Path_593" data-name="Path 593" d="M450.546,194.971a2.628,2.628,0,0,0,2.877-2.429,2.766,2.766,0,0,0-2.232-3.131c-1.046-.144-6.088-.779-7.134-.924a2.627,2.627,0,0,0-2.877,2.429,2.763,2.763,0,0,0,2.231,3.131C444.459,194.191,449.5,194.826,450.546,194.971Z" transform="translate(94.386 40.322)" fill="none" stroke="#000" stroke-width="2"/>
    <path id="Path_594" data-name="Path 594" d="M345.584,130.387c-8.777,1.732-17.92,7.166-24.964,14.553-4.862,5.1-12.993,2.19-14.2-5.039L295.276,73l-176.6,34.867c-7.187,1.419-11.956,8.91-10.652,16.733l32.07,192.439,61.461-12.135c6.566-1.3,9.243-10.05,4.618-15.288-6.762-7.658-11.734-17.585-13.322-27.116-3.51-21.06,9.33-41.229,28.68-45.05s37.88,10.156,41.39,31.217c1.588,9.531.136,20.726-3.724,30.481-2.639,6.672,2.691,13.845,9.259,12.549l61.256-12.093-11.149-66.891c-1.2-7.23,5.471-13.061,11.668-10.146,8.977,4.223,19.291,5.816,28.066,4.084,19.35-3.82,32.19-23.99,28.681-45.051s-22.04-35.036-41.39-31.215" transform="translate(23.065 15.619)" fill="#c92627"/>
    <path id="Path_595" data-name="Path 595" d="M345.584,130.387c-8.777,1.732-17.92,7.166-24.964,14.553-4.862,5.1-12.993,2.19-14.2-5.039L295.276,73l-176.6,34.867c-7.187,1.419-11.956,8.91-10.652,16.733l32.07,192.439,61.461-12.135c6.566-1.3,9.243-10.05,4.618-15.288-6.762-7.658-11.734-17.585-13.322-27.116-3.51-21.06,9.33-41.229,28.68-45.05s37.88,10.156,41.39,31.217c1.588,9.531.136,20.726-3.724,30.481-2.639,6.672,2.691,13.845,9.259,12.549l61.256-12.093-11.149-66.891c-1.2-7.23,5.471-13.061,11.668-10.146,8.977,4.223,19.291,5.816,28.066,4.084,19.35-3.82,32.19-23.99,28.681-45.051S364.933,126.567,345.584,130.387Z" transform="translate(23.065 15.619)" fill="none" stroke="#000" stroke-linecap="round" stroke-linejoin="round" stroke-width="2"/>
    <path id="Path_596" data-name="Path 596" d="M128.483,150.721a2.363,2.363,0,0,0-1.544-2.678,2.1,2.1,0,0,0-2.527,1.26l-3.432,7.914-2.509-6.964a.889.889,0,0,0-.142-.39l-2.444-13.945,2.37,13.845a.312.312,0,0,0-.216-.056l-2.646-16.948a1.779,1.779,0,0,0-1.845-1.572,1.854,1.854,0,0,0-1.6,2.072l1.947,21.917c0,.021.008.04.01.061a5.357,5.357,0,0,0-.058.937l.375,13a9.827,9.827,0,0,0-.35.919c-5.585,17.586-19.928,53.207-23.474,63.44s16.042,23.859,19.972,11.235,13.525-62.835,14.885-71.551a10.305,10.305,0,0,0,.023-3.3c.021-.085.055-.161.07-.25Z" transform="translate(19.248 28.066)" fill="#e17847"/>
    <path id="Path_597" data-name="Path 597" d="M128.483,150.721a2.363,2.363,0,0,0-1.544-2.678,2.1,2.1,0,0,0-2.527,1.26l-3.432,7.914-2.509-6.964a.889.889,0,0,0-.142-.39l-2.444-13.945,2.37,13.845a.312.312,0,0,0-.216-.056l-2.646-16.948a1.779,1.779,0,0,0-1.845-1.572,1.854,1.854,0,0,0-1.6,2.072l1.947,21.917c0,.021.008.04.01.061a5.357,5.357,0,0,0-.058.937l.375,13a9.827,9.827,0,0,0-.35.919c-5.585,17.586-19.928,53.207-23.474,63.44s16.042,23.859,19.972,11.235,13.525-62.835,14.885-71.551a10.305,10.305,0,0,0,.023-3.3c.021-.085.055-.161.07-.25Z" transform="translate(19.248 28.066)" fill="none" stroke="#000" stroke-width="2"/>
    <path id="Path_598" data-name="Path 598" d="M94.128,220.677C76.9,268.221,53.917,294.346,71.771,303.16c23.315,11.511,40.241-60.318,42.469-71.974,0,0,7.984-1.971,2.425-8.648s-16.948-10.8-20.8-10.2c-7.459,1.159-1.736,8.341-1.736,8.341" transform="translate(13.972 45.417)" fill="#ee5064"/>
    <path id="Path_599" data-name="Path 599" d="M94.128,220.677C76.9,268.221,53.917,294.346,71.771,303.16c23.315,11.511,40.241-60.318,42.469-71.974,0,0,7.984-1.971,2.425-8.648s-16.948-10.8-20.8-10.2C88.4,213.5,94.128,220.677,94.128,220.677Z" transform="translate(13.972 45.417)" fill="none" stroke="#000" stroke-width="2"/>
    <path id="Path_600" data-name="Path 600" d="M89.048,219.2a23.483,23.483,0,0,1,20.113,10.509" transform="translate(19.052 46.894)" fill="none" stroke="#000" stroke-linecap="round" stroke-linejoin="round" stroke-width="2"/>
    <path id="Path_601" data-name="Path 601" d="M98.913,214.462c8.686,4.658,11.417,6.643,12.137,11.325" transform="translate(21.162 45.884)" fill="none" stroke="#000" stroke-linecap="round" stroke-linejoin="round" stroke-width="0.5"/>
    <path id="Path_602" data-name="Path 602" d="M52.7,523.974l-8.719,89.389s55.377-.357,55.049-.892-31.621-27.105-31.621-27.105l10.521-67.633Z" transform="translate(9.41 110.769)" fill="#e17847"/>
    <path id="Path_603" data-name="Path 603" d="M52.7,523.974l-8.719,89.389s55.377-.357,55.049-.892-31.621-27.105-31.621-27.105l10.521-67.633Z" transform="translate(9.41 110.769)" fill="none" stroke="#000" stroke-width="2"/>
    <path id="Path_604" data-name="Path 604" d="M44.886,586.155c20.732,3.994,31.921-8.184,31.921-8.184l40.65,23.433H43.239Z" transform="translate(9.251 123.656)" fill="#ee5064"/>
    <path id="Path_605" data-name="Path 605" d="M44.886,586.155c20.732,3.994,31.921-8.184,31.921-8.184l40.65,23.433H43.239Z" transform="translate(9.251 123.656)" fill="none" stroke="#000" stroke-linejoin="round" stroke-width="2"/>
    <rect id="Rectangle_189" data-name="Rectangle 189" width="74.218" height="6.321" transform="translate(52.49 725.059)" fill="#fff"/>
    <rect id="Rectangle_190" data-name="Rectangle 190" width="74.218" height="6.321" transform="translate(52.49 725.059)" fill="none" stroke="#000" stroke-width="2"/>
    <path id="Path_606" data-name="Path 606" d="M117.457,601.4H43.239l1.647-15.248s17.822,4.653,31.921-8.184" transform="translate(9.251 123.656)" fill="none" stroke="#000" stroke-linecap="round" stroke-linejoin="round" stroke-width="0.5"/>
    <path id="Path_607" data-name="Path 607" d="M112.615,345.849c33.217,8.047,14.677,62.474-4.867,117.906C89.791,514.686,77.39,576.4,77.39,576.4l-28.479-3.34c1.1-5.679,9.058-64.557,16.963-85.115S86.2,421.087,84.695,378.663s27.921-32.814,27.921-32.814" transform="translate(10.464 73.794)" fill="#672376"/>
    <path id="Path_608" data-name="Path 608" d="M112.615,345.849c33.217,8.047,14.677,62.474-4.867,117.906C89.791,514.686,77.39,576.4,77.39,576.4l-28.479-3.34c1.1-5.679,9.058-64.557,16.963-85.115S86.2,421.087,84.695,378.663,112.615,345.849,112.615,345.849Z" transform="translate(10.464 73.794)" fill="none" stroke="#000" stroke-width="2"/>
    <path id="Path_609" data-name="Path 609" d="M65.849,240.027l15.229,37.125L67.669,288.516,47.538,251.381Z" transform="translate(10.171 51.354)" fill="#e17847"/>
    <path id="Path_610" data-name="Path 610" d="M65.849,240.027l15.229,37.125L67.669,288.516,47.538,251.381Z" transform="translate(10.171 51.354)" fill="none" stroke="#000" stroke-width="2"/>
    <path id="Path_611" data-name="Path 611" d="M36.25,242.542C40.2,218.556,55.18,217.973,61.3,221.936c6.462,4.186,18.673,28.936-5.347,35.759-18.576,5.279-19.7-15.154-19.7-15.154" transform="translate(7.756 47.088)"/>
    <path id="Path_612" data-name="Path 612" d="M48.578,227.582c5.669-5.622,13.81.163,20.36,4.363,4.932,3.162,8.625,2.646,8.947,3.63a6.788,6.788,0,0,1-.6,4.754s5.572,9.951,5.071,14.86c-.35,3.418-14.424,12.373-23.723,2.99-3.153-3.181-5.107,1.441-8.3-2.116-8.4-9.368-14.094-18.885-1.754-28.48" transform="translate(8.865 48.192)" fill="#e17847"/>
    <path id="Path_613" data-name="Path 613" d="M48.578,227.582c5.669-5.622,13.81.163,20.36,4.363,4.932,3.162,8.625,2.646,8.947,3.63a6.788,6.788,0,0,1-.6,4.754s5.572,9.951,5.071,14.86c-.35,3.418-14.424,12.373-23.723,2.99-3.153-3.181-5.107,1.441-8.3-2.116C41.931,246.694,36.238,237.177,48.578,227.582Z" transform="translate(8.865 48.192)" fill="none" stroke="#000" stroke-width="2"/>
    <path id="Path_614" data-name="Path 614" d="M60.2,230.843c-1.6,4.812-.114,7.269-.114,7.269" transform="translate(12.722 49.389)" fill="none" stroke="#000" stroke-linecap="round" stroke-linejoin="round" stroke-width="1"/>
    <path id="Path_615" data-name="Path 615" d="M63.987,233.305c1.965,2.6-2.133,1.127-2.285-.13s.91-1.69,2.285.13" transform="translate(13.198 49.654)"/>
    <path id="Path_616" data-name="Path 616" d="M73.839,242.062a4.317,4.317,0,0,1-4.824,1.559" transform="translate(14.766 51.789)" fill="none" stroke="#000" stroke-linecap="round" stroke-linejoin="round" stroke-width="1"/>
    <path id="Path_617" data-name="Path 617" d="M46.111,222.543c18.8-1,6.523,18.77,9.9,31.133" transform="translate(9.865 47.605)" fill="none" stroke="#000" stroke-linecap="round" stroke-linejoin="round" stroke-width="2"/>
    <path id="Path_618" data-name="Path 618" d="M75.212,524.894l-4.588,88.272s55.378-.357,55.05-.892-31.621-27.105-31.621-27.105l6.389-66.516Z" transform="translate(15.11 110.965)" fill="#e17847"/>
    <path id="Path_619" data-name="Path 619" d="M75.212,524.894l-4.588,88.272s55.378-.357,55.05-.892-31.621-27.105-31.621-27.105l6.389-66.516Z" transform="translate(15.11 110.965)" fill="none" stroke="#000" stroke-width="2"/>
    <path id="Path_620" data-name="Path 620" d="M71.528,586.155c20.731,3.994,31.921-8.184,31.921-8.184L144.1,601.4H69.881Z" transform="translate(14.951 123.656)" fill="#ee5064"/>
    <path id="Path_621" data-name="Path 621" d="M71.528,586.155c20.731,3.994,31.921-8.184,31.921-8.184L144.1,601.4H69.881Z" transform="translate(14.951 123.656)" fill="none" stroke="#000" stroke-linejoin="round" stroke-width="2"/>
    <rect id="Rectangle_191" data-name="Rectangle 191" width="74.218" height="6.321" transform="translate(84.831 725.059)" fill="#fff"/>
    <rect id="Rectangle_192" data-name="Rectangle 192" width="74.218" height="6.321" transform="translate(84.831 725.059)" fill="none" stroke="#000" stroke-width="2"/>
    <path id="Path_622" data-name="Path 622" d="M111.6,345.352c33.818,4.127,20.742,60.4,6.767,117.794-12.841,52.733-19.1,115.54-19.1,115.54H70.631c.531-5.773,2.652-65.24,8.487-86.6s13.625-68.847,7.956-110.851,24.53-35.882,24.53-35.882" transform="translate(15.111 73.821)" fill="#672376"/>
    <path id="Path_623" data-name="Path 623" d="M111.6,345.352c33.818,4.127,20.742,60.4,6.767,117.794-12.841,52.733-19.1,115.54-19.1,115.54H70.631c.531-5.773,2.652-65.24,8.487-86.6s13.625-68.847,7.956-110.851S111.6,345.352,111.6,345.352Z" transform="translate(15.111 73.821)" fill="none" stroke="#000" stroke-width="2"/>
    <path id="Path_624" data-name="Path 624" d="M111.6,345.352s-30.2-6.123-24.53,35.882-2.121,89.489-7.956,110.851-7.956,80.828-8.487,86.6h28.65" transform="translate(15.11 73.821)" fill="none" stroke="#000" stroke-linecap="round" stroke-linejoin="round" stroke-width="0.5"/>
    <path id="Path_625" data-name="Path 625" d="M74.419,260.789c-1.507,1.64-14.956,13.113-14.956,13.113l3.661,6.5s-5.652,6.625,6.775,16.873S91.84,337.233,91.84,337.233c-3.389,16.4-10.793,42.429-10.417,65.794,0,0,25.436,11.428,54.435,10.609,4.211-71.6-.41-102.656-14.714-122.118C94.029,254.625,77.808,265.3,77.808,265.3Z" transform="translate(12.722 55.796)" fill="#ee5064"/>
    <path id="Path_626" data-name="Path 626" d="M74.419,260.789c-1.507,1.64-14.956,13.113-14.956,13.113l3.661,6.5s-5.652,6.625,6.775,16.873S91.84,337.233,91.84,337.233c-3.389,16.4-10.793,42.429-10.417,65.794,0,0,25.436,11.428,54.435,10.609,4.211-71.6-.41-102.656-14.714-122.118C94.029,254.625,77.808,265.3,77.808,265.3Z" transform="translate(12.722 55.796)" fill="none" stroke="#000" stroke-width="2"/>
    <path id="Path_627" data-name="Path 627" d="M144.1,601.4H69.88l1.647-15.248s19.575,3.529,31.921-8.184" transform="translate(14.951 123.656)" fill="none" stroke="#000" stroke-linecap="round" stroke-linejoin="round" stroke-width="0.5"/>
    <line id="Line_49" data-name="Line 49" x1="23.931" y2="8.26" transform="translate(85.734 644.248)" fill="none" stroke="#000" stroke-linecap="round" stroke-linejoin="round" stroke-width="2"/>
    <line id="Line_50" data-name="Line 50" x2="26.358" y2="3.34" transform="translate(59.376 646.858)" fill="none" stroke="#000" stroke-linecap="round" stroke-linejoin="round" stroke-width="0.5"/>
    <path id="Path_628" data-name="Path 628" d="M85.2,459.333l-5.8,1.721,3.97,1.721" transform="translate(16.988 98.274)" fill="none" stroke="#000" stroke-linecap="round" stroke-linejoin="round" stroke-width="2"/>
    <path id="Path_629" data-name="Path 629" d="M118.97,396.478c-7.848,67.633-25.3,96.1-27.409,150.884" transform="translate(19.589 84.826)" fill="none" stroke="#000" stroke-linecap="round" stroke-linejoin="round" stroke-width="2"/>
    <path id="Path_630" data-name="Path 630" d="M77.553,377.957c32.818,11.869,54.435,10.609,54.435,10.609" transform="translate(16.592 80.864)" fill="none" stroke="#000" stroke-linecap="round" stroke-linejoin="round" stroke-width="0.5"/>
    <path id="Path_631" data-name="Path 631" d="M93.515,282.526c29.516,54,16.075,117.678,16.075,117.678" transform="translate(20.007 60.446)" fill="none" stroke="#000" stroke-linecap="round" stroke-linejoin="round" stroke-width="2"/>
    <path id="Path_632" data-name="Path 632" d="M93.4,327.127l-7.267-3.367,2.978,22.587" transform="translate(18.428 69.268)" fill="none" stroke="#000" stroke-linecap="round" stroke-linejoin="round" stroke-width="2"/>
    <path id="Path_633" data-name="Path 633" d="M57.121,221.739c-3.769,29.015,18.913,41.674,23.421,59.769,6.86,27.541-2.418,56,7.814,68.012S77.585,377.655,48.5,373.259,23.194,337.5,30.464,312.592s-3.149-54.6,1.885-70.631c7.269-23.151,24.772-20.222,24.772-20.222" transform="translate(5.412 47.415)"/>
    <path id="Path_634" data-name="Path 634" d="M207.96,201.265a2.3,2.3,0,0,0-2.566-2.078l-14.406,2.3a1.664,1.664,0,0,0-.206.033l-.134.022a2.092,2.092,0,0,0-.652.228c-.578.2-1.509.518-2.172.785-1.944.783-3.194.336-3.982-.371a20.8,20.8,0,0,0,4.137-5.645c1.205-2.508-.29-5.008-1.1-4.291,0,0-6.473,5.767-9.5,8.448a3.693,3.693,0,0,0-1.156,1.663c-.086.159-.186.306-.259.478l-2.565,6.069c-11.846,14.011-36.915,39.637-43.72,47.355-6.956,7.892,6.13,28.8,14.3,18.877,6.53-7.93,25.045-36.358,34.471-51.264a7.153,7.153,0,0,0,3.069-.036l12.864-3.069,2.106-.033a2.377,2.377,0,0,0,2.229-2.5,2.487,2.487,0,0,0-1.185-2.115l-.131-.392,1.164-.018a2.47,2.47,0,0,0-.066-4.921l-2.763.044-.01-.029,3.846-.313a2.41,2.41,0,0,0,2.079-2.713,2.379,2.379,0,0,0-2.512-2.188l-5.044.41-.013-.036,11.954-1.908a2.439,2.439,0,0,0,1.911-2.792" transform="translate(27.325 41.104)" fill="#e17847"/>
    <path id="Path_635" data-name="Path 635" d="M207.96,201.265a2.3,2.3,0,0,0-2.566-2.078l-14.406,2.3a1.664,1.664,0,0,0-.206.033l-.134.022a2.092,2.092,0,0,0-.652.228c-.578.2-1.509.518-2.172.785-1.944.783-3.194.336-3.982-.371a20.8,20.8,0,0,0,4.137-5.645c1.205-2.508-.29-5.008-1.1-4.291,0,0-6.473,5.767-9.5,8.448a3.693,3.693,0,0,0-1.156,1.663c-.086.159-.186.306-.259.478l-2.565,6.069c-11.846,14.011-36.915,39.637-43.72,47.355-6.956,7.892,6.13,28.8,14.3,18.877,6.53-7.93,25.045-36.358,34.471-51.264a7.153,7.153,0,0,0,3.069-.036l12.864-3.069,2.106-.033a2.377,2.377,0,0,0,2.229-2.5,2.487,2.487,0,0,0-1.185-2.115l-.131-.392,1.164-.018a2.47,2.47,0,0,0-.066-4.921l-2.763.044-.01-.029,3.846-.313a2.41,2.41,0,0,0,2.079-2.713,2.379,2.379,0,0,0-2.512-2.188l-5.044.41-.013-.036,11.954-1.908A2.439,2.439,0,0,0,207.96,201.265Z" transform="translate(27.325 41.104)" fill="none" stroke="#000" stroke-width="2"/>
    <path id="Path_636" data-name="Path 636" d="M141.838,245.273C98.4,264.688,65.171,264.748,71.7,284.868c8.526,26.276,67.842-10.2,77.108-16.528,0,0,6.838,4.9,7.41-4.087s-4.585-20.785-7.652-23.4c-5.935-5.051-6.729,4.416-6.729,4.416" transform="translate(15.165 51.214)" fill="#ee5064"/>
    <path id="Path_637" data-name="Path 637" d="M141.838,245.273C98.4,264.688,65.171,264.748,71.7,284.868c8.526,26.276,67.842-10.2,77.108-16.528,0,0,6.838,4.9,7.41-4.087s-4.585-20.785-7.652-23.4C142.632,235.805,141.838,245.273,141.838,245.273Z" transform="translate(15.165 51.214)" fill="none" stroke="#000" stroke-width="2"/>
    <path id="Path_638" data-name="Path 638" d="M129.332,244.233s9.318,9.226,6.971,23.067" transform="translate(27.67 52.253)" fill="none" stroke="#000" stroke-linecap="round" stroke-linejoin="round" stroke-width="2"/>
    <path id="Path_639" data-name="Path 639" d="M139.3,248.7c2.932,10.044,3.508,13.563.906,17.372" transform="translate(29.804 53.208)" fill="none" stroke="#000" stroke-linecap="round" stroke-linejoin="round" stroke-width="0.5"/>
    <path id="Path_640" data-name="Path 640" d="M105.209,281.007c-6.951,3.109-16.47,5.245-25.59,3.8" transform="translate(17.034 60.121)" fill="none" stroke="#000" stroke-linecap="round" stroke-linejoin="round" stroke-width="0.5"/>
    <path id="Path_641" data-name="Path 641" d="M79.216,269.265c.981-5.152,3.406-7.366,3.406-7.366-7.479,2.336-8.116,4.787-8.116,4.787" transform="translate(15.941 56.033)" fill="none" stroke="#000" stroke-linecap="round" stroke-linejoin="round" stroke-width="2"/>
    <path id="Path_642" data-name="Path 642" d="M81.191,263.185a165.291,165.291,0,0,1,20.332-7.295" transform="translate(17.371 54.747)" fill="none" stroke="#000" stroke-linecap="round" stroke-linejoin="round" stroke-width="0.5"/>
    <path id="Path_643" data-name="Path 643" d="M66.179,266.884c.28-.2,6.8-6.1,6.8-6.1l1.843,2.451" transform="translate(14.159 55.795)" fill="none" stroke="#000" stroke-linecap="round" stroke-linejoin="round" stroke-width="0.5"/>
    <path id="Path_644" data-name="Path 644" d="M277.935,456.952c1.425-2.48,9.627-23.229,14.479-32.4a7.415,7.415,0,0,1,.244-4.2l2.355-6.5a29.017,29.017,0,0,1,2.293-3.065c2.809-2.93,8.823-9.231,8.823-9.231.75-.783,2.421,1.572,1.406,4.172a20.944,20.944,0,0,1-4.672,7.009c.868.717,2.2,1.153,4.149.232.472-.223,1.108-.529,1.65-.791l12.755-7.966a2.16,2.16,0,0,1,3.08.908,2.576,2.576,0,0,1-.834,3.352c-.6.379-7.174,4.482-10.714,6.693l.113.284,14.672-6.941a2.191,2.191,0,0,1,2.969,1.273,2.543,2.543,0,0,1-1.17,3.232l-14.672,6.941.052.13,12.484-5.164a2.206,2.206,0,0,1,2.911,1.424A2.528,2.528,0,0,1,329,419.509l-12.286,5.082.109.272,9.449-3.083a2.231,2.231,0,0,1,2.809,1.647,2.5,2.5,0,0,1-1.513,3.058L315.7,430.357a2.073,2.073,0,0,1-.367.081l-11.6,5.488a6.082,6.082,0,0,1-1.014.371l-8.674,29.347c-6.565,4.334-17.778-5.789-16.109-8.693" transform="translate(59.428 85.88)" fill="#e17847"/>
    <path id="Path_645" data-name="Path 645" d="M277.935,456.952c1.425-2.48,9.627-23.229,14.479-32.4a7.415,7.415,0,0,1,.244-4.2l2.355-6.5a29.017,29.017,0,0,1,2.293-3.065c2.809-2.93,8.823-9.231,8.823-9.231.75-.783,2.421,1.572,1.406,4.172a20.944,20.944,0,0,1-4.672,7.009c.868.717,2.2,1.153,4.149.232.472-.223,1.108-.529,1.65-.791l12.755-7.966a2.16,2.16,0,0,1,3.08.908,2.576,2.576,0,0,1-.834,3.352c-.6.379-7.174,4.482-10.714,6.693l.113.284,14.672-6.941a2.191,2.191,0,0,1,2.969,1.273,2.543,2.543,0,0,1-1.17,3.232l-14.672,6.941.052.13,12.484-5.164a2.206,2.206,0,0,1,2.911,1.424A2.528,2.528,0,0,1,329,419.509l-12.286,5.082.109.272,9.449-3.083a2.231,2.231,0,0,1,2.809,1.647,2.5,2.5,0,0,1-1.513,3.058L315.7,430.357a2.073,2.073,0,0,1-.367.081l-11.6,5.488a6.082,6.082,0,0,1-1.014.371l-8.674,29.347C287.48,469.979,276.266,459.856,277.935,456.952Z" transform="translate(59.428 85.88)" fill="none" stroke="#000" stroke-width="2"/>
    <path id="Path_646" data-name="Path 646" d="M300.057,411.943s3.386,10.09-5.13,14.066" transform="translate(63.099 88.135)" fill="none" stroke="#000" stroke-linecap="round" stroke-linejoin="round" stroke-width="1"/>
    <path id="Path_647" data-name="Path 647" d="M303.057,413.835c3.319,3.771,3.877,10.9,3.877,10.9" transform="translate(64.839 88.54)" fill="none" stroke="#000" stroke-linecap="round" stroke-linejoin="round" stroke-width="1"/>
    <path id="Path_648" data-name="Path 648" d="M273.924,449.963,287.9,428.577l16.5,6.118-7.382,21.321Z" transform="translate(58.606 91.694)" fill="#fff"/>
    <path id="Path_649" data-name="Path 649" d="M273.924,449.963,287.9,428.577l16.5,6.118-7.382,21.321Z" transform="translate(58.606 91.694)" fill="none" stroke="#000" stroke-width="2"/>
    <path id="Path_650" data-name="Path 650" d="M225.023,448.565C237.1,433.093,270.7,472.31,270.7,472.31l25.2-41.04,20.226,15.169s-12.4,29.807-23.414,48.861c-8.519,14.739-22.514,9.935-27.847,8.146-15.829-5.311-37.8-15.823-45.254-27.127-4.334-6.577.157-21.018,5.413-27.755" transform="translate(46.613 92.27)" fill="#672376"/>
    <path id="Path_651" data-name="Path 651" d="M225.023,448.565C237.1,433.093,270.7,472.31,270.7,472.31l25.2-41.04,20.226,15.169s-12.4,29.807-23.414,48.861c-8.519,14.739-22.514,9.935-27.847,8.146-15.829-5.311-37.8-15.823-45.254-27.127C215.276,469.742,219.767,455.3,225.023,448.565Z" transform="translate(46.613 92.27)" fill="none" stroke="#000" stroke-width="2"/>
    <path id="Path_652" data-name="Path 652" d="M256.517,470.106c4.147-6.639,5.913-5,5.913-5-3.6,7.238-2.855,12.435-2.855,12.435" transform="translate(54.882 99.471)" fill="none" stroke="#000" stroke-linecap="round" stroke-linejoin="round" stroke-width="1"/>
    <line id="Line_51" data-name="Line 51" x1="21.245" y1="15.934" transform="translate(342.511 523.54)" fill="#fff"/>
    <line id="Line_52" data-name="Line 52" x1="21.245" y1="15.934" transform="translate(342.511 523.54)" fill="none" stroke="#000" stroke-linecap="round" stroke-linejoin="round" stroke-width="0.5"/>
    <path id="Path_653" data-name="Path 653" d="M262.973,572.492l-16.58,38.318-17.8-4.431,8.56-24.21Z" transform="translate(48.908 122.484)" fill="#a62973"/>
    <path id="Path_654" data-name="Path 654" d="M262.973,572.492l-16.58,38.318-17.8-4.431,8.56-24.21Z" transform="translate(48.908 122.484)" fill="none" stroke="#000" stroke-linejoin="round" stroke-width="2"/>
    <path id="Path_655" data-name="Path 655" d="M260.493,571.394c.782.421,3.041,1.612,7.394.6l-17.6,40.687-7.394-.6Z" transform="translate(51.966 122.249)" fill="#fff"/>
    <path id="Path_656" data-name="Path 656" d="M260.493,571.394c.782.421,3.041,1.612,7.394.6l-17.6,40.687-7.394-.6Z" transform="translate(51.966 122.249)" fill="none" stroke="#000" stroke-linejoin="round" stroke-width="2"/>
    <line id="Line_53" data-name="Line 53" x1="17.157" y2="39.651" transform="translate(295.302 693.643)" fill="none" stroke="#000" stroke-linecap="round" stroke-linejoin="round" stroke-width="0.5"/>
    <path id="Path_657" data-name="Path 657" d="M236.125,531.338c10.51,8.049,9.875,16.229,10.5,23.759s-60.377,48.866-74.461,23.955,6.232-43.421,6.232-43.421Z" transform="translate(35.771 113.679)" fill="#fec31c"/>
    <path id="Path_658" data-name="Path 658" d="M236.125,531.338c10.51,8.049,9.875,16.229,10.5,23.759s-60.377,48.866-74.461,23.955,6.232-43.421,6.232-43.421Z" transform="translate(35.771 113.679)" fill="none" stroke="#000" stroke-linecap="round" stroke-linejoin="round" stroke-width="0.5"/>
    <path id="Path_659" data-name="Path 659" d="M244.726,442.048c-48.869-3.223-78.978,2.149-84.9,25.789-4.035,16.107,3.552,62.834,12.184,94.284,4.039,14.711,74.856,4.178,72.215-6.324,7.553-42.2,27.967-111.938.5-113.749" transform="translate(33.956 94.394)" fill="#672376"/>
    <path id="Path_660" data-name="Path 660" d="M244.726,442.048c-48.869-3.223-78.978,2.149-84.9,25.789-4.035,16.107,3.552,62.834,12.184,94.284,4.039,14.711,74.856,4.178,72.215-6.324C251.776,513.6,272.19,443.859,244.726,442.048Z" transform="translate(33.956 94.394)" fill="none" stroke="#000" stroke-width="2"/>
    <path id="Path_661" data-name="Path 661" d="M238.945,489.6s3.783-14.059,2.49-24.522" transform="translate(51.122 99.504)" fill="none" stroke="#000" stroke-linecap="round" stroke-linejoin="round" stroke-width="0.5"/>
    <path id="Path_662" data-name="Path 662" d="M185.836,454.269c6.679,5.47,5.4,17.752.08,29.192-7.553,16.228-16.7,31.665-16.7,31.665s31.822,22.342,39.81,31.036-4.838,19.247-4.838,19.247-37.946-10.876-57.768-26.447c-3.315-2.605-11.908-11.9-5.733-28.168,9.479-24.976,13.858-41.545,23.165-52.528,6.561-7.743,14.8-9.882,21.987-4" transform="translate(29.634 96.47)" fill="#672376"/>
    <path id="Path_663" data-name="Path 663" d="M185.836,454.269c6.679,5.47,5.4,17.752.08,29.192-7.553,16.228-16.7,31.665-16.7,31.665s31.822,22.342,39.81,31.036-4.838,19.247-4.838,19.247-37.946-10.876-57.768-26.447c-3.315-2.605-11.908-11.9-5.733-28.168,9.479-24.976,13.858-41.545,23.165-52.528C170.41,450.522,178.649,448.383,185.836,454.269Z" transform="translate(29.634 96.47)" fill="none" stroke="#000" stroke-width="2"/>
    <path id="Path_664" data-name="Path 664" d="M159.383,458.264c4.914-5.8,10.77-8.455,16.42-6.949" transform="translate(34.1 96.47)" fill="none" stroke="#000" stroke-linecap="round" stroke-linejoin="round" stroke-width="0.5"/>
    <path id="Path_665" data-name="Path 665" d="M180.5,477.722c-7.552,16.228-16.7,31.665-16.7,31.665s31.822,22.342,39.81,31.036-4.838,19.247-4.838,19.247" transform="translate(35.045 102.208)" fill="none" stroke="#000" stroke-linecap="round" stroke-linejoin="round" stroke-width="0.5"/>
    <path id="Path_666" data-name="Path 666" d="M182.415,444.937c10.17,1.6,22.974,31.349,30.4,51.064,3.73,9.907,6.1,17.279,6.1,17.279a258.585,258.585,0,0,0,10.393-24.908c6.7-18.882,12.006-42.283-.766-46.505-21.994-7.273-46.131,3.07-46.131,3.07" transform="translate(39.028 93.983)" fill="#fff"/>
    <path id="Path_667" data-name="Path 667" d="M182.415,444.937c10.17,1.6,22.974,31.349,30.4,51.064,3.73,9.907,6.1,17.279,6.1,17.279a258.585,258.585,0,0,0,10.393-24.908c6.7-18.882,12.006-42.283-.766-46.505C206.552,434.594,182.415,444.937,182.415,444.937Z" transform="translate(39.028 93.983)" fill="none" stroke="#000" stroke-width="2"/>
    <path id="Path_668" data-name="Path 668" d="M182.415,443.939c6.436,1.015,13.926,13.3,20.442,27.18" transform="translate(39.028 94.98)" fill="none" stroke="#000" stroke-linecap="round" stroke-linejoin="round" stroke-width="0.5"/>
    <path id="Path_669" data-name="Path 669" d="M207.457,487.348c3.732,9.906,6.1,17.279,6.1,17.279a259.065,259.065,0,0,0,10.393-24.909" transform="translate(44.385 102.635)" fill="none" stroke="#000" stroke-linecap="round" stroke-linejoin="round" stroke-width="0.5"/>
    <path id="Path_670" data-name="Path 670" d="M206.922,545.227c1.815,7.586,0,15.661,0,15.661" transform="translate(44.271 116.651)" fill="none" stroke="#000" stroke-linecap="round" stroke-linejoin="round" stroke-width="0.5"/>
    <path id="Path_671" data-name="Path 671" d="M152.766,510.411c4.755-7.261,13.4-6.241,13.4-6.241a10.024,10.024,0,0,0-12.108,0" transform="translate(32.684 107.425)" fill="none" stroke="#000" stroke-linecap="round" stroke-linejoin="round" stroke-width="1"/>
    <path id="Path_672" data-name="Path 672" d="M199.638,412.847l-1.74,31.666,9.777,7.839,14.81-1.02.155-4.92,1.514-22.014Z" transform="translate(42.34 88.328)" fill="#e17847"/>
    <path id="Path_673" data-name="Path 673" d="M199.638,412.847l-1.74,31.666,9.777,7.839,14.81-1.02.155-4.92,1.514-22.014Z" transform="translate(42.34 88.328)" fill="none" stroke="#000" stroke-width="2"/>
    <path id="Path_674" data-name="Path 674" d="M207.457,494.312c3.732,9.906,6.1,17.279,6.1,17.279a259.065,259.065,0,0,0,10.393-24.909c-1.724-14.119-4.242-25.271-6.056-30.345-7.191-20.1-6.322-.88-6.322-.88.446,10.827-1.683,24.37-4.119,38.855" transform="translate(44.385 95.671)"/>
    <path id="Path_675" data-name="Path 675" d="M207.006,446.949c3.871-2.2,10.26-2.316,12.8-.2a42.552,42.552,0,0,1-1.6,10.637c-1.7-.562-3.791-.4-6.447,1.051-2.718-4.072-4.751-11.486-4.751-11.486" transform="translate(44.289 95.257)"/>
    <path id="Path_676" data-name="Path 676" d="M232.88,422.895c-1.346-10.788-9.858-27.973-11.78-32.521s.147-5.145-11.155.221-18.677,4.085-12.178,24.782c1.288,4.1,34.718,24.122,34.718,24.122s1.208-10.089.4-16.6" transform="translate(41.792 82.748)" fill="#e17847"/>
    <path id="Path_677" data-name="Path 677" d="M232.88,422.895c-1.346-10.788-9.858-27.973-11.78-32.521s.147-5.145-11.155.221-18.677,4.085-12.178,24.782c1.288,4.1,34.718,24.122,34.718,24.122S233.692,429.41,232.88,422.895Z" transform="translate(41.792 82.748)" fill="none" stroke="#000" stroke-width="2"/>
    <path id="Path_678" data-name="Path 678" d="M200.106,428.6c5.193-7.483,2.878-26.446,2.989-26.51s18.963-1.215,22.837-9.478c1.936-4.132,1.49-11.292-2.52-13.953-4.205,8.461-19.634,1.221-24.154,8.409-1.7,2.7-.288,7.37-.288,7.37s-5.062-2.79-8.607,3.261c-7.764,13.253,9.743,30.9,9.743,30.9" transform="translate(40.303 81.013)"/>
    <path id="Path_679" data-name="Path 679" d="M202.224,413.652c-11.2-5.861-12.362,11.718.642,9.4" transform="translate(41.392 88.243)" fill="#e17847"/>
    <path id="Path_680" data-name="Path 680" d="M202.224,413.652c-11.2-5.861-12.362,11.718.642,9.4" transform="translate(41.392 88.243)" fill="none" stroke="#000" stroke-linecap="round" stroke-linejoin="round" stroke-width="2"/>
    <path id="Path_681" data-name="Path 681" d="M207.377,421.414c6.869,7.11,18.27,2.117,18.27,2.117" transform="translate(44.368 90.161)" fill="none" stroke="#000" stroke-linecap="round" stroke-linejoin="round" stroke-width="2"/>
    <path id="Path_682" data-name="Path 682" d="M198.741,434.373c5.481,14.163,23.78,12.748,24.552,7.433,5.52,5.311,6.413,13.776,6.413,13.776s-2.674-6.879-12.2-6.813-13.258,12.349-13.258,12.349c-17.205-9.782-5.506-26.746-5.506-26.746" transform="translate(41.689 92.934)" fill="#fff"/>
    <path id="Path_683" data-name="Path 683" d="M198.741,434.373c5.481,14.163,23.78,12.748,24.552,7.433,5.52,5.311,6.413,13.776,6.413,13.776s-2.674-6.879-12.2-6.813-13.258,12.349-13.258,12.349C187.042,451.337,198.741,434.373,198.741,434.373Z" transform="translate(41.689 92.934)" fill="none" stroke="#000" stroke-width="2"/>
    <path id="Path_684" data-name="Path 684" d="M221.638,440.5c5.52,5.311,6.413,13.777,6.413,13.777s-2.674-6.881-12.2-6.814-13.258,12.349-13.258,12.349" transform="translate(43.344 94.244)" fill="none" stroke="#000" stroke-linecap="round" stroke-linejoin="round" stroke-width="0.5"/>
    <path id="Path_685" data-name="Path 685" d="M229.362,407.706c4.669,12.862,6.313,25.62,5.079,29.575s-7.181,6.936-13.658,5.742c-12.124-2.237-20.3-27.519-20.3-27.519l-.47-5.137,17.311,13.554s-1.22-9.916,4.834-12.052,7.751,2.973,7.751,2.973Z" transform="translate(42.792 87.228)"/>
    <path id="Path_686" data-name="Path 686" d="M224.642,415.323c2.71,4.38-4.682,10.816-7.371,6.1s5.311-9.425,7.371-6.1" transform="translate(46.368 88.619)" fill="#e17847"/>
    <path id="Path_687" data-name="Path 687" d="M223.07,416.87c-2.661,2.464-7.842.556-7.842.556" transform="translate(46.048 89.189)" fill="none" stroke="#000" stroke-linecap="round" stroke-linejoin="round" stroke-width="0.5"/>
    <path id="Path_688" data-name="Path 688" d="M202.322,381.419c-9.156,3.187-4.4,11.683-4.4,11.683s-3.218-4.121-7.108-2.565" transform="translate(40.824 81.604)" fill="none" stroke="#000" stroke-linecap="round" stroke-linejoin="round" stroke-width="0.5"/>
    <path id="Path_689" data-name="Path 689" d="M198.395,391.175c-9.481-4.117-17.079,13.88-3.382,28.522" transform="translate(40.127 83.564)" fill="none" stroke="#000" stroke-linecap="round" stroke-linejoin="round" stroke-width="0.5"/>
    <path id="Path_690" data-name="Path 690" d="M216.155,401.8a20.373,20.373,0,0,0,5.893,6.466c1.118,1.222-.942,2.943-.942,2.943" transform="translate(46.246 85.965)" fill="none" stroke="#000" stroke-linecap="round" stroke-linejoin="round" stroke-width="2"/>
    <path id="Path_691" data-name="Path 691" d="M213.43,500.237c0,22.1-2.345,47.419-5.357,53.243" transform="translate(44.517 107.025)" fill="none" stroke="#000" stroke-linecap="round" stroke-linejoin="round" stroke-width="0.5"/>
    <path id="Path_692" data-name="Path 692" d="M282.438,579.816l-28.99,35.3S169.7,591.186,127.18,573.468c-11.136-4.64-13.773-19.908-11.627-26.838,3.494-11.286,16.691-17.647,31.058-12.661,41.562,14.422,135.828,45.847,135.828,45.847" transform="translate(24.576 113.875)" fill="#ee5064"/>
    <path id="Path_693" data-name="Path 693" d="M282.438,579.816l-28.99,35.3S169.7,591.186,127.18,573.468c-11.136-4.64-13.773-19.908-11.627-26.838,3.494-11.286,16.691-17.647,31.058-12.661C188.172,548.391,282.438,579.816,282.438,579.816Z" transform="translate(24.576 113.875)" fill="none" stroke="#000" stroke-width="2"/>
    <line id="Line_54" data-name="Line 54" x2="79.73" y2="25.006" transform="translate(160.725 679.906)" fill="none" stroke="#000" stroke-linecap="round" stroke-linejoin="round" stroke-width="2"/>
    <path id="Path_694" data-name="Path 694" d="M174.058,569.783h80.9a3.246,3.246,0,0,0,3.173-2.245l12.392-57.224c.452-2.083-.762-3.8-2.717-3.8h-106.6c-1.954,0-3.168,1.714-2.717,3.8l12.393,57.224a3.246,3.246,0,0,0,3.172,2.245" transform="translate(33.889 108.369)" fill="#fff"/>
    <path id="Path_695" data-name="Path 695" d="M174.058,569.783h80.9a3.246,3.246,0,0,0,3.173-2.245l12.392-57.224c.452-2.083-.762-3.8-2.717-3.8h-106.6c-1.954,0-3.168,1.714-2.717,3.8l12.393,57.224A3.246,3.246,0,0,0,174.058,569.783Z" transform="translate(33.889 108.369)" fill="none" stroke="#000" stroke-linecap="round" stroke-linejoin="round" stroke-width="2"/>
    <path id="Path_696" data-name="Path 696" d="M169.1,558.749q-.015.149-.015.3c0,1.615,6.087,2.924,7.57,2.924h70.419c1.483,0,8.286-1.31,8.286-2.924q0-.153-.015-.3Z" transform="translate(36.175 119.544)" fill="#fff"/>
    <path id="Path_697" data-name="Path 697" d="M169.1,558.749q-.015.149-.015.3c0,1.615,6.087,2.924,7.57,2.924h70.419c1.483,0,8.286-1.31,8.286-2.924q0-.153-.015-.3Z" transform="translate(36.175 119.544)" fill="none" stroke="#000" stroke-linecap="round" stroke-linejoin="round" stroke-width="2"/>
    <path id="Path_698" data-name="Path 698" d="M213.7,400.231a10.527,10.527,0,0,0-8.086,5.5" transform="translate(43.992 85.629)" fill="none" stroke="#000" stroke-linecap="round" stroke-linejoin="round" stroke-width="2"/>
    <path id="Path_699" data-name="Path 699" d="M220.828,396.334a5.643,5.643,0,0,0-4.966,1.737" transform="translate(46.184 84.78)" fill="none" stroke="#000" stroke-linecap="round" stroke-linejoin="round" stroke-width="2"/>
    <line id="Line_55" data-name="Line 55" x2="4.941" y2="3.503" transform="translate(237.671 504.577)" fill="#fff"/>
    <line id="Line_56" data-name="Line 56" x2="4.941" y2="3.503" transform="translate(237.671 504.577)" fill="none" stroke="#000" stroke-linecap="round" stroke-linejoin="round" stroke-width="0.5"/>
    <path id="Path_700" data-name="Path 700" d="M141.735,571.036l16.58,38.318,17.8-4.431-8.56-24.21Z" transform="translate(30.324 122.173)" fill="#a62973"/>
    <path id="Path_701" data-name="Path 701" d="M141.735,571.036l16.58,38.318,17.8-4.431-8.56-24.21Z" transform="translate(30.324 122.173)" fill="none" stroke="#000" stroke-linejoin="round" stroke-width="2"/>
    <path id="Path_702" data-name="Path 702" d="M141.694,570.284c-.782.421-5.269,1.479-6.124,1.94l16.2,37.432c.806-.433,6.68,1.415,7.514.966Z" transform="translate(29.005 122.012)" fill="#fff"/>
    <path id="Path_703" data-name="Path 703" d="M141.694,570.284c-.782.421-5.269,1.479-6.124,1.94l16.2,37.432c.806-.433,6.68,1.415,7.514.966Z" transform="translate(29.005 122.012)" fill="none" stroke="#000" stroke-linejoin="round" stroke-width="2"/>
    <line id="Line_57" data-name="Line 57" x2="17.962" y2="40.76" transform="translate(170.325 691.875)" fill="none" stroke="#000" stroke-linecap="round" stroke-linejoin="round" stroke-width="0.5"/>
    <path id="Path_704" data-name="Path 704" d="M158.284,585.479l12.858,34.237s90.3-23.2,132.267-36.661c16.226-5.2,21.061-22.817,16.759-33.424C314.9,536.652,298.159,530.358,282.676,535c-13.13,3.934-50.8,28.4-50.8,28.4Z" transform="translate(33.865 114.137)" fill="#ee5064"/>
    <path id="Path_705" data-name="Path 705" d="M158.284,585.479l12.858,34.237s90.3-23.2,132.267-36.661c16.226-5.2,21.061-22.817,16.759-33.424C314.9,536.652,298.159,530.358,282.676,535c-13.13,3.934-50.8,28.4-50.8,28.4Z" transform="translate(33.865 114.137)" fill="none" stroke="#000" stroke-width="2"/>
    <line id="Line_58" data-name="Line 58" x1="33.579" y2="9.151" transform="translate(251.884 712.364)" fill="none" stroke="#000" stroke-linecap="round" stroke-linejoin="round" stroke-width="0.5"/>
    <path id="Path_706" data-name="Path 706" d="M214.344,403.469c-1.384-1.43-2.627,1.8-.963,2.551s1.539-1.956.963-2.551" transform="translate(45.482 86.245)"/>
    <path id="Path_707" data-name="Path 707" d="M220.827,400.163c-1.384-1.43-2.627,1.8-.963,2.551s1.539-1.956.963-2.551" transform="translate(46.869 85.537)"/>
    <line id="Line_59" data-name="Line 59" x2="16.197" y2="37.432" transform="translate(172.09 694.235)" fill="none" stroke="#000" stroke-linecap="round" stroke-linejoin="round" stroke-width="0.5"/>
    <line id="Line_60" data-name="Line 60" y2="12.875" transform="translate(547.145 437.444)" fill="none" stroke="#000" stroke-linecap="round" stroke-linejoin="round" stroke-width="0.5"/>
  </g>
</svg>
