<svg xmlns="http://www.w3.org/2000/svg" xmlns:xlink="http://www.w3.org/1999/xlink" width="456.911" height="202" viewBox="0 0 456.911 202">
  <defs>
    <clipPath id="clip-path">
      <rect id="Rectangle_701" data-name="Rectangle 701" width="8.663" height="16.851" fill="none"/>
    </clipPath>
    <clipPath id="clip-path-2">
      <rect id="Rectangle_702" data-name="Rectangle 702" width="16.819" height="49.326" fill="none"/>
    </clipPath>
    <clipPath id="clip-path-3">
      <rect id="Rectangle_703" data-name="Rectangle 703" width="32.236" height="68.213" fill="none"/>
    </clipPath>
    <clipPath id="clip-path-4">
      <rect id="Rectangle_704" data-name="Rectangle 704" width="13.259" height="8.145" fill="none"/>
    </clipPath>
    <clipPath id="clip-path-5">
      <rect id="Rectangle_705" data-name="Rectangle 705" width="37.781" height="68.074" fill="none"/>
    </clipPath>
    <clipPath id="clip-path-6">
      <rect id="Rectangle_706" data-name="Rectangle 706" width="15.74" height="19.14" fill="none"/>
    </clipPath>
    <clipPath id="clip-path-7">
      <rect id="Rectangle_707" data-name="Rectangle 707" width="31.876" height="17.461" fill="none"/>
    </clipPath>
    <clipPath id="clip-path-8">
      <rect id="Rectangle_708" data-name="Rectangle 708" width="61.038" height="60.965" fill="none"/>
    </clipPath>
    <clipPath id="clip-path-9">
      <rect id="Rectangle_709" data-name="Rectangle 709" width="3.915" height="20.068" fill="none"/>
    </clipPath>
    <clipPath id="clip-path-10">
      <rect id="Rectangle_711" data-name="Rectangle 711" width="2.549" height="7.822" fill="none"/>
    </clipPath>
    <clipPath id="clip-path-11">
      <rect id="Rectangle_712" data-name="Rectangle 712" width="21.074" height="23.253" fill="none"/>
    </clipPath>
    <clipPath id="clip-path-12">
      <rect id="Rectangle_713" data-name="Rectangle 713" width="50.067" height="26.359" fill="none"/>
    </clipPath>
    <clipPath id="clip-path-13">
      <rect id="Rectangle_714" data-name="Rectangle 714" width="65.386" height="56.59" fill="none"/>
    </clipPath>
  </defs>
  <g id="puzzle-vector" transform="translate(54.062 0)">
    <g id="Group_450" data-name="Group 450" transform="translate(-54.062 -0.001)">
      <g id="Group_446" data-name="Group 446" transform="translate(0)">
        <g id="Group_449" data-name="Group 449">
          <path id="Path_3770" data-name="Path 3770" d="M337.167,149.189H246.713a2.937,2.937,0,0,1-2.934-2.934V14.5a2.937,2.937,0,0,1,2.934-2.933h90.454A2.937,2.937,0,0,1,340.1,14.5V146.255a2.937,2.937,0,0,1-2.933,2.934m-90.454-137.5A2.812,2.812,0,0,0,243.9,14.5V146.255a2.812,2.812,0,0,0,2.809,2.809h90.454a2.812,2.812,0,0,0,2.808-2.809V14.5a2.812,2.812,0,0,0-2.808-2.808Z" transform="translate(53.666 0.001)" fill="#e1e1e1"/>
          <path id="Path_3771" data-name="Path 3771" d="M232.86,149.189H142.406a2.937,2.937,0,0,1-2.934-2.934V14.5a2.937,2.937,0,0,1,2.934-2.933H232.86a2.938,2.938,0,0,1,2.934,2.933V146.255a2.938,2.938,0,0,1-2.934,2.934m-90.454-137.5A2.812,2.812,0,0,0,139.6,14.5V146.255a2.812,2.812,0,0,0,2.808,2.809H232.86a2.811,2.811,0,0,0,2.808-2.809V14.5a2.811,2.811,0,0,0-2.808-2.808Z" transform="translate(53.832 0.001)" fill="#e1e1e1"/>
          <path id="Path_3772" data-name="Path 3772" d="M128.621,149.189H38.167a2.937,2.937,0,0,1-2.934-2.934V14.5a2.937,2.937,0,0,1,2.934-2.933h90.454a2.937,2.937,0,0,1,2.933,2.933V146.255a2.937,2.937,0,0,1-2.933,2.934M38.167,11.693A2.812,2.812,0,0,0,35.359,14.5V146.255a2.812,2.812,0,0,0,2.808,2.809h90.454a2.811,2.811,0,0,0,2.808-2.809V14.5a2.811,2.811,0,0,0-2.808-2.808Z" transform="translate(53.956 0.001)" fill="#e1e1e1"/>
          <rect id="Rectangle_695" data-name="Rectangle 695" width="374.938" height="0.06" transform="translate(54.062 179.435)" fill="#e1e1e1"/>
          <rect id="Rectangle_696" data-name="Rectangle 696" width="27.889" height="0.21" transform="translate(380.77 194.136)" fill="#ececec"/>
          <rect id="Rectangle_697" data-name="Rectangle 697" width="7.32" height="0.21" transform="translate(301.521 196.421)" fill="#ececec"/>
          <rect id="Rectangle_698" data-name="Rectangle 698" width="36.37" height="0.211" transform="translate(74.327 187.732)" fill="#ececec"/>
          <rect id="Rectangle_699" data-name="Rectangle 699" width="5.333" height="0.211" transform="translate(118.158 187.732)" fill="#ececec"/>
          <rect id="Rectangle_700" data-name="Rectangle 700" width="78.877" height="0.21" transform="translate(140.773 191.287)" fill="#ececec"/>
          <path id="Path_3773" data-name="Path 3773" d="M201.35,16.619a7.932,7.932,0,0,0-4.161,2.651l0-.008c-1.857,1.475-2.92,1.32-3.377,1.111L189.84,4.908a2.194,2.194,0,0,0-2.67-1.579L144.193,14.363a2.193,2.193,0,0,0-1.579,2.669l3.995,15.561c-1.073,1.24-3.506.4-3.506.4h0a7.985,7.985,0,1,0,3.445,12.587l0,.008c1.538-1.221,2.53-1.323,3.086-1.2l4.011,15.623a2.191,2.191,0,0,0,2.669,1.578l42.978-11.033a2.193,2.193,0,0,0,1.578-2.67l-3.94-15.349c.933-1.633,3.7-.677,3.7-.677h0a7.98,7.98,0,1,0,.716-15.239" transform="translate(53.851 0.001)" fill="#ececec"/>
          <path id="Path_3774" data-name="Path 3774" d="M146.556,13.756c-.255.065.885,6.722,9.712,8.024s29.956,14.879,27.206,32.836l5.841-1.5c-.272.07-.246-23.4-23.5-30.178s-4-13.1-4-13.1Z" transform="translate(53.856 0.001)" fill="#f0f0f0"/>
          <path id="Path_3775" data-name="Path 3775" d="M246.059,121.454a8.891,8.891,0,0,0,4.679,2.951l-.007.006c2.383,1.178,2.734,2.329,2.742,2.892l-13.782,11.425a2.457,2.457,0,0,0-.324,3.461l31.748,38.3a2.459,2.459,0,0,0,3.462.324l13.867-11.5c1.771.5,2.084,3.363,2.084,3.363h0a8.952,8.952,0,1,0,11.116-9.515l.007-.006c-1.974-.976-2.552-1.933-2.7-2.554l13.923-11.54a2.459,2.459,0,0,0,.323-3.462L286.089,112.9l-4.637-5.594a2.457,2.457,0,0,0-3.461-.323l-13.679,11.338c-2.1-.164-2.458-3.429-2.458-3.429h0a8.947,8.947,0,1,0-15.794,6.564" transform="translate(53.666 -0.316)" fill="#ececec"/>
          <path id="Path_3776" data-name="Path 3776" d="M284.415,110.877s-6,7.1-7.078,13.034,0,30.728-5.852,35.5a29.465,29.465,0,0,1-13.056,5.77l5.046,4.933s11.244-5.62,15.4-12.705-2.465-28.032,2-31.883,11.691-4.813,11.691-4.813Z" transform="translate(53.749 -0.245)" fill="#f5f5f5"/>
          <path id="Path_3777" data-name="Path 3777" d="M73.43,174.662a5.307,5.307,0,0,0,2.878-1.613v.005c1.384-.976,2.093-.746,2.353-.583l2.059,10.436a1.466,1.466,0,0,0,1.722,1.155l29.113-5.744a1.467,1.467,0,0,0,1.155-1.722l-2.056-10.419c-.24-.163-.95-.435-2.372.569l0-.005a5.334,5.334,0,1,1-1.825-8.535h0s1.907.779,2.547-.4l-2.036-10.32a1.466,1.466,0,0,0-1.723-1.155l-12.567,2.479c-1.193-.635-.4-2.554-.4-2.554a5.337,5.337,0,1,0-8.541,1.826c1.017,1.441.726,2.151.563,2.382l-8.162,1.611a1.465,1.465,0,0,0-1.155,1.722l2.04,10.34c-.652,1.148-2.534.379-2.534.379h0a5.337,5.337,0,1,0-1.053,10.148" transform="translate(53.937 -0.316)" fill="#f0f0f0"/>
          <path id="Path_3778" data-name="Path 3778" d="M95.19,148.311s.818,6.6-2.89,11.407-10.837,19.68-8.475,24.071l3.085-.609s-3.329-3.82,1.281-13.04,11.287-13.477,10.354-22.491Z" transform="translate(53.93 -0.316)" fill="#f5f5f5"/>
          <path id="Path_3779" data-name="Path 3779" d="M323.506,48.971a3.9,3.9,0,0,0-2.3-.765l0,0c-1.215-.268-1.441-.767-1.481-.989l4.648-6.28a1.078,1.078,0,0,0-.225-1.507L306.63,26.461a1.077,1.077,0,0,0-1.507.225l-4.64,6.27c.03.211.234.731,1.483,1.006l0,0a3.917,3.917,0,1,1-3.732,5.213s-.521-1.421-1.479-1.183l-4.6,6.211a1.077,1.077,0,0,0,.225,1.506l7.564,5.6c.245.962-1.187,1.483-1.187,1.483a3.921,3.921,0,1,0,5.217,3.734c.279-1.265.809-1.458,1.015-1.484L309.9,58.68a1.079,1.079,0,0,0,1.507-.225l4.605-6.224c.946-.213,1.459,1.189,1.459,1.189h0a3.92,3.92,0,1,0,6.031-4.448" transform="translate(53.666 0.001)" fill="#f0f0f0"/>
          <path id="Path_3780" data-name="Path 3780" d="M296.392,48.681s12.995,1.529,14.643-3.623-5.012-6.844,1.2-14.447l1.755,1.3s-3.576-.659-2.958,4.493,4.019,7.712,1.031,11.172-12.121,3.736-12.121,3.736Z" transform="translate(53.666 -0.053)" fill="#f5f5f5"/>
          <path id="Path_3781" data-name="Path 3781" d="M79.122,77.557a7.467,7.467,0,0,0-3.926-2.48l.006-.005c-2.136-1.057-2.328-2.089-2.3-2.52l11.532-9.545a2.064,2.064,0,0,0,.274-2.906L58.08,27.929a2.064,2.064,0,0,0-2.906-.273L43.661,37.185c-.041.407.1,1.467,2.3,2.554l-.006.005a7.507,7.507,0,1,1-9.337,7.982h0s-.315-2.883-2.206-2.881L23,54.285a2.064,2.064,0,0,0-.274,2.906l11.5,13.888c.013,1.9-2.89,2.214-2.89,2.214h0a7.512,7.512,0,1,0,7.987,9.343c1.1-2.224,2.174-2.34,2.569-2.294l7.467,9.021a2.063,2.063,0,0,0,2.9.273L63.69,80.178c1.857.038,2.168,2.881,2.168,2.881h0a7.511,7.511,0,1,0,13.263-5.5" transform="translate(53.979 0.001)" fill="#e7e7e7"/>
          <path id="Path_3782" data-name="Path 3782" d="M49.465,32.381s13.56,7.558,13.554,14.6S42.793,75.12,52.263,89.637l4.314-3.487s-6.414-.988-3.829-10.586S66.557,49.115,65.787,42.713,55.173,27.656,55.173,27.656Z" transform="translate(53.963 0.001)" fill="#ececec"/>
          <path id="Path_3783" data-name="Path 3783" d="M96.441,25.348l.867,3.758,3.758.867-3.758.866L96.441,34.6l-.867-3.758-3.758-.866,3.758-.867Z" transform="translate(53.924 0.001)" fill="#e7e7e7"/>
          <path id="Path_3784" data-name="Path 3784" d="M338.453,20.723l.867,3.758,3.758.867-3.758.866-.867,3.758-.867-3.758-3.758-.866,3.758-.867Z" transform="translate(53.666 0.001)" fill="#e7e7e7"/>
          <path id="Path_3785" data-name="Path 3785" d="M60.237,181.426l.867,3.758,3.758.867-3.758.866-.867,3.758-.867-3.758-3.758-.866,3.758-.867Z" transform="translate(53.958 -0.316)" fill="#e7e7e7"/>
          <path id="Path_3786" data-name="Path 3786" d="M21.621,90.952l.867,3.758,3.758.867-3.758.866-.867,3.758-.867-3.758L17,95.577l3.758-.867Z" transform="translate(54.062 -0.149)" fill="#e7e7e7"/>
          <path id="Path_3787" data-name="Path 3787" d="M235.5,182.293l.867,3.758,3.758.867-3.758.866-.867,3.758-.867-3.758-3.758-.866,3.758-.867Z" transform="translate(53.793 -0.316)" fill="#e7e7e7"/>
          <path id="Path_3788" data-name="Path 3788" d="M231.661,15.2l1.036,4.49,4.49,1.036-4.49,1.035-1.036,4.491-1.036-4.491-4.49-1.035,4.49-1.036Z" transform="translate(53.797 0.001)" fill="#e7e7e7"/>
          <path id="Path_3789" data-name="Path 3789" d="M349.417,67.957l.515,2.231,2.231.515-2.231.514-.515,2.232-.515-2.232-2.231-.514,2.231-.515Z" transform="translate(53.666 -0.109)" fill="#e7e7e7"/>
          <path id="Path_3790" data-name="Path 3790" d="M207.6,150.862l.515,2.231,2.231.515-2.231.514-.515,2.232-.515-2.232-2.231-.514,2.231-.515Z" transform="translate(53.82 -0.242)" fill="#e7e7e7"/>
          <path id="Path_3791" data-name="Path 3791" d="M140.742,166.856l.515,2.231,2.231.515-2.231.514-.515,2.232-.515-2.232L138,169.6l2.231-.515Z" transform="translate(53.882 -0.316)" fill="#e7e7e7"/>
          <path id="Path_3792" data-name="Path 3792" d="M21.08,153.607l.515,2.231,2.231.515-2.231.514L21.08,159.1l-.515-2.232-2.231-.514,2.231-.515Z" transform="translate(54.062 -0.247)" fill="#e7e7e7"/>
          <path id="Path_3793" data-name="Path 3793" d="M315.121,184.172l.515,2.231,2.231.515-2.231.514-.515,2.232-.515-2.232-2.231-.514,2.231-.515Z" transform="translate(53.666 -0.316)" fill="#e7e7e7"/>
          <path id="Path_3794" data-name="Path 3794" d="M133,55.9l.515,2.231,2.231.515-2.231.514L133,61.392l-.515-2.232-2.231-.514,2.231-.515Z" transform="translate(53.89 -0.089)" fill="#e7e7e7"/>
          <path id="Path_3795" data-name="Path 3795" d="M132.486,0,133,2.23l2.231.515L133,3.26l-.515,2.232L131.97,3.26l-2.231-.514,2.231-.515Z" transform="translate(53.89 0.001)" fill="#e7e7e7"/>
          <path id="Path_3796" data-name="Path 3796" d="M35.943,23.921l.515,2.231,2.231.515-2.231.514-.515,2.232-.515-2.232L33.2,26.667l2.231-.515Z" transform="translate(53.98 0.001)" fill="#e7e7e7"/>
          <path id="Path_3797" data-name="Path 3797" d="M272.664,59.456l.515,2.231,2.231.515-2.231.514-.515,2.232-.515-2.232-2.231-.514,2.231-.515Z" transform="translate(53.759 -0.095)" fill="#e7e7e7"/>
          <path id="Path_3798" data-name="Path 3798" d="M199.865,175.377a3.645,3.645,0,0,0-2.146-.714l0,0c-1.132-.25-1.344-.715-1.381-.922l4.336-5.858a1,1,0,0,0-.21-1.406l-16.344-12.1a1,1,0,0,0-1.4.21l-4.328,5.849c.028.2.218.682,1.383.939l0,0a3.654,3.654,0,1,1-3.481,4.863s-.486-1.325-1.379-1.1l-4.288,5.794a1,1,0,0,0,.21,1.4l7.055,5.221c.23.9-1.106,1.384-1.106,1.384a3.657,3.657,0,1,0,4.866,3.483c.261-1.179.754-1.36.946-1.384l4.582,3.391a1.006,1.006,0,0,0,1.406-.21l4.3-5.805c.882-.2,1.361,1.109,1.361,1.109h0a3.657,3.657,0,1,0,5.627-4.149" transform="translate(53.839 -0.316)" fill="#e7e7e7"/>
          <path id="Path_3799" data-name="Path 3799" d="M172.333,173.449s.27-2.96,7.08-1.7,13.224-.132,13.687-2.975-2.907-9.9-2.907-9.9l5.664,4.192s2.466,5.243-1.236,7.822-13.488,1.225-16.53,2.563-2.058,2.738-2.058,2.738l-4.025-2.59" transform="translate(53.841 -0.316)" fill="#ececec"/>
          <path id="Path_3800" data-name="Path 3800" d="M331.684,75.022H269.619a3.067,3.067,0,0,0-3.067,3.067V100.3c.427.433,1.773,1.276,5.1-.208v.011a11.156,11.156,0,1,1,.289,18.253h0s-3.6-2.37-5.389-.2v22a3.067,3.067,0,0,0,3.067,3.067h62.065a3.067,3.067,0,0,0,3.067-3.067V78.089a3.067,3.067,0,0,0-3.067-3.067" transform="translate(60.775 -0.177)" fill="#9e005d"/>
          <g id="Group_405" data-name="Group 405" transform="matrix(0.839, -0.545, 0.545, 0.839, 373.511, 130.152)" opacity="0.4">
            <g id="Group_404" data-name="Group 404">
              <g id="Group_403" data-name="Group 403" clip-path="url(#clip-path)">
                <path id="Path_3801" data-name="Path 3801" d="M311.017,143.221,310.1,132.4c-.377-3.766-1.036-6.213,1.506-6.025s4.706,3.012,5.648,6.589l1.143,10.252" transform="translate(-309.737 -126.37)"/>
              </g>
            </g>
          </g>
          <g id="Group_408" data-name="Group 408" transform="matrix(0.839, -0.545, 0.545, 0.839, 365.086, 96.927)" opacity="0.4">
            <g id="Group_407" data-name="Group 407">
              <g id="Group_406" data-name="Group 406" clip-path="url(#clip-path-2)">
                <path id="Path_3802" data-name="Path 3802" d="M322.1,143.221c-.124-3.084.428-19.571.428-19.571,0-4.048-2.165-15.72-1.694-21.368s1.976-8.566,4.141-8.378,3.107,4.706,3.107,4.706,1.318-.376,2.447,1.977,3.578,8.19,3.578,8.19,3.9,17.534,3.442,34.444Z" transform="translate(-320.767 -93.895)"/>
              </g>
            </g>
          </g>
          <path id="Path_3803" data-name="Path 3803" d="M332.451,200.474s-1.636-24.862-4.794-26.732c-.551-.326-10.21-8.767-12.939-17.8s-1.6-19.768-1.977-23.533-1.036-6.213,1.506-6.025,4.707,3.012,5.648,6.589.282,11.485,1.506,12.991,2.071.565,2.071.282,1.694-18.544,1.694-22.592-2.165-15.72-1.694-21.368,1.977-8.567,4.142-8.378,3.106,4.706,3.106,4.706,1.318-.376,2.448,1.977,3.577,8.19,3.577,8.19.282-4.519,2.259-4.707,3.013,2.071,3.766,4.8,1.976,6.966,2.635,10.261,1.318,8.66,1.318,8.66.659-8.943,1.318-10.449,3.012-2.824,3.671-1.506-.659,16.285-.659,19.109-3.012,24.663-1.882,29.558,11.951,35.97,11.951,35.97Z" transform="matrix(0.839, -0.545, 0.545, 0.839, 44.863, 192.78)" fill="#cd7a63"/>
          <path id="Path_3804" data-name="Path 3804" d="M334.881,133.025c.426-6.043.643-11.966-.558-17.94-1.125-5.6-2.569-11.089-2.825-16.822-.043-.961-1.543-.967-1.5,0,.249,5.58,1.573,10.946,2.708,16.389,1.28,6.139,1.113,12.152.675,18.373-.068.963,1.432.959,1.5,0" transform="matrix(0.839, -0.545, 0.545, 0.839, 44.934, 192.889)" fill="#b94d3c"/>
          <path id="Path_3805" data-name="Path 3805" d="M336.222,108.786q1.194,2.548,2.239,5.165a21.136,21.136,0,0,1,1.849,6.543c.232,4.164.12,8.363.04,12.531a.75.75,0,0,0,1.5,0c.083-4.287.234-8.625-.062-12.9a22.894,22.894,0,0,0-1.988-6.835q-1.071-2.657-2.283-5.256c-.409-.873-1.7-.113-1.3.757" transform="matrix(0.839, -0.545, 0.545, 0.839, 44.93, 192.883)" fill="#b94d3c"/>
          <path id="Path_3806" data-name="Path 3806" d="M346.035,126.511c-.277,3.118-.034,6.269-.03,9.394a.75.75,0,0,0,1.5,0c0-3.125-.247-6.276.03-9.394a.755.755,0,0,0-.75-.75.766.766,0,0,0-.75.75" transform="matrix(0.839, -0.545, 0.545, 0.839, 44.922, 192.871)" fill="#b94d3c"/>
          <g id="Group_411" data-name="Group 411" transform="translate(337.126 74.812)" opacity="0.2">
            <g id="Group_410" data-name="Group 410">
              <g id="Group_409" data-name="Group 409" clip-path="url(#clip-path-3)">
                <path id="Path_3807" data-name="Path 3807" d="M279.037,74.988s.227,14.779,13.4,20,11.128,14.308,7.721,21.8S275.4,143.2,276.312,143.2h13.183s-1.374-6.079,8.619-18.287,13.242-22.2,7.757-27.879S284.488,89.081,289.938,75H277.674" transform="translate(-276.284 -74.988)" fill="#fff"/>
              </g>
            </g>
          </g>
          <g id="Group_414" data-name="Group 414" transform="translate(327.415 116.162)" opacity="0.4">
            <g id="Group_413" data-name="Group 413">
              <g id="Group_412" data-name="Group 412" clip-path="url(#clip-path-4)">
                <path id="Path_3808" data-name="Path 3808" d="M266.553,123.093s9.9,4.625,13.255-2.925a6.277,6.277,0,0,1-6.088-1.471c-2.618-2.618-7.32-2.338-7.167-2.338s0,6.734,0,6.734" transform="translate(-266.549 -116.351)"/>
              </g>
            </g>
          </g>
          <path id="Path_3809" data-name="Path 3809" d="M271.516,97.908a11.1,11.1,0,0,0-6.559,2.144v-.011c-3.234,1.443-4.6.685-5.063.244V78.038a3.067,3.067,0,0,0-3.067-3.067H194.762a3.067,3.067,0,0,0-3.067,3.067v22.211c.427.433,1.773,1.276,5.1-.208v.011a11.156,11.156,0,1,1,.29,18.253h0s-3.6-2.37-5.389-.2v22a3.067,3.067,0,0,0,3.067,3.067h26.792c2.19,1.786-.2,5.4-.2,5.4h0a11.163,11.163,0,1,0,18.264-.29h0c-1.5-3.368-.619-4.706-.192-5.115h17.4a3.067,3.067,0,0,0,3.067-3.067V118.059c1.8-2.091,5.352.247,5.352.247h0a11.162,11.162,0,1,0,6.27-20.4" transform="translate(58.807 -0.213)" fill="#93278f"/>
          <g id="Group_417" data-name="Group 417" transform="translate(262.496 74.8)" opacity="0.2">
            <g id="Group_416" data-name="Group 416">
              <g id="Group_415" data-name="Group 415" clip-path="url(#clip-path-5)">
                <path id="Path_3810" data-name="Path 3810" d="M203.662,143.036s2.2-11.632,20.977-22.49-1.668-45.57-1.668-45.57h5.663s13.429,13.9,12.786,34.037c-.7,22.025-21.263,11.011-27.513,22.025s-1.455,12.012-1.455,12.012Z" transform="translate(-203.662 -74.976)" fill="#fff"/>
              </g>
            </g>
          </g>
          <g id="Group_420" data-name="Group 420" transform="translate(302.963 123.697)" opacity="0.2">
            <g id="Group_419" data-name="Group 419">
              <g id="Group_418" data-name="Group 418" clip-path="url(#clip-path-6)">
                <path id="Path_3811" data-name="Path 3811" d="M244.154,143.05s0-6.306,7.308-12.46,8.432-6.68,8.432-6.68v4.95s-7.855,2.953-9.2,6.957a8.055,8.055,0,0,0,1.332,7.233Z" transform="translate(-244.154 -123.911)" fill="#fff"/>
              </g>
            </g>
          </g>
          <g id="Group_423" data-name="Group 423" transform="translate(257.257 75.435)" opacity="0.4">
            <g id="Group_422" data-name="Group 422">
              <g id="Group_421" data-name="Group 421" clip-path="url(#clip-path-7)">
                <path id="Path_3812" data-name="Path 3812" d="M199.288,89.941s2.723,2.281,4.965-.226c0,0,5.9,4.332,9.48,2.537,0,0,7.1,2.085,9.9-.592l1.051-1.945s4.513.61,5.526-3.565c.566-2.332-2.2-6.337-3.873-7.988a17.691,17.691,0,0,0,.972-2.6c-.35,0-28.9.339-28.9.339Z" transform="translate(-198.414 -75.564)"/>
              </g>
            </g>
          </g>
          <path id="Path_3813" data-name="Path 3813" d="M240.877,51.909c-.738.369-28.23-3.544-33.393-.962S193.544,67.695,193.36,72.12s4.167,16.81,4.352,17.548,3.817.828,4.794-4.057c.184-.922.369-3.5.369-3.5s6.453,12.354,12.538,6.822c0,0,2.944,3.4,5.252,1.425s1.755-2.9,1.755-2.9,4.425,1.291,4.609-2.4-2.95-6.453-2.95-6.453l3.319-4.979s17.427,3.072,22.126-.184c3.456-2.4,3.5-3.688,3.5-3.688L289.532.64h-30.6Z" transform="translate(58.801 0.001)" fill="#ff8274"/>
          <path id="Path_3814" data-name="Path 3814" d="M222.328,86.986a21.8,21.8,0,0,1-3.879-2.891c-1.139-1.146-2.887-3.841-3.074-5.446-.332-2.857,3.082-7.219,4.4-9.311" transform="translate(58.842 -0.118)" fill="none" stroke="#ff4f4d" stroke-linecap="round" stroke-linejoin="round" stroke-width="1"/>
          <path id="Path_3815" data-name="Path 3815" d="M216.242,89.715a30.239,30.239,0,0,1-4.576-4.662,36.443,36.443,0,0,1-3.205-4.5c-1.166-1.935-1.857-4.164-.964-6.239S213,64.111,213,64.111" transform="translate(58.849 -0.114)" fill="none" stroke="#ff4f4d" stroke-linecap="round" stroke-linejoin="round" stroke-width="1"/>
          <path id="Path_3816" data-name="Path 3816" d="M205.575,86.15A33.508,33.508,0,0,1,200.4,76.09c-.745-2.331,3.825-10.951,5.892-14.4" transform="translate(58.857 -0.109)" fill="none" stroke="#ff4f4d" stroke-linecap="round" stroke-linejoin="round" stroke-width="1"/>
          <path id="Path_3817" data-name="Path 3817" d="M227.314,73.973a8.8,8.8,0,0,0,2.9-3.271" transform="translate(58.834 -0.112)" fill="none" stroke="#ff4f4d" stroke-linecap="round" stroke-linejoin="round" stroke-width="1"/>
          <path id="Path_3818" data-name="Path 3818" d="M113.343,100.053v-22a3.067,3.067,0,0,0-3.067-3.067H86.427c-1.5-1.874.585-5.023.585-5.023h0a11.163,11.163,0,1,0-18.264.29c1.191,2.669.881,4.064.489,4.733H48.211a3.067,3.067,0,0,0-3.067,3.067v62.064a3.067,3.067,0,0,0,3.067,3.067h62.065a3.067,3.067,0,0,0,3.067-3.067V117.906c-.427-.432-1.773-1.276-5.1.208V118.1a11.156,11.156,0,1,1-.29-18.252v0s3.6,2.37,5.389.2" transform="translate(53.953 -0.148)" fill="#9e005d"/>
          <g id="Group_426" data-name="Group 426" transform="translate(99.147 74.819)" opacity="0.2">
            <g id="Group_425" data-name="Group 425">
              <g id="Group_424" data-name="Group 424" clip-path="url(#clip-path-8)">
                <path id="Path_3819" data-name="Path 3819" d="M92.321,74.986S95.7,81.017,88,86.284,71.39,103.7,69.634,111.942,45.192,122.07,45.192,122.07v13.881s22.686-2.888,27.008-13.314,4.918-20.688,12.114-27.846S106.23,74.986,106.23,74.986Z" transform="translate(-45.192 -74.986)" fill="#fff"/>
              </g>
            </g>
          </g>
          <g id="Group_429" data-name="Group 429" transform="translate(105.094 112.249) rotate(73)" opacity="0.4">
            <g id="Group_428" data-name="Group 428">
              <g id="Group_427" data-name="Group 427" clip-path="url(#clip-path-9)">
                <path id="Path_3820" data-name="Path 3820" d="M45.837,96.427s2.272-.121,3.119,3.627S45.144,116.5,45.144,116.5V104.966Z" transform="translate(-45.144 -96.427)"/>
              </g>
            </g>
          </g>
          <path id="Path_3822" data-name="Path 3822" d="M22.934,60.657s-4.088-29.046-4.566-36.228S30.975.556,32.571.077s3.83,1.277,3.192,5.107-6.384,14.138-6.384,14.138l.958,6.7s6.543-3.351,12.288-1.915,7.181,4.628,6.7,8.3c0,0,3.191,2.872,3.351,5.745a8.815,8.815,0,0,1-1.436,5.107s1.276,4.468.159,6.223-7.979,4.469-7.979,4.469,2.495,12.406-3.764,16.624c0,0-9.489,34.5-9.278,34.468H0S18.176,69.521,19.453,66.967s3.481-6.31,3.481-6.31" transform="matrix(0.588, 0.809, -0.809, 0.588, 84.983, 84.45)" fill="#ffbdb6"/>
          <g id="Group_435" data-name="Group 435" transform="matrix(0.588, 0.809, -0.809, 0.588, 72.392, 145.522)" opacity="0.2">
            <g id="Group_434" data-name="Group 434" transform="translate(0 0)">
              <g id="Group_433" data-name="Group 433" clip-path="url(#clip-path-10)">
                <path id="Path_3823" data-name="Path 3823" d="M2.083,2.908a8.68,8.68,0,0,0-.652-1.769A2.2,2.2,0,0,0,0,0L1.691,7.822a6.468,6.468,0,0,0,.855-2.96,7.931,7.931,0,0,0-.463-1.954" transform="translate(0.001 0)"/>
              </g>
            </g>
          </g>
          <path id="Path_3824" data-name="Path 3824" d="M2.351,9.4.95,1.14A2.048,2.048,0,0,0,.7.352.7.7,0,0,0,0,.014" transform="matrix(0.588, 0.809, -0.809, 0.588, 71.947, 145.032)" fill="none" stroke="#f74f4c" stroke-linecap="round" stroke-linejoin="round" stroke-width="1"/>
          <path id="Path_3825" data-name="Path 3825" d="M0,2.65c5.892-3.628,13.035-3.6,16.711.5" transform="matrix(0.588, 0.809, -0.809, 0.588, 80.408, 128.137)" fill="none" stroke="#f74f4c" stroke-linecap="round" stroke-linejoin="round" stroke-width="1"/>
          <path id="Path_3826" data-name="Path 3826" d="M12.883,5.477C11.934,3.135,11.1,1.1,8.7.317S2.145.286,0,1.623" transform="matrix(0.588, 0.809, -0.809, 0.588, 76.963, 137.778)" fill="none" stroke="#f74f4c" stroke-linecap="round" stroke-linejoin="round" stroke-width="1"/>
          <path id="Path_3827" data-name="Path 3827" d="M0,1.67A6.384,6.384,0,0,1,3.667,0" transform="matrix(0.588, 0.809, -0.809, 0.588, 72.231, 146.596)" fill="none" stroke="#f74f4c" stroke-linecap="round" stroke-linejoin="round" stroke-width="1"/>
          <path id="Path_3828" data-name="Path 3828" d="M0,3.452C2.657,1.121,8.356.221,10.443,0" transform="matrix(0.588, 0.809, -0.809, 0.588, 82.641, 121.86)" fill="none" stroke="#f74f4c" stroke-linecap="round" stroke-linejoin="round" stroke-width="1"/>
          <g id="Group_438" data-name="Group 438" transform="translate(135.646 119.72)" opacity="0.2">
            <g id="Group_437" data-name="Group 437">
              <g id="Group_436" data-name="Group 436" clip-path="url(#clip-path-11)">
                <path id="Path_3829" data-name="Path 3829" d="M99,119.931S80.829,133.867,81.75,143.184h9.979s-8.136-.449-3.991-7.233,15.045-16.047,15.053-15.761A29.533,29.533,0,0,1,99,119.931" transform="translate(-81.716 -119.931)" fill="#fff"/>
              </g>
            </g>
          </g>
          <path id="Path_3830" data-name="Path 3830" d="M147.637,145.735a23.357,23.357,0,0,1,8.816-6.778c5.466-2.276,6.864-1.9,7.664-.382s-2.927,6.242-4.53,7.552-11.531,7.995-11.531,7.995Z" transform="translate(53.868 -0.234)" fill="#ff8037"/>
          <path id="Path_3831" data-name="Path 3831" d="M199.821,97.923a11.1,11.1,0,0,0-6.559,2.144v-.011c-3.029,1.352-4.414.772-4.961.331V78.053a3.067,3.067,0,0,0-3.067-3.067H123.168a3.067,3.067,0,0,0-3.067,3.067v22.472c-1.885,1.307-4.889-.676-4.889-.676v0A11.169,11.169,0,1,0,115.5,118.1v.012c2.509-1.12,3.888-.913,4.6-.558v22.561a3.067,3.067,0,0,0,3.067,3.067h62.065a3.067,3.067,0,0,0,3.067-3.067V117.951c1.832-1.888,5.251.37,5.251.37h0a11.162,11.162,0,1,0,6.27-20.4" transform="translate(53.872 -0.176)" fill="#ee5064"/>
          <g id="Group_441" data-name="Group 441" transform="translate(182.318 123.822)" opacity="0.4">
            <g id="Group_440" data-name="Group 440">
              <g id="Group_439" data-name="Group 439" clip-path="url(#clip-path-12)">
                <path id="Path_3832" data-name="Path 3832" d="M128.447,141.276s9.376-1.678,13.873-2.036h1.786s.862-14.121,8.078-14.651l-2.608,20.233,8.15-1.638s2.729-16.221,8.788-18.287l2.375,5.3s3.82-6.167,9.624-6.153L171.868,143.7,156.117,150.4l-13.8-.893Z" transform="translate(-128.447 -124.045)"/>
              </g>
            </g>
          </g>
          <g id="Group_444" data-name="Group 444" transform="translate(173.973 74.809)" opacity="0.2">
            <g id="Group_443" data-name="Group 443">
              <g id="Group_442" data-name="Group 442" clip-path="url(#clip-path-13)">
                <path id="Path_3833" data-name="Path 3833" d="M178.775,74.971a2.321,2.321,0,0,1,.39,1.4,14.761,14.761,0,0,1-4.356,10.974c-5.169,5.069-13.2,5.614-19.56,9.074a23.491,23.491,0,0,0-11.37,14.559,38.972,38.972,0,0,1-1.6,5.946c-1.662,3.8-5.463,6.316-9.452,7.442s-8.586.61-12.73.53v6.66c4.144.08,10.284-1.7,14.272-2.828s7.79-3.646,9.452-7.442a38.8,38.8,0,0,0,1.6-5.947c1.588-6.131,4.075-12.138,9.638-15.164,6.36-3.46,16.124-3.4,21.293-8.468,2.893-2.837,9.293-12.662,9.133-16.712Z" transform="translate(-120.101 -74.971)" fill="#fff"/>
              </g>
            </g>
          </g>
          <path id="Path_3834" data-name="Path 3834" d="M123.389,202.316c.058-1.3,9.1-39.426,9.1-39.426,5.1-4.871,14.877-4.4,19.441-5.046,10.862-1.544,10.655-4.745,10.655-4.745s6.074.487,8.735-3.374c1.377-2,10.284-25.646,10.284-25.646s-1.672-1.994-5.816,1.987-6.983,13.663-6.983,13.663,3.006-13.327,3.061-15.684-4.6-1.661-6.072,2.189-6.4,16.331-6.4,16.331c-1.308,2.082-2.909,3.488-5.013,3.734,0,0,1.742-19.293,1.736-21.4s-4.037-1.787-5.762,2-4.068,14.257-4.068,14.257-19.114-.95-22.4,1.157c-6.326,4.057-27.446,60-27.446,60Z" transform="translate(53.889 -0.316)" fill="#ffd6b2"/>
          <path id="Path_3835" data-name="Path 3835" d="M167.122,151.071a6.312,6.312,0,0,0,6.427,1.192c3.451-1.424,7.607-3.794,12.207-5.878s5-2.26,2.169-3.819-7.36.333-10.429,1.351-5.966,1.881-5.966,1.881Z" transform="translate(53.847 -0.234)" fill="#ffd6b2"/>
          <path id="Path_3836" data-name="Path 3836" d="M162.661,153.182c3.1-2.656,6.467-11.931,9.208-29.137" transform="translate(53.858 -0.226)" fill="none" stroke="#ff8037" stroke-linecap="round" stroke-linejoin="round" stroke-width="0.75"/>
          <path id="Path_3837" data-name="Path 3837" d="M148.252,151.782a8.111,8.111,0,0,0,4.626-1.509c1.9-1.586,3.24-25.376,3.24-25.376" transform="translate(53.872 -0.225)" fill="none" stroke="#ff8037" stroke-linecap="round" stroke-linejoin="round" stroke-width="0.75"/>
          <path id="Path_3838" data-name="Path 3838" d="M167.749,152.364c1.987-.7,3.834-3.285,4.83-5.14s8.348-20.774,9.028-23.145" transform="translate(53.851 -0.225)" fill="none" stroke="#ff8037" stroke-linecap="round" stroke-linejoin="round" stroke-width="0.75"/>
        </g>
      </g>
    </g>
  </g>
</svg>
