<svg xmlns="http://www.w3.org/2000/svg" width="50.353" height="33.494" viewBox="0 0 50.353 33.494">
  <g id="reduction-in-human-bias" transform="translate(0.75 0.75)">
    <g id="Decrease_8_" transform="translate(0.539 0)">
      <g id="Group_320" data-name="Group 320" transform="translate(0 0)">
        <path id="Path_1036" data-name="Path 1036" d="M48.024,122.016l-14.6-3,2.855-2.934-9.747-10.024-8.442,8.679L0,96.136,5.969,90,18.09,102.464l8.442-8.679,15.716,16.16,2.858-2.934Z" transform="translate(0 -90)" fill="#ee5064"/>
      </g>
    </g>
    <path id="Path_1037" data-name="Path 1037" d="M274.384,145.438l-15.954-16.187-2.572,2.609v12.293l2.572-2.609,9.9,10.041-2.9,2.939,14.822,3.005-2.963-15.03Z" transform="translate(-231.306 -125.513)" fill="#fb847d"/>
    <path id="Path_1056" data-name="Path 1056" d="M33.421,100.522,26.862,93.9l-8.8,8.931L5.87,90,4.724,91.191" transform="translate(0.541 -88.954)" fill="none" stroke="#000" stroke-linejoin="round" stroke-width="1.5" opacity="0.43" style="mix-blend-mode: darken;isolation: isolate"/>
    <path id="Path_1038" data-name="Path 1038" d="M33.857,100.891l-7-7-8.8,8.931L5.87,90,4.137,91.733" transform="translate(0.541 -90)" fill="none" stroke="#672376" stroke-linecap="round" stroke-linejoin="round" stroke-width="1.5"/>
    <path id="Path_1039" data-name="Path 1039" d="M35.007,102.27l7.623,7.623,2.985-2.985,2.683,15.08L33.238,119.25l3.231-3.23L33.5,113.142" transform="translate(0.555 -89.994)" fill="none" stroke="#672376" stroke-linecap="round" stroke-linejoin="round" stroke-width="1.5"/>
    <path id="Path_1040" data-name="Path 1040" d="M32.2,111.619l-5.612-5.612-4.368,4.368" transform="translate(0.55 -89.992)" fill="none" stroke="#672376" stroke-linecap="round" stroke-linejoin="round" stroke-width="1.5"/>
    <path id="Path_1041" data-name="Path 1041" d="M20.541,112.133l-2.57,2.57L-.538,96.193,2.614,93.04" transform="translate(0.538 -89.998)" fill="none" stroke="#672376" stroke-linecap="round" stroke-linejoin="round" stroke-width="1.5"/>
  </g>
</svg>
