<svg xmlns="http://www.w3.org/2000/svg" width="552.059" height="112.149" viewBox="0 0 552.059 112.149">
  <path id="aspirants-vector" d="M552.059,112.043c-.852.025-1.7.071-2.556.072q-21.968.006-43.936,0c-1.8,0-1.81,0-1.844-1.858q-.224-12.312-.438-24.623c-.012-.742.085-1.371-1.057-1.366-8.31.036-16.622.01-24.933.008a3.733,3.733,0,0,0-.512.068c-.008.121-.049.227-.014.29.992,1.764.993,1.763-1,1.763q-7.615,0-15.23-.008c-.422,0-.979.219-1.236-.264-.276-.518.305-.76.54-1.111a3.55,3.55,0,0,1,3.413-1.64c3.455.123,6.918.014,10.376.071,1.135.019,1.191-.257.665-1.169a39.482,39.482,0,0,1-5.424-15.5,2.577,2.577,0,0,1,1.377-2.838c5.085-3.2,8.323-7.937,10.712-13.323a40.919,40.919,0,0,0,2.689-8.017c.1-.481.21-1.062.873-.993.979.1,1.068-.53,1.188-1.227.572-3.337.364-3.577-3.106-3.576q-15.364.005-30.728,0c-2.044,0-2.359.308-2.25,2.353.365,6.867,2.356,13.113,7.064,18.315.823.91.747,1.052-.772,1.433a21.573,21.573,0,0,0,8.692,5.514c.75.248,1.116.53.951,1.417a49.494,49.494,0,0,1-6.135,16.979,2.66,2.66,0,0,1-2.59,1.454q-10.175-.092-20.351-.007c-1.115.008-1.45-.315-1.447-1.438.038-11.035.006-22.071.048-33.107,0-1.135-.207-1.527-1.45-1.517-7.5.065-15,.033-22.507.033h-1.164a1.48,1.48,0,0,0-.029.361c.142.544.976.912.628,1.514-.332.573-1.075.264-1.629.266q-7.615.028-15.229,0c-.418,0-.993.231-1.2-.3-.191-.487.342-.771.588-1.128a3.5,3.5,0,0,1,3.307-1.576c3.806.109,7.617.037,11.421.037.129-.669-.291-1.02-.518-1.431-2.713-4.909-4.815-10.018-5.22-15.692-.056-.771-.081-1.434.774-1.946,5.334-3.193,8.745-8.006,11.24-13.557a42.964,42.964,0,0,0,2.729-8.006c.125-.546.159-1.233,1.008-1.159.792.069.948-.408,1.06-1.058.615-3.57.487-3.731-3.191-3.73q-15.364,0-30.729,0c-1.945,0-2.262.317-2.152,2.3.385,6.91,2.369,13.2,7.142,18.424.74.809.632.975-.893,1.3a20.617,20.617,0,0,0,8.426,5.439c1.239.4,1.409.939,1.176,2.112a51.547,51.547,0,0,1-5.765,15.993,3.284,3.284,0,0,1-3.3,1.876c-6.377-.1-12.758-.017-19.137-.065-1.084-.008-1.434.25-1.473,1.392-.186,5.512-.5,11.018-.717,16.529-.039.995-.352,1.234-1.351,1.233-7.314-.013-14.627.052-21.941.09-.4,0-.807-.017-1.211-.03-.481-.015-1.083-.312-1.4.1-.332.427.252.781.461,1.144.34.588.174.819-.466.823-4.13.029-8.26.1-12.389.069-1.389-.009-2.778-.087-4.167-.006-.307.018-.673.143-.857-.179-.226-.395.153-.646.341-.936,1.325-2.043,3.448-1.8,5.43-1.822,2.827-.025,5.655.075,8.483.1.391,0,.9.145,1.144-.195.3-.427-.246-.681-.424-1.009a42.779,42.779,0,0,1-5.38-15.37,2.755,2.755,0,0,1,1.473-3.044c5.111-3.242,8.335-8.051,10.723-13.488a45,45,0,0,0,2.59-7.771c.116-.49.173-1.067.843-1,.963.1,1.055-.5,1.195-1.209.638-3.229.342-3.61-2.927-3.61H317.719c-2.252,0-2.519.3-2.394,2.6.374,6.881,2.468,13.084,7.19,18.26,1.131,1.239-.387.877-.874,1.3a20.382,20.382,0,0,0,8.255,5.317c1.285.421,1.444.958,1.228,2.22A62.621,62.621,0,0,1,327.049,62.5a15.8,15.8,0,0,0-.766,1.412c-.95,3.375-3.384,3.709-6.433,3.6-5.563-.207-11.14-.028-16.71-.084-1.186-.012-1.594.238-1.589,1.533.052,13.817.013,27.634.058,41.451,0,1.357-.365,1.744-1.741,1.744q-148.455-.048-296.91-.034c-.986,0-1.972-.047-2.958-.071V111.5a3.889,3.889,0,0,1,1.984-.222q148.449-.007,296.9-.009c2.082,0,1.858.268,1.859-1.866q.01-20.455,0-40.911c0-1.88,0-1.885,1.946-1.886,6.6,0,13.208-.02,19.811.02a2.01,2.01,0,0,0,1.935-1.077c3.191-4.956,4.8-10.475,5.915-16.181.11-.562-.036-.816-.556-.994a22.913,22.913,0,0,1-9.24-6.082,1.969,1.969,0,0,0-1.167-.587c-5.908-1.035-9.047-4.882-10.516-10.392a23.549,23.549,0,0,1-.763-5.449c-.02-.737.251-1.066,1.017-1.044a35.781,35.781,0,0,0,3.637-.011c1.13-.083,1.438.4,1.565,1.449a27.283,27.283,0,0,0,5.526,13.947c.335.424.6,1.075,1.457.668a28.965,28.965,0,0,1-5.733-11.168,31.311,31.311,0,0,1-1.108-7.838c-.029-1.935.732-2.662,2.7-2.663q15.97-.011,31.941.006a6.568,6.568,0,0,1,1.723.241c1.386.384,1.781,1.063,1.642,2.484-.089.92-.762,2.066-.205,2.686s1.793.228,2.72.183c1.123-.054,1.517.283,1.363,1.454-.685,5.214-2.038,10.124-6.076,13.857a11.832,11.832,0,0,1-5.894,3.06c-.383.072-.854.3-1.114-.119-.271-.441.2-.734.435-1.024a37.164,37.164,0,0,0,7.02-15.4c.066-.294.48-.749-.052-.914-.631-.2-.546.458-.632.786A41.908,41.908,0,0,1,342.7,42.089a23.4,23.4,0,0,1-6.309,5.8,1.857,1.857,0,0,0-1.008,2.07,37.628,37.628,0,0,0,5.259,15.1,2.7,2.7,0,0,0,2.753,1.6c5.924-.01,11.848.154,17.775-.038,1.7-.055,3.413.014,5.114.121,1.064.067,1.429-.315,1.418-1.364-.053-5.428.418-10.842.491-16.267.018-1.344.409-1.743,1.777-1.728,6.648.071,13.3.01,19.945.051a2.08,2.08,0,0,0,2.054-1.114,48.127,48.127,0,0,0,5.889-16.075c.129-.659-.092-.95-.724-1.173a22.57,22.57,0,0,1-8.914-5.862,2.163,2.163,0,0,0-1.237-.75c-5.9-.928-9-4.766-10.545-10.176a25.153,25.153,0,0,1-.785-5.446c-.058-.957.308-1.281,1.238-1.235a31.218,31.218,0,0,0,3.5,0c.985-.063,1.325.335,1.435,1.277A28.885,28.885,0,0,0,385.6,18.423a19.214,19.214,0,0,0,2.284,3.157.713.713,0,0,0,.96.122,31.785,31.785,0,0,1-3.518-5.37,32.143,32.143,0,0,1-3.352-13.6C381.92.758,382.662.011,384.6.009Q400.636-.007,416.673,0a6.658,6.658,0,0,1,1.472.133c1.554.356,2,1.046,1.831,2.742-.265,2.7-.265,2.7,2.373,2.732,1.693.019,1.673.017,1.461,1.763-.536,4.433-1.724,8.615-4.654,12.127a13.033,13.033,0,0,1-7.057,4.433c-.415.1-.973.325-1.255-.088-.312-.457.2-.817.467-1.145a37.223,37.223,0,0,0,6.923-15.161c.076-.325.469-.878-.139-.991-.539-.1-.47.527-.568.889-1.712,6.354-4.3,12.261-8.8,17.189A21.168,21.168,0,0,1,404,28.6a1.88,1.88,0,0,0-1.076,2.036c.466,5.2,2.46,9.856,4.781,14.454.958,1.9,2.149,2.406,4.181,2.371,7.365-.128,14.734-.055,22.1-.058,1.882,0,1.886,0,1.886,1.933,0,10.811.021,21.622-.027,32.433-.006,1.246.242,1.686,1.6,1.67,6.468-.075,12.937-.051,19.406-.015a1.882,1.882,0,0,0,1.834-1.02,47.933,47.933,0,0,0,5.976-16.181c.141-.7-.138-.95-.735-1.161a22.627,22.627,0,0,1-8.912-5.86,2.146,2.146,0,0,0-1.231-.741c-6.564-1.122-9.608-5.569-10.872-11.623-.283-1.354-.338-2.757-.491-4.138-.088-.793.254-1.155,1.076-1.135,1.257.031,2.517.05,3.773-.008.932-.044,1.227.355,1.335,1.237a27.711,27.711,0,0,0,5.432,13.988c.351.452.6,1.159,1.391.988.173-.223.052-.357-.062-.5a29.98,29.98,0,0,1-6.565-18.27c-.093-2.4.557-3.039,2.984-3.041q15.633-.009,31.267,0a9.4,9.4,0,0,1,1.473.108c1.932.309,2.469,1.02,2.245,2.913-.307,2.586-.307,2.586,2.312,2.591,1.684,0,1.731.009,1.524,1.731-.618,5.137-2.054,9.93-6.023,13.585a12.094,12.094,0,0,1-5.9,3.059c-.39.078-.844.28-1.094-.171-.209-.377.16-.664.374-.926a36.954,36.954,0,0,0,7.05-15.245,2.926,2.926,0,0,0,.11-.388c.025-.277.287-.679-.2-.756-.4-.064-.459.328-.538.637-.178.695-.346,1.393-.557,2.078C481.868,51.57,479,57.439,474.042,62.1a19.432,19.432,0,0,1-3.637,2.765,1.288,1.288,0,0,0-.715,1.416c.482,6.055,2.854,11.431,5.889,16.581.417.709,1.038.581,1.649.582q12.2.022,24.393.036c2.452,0,2.444,0,2.488,2.385.146,7.938.326,15.876.416,23.815.015,1.255.285,1.641,1.62,1.636,14.735-.054,29.47-.034,44.2-.032a3.3,3.3,0,0,1,1.71.224ZM453.51,57.561a29,29,0,0,1-3.429-5.864,32.511,32.511,0,0,1-1.907-6.285c-.644-3.163-.664-3.159-3.911-3.02a.935.935,0,0,1-.135,0c-.629-.061-.9.2-.855.851a18.611,18.611,0,0,0,2.914,9.651,10.912,10.912,0,0,0,7.322,4.666M319.041,40.767a5.362,5.362,0,0,0-.315-.616,28.928,28.928,0,0,1-4.88-11.411c-.213-1.02.124-2.456-.784-2.951-.836-.456-2.1-.124-3.179-.139-.045,0-.09,0-.135,0-.66-.071-.864.24-.814.871.281,3.53.963,6.94,3.112,9.871a10.686,10.686,0,0,0,6.993,4.376m67.672-19.173a30.552,30.552,0,0,1-3.44-5.921,32.225,32.225,0,0,1-1.9-6.281c-.6-3.078-.608-3.047-3.836-2.975-.84.019-1.086.286-1.031,1.1a19.609,19.609,0,0,0,2.112,8.119,11.256,11.256,0,0,0,8.1,5.962m92.535,37.228a11.76,11.76,0,0,0,6.807-4.789,21.714,21.714,0,0,0,3.5-9.084c.448-2.569.44-2.522-2.085-2.581-.987-.023-1.437.252-1.635,1.254a38.673,38.673,0,0,1-2.279,7.305,42.893,42.893,0,0,1-4.311,7.895M344.827,41.987a1.3,1.3,0,0,0,1.133-.122,12.9,12.9,0,0,0,5.73-4.527,21.691,21.691,0,0,0,3.54-9.068c.477-2.654.463-2.6-2.217-2.656-1.007-.022-1.3.391-1.487,1.252a42.635,42.635,0,0,1-2.987,8.906,34.817,34.817,0,0,1-3.712,6.216M412.5,22.8a10.867,10.867,0,0,0,5.826-3.581,19.573,19.573,0,0,0,4.37-9.969c.579-3.432.764-2.707-2.567-2.821-.618-.021-.852.279-.98.85A42.457,42.457,0,0,1,412.5,22.8M326.209,68.817a34.57,34.57,0,0,0,4.724-.03c3.273.012,6.546.093,9.819.113.374,0,1.068.255,1.042-.42a1.158,1.158,0,0,0-1.016-1.1,7.574,7.574,0,0,0-.806-.035c-3.853-.086-7.706.28-11.557,0a2.1,2.1,0,0,0-2.206,1.473m67.637-19.25c5.043,0,9.919,0,14.8,0,.205,0,.488.09.581-.185.12-.355-.194-.569-.358-.82-.305-.47-.8-.311-1.233-.312-3.906-.01-7.813.018-11.719-.024a2,2,0,0,0-2.067,1.346m66.818,35.992c5.027,0,9.9,0,14.775,0,.768,0,.647-.36.338-.84-.3-.462-.729-.453-1.181-.454-4.036,0-8.073.006-12.109-.029-.89-.008-1.379.4-1.824,1.325" transform="translate(0 0)" fill="#672376"/>
</svg>
