<svg xmlns="http://www.w3.org/2000/svg" xmlns:xlink="http://www.w3.org/1999/xlink" width="668.744" height="421.941" viewBox="0 0 668.744 421.941">
  <defs>
    <clipPath id="clip-path">
      <path id="Rectangle_128" data-name="Rectangle 128" d="M6.271,0h222.9a6.271,6.271,0,0,1,6.271,6.271V126.907a6.272,6.272,0,0,1-6.272,6.272H6.271A6.271,6.271,0,0,1,0,126.908V6.271A6.271,6.271,0,0,1,6.271,0Z" transform="translate(378.578 46.048)" fill="none"/>
    </clipPath>
  </defs>
  <g id="banner-image-2" transform="translate(0)">
    <g id="Group_115" data-name="Group 115">
      <g id="Group_122" data-name="Group 122">
        <path id="Path_793" data-name="Path 793" d="M352.961,64.164c-42.137-9.908-72.816-.279-107.86,11.813-17.273,5.961-34.759,12.263-52.963,14.661-13.587,1.791-27.313,2.266-40.95,3.621a350.225,350.225,0,0,0-42.268,6.314c-23.443,5.271-64.274,14.981-61.769,46.542,1,12.639,9.632,24.127,8.76,36.776C54.794,200.1,39.67,212.659,29.762,224.113,16.085,239.924,3.786,257.47,6.041,279.45c1.82,17.729,13.334,33.308,27.531,44.082s31,17.461,47.552,24.063c25.214,10.056,46.537,21.833,66.371,40.532,11.49,10.831,23.724,21.563,38.616,26.814,20.011,7.055,45.522.916,53.671-20.275,4.443-11.553,5.691-25,12.581-35.5,7.1-10.81,22.062-19.908,35.263-18.157,21.5,2.85,29.885,18.8,40.132,35.578,5.005,8.194,10.946,15.739,19.352,20.658,14.419,8.437,28.826,5.146,44.028,1.723a492.716,492.716,0,0,1,49.735-8.685c28.365-3.391,56.9-1.873,85.17,1.693,26.838,3.386,65.808,21.032,87.943-2.916,9.7-10.492,11.629-24.856,8.1-38.259-5.061-19.205-15.952-40.526-15.364-60.473.868-29.447,14.141-49.049,30.364-72.058,7.768-11.019,13.753-23.261,13.474-37.046-.644-31.716-20.526-56.067-41.256-77.934-20.685-21.818-41.351-46.679-62.279-66.027" fill="none" stroke="#ed725a" stroke-width="1.5"/>
        <path id="Path_794" data-name="Path 794" d="M654.263,96.548a8.344,8.344,0,1,1-8.343-8.343A8.343,8.343,0,0,1,654.263,96.548Z" fill="none" stroke="#ed725a" stroke-width="1.5"/>
        <path id="Path_795" data-name="Path 795" d="M374.946,379.027a8.344,8.344,0,1,1-8.343-8.343A8.343,8.343,0,0,1,374.946,379.027Z" fill="none" stroke="#ed725a" stroke-width="1.5"/>
        <path id="Path_796" data-name="Path 796" d="M345.806,15.754a6.271,6.271,0,0,1,6.271,6.271V146.008a6.27,6.27,0,0,1-6.271,6.271H105.171a6.27,6.27,0,0,1-6.271-6.271V22.025a6.271,6.271,0,0,1,6.271-6.271Zm0-1.5H105.171A7.78,7.78,0,0,0,97.4,22.025V146.008a7.78,7.78,0,0,0,7.771,7.771H345.806a7.78,7.78,0,0,0,7.771-7.771V22.025a7.78,7.78,0,0,0-7.771-7.771" fill="#fff"/>
        <path id="Path_797" data-name="Path 797" d="M345.806,152.279H105.171a6.271,6.271,0,0,1-6.271-6.271V32.476H352.077V146.008a6.271,6.271,0,0,1-6.271,6.271" fill="#afb9e8"/>
        <circle id="Ellipse_25" data-name="Ellipse 25" cx="3.589" cy="3.589" r="3.589" transform="translate(105.648 27.153) rotate(-75.128)" fill="none" stroke="#fff" stroke-width="1.5"/>
        <circle id="Ellipse_26" data-name="Ellipse 26" cx="3.589" cy="3.589" r="3.589" transform="translate(119.559 27.153) rotate(-75.128)" fill="none" stroke="#fff" stroke-width="1.5"/>
        <line id="Line_20" data-name="Line 20" x2="253.178" transform="translate(98.9 32.477)" fill="none" stroke="#fff" stroke-width="1.5"/>
        <path id="Path_798" data-name="Path 798" d="M331.723,134.89c-2.546-3.375-6.891-6.481-10.283-4.157-2.847,1.95-2.952,6.353-2.732,10.013a142.87,142.87,0,0,0-28.4-29.977c-5.815-4.562-12.5-8.779-19.644-8.229s-10.85,10.576-8.972,18.118c-19.506-25.828-41.26-44.149-63.915-60-7.732-5.41-16.312-10.627-25.485-13.711-9.758-3.281-23.235-7.126-32.051.491-3.778,3.264-5.746,8.244-6.281,13.208-.663,6.143.376,12.63,2.05,18.548,4,14.159,10.426,27.509,17.875,40.085s23.843,33.239,23.843,33.239H339.479a42.822,42.822,0,0,0-7.756-17.626" fill="#909df4"/>
        <path id="Path_799" data-name="Path 799" d="M246.66,127.21s-31.055-26.933-44.375-31.5-40.69,2.769-41.034,2.769-24.5,53.8-24.5,53.8h99.075Z" fill="#c44590"/>
        <path id="Path_800" data-name="Path 800" d="M305.655,200.333q3.4,3.545,7.055,6.827c2.35,2.109,4.923,3.991,7.216,6.151.566.532,1.081,1.115,1.6,1.7a38.582,38.582,0,0,1,5.129,6.742,3.647,3.647,0,0,0,.633.931,1.1,1.1,0,0,0,1.031.315,1.384,1.384,0,0,0,.772-.835,7.371,7.371,0,0,0,.093-4.785c-.26-1.013-.613-2-.9-3.006a6.484,6.484,0,0,1-.452-2.6c6.653,2.779,12.065,7.816,18.131,11.712,1.242.8,3.979,1.1,4.441,0,.61-1.452-8.241-8.011-12.3-12.346a63.6,63.6,0,0,1,9.057,5.252,21.553,21.553,0,0,0,6.28,3.364c1.28.406,4.219,1.01,3.62-1.328a3.911,3.911,0,0,0-1.207-1.728c-3.963-3.848-8.746-6.565-12.91-10.193,4.688,1.849,8.99,5.162,14.026,5.336a2.138,2.138,0,0,0,1.408-.312,1.26,1.26,0,0,0,.4-1.739,4.68,4.68,0,0,0-1.682-1.445c-4.674-2.859-9.543-6.018-14.215-8.877a62.191,62.191,0,0,1,7.244,2.9,15.256,15.256,0,0,0,7.589,1.437c.832-.1,1.865-.639,1.676-1.455a1.657,1.657,0,0,0-.786-.889l-17.039-11.648c-1.594-1.089-3.187-2.179-4.821-3.207-1.968-1.238-4.239-2.157-6.065-3.55-1.427-1.087-3.151-1.894-4.681-2.834q-5.67-3.483-10.99-7.487" fill="#ffcaa3" stroke="#000" stroke-width="2"/>
        <path id="Path_805" data-name="Path 805" d="M209.436,96.548c12.267,3.856,18.423,4.209,29.4,11.017,11.662,7.235,40.511,37.633,40.511,37.633s38.929,27.447,53.519,37.825L306.654,208c-28.989-17.33-58.745-38.019-80.72-63.668" fill="#c44590" stroke="#000" stroke-width="2"/>
        <path id="Path_806" data-name="Path 806" d="M164.926,147.065s12.166-6.524,17.52-7.871c7.416-1.866,16.212-2.392,18.57-1.675,1.1.336,5.26,2.043,7.433,4.587,2.31,1.01,3.248,1.515,4.619,2.092s2.015,2.191,3.45,3.422,3.012,4.656,3.012,4.656-10.948.037-14.024.139-6.4,5.974-13.278,8.055" fill="#ffcaa3" stroke="#000" stroke-width="2"/>
        <path id="Path_807" data-name="Path 807" d="M189.991,91.708c-8.44-.068-16.659-2.267-25.082-2.272-15.3-.009-24.079,8.018-31.521,19.143a183.378,183.378,0,0,0-14.934,28.04c-4.66,10.795-9.88,22.818-11.24,34.608a27.423,27.423,0,0,0,2.646,15.756c4.612,8.867,14.862,10.416,20.841,11.08s16.456-1.355,21.588-4.537A312.24,312.24,0,0,0,197.153,160L168.1,145.1l-13.938,5.454,17.6-32.542" fill="#c44590" stroke="#000" stroke-width="2"/>
        <line id="Line_21" data-name="Line 21" x1="16.173" y2="29.9" transform="translate(154.16 120.659)" fill="none" stroke="#000" stroke-width="1"/>
        <path id="Path_808" data-name="Path 808" d="M168.1,145.1,143.1,154.8c-5.688,2.208-11.264,6.574-15.8,10.634" fill="none" stroke="#000" stroke-width="1"/>
        <line id="Line_22" data-name="Line 22" x2="30.1" y2="18.522" transform="translate(158.117 149.166)" fill="none" stroke="#000" stroke-width="2"/>
        <path id="Path_809" data-name="Path 809" d="M239.022,134.674c-3.985,6.588-9.5,17.6-9.5,17.6" fill="none" stroke="#000" stroke-width="2"/>
        <line id="Line_23" data-name="Line 23" x1="29.201" y2="24.322" transform="translate(293.034 175.487)" fill="none" stroke="#000" stroke-width="2"/>
        <path id="Path_810" data-name="Path 810" d="M207.324,145.224a50.962,50.962,0,0,0,6.443,1.272,4.614,4.614,0,0,1,1.938.539" fill="none" stroke="#000" stroke-width="2"/>
        <path id="Path_811" data-name="Path 811" d="M209.193,142.675a11.224,11.224,0,0,0-1.168-.48,17.757,17.757,0,0,0-6.485-1.492" fill="none" stroke="#000" stroke-width="2"/>
        <path id="Path_812" data-name="Path 812" d="M202.391,153.634a8.083,8.083,0,0,1,3.92-1.33c2.882-.3,5.968.322,8.733-.762" fill="none" stroke="#000" stroke-width="1"/>
        <path id="Path_813" data-name="Path 813" d="M94.156,173.316a31.841,31.841,0,0,0,18.1,27.021" fill="none" stroke="#000" stroke-width="1"/>
        <path id="Path_814" data-name="Path 814" d="M86.09,172.821c.236,7.436,3.306,14.642,8.066,18.931" fill="none" stroke="#000" stroke-width="1"/>
        <path id="Path_815" data-name="Path 815" d="M249.968,100.687a208.139,208.139,0,0,1,24.644,24.69" fill="none" stroke="#000" stroke-width="1"/>
        <path id="Path_816" data-name="Path 816" d="M250.165,91.77a103.512,103.512,0,0,1,16.9,15.763" fill="none" stroke="#000" stroke-width="1"/>
        <path id="Path_817" data-name="Path 817" d="M178.415,106.875a79.02,79.02,0,0,1-13.341-6.738,23.684,23.684,0,0,1-5.131-3.705,8.162,8.162,0,0,1-2.509-5.654,9.066,9.066,0,0,1,2.228-5.3c3.784-4.766,9.9-7.24,15.96-7.79s12.14.62,18.063,2.017c8.9,2.1,17.992,4.894,24.861,10.935a18.6,18.6,0,0,1,4.762,6.01,17.549,17.549,0,0,1,.965,10.457,52.324,52.324,0,0,1-3.312,10.121" fill="#c44590" stroke="#000" stroke-width="2"/>
        <path id="Path_818" data-name="Path 818" d="M202.5,71.7l-11.972,3.488.267,6.019-6.06,10.339s14.325,5.549,19.711,16.861a7.811,7.811,0,0,0,8.216-3.884L218.432,90.7" fill="#ffcaa3" stroke="#000" stroke-width="2"/>
        <path id="Path_819" data-name="Path 819" d="M230.672,83.715c1.032-5.935,2.275-12.356,2.178-17.082-.082-4-.694-10.043-3.279-13.177-3.326-4.036-9.383-4.1-14.467-4.668-8.348-.93-14.117,6.632-16.588,13.7a24.966,24.966,0,0,0,.016,16.319c2.3,7.31,10.447,17.131,21.048,15.926,5.627-.64,10-4.729,11.092-11.014" fill="#ffcaa3" stroke="#000" stroke-width="2"/>
        <path id="Path_820" data-name="Path 820" d="M220.427,70.746c-.1.883-.732,1.536-1.408,1.458a1.46,1.46,0,0,1-1.039-1.741c.1-.883.733-1.536,1.409-1.458a1.46,1.46,0,0,1,1.038,1.741"/>
        <path id="Path_821" data-name="Path 821" d="M231.98,71.842c-.1.883-.732,1.536-1.408,1.458a1.459,1.459,0,0,1-1.039-1.741c.1-.883.733-1.536,1.409-1.458a1.46,1.46,0,0,1,1.038,1.741"/>
        <path id="Path_822" data-name="Path 822" d="M226.858,69.886a48.741,48.741,0,0,0-.042,6.175c0,1.27.048,3.507-1.6,3.8a11.616,11.616,0,0,1-3.439-.456" fill="none" stroke="#000" stroke-width="2"/>
        <path id="Path_823" data-name="Path 823" d="M222.7,83.027l-4.328-3.644s-3.177,4.154-1.537,5.659c2.652,2.432,5.865-2.015,5.865-2.015" fill="#fff"/>
        <path id="Path_824" data-name="Path 824" d="M229.725,54.72c1.909,2.987,2.963,5.39,3.044,14.351a10.6,10.6,0,0,0,2.661-.922,3.582,3.582,0,0,0,1.781-2.1c.446-1.686-.81-3.354-.879-5.1a6.219,6.219,0,0,1,1.21-3.519,6.628,6.628,0,0,0,1.268-2.589,4.334,4.334,0,0,0-1.683-3.562c-2.261-2.051-5.289-2.868-7.886-4.373-1.258-.729-1.927-1.868-3.094-2.724a26.252,26.252,0,0,0-4.205-2.514,28.15,28.15,0,0,0-10.907-2.664,26.216,26.216,0,0,0-19.6,7.511c-6.727,6.741-9.427,19.6-5.206,27.042,2.378,4.2,4.563,7.644,4.563,7.644.27.43,6.09-4.8,6.447-5.506a12.949,12.949,0,0,0,.718-2.3c.752-2.64,3.379-3.084,5.63-3.908,3.282-1.2,4.924-4.125,5.561-7.424a35.524,35.524,0,0,0,.473-5.768c-.011.432,2.642,1.364,3.04,1.487a22.627,22.627,0,0,0,12.309.351,8.391,8.391,0,0,0,3.35-1.52c.253-.219,1.822-1.468,1.4-1.9" fill="#1e1611"/>
        <path id="Path_825" data-name="Path 825" d="M205.267,89.427a20.023,20.023,0,0,0,12.315,5.4" fill="none" stroke="#000" stroke-width="1"/>
        <path id="Path_826" data-name="Path 826" d="M213.423,64.463a4.816,4.816,0,0,1,7.871-1.032" fill="none" stroke="#000" stroke-width="2"/>
        <path id="Path_827" data-name="Path 827" d="M228.119,64.652a2.662,2.662,0,0,1,2.608-1.756,2.515,2.515,0,0,1,1.764,2.5" fill="none" stroke="#000" stroke-width="2"/>
        <path id="Path_828" data-name="Path 828" d="M224.588,73.021a5.586,5.586,0,0,1-7.142,3.567,5.8,5.8,0,0,1-3.48-7.32,5.587,5.587,0,0,1,7.142-3.567A5.794,5.794,0,0,1,224.588,73.021Z" fill="none" stroke="#572a2f" stroke-width="2"/>
        <path id="Path_829" data-name="Path 829" d="M235.367,74.426c-.544,3.131-2.562,5.381-4.508,5.026s-3.083-3.181-2.54-6.311,2.562-5.381,4.508-5.026S235.911,71.295,235.367,74.426Z" fill="none" stroke="#572a2f" stroke-width="2"/>
        <line id="Line_24" data-name="Line 24" x1="3.952" y1="0.74" transform="translate(224.882 70.741)" fill="none" stroke="#572a2f" stroke-width="2"/>
        <line id="Line_25" data-name="Line 25" x1="11.905" y2="0.909" transform="translate(202.284 68.703)" fill="none" stroke="#572a2f" stroke-width="2"/>
        <path id="Path_830" data-name="Path 830" d="M205.688,71.757c-.059-2.886-3.953-5.149-6.516-4.229-6.16,2.212-4.084,13.244,1.64,14.3,1.619.3,3.943-.338,4.516-2.172" fill="#ffcaa3"/>
        <line id="Line_26" data-name="Line 26" x2="5.294" y2="4.796" transform="translate(198.725 72.448)" fill="none" stroke="#000" stroke-width="2"/>
        <path id="Path_831" data-name="Path 831" d="M202.969,68.2a7.483,7.483,0,0,1,2.957,3.374" fill="none" stroke="#000" stroke-width="2"/>
        <path id="Path_832" data-name="Path 832" d="M195.647,76.627c.794,2.359,2.415,4.857,4.981,5.281a4.1,4.1,0,0,0,4.55-2.333" fill="none" stroke="#000" stroke-width="2"/>
        <path id="Path_833" data-name="Path 833" d="M182.054,60.387a38.883,38.883,0,0,1,1.809-11.466,19.712,19.712,0,0,1,6.52-9.449,25.306,25.306,0,0,1,5.672-3.032,30.188,30.188,0,0,1,5.155-1.685c6.635-1.412,13.507.687,19.722,3.4" fill="#fb847d" stroke="#000" stroke-width="2"/>
        <path id="Path_834" data-name="Path 834" d="M223.9,38.692a13.3,13.3,0,0,0-5.961-3.164,13.557,13.557,0,0,0-4.027-.453,14.659,14.659,0,0,0-2.1.274c-4.809.946-9.143,3.469-13.311,6.048-5.566,3.445-11.122,7.151-15.2,12.267A11.577,11.577,0,0,0,180.394,60a10.155,10.155,0,0,0,.651,3.848,25.2,25.2,0,0,0,3.839,6.755c12.241-11.451,25.99-20.511,41.865-25.892a9,9,0,0,0-2.845-6.02" fill="#fb847d" stroke="#000" stroke-width="2"/>
        <path id="Path_835" data-name="Path 835" d="M182.847,54.257a55.612,55.612,0,0,1,29.515-19.195" fill="none" stroke="#000" stroke-width="1"/>
        <path id="Path_836" data-name="Path 836" d="M188.217,55.885a28.7,28.7,0,0,0,5.317,7.294" fill="none" stroke="#000" stroke-width="1"/>
        <path id="Path_837" data-name="Path 837" d="M200.292,45.053a49.146,49.146,0,0,0,5.788,9.326" fill="none" stroke="#000" stroke-width="1"/>
        <path id="Path_838" data-name="Path 838" d="M213.1,38.169a40.81,40.81,0,0,1,6.689,9.164" fill="none" stroke="#000" stroke-width="1"/>
        <path id="Path_839" data-name="Path 839" d="M217.52,36.612a44.649,44.649,0,0,1,5.742,9.354" fill="none" stroke="#000" stroke-width="1"/>
        <path id="Path_840" data-name="Path 840" d="M182.209,57.5a17.091,17.091,0,0,0,6.271,10.168" fill="none" stroke="#000" stroke-width="1"/>
        <path id="Path_841" data-name="Path 841" d="M175.141,87.707c5.851,2.186,11.761,4.4,16.967,7.851s10.479,8.3,12.339,14.261" fill="none" stroke="#000" stroke-width="2"/>
        <path id="Path_842" data-name="Path 842" d="M208.5,108a12.225,12.225,0,0,0,5.953-6.3" fill="none" stroke="#000" stroke-width="1"/>
        <path id="Path_843" data-name="Path 843" d="M157.433,90.148c2.706,15.54,23.206,12.567,32.755,17.385" fill="none" stroke="#000" stroke-width="2"/>
        <path id="Path_844" data-name="Path 844" d="M224.624,101.438a12.137,12.137,0,0,1-2.528,5.9c-2.128,2.464-5.436,3.483-8.563,4.389" fill="none" stroke="#000" stroke-width="2"/>
        <path id="Path_845" data-name="Path 845" d="M216.362,108c1.422,9.773,2.861,20.725,2.406,30.59" fill="none" stroke="#000" stroke-width="2"/>
        <path id="Path_846" data-name="Path 846" d="M194.64,105.758c1.483,4.06.786,15.072.625,25" fill="none" stroke="#000" stroke-width="2"/>
        <path id="Path_847" data-name="Path 847" d="M293.856,390.329H71.221a6.272,6.272,0,0,1-6.272-6.271V233.31H300.127V384.058a6.271,6.271,0,0,1-6.271,6.271" fill="#d4bcdd"/>
        <path id="Path_848" data-name="Path 848" d="M293.856,212.988a6.271,6.271,0,0,1,6.271,6.271v164.8a6.271,6.271,0,0,1-6.271,6.272H71.221a6.272,6.272,0,0,1-6.272-6.272v-164.8a6.272,6.272,0,0,1,6.272-6.271Zm0-1.5H71.221a7.78,7.78,0,0,0-7.772,7.771v164.8a7.781,7.781,0,0,0,7.772,7.772H293.856a7.781,7.781,0,0,0,7.771-7.772v-164.8a7.78,7.78,0,0,0-7.771-7.771" fill="#fff"/>
        <path id="Path_849" data-name="Path 849" d="M82.847,223.744a4.361,4.361,0,1,1-4.361-4.361A4.361,4.361,0,0,1,82.847,223.744Z" fill="none" stroke="#fff" stroke-width="1.5"/>
        <path id="Path_850" data-name="Path 850" d="M99.753,223.744a4.361,4.361,0,1,1-4.361-4.361A4.361,4.361,0,0,1,99.753,223.744Z" fill="none" stroke="#fff" stroke-width="1.5"/>
        <line id="Line_27" data-name="Line 27" x2="235.178" transform="translate(64.95 233.31)" fill="none" stroke="#fff" stroke-width="1.5"/>
        <path id="Path_851" data-name="Path 851" d="M277.53,390.329a84.841,84.841,0,0,0-12.715-21.553c-3.226-3.974-6.975-7.752-11.708-9.5s-10.64-.983-13.858,3c-2.462,3.045-2.93,7.252-3.3,11.2-7.795-8.368-15.691-16.821-25.2-23.029s-21.049-10.622-32.06-8.208c-12.21,2.677-12.21,18.109-12.21,18.109s-7.485-10.492-8.16-11.479a172.6,172.6,0,0,0-16.7-20.468c-5.918-6.323-11.548-12.975-18.216-18.5-6.644-5.5-17.429-12.525-26.359-9.2-4.647,1.731-5.926,5.763-4.9,10.411.965,4.349,1.473,8.709,2.824,12.99-7.511-8.372-16.059-16.08-25.968-21.292-7.149-3.76-22.068-10.131-29.488-3.973a10.061,10.061,0,0,0-3.176,7.549c-.389,17.322,12.093,35.937,22.148,48.735,10.317,13.131,22.764,24.761,35.653,35.206Z" fill="#fd9"/>
        <path id="Path_852" data-name="Path 852" d="M232.341,312.069c-1.334,7.363-.938,14.975-.9,22.5s.642,12.447-2.08,19.276c-2.457,6.166-7.589,8.261-10.268,14.3-1.364,3.076-6.538,22.172-6.538,22.172H143.08s-1.948-30.016,8.765-55.632,24.106-30.209,24.106-30.209l39.524-10.2Z" fill="#fb847d" stroke="#000" stroke-width="2"/>
        <path id="Path_853" data-name="Path 853" d="M323.357,267.289c2.061-2.486,4.944-4.046,7.412-6.068,2.275-1.863,3.975-4.475,5.862-6.733a102.96,102.96,0,0,0,6.1-8.881,56.551,56.551,0,0,1,7.627-8.474,4.264,4.264,0,0,0,.98-1.245,1.7,1.7,0,0,0-1.073-2.3,9.928,9.928,0,0,0-5.982.688c-1.134.425-4.984,1.788-5.218-.379-.264-2.449,1.786-6.025,2.572-8.295,1.021-2.953,2.067-5.913,2.9-8.928.79-2.872.611-8.391-.917-8.481s-.375.824-.773,1.041c.638-.84-.479-2.779-1.4-3.358s-2.108,1.3-2.382,2.307c.312-.987-.554-2.618-1.289-2.686-1.069-.1-1.9.913-2.535,1.739a8.628,8.628,0,0,1-2.1,2.3,6.777,6.777,0,0,0-.314-2.1c-.7-.394-1.5.258-2,.852C320.589,220.374,313.661,235.364,302.3,247" fill="#e27769" stroke="#000" stroke-width="2"/>
        <path id="Path_854" data-name="Path 854" d="M339.312,232.232q.054,4.464-.227,8.924" fill="none" stroke="#000" stroke-width="2"/>
        <path id="Path_855" data-name="Path 855" d="M342.523,208.521c-.894,2.809-2.62,5.183-3.917,7.8-2.065,4.159-3.911,8.42-5.826,12.649" fill="none" stroke="#000" stroke-width="2"/>
        <path id="Path_856" data-name="Path 856" d="M339,207.969a32.508,32.508,0,0,1-2.133,3.8c-.852,1.306-1.8,2.549-2.708,3.813a94.339,94.339,0,0,0-7.031,11.359" fill="none" stroke="#000" stroke-width="2"/>
        <path id="Path_857" data-name="Path 857" d="M332.789,209.979a17.818,17.818,0,0,1-2.879,3.915,64.006,64.006,0,0,0-8.521,12.634" fill="none" stroke="#000" stroke-width="2"/>
        <path id="Path_858" data-name="Path 858" d="M195.536,298.261c12.43-5.2,20.572-10.664,32.878-16.207,11.1-5,26.667-9.095,37.608-14.429,15.13-7.376,29.318-15.523,41.754-26.683l22.6,23.787s-31.93,32.572-43.077,38.921c-26.863,15.3-36.647,18.166-64.572,32.77" fill="#fb847d" stroke="#000" stroke-width="2"/>
        <path id="Path_859" data-name="Path 859" d="M231.123,332.33A42.819,42.819,0,0,1,234.87,316" fill="none" stroke="#000" stroke-width="2"/>
        <line id="Line_28" data-name="Line 28" x2="22.408" y2="25.15" transform="translate(300.236 247.196)" fill="none" stroke="#000" stroke-width="2"/>
        <path id="Path_860" data-name="Path 860" d="M191.921,367.219c9.476.176,18.912,1.672,27.127,6.664a15.186,15.186,0,0,1,7.23,10.055,36.207,36.207,0,0,1,.877,11.631.906.906,0,0,1-.629.78,2.887,2.887,0,0,1-1.341-.336s.809,3.821-.047,4.617c-.6.554-1.721-.2-2.144-.66a11.125,11.125,0,0,1-1.166-1.909s.565,2.193.088,2.571c-.708.56-2.755-.86-3.239-2.3-.3.816-.783,1.572-1.537,1.372-2.368-.628-4.221-3.979-6.17-5.64-2.59-2.208-6.064-2.358-9.295-2.309a39.286,39.286,0,0,1-4.461-.088,44.063,44.063,0,0,1-4.369-1.047,60.3,60.3,0,0,0-8.433-.976" fill="#e27769" stroke="#000" stroke-width="2"/>
        <path id="Path_861" data-name="Path 861" d="M209.42,386.957c2.6,1.081,5.357,2.285,6.821,4.514a10.211,10.211,0,0,1,1.008,2.136c.566,1.552,1,3.141,1.429,4.728" fill="none" stroke="#000" stroke-width="2"/>
        <path id="Path_862" data-name="Path 862" d="M213.152,382.257a25.4,25.4,0,0,1,4.183,3.167,11.346,11.346,0,0,1,2.882,4.338,18,18,0,0,1,.652,2.929q.507,3.053,1.045,6.1" fill="none" stroke="#000" stroke-width="2"/>
        <path id="Path_863" data-name="Path 863" d="M218.231,379.027a16.456,16.456,0,0,1,5.493,7.249,32.749,32.749,0,0,1,1.617,7.966l.3,2.564" fill="none" stroke="#000" stroke-width="2"/>
        <path id="Path_864" data-name="Path 864" d="M181.485,300.081s-19.611,2.9-27.137,7.224c-11.766,6.76-16.939,17.075-24.436,34.569s-10.539,25.171-10.612,30.967c-.108,8.533,3.732,17.476,19.428,17.476h50.053l10.1-23.59-38.948-6.094L170.68,335.47" fill="#fb847d" stroke="#000" stroke-width="2"/>
        <path id="Path_865" data-name="Path 865" d="M198.879,366.727l-38.948-6.094,10.748-25.163" fill="none" stroke="#000" stroke-width="2"/>
        <path id="Path_866" data-name="Path 866" d="M146.1,364.233c.3,0,6.228-3.694,13.833-3.6" fill="none" stroke="#000" stroke-width="2"/>
        <line id="Line_29" data-name="Line 29" x1="10.684" y2="25.271" transform="translate(177.451 365.046)" fill="none" stroke="#000" stroke-width="2"/>
        <path id="Path_867" data-name="Path 867" d="M211.893,306.089a24.832,24.832,0,0,0,.07-8.355" fill="none" stroke="#000" stroke-width="2"/>
        <path id="Path_868" data-name="Path 868" d="M170.387,305.417a23.423,23.423,0,0,0,12.163,12.159c6.575,2.881,15.493,3.413,21.776-.435a15.855,15.855,0,0,0,6.211-6.842" fill="none" stroke="#000" stroke-width="2"/>
        <path id="Path_869" data-name="Path 869" d="M281,315.533a118.841,118.841,0,0,0,31.536-23.352" fill="none" stroke="#000" stroke-width="2"/>
        <path id="Path_870" data-name="Path 870" d="M302.841,309.873a134.192,134.192,0,0,0,15.9-14.5" fill="none" stroke="#000" stroke-width="2"/>
        <path id="Path_871" data-name="Path 871" d="M115.05,358.123a65.675,65.675,0,0,0-2.615,25.053" fill="none" stroke="#000" stroke-width="1"/>
        <path id="Path_872" data-name="Path 872" d="M107.232,359.328a49.112,49.112,0,0,0-2.642,14.089" fill="none" stroke="#000" stroke-width="1"/>
        <path id="Path_873" data-name="Path 873" d="M188.048,275.964l-10.725,7.188,2.314,7.666-3.224,11.556a2.6,2.6,0,0,0,.345,2.156,21.053,21.053,0,0,0,17.965,9.082c11.39-.011,11.23-7.566,11.23-7.566l2.074-16.092" fill="#e27769" stroke="#000" stroke-width="2"/>
        <path id="Path_874" data-name="Path 874" d="M209.622,275.006c-2.949-5.5-4.634-8.9-7.732-12.684-2.622-3.208-6.98-7.741-11.087-8.644-5.289-1.164-10.266,2.652-14.771,5.437-7.4,4.574-7.268,14.421-4.769,21.756,1.919,5.635,5.886,7.785,10.892,11.221,6.542,4.49,20.763,6.521,26.867,1.6,4.566-3.68,3.724-12.867.6-18.687" fill="#e27769" stroke="#000" stroke-width="2"/>
        <path id="Path_875" data-name="Path 875" d="M193.813,274.522A1.321,1.321,0,1,1,192,273.465a1.511,1.511,0,0,1,1.813,1.057"/>
        <path id="Path_876" data-name="Path 876" d="M204.315,268.736a1.321,1.321,0,1,1-1.813-1.057,1.512,1.512,0,0,1,1.813,1.057"/>
        <path id="Path_877" data-name="Path 877" d="M198.69,272.437a15.884,15.884,0,0,0,4.012,2.408c.879.406,3.81,1.187,3.156,2.613a10.671,10.671,0,0,1-2.134,2.363" fill="none" stroke="#000" stroke-width="2"/>
        <path id="Path_878" data-name="Path 878" d="M177.231,299.439s1.339-3.426,1.665-4.651c.548-2.068-1.192-2.175-1.793-4a6.042,6.042,0,0,1,.155-3.052c.453-2.017,1.491-4.282.56-6.318-.589-1.289-1.854-2.106-2.868-3.1s-1.839-2.5-1.232-3.783c.718-1.516,2.839-1.63,4.14-2.689s1.6-2.924,1.515-4.6a22.123,22.123,0,0,1-.182-5.01,1.547,1.547,0,0,1,.345-.823c.636-.657,1.694-.021,2.491.428a5.4,5.4,0,0,0,4.666.1,2.956,2.956,0,0,0,1.731-1.644,8.687,8.687,0,0,0,.251-1.5,1.8,1.8,0,0,1,.712-1.289,1.87,1.87,0,0,1,1.069-.2,5.878,5.878,0,0,1,3.226,1.149,3.1,3.1,0,0,0,2.2.963,8.45,8.45,0,0,1,2.792-.074,5.237,5.237,0,0,1,2.564,2.347l5.532,8.052a15.131,15.131,0,0,0,2.312-4.245,5.12,5.12,0,0,0-.672-4.62c-.983-1.211-2.661-1.754-3.5-3.071-.923-1.456-.78-3.56-.879-5.209a10.329,10.329,0,0,0-1.692-5.138A5.172,5.172,0,0,0,197.9,245a29.289,29.289,0,0,1-3.027.539,5.093,5.093,0,0,1-1.829-.488c-2.7-1.159-5.042-3.04-7.733-4.221s-6.067-1.54-8.389.262c-1.19.924-1.981,2.324-3.277,3.093-3.736,2.218-9.1-1.96-12.66.53-2.3,1.606-2.369,5.083-4.3,7.112-2.473,2.6-6.974,1.912-9.781,4.141-2.832,2.249-2.843,6.733-1.144,9.926.839,1.578,2.063,3.2,1.7,4.953a7.373,7.373,0,0,1-1.714,2.828,8.934,8.934,0,0,0-1.967,4.291,4.9,4.9,0,0,0,1.508,4.329c.757.638,1.91.94,2.483,1.765a9.05,9.05,0,0,1,.953,3.693,15.311,15.311,0,0,0,.415,2.872c.8,2.525,3.582,4.029,6.228,4.03,1.221,0,2.562-.229,3.566.464a6.914,6.914,0,0,1,1.675,2.49,6.757,6.757,0,0,0,8.567,2.57c1.1-.555,2.124-1.445,3.359-1.464s3.537.93,4.7.728" fill="#2c221d" stroke="#000" stroke-width="2"/>
        <path id="Path_879" data-name="Path 879" d="M194.479,296.284c3.306.824,9.57,1,14.318-2" fill="none" stroke="#000" stroke-width="1"/>
        <path id="Path_880" data-name="Path 880" d="M185.538,274.265c-.01-3.316,2.18-6.5,5.756-5.869" fill="none" stroke="#000" stroke-width="2"/>
        <path id="Path_881" data-name="Path 881" d="M197.864,266a2.831,2.831,0,0,1,1.667-2.593,3.041,3.041,0,0,1,3.145.149" fill="none" stroke="#000" stroke-width="2"/>
        <path id="Path_882" data-name="Path 882" d="M183.029,283.848c-1.891-2.314-6.51-1.671-8.011.715-3.607,5.738,5.131,13.4,10.471,10.608,1.511-.79,3-2.794,2.294-4.655" fill="#e27769" stroke="#000" stroke-width="2"/>
        <line id="Line_30" data-name="Line 30" x2="7.378" y2="0.527" transform="translate(177.796 288.858)" fill="none" stroke="#000" stroke-width="2"/>
        <path id="Path_883" data-name="Path 883" d="M178.541,282.685a7.747,7.747,0,0,1,4.564.861" fill="none" stroke="#000" stroke-width="2"/>
        <path id="Path_884" data-name="Path 884" d="M177.958,294.229c2.154,1.416,5.07,2.415,7.432,1.122a4.244,4.244,0,0,0,2.217-4.807" fill="none" stroke="#000" stroke-width="1"/>
        <path id="Path_885" data-name="Path 885" d="M199.841,280.366c-.476,1.776.112,4.11,2.15,4.477a3.345,3.345,0,0,0,3.676-2.144" fill="none" stroke="#000" stroke-width="2"/>
        <path id="Path_886" data-name="Path 886" d="M607.748,179.227h-222.9a6.272,6.272,0,0,1-6.272-6.271V62.771H614.019V172.956a6.271,6.271,0,0,1-6.271,6.271" fill="#d5d8bc"/>
        <path id="Path_887" data-name="Path 887" d="M607.748,46.047a6.271,6.271,0,0,1,6.271,6.271V172.955a6.271,6.271,0,0,1-6.271,6.271h-222.9a6.272,6.272,0,0,1-6.272-6.271V52.318a6.272,6.272,0,0,1,6.272-6.271Zm0-1.5h-222.9a7.781,7.781,0,0,0-7.772,7.771V172.955a7.781,7.781,0,0,0,7.772,7.771h222.9a7.78,7.78,0,0,0,7.771-7.771V52.318a7.78,7.78,0,0,0-7.771-7.771" fill="#fff"/>
        <path id="Path_888" data-name="Path 888" d="M389.716,51.31a3.589,3.589,0,1,1-3.589,3.589,3.589,3.589,0,0,1,3.589-3.589m0-1.5A5.089,5.089,0,1,0,394.8,54.9a5.095,5.095,0,0,0-5.089-5.089" fill="#fff"/>
        <path id="Path_889" data-name="Path 889" d="M403.627,51.31a3.589,3.589,0,1,1-3.589,3.589,3.589,3.589,0,0,1,3.589-3.589m0-1.5a5.089,5.089,0,1,0,5.089,5.089,5.095,5.095,0,0,0-5.089-5.089" fill="#fff"/>
        <line id="Line_31" data-name="Line 31" x2="235.442" transform="translate(378.578 62.77)" fill="none" stroke="#fff" stroke-width="1.5"/>
        <path id="Path_890" data-name="Path 890" d="M581.871,158.406c-4.408-7.364-9.083-15.005-16.322-19.5s-17.841-4.663-23.246,1.98c-4.791,5.888-3.9,14.473-2.753,22.022a95.566,95.566,0,0,0-18.506-17.98c-5.349-3.941-11.248-7.367-17.743-8.6-6.744-1.283-14.438.131-19.971,4.3-7.552,5.692-7.436,14.653-6.695,23.3-9.166-17.374-19.353-34.61-33.464-48.5-3.652-3.594-7.944-6.706-12.879-8.082-2.832-.79-6.026-.943-8.565.538-3.858,2.252-4.878,7.332-4.988,11.8a58.248,58.248,0,0,0,1.839,16.012,17.292,17.292,0,0,0-9.262-5.285,14.221,14.221,0,0,0-16.7,13c-.484,8.723,4.824,17.05,8.878,24.377,1.545,2.792,3.132,5.574,4.882,8.244.341.521,1.642,3.111,2.432,3.111h184.74c-3.894-6.505-7.788-14.234-11.682-20.739" fill="#b5ae6b"/>
      </g>
    </g>
    <g id="Group_117" data-name="Group 117">
      <g id="Group_116" data-name="Group 116" clip-path="url(#clip-path)">
        <path id="Path_891" data-name="Path 891" d="M598.037,170.969,536.249,52.548,518.69,51.516,504.9,62.77,469.43,88.561l39.876,116.863Z" fill="#fff"/>
        <path id="Path_892" data-name="Path 892" d="M481.95,86.856a15.007,15.007,0,0,0,12.633,3.078" fill="none" stroke="#000" stroke-width="2"/>
        <path id="Path_893" data-name="Path 893" d="M498.9,88.561a21.533,21.533,0,0,0,14.663-20.907" fill="none" stroke="#000" stroke-width="2"/>
        <path id="Path_894" data-name="Path 894" d="M581.177,126.941c-10.69-20.388-42.771-84.64-51.235-81.476-9.713,3.631-20.636,12.99-20.636,12.99s5.232,16.749,5.631,18.337q2.183,8.685,4.492,17.338c3.834,14.361,7.25,28.934,11.985,43.032,4.809,14.319,10.137,28.471,15.882,42.44,2.3,5.6,4.152,12.163,8.535,16.546,2.485,2.531,5.962,4.3,9.5,3.985a18.713,18.713,0,0,0,6.852-2.51c9.547-5,36.157-16.924,36.157-16.924s-13.676-28.043-27.159-53.758" fill="#ee5064" stroke="#000" stroke-width="2"/>
        <path id="Path_895" data-name="Path 895" d="M526.668,205.3c-2.6-9.464-7.046-18.173-10.34-27.372-4.308-12.035-8.138-24.237-12.583-36.224-6.782-18.285-16.4-43.57-23.762-61.629,0,0-13.5,7.743-16.218,9.621s-2.131,6.345-2.131,6.345C472.377,136.108,504.915,227.1,504.915,227.1c3.852-2.036,13.406-7.4,17.258-9.439,5.075-2.682,5.955-7.043,4.5-12.36" fill="#ee5064"/>
        <path id="Path_896" data-name="Path 896" d="M466.443,88.013c12.478,19.17,22.193,34.778,35.2,53.594" fill="none" stroke="#000" stroke-width="2"/>
        <path id="Path_897" data-name="Path 897" d="M526.245,50.3q3.883,38.144,4.732,76.514" fill="none" stroke="#000" stroke-width="1"/>
      </g>
    </g>
    <g id="Group_119" data-name="Group 119">
      <g id="Group_121" data-name="Group 121">
        <path id="Path_898" data-name="Path 898" d="M396.719,186.047q-3.9,2.978-8.023,5.657c-2.648,1.722-5.481,3.184-8.079,4.964-.641.439-1.24.936-1.838,1.431a38.545,38.545,0,0,0-6.108,5.871,3.664,3.664,0,0,1-.768.822,1.1,1.1,0,0,1-1.068.152A1.387,1.387,0,0,1,370.2,204a7.371,7.371,0,0,1,.647-4.742c.413-.962.914-1.882,1.349-2.833a6.471,6.471,0,0,0,.847-2.5c-7,1.72-13.126,5.861-19.721,8.776-1.35.6-4.1.468-4.387-.688-.379-1.529,9.378-6.644,14.053-10.3a63.608,63.608,0,0,0-9.759,3.792,21.566,21.566,0,0,1-6.724,2.355c-1.327.2-4.324.347-3.372-1.871a3.923,3.923,0,0,1,1.46-1.521c4.509-3.19,9.654-5.137,14.328-8.079-4.917,1.1-9.679,3.714-14.682,3.109a2.141,2.141,0,0,1-1.343-.526,1.26,1.26,0,0,1-.129-1.78,4.669,4.669,0,0,1,1.885-1.168c5.058-2.1,10.356-4.474,15.414-6.579a62.062,62.062,0,0,0-7.606,1.753,15.264,15.264,0,0,1-7.72.249c-.806-.231-1.744-.919-1.431-1.7a1.66,1.66,0,0,1,.913-.757l18.632-8.88c1.743-.831,3.485-1.661,5.258-2.425,3.85-1.659,7.571-3.554,11.43-5.208q6.08-2.6,12.223-5.05" fill="#d16159" stroke="#000" stroke-width="2"/>
        <path id="Path_903" data-name="Path 903" d="M463.765,89.7a70.389,70.389,0,0,0-12.131,9.711c-4.706,5.118-32.37,38.648-32.37,38.648s-28.338,17.091-44.58,26.528l17.759,28.931s32.924-11.837,49.714-23.632c15.263-10.722,44.484-45.853,44.484-45.853" fill="#ee5064" stroke="#000" stroke-width="2"/>
        <line id="Line_32" data-name="Line 32" x1="8.9" y1="27.679" transform="translate(466.443 110.383)" fill="none" stroke="#000" stroke-width="2"/>
        <line id="Line_33" data-name="Line 33" x2="19.703" y2="30.609" transform="translate(389.63 155.789)" fill="none" stroke="#000" stroke-width="2"/>
        <line id="Line_34" data-name="Line 34" y1="7.568" x2="16.345" transform="translate(387.211 177.424)" fill="none" stroke="#000" stroke-width="2"/>
        <path id="Path_904" data-name="Path 904" d="M398.156,177.044a1.366,1.366,0,1,1-1.507-1.208A1.367,1.367,0,0,1,398.156,177.044Z" fill="none" stroke="#000" stroke-width="1"/>
        <path id="Path_905" data-name="Path 905" d="M391.529,179.146a1.366,1.366,0,1,1-1.507-1.208A1.367,1.367,0,0,1,391.529,179.146Z" fill="none" stroke="#000" stroke-width="1"/>
        <path id="Path_906" data-name="Path 906" d="M419.073,138.473l-.069-.551a39.442,39.442,0,0,0,10.646-5.03" fill="none" stroke="#000" stroke-width="2"/>
        <path id="Path_907" data-name="Path 907" d="M432.4,105.855A68.272,68.272,0,0,1,451.633,89.9" fill="none" stroke="#000" stroke-width="2"/>
        <path id="Path_908" data-name="Path 908" d="M436.716,91.138a75.954,75.954,0,0,1,16.453-9.31" fill="none" stroke="#000" stroke-width="2"/>
        <path id="Path_909" data-name="Path 909" d="M490.916,38.484,494.873,50.2l14.118,13.658s.369,8.126-7.619,16.645c-7.926,8.454-16.514,2.78-16.514,2.78l-10.25-15.071" fill="#d16159" stroke="#000" stroke-width="2"/>
        <path id="Path_910" data-name="Path 910" d="M457.864,69.028c-1.624-5.2-3.672-16.427-3.515-20.7a16.049,16.049,0,0,1,3.6-9.958c3.069-3.6,10.285-2.312,14.893-2.75,7.566-.719,12.293,8.246,14.425,14.673,1.639,4.938,2.418,10.02.745,15.056-2.72,8.188-11.454,16.464-20.694,14.225-5.02-1.217-7.88-5.5-9.453-10.544" fill="#d16159" stroke="#000" stroke-width="2"/>
        <path id="Path_911" data-name="Path 911" d="M498.061,37.017c-1.214-1.3-2.883-2.313-3.423-4-.3-.938-.764-3.745-1.067-4.681-1.689-5.223-6.068-6.97-11.044-6.112-.531-4.994-5.828-5.476-10.177-5.526a11.329,11.329,0,0,1-5.279-1.065c-1.716-.917-3.272-2.216-5.276-2.406a8.119,8.119,0,0,0-5.114,1.4c-5.158,3.391-6.631,9.952-12.949,11.933-2,.626-4.082.811-5.8,2.121a6.07,6.07,0,0,0-2.424,4.044c-.258,2.292,1.256,3.686,2.819,5.08a7.487,7.487,0,0,1,2.74,6.172,44.8,44.8,0,0,1-.73,4.438,10.655,10.655,0,0,0,4.2,10.755c.744.539,1.753,1.043,4.479,1.634,1.922.417,6.908-.3,6.908-.3a89.667,89.667,0,0,1-1.208-9.965,12.291,12.291,0,0,1,2.386-7.253c1.325-1.812,4.225-2.449,6.385-2.352,3.234.145,6.325,1.928,9.541,1.551a7.259,7.259,0,0,0,3.655-1.559c4.326,2.8,8.8,6.919,9.8,11.939.05.255.686,3.228.462,3.276,3.709-.78,8.382-1.08,10.049-5.131.575-1.4.285-2.865.72-4.281.36-1.173,1.409-2.029,1.9-3.155.944-2.177.084-4.813-1.538-6.545" fill="#2c221d" stroke="#000" stroke-width="2"/>
        <path id="Path_912" data-name="Path 912" d="M482.641,52.242c.192-3.227,4.648-5.589,7.475-4.448,6.8,2.744,3.993,15-2.458,15.932-1.825.265-4.4-.55-4.96-2.627" fill="#d16159" stroke="#000" stroke-width="2"/>
        <line id="Line_35" data-name="Line 35" x1="6.133" y2="5.135" transform="translate(484.269 53.319)" fill="none" stroke="#000" stroke-width="2"/>
        <path id="Path_913" data-name="Path 913" d="M485.839,48.38a8.385,8.385,0,0,0-3.456,3.646" fill="none" stroke="#000" stroke-width="1"/>
        <path id="Path_915" data-name="Path 915" d="M480.365,76.68a16.881,16.881,0,0,0,5.473-6.715" fill="none" stroke="#000" stroke-width="1"/>
        <path id="Path_916" data-name="Path 916" d="M463.372,56.613q.459,4.317.951,8.631a1.885,1.885,0,0,0,.378,1.114c1.085,1.147,3.573.6,4.729-.091" fill="none" stroke="#000" stroke-width="2"/>
        <path id="Path_917" data-name="Path 917" d="M472.142,67.447l-4.975,2.906s1.925,3.69,3.851,2.97c3.59-1.342,1.124-5.876,1.124-5.876" fill="#fff"/>
        <path id="Path_918" data-name="Path 918" d="M465.906,50.392a4.4,4.4,0,0,1,2.666-2.108,6.668,6.668,0,0,1,5.654.784" fill="none" stroke="#000" stroke-width="2"/>
        <path id="Path_919" data-name="Path 919" d="M454.282,54.568a3.625,3.625,0,0,1,1.545-2.426,3.817,3.817,0,0,1,4.223.022" fill="none" stroke="#000" stroke-width="2"/>
        <path id="Path_920" data-name="Path 920" d="M472.488,54.683a1.6,1.6,0,1,1-1.969-1.587,1.817,1.817,0,0,1,1.969,1.587"/>
        <path id="Path_921" data-name="Path 921" d="M461.016,58.1a1.6,1.6,0,1,1-1.969-1.587,1.817,1.817,0,0,1,1.969,1.587"/>
        <path id="Path_922" data-name="Path 922" d="M457.993,42.315c-2.14,1.151-3.07,3.664-4.517,5.616a11.651,11.651,0,0,1-10.3,4.566" fill="none" stroke="#635149" stroke-width="1"/>
        <path id="Path_923" data-name="Path 923" d="M477.041,40.628a13.5,13.5,0,0,0,3.943-6.726" fill="none" stroke="#635149" stroke-width="1"/>
        <path id="Path_924" data-name="Path 924" d="M658.67,305.315H491.077a6.272,6.272,0,0,1-6.272-6.271V179.977H664.941V299.044a6.271,6.271,0,0,1-6.271,6.271" fill="#f9d4bb"/>
        <circle id="Ellipse_27" data-name="Ellipse 27" cx="3.589" cy="3.589" r="3.589" transform="translate(492.354 168.517)" fill="none" stroke="#fff" stroke-width="1.5"/>
        <circle id="Ellipse_28" data-name="Ellipse 28" cx="3.589" cy="3.589" r="3.589" transform="translate(506.266 168.517)" fill="none" stroke="#fff" stroke-width="1.5"/>
        <line id="Line_36" data-name="Line 36" x2="180.136" transform="translate(484.805 179.977)" fill="none" stroke="#fff" stroke-width="1.5"/>
        <path id="Path_926" data-name="Path 926" d="M618.51,257.056c-4.125-.722-5.291,10.369-3.314,14.06-5.432-7.768-12.308-19.665-17.74-27.433-6.094-8.714-13.373-19.565-24.362-22.4-9.9-2.555-15.06,6.065-15.216,14.866a124.7,124.7,0,0,0,2.26,25.2c1.7,9.021,3.911,19.3,8.821,27.171-5.219-8.37-13.574-11.2-22.909-10.423-4.347.362-8.868,1.825-11.612,5.216-4.391,5.424-2.745,15.281-.873,22h12.247c21.712,0,107.724.037,107.724.037s-21.64-45.952-35.026-48.3" fill="#ef9748"/>
        <path id="Path_927" data-name="Path 927" d="M493.759,241.432c-17.9.266-35.638-3.519-52.759-8.738s-48.314-16.675-48.314-16.675l-8.9,26.892s46.111,29.211,107.473,34.2" transform="translate(1)" fill="#e27769" stroke="#000" stroke-width="2"/>
        <path id="Path_928" data-name="Path 928" d="M532.09,248.735c-11.927-10.12-37.769-9.4-45.178-9.108s-20.614-1.9-20.614-1.9l-4.861,40.513s27.437,4.6,42.7,5.72" transform="translate(1)" fill="#482350" stroke="#000" stroke-width="2"/>
        <path id="Path_929" data-name="Path 929" d="M498.477,258.454c1.873,5.282,1.018,13.053,1.039,18.657.02,5,1.776,7.776,2.515,12.72.883,5.909,4.235,10.13,7.771,15.484H585.79l-4-42.131-10.344-14.949L549.6,242.412l-49.308,12.967" fill="#482350" stroke="#000" stroke-width="2"/>
        <path id="Path_930" data-name="Path 930" d="M522.336,248.235a19.885,19.885,0,0,0-.851,8.448c.54,3.248,2.6,5.292,5.538,6.5" fill="none" stroke="#6d574e" stroke-width="1"/>
        <path id="Path_931" data-name="Path 931" d="M530.76,264.078c13.467,2.413,27.638-7.213,28.991-19.467" fill="none" stroke="#6d574e" stroke-width="1"/>
        <path id="Path_932" data-name="Path 932" d="M632.073,300.458a28.963,28.963,0,0,0-5.262-8.528,143.774,143.774,0,0,0-19.391-19.715l-25.429,23.147,15.736,15.254-18.378,33.311,24.377,6.957s18.656-20.6,25.795-32.089c3.5-5.635,4.732-12.01,2.552-18.337" fill="#e27769" stroke="#000" stroke-width="2"/>
        <path id="Path_933" data-name="Path 933" d="M584.213,336.463s-10.661,15.343-11.738,18.112a39.282,39.282,0,0,0-1.876,8.252c-1.048,7.307,2.869,14.818,5.822,18.368a2.282,2.282,0,0,0,1.321.75c1.095.2,1.534-.365,1.51-1.657l1.792,2.437a2.639,2.639,0,0,0,.86.858,1.769,1.769,0,0,0,2.049-.737,7.123,7.123,0,0,0,1.041-2.365c.632.916,1.616,1.878,2.564,1.316a4.464,4.464,0,0,0,1.555-3.754c.311,1.024,1.669,1.053,2.411.307a5.84,5.84,0,0,0,1.234-3,27.382,27.382,0,0,1,2.434-8,45.744,45.744,0,0,1,3.188-4.4c3.473-4.78,5.19-10.873,6.311-16.874" fill="#e27769" stroke="#000" stroke-width="2"/>
        <path id="Path_934" data-name="Path 934" d="M591.206,360.114q-.72,1.594-1.441,3.188c-.39.864-.781,1.729-1.1,2.624a16.539,16.539,0,0,0,.628,12.354" fill="none" stroke="#000" stroke-width="2"/>
        <path id="Path_935" data-name="Path 935" d="M583.184,359.717c-.978,4.83-1.376,10.638-.68,14.27a19.665,19.665,0,0,0,2.737,6.607" fill="none" stroke="#000" stroke-width="2"/>
        <path id="Path_936" data-name="Path 936" d="M576.156,357.9s-.625,3.563-.773,5.577c-.47,6.4.378,12.585,3.866,17.331" fill="none" stroke="#000" stroke-width="2"/>
        <path id="Path_937" data-name="Path 937" d="M390.508,243.365l-5.755-.558a18.181,18.181,0,0,1-8.261-2.223c-4.26-2.074-6.441-2.7-10.515-5.1a65.64,65.64,0,0,0-7.232-3.758c-2.446-1.057-4.983-1.626-7.241-3.055a1.153,1.153,0,0,1-.488-.477.972.972,0,0,1-.038-.527c.523-3.685,8.031-2.841,10.952-2.025a5.834,5.834,0,0,0,2.69.359,6.34,6.34,0,0,0-1.029-3.319c-1.682-3.016-4.142-5.419-6.363-8.041-2.054-2.426-4.134-4.85-6.027-7.406-1.774-2.393-3.6-7.6-2.206-8.241s.647.634,1.1.692c-.9-.553-.556-2.764.089-3.634s2.435.447,3.054,1.291c-.647-.808-.427-2.641.235-2.97.959-.477,2.1.166,2.991.706a8.582,8.582,0,0,0,2.791,1.385,6.8,6.8,0,0,1-.465-2.07c.507-.618,1.489-.3,2.172.074,13.912,7.578,25.783,19.058,40.575,25.813" fill="#e27769"/>
        <path id="Path_938" data-name="Path 938" d="M361.689,219.866a24.33,24.33,0,0,1,3.432,8.24" fill="none" stroke="#000" stroke-width="1"/>
        <path id="Path_939" data-name="Path 939" d="M350.138,198.912c1.846,2.3,4.314,3.888,6.466,5.857,3.427,3.133,6.686,6.441,10,9.693" transform="translate(1)" fill="none" stroke="#000" stroke-width="2"/>
        <path id="Path_940" data-name="Path 940" d="M353.225,197.125a32.615,32.615,0,0,0,3.362,2.778c1.266.91,2.6,1.729,3.9,2.579a94.568,94.568,0,0,1,10.657,8.055" transform="translate(1)" fill="none" stroke="#000" stroke-width="2"/>
        <path id="Path_941" data-name="Path 941" d="M359.741,196.759a17.873,17.873,0,0,0,4.1,2.612,63.99,63.99,0,0,1,12.506,8.707" transform="translate(1)" fill="none" stroke="#000" stroke-width="2"/>
        <path id="Path_942" data-name="Path 942" d="M391.068,244.239s-7.862-1.066-11.072-1.913" transform="translate(1)" fill="none" stroke="#000" stroke-width="2"/>
        <path id="Path_943" data-name="Path 943" d="M565.051,246.565c5.414.523,10.829,1.029,15.982,2.974,6.511,2.459,12.17,7.078,17.5,11.8,5.567,4.934,11.247,11.65,16.665,16.8l-27.771,24.3-19.664-19.162" fill="#482350" stroke="#000" stroke-width="2"/>
        <path id="Path_944" data-name="Path 944" d="M597.728,310.616A47.562,47.562,0,0,1,606,302.44" fill="none" stroke="#000" stroke-width="2"/>
        <line id="Line_37" data-name="Line 37" y1="23.448" x2="28.959" transform="translate(579.344 271.117)" fill="none" stroke="#6d574e" stroke-width="2"/>
        <line id="Line_38" data-name="Line 38" y1="40.87" x2="4.205" transform="translate(472.056 239.062)" fill="none" stroke="#6d574e" stroke-width="2"/>
        <path id="Path_950" data-name="Path 950" d="M575.215,191.766a11.4,11.4,0,0,0-2.76-4.11c-4.307-3.965-13.7-3.707-16.906,1.68-1.764,2.961-.906,6.769.432,9.946l2.638,5.787a13.33,13.33,0,0,0,12.081.223,9.408,9.408,0,0,0,5.5-7.983,13.474,13.474,0,0,0-.984-5.543" fill="#893d33" stroke="#000" stroke-width="2"/>
        <path id="Path_947" data-name="Path 947" d="M535.886,217.57l12.941,5.245-.76,8.628,6.524,12.609s-3.184,11.891-17.47,14.853c-12.062,2.5-11.789-5.285-11.789-5.285l-5.745-16.581" fill="#e27769" stroke="#000" stroke-width="2"/>
        <path id="Path_948" data-name="Path 948" d="M508.548,224.213c1.911-6.469,2.945-10.44,5.389-15.135,2.07-3.976,5.684-9.735,9.834-11.6,5.343-2.4,11.454.544,16.838,2.5,8.841,3.211,10.876,13.666,9.848,21.984-.789,6.389-4.516,9.541-9.059,14.283-5.936,6.2-20.545,11.483-28.094,7.62-5.646-2.89-6.78-12.8-4.756-19.654" fill="#e27769" stroke="#000" stroke-width="2"/>
        <path id="Path_949" data-name="Path 949" d="M600.99,263.312c3.479-1.143,5.189-5.236,4.995-8.144-.312-4.683-2.5-7.1-2.859-9.991-.234-1.884.326-3.791.166-5.683a9.4,9.4,0,0,0-5.328-7.251,17.038,17.038,0,0,0-9.176-1.384c-2.393.214-4.8.724-7.177.386a15.526,15.526,0,0,1-5.579-2.163A23.683,23.683,0,0,1,568.2,222c-3.352-5.02-4.067-11.334-6.653-16.789a26.11,26.11,0,0,0-5.277-7.38c-5.26-5.182-10.268-7.1-17.726-7.349-5.108-.169-12.216.512-16.125,5.276,0,0-7.555.194-11.159,4-4.278,4.517-3.972,11.056-.234,16.266,1.931-3.169,3.575-6.521,6.4-8.957a1.425,1.425,0,0,0,.249,1.677,2.526,2.526,0,0,0,1.645.692,8.418,8.418,0,0,0,4.565-1.456,9.7,9.7,0,0,0-.593,4.031,1.339,1.339,0,0,0,.249.812,1.3,1.3,0,0,0,.9.343,6.569,6.569,0,0,0,5.8-2.712c-.61,1.656-1.142,3.735.086,5a3.228,3.228,0,0,0,3.488.493,9.477,9.477,0,0,0,2.958-2.249c-.427.424.133,2.81.237,3.361a23.709,23.709,0,0,0,1.009,3.535,50.637,50.637,0,0,0,4.838,10.2c2.086,3.29,5.067,5.785,7.2,8.991,1.351,2.032,2.494,4.257,4.309,5.887a18.29,18.29,0,0,0,8.243,4.107c2.955.6,6.01.329,9,.231,11.05-.36,19.426,5.172,29.376,13.305" fill="#893d33" stroke="#000" stroke-width="2"/>
        <path id="Path_951" data-name="Path 951" d="M536.886,225.344c.9-2.673,5.185-3.647,7.3-2.044,5.1,3.857-.051,13.535-5.7,12.854-1.6-.193-3.577-1.465-3.577-3.341" fill="#e27769" stroke="#000" stroke-width="2"/>
        <line id="Line_39" data-name="Line 39" x1="6.332" y2="2.928" transform="translate(536.843 228.016)" fill="none" stroke="#000" stroke-width="2"/>
        <path id="Path_952" data-name="Path 952" d="M540.457,222.819a7.306,7.306,0,0,0-3.739,2.283" fill="none" stroke="#000" stroke-width="2"/>
        <path id="Path_953" data-name="Path 953" d="M544.826,232.808c-1.427,1.968-3.665,3.823-6.181,3.471a4,4,0,0,1-3.561-3.5" fill="none" stroke="#000" stroke-width="1"/>
        <path id="Path_954" data-name="Path 954" d="M522.527,245.524a25.813,25.813,0,0,0,11.963-4.348" fill="none" stroke="#000" stroke-width="2"/>
        <path id="Path_955" data-name="Path 955" d="M516.284,220.956a13.865,13.865,0,0,1-3.428,4.452,6.205,6.205,0,0,0-1.049.851,2.134,2.134,0,0,0,.666,3.3" fill="none" stroke="#000" stroke-width="2"/>
        <path id="Path_956" data-name="Path 956" d="M513.614,233.383a3.229,3.229,0,0,0,3.5.5c1.421-.762,1.449-2.577,1.5-3.991" fill="none" stroke="#000" stroke-width="2"/>
        <path id="Path_957" data-name="Path 957" d="M523.216,217.443a7.292,7.292,0,0,1,3.16-.021,4.807,4.807,0,0,1,2.671,1.625,8.194,8.194,0,0,1,1.333,3.772" fill="none" stroke="#000" stroke-width="2"/>
        <path id="Path_958" data-name="Path 958" d="M511.648,213.495a3.471,3.471,0,0,1,3.468-.225,4.445,4.445,0,0,1,2.237,2.75" fill="none" stroke="#000" stroke-width="2"/>
        <path id="Path_959" data-name="Path 959" d="M524.961,223.421c-.407.848-1.231,1.3-1.843,1a1.525,1.525,0,0,1-.37-2.066c.406-.848,1.231-1.3,1.842-1.005a1.526,1.526,0,0,1,.371,2.066"/>
        <path id="Path_960" data-name="Path 960" d="M513.729,219.725c-.406.848-1.231,1.3-1.843,1a1.525,1.525,0,0,1-.37-2.066c.406-.848,1.231-1.3,1.842-1.005a1.525,1.525,0,0,1,.371,2.066"/>
        <path id="Path_961" data-name="Path 961" d="M630.237,335.7a47.174,47.174,0,0,0,12.315-22.6" fill="none" stroke="#000" stroke-width="2"/>
        <path id="Path_962" data-name="Path 962" d="M644.193,332.25a33.816,33.816,0,0,0,3.453-11.659" fill="none" stroke="#000" stroke-width="2"/>
        <path id="Path_963" data-name="Path 963" d="M524.91,138.015s-10.409,4.774-17.4,7.942c-3.953,1.792-10.577,6.694-12.84,10.424-2.878,4.745-3.631,10.614-3.3,15.458a23.905,23.905,0,0,0,3.832,10.332c1.415,2.3,2.924,4.709,4.242,4.4s.843-3.54.843-3.544a18.452,18.452,0,0,0,1.919,3.5,1.558,1.558,0,0,0,1.547.35,2.964,2.964,0,0,0,1.457-1.428,5.16,5.16,0,0,0,.354-1.836c.052-.589,0-2.01-.027-2.609.291.646.57,2.661,1.122,2.554a3.838,3.838,0,0,0,1.948-1.172,12.8,12.8,0,0,0,1.962-4.075,2.813,2.813,0,0,0,.142,1.026.959.959,0,0,0,.761.632,7.056,7.056,0,0,0,2.477-1.621c1.122-1.523,1.54-3.56,2.351-5.269a17.93,17.93,0,0,1,2.315-3.676,12.67,12.67,0,0,1,3.546-3.211c2.644-1.387,4.266-1.765,6.97-3.043a16.337,16.337,0,0,0,6.087-4.421" fill="#d16159" stroke="#000" stroke-width="2"/>
        <path id="Path_964" data-name="Path 964" d="M510.337,178.909q.3-3.415.834-6.8a18.358,18.358,0,0,1,1.113-4.421,20.249,20.249,0,0,1,4.524-5.911" fill="none" stroke="#000" stroke-width="2"/>
        <path id="Path_965" data-name="Path 965" d="M505.782,181.5a45.967,45.967,0,0,1-.69-11.636,11.245,11.245,0,0,1,2.925-8.1" fill="none" stroke="#000" stroke-width="2"/>
        <path id="Path_966" data-name="Path 966" d="M500.4,183.78a52.52,52.52,0,0,1-2.781-11.547,19.022,19.022,0,0,1-.069-2.277,17.854,17.854,0,0,1,2.421-8.077" fill="none" stroke="#000" stroke-width="2"/>
        <path id="Path_967" data-name="Path 967" d="M533.766,81.581l18.316,34.554-40.876,27.992,26.9,21.188s45.867-14.932,58.36-22.338c9.809-5.815,14.019-20.918-4.878-45.553s-31.942-39.242-35.817-43.351c-8.339-8.841-18.261-12.512-27.508-7.857" fill="#ee5064" stroke="#000" stroke-width="2"/>
        <path id="Path_968" data-name="Path 968" d="M533.766,81.581l18.316,34.554-40.876,27.992" fill="none" stroke="#000" stroke-width="2"/>
        <path id="Path_969" data-name="Path 969" d="M534.822,155.789a1.366,1.366,0,1,1-1.366-1.366A1.367,1.367,0,0,1,534.822,155.789Z" fill="none" stroke="#000" stroke-width="1"/>
        <path id="Path_970" data-name="Path 970" d="M543.256,151.534a1.366,1.366,0,1,1-1.366-1.366A1.367,1.367,0,0,1,543.256,151.534Z" fill="none" stroke="#000" stroke-width="1"/>
        <path id="Path_971" data-name="Path 971" d="M525.636,155.492c.15.118,17.621-8.688,17.621-8.688" fill="none" stroke="#000" stroke-width="2"/>
        <path id="Path_972" data-name="Path 972" d="M526.591,133.591c.173-.119,31.409,24.963,31.409,24.963" fill="none" stroke="#000" stroke-width="2"/>
        <path id="Path_973" data-name="Path 973" d="M551.084,116.48c3.835-1.5,7.69-3.112,11.788-3.728a66.093,66.093,0,0,1,13.238-.205" fill="none" stroke="#000" stroke-width="2"/>
        <line id="Line_40" data-name="Line 40" y1="19.242" x2="52.942" transform="translate(538.107 146.072)" fill="none" stroke="#000" stroke-width="2"/>
        <path id="Path_974" data-name="Path 974" d="M547.366,37.588c-10.58-9.94-21.386-19.829-33.894-27.2C490.315-3.25,457.994-1.139,442.019,8.785c-12.263,7.618-18.726,17.106-26.6,28.855-9.859,14.707-20.2,30.528-36.441,37.569-7.919,3.432-16.625,4.463-25.1,6.121s-17.129,4.142-23.617,9.833-10.185,15.351-6.68,23.238c2.753,6.195,9.533,10.091,16.309,10.284s13.383-2.953,18.262-7.66C370.6,105.013,376.4,73.416,353.4,64.319" fill="none" stroke="#ed725a" stroke-width="1.5"/>
        <path id="Path_975" data-name="Path 975" d="M44.993,251.8a45.9,45.9,0,0,0,10.161,20.023c6.509,7.418,19.784,12.219,25.492,1.433,2.654-5.016,3.979-13.133-2.347-16.723a3.164,3.164,0,0,0-1.5-.49,2.748,2.748,0,0,0-2.4,2.021c-1.691,4.55,1.032,9.467,4.705,13.122a16.432,16.432,0,0,0,6.15,4.122,9.355,9.355,0,0,0,7.614-.473c3.337-2.035,4.214-6.518,3.969-9.727" fill="none" stroke="#8f96db" stroke-width="1.5"/>
        <path id="Path_976" data-name="Path 976" d="M31.007,69.1c5.887-7.423,13.814-14.128,22.722-17.564a31.172,31.172,0,0,1,16.185-1.52c2.53.5,5.469,1.3,7.015,3.575,1.631,2.4-.273,6.849,2.952,8.209a4.968,4.968,0,0,0,2.659.131c2.795-.421,5.515-1.263,8.311-1.673a13.848,13.848,0,0,1,8.292.93c2.518,1.286,4.432,4.038,4.056,6.84a10.542,10.542,0,0,0-.421,3.271c.34,1.82,2.4,2.772,4.246,2.946,3.818.358,7.448.235,10.694,2.678,2.382,1.793,3.75,5,2.532,7.574" fill="none" stroke="#fd9" stroke-width="1.5"/>
        <path id="Path_977" data-name="Path 977" d="M280.434,62.037c1.484-3.3,3.147-6.613,5.737-9.142s6.287-4.179,9.84-3.488c1.837.358,3.573,1.314,5.444,1.275,2.574-.054,4.777-2.034,5.935-4.334s1.495-4.908,1.965-7.44c.751-4.042,1.966-8.173,4.731-11.215s7.438-4.674,11.132-2.869" fill="none" stroke="#fd9" stroke-width="1.5"/>
        <circle id="Ellipse_29" data-name="Ellipse 29" cx="11.259" cy="11.259" r="11.259" transform="translate(83.847 385.663)" fill="none" stroke="#909df4" stroke-width="1.5"/>
        <circle id="Ellipse_30" data-name="Ellipse 30" cx="9.131" cy="9.131" r="9.131" transform="translate(274.786 8.251) rotate(-22.5)" fill="none" stroke="#8f96db" stroke-width="1.5"/>
        <path id="Path_978" data-name="Path 978" d="M611.629,363.484l6.053,39.868,23.788-17.524Z" fill="#fd9"/>
        <path id="Path_979" data-name="Path 979" d="M12.76,319.739l16.093-18.246-27.491.987Z" fill="none" stroke="#8f96db" stroke-width="1.5"/>
        <path id="Path_980" data-name="Path 980" d="M44.993,358.409a6.516,6.516,0,1,1-6.516-6.515,6.516,6.516,0,0,1,6.516,6.515" fill="#fd9"/>
        <path id="Path_981" data-name="Path 981" d="M52.4,86.483,36.737,120.659l47.86-6.941Z" fill="#ed725a"/>
        <path id="Path_982" data-name="Path 982" d="M21.686,171.635a3.954,3.954,0,1,1-3.954-3.954,3.954,3.954,0,0,1,3.954,3.954" fill="#909df4"/>
        <path id="Path_983" data-name="Path 983" d="M558.338,15.754a3.954,3.954,0,1,1-3.955-3.954,3.954,3.954,0,0,1,3.955,3.954" fill="#ed725a"/>
        <path id="Path_984" data-name="Path 984" d="M631.052,361.005a10.47,10.47,0,0,1,9.43.816c2.356,1.581,3.588,4.555,6.428,5.482,4.166,1.36,7.841-2.517,11.859-2.783,3.475-.23,6.277,2.125,7.635,5.158A24.58,24.58,0,0,1,668,378.015" fill="none" stroke="#8f96db" stroke-width="1.5"/>
        <path id="Path_985" data-name="Path 985" d="M600.453,89.846a9.821,9.821,0,0,1,9.124-6c1.97.05,3.968.7,5.876.21,5.936-1.538,5.442-11.874,11.306-13.664,4.065-1.24,8.485,2.7,12.463,1.2,3.423-1.285,4.262-5.6,5.347-9.087a26.9,26.9,0,0,1,21.387-18.229" fill="none" stroke="#8f96db" stroke-width="1.5"/>
        <path id="Path_987" data-name="Path 987" d="M555.21,420.941H375.349a6.271,6.271,0,0,1-6.271-6.271V314.079h192.4V414.67a6.271,6.271,0,0,1-6.271,6.271" fill="#c5b3dd"/>
        <circle id="Ellipse_31" data-name="Ellipse 31" cx="3.589" cy="3.589" r="3.589" transform="translate(376.627 302.619)" fill="none" stroke="#fff" stroke-width="1.5"/>
        <circle id="Ellipse_32" data-name="Ellipse 32" cx="3.589" cy="3.589" r="3.589" transform="translate(390.538 302.619)" fill="none" stroke="#fff" stroke-width="1.5"/>
        <line id="Line_41" data-name="Line 41" x2="192.404" transform="translate(369.078 314.079)" fill="none" stroke="#fff" stroke-width="1.5"/>
        <path id="Path_988" data-name="Path 988" d="M534.489,396.922c-9.572-10.6-20.693-15.843-26.348-14.564-8.319,1.88-6.807,23.111-6.574,31.637a45.167,45.167,0,0,0-14.531-11.12c-4.169-2.006-8.915-3.376-13.409-2.281s-8.455,5.321-7.928,9.917a112.594,112.594,0,0,0-41.6-37.05c-10.541-5.439-39.2-16.747-44.105-5.012-5.382,12.871,25.145,52.492,25.145,52.492H553.1s-9.967-14.446-18.611-24.019" fill="#a29dce"/>
        <path id="Path_989" data-name="Path 989" d="M349.605,283.7c-5.432-5.691-10.65-16.688-12.116-22.553-1.289-5.159-2.44-10.44-4.876-15.209-.657-1.286-3.479-4.254-2.456-5.8,2.064-3.11,7.07.987,8.375,2.839.467.663,2.191,3.456,3.054,3.619s1.227-3.181,1.332-4.615a112.194,112.194,0,0,0-.037-17.1c-.481-5.743.336-10.784,2.139-11.05,1.826-.269,1.732.812,2.064,1.172.291-1.819,1.948-3.976,3.018-3.369a2.456,2.456,0,0,1,.976,1.927,17.317,17.317,0,0,0,.533,2.154s1.036-3.873,2.928-1.682c.956,1.107,2.412,6.99,3.345,8.858a7.744,7.744,0,0,1-.008-3.366c.216-.783.657-1.427,1.506-1.015a1.854,1.854,0,0,1,.819,1.223c.949,2.636,3.285,6.877,4.133,9.547q1.326,4.178,2.653,8.353c1.662,5.235,3.286,10.742,4.479,16.2,1.1,5.051,5.152,17.5,5.152,17.5" fill="#a04b4b" stroke="#000" stroke-width="2"/>
        <path id="Path_990" data-name="Path 990" d="M347.033,215.324c.482,2.995,1.578,6.814,2.179,10.209.861,4.868,1.251,9.375,1.986,13.662" fill="none" stroke="#000" stroke-width="2"/>
        <path id="Path_991" data-name="Path 991" d="M351.872,215.816c.576,2.565,1.575,6.117,2.245,9.037,1.117,4.878,1.939,9.25,2.9,13.535" fill="none" stroke="#000" stroke-width="2"/>
        <path id="Path_992" data-name="Path 992" d="M357.873,222.816c1.421,4.661,3.477,10.008,5.106,15.906" fill="none" stroke="#000" stroke-width="2"/>
        <path id="Path_993" data-name="Path 993" d="M342.131,246.308c-.365,2.463-.548,5.078-2.189,7.229" fill="none" stroke="#000" stroke-width="2"/>
        <path id="Path_994" data-name="Path 994" d="M533.446,420.941c-1.924-5.141-3.982-10.543-6.875-15.256a35.671,35.671,0,0,0-11.5-11.98,57.411,57.411,0,0,0-6.841-3.392l-18.837-8.32-30.818-12.022q-2.859-2.654-5.717-5.312-5.519-5.141-10.991-10.334l-.419-.4c-27.9-26.626-48.643-56.375-66.765-91.093L342.13,277.111s14.08,47.976,27.458,68.344c17.671,26.9,38.11,51.376,47.346,59.124q2.472,8.3,5.675,16.362Z" fill="#ffb5be" stroke="#000" stroke-width="2"/>
        <line id="Line_42" data-name="Line 42" y1="16.788" x2="34.916" transform="translate(347.374 276.825)" fill="none" stroke="#000" stroke-width="2"/>
        <line id="Line_43" data-name="Line 43" x2="11.773" y2="25.547" transform="translate(349.116 274.047)" fill="none" stroke="#000" stroke-width="2"/>
        <circle id="Ellipse_33" data-name="Ellipse 33" cx="2.306" cy="2.306" r="2.306" transform="translate(355.566 277.11)" fill="none" stroke="#000" stroke-width="2"/>
        <path id="Path_995" data-name="Path 995" d="M486.01,420.258l4.816-6.273a82.636,82.636,0,0,1,5.424-6.583,35.687,35.687,0,0,1,21.66-11.215" fill="none" stroke="#000" stroke-width="2"/>
        <path id="Path_996" data-name="Path 996" d="M415.968,401.58a41.038,41.038,0,0,1,7.585-23.423c6.045-8.565,14.941-14.716,25.692-15.022" fill="none" stroke="#000" stroke-width="2"/>
        <path id="Path_997" data-name="Path 997" d="M416.792,404.253c-1.54-4.584-2.424-9.725-4.86-13.941" fill="none" stroke="#000" stroke-width="2"/>
        <path id="Path_998" data-name="Path 998" d="M448.768,366.555l-2.031,25.606s8.607,8.767,20.442,3.059,20.468-16.569,20.468-16.569l-3.87-15.873" fill="#a04b4b" stroke="#000" stroke-width="2"/>
        <path id="Path_999" data-name="Path 999" d="M495.809,334.649a20.6,20.6,0,0,0-6.455-9.63c-7.258-5.942-15.242-5.78-23.037-1.2-6.775,3.98-16.074,10.262-21.241,16.272-5.334,6.2-8.9,13.919-3.456,21.173,8.764,11.673,33.341,7.716,45.065-1.857,4.775-3.9,9.281-10.227,9.986-16.46a19.958,19.958,0,0,0-.862-8.3" fill="#a04b4b" stroke="#000" stroke-width="2"/>
        <path id="Path_1000" data-name="Path 1000" d="M464.809,327.078c-3.906,1.988-8.182,2.516-12.461,3.023-2.056.243-4.778.933-4.4,3.632.24,1.741,1.754,3.241,3.016,4.3" fill="#a04b4b"/>
        <path id="Path_1001" data-name="Path 1001" d="M447.771,353.662s.711-1.6,1.065-2.4c.683-1.542-1.536-2.582-2.592-3.114-.767-.386-1.173-.729-1.939-.225-.2.129-1.311,1.207-1.55,1.011-.013-.01-2.064-2.4-2.064-2.4a19.516,19.516,0,0,0-2.391,10.021,11.972,11.972,0,0,0,3.317,7.567,19.648,19.648,0,0,0,3.034,2.517c8.069,4.853,18.13,4.483,26.906,1.072a19.325,19.325,0,0,0,7.324-4.6c-26.868-.391-31.11-9.456-31.11-9.456" fill="#1e1611"/>
        <path id="Path_1002" data-name="Path 1002" d="M479.814,351.867c-.12-.026-.24-.049-.358-.069-1.793-.3-3.567-.033-5.335-.614a6.45,6.45,0,0,1-3.531-2.631c-.925-1.512.344-2.391,1.575-3.07a22.873,22.873,0,0,0,5.074-3.592,9.1,9.1,0,0,0,2.66-9.186c-1.145-3.632-4.721-5.765-7.5-8.068-2.673-2.218-6.091-5.672-4.963-9.518s4.86-5.266,8.543-4.721c1.977.293,3.968.846,5.943.539,1-.157,1.959-.531,2.95-.753a8.187,8.187,0,0,1,8.361,2.829c1.306,1.828,1.811,4.419,3.824,5.416a14.19,14.19,0,0,0,3.149.718,7.185,7.185,0,0,1,4.816,4.146,8.647,8.647,0,0,1,.053,6.43c-1.4,3.692-3.506,5.541-1.78,9.613,4.007,9.456,5.691,21.067-3.881,27.866-2.518,1.789-5.672,2.714-7.767,4.982-1.307,1.414-2.375,3.432-4.29,3.635a4.261,4.261,0,0,1-3.381-1.605,18.033,18.033,0,0,1-2.025-2.826,10.83,10.83,0,0,1-1.888-4.39c-.249-2.28.934-4.439,2.009-6.465,1.013-1.91,3.052-5.87.64-7.449a9.085,9.085,0,0,0-2.9-1.217" fill="#1e1611" stroke="#000" stroke-width="2"/>
        <path id="Path_1003" data-name="Path 1003" d="M473.9,331.208c-.6-1.831-1.7-3.65-3.4-2.823a1.476,1.476,0,0,0-.739,1.139,4.353,4.353,0,0,0,.1,1.4,17.524,17.524,0,0,0,2,6.266,2.473,2.473,0,0,0,.916.949c2.661,1.336,1.464-5.889,1.12-6.935" fill="#1e1611"/>
        <path id="Path_1004" data-name="Path 1004" d="M457.1,343.59l-7.526-1.706s-.738,6.455,2.461,7.094,5.065-5.388,5.065-5.388" fill="#fff"/>
        <path id="Path_1005" data-name="Path 1005" d="M449.117,336.016a5.708,5.708,0,0,0,2.427,1.82" fill="none" stroke="#000" stroke-width="2"/>
        <path id="Path_1006" data-name="Path 1006" d="M457.431,329.394a23.025,23.025,0,0,0,8.052-2.769" fill="none" stroke="#000" stroke-width="2"/>
        <path id="Path_1007" data-name="Path 1007" d="M478.061,352.129c2.775-2.09,7.814-.087,8.848,3.022,2.488,7.476-9.5,13.715-14.756,9.084-1.488-1.31-2.613-3.984-1.3-5.89" fill="#a04b4b" stroke="#000" stroke-width="2"/>
        <line id="Line_44" data-name="Line 44" x1="8.477" y1="1.445" transform="translate(474.108 357.788)" fill="none" stroke="#000" stroke-width="2"/>
        <path id="Path_1008" data-name="Path 1008" d="M483.451,352.056a9.012,9.012,0,0,0-5.392-.29" fill="none" stroke="#000" stroke-width="2"/>
        <path id="Path_1009" data-name="Path 1009" d="M471.04,358.424a4.8,4.8,0,0,0,.365,5.113c1.876,2.737,6.409,2.75,9.145,1.579" fill="none" stroke="#000" stroke-width="2"/>
        <path id="Path_1010" data-name="Path 1010" d="M466.02,337.406c-1.073.776-2.393.783-2.948.016s-.137-2.02.936-2.8,2.392-.784,2.948-.016.137,2.02-.936,2.8"/>
        <path id="Path_1011" data-name="Path 1011" d="M491.824,377.815c-27.015,3.2-43.554,15.573-43.554,15.573l4.7,21.464c24.163-22.974,47.671-28.157,47.906-28.4Z" fill="#ffb5be" stroke="#000" stroke-width="2"/>
        <path id="Path_1012" data-name="Path 1012" d="M447.487,379.675l-10.174,6.531s-1.75,18.255,1.59,27.963l9.367-20.782Z" fill="#ffb5be"/>
        <path id="Path_1013" data-name="Path 1013" d="M448.27,393.387l4.7,21.464c24.163-22.974,47.67-28.157,47.906-28.4" fill="none" stroke="#000" stroke-width="2"/>
        <path id="Path_1014" data-name="Path 1014" d="M447.487,379.675l-10.174,6.531s-1.75,18.255,1.59,27.963l9.367-20.782" fill="none" stroke="#000" stroke-width="2"/>
        <path id="Path_1015" data-name="Path 1015" d="M347.23,321.636A112.382,112.382,0,0,0,359.221,349.3" fill="none" stroke="#000" stroke-width="2"/>
        <path id="Path_1016" data-name="Path 1016" d="M348.12,338.307a177.809,177.809,0,0,0,6.156,18.4" fill="none" stroke="#000" stroke-width="2"/>
        <path id="Path_1017" data-name="Path 1017" d="M514.917,351.39a20.109,20.109,0,0,1-4.23,12.4,37.991,37.991,0,0,1-9.888,8.864" fill="none" stroke="#000" stroke-width="2"/>
        <path id="Path_1018" data-name="Path 1018" d="M511.891,372.495a25.668,25.668,0,0,0,9.145-8.826" fill="none" stroke="#000" stroke-width="2"/>
      </g>
    </g>
  </g>
</svg>
