<svg xmlns="http://www.w3.org/2000/svg" xmlns:xlink="http://www.w3.org/1999/xlink" width="426" height="337" viewBox="0 0 426 337">
  <defs>
    <clipPath id="clip-path">
      <rect id="Rectangle_834" data-name="Rectangle 834" width="426" height="337" transform="translate(982 2969)" fill="#fff" stroke="#707070" stroke-width="1"/>
    </clipPath>
    <clipPath id="clip-path-2">
      <rect id="Rectangle_467" data-name="Rectangle 467" width="503" height="245" transform="translate(889 3061)" fill="#fff" stroke="#707070" stroke-width="1"/>
    </clipPath>
    <clipPath id="clip-path-3">
      <rect id="Rectangle_453" data-name="Rectangle 453" width="495.549" height="388.663" fill="none"/>
    </clipPath>
    <clipPath id="clip-path-4">
      <path id="Path_6171" data-name="Path 6171" d="M289.394,178s7.2,23.523,16.481,29.326c5.226,3.267,11.517,4.324,17.112,6.909a34.322,34.322,0,0,1,18.134,20.7c2.532,8.156,2.054,17.413,6.741,24.553,6.167,9.4,18.645,11.6,29.2,15.468a74.207,74.207,0,0,1,25.627,15.976c11.021,10.539,27.593,31.817,27.593,31.817h67.79V178Z" transform="translate(-289.394 -178.002)" fill="none"/>
    </clipPath>
    <clipPath id="clip-path-6">
      <path id="Path_6176" data-name="Path 6176" d="M.5,178.184V319.422H92.758s10.805-11.944,14.22-17.6c3.219-5.333,4.623-11.579,7.6-17.048,9.8-17.977,33.927-23.673,45.219-40.755a36.8,36.8,0,0,0,5.569-25.88c-.564-3.49-1.637-7.05-.825-10.492.73-3.1,2.88-5.622,4.759-8.189,4.63-6.328,9.647-21.273,9.647-21.273Z" transform="translate(-0.501 -178.184)" fill="none"/>
    </clipPath>
    <clipPath id="clip-path-8">
      <path id="Path_6212" data-name="Path 6212" d="M135.512,23.879a1.775,1.775,0,0,0,2.373,1.312A2.163,2.163,0,0,0,137,23.985a1.729,1.729,0,0,0-.834-.194,2.484,2.484,0,0,0-.658.088" transform="translate(-135.512 -23.791)" fill="none"/>
    </clipPath>
    <clipPath id="clip-path-10">
      <path id="Path_6216" data-name="Path 6216" d="M142.2,24.512a2.161,2.161,0,0,0-1.273.783,1.776,1.776,0,0,0,2.692-.314,2.262,2.262,0,0,0-1.26-.478,1.448,1.448,0,0,0-.16.009" transform="translate(-140.926 -24.503)" fill="none"/>
    </clipPath>
    <clipPath id="clip-path-12">
      <path id="Path_6242" data-name="Path 6242" d="M128.538,173.336l21.6,4.443s2.721.076,1.359-2.084c-2.485-3.939-6.849-9.8-6.849-9.8-1.711-.106-3.124,1.495-3.977,3.1a1.182,1.182,0,0,1-.38.49.966.966,0,0,1-.74.019,18.485,18.485,0,0,1-8.67-5.047c-.948,2.682-2.347,8.874-2.347,8.874" transform="translate(-128.538 -164.462)" fill="none"/>
    </clipPath>
    <clipPath id="clip-path-14">
      <path id="Path_6251" data-name="Path 6251" d="M79.619,158.246l15.464,15.729s2.217,1.58,2.289-.972c.132-4.656-.226-11.952-.226-11.952-1.362-1.042-3.427-.5-5.032.358a1.18,1.18,0,0,1-.587.2.961.961,0,0,1-.626-.4,18.483,18.483,0,0,1-4.387-9.021c-2.281,1.7-6.9,6.06-6.9,6.06" transform="translate(-79.619 -152.186)" fill="none"/>
    </clipPath>
    <clipPath id="clip-path-16">
      <path id="Path_6277" data-name="Path 6277" d="M325.825,159.12a3.771,3.771,0,0,1-1.127.9,2.209,2.209,0,0,1-1.013.048,12.138,12.138,0,0,1-4.179-1.3,1.047,1.047,0,0,0-1.558.249,16.755,16.755,0,0,1-8.253,4.3,5.065,5.065,0,0,0-4.068,4.456l-.009.1,22.42,2.413,1.879-11.547a3.421,3.421,0,0,0-1.76-.472,3.505,3.505,0,0,0-2.333.861" transform="translate(-305.617 -158.259)" fill="none"/>
    </clipPath>
    <clipPath id="clip-path-18">
      <path id="Path_6292" data-name="Path 6292" d="M395.743,84.785a3.56,3.56,0,0,0,3.709,1.773,3.759,3.759,0,0,1,1.427-.188,2.216,2.216,0,0,1,.893.48,12.181,12.181,0,0,1,2.914,3.266,1.443,1.443,0,0,0,.53.6,1.424,1.424,0,0,0,.934-.01,16.752,16.752,0,0,1,9.288.559,5.063,5.063,0,0,0,5.782-1.726l.056-.076L403.3,75.853Z" transform="translate(-395.743 -75.853)" fill="none"/>
    </clipPath>
    <clipPath id="clip-path-20">
      <rect id="Rectangle_461" data-name="Rectangle 461" width="4.512" height="1" fill="none"/>
    </clipPath>
    <clipPath id="clip-path-21">
      <path id="Path_6324" data-name="Path 6324" d="M355.96,10.7a2.263,2.263,0,0,0-1.234.967,1.862,1.862,0,0,0,2.769-.648,2.48,2.48,0,0,0-1.188-.358,1.491,1.491,0,0,0-.347.04" transform="translate(-354.726 -10.661)" fill="none"/>
    </clipPath>
    <clipPath id="clip-path-23">
      <path id="Path_6328" data-name="Path 6328" d="M349,9.818a2.272,2.272,0,0,0,1.063,1.153,2.271,2.271,0,0,0,1.566-.069,2.272,2.272,0,0,0-1.063-1.152,1.674,1.674,0,0,0-.636-.117,2.591,2.591,0,0,0-.93.185" transform="translate(-348.999 -9.633)" fill="none"/>
    </clipPath>
    <clipPath id="clip-path-25">
      <path id="Path_6334" data-name="Path 6334" d="M309.931,30.307c-34.656.714-64.753,1.372-99.41,2.086l-26.056.536c-1.474.031-2.946.069-4.416.193a32.272,32.272,0,0,0-5.916,1c-6.786,1.886-10.274,6.924-12.713,12.794-1.643,3.95-2.668,8.174-4.49,12.049-2.111,4.491-6.543,7.468-10.125,10.877a28.644,28.644,0,0,0-2.667,2.857c-3.114,3.9-4.238,13.693-4.238,13.693L347.223,82.12s-2.358-7.848-6.594-12.663c-3.41-3.876-8.3-6.326-12.4-9.566A34.841,34.841,0,0,1,314.978,34.17a4.221,4.221,0,0,0-4.337-3.917,4.827,4.827,0,0,0-.711.054" transform="translate(-139.9 -30.253)" fill="none"/>
    </clipPath>
  </defs>
  <g id="company-crafted-pathways" transform="translate(-982 -2969)" clip-path="url(#clip-path)">
    <g id="Mask_Group_18" data-name="Mask Group 18" transform="translate(16)" clip-path="url(#clip-path-2)">
      <g id="Group_473" data-name="Group 473" transform="translate(897 3077)">
        <g id="Group_474" data-name="Group 474">
          <g id="Group_424" data-name="Group 424">
            <g id="Group_423" data-name="Group 423" clip-path="url(#clip-path-3)">
              <path id="Path_6163" data-name="Path 6163" d="M357.45,20.715c1.036.364,1.246.908,1.258,1.455a27.61,27.61,0,0,1-9.879-1.079c.188-.551.479-.923,1.629-.937.362,0,.72-.044,1.081-.016l4.9.367a1.5,1.5,0,0,1,.935.285Z" transform="translate(-3.035 -0.175)"/>
              <path id="Path_6164" data-name="Path 6164" d="M349.578,5.185s8.07-.379,11.519.3c-.467,2.213-1.611,6.937-2.3,9.207a1.363,1.363,0,0,1,1.831-.623,1.883,1.883,0,0,1,.855,2.01,3.275,3.275,0,0,1-1.292,1.891,1.964,1.964,0,0,1-1.227.493c-.45-.018-.888-.829-.888-.829l-1.051,8.041L350.042,24.5l.676-4.114.163-.984s-3.226-.4-3.736-2.047,1.987-10.687,2.434-12.17" transform="translate(-3.02 -0.044)" fill="#feb098"/>
              <path id="Path_6165" data-name="Path 6165" d="M349.578,5.185s8.07-.379,11.519.3c-.467,2.213-1.611,6.937-2.3,9.207a1.363,1.363,0,0,1,1.831-.623,1.883,1.883,0,0,1,.855,2.01,3.275,3.275,0,0,1-1.292,1.891,1.964,1.964,0,0,1-1.227.493c-.45-.018-.888-.829-.888-.829l-1.051,8.041L350.042,24.5l.676-4.114.163-.984s-3.226-.4-3.736-2.047S349.131,6.668,349.578,5.185Z" transform="translate(-3.02 -0.044)" fill="none" stroke="#000" stroke-miterlimit="10" stroke-width="1"/>
              <path id="Path_6166" data-name="Path 6166" d="M155.742,228.531c5.346-5.014,14.017-3.7,20.7-.682s13.022,7.483,20.337,7.946c4.218.268,8.517-.838,12.646.07,3.638.8,6.747,3.079,10.126,4.647,5.844,2.71,12.42,3.263,18.841,3.777,12.867,1.029,24.466,9.111,16.657,9.04q-62.739-.571-125.392-4.405Z" transform="translate(7.872 -33.959)" fill="#fff"/>
              <path id="Path_6167" data-name="Path 6167" d="M497.362,178V322.75H429.571S413,301.473,401.979,290.933a74.191,74.191,0,0,0-25.627-15.975c-10.55-3.873-23.028-6.072-29.2-15.468-4.686-7.14-4.208-16.4-6.739-24.553a34.331,34.331,0,0,0-18.135-20.7c-5.595-2.586-11.886-3.644-17.112-6.91-9.282-5.8-16.48-29.326-16.48-29.326Z" transform="translate(-2.512 -1.549)" fill="#fff"/>
              <path id="Path_6168" data-name="Path 6168" d="M497.362,178V322.75H429.571S413,301.473,401.979,290.933a74.191,74.191,0,0,0-25.627-15.975c-10.55-3.873-23.028-6.072-29.2-15.468-4.686-7.14-4.208-16.4-6.739-24.553a34.331,34.331,0,0,0-18.135-20.7c-5.595-2.586-11.886-3.644-17.112-6.91-9.282-5.8-16.48-29.326-16.48-29.326Z" transform="translate(-2.512 -1.549)" fill="none" stroke="#000" stroke-miterlimit="10" stroke-width="1"/>
            </g>
          </g>
          <g id="Group_426" data-name="Group 426" transform="translate(286.876 176.453)">
            <g id="Group_425" data-name="Group 425" clip-path="url(#clip-path-4)">
              <path id="Path_6169" data-name="Path 6169" d="M295.087,177.5l-21.541-.068c1.844,9.6,3.717,19.292,7.632,28.248s10.105,17.244,18.722,21.86c8.684,4.653,19.36,5.389,27.076,11.516,10,7.939,11.841,22.057,14.232,34.6,3.212,16.842,9.073,36.638,20.926,49.028,4.865,5.084,10.614-5.108,15.454,0,10.121,10.676,15.87,36.925,15.675,51.635L428.373,373c1.2-.046,2.622-.222,3.181-1.286a3.455,3.455,0,0,0,.072-2.27c-5.523-27.909-15.481-54.9-19.292-83.1-1.457-10.779-2.263-22.359-8.931-30.953-4-5.152-9.695-8.645-14.733-12.786-8.719-7.165-12.591-20.631-23.129-24.669-39.4-15.1-33.443-44.386-44.313-47.424Z" transform="translate(-289.256 -177.937)" fill="#e5e5e5"/>
              <path id="Path_6170" data-name="Path 6170" d="M295.087,177.5l-21.541-.068c1.844,9.6,3.717,19.292,7.632,28.248s10.105,17.244,18.722,21.86c8.684,4.653,19.36,5.389,27.076,11.516,10,7.939,11.841,22.057,14.232,34.6,3.212,16.842,9.073,36.638,20.926,49.028,4.865,5.084,10.614-5.108,15.454,0,10.121,10.676,15.87,36.925,15.675,51.635L428.373,373c1.2-.046,2.622-.222,3.181-1.286a3.455,3.455,0,0,0,.072-2.27c-5.523-27.909-15.481-54.9-19.292-83.1-1.457-10.779-2.263-22.359-8.931-30.953-4-5.152-9.695-8.645-14.733-12.786-8.719-7.165-12.591-20.631-23.129-24.669-39.4-15.1-33.443-44.386-44.313-47.424Z" transform="translate(-289.256 -177.937)" fill="none" stroke="#000" stroke-miterlimit="10" stroke-width="1"/>
            </g>
          </g>
          <g id="Group_428" data-name="Group 428">
            <g id="Group_427" data-name="Group 427" clip-path="url(#clip-path-3)">
              <path id="Path_6172" data-name="Path 6172" d="M.5,177.713c.129,40.8,0,141.238,0,141.238H92.758s10.806-11.943,14.22-17.6c3.219-5.333,4.623-11.578,7.605-17.047,9.8-17.977,33.927-23.674,45.218-40.755a36.8,36.8,0,0,0,5.569-25.881c-.564-3.489-1.636-7.05-.825-10.491.731-3.1,2.881-5.623,4.759-8.19,4.63-6.328,9.648-21.273,9.648-21.273Z" transform="translate(-0.004 -1.546)" fill="#fff"/>
              <path id="Path_6173" data-name="Path 6173" d="M.5,177.713c.129,40.8,0,141.238,0,141.238H92.758s10.806-11.943,14.22-17.6c3.219-5.333,4.623-11.578,7.605-17.047,9.8-17.977,33.927-23.674,45.218-40.755a36.8,36.8,0,0,0,5.569-25.881c-.564-3.489-1.636-7.05-.825-10.491.731-3.1,2.881-5.623,4.759-8.19,4.63-6.328,9.648-21.273,9.648-21.273Z" transform="translate(-0.004 -1.546)" fill="none" stroke="#000" stroke-miterlimit="10" stroke-width="1"/>
            </g>
          </g>
          <g id="Group_430" data-name="Group 430" transform="translate(0.497 176.634)">
            <g id="Group_429" data-name="Group 429" clip-path="url(#clip-path-6)">
              <path id="Path_6174" data-name="Path 6174" d="M144.131,170.235c2.841,6.121-.741,13.3-5.123,18.433s-9.851,9.825-11.612,16.339c-2.367,8.753,2.72,18.092.972,26.989-1.3,6.61-6.195,11.947-11.552,16.031s-11.373,7.3-16.388,11.8a42.144,42.144,0,0,0-12.369,19.9c-1.2,4.285-1.723,8.789-3.55,12.846-3.843,8.535-12.6,13.54-19.295,20.085-9.712,9.5-15.224-6.871-17.789,6.469s-2.406,56.533-2.238,70.117a205.072,205.072,0,0,1,79.233-8.885c2.27.192,4.857.319,6.493-1.267,1.386-1.344,1.591-3.459,1.732-5.383,2.119-28.995,8.98-58.579,26.324-81.91,6.063-8.156,13.29-15.391,19.389-23.521,12.909-17.207,20.425-38.08,23.575-59.359s2.081-43.007-1-64.3Z" transform="translate(-0.889 -177.892)" fill="#e5e5e5"/>
              <path id="Path_6175" data-name="Path 6175" d="M144.131,170.235c2.841,6.121-.741,13.3-5.123,18.433s-9.851,9.825-11.612,16.339c-2.367,8.753,2.72,18.092.972,26.989-1.3,6.61-6.195,11.947-11.552,16.031s-11.373,7.3-16.388,11.8a42.144,42.144,0,0,0-12.369,19.9c-1.2,4.285-1.723,8.789-3.55,12.846-3.843,8.535-12.6,13.54-19.295,20.085-9.712,9.5-15.224-6.871-17.789,6.469s-2.406,56.533-2.238,70.117a205.072,205.072,0,0,1,79.233-8.885c2.27.192,4.857.319,6.493-1.267,1.386-1.344,1.591-3.459,1.732-5.383,2.119-28.995,8.98-58.579,26.324-81.91,6.063-8.156,13.29-15.391,19.389-23.521,12.909-17.207,20.425-38.08,23.575-59.359s2.081-43.007-1-64.3Z" transform="translate(-0.889 -177.892)" fill="none" stroke="#000" stroke-miterlimit="10" stroke-width="1"/>
            </g>
          </g>
          <g id="Group_432" data-name="Group 432">
            <g id="Group_431" data-name="Group 431" clip-path="url(#clip-path-3)">
              <path id="Path_6177" data-name="Path 6177" d="M.5,178.184V319.422H92.758s10.806-11.943,14.22-17.6c3.219-5.333,4.623-11.578,7.605-17.047,9.8-17.977,33.927-23.674,45.218-40.755a36.8,36.8,0,0,0,5.569-25.88c-.564-3.49-1.636-7.051-.825-10.492.731-3.1,2.881-5.623,4.759-8.19,4.63-6.328,9.648-21.273,9.648-21.273Z" transform="translate(-0.004 -1.55)" fill="none" stroke="#000" stroke-miterlimit="10" stroke-width="1"/>
              <path id="Path_6178" data-name="Path 6178" d="M376.858,17.771a2,2,0,0,1-.235-3.088c2.9-2.767,6.243-5.23,10.141-5.048,2.032.094,3.948.922,5.928,1.39,4.8,1.133,10.08.182,14.532,2.3.944.447,1.913,1.132,1.848,2.325a2.248,2.248,0,0,1-.849,1.594,5.736,5.736,0,0,1-3.82.905l-26.392-.009a2,2,0,0,1-1.153-.365" transform="translate(-3.271 -0.084)" fill="#fff"/>
              <path id="Path_6180" data-name="Path 6180" d="M498.432,23.317c-4.893-1.89-11.045-1.506-15.346,1.552-2.318,1.649-4.185,3.923-6.7,5.263-4.294,2.3-9.5,1.428-14.338.871a95.277,95.277,0,0,0-48.179,7.042c-.99.424-2.135,1.108-2.1,2.185.042,1.3,2.978,1.952,2.978,1.952h83.684Z" transform="translate(-3.583 -0.193)" fill="#fff"/>
              <path id="Path_6181" data-name="Path 6181" d="M189.022,139.73a1.271,1.271,0,0,0-.157.593,1.342,1.342,0,0,1-1.028,1.145,3.328,3.328,0,0,1-1.881-.247,5.363,5.363,0,0,1-1.867-.982,2.122,2.122,0,0,1-.75-1.889,3.229,3.229,0,0,1,1.289-1.713,2.568,2.568,0,0,1,4.3,1.222l.259.811a1.186,1.186,0,0,1-.1.949Z" transform="translate(-1.595 -1.182)" fill="#333"/>
              <path id="Path_6182" data-name="Path 6182" d="M165.947,79.917c.064.022,10.407,5.69,11.233,4.752.413-.469-1.207-2.11-2.4-3.134,1.687,1,6.766,1.073,6.869.191.018-.148-5.934-2.384-6.3-2.6.782.137,6.631,3.253,6.912,2.084.177-.736-4.258-2.861-6.154-3.851,1.479.626,5.848,2.2,6.517,1.367.51-.631-5.325-3.313-7.814-4.407a8.5,8.5,0,0,0,2.771.065.525.525,0,0,0,.14-1,26.4,26.4,0,0,0-4.868-1.683,8.621,8.621,0,0,0-3.942.2L152.422,60.145s-9.7,7.1-7.976,8.207c3.484,2.231,21.456,11.584,21.5,11.565" transform="translate(-1.255 -0.523)" fill="#feb098"/>
              <path id="Path_6183" data-name="Path 6183" d="M177.937,74.272a8.722,8.722,0,0,1-2.3.2c-.4-.019-.781-.089-1.174-.134a.868.868,0,0,0-.767.285,4.542,4.542,0,0,1-1.56,1.107,4.044,4.044,0,0,1-1.892.26c-.191-.019-.19.281,0,.3a4.315,4.315,0,0,0,3.4-1.175c.111-.108.209-.231.324-.334.219-.2.429-.153.7-.111a9.2,9.2,0,0,0,1.069.106,9.1,9.1,0,0,0,2.282-.211c.187-.042.108-.33-.079-.288" transform="translate(-1.48 -0.646)" fill="#1d2d51"/>
              <path id="Path_6184" data-name="Path 6184" d="M181.662,81.426l-6.513-2.4c-.18-.067-.258.221-.079.287l6.513,2.4c.18.067.259-.221.079-.287" transform="translate(-1.522 -0.687)" fill="#1d2d51"/>
              <path id="Path_6185" data-name="Path 6185" d="M182.706,78.85a19.936,19.936,0,0,1-7.267-1.885c-.178-.071-.257.217-.079.287a20.126,20.126,0,0,0,7.346,1.9.149.149,0,0,0,0-.3" transform="translate(-1.525 -0.67)" fill="#1d2d51"/>
              <path id="Path_6186" data-name="Path 6186" d="M167.794,76.681a3.542,3.542,0,0,1,3.072,3.2c.016.19.315.192.3,0a3.8,3.8,0,0,0-3.371-3.5c-.19-.024-.188.276,0,.3" transform="translate(-1.459 -0.665)" fill="#1d2d51"/>
              <path id="Path_6187" data-name="Path 6187" d="M167.974,72.3a4,4,0,0,0-.907,1.979.153.153,0,0,0,.1.183.15.15,0,0,0,.183-.1,3.729,3.729,0,0,1,.831-1.847c.124-.146-.087-.358-.211-.211" transform="translate(-1.453 -0.629)" fill="#1d2d51"/>
              <path id="Path_6188" data-name="Path 6188" d="M177.559,84.564c-.485-1.752-2.051-2.7-3.628-3.356-.176-.074-.254.215-.079.288,1.477.617,2.966,1.5,3.419,3.146a.15.15,0,0,0,.288-.079" transform="translate(-1.512 -0.706)" fill="#1d2d51"/>
              <path id="Path_6189" data-name="Path 6189" d="M144.981,38.316a6.9,6.9,0,0,1,5.563,3.7c1.169,2.014,1.241,15.506,1.819,16.549s5.13,4.062,5.13,4.062a91.142,91.142,0,0,0-6.814,10.183c-.1.011-8.959-5.724-10.308-8.092a23.821,23.821,0,0,1-2.491-7.743,7.111,7.111,0,0,1-.132-2.349,7.584,7.584,0,0,1,.563-1.71l2.3-5.479Z" transform="translate(-1.198 -0.333)" fill="#fff"/>
              <path id="Path_6190" data-name="Path 6190" d="M144.981,38.316a6.9,6.9,0,0,1,5.563,3.7c1.169,2.014,1.241,15.506,1.819,16.549s5.13,4.062,5.13,4.062a91.142,91.142,0,0,0-6.814,10.183c-.1.011-8.959-5.724-10.308-8.092a23.821,23.821,0,0,1-2.491-7.743,7.111,7.111,0,0,1-.132-2.349,7.584,7.584,0,0,1,.563-1.71l2.3-5.479Z" transform="translate(-1.198 -0.333)" fill="none" stroke="#000" stroke-miterlimit="10" stroke-width="1"/>
              <path id="Path_6191" data-name="Path 6191" d="M124.833,35.878a24.126,24.126,0,0,1-2.967,10.592,20.986,20.986,0,0,0-2.377,7.006,93.469,93.469,0,0,1-2.469,10.59l19.909,5.583a118.591,118.591,0,0,1,7.162-11.53c.819-1.056,1.862-19.819,1.862-19.819l-5.768-1.553c-2.31,3.5-7.362,2.908-9.825.144l-.981-1.4Z" transform="translate(-1.018 -0.309)" fill="#ee5064"/>
              <path id="Path_6192" data-name="Path 6192" d="M124.833,35.878a24.126,24.126,0,0,1-2.967,10.592,20.986,20.986,0,0,0-2.377,7.006,93.469,93.469,0,0,1-2.469,10.59l19.909,5.583a118.591,118.591,0,0,1,7.162-11.53c.819-1.056,1.862-19.819,1.862-19.819l-5.768-1.553c-2.31,3.5-7.362,2.908-9.825.144l-.981-1.4Z" transform="translate(-1.018 -0.309)" fill="none" stroke="#000" stroke-miterlimit="10" stroke-width="1"/>
              <path id="Path_6193" data-name="Path 6193" d="M149.521,112.183l-.111-.013c-15.052,6.168-39.595,4.171-39.595,4.171l14.529-11.788Z" transform="translate(-0.955 -0.91)" fill="#a62973"/>
              <path id="Path_6194" data-name="Path 6194" d="M149.521,112.183l-.111-.013c-15.052,6.168-39.595,4.171-39.595,4.171l14.529-11.788Z" transform="translate(-0.955 -0.91)" fill="none" stroke="#000" stroke-miterlimit="10" stroke-width="1"/>
              <path id="Path_6195" data-name="Path 6195" d="M123.973,130.037a6.253,6.253,0,0,0,1.564-2.746c1.968-7.328,10.127-37.568,9.8-34.067-3.127-1.458-8.651-3.705-11.875-4.934,0,0-10.82,8.185-12.6,32.4C108,122.081,86.232,152.444,83.2,155.815a80.175,80.175,0,0,1,7.988,8.583,1.627,1.627,0,0,0,.627.552,1.606,1.606,0,0,0,.851.009l4.083-.695a37.373,37.373,0,0,1,.538-6.869Z" transform="translate(-0.724 -0.768)" fill="#feb098"/>
              <path id="Path_6196" data-name="Path 6196" d="M123.973,130.037a6.253,6.253,0,0,0,1.564-2.746c1.968-7.328,10.127-37.568,9.8-34.067-3.127-1.458-8.651-3.705-11.875-4.934,0,0-10.82,8.185-12.6,32.4C108,122.081,86.232,152.444,83.2,155.815a80.175,80.175,0,0,1,7.988,8.583,1.627,1.627,0,0,0,.627.552,1.606,1.606,0,0,0,.851.009l4.083-.695a37.373,37.373,0,0,1,.538-6.869Z" transform="translate(-0.724 -0.768)" fill="none" stroke="#000" stroke-miterlimit="10" stroke-width="1"/>
              <path id="Path_6197" data-name="Path 6197" d="M151.062,124.137c.572-2.821-4.764-25.637-10.909-37.257-3.415.493-9.268,1.639-12.638,2.377,0,0-2.416,13.681,9.36,34.915-1.637,2.734-4.669,15.286-4.964,18.9-.128,1.567-.806,17.072-.929,22.267l-.26,3.888a90.347,90.347,0,0,0,13.753,2.93.575.575,0,0,0,.323-.019c.185-.089.219-.332.238-.536.1-1.171,2.863.759,3.485-.237-1.335-1.5-5.335-6.708-5.694-8.681,0,0,9.333-36.134,8.235-38.546" transform="translate(-1.108 -0.756)" fill="#feb098"/>
              <path id="Path_6198" data-name="Path 6198" d="M151.062,124.137c.572-2.821-4.764-25.637-10.909-37.257-3.415.493-9.268,1.639-12.638,2.377,0,0-2.416,13.681,9.36,34.915-1.637,2.734-4.669,15.286-4.964,18.9-.128,1.567-.806,17.072-.929,22.267l-.26,3.888a90.347,90.347,0,0,0,13.753,2.93.575.575,0,0,0,.323-.019c.185-.089.219-.332.238-.536.1-1.171,2.863.759,3.485-.237-1.335-1.5-5.335-6.708-5.694-8.681C142.827,162.683,152.16,126.549,151.062,124.137Z" transform="translate(-1.108 -0.756)" fill="none" stroke="#000" stroke-miterlimit="10" stroke-width="1"/>
              <path id="Path_6199" data-name="Path 6199" d="M145.486,20.85a3.123,3.123,0,0,0-.865,3.244,5.261,5.261,0,0,1,.622,1.987c-.071.871-.9,1.457-1.641,1.917a1.4,1.4,0,0,0,.552-1.4c-.216-1.057-1.566-1.57-1.815-2.619a3.685,3.685,0,0,1,.426-2.021,6.289,6.289,0,0,0,.365-1.906Z" transform="translate(-1.238 -0.174)" fill="#ff6237"/>
              <path id="Path_6200" data-name="Path 6200" d="M145.486,20.85a3.123,3.123,0,0,0-.865,3.244,5.261,5.261,0,0,1,.622,1.987c-.071.871-.9,1.457-1.641,1.917a1.4,1.4,0,0,0,.552-1.4c-.216-1.057-1.566-1.57-1.815-2.619a3.685,3.685,0,0,1,.426-2.021,6.289,6.289,0,0,0,.365-1.906Z" transform="translate(-1.238 -0.174)" fill="none" stroke="#000" stroke-miterlimit="10" stroke-width="1"/>
              <path id="Path_6201" data-name="Path 6201" d="M139.082,34.391c-1.358-.789-2.289-.39-3.84-.635-1.195-.188-2.095-.531-3.145.068a2.894,2.894,0,0,0-.686.482.7.7,0,0,0-.029.351l.3,3.468a.523.523,0,0,0,.1.314.506.506,0,0,0,.261.128,14.393,14.393,0,0,0,3,.47,7.326,7.326,0,0,0,2.975-.37,3.724,3.724,0,0,0,2.165-1.982Z" transform="translate(-1.143 -0.291)" fill="#feb098"/>
              <path id="Path_6202" data-name="Path 6202" d="M139.082,34.391c-1.358-.789-2.289-.39-3.84-.635-1.195-.188-2.095-.531-3.145.068a2.894,2.894,0,0,0-.686.482.7.7,0,0,0-.029.351l.3,3.468a.523.523,0,0,0,.1.314.506.506,0,0,0,.261.128,14.393,14.393,0,0,0,3,.47,7.326,7.326,0,0,0,2.975-.37,3.724,3.724,0,0,0,2.165-1.982Z" transform="translate(-1.143 -0.291)" fill="none" stroke="#000" stroke-miterlimit="10" stroke-width="1"/>
              <path id="Path_6203" data-name="Path 6203" d="M134.519,31.3a6.917,6.917,0,0,1-4.431-2.658,6.529,6.529,0,0,1-1.037-3.466,20.371,20.371,0,0,1,1.164-8.9,5.653,5.653,0,0,1,2.357-3.23,5.108,5.108,0,0,1,3.439-.334c2.49.566,2.653,2.374,4.878,2.707,1.674.251,1.661-.263,3.5-.321s2.7,1.819,2.537,3.645c-.107,1.221-1.085,1.731-2.128,2.74-1.244,1.2-.811,1.905-1.9,3a7.665,7.665,0,0,0-2.128,3.674c-.385,1.749.263,2.445-.233,3.148-.474.672-1.847,1.154-6.02-.007" transform="translate(-1.122 -0.109)" fill="#ff6237"/>
              <path id="Path_6204" data-name="Path 6204" d="M134.519,31.3a6.917,6.917,0,0,1-4.431-2.658,6.529,6.529,0,0,1-1.037-3.466,20.371,20.371,0,0,1,1.164-8.9,5.653,5.653,0,0,1,2.357-3.23,5.108,5.108,0,0,1,3.439-.334c2.49.566,2.653,2.374,4.878,2.707,1.674.251,1.661-.263,3.5-.321s2.7,1.819,2.537,3.645c-.107,1.221-1.085,1.731-2.128,2.74-1.244,1.2-.811,1.905-1.9,3a7.665,7.665,0,0,0-2.128,3.674c-.385,1.749.263,2.445-.233,3.148C140.066,31.98,138.693,32.461,134.519,31.3Z" transform="translate(-1.122 -0.109)" fill="none" stroke="#000" stroke-miterlimit="10" stroke-width="1"/>
              <path id="Path_6205" data-name="Path 6205" d="M131.337,14.633a4.374,4.374,0,0,0-1.033-5.5,4.373,4.373,0,0,0-5.584.34,5.371,5.371,0,0,0-.714.9,4.773,4.773,0,0,0-.819,2.3,4.8,4.8,0,0,0,1.476,3.451,5.112,5.112,0,0,0,3.85,1.713c1.447-.084,2.644-1.773,2.823-3.212" transform="translate(-1.072 -0.072)" fill="#ff6237"/>
              <path id="Path_6206" data-name="Path 6206" d="M131.337,14.633a4.374,4.374,0,0,0-1.033-5.5,4.373,4.373,0,0,0-5.584.34,5.371,5.371,0,0,0-.714.9,4.773,4.773,0,0,0-.819,2.3,4.8,4.8,0,0,0,1.476,3.451,5.112,5.112,0,0,0,3.85,1.713C129.962,17.761,131.158,16.072,131.337,14.633Z" transform="translate(-1.072 -0.072)" fill="none" stroke="#000" stroke-miterlimit="10" stroke-width="1"/>
              <path id="Path_6207" data-name="Path 6207" d="M131.987,36.177l1.29-6.9s-.59.616-1,.521a1.816,1.816,0,0,1-.974-.74,3.023,3.023,0,0,1-.69-2,1.74,1.74,0,0,1,1.254-1.585,1.262,1.262,0,0,1,1.482,1c-.057-2.193.078-6.688.2-8.777,3.244.239,10.352,2.55,10.352,2.55.037,1.433.056,10.108-.8,11.455s-3.6,1.021-3.6,1.021l-.157,3.222" transform="translate(-1.136 -0.154)" fill="#feb098"/>
              <path id="Path_6208" data-name="Path 6208" d="M131.987,36.177l1.29-6.9s-.59.616-1,.521a1.816,1.816,0,0,1-.974-.74,3.023,3.023,0,0,1-.69-2,1.74,1.74,0,0,1,1.254-1.585,1.262,1.262,0,0,1,1.482,1c-.057-2.193.078-6.688.2-8.777,3.244.239,10.352,2.55,10.352,2.55.037,1.433.056,10.108-.8,11.455s-3.6,1.021-3.6,1.021l-.157,3.222" transform="translate(-1.136 -0.154)" fill="none" stroke="#000" stroke-miterlimit="10" stroke-width="1"/>
              <path id="Path_6209" data-name="Path 6209" d="M139.1,32.275l-3.707-.9s2.1,1.225,3.627,2.088Z" transform="translate(-1.178 -0.273)" fill="#d1826d"/>
              <path id="Path_6210" data-name="Path 6210" d="M135.512,23.879a1.775,1.775,0,0,1,2.372,1.312,1.774,1.774,0,0,1-2.372-1.312" transform="translate(-1.179 -0.207)" fill="#fff"/>
            </g>
          </g>
          <g id="Group_434" data-name="Group 434" transform="translate(134.333 23.584)">
            <g id="Group_433" data-name="Group 433" clip-path="url(#clip-path-8)">
              <path id="Path_6211" data-name="Path 6211" d="M136.032,25.212a1,1,0,1,1,1.241.687,1,1,0,0,1-1.241-.687" transform="translate(-135.516 -23.792)"/>
            </g>
          </g>
          <g id="Group_436" data-name="Group 436">
            <g id="Group_435" data-name="Group 435" clip-path="url(#clip-path-3)">
              <path id="Path_6213" data-name="Path 6213" d="M136.512,23.526a1.484,1.484,0,0,1,1.228.681c.1.162.361.012.258-.152a1.793,1.793,0,0,0-1.486-.828.149.149,0,0,0,0,.3" transform="translate(-1.186 -0.202)"/>
              <path id="Path_6214" data-name="Path 6214" d="M140.926,25.294a1.775,1.775,0,0,1,2.693-.314,1.775,1.775,0,0,1-2.693.314" transform="translate(-1.226 -0.213)" fill="#fff"/>
            </g>
          </g>
          <g id="Group_438" data-name="Group 438" transform="translate(139.7 24.29)">
            <g id="Group_437" data-name="Group 437" clip-path="url(#clip-path-10)">
              <path id="Path_6215" data-name="Path 6215" d="M142.126,26.074a1,1,0,1,1,1.409-.165,1,1,0,0,1-1.409.165" transform="translate(-140.933 -24.501)"/>
            </g>
          </g>
          <g id="Group_440" data-name="Group 440">
            <g id="Group_439" data-name="Group 439" clip-path="url(#clip-path-3)">
              <path id="Path_6217" data-name="Path 6217" d="M141.521,24.435a1.5,1.5,0,0,1,1.427-.162.15.15,0,0,0,.184-.1.153.153,0,0,0-.105-.183,1.777,1.777,0,0,0-1.657.191.152.152,0,0,0-.054.2.15.15,0,0,0,.2.054" transform="translate(-1.229 -0.208)"/>
              <path id="Path_6218" data-name="Path 6218" d="M137.316,22.022a.674.674,0,0,1-.451.119c-.158-.007-.312-.044-.469-.056-.192-.015-.386.006-.578-.006-.238-.014-.515-.126-.554-.361a.43.43,0,0,1,.246-.419,1.284,1.284,0,0,1,.5-.108c1.375-.127,1.465.7,1.3.831" transform="translate(-1.177 -0.184)"/>
              <path id="Path_6219" data-name="Path 6219" d="M140.914,22.216a.673.673,0,0,0,.314.346c.136.079.285.133.423.208.17.091.32.215.488.309.207.118.5.175.661,0a.43.43,0,0,0,.023-.485,1.3,1.3,0,0,0-.364-.364c-1.085-.854-1.61-.211-1.545-.013" transform="translate(-1.226 -0.19)"/>
              <path id="Path_6220" data-name="Path 6220" d="M131.826,26.534a1.747,1.747,0,0,1,.658,1.09c.03.168.3.126.293-.04a.6.6,0,0,0-.983-.391.623.623,0,0,0-.162.64.764.764,0,0,0,.487.518c.182.062.261-.226.079-.287-.228-.077-.426-.459-.207-.648.154-.133.485-.034.488.168l.293-.04a2.048,2.048,0,0,0-.8-1.269.15.15,0,0,0-.2.054.153.153,0,0,0,.054.2" transform="translate(-1.145 -0.228)"/>
              <path id="Path_6221" data-name="Path 6221" d="M139.684,27.344a8.892,8.892,0,0,0,.717-.663c.11-.114.217-.23.32-.35A.539.539,0,0,0,140.89,26c0-.22-.2-.346-.388-.393a7.183,7.183,0,0,0-.959-.11l.145.11a4.092,4.092,0,0,1,.082-1.537c.046-.187-.243-.267-.288-.079a4.518,4.518,0,0,0-.082,1.7.151.151,0,0,0,.144.109c.247.026.494.051.74.078a.612.612,0,0,1,.252.061c.1.06.011.137-.045.2a8.815,8.815,0,0,1-1.018.99c-.148.123.064.333.211.211" transform="translate(-1.212 -0.208)"/>
              <path id="Path_6222" data-name="Path 6222" d="M139.008,27.592a2.065,2.065,0,0,1-1.443-.96c-.1-.164-.358-.014-.258.151a2.346,2.346,0,0,0,1.622,1.1.153.153,0,0,0,.183-.1.15.15,0,0,0-.1-.183" transform="translate(-1.194 -0.231)"/>
              <path id="Path_6223" data-name="Path 6223" d="M130.026,17.448a4.064,4.064,0,0,0,.1-1.9,3.994,3.994,0,0,0-.3-.932c-.093-.2-.22-.534-.49-.538-.57-.008-.5.989-.454,1.326a6.032,6.032,0,0,0,.826,2.03l.2-.2a3.96,3.96,0,0,0-2-.734c-.483-.009-1.448.178-1.465.811-.019.715.85.782,1.364.753a5.356,5.356,0,0,0,2.121-.576l-.22-.089q.668,1.792,1.334,3.583c.066.179.355.1.287-.079q-.666-1.792-1.333-3.583a.151.151,0,0,0-.219-.089,5.073,5.073,0,0,1-1.568.5,3.979,3.979,0,0,1-.827.043c-.249-.016-.67-.125-.641-.459.025-.273.456-.407.671-.46a2.07,2.07,0,0,1,.83-.022,4.215,4.215,0,0,1,1.513.662.15.15,0,0,0,.2-.2,7.621,7.621,0,0,1-.677-1.442,2.836,2.836,0,0,1-.138-.781,1.7,1.7,0,0,1,.035-.443c.041-.161.1-.3.252-.105a3,3,0,0,1,.442,1.4,3.763,3.763,0,0,1-.137,1.459.149.149,0,0,0,.288.079" transform="translate(-1.1 -0.122)" fill="#1d2d51"/>
              <path id="Path_6224" data-name="Path 6224" d="M129.8,17.428c1.017.5,1.959,1.131,2.948,1.683.169.094.32-.164.152-.258-.989-.552-1.932-1.181-2.95-1.683-.171-.085-.323.172-.15.258" transform="translate(-1.129 -0.149)" fill="#1d2d51"/>
              <path id="Path_6225" data-name="Path 6225" d="M115.134,70.476c-3.963,6.7-12.941,23.551-5.345,45.547.111.322,39.711-4.076,39.711-4.076a127.928,127.928,0,0,1-2.782-18.706c-.374-8.194-7.392-18.04-10.812-25.267Z" transform="translate(-0.929 -0.591)" fill="#a62973"/>
              <path id="Path_6226" data-name="Path 6226" d="M115.134,70.476c-3.963,6.7-12.941,23.551-5.345,45.547.111.322,39.711-4.076,39.711-4.076a127.928,127.928,0,0,1-2.782-18.706c-.374-8.194-7.392-18.04-10.812-25.267Z" transform="translate(-0.929 -0.591)" fill="none" stroke="#000" stroke-miterlimit="10" stroke-width="1"/>
              <path id="Path_6227" data-name="Path 6227" d="M129.375,34.631c.045.053-.086.01-.089.079a8.861,8.861,0,0,0,.118,2.18c.415,1.98,2.174,4,3.607,5.432a5.239,5.239,0,0,1,2.4-3.225c-.941-.514-2.682-1.664-3.118-2.644a2.652,2.652,0,0,1,.035-2.837Z" transform="translate(-1.125 -0.292)" fill="#fff"/>
              <path id="Path_6228" data-name="Path 6228" d="M129.375,34.631c.045.053-.086.01-.089.079a8.861,8.861,0,0,0,.118,2.18c.415,1.98,2.174,4,3.607,5.432a5.239,5.239,0,0,1,2.4-3.225c-.941-.514-2.682-1.664-3.118-2.644a2.652,2.652,0,0,1,.035-2.837Z" transform="translate(-1.125 -0.292)" fill="none" stroke="#000" stroke-linejoin="round" stroke-width="1"/>
              <path id="Path_6229" data-name="Path 6229" d="M141.571,34.832c-.045.053.086.011.088.079a8.862,8.862,0,0,1-.128,2.18c-.424,1.978-2.646,3.454-4.086,4.873a3.77,3.77,0,0,0-1.861-2.821c3.244-1.23,4.544-4,3.89-4.849Z" transform="translate(-1.18 -0.298)" fill="#fff"/>
              <path id="Path_6230" data-name="Path 6230" d="M141.571,34.832c-.045.053.086.011.088.079a8.862,8.862,0,0,1-.128,2.18c-.424,1.978-2.646,3.454-4.086,4.873a3.77,3.77,0,0,0-1.861-2.821c3.244-1.23,4.544-4,3.89-4.849Z" transform="translate(-1.18 -0.298)" fill="none" stroke="#000" stroke-linejoin="round" stroke-width="1"/>
              <path id="Path_6231" data-name="Path 6231" d="M151.969,58.729a47.875,47.875,0,0,0-5.431,2.145c-.173.081-.022.339.151.259a47.131,47.131,0,0,1,5.36-2.116c.182-.058.1-.347-.079-.287" transform="translate(-1.274 -0.511)"/>
              <path id="Path_6232" data-name="Path 6232" d="M150.862,70.384a.606.606,0,0,1,.123.1.524.524,0,0,1,.09.132.431.431,0,0,1,.035.286.6.6,0,0,1-.2.315.624.624,0,0,1-.154.1.57.57,0,0,1-.163.042.384.384,0,0,1-.138-.011.379.379,0,0,1-.138-.058.339.339,0,0,1-.052-.037c-.022-.019-.043-.04-.062-.06a.54.54,0,0,1-.086-.125.5.5,0,0,1,.1-.576.556.556,0,0,1,.3-.168.673.673,0,0,1,.078-.009h.051s.05,0,.027,0a.447.447,0,0,1,.188.068.149.149,0,0,0,.151-.258.834.834,0,0,0-1.2.97.837.837,0,0,0,.7.559.887.887,0,0,0,.844-.556.8.8,0,0,0-.347-.973.149.149,0,1,0-.151.258" transform="translate(-1.303 -0.609)" fill="#1d2d51"/>
              <path id="Path_6233" data-name="Path 6233" d="M154.964,61.12q-3.387,5-6.353,10.263a.15.15,0,0,0,.259.151q2.962-5.259,6.351-10.263c.108-.16-.151-.309-.257-.151" transform="translate(-1.293 -0.531)"/>
              <path id="Path_6234" data-name="Path 6234" d="M110.23,114.205q7.441-.852,14.887-1.662t14.9-1.579q4.195-.433,8.389-.853c.189-.019.191-.318,0-.3q-7.453.746-14.9,1.534t-14.892,1.616q-4.19.465-8.379.946c-.188.022-.191.32,0,.3" transform="translate(-0.958 -0.955)" fill="#fff"/>
              <path id="Path_6235" data-name="Path 6235" d="M144.653,165.9c-1.711-.106-3.124,1.495-3.978,3.1a1.19,1.19,0,0,1-.379.491.971.971,0,0,1-.74.019,18.481,18.481,0,0,1-8.67-5.047c-.948,2.681-2.347,8.874-2.347,8.874l21.605,4.443s2.72.076,1.358-2.084c-2.485-3.939-6.849-9.8-6.849-9.8" transform="translate(-1.118 -1.431)" fill="#e099c7"/>
            </g>
          </g>
          <g id="Group_442" data-name="Group 442" transform="translate(127.42 163.031)">
            <g id="Group_441" data-name="Group 441" clip-path="url(#clip-path-12)">
              <path id="Path_6236" data-name="Path 6236" d="M119.622,178.046l31.423,6.461,1.623-7.948L121.243,170.1Z" transform="translate(-128.46 -164.511)" fill="#e099c7"/>
              <path id="Path_6237" data-name="Path 6237" d="M119.622,178.046l31.423,6.461,1.623-7.948L121.243,170.1Z" transform="translate(-128.46 -164.511)" fill="none" stroke="#000" stroke-miterlimit="10" stroke-width="1"/>
              <path id="Path_6238" data-name="Path 6238" d="M148.347,168.993a12.208,12.208,0,0,0-2.783,2c-.279.266.144.688.422.422a11.664,11.664,0,0,1,2.662-1.909c.341-.177.04-.693-.3-.515" transform="translate(-128.685 -164.501)" fill="#e099c7"/>
              <path id="Path_6239" data-name="Path 6239" d="M148.347,168.993a12.208,12.208,0,0,0-2.783,2c-.279.266.144.688.422.422a11.664,11.664,0,0,1,2.662-1.909C148.989,169.331,148.688,168.815,148.347,168.993Z" transform="translate(-128.685 -164.501)" fill="none" stroke="#000" stroke-miterlimit="10" stroke-width="1"/>
              <path id="Path_6240" data-name="Path 6240" d="M149.557,170.588a12.21,12.21,0,0,0-2.783,2c-.279.266.144.688.422.422a11.664,11.664,0,0,1,2.662-1.909c.341-.177.04-.693-.3-.515" transform="translate(-128.696 -164.515)" fill="#e099c7"/>
              <path id="Path_6241" data-name="Path 6241" d="M149.557,170.588a12.21,12.21,0,0,0-2.783,2c-.279.266.144.688.422.422a11.664,11.664,0,0,1,2.662-1.909C150.2,170.926,149.9,170.41,149.557,170.588Z" transform="translate(-128.696 -164.515)" fill="none" stroke="#000" stroke-miterlimit="10" stroke-width="1"/>
            </g>
          </g>
          <g id="Group_444" data-name="Group 444">
            <g id="Group_443" data-name="Group 443" clip-path="url(#clip-path-3)">
              <path id="Path_6243" data-name="Path 6243" d="M144.653,165.9c-1.711-.106-3.124,1.495-3.978,3.1a1.19,1.19,0,0,1-.379.491.971.971,0,0,1-.74.019,18.481,18.481,0,0,1-8.67-5.047c-.948,2.681-2.347,8.874-2.347,8.874l21.605,4.443s2.72.076,1.358-2.084C149.016,171.756,144.653,165.9,144.653,165.9Z" transform="translate(-1.118 -1.431)" fill="none" stroke="#000" stroke-miterlimit="10" stroke-width="1"/>
              <path id="Path_6244" data-name="Path 6244" d="M97.146,161.05c-1.362-1.041-3.427-.5-5.032.359a1.187,1.187,0,0,1-.587.2.966.966,0,0,1-.626-.4,18.487,18.487,0,0,1-4.387-9.022c-2.28,1.7-6.894,6.06-6.894,6.06l15.463,15.73s2.217,1.579,2.289-.972c.133-4.657-.226-11.953-.226-11.953" transform="translate(-0.693 -1.324)" fill="#e099c7"/>
            </g>
          </g>
          <g id="Group_446" data-name="Group 446" transform="translate(78.926 150.862)">
            <g id="Group_445" data-name="Group 445" clip-path="url(#clip-path-14)">
              <path id="Path_6245" data-name="Path 6245" d="M67.242,159.236l24.824,20.824,5.776-5.7L75.352,151.488Z" transform="translate(-79.511 -152.18)" fill="#e099c7"/>
              <path id="Path_6246" data-name="Path 6246" d="M67.242,159.236l24.824,20.824,5.776-5.7L75.352,151.488Z" transform="translate(-79.511 -152.18)" fill="none" stroke="#000" stroke-miterlimit="10" stroke-width="1"/>
              <path id="Path_6247" data-name="Path 6247" d="M98.5,165.68a12.24,12.24,0,0,0-3.43.118.3.3,0,0,0-.208.367.305.305,0,0,0,.367.209,11.708,11.708,0,0,1,3.271-.1.3.3,0,0,0,.3-.3.306.306,0,0,0-.3-.3" transform="translate(-79.752 -152.303)" fill="#e099c7"/>
              <path id="Path_6248" data-name="Path 6248" d="M98.5,165.68a12.24,12.24,0,0,0-3.43.118.3.3,0,0,0-.208.367.305.305,0,0,0,.367.209,11.708,11.708,0,0,1,3.271-.1.3.3,0,0,0,.3-.3A.306.306,0,0,0,98.5,165.68Z" transform="translate(-79.752 -152.303)" fill="none" stroke="#000" stroke-miterlimit="10" stroke-width="1"/>
              <path id="Path_6249" data-name="Path 6249" d="M98.617,167.679a12.239,12.239,0,0,0-3.43.118.3.3,0,0,0-.208.367.305.305,0,0,0,.367.209,11.708,11.708,0,0,1,3.271-.1.3.3,0,0,0,.3-.3.306.306,0,0,0-.3-.3" transform="translate(-79.753 -152.32)" fill="#e099c7"/>
              <path id="Path_6250" data-name="Path 6250" d="M98.617,167.679a12.239,12.239,0,0,0-3.43.118.3.3,0,0,0-.208.367.305.305,0,0,0,.367.209,11.708,11.708,0,0,1,3.271-.1.3.3,0,0,0,.3-.3A.306.306,0,0,0,98.617,167.679Z" transform="translate(-79.753 -152.32)" fill="none" stroke="#000" stroke-miterlimit="10" stroke-width="1"/>
            </g>
          </g>
          <g id="Group_448" data-name="Group 448">
            <g id="Group_447" data-name="Group 447" clip-path="url(#clip-path-3)">
              <path id="Path_6252" data-name="Path 6252" d="M97.146,161.05c-1.362-1.041-3.427-.5-5.032.359a1.187,1.187,0,0,1-.587.2.966.966,0,0,1-.626-.4,18.487,18.487,0,0,1-4.387-9.022c-2.28,1.7-6.894,6.06-6.894,6.06l15.463,15.73s2.217,1.579,2.289-.972C97.505,168.346,97.146,161.05,97.146,161.05Z" transform="translate(-0.693 -1.324)" fill="none" stroke="#000" stroke-miterlimit="10" stroke-width="1"/>
              <path id="Path_6253" data-name="Path 6253" d="M312.4,44.427l-.825,6.131,1.887,8.372,2.412-10.448Z" transform="translate(-2.711 -0.387)" fill="#1d2d51"/>
              <path id="Path_6254" data-name="Path 6254" d="M291.448,57.247c-.071-.008-12.416.756-12.782-.5-.183-.629,2.088-1.464,3.676-1.905-2.046.192-6.9-2-6.605-2.883.05-.148,6.7.386,7.133.346-.8-.219-7.745.13-7.49-1.106.161-.777,5.317-.816,7.56-.909-1.683-.066-6.53-.525-6.8-1.61-.2-.827,6.533-.769,9.383-.7a8.908,8.908,0,0,1-2.659-1.175.551.551,0,0,1,.311-1.007,27.708,27.708,0,0,1,5.372.574c1.053.218,1.8.615,3.651,1.952l20.9-3.81s6.041,11.07,3.908,11.348c-4.3.562-25.532,1.422-25.567,1.383" transform="translate(-2.396 -0.387)" fill="#feb098"/>
              <path id="Path_6255" data-name="Path 6255" d="M282.742,46.789a9.38,9.38,0,0,0,2.09,1.218,10,10,0,0,0,1.1.384.706.706,0,0,1,.5.321,4.11,4.11,0,0,1,.184.511,4.533,4.533,0,0,0,2.728,2.664c.181.063.26-.225.079-.288a4.216,4.216,0,0,1-2.308-1.989c-.161-.3-.243-.622-.374-.933a.922.922,0,0,0-.656-.551,11.821,11.821,0,0,1-1.124-.384,9.232,9.232,0,0,1-2.072-1.21c-.152-.117-.3.142-.151.258" transform="translate(-2.459 -0.405)" fill="#1d2d51"/>
              <path id="Path_6256" data-name="Path 6256" d="M276.167,52l7.254.623c.191.017.19-.282,0-.3l-7.254-.623c-.191-.017-.19.283,0,.3" transform="translate(-2.401 -0.45)" fill="#1d2d51"/>
              <path id="Path_6257" data-name="Path 6257" d="M276.205,49.047a21.189,21.189,0,0,0,7.854,1.486c.192.011.191-.287,0-.3a20.815,20.815,0,0,1-7.7-1.445c-.172-.081-.325.176-.151.258" transform="translate(-2.402 -0.424)" fill="#1d2d51"/>
              <path id="Path_6258" data-name="Path 6258" d="M291.6,53.1a4.029,4.029,0,0,0-4.723,1.814.149.149,0,0,0,.258.151,3.73,3.73,0,0,1,4.386-1.677c.183.06.262-.228.079-.287" transform="translate(-2.496 -0.46)" fill="#1d2d51"/>
              <path id="Path_6259" data-name="Path 6259" d="M293.02,49.236a3.9,3.9,0,0,1-.029,2.123.149.149,0,0,0,.288.08,4.213,4.213,0,0,0,.03-2.283.15.15,0,0,0-.289.079" transform="translate(-2.549 -0.427)" fill="#1d2d51"/>
              <path id="Path_6260" data-name="Path 6260" d="M278.934,56.715c1.182-1.371,2.99-1.543,4.689-1.47.192.009.192-.29,0-.3-1.774-.076-3.669.129-4.9,1.557-.125.145.085.357.211.211" transform="translate(-2.425 -0.478)" fill="#1d2d51"/>
              <path id="Path_6261" data-name="Path 6261" d="M313.8,44.581c.049-.033-3.432.329-3.432.329.347,3.914.438,8.131.784,12.044a32.323,32.323,0,0,0,3.7-.654,40.987,40.987,0,0,1-.016-5.745Z" transform="translate(-2.7 -0.388)" fill="#e2e8ff"/>
              <path id="Path_6262" data-name="Path 6262" d="M335.193,21.939c-6.658,6.773-16.755,19.04-17.51,19.526-.831.534-15.622,3.732-21.3,4.535.024,3.184,1.064,14.5,1.064,14.5s26.077-2.81,27.244-3.264c1.951-.759,8.336-9.252,10.252-11.783,3.15-4.16,5-7.278,8.151-11.439Z" transform="translate(-2.579 -0.191)" fill="#a62973"/>
              <path id="Path_6263" data-name="Path 6263" d="M335.193,21.939c-6.658,6.773-16.755,19.04-17.51,19.526-.831.534-15.622,3.732-21.3,4.535.024,3.184,1.064,14.5,1.064,14.5s26.077-2.81,27.244-3.264c1.951-.759,8.336-9.252,10.252-11.783,3.15-4.16,5-7.278,8.151-11.439Z" transform="translate(-2.579 -0.191)" fill="none" stroke="#000" stroke-miterlimit="10" stroke-width="1"/>
              <path id="Path_6264" data-name="Path 6264" d="M318.208,161.006c1.26-4.208,4.23-14.876,4.257-14.469,3.111.949,6.131,4.316,8.895,6.031l-2.543,11.307a47.073,47.073,0,0,0-6.51-.888Z" transform="translate(-2.768 -1.275)" fill="#feb098"/>
              <path id="Path_6265" data-name="Path 6265" d="M318.208,161.006c1.26-4.208,4.23-14.876,4.257-14.469,3.111.949,6.131,4.316,8.895,6.031l-2.543,11.307a47.073,47.073,0,0,0-6.51-.888Z" transform="translate(-2.768 -1.275)" fill="none" stroke="#000" stroke-miterlimit="10" stroke-width="1"/>
              <path id="Path_6266" data-name="Path 6266" d="M329.917,158.732a3.557,3.557,0,0,0-4.092.389,3.771,3.771,0,0,1-1.127.9,2.223,2.223,0,0,1-1.013.049,12.191,12.191,0,0,1-4.18-1.3,1.045,1.045,0,0,0-1.558.249,16.746,16.746,0,0,1-8.252,4.3,5.065,5.065,0,0,0-4.068,4.457l-.009.094,22.42,2.414Z" transform="translate(-2.659 -1.377)" fill="#a62973"/>
            </g>
          </g>
          <g id="Group_450" data-name="Group 450" transform="translate(302.958 156.882)">
            <g id="Group_449" data-name="Group 449" clip-path="url(#clip-path-16)">
              <path id="Path_6267" data-name="Path 6267" d="M329.465,168.722q-5.346-.638-10.7-1.169-5.332-.526-10.675-.945-3.029-.236-6.06-.438c-.191-.013-.19.285,0,.3q5.372.358,10.736.826,5.338.465,10.667,1.04,3.02.326,6.036.686c.19.023.189-.276,0-.3" transform="translate(-305.585 -158.328)" fill="#a62973"/>
              <path id="Path_6268" data-name="Path 6268" d="M329.465,168.722q-5.346-.638-10.7-1.169-5.332-.526-10.675-.945-3.029-.236-6.06-.438c-.191-.013-.19.285,0,.3q5.372.358,10.736.826,5.338.465,10.667,1.04,3.02.326,6.036.686C329.655,169.043,329.654,168.744,329.465,168.722Z" transform="translate(-305.585 -158.328)" fill="none" stroke="#000" stroke-miterlimit="10" stroke-width="1"/>
              <path id="Path_6269" data-name="Path 6269" d="M310.047,166.781a6.509,6.509,0,0,0-.987-4.487c-.105-.16-.364-.011-.258.151a6.2,6.2,0,0,1,.958,4.257c-.028.188.261.27.287.079" transform="translate(-305.645 -158.294)" fill="#a62973"/>
              <path id="Path_6270" data-name="Path 6270" d="M310.047,166.781a6.509,6.509,0,0,0-.987-4.487c-.105-.16-.364-.011-.258.151a6.2,6.2,0,0,1,.958,4.257C309.732,166.89,310.02,166.971,310.047,166.781Z" transform="translate(-305.645 -158.294)" fill="none" stroke="#000" stroke-miterlimit="10" stroke-width="1"/>
              <path id="Path_6271" data-name="Path 6271" d="M326.1,168.355a5,5,0,0,1,4.363-2.387.149.149,0,0,0,0-.3,5.3,5.3,0,0,0-4.62,2.535.149.149,0,0,0,.258.151" transform="translate(-305.793 -158.323)" fill="#a62973"/>
              <path id="Path_6272" data-name="Path 6272" d="M326.1,168.355a5,5,0,0,1,4.363-2.387.149.149,0,0,0,0-.3,5.3,5.3,0,0,0-4.62,2.535A.149.149,0,0,0,326.1,168.355Z" transform="translate(-305.793 -158.323)" fill="none" stroke="#000" stroke-miterlimit="10" stroke-width="1"/>
              <path id="Path_6273" data-name="Path 6273" d="M312.209,161.646a4.039,4.039,0,0,0,1.473,1.372,6.5,6.5,0,0,0,1.924.941.683.683,0,0,0,.595-.04.506.506,0,0,0,.089-.491,7.045,7.045,0,0,0-.815-1.909,20.8,20.8,0,0,0-1.26-2.118c-.109-.157-.368-.007-.259.151.365.525.688,1.082,1,1.639a12.839,12.839,0,0,1,.93,1.916,1.666,1.666,0,0,1,.128.558c0,.045,0,.032-.029.037a.671.671,0,0,1-.241-.017,5.567,5.567,0,0,1-1.7-.79,7.684,7.684,0,0,1-.982-.71,2.34,2.34,0,0,1-.594-.689c-.085-.173-.343-.021-.258.151" transform="translate(-305.674 -158.268)" fill="#a62973"/>
              <path id="Path_6274" data-name="Path 6274" d="M312.209,161.646a4.039,4.039,0,0,0,1.473,1.372,6.5,6.5,0,0,0,1.924.941.683.683,0,0,0,.595-.04.506.506,0,0,0,.089-.491,7.045,7.045,0,0,0-.815-1.909,20.8,20.8,0,0,0-1.26-2.118c-.109-.157-.368-.007-.259.151.365.525.688,1.082,1,1.639a12.839,12.839,0,0,1,.93,1.916,1.666,1.666,0,0,1,.128.558c0,.045,0,.032-.029.037a.671.671,0,0,1-.241-.017,5.567,5.567,0,0,1-1.7-.79,7.684,7.684,0,0,1-.982-.71,2.34,2.34,0,0,1-.594-.689C312.381,161.323,312.124,161.474,312.209,161.646Z" transform="translate(-305.674 -158.268)" fill="none" stroke="#000" stroke-miterlimit="10" stroke-width="1"/>
              <path id="Path_6275" data-name="Path 6275" d="M314.923,160.045a4.032,4.032,0,0,0,1.473,1.372,6.49,6.49,0,0,0,1.924.941.683.683,0,0,0,.595-.04.506.506,0,0,0,.089-.491,7.047,7.047,0,0,0-.815-1.909,20.631,20.631,0,0,0-1.261-2.118c-.108-.157-.367-.007-.258.151.364.525.688,1.081,1,1.639a12.839,12.839,0,0,1,.93,1.916,1.673,1.673,0,0,1,.128.558c0,.045,0,.032-.029.037a.671.671,0,0,1-.241-.017,5.568,5.568,0,0,1-1.7-.79,7.681,7.681,0,0,1-.982-.71,2.339,2.339,0,0,1-.594-.689c-.085-.172-.343-.021-.258.151" transform="translate(-305.698 -158.254)" fill="#a62973"/>
              <path id="Path_6276" data-name="Path 6276" d="M314.923,160.045a4.032,4.032,0,0,0,1.473,1.372,6.49,6.49,0,0,0,1.924.941.683.683,0,0,0,.595-.04.506.506,0,0,0,.089-.491,7.047,7.047,0,0,0-.815-1.909,20.631,20.631,0,0,0-1.261-2.118c-.108-.157-.367-.007-.258.151.364.525.688,1.081,1,1.639a12.839,12.839,0,0,1,.93,1.916,1.673,1.673,0,0,1,.128.558c0,.045,0,.032-.029.037a.671.671,0,0,1-.241-.017,5.568,5.568,0,0,1-1.7-.79,7.681,7.681,0,0,1-.982-.71,2.339,2.339,0,0,1-.594-.689C315.1,159.722,314.838,159.873,314.923,160.045Z" transform="translate(-305.698 -158.254)" fill="none" stroke="#000" stroke-miterlimit="10" stroke-width="1"/>
            </g>
          </g>
          <g id="Group_452" data-name="Group 452">
            <g id="Group_451" data-name="Group 451" clip-path="url(#clip-path-3)">
              <path id="Path_6278" data-name="Path 6278" d="M329.917,158.732a3.557,3.557,0,0,0-4.092.389,3.771,3.771,0,0,1-1.127.9,2.223,2.223,0,0,1-1.013.049,12.191,12.191,0,0,1-4.18-1.3,1.045,1.045,0,0,0-1.558.249,16.746,16.746,0,0,1-8.252,4.3,5.065,5.065,0,0,0-4.068,4.457l-.009.094,22.42,2.414Z" transform="translate(-2.659 -1.377)" fill="none" stroke="#000" stroke-miterlimit="10" stroke-width="1"/>
              <path id="Path_6279" data-name="Path 6279" d="M407.063,88.874c-3.247,2.959-11.283,10.577-11.1,10.214-2.179-2.415-3.035-6.856-4.522-9.748l8-8.385a47.063,47.063,0,0,0,5.124,4.112Z" transform="translate(-3.406 -0.704)" fill="#feb098"/>
              <path id="Path_6280" data-name="Path 6280" d="M407.063,88.874c-3.247,2.959-11.283,10.577-11.1,10.214-2.179-2.415-3.035-6.856-4.522-9.748l8-8.385a47.063,47.063,0,0,0,5.124,4.112Z" transform="translate(-3.406 -0.704)" fill="none" stroke="#000" stroke-miterlimit="10" stroke-width="1"/>
              <path id="Path_6281" data-name="Path 6281" d="M395.744,84.785a3.558,3.558,0,0,0,3.708,1.773,3.779,3.779,0,0,1,1.427-.188,2.2,2.2,0,0,1,.893.48,12.181,12.181,0,0,1,2.914,3.266,1.443,1.443,0,0,0,.53.6,1.424,1.424,0,0,0,.934-.01,16.751,16.751,0,0,1,9.288.56,5.065,5.065,0,0,0,5.782-1.727l.056-.076L403.3,75.853Z" transform="translate(-3.443 -0.66)" fill="#a62973"/>
            </g>
          </g>
          <g id="Group_454" data-name="Group 454" transform="translate(392.3 75.193)">
            <g id="Group_453" data-name="Group 453" clip-path="url(#clip-path-18)">
              <path id="Path_6282" data-name="Path 6282" d="M401.229,76.475q4.233,3.282,8.531,6.479,4.342,3.228,8.75,6.366,2.47,1.759,4.96,3.488c.159.11.308-.149.151-.258q-4.4-3.059-8.743-6.208-4.321-3.133-8.577-6.355-2.442-1.848-4.861-3.724c-.15-.116-.363.093-.211.211" transform="translate(-395.79 -75.856)" fill="#a62973"/>
              <path id="Path_6283" data-name="Path 6283" d="M401.229,76.475q4.233,3.282,8.531,6.479,4.342,3.228,8.75,6.366,2.47,1.759,4.96,3.488c.159.11.308-.149.151-.258q-4.4-3.059-8.743-6.208-4.321-3.133-8.577-6.355-2.442-1.848-4.861-3.724C401.29,76.148,401.077,76.357,401.229,76.475Z" transform="translate(-395.79 -75.856)" fill="none" stroke="#000" stroke-miterlimit="10" stroke-width="1"/>
              <path id="Path_6284" data-name="Path 6284" d="M417.1,88.264a6.5,6.5,0,0,0-1.46,4.354c.008.192.306.192.3,0a6.194,6.194,0,0,1,1.373-4.143c.12-.148-.09-.36-.211-.211" transform="translate(-395.916 -75.961)" fill="#a62973"/>
              <path id="Path_6285" data-name="Path 6285" d="M417.1,88.264a6.5,6.5,0,0,0-1.46,4.354c.008.192.306.192.3,0a6.194,6.194,0,0,1,1.373-4.143C417.43,88.327,417.22,88.115,417.1,88.264Z" transform="translate(-395.916 -75.961)" fill="none" stroke="#000" stroke-miterlimit="10" stroke-width="1"/>
              <path id="Path_6286" data-name="Path 6286" d="M404.112,78.668a5,5,0,0,1-4.967-.2c-.163-.1-.312.155-.151.258a5.306,5.306,0,0,0,5.269.2c.169-.09.019-.348-.151-.258" transform="translate(-395.771 -75.876)" fill="#a62973"/>
              <path id="Path_6287" data-name="Path 6287" d="M404.112,78.668a5,5,0,0,1-4.967-.2c-.163-.1-.312.155-.151.258a5.306,5.306,0,0,0,5.269.2C404.432,78.836,404.281,78.578,404.112,78.668Z" transform="translate(-395.771 -75.876)" fill="none" stroke="#000" stroke-miterlimit="10" stroke-width="1"/>
              <path id="Path_6288" data-name="Path 6288" d="M412.59,91.538a4.088,4.088,0,0,0-.567-1.954,6.307,6.307,0,0,0-1.177-1.8.684.684,0,0,0-.484-.255c-.2.018-.3.222-.358.39a7.109,7.109,0,0,0-.279,2.013,21.011,21.011,0,0,0-.012,2.5c.013.19.311.192.3,0-.041-.624-.034-1.251-.015-1.875a13.481,13.481,0,0,1,.182-2.124,1.6,1.6,0,0,1,.182-.579c.029-.043.017-.031.043-.023a.558.558,0,0,1,.194.132,5.473,5.473,0,0,1,1.067,1.573,4.1,4.1,0,0,1,.625,2c-.016.191.283.19.3,0" transform="translate(-395.864 -75.955)" fill="#a62973"/>
              <path id="Path_6289" data-name="Path 6289" d="M412.59,91.538a4.088,4.088,0,0,0-.567-1.954,6.307,6.307,0,0,0-1.177-1.8.684.684,0,0,0-.484-.255c-.2.018-.3.222-.358.39a7.109,7.109,0,0,0-.279,2.013,21.011,21.011,0,0,0-.012,2.5c.013.19.311.192.3,0-.041-.624-.034-1.251-.015-1.875a13.481,13.481,0,0,1,.182-2.124,1.6,1.6,0,0,1,.182-.579c.029-.043.017-.031.043-.023a.558.558,0,0,1,.194.132,5.473,5.473,0,0,1,1.067,1.573,4.1,4.1,0,0,1,.625,2C412.276,91.729,412.575,91.728,412.59,91.538Z" transform="translate(-395.864 -75.955)" fill="none" stroke="#000" stroke-miterlimit="10" stroke-width="1"/>
              <path id="Path_6290" data-name="Path 6290" d="M409.441,91.513a4.085,4.085,0,0,0-.567-1.953,6.3,6.3,0,0,0-1.177-1.8.679.679,0,0,0-.484-.255c-.2.018-.3.222-.358.39a7.1,7.1,0,0,0-.279,2.012,20.8,20.8,0,0,0-.011,2.5c.012.19.31.191.3,0-.041-.624-.034-1.251-.015-1.876a13.473,13.473,0,0,1,.182-2.123,1.582,1.582,0,0,1,.182-.579c.029-.043.017-.032.043-.024a.539.539,0,0,1,.194.133,5.483,5.483,0,0,1,1.067,1.572,4.09,4.09,0,0,1,.625,2c-.016.192.283.191.3,0" transform="translate(-395.837 -75.954)" fill="#a62973"/>
              <path id="Path_6291" data-name="Path 6291" d="M409.441,91.513a4.085,4.085,0,0,0-.567-1.953,6.3,6.3,0,0,0-1.177-1.8.679.679,0,0,0-.484-.255c-.2.018-.3.222-.358.39a7.1,7.1,0,0,0-.279,2.012,20.8,20.8,0,0,0-.011,2.5c.012.19.31.191.3,0-.041-.624-.034-1.251-.015-1.876a13.473,13.473,0,0,1,.182-2.123,1.582,1.582,0,0,1,.182-.579c.029-.043.017-.032.043-.024a.539.539,0,0,1,.194.133,5.483,5.483,0,0,1,1.067,1.572,4.09,4.09,0,0,1,.625,2C409.126,91.705,409.426,91.7,409.441,91.513Z" transform="translate(-395.837 -75.954)" fill="none" stroke="#000" stroke-miterlimit="10" stroke-width="1"/>
            </g>
          </g>
          <g id="Group_459" data-name="Group 459">
            <g id="Group_458" data-name="Group 458" clip-path="url(#clip-path-3)">
              <path id="Path_6293" data-name="Path 6293" d="M395.744,84.785a3.558,3.558,0,0,0,3.708,1.773,3.779,3.779,0,0,1,1.427-.188,2.2,2.2,0,0,1,.893.48,12.181,12.181,0,0,1,2.914,3.266,1.443,1.443,0,0,0,.53.6,1.424,1.424,0,0,0,.934-.01,16.751,16.751,0,0,1,9.288.56,5.065,5.065,0,0,0,5.782-1.727l.056-.076L403.3,75.853Z" transform="translate(-3.443 -0.66)" fill="none" stroke="#000" stroke-miterlimit="10" stroke-width="1"/>
              <path id="Path_6294" data-name="Path 6294" d="M367,50.5l-25.193.327L318.677,152.748l20.521,4.107,14.682-69.93L365.5,120.3c3.439,5.535,14.105,5.148,18.4.247l24.139-21.427L393.993,85.027,379.215,98.989Z" transform="translate(-2.773 -0.439)" fill="#672376"/>
              <path id="Path_6295" data-name="Path 6295" d="M367,50.5l-25.193.327L318.677,152.748l20.521,4.107,14.682-69.93L365.5,120.3c3.439,5.535,14.105,5.148,18.4.247l24.139-21.427L393.993,85.027,379.215,98.989Z" transform="translate(-2.773 -0.439)" fill="none" stroke="#000" stroke-miterlimit="10" stroke-width="1"/>
              <path id="Path_6296" data-name="Path 6296" d="M358.327,25.359c.253-1.381.481-3.132.026-3.059a23.964,23.964,0,0,1-5.074.194c-3.1-.577-4.051-1.407-4.307-1.283-.483.233-.656,1.894-.719,3.149a1.4,1.4,0,0,1-.187-.151c-1.453-1.646-5.65-.038-6.553-2.037-1.064-2.355-7.158,7.176-4.661,14.115a10.447,10.447,0,0,1,.836,3.694c-.02.977-.31,1.931-.371,2.906-.136,2.192,5.574,19.925,6,22.548.077.474,23.305,0,23.305,0,.668-2.474,2.277-21.7,2.519-24.014a8.716,8.716,0,0,1,.464-2.453,8.219,8.219,0,0,1,1.4-2.043c4.687-5.615-6.378-15.873-12.679-11.564" transform="translate(-2.926 -0.184)" fill="#fff"/>
              <path id="Path_6297" data-name="Path 6297" d="M358.327,25.359c.253-1.381.481-3.132.026-3.059a23.964,23.964,0,0,1-5.074.194c-3.1-.577-4.051-1.407-4.307-1.283-.483.233-.656,1.894-.719,3.149a1.4,1.4,0,0,1-.187-.151c-1.453-1.646-5.65-.038-6.553-2.037-1.064-2.355-7.158,7.176-4.661,14.115a10.447,10.447,0,0,1,.836,3.694c-.02.977-.31,1.931-.371,2.906-.136,2.192,5.574,19.925,6,22.548.077.474,23.305,0,23.305,0,.668-2.474,2.277-21.7,2.519-24.014a8.716,8.716,0,0,1,.464-2.453,8.219,8.219,0,0,1,1.4-2.043C375.693,31.308,364.628,21.05,358.327,25.359Z" transform="translate(-2.926 -0.184)" fill="none" stroke="#000" stroke-miterlimit="10" stroke-width="1"/>
              <path id="Path_6298" data-name="Path 6298" d="M357.752,60.067l1.218-35.561s13.1-2.924,13.959,3.57l.7,7.763,2.267,40-4.384-.094c-8.062-.094-14.036-7.621-13.759-15.679" transform="translate(-3.112 -0.207)" fill="#a62973"/>
              <path id="Path_6299" data-name="Path 6299" d="M357.752,60.067l1.218-35.561s13.1-2.924,13.959,3.57l.7,7.763,2.267,40-4.384-.094C363.449,75.652,357.475,68.125,357.752,60.067Z" transform="translate(-3.112 -0.207)" fill="none" stroke="#000" stroke-miterlimit="10" stroke-width="1"/>
              <path id="Path_6300" data-name="Path 6300" d="M362.845,5.075c.2-.193.863.719.954.854a4.043,4.043,0,0,1,.517,1.094,3.869,3.869,0,0,1-.119,2.531,4.895,4.895,0,0,1-1.663,2,2.608,2.608,0,0,0-1.214,1.958.149.149,0,0,0,.3,0c-.008-.825.671-1.385,1.262-1.854a4.93,4.93,0,0,0,1.462-1.691,4.211,4.211,0,0,0-.918-4.927c-.213-.2-.532-.42-.79-.171-.139.134.072.345.211.211" transform="translate(-3.144 -0.041)"/>
              <path id="Path_6301" data-name="Path 6301" d="M335.483,21.928c3.908-3.515,12.437,1.822,12.437,1.822l.113.215L346.447,59.9a14.372,14.372,0,0,1-14.309,13.736l-2.454.008,3.765-39.519Z" transform="translate(-2.868 -0.18)" fill="#a62973"/>
              <path id="Path_6302" data-name="Path 6302" d="M335.483,21.928c3.908-3.515,12.437,1.822,12.437,1.822l.113.215L346.447,59.9a14.372,14.372,0,0,1-14.309,13.736l-2.454.008,3.765-39.519Z" transform="translate(-2.868 -0.18)" fill="none" stroke="#000" stroke-miterlimit="10" stroke-width="1"/>
              <path id="Path_6303" data-name="Path 6303" d="M354.827,8.657a1.106,1.106,0,0,0,.667.387c.254.057.516.066.772.116.312.059.611.178.922.244.387.08.877.025,1.041-.335a.712.712,0,0,0-.207-.775,2.155,2.155,0,0,0-.754-.391c-2.136-.8-2.642.474-2.441.754" transform="translate(-3.087 -0.066)"/>
              <path id="Path_6304" data-name="Path 6304" d="M352.767,7.513a1.105,1.105,0,0,1-.651.413c-.251.067-.513.087-.766.147-.31.072-.6.2-.912.282-.383.1-.875.059-1.053-.292a.71.71,0,0,1,.176-.783,2.155,2.155,0,0,1,.738-.421c2.1-.888,2.658.367,2.468.655" transform="translate(-3.039 -0.057)"/>
              <path id="Path_6305" data-name="Path 6305" d="M360.429,14.9a2.2,2.2,0,0,0-1.185,1.09l.274.115a.253.253,0,0,1,.23-.171.376.376,0,0,1,.332.111c.214.256-.119.638-.4.656-.191.011-.192.31,0,.3a.815.815,0,0,0,.658-.417.649.649,0,0,0-.04-.735.641.641,0,0,0-1.074.177c-.045.159.2.272.274.115a1.9,1.9,0,0,1,1.005-.954.153.153,0,0,0,.1-.183.15.15,0,0,0-.183-.1" transform="translate(-3.125 -0.13)"/>
              <path id="Path_6306" data-name="Path 6306" d="M361.443,14.881A10.217,10.217,0,0,1,362.4,11.7a21.623,21.623,0,0,0,1.862-3.755c.362-1.352,0-3.059-1.286-3.638a1.949,1.949,0,0,0-.663-1.915,4.8,4.8,0,0,0-1.913-.931,9.449,9.449,0,0,0-2.531-.434,30.211,30.211,0,0,1-3.248.125,11.154,11.154,0,0,1-2.173-.6A8.008,8.008,0,0,0,349.091.03,3.526,3.526,0,0,0,346.3,1.754a2.271,2.271,0,0,0,.78,2.972,6.774,6.774,0,0,1,1.034.491,9.426,9.426,0,0,1,.663.726c.76.73,2,.56,3.01.262a4.4,4.4,0,0,1,3.087-.212,5.9,5.9,0,0,0,.787.4c.844.256,1.7-.476,2.574-.418a1.878,1.878,0,0,1,1.58,1.5,3.848,3.848,0,0,1-.312,2.273c-.292.721-.681,1.4-.922,2.142a5.732,5.732,0,0,0-.078,3.26,1.6,1.6,0,0,1,2.487-.639Z" transform="translate(-3.011 0)"/>
              <g id="Group_457" data-name="Group 457" transform="translate(347.699 19.357)" opacity="0.41">
                <g id="Group_456" data-name="Group 456">
                  <g id="Group_455" data-name="Group 455" clip-path="url(#clip-path-20)">
                    <path id="Path_6307" data-name="Path 6307" d="M350.913,19.527l4.35.17a40.777,40.777,0,0,0-4.512.831Z" transform="translate(-350.751 -19.527)" fill="#d1826d"/>
                  </g>
                </g>
              </g>
              <path id="Path_6308" data-name="Path 6308" d="M357.741,26.038a11.511,11.511,0,0,1-8.821-.791c-.171-.09-.321.168-.151.258a11.812,11.812,0,0,0,9.051.821c.182-.057.1-.346-.079-.287" transform="translate(-3.034 -0.219)"/>
              <path id="Path_6309" data-name="Path 6309" d="M358.323,22.067a13.868,13.868,0,0,1-8.4-.588c-.225-.1-.442-.21-.667-.307-.174-.075-.327.181-.151.258a17.744,17.744,0,0,0,1.815.731,13.575,13.575,0,0,0,4.224.59,16.06,16.06,0,0,0,3.254-.4c.187-.041.108-.329-.079-.287" transform="translate(-3.037 -0.184)" fill="#1d2d51"/>
              <path id="Path_6310" data-name="Path 6310" d="M358.323,22.067a13.868,13.868,0,0,1-8.4-.588c-.225-.1-.442-.21-.667-.307-.174-.075-.327.181-.151.258a17.744,17.744,0,0,0,1.815.731,13.575,13.575,0,0,0,4.224.59,16.06,16.06,0,0,0,3.254-.4C358.59,22.314,358.511,22.025,358.323,22.067Z" transform="translate(-3.037 -0.184)" fill="none" stroke="#000" stroke-miterlimit="10" stroke-width="1"/>
              <path id="Path_6311" data-name="Path 6311" d="M336.971,69.6a11.978,11.978,0,0,1-4.431.027,4.136,4.136,0,0,1-2.965-1.688,4.715,4.715,0,0,1-.417-2.5,51.4,51.4,0,0,1,1.3-10.26l7.188.4Z" transform="translate(-2.864 -0.48)" fill="#ff6237"/>
              <path id="Path_6312" data-name="Path 6312" d="M330.756,55.352c2.207.2,4.413.471,6.608.779.406.057.813.116,1.217.186.128.022.256.044.383.072.037.009.075.022.112.028.062.01.032.027.014-.011-.029-.061-.034-.069-.034-.028s0,.1.006.153c0,.176,0,.353,0,.529a26.957,26.957,0,0,1-.455,4.116,15.6,15.6,0,0,1-1.692,5.016,4.284,4.284,0,0,1-4.3,2.64c-.191-.013-.19.285,0,.3a4.3,4.3,0,0,0,2.4-.514,5.472,5.472,0,0,0,1.753-1.639,13.562,13.562,0,0,0,2-5.051,27.674,27.674,0,0,0,.588-4.567,5.745,5.745,0,0,0,.008-1.011c-.02-.144-.1-.19-.232-.229a7.567,7.567,0,0,0-.869-.158c-2.264-.352-4.546-.616-6.825-.845q-.336-.034-.67-.064c-.192-.018-.191.282,0,.3" transform="translate(-2.876 -0.479)" fill="#1d2d51"/>
              <path id="Path_6313" data-name="Path 6313" d="M374.511,55.989c-1.337-.163-2.68-.287-4.023-.407-1.272-.113-2.547-.232-3.823-.286-.174-.007-.6-.09-.744.053a.518.518,0,0,0-.089.263c-.091.459-.144.928-.191,1.393a24.445,24.445,0,0,0,0,5.165,11.55,11.55,0,0,0,1.863,5.55,6.017,6.017,0,0,0,2.12,1.847,6.821,6.821,0,0,0,3.163.684c.318,0,.636-.024.954-.057.189-.02.191-.319,0-.3a7.536,7.536,0,0,1-3.372-.327A5.555,5.555,0,0,1,368.106,68a10.077,10.077,0,0,1-2.087-5.208,23.244,23.244,0,0,1-.13-5.236c.043-.536.1-1.073.184-1.6.021-.131.053-.26.074-.39.013-.08-.005-.047-.043.018-.013.022-.041,0,.019.007s.117,0,.175,0c1.081.007,2.167.124,3.244.215,1.394.117,2.787.246,4.177.4.264.029.526.058.79.09.19.024.188-.276,0-.3" transform="translate(-3.18 -0.481)"/>
              <path id="Path_6314" data-name="Path 6314" d="M331.616,51.334l-.361,7.028,2.77,7.269,1.507-10.43Z" transform="translate(-2.882 -0.447)" fill="#1d2d51"/>
              <path id="Path_6315" data-name="Path 6315" d="M346.965,23.751c-.781,1.478-1.609,2.941-2.339,4.445A5.459,5.459,0,0,0,344,30.239a2.657,2.657,0,0,0,.6,1.792c.341.448.849.927.877,1.526a1.9,1.9,0,0,1-.422,1.061c-.205.327-.407.657-.587,1a5.354,5.354,0,0,0-.653,2.108,7.174,7.174,0,0,0,.285,2.3,27.717,27.717,0,0,0,1.889,5.021c.084.172.342.022.258-.151a28.788,28.788,0,0,1-1.694-4.365,9.074,9.074,0,0,1-.448-2.339,4.747,4.747,0,0,1,.54-2.262c.166-.332.355-.653.55-.969a4.689,4.689,0,0,0,.506-.912,1.671,1.671,0,0,0-.363-1.548,4.765,4.765,0,0,1-.98-1.569,3.488,3.488,0,0,1,.331-2.158c.347-.815.8-1.588,1.212-2.371q.66-1.248,1.319-2.5c.09-.17-.168-.321-.258-.151" transform="translate(-2.991 -0.206)"/>
              <path id="Path_6316" data-name="Path 6316" d="M359.754,24.6l2.2,3.751c.346.591.8,1.192.572,1.909a3.409,3.409,0,0,1-1.215,1.476c-.148.123.064.333.211.211a3.846,3.846,0,0,0,1.25-1.489,2.026,2.026,0,0,0-.31-1.832q-1.221-2.091-2.449-4.177a.149.149,0,0,0-.258.151" transform="translate(-3.13 -0.212)"/>
              <path id="Path_6317" data-name="Path 6317" d="M336.479,38.554a33.976,33.976,0,0,0,6.342.088c.19-.015.192-.313,0-.3a33.977,33.977,0,0,1-6.342-.088c-.191-.021-.189.278,0,.3" transform="translate(-2.926 -0.333)"/>
              <path id="Path_6318" data-name="Path 6318" d="M118.748,60.218a70.322,70.322,0,0,1,6.17-14.341l.8-9.81a11.11,11.11,0,0,0-10.166,2.5c-2.6,2.267-4.11,5.371-5.4,8.468a71.189,71.189,0,0,0-4.143,13.177,1,1,0,0,0,.032.755c.012.019.035.029.048.047-.437,3.934-.127,9.39,6.456,11.468a63.6,63.6,0,0,0,10.535,2.688c.628-3.4,2.451-8.5,3.08-11.9a58.623,58.623,0,0,1-7.408-3.046" transform="translate(-0.922 -0.31)" fill="#fff"/>
              <path id="Path_6319" data-name="Path 6319" d="M118.748,60.218a70.322,70.322,0,0,1,6.17-14.341l.8-9.81a11.11,11.11,0,0,0-10.166,2.5c-2.6,2.267-4.11,5.371-5.4,8.468a71.189,71.189,0,0,0-4.143,13.177,1,1,0,0,0,.032.755c.012.019.035.029.048.047-.437,3.934-.127,9.39,6.456,11.468a63.6,63.6,0,0,0,10.535,2.688c.628-3.4,2.451-8.5,3.08-11.9A58.623,58.623,0,0,1,118.748,60.218Z" transform="translate(-0.922 -0.31)" fill="none" stroke="#000" stroke-miterlimit="10" stroke-width="1"/>
              <path id="Path_6320" data-name="Path 6320" d="M315.388,44.144,316.61,55.01q.173,1.53.344,3.062c.022.188.32.191.3,0l-1.222-10.867-.345-3.062c-.021-.189-.32-.191-.3,0" transform="translate(-2.744 -0.383)" fill="#1d2d51"/>
              <path id="Path_6321" data-name="Path 6321" d="M352.673,9.185a4.528,4.528,0,0,1-1.93,3.538.151.151,0,0,0,0,.211,3.468,3.468,0,0,0,1.4.961c.18.067.259-.221.079-.287a3.165,3.165,0,0,1-1.272-.884v.211a4.791,4.791,0,0,0,2.017-3.749c-.009-.191-.308-.192-.3,0" transform="translate(-3.051 -0.079)"/>
              <path id="Path_6322" data-name="Path 6322" d="M357.495,11.019a1.862,1.862,0,0,0-2.769.648,1.862,1.862,0,0,0,2.769-.648" transform="translate(-3.086 -0.093)" fill="#fff"/>
            </g>
          </g>
          <g id="Group_461" data-name="Group 461" transform="translate(351.64 10.568)">
            <g id="Group_460" data-name="Group 460" clip-path="url(#clip-path-21)">
              <path id="Path_6323" data-name="Path 6323" d="M356.595,12.215a1.052,1.052,0,1,0-1.448.339,1.052,1.052,0,0,0,1.448-.339" transform="translate(-354.725 -10.661)"/>
            </g>
          </g>
          <g id="Group_463" data-name="Group 463">
            <g id="Group_462" data-name="Group 462" clip-path="url(#clip-path-3)">
              <path id="Path_6325" data-name="Path 6325" d="M356.676,10.083a1.874,1.874,0,0,0-1.73.413c-.144.129.068.339.211.211a1.568,1.568,0,0,1,1.439-.337.149.149,0,0,0,.079-.287" transform="translate(-3.088 -0.087)"/>
              <path id="Path_6326" data-name="Path 6326" d="M351.628,10.9a2.268,2.268,0,0,0-1.063-1.152A2.267,2.267,0,0,0,349,9.818a2.265,2.265,0,0,0,1.062,1.153,2.266,2.266,0,0,0,1.566-.068" transform="translate(-3.036 -0.084)" fill="#fff"/>
            </g>
          </g>
          <g id="Group_465" data-name="Group 465" transform="translate(345.963 9.549)">
            <g id="Group_464" data-name="Group 464" clip-path="url(#clip-path-23)">
              <path id="Path_6327" data-name="Path 6327" d="M350.2,11.349a1.052,1.052,0,1,0-1.375-.567,1.052,1.052,0,0,0,1.375.567" transform="translate(-348.997 -9.63)"/>
            </g>
          </g>
          <g id="Group_467" data-name="Group 467">
            <g id="Group_466" data-name="Group 466" clip-path="url(#clip-path-3)">
              <path id="Path_6329" data-name="Path 6329" d="M351.5,9.652a1.856,1.856,0,0,0-1.613-.661.153.153,0,0,0-.149.149.15.15,0,0,0,.149.15,1.586,1.586,0,0,1,1.4.574.151.151,0,0,0,.211,0,.154.154,0,0,0,0-.211" transform="translate(-3.043 -0.078)"/>
              <path id="Path_6330" data-name="Path 6330" d="M352.75,14.841a2.387,2.387,0,0,0,1.331-.737.152.152,0,0,0,0-.211.15.15,0,0,0-.21,0,2.128,2.128,0,0,1-1.2.66.15.15,0,0,0-.1.183.153.153,0,0,0,.183.1" transform="translate(-3.067 -0.121)"/>
              <path id="Path_6331" data-name="Path 6331" d="M309.932,30.307a4.273,4.273,0,0,1,5.047,3.863,34.841,34.841,0,0,0,13.248,25.721c4.106,3.24,8.993,5.689,12.4,9.566,4.235,4.815,6.593,12.663,6.593,12.663L139.9,86.388s1.123-9.8,4.237-13.694a28.76,28.76,0,0,1,2.667-2.857c3.584-3.408,8.014-6.386,10.125-10.877,1.823-3.875,2.847-8.1,4.49-12.049,2.441-5.869,5.927-10.907,12.713-12.794a32.2,32.2,0,0,1,5.916-1c1.47-.124,2.942-.164,4.417-.193l26.056-.536c34.657-.714,64.753-1.372,99.41-2.086" transform="translate(-1.217 -0.263)" fill="#fff"/>
            </g>
          </g>
          <g id="Group_469" data-name="Group 469" transform="translate(138.683 29.99)">
            <g id="Group_468" data-name="Group 468" clip-path="url(#clip-path-25)">
              <path id="Path_6332" data-name="Path 6332" d="M207.043,31.368c-5.061.793-8.683,5.233-10.076,9.835s-1.081,9.472-1.356,14.243-1.3,9.808-4.774,13.335c-2.328,2.363-5.583,3.861-7.659,6.419-3.441,4.242-2.775,10.133-1.946,15.382l-39.862,4.495c-1.056.119-2.28.186-3.015-.527a3.083,3.083,0,0,1-.717-1.6c-1.994-8.682-3-18.29,1.8-25.985,2.764-4.432,7.249-7.837,9.594-12.474s2.316-10.069,4.6-14.734c3.776-7.7,12.953-11.705,21.708-13.95A106.958,106.958,0,0,1,199.613,22.5Z" transform="translate(-139.866 -30.186)" fill="#e5e5e5"/>
              <path id="Path_6333" data-name="Path 6333" d="M207.043,31.368c-5.061.793-8.683,5.233-10.076,9.835s-1.081,9.472-1.356,14.243-1.3,9.808-4.774,13.335c-2.328,2.363-5.583,3.861-7.659,6.419-3.441,4.242-2.775,10.133-1.946,15.382l-39.862,4.495c-1.056.119-2.28.186-3.015-.527a3.083,3.083,0,0,1-.717-1.6c-1.994-8.682-3-18.29,1.8-25.985,2.764-4.432,7.249-7.837,9.594-12.474s2.316-10.069,4.6-14.734c3.776-7.7,12.953-11.705,21.708-13.95A106.958,106.958,0,0,1,199.613,22.5Z" transform="translate(-139.866 -30.186)" fill="none" stroke="#000" stroke-miterlimit="10" stroke-width="1"/>
            </g>
          </g>
          <g id="Group_471" data-name="Group 471">
            <g id="Group_470" data-name="Group 470" clip-path="url(#clip-path-3)">
              <path id="Path_6335" data-name="Path 6335" d="M309.932,30.307a4.273,4.273,0,0,1,5.047,3.863,34.841,34.841,0,0,0,13.248,25.721c4.106,3.24,8.993,5.689,12.4,9.566,4.235,4.815,6.593,12.663,6.593,12.663L139.9,86.388s1.123-9.8,4.237-13.694a28.76,28.76,0,0,1,2.667-2.857c3.584-3.408,8.014-6.386,10.125-10.877,1.823-3.875,2.847-8.1,4.49-12.049,2.441-5.869,5.927-10.907,12.713-12.794a32.2,32.2,0,0,1,5.916-1c1.47-.124,2.942-.164,4.417-.193l26.056-.536C245.179,31.678,275.275,31.02,309.932,30.307Z" transform="translate(-1.217 -0.263)" fill="none" stroke="#000" stroke-miterlimit="10" stroke-width="1"/>
              <path id="Path_6336" data-name="Path 6336" d="M143.781,79.42c.068,0,11.564,2.639,12.1,1.512.27-.563-1.737-1.7-3.162-2.362,1.894.5,6.8-.811,6.661-1.687-.024-.148-6.359-.677-6.765-.782.79-.081,7.266,1.324,7.219.122-.03-.756-4.876-1.593-6.971-2.028,1.593.2,6.225.518,6.643-.461.318-.746-6.026-1.737-8.719-2.111a8.474,8.474,0,0,0,2.683-.692.525.525,0,0,0-.136-1,26.422,26.422,0,0,0-5.143-.293,8.615,8.615,0,0,0-3.738,1.27l-19.077-6.829s-7.4,9.477-5.437,10.071c3.96,1.2,23.8,5.3,23.839,5.269" transform="translate(-1.041 -0.558)" fill="#feb098"/>
              <path id="Path_6337" data-name="Path 6337" d="M143.781,79.42c.068,0,11.564,2.639,12.1,1.512.27-.563-1.737-1.7-3.162-2.362,1.894.5,6.8-.811,6.661-1.687-.024-.148-6.359-.677-6.765-.782.79-.081,7.266,1.324,7.219.122-.03-.756-4.876-1.593-6.971-2.028,1.593.2,6.225.518,6.643-.461.318-.746-6.026-1.737-8.719-2.111a8.474,8.474,0,0,0,2.683-.692.525.525,0,0,0-.136-1,26.422,26.422,0,0,0-5.143-.293,8.615,8.615,0,0,0-3.738,1.27l-19.077-6.829s-7.4,9.477-5.437,10.071C123.9,75.348,143.742,79.451,143.781,79.42Z" transform="translate(-1.041 -0.558)" fill="none" stroke="#000" stroke-linecap="square" stroke-linejoin="bevel" stroke-width="1"/>
              <path id="Path_6338" data-name="Path 6338" d="M118.045,60.466a20.847,20.847,0,0,0-5.718,4.542.149.149,0,0,0,.211.211,20.618,20.618,0,0,1,5.657-4.5c.174-.081.023-.339-.151-.258" transform="translate(-0.977 -0.526)"/>
              <path id="Path_6339" data-name="Path 6339" d="M119.115,61.019q-1.777,5.954-3.176,12.01c-.043.187.245.268.288.079q1.4-6.053,3.175-12.01a.149.149,0,0,0-.287-.079" transform="translate(-1.009 -0.53)"/>
              <path id="Path_6340" data-name="Path 6340" d="M118.207,70.817a.617.617,0,0,1,.247.143.542.542,0,0,1,.08.1.566.566,0,0,1,.051.14.651.651,0,0,1,0,.148.676.676,0,0,1-.054.176.608.608,0,0,1-.267.278.481.481,0,0,1-.546-.1.469.469,0,0,1-.16-.285.553.553,0,0,1,.05-.31.559.559,0,0,1,.25-.261.465.465,0,0,1,.347-.037.15.15,0,0,0,.079-.288.823.823,0,1,0,0,1.59.9.9,0,0,0,.6-.844.811.811,0,0,0-.6-.746c-.184-.056-.263.233-.079.288" transform="translate(-1.02 -0.613)" fill="#1d2d51"/>
              <path id="Path_6341" data-name="Path 6341" d="M327.45,61.284c-.071-.006-12.392,1.079-12.791-.17-.2-.625,2.049-1.518,3.625-2-2.04.245-6.95-1.82-6.677-2.71.046-.15,6.7.211,7.139.161-.809-.2-7.739.33-7.516-.911.14-.782,5.295-.955,7.533-1.106-1.683-.023-6.541-.356-6.834-1.432-.224-.822,6.51-.939,9.361-.94a8.933,8.933,0,0,1-2.688-1.105.551.551,0,0,1,.285-1.016,27.779,27.779,0,0,1,5.385.435c1.058.19,1.811.567,3.7,1.857l20.8-4.352s6.326,10.908,4.2,11.242c-4.286.674-25.486,2.085-25.522,2.047" transform="translate(-2.708 -0.418)" fill="#feb098"/>
              <path id="Path_6342" data-name="Path 6342" d="M327.45,61.284c-.071-.006-12.392,1.079-12.791-.17-.2-.625,2.049-1.518,3.625-2-2.04.245-6.95-1.82-6.677-2.71.046-.15,6.7.211,7.139.161-.809-.2-7.739.33-7.516-.911.14-.782,5.295-.955,7.533-1.106-1.683-.023-6.541-.356-6.834-1.432-.224-.822,6.51-.939,9.361-.94a8.933,8.933,0,0,1-2.688-1.105.551.551,0,0,1,.285-1.016,27.779,27.779,0,0,1,5.385.435c1.058.19,1.811.567,3.7,1.857l20.8-4.352s6.326,10.908,4.2,11.242C348.685,59.911,327.485,61.322,327.45,61.284Z" transform="translate(-2.708 -0.418)" fill="none" stroke="#000" stroke-linejoin="round" stroke-width="1"/>
              <path id="Path_6343" data-name="Path 6343" d="M331.862,51.6c.045-.031-3.379.581-3.379.581.745,3.152,1.269,6.574,2.015,9.728,1.094-.2,2.549-.555,3.615-.87a27.676,27.676,0,0,1-.606-4.673Z" transform="translate(-2.858 -0.449)" fill="#fff"/>
              <path id="Path_6344" data-name="Path 6344" d="M331.862,51.6c.045-.031-3.379.581-3.379.581.745,3.152,1.269,6.574,2.015,9.728,1.094-.2,2.549-.555,3.615-.87a27.676,27.676,0,0,1-.606-4.673Z" transform="translate(-2.858 -0.449)" fill="none" stroke="#000" stroke-miterlimit="10" stroke-width="1"/>
              <path id="Path_6345" data-name="Path 6345" d="M368.655,24.392c-6.169,7.22-16.743,21.562-17.463,22.1-.792.591-13.967,3.411-19.573,4.608.246,3.175,2.334,14.28,2.334,14.28s25.557-4.506,26.689-5.041c1.893-.894,7.6-8.534,9.34-11.192,2.552-3.91,4.177-7.936,6.534-11.87a5.745,5.745,0,0,0,.817-3.117A10.169,10.169,0,0,0,368.655,24.392Z" transform="translate(-2.885 -0.212)" fill="#a62973"/>
              <path id="Path_6346" data-name="Path 6346" d="M368.655,24.392c-6.169,7.22-16.743,21.562-17.463,22.1-.792.591-13.967,3.411-19.573,4.608.246,3.175,2.334,14.28,2.334,14.28s25.557-4.506,26.689-5.041c1.893-.894,7.6-8.534,9.34-11.192,2.552-3.91,4.177-7.936,6.534-11.87a5.745,5.745,0,0,0,.817-3.117A10.169,10.169,0,0,0,368.655,24.392Z" transform="translate(-2.885 -0.212)" fill="none" stroke="#000" stroke-miterlimit="10" stroke-width="1"/>
              <path id="Path_6347" data-name="Path 6347" d="M351.987,47.726a25.971,25.971,0,0,1,5.105,4.928c.119.152.329-.061.211-.211a26.219,26.219,0,0,0-5.166-4.974c-.156-.114-.3.146-.151.258" transform="translate(-3.062 -0.413)"/>
              <path id="Path_6348" data-name="Path 6348" d="M335.54,50.857q.54,5.218,1.427,10.391.257,1.493.543,2.979c.036.188.324.109.287-.079q-.986-5.136-1.626-10.33-.181-1.478-.334-2.96c-.019-.189-.318-.191-.3,0" transform="translate(-2.919 -0.441)"/>
              <path id="Path_6349" data-name="Path 6349" d="M183.251,200.319c-.7.5-1.687-.151-2.065-.925a3.135,3.135,0,0,1,.375-3.37,2.564,2.564,0,0,1,3.251-.484,2,2,0,0,1,.6.654,2.22,2.22,0,0,1-.555,2.79Z" transform="translate(-1.574 -1.698)" fill="#333"/>
              <path id="Path_6350" data-name="Path 6350" d="M180.344,205.927a1.632,1.632,0,0,0-.87-2.638,1.571,1.571,0,0,0-.374-.032,1.864,1.864,0,0,0-1.705,2.065,1.6,1.6,0,0,0,2.851.723Z" transform="translate(-1.543 -1.768)" fill="#333"/>
              <path id="Path_6351" data-name="Path 6351" d="M187.391,200.184a.961.961,0,1,0,.243-.067Z" transform="translate(-1.626 -1.741)" fill="#333"/>
              <path id="Path_6352" data-name="Path 6352" d="M309.3,181.762a5.468,5.468,0,0,0-6.332,2.661,8.493,8.493,0,0,0-.742,1.985,1.924,1.924,0,0,0-.028,1.04,2.135,2.135,0,0,0,.679.857,11.367,11.367,0,0,0,4.464,2.818c1.72.448,3.825-.076,4.657-1.648a6.044,6.044,0,0,0,.5-2.634,7.6,7.6,0,0,0-.4-3.453,2.605,2.605,0,0,0-2.792-1.626" transform="translate(-2.629 -1.58)" fill="#333"/>
              <path id="Path_6353" data-name="Path 6353" d="M303.083,172.8c.518-1.329,2.383-1.3,3.786-1.041a3.338,3.338,0,0,1,1.219.4c1.161.752.947,2.484.594,3.821a1.875,1.875,0,0,1-2.259,1.747,5.118,5.118,0,0,1-2.895-.521,1.77,1.77,0,0,1-.571-2.548Z" transform="translate(-2.633 -1.493)" fill="#333"/>
              <path id="Path_6354" data-name="Path 6354" d="M298.3,180.807a2.775,2.775,0,0,0-.223,2.044,2.95,2.95,0,0,0,3.32-.883,2.136,2.136,0,0,0-.743-3.116c-1.137-.465-2.613.786-2.172,1.933Z" transform="translate(-2.592 -1.555)" fill="#333"/>
              <path id="Path_6355" data-name="Path 6355" d="M279.088,136.88a.605.605,0,0,0-.081.686.888.888,0,0,0,1.409.181.9.9,0,0,0-.4-1.368.907.907,0,0,0-1.113.9Z" transform="translate(-2.426 -1.186)" fill="#333"/>
              <path id="Path_6356" data-name="Path 6356" d="M86.477,176.41a9.035,9.035,0,0,0-3.963-3.164,1.567,1.567,0,0,0-.75-.157,2.754,2.754,0,0,0-.765.3c-.648.286-1.439.272-1.977.734-.319.275-.5.683-.812.967a5.848,5.848,0,0,0-.655.539,1.358,1.358,0,0,0,.493,1.881,3.942,3.942,0,0,0,2.128.411l3.75.014a12.273,12.273,0,0,0,1.417-.053,1.3,1.3,0,0,0,1.135-1.473" transform="translate(-0.673 -1.506)" fill="#4d4d4d"/>
              <path id="Path_6357" data-name="Path 6357" d="M86.477,176.41a9.035,9.035,0,0,0-3.963-3.164,1.567,1.567,0,0,0-.75-.157,2.754,2.754,0,0,0-.765.3c-.648.286-1.439.272-1.977.734-.319.275-.5.683-.812.967a5.848,5.848,0,0,0-.655.539,1.358,1.358,0,0,0,.493,1.881,3.942,3.942,0,0,0,2.128.411l3.75.014a12.273,12.273,0,0,0,1.417-.053A1.3,1.3,0,0,0,86.477,176.41Z" transform="translate(-0.673 -1.506)" fill="none" stroke="#000" stroke-miterlimit="10" stroke-width="1"/>
              <path id="Path_6358" data-name="Path 6358" d="M85.781,176.4a.972.972,0,0,1-1.025.658Z" transform="translate(-0.737 -1.535)" fill="#4d4d4d"/>
              <path id="Path_6359" data-name="Path 6359" d="M79.132,177.041a2.575,2.575,0,0,1-1.011-.794Z" transform="translate(-0.68 -1.533)" fill="#4d4d4d"/>
              <path id="Path_6360" data-name="Path 6360" d="M79.132,177.041a2.575,2.575,0,0,1-1.011-.794Z" transform="translate(-0.68 -1.533)" fill="none" stroke="#000" stroke-miterlimit="10" stroke-width="1"/>
              <path id="Path_6361" data-name="Path 6361" d="M79.8,177.422l-.184-.192Z" transform="translate(-0.693 -1.542)" fill="#4d4d4d"/>
              <path id="Path_6362" data-name="Path 6362" d="M79.8,177.422l-.184-.192Z" transform="translate(-0.693 -1.542)" fill="none" stroke="#000" stroke-miterlimit="10" stroke-width="1"/>
              <path id="Path_6363" data-name="Path 6363" d="M79.651,173.447A26.971,26.971,0,0,0,67.822,164a4.657,4.657,0,0,0-2.238-.47,8.182,8.182,0,0,0-2.285.9c-1.935.852-4.3.81-5.9,2.189-.955.821-1.492,2.039-2.425,2.885a17.46,17.46,0,0,0-1.955,1.609c-1.39,1.689-.374,4.437,1.471,5.613s4.165,1.221,6.352,1.229L72.036,178c1.4,0,5.3-.035,6.693-.194,2.165-.248,1.214-2.2.921-4.359" transform="translate(-0.456 -1.423)" fill="gray"/>
              <path id="Path_6364" data-name="Path 6364" d="M79.651,173.447A26.971,26.971,0,0,0,67.822,164a4.657,4.657,0,0,0-2.238-.47,8.182,8.182,0,0,0-2.285.9c-1.935.852-4.3.81-5.9,2.189-.955.821-1.492,2.039-2.425,2.885a17.46,17.46,0,0,0-1.955,1.609c-1.39,1.689-.374,4.437,1.471,5.613s4.165,1.221,6.352,1.229L72.036,178c1.4,0,5.3-.035,6.693-.194C80.895,177.558,79.944,175.607,79.651,173.447Z" transform="translate(-0.456 -1.423)" fill="none" stroke="#000" stroke-miterlimit="10" stroke-width="1"/>
              <path id="Path_6365" data-name="Path 6365" d="M56.765,170.2c.935,1.278,2.613,1.383,3.916,2.093a11.568,11.568,0,0,1,2.134,1.661A9.067,9.067,0,0,1,64.49,175.8a4.326,4.326,0,0,1,.332.633,4.7,4.7,0,0,0,.23.61.727.727,0,0,0,.552.315c.213.04.38.146.371.385a.194.194,0,0,0,.388.008.747.747,0,0,0-.171-.51.834.834,0,0,0-.522-.264.469.469,0,0,1-.251-.087.618.618,0,0,1-.114-.261,4.534,4.534,0,0,0-.238-.595,7.151,7.151,0,0,0-1.586-2,17.557,17.557,0,0,0-2.066-1.75,9.231,9.231,0,0,0-2.213-1.011,4.184,4.184,0,0,1-2.1-1.268c-.146-.2-.487-.013-.339.188" transform="translate(-0.494 -1.478)"/>
              <path id="Path_6366" data-name="Path 6366" d="M66.652,176.489c.727-.643,1.014-1.837,2.033-2.11a6.424,6.424,0,0,1,1.7-.053,4.165,4.165,0,0,0,.879-.086c.308-.064.61-.155.921-.206a4.527,4.527,0,0,1,2.145.179c.238.078.348-.293.111-.372a4.881,4.881,0,0,0-1.977-.231c-.646.059-1.26.31-1.91.326a11.465,11.465,0,0,0-1.789.027,2.167,2.167,0,0,0-1.331.859,9.519,9.519,0,0,1-1.052,1.387c-.187.166.082.445.269.28" transform="translate(-0.577 -1.51)"/>
              <path id="Path_6367" data-name="Path 6367" d="M65.582,164.746a2.544,2.544,0,0,1,2.425.881c.16.192.438-.077.281-.269a2.932,2.932,0,0,0-2.8-.988c-.245.048-.15.424.1.376" transform="translate(-0.569 -1.43)"/>
              <path id="Path_6368" data-name="Path 6368" d="M70.492,166.7a44.775,44.775,0,0,1,4.655,3.938c.179.173.46-.094.281-.269a45.68,45.68,0,0,0-4.733-4c-.2-.148-.4.184-.2.331" transform="translate(-0.613 -1.447)"/>
              <path id="Path_6369" data-name="Path 6369" d="M77.966,172.956a1.994,1.994,0,0,1,.529,2.234.194.194,0,0,0,.131.241.2.2,0,0,0,.241-.13,2.368,2.368,0,0,0-.622-2.614c-.186-.163-.468.1-.28.269" transform="translate(-0.678 -1.502)"/>
              <line id="Line_46" data-name="Line 46" x2="39.605" transform="translate(286.177 176.453)" fill="gray"/>
              <line id="Line_47" data-name="Line 47" x2="39.605" transform="translate(286.177 176.453)" fill="none" stroke="#000" stroke-miterlimit="10" stroke-width="1"/>
            </g>
          </g>
        </g>
      </g>
    </g>
  </g>
</svg>
