<svg xmlns="http://www.w3.org/2000/svg" xmlns:xlink="http://www.w3.org/1999/xlink" width="426" height="337" viewBox="0 0 426 337">
  <defs>
    <clipPath id="clip-path">
      <rect id="Rectangle_831" data-name="Rectangle 831" width="426" height="337" transform="translate(189 3258)" fill="#fff" stroke="#707070" stroke-width="1"/>
    </clipPath>
  </defs>
  <g id="corporate_pathways" data-name="corporate pathways" transform="translate(-189 -3258)" clip-path="url(#clip-path)">
    <g id="Group_419" data-name="Group 419" transform="translate(159.338 3345.955)">
      <path id="Path_6019" data-name="Path 6019" d="M232.094,36.719l-.971,9.254-3.539-.733a9.182,9.182,0,0,0-.487-.937c-1.928-3.132-5.319-4.545-7.575-3.156S217,46.2,218.929,49.332a8.188,8.188,0,0,0,3.458,3.176l-8.278,17.917,15.373,3.181,5.6-12.11,3.821,2.084a10.757,10.757,0,0,0,14.993-9.522l.048-12.043Z" transform="translate(-6.131 -1.168)" fill="#f79463"/>
      <path id="Path_6020" data-name="Path 6020" d="M232.094,36.719l-.971,9.254-3.539-.733a9.182,9.182,0,0,0-.487-.937c-1.928-3.132-5.319-4.545-7.575-3.156S217,46.2,218.929,49.332a8.188,8.188,0,0,0,3.458,3.176l-8.278,17.917,15.373,3.181,5.6-12.11,3.821,2.084a10.757,10.757,0,0,0,14.993-9.522l.048-12.043Z" transform="translate(-6.131 -1.168)" fill="none" stroke="#000" stroke-miterlimit="10" stroke-width="1"/>
      <path id="Path_6021" data-name="Path 6021" d="M259.756,163.549H196.862s-14.183,23.829-19.7,47.807c-2.537,11.034-4.361,26.267-5.671,42.948H273.543c-1.244-34.11-5-68.3-13.786-90.755" transform="translate(-4.756 -5.259)" fill="#ee5064"/>
      <path id="Path_6022" data-name="Path 6022" d="M259.756,163.549H196.862s-14.183,23.829-19.7,47.807c-2.537,11.034-4.361,26.267-5.671,42.948H273.543C272.3,220.194,268.547,186,259.756,163.549Z" transform="translate(-4.756 -5.259)" fill="none" stroke="#000" stroke-miterlimit="10" stroke-width="1"/>
      <path id="Path_6023" data-name="Path 6023" d="M178.734,244.72c2.352-55.937,27.477-81.739,27.731-81.991l-1.12-1.12c-.258.257-25.812,26.445-28.19,83.046q-.2,4.787-.4,9.586h1.582q.193-4.761.393-9.522" transform="translate(-4.926 -5.197)"/>
      <path id="Path_6024" data-name="Path 6024" d="M264.814,95.265,249.567,76.081c-4.9-5.661-8.758-9.01-15.052-9.01H233.07l.625-1.264-19.631-4.061-2.636,5.325h-.915a17.009,17.009,0,0,0-12.862,5.873,14.474,14.474,0,0,0-7.491,8.493L168.4,146.756a14.512,14.512,0,0,0,15.226,19.04l53.048,4.239,1.468-9.769h21.493l3.223-29.768a28.3,28.3,0,0,1,2.612-9.793,28.294,28.294,0,0,0-.652-25.44" transform="translate(-4.632 -1.976)" fill="#fff"/>
      <path id="Path_6025" data-name="Path 6025" d="M264.814,95.265,249.567,76.081c-4.9-5.661-8.758-9.01-15.052-9.01H233.07l.625-1.264-19.631-4.061-2.636,5.325h-.915a17.009,17.009,0,0,0-12.862,5.873,14.474,14.474,0,0,0-7.491,8.493L168.4,146.756a14.512,14.512,0,0,0,15.226,19.04l53.048,4.239,1.468-9.769h21.493l3.223-29.768a28.3,28.3,0,0,1,2.612-9.793A28.294,28.294,0,0,0,264.814,95.265Z" transform="translate(-4.632 -1.976)" fill="none" stroke="#000" stroke-miterlimit="10" stroke-width="1"/>
      <path id="Path_6026" data-name="Path 6026" d="M222.233,39.15A16.153,16.153,0,1,0,241.324,26.6,16.154,16.154,0,0,0,222.233,39.15" transform="translate(-6.382 -0.831)" fill="#f79463"/>
      <path id="Path_6027" data-name="Path 6027" d="M254.269,34.917c-2.257-4.865-5.081-8.572-7.065-9.529-1.888-1.667-6.588-2.685-14.749-.937A17.254,17.254,0,1,0,221.723,34.2a20.284,20.284,0,0,0-.845,7.146l3.772,3.155a39.626,39.626,0,0,0,12.573-4.172c3.329-1.887,6.345-5.552,8.306-8.317a37.193,37.193,0,0,0,2.193,5.945c2.868,6.184,6.659,10.517,8.467,9.679s.947-6.532-1.921-12.716" transform="translate(-5.654 0)" fill="#2c2334"/>
      <path id="Path_6028" data-name="Path 6028" d="M254.269,34.917c-2.257-4.865-5.081-8.572-7.065-9.529-1.888-1.667-6.588-2.685-14.749-.937A17.254,17.254,0,1,0,221.723,34.2a20.284,20.284,0,0,0-.845,7.146l3.772,3.155a39.626,39.626,0,0,0,12.573-4.172c3.329-1.887,6.345-5.552,8.306-8.317a37.193,37.193,0,0,0,2.193,5.945c2.868,6.184,6.659,10.517,8.467,9.679S257.137,41.1,254.269,34.917Z" transform="translate(-5.654 0)" fill="none" stroke="#000" stroke-miterlimit="10" stroke-width="1"/>
      <path id="Path_6029" data-name="Path 6029" d="M224.342,49.184l.853-.383a6.013,6.013,0,0,0-4.432-3.53l-.122.927a5.081,5.081,0,0,1,3.7,2.986" transform="translate(-6.341 -1.444)"/>
      <rect id="Rectangle_433" data-name="Rectangle 433" width="0.935" height="3.903" transform="translate(225.347 58.793) rotate(-60.064)"/>
      <path id="Path_6030" data-name="Path 6030" d="M246.371,56.811a13.285,13.285,0,0,0,1.472.225l.077-.932a12.85,12.85,0,0,1-2.609-.54,7.514,7.514,0,0,1-2.34-1.454l-.642.68a8.412,8.412,0,0,0,2.685,1.661,12.092,12.092,0,0,0,1.356.36" transform="translate(-7.041 -1.729)" fill="#2c2334"/>
      <path id="Path_6031" data-name="Path 6031" d="M248.738,52.548c.369-.37,1.224-1.3,1.212-1.941a.687.687,0,0,0-.23-.495,2.706,2.706,0,0,0-1.62-.368l.068-1.616-.933-.04-.113,2.642.521-.035a5.266,5.266,0,0,1,1.325.064,5.6,5.6,0,0,1-.89,1.128Z" transform="translate(-7.196 -1.535)" fill="#2c2334"/>
      <path id="Path_6032" data-name="Path 6032" d="M242.622,46.446c-.155.747.049,1.422.455,1.506s.861-.454,1.015-1.2-.048-1.422-.455-1.5-.86.454-1.015,1.2" transform="translate(-7.049 -1.443)" fill="#2c2334"/>
      <path id="Path_6033" data-name="Path 6033" d="M249.914,47.955c-.155.747.049,1.422.455,1.506s.861-.454,1.015-1.2-.048-1.422-.455-1.5-.86.454-1.015,1.2" transform="translate(-7.284 -1.492)" fill="#2c2334"/>
      <path id="Path_6034" data-name="Path 6034" d="M223.946,53.969a3.937,3.937,0,0,0,.631.081l.037-.935a5.067,5.067,0,0,1-1.746-.507l-.428.832a6.625,6.625,0,0,0,1.506.528" transform="translate(-6.399 -1.681)"/>
      <path id="Path_6035" data-name="Path 6035" d="M233.839,208.83l11.478-3.024-.4-1.528-12.541,3.3-4.74,48.038h1.59Z" transform="translate(-6.567 -6.573)"/>
      <rect id="Rectangle_434" data-name="Rectangle 434" width="1.491" height="9.728" transform="translate(215.903 69.629) rotate(-78.309)"/>
      <path id="Path_6036" data-name="Path 6036" d="M245.971,146.032l62.612,8.223a4.26,4.26,0,0,0,4.451-2.882l17.351-52.017A2.823,2.823,0,0,0,328,95.576L265.39,87.354a4.261,4.261,0,0,0-4.452,2.881l-17.351,52.018a2.822,2.822,0,0,0,2.384,3.779" transform="translate(-7.077 -2.801)" fill="#2c2334"/>
      <path id="Path_6037" data-name="Path 6037" d="M247.474,146.229l62.612,8.223a4.261,4.261,0,0,0,4.451-2.882l17.351-52.017a2.822,2.822,0,0,0-2.384-3.78l-62.611-8.222a4.261,4.261,0,0,0-4.452,2.881L245.091,142.45a2.822,2.822,0,0,0,2.384,3.779" transform="translate(-7.125 -2.807)" fill="#e099c7"/>
      <path id="Path_6038" data-name="Path 6038" d="M247.474,146.229l62.612,8.223a4.261,4.261,0,0,0,4.451-2.882l17.351-52.017a2.822,2.822,0,0,0-2.384-3.78l-62.611-8.222a4.261,4.261,0,0,0-4.452,2.881L245.091,142.45A2.822,2.822,0,0,0,247.474,146.229Z" transform="translate(-7.125 -2.807)" fill="none" stroke="#000" stroke-miterlimit="10" stroke-width="1"/>
      <path id="Path_6039" data-name="Path 6039" d="M292.72,128.089l7.4-4.794-3.965-6.286-7.4,4.793Zm5.023-5.107-4.3,2.785-2.3-3.652,4.3-2.786Z" transform="translate(-8.538 -3.758)" fill="#2c2334"/>
      <path id="Path_6040" data-name="Path 6040" d="M328.316,113.467l0-.053L316.3,110.34c-1.3-.337-2.57.733-2.834,2.386a3.9,3.9,0,0,0,.024,1.351,2.748,2.748,0,0,0,1.86,2.219l8.312,2.13-.029.273-9.066-1.5-2.482-.406c-1.313-.222-2.523.958-2.688,2.614a3.708,3.708,0,0,0,.1,1.359,2.643,2.643,0,0,0,1.967,2.055l11.813,1.936c-1.307-.2-12.6-.682-12.779.966a3.933,3.933,0,0,0,.1,1.358,2.63,2.63,0,0,0,1.977,2.051l3.833.641,5.976.981,0,.019-6.328-.8c-1.318-.172-2.49,1.046-2.626,2.713a3.685,3.685,0,0,0,.134,1.354,2.6,2.6,0,0,0,2.015,1.981l7.6.962,2.226.368a8.511,8.511,0,0,0,9.853-7.524l.514-4.972a10.789,10.789,0,0,0-7.46-11.383" transform="translate(-9.204 -3.541)" fill="#f79463"/>
      <path id="Path_6041" data-name="Path 6041" d="M328.316,113.467l0-.053L316.3,110.34c-1.3-.337-2.57.733-2.834,2.386a3.9,3.9,0,0,0,.024,1.351,2.748,2.748,0,0,0,1.86,2.219l8.312,2.13-.029.273-9.066-1.5-2.482-.406c-1.313-.222-2.523.958-2.688,2.614a3.708,3.708,0,0,0,.1,1.359,2.643,2.643,0,0,0,1.967,2.055l11.813,1.936c-1.307-.2-12.6-.682-12.779.966a3.933,3.933,0,0,0,.1,1.358,2.63,2.63,0,0,0,1.977,2.051l3.833.641,5.976.981,0,.019-6.328-.8c-1.318-.172-2.49,1.046-2.626,2.713a3.685,3.685,0,0,0,.134,1.354,2.6,2.6,0,0,0,2.015,1.981l7.6.962,2.226.368a8.511,8.511,0,0,0,9.853-7.524l.514-4.972A10.789,10.789,0,0,0,328.316,113.467Z" transform="translate(-9.204 -3.541)" fill="none" stroke="#000" stroke-miterlimit="10" stroke-width="1"/>
      <path id="Path_6042" data-name="Path 6042" d="M274.625,148.657,251.589,145.2l-8.269-1.243-3.445,22.924,14.225,1.014,3.737.634a2.893,2.893,0,0,0,2.259-5.109l3.025.513a3.947,3.947,0,0,0,3.3-2.438,2.889,2.889,0,0,0-1.016-2.652l.65.11a2.893,2.893,0,0,0,1.718-5.454l5.99.9a2.9,2.9,0,0,0,.862-5.739" transform="translate(-6.962 -4.627)" fill="#f79463"/>
      <path id="Path_6043" data-name="Path 6043" d="M274.625,148.657,251.589,145.2l-8.269-1.243-3.445,22.924,14.225,1.014,3.737.634a2.893,2.893,0,0,0,2.259-5.109l3.025.513a3.947,3.947,0,0,0,3.3-2.438,2.889,2.889,0,0,0-1.016-2.652l.65.11a2.893,2.893,0,0,0,1.718-5.454l5.99.9a2.9,2.9,0,0,0,.862-5.739Z" transform="translate(-6.962 -4.627)" fill="none" stroke="#000" stroke-miterlimit="10" stroke-width="1"/>
      <path id="Path_6044" data-name="Path 6044" d="M228.464,142.718l-33.618-2.38.219-1.474L228.91,141.3Z" transform="translate(-5.509 -4.463)"/>
      <path id="Path_6045" data-name="Path 6045" d="M204.409,139.171l-1.415-.47,9.76-28.48,1.414.47Z" transform="translate(-5.772 -3.539)"/>
      <path id="Path_6046" data-name="Path 6046" d="M290.859,63.861a3.1,3.1,0,1,1,3.1-3.1,3.105,3.105,0,0,1-3.1,3.1m0-5.041A1.939,1.939,0,1,0,292.8,60.76a1.942,1.942,0,0,0-1.939-1.939" transform="translate(-8.506 -1.844)" fill="#b25696"/>
      <path id="Path_6047" data-name="Path 6047" d="M55.23,145.844a3.1,3.1,0,1,1,3.1-3.1,3.1,3.1,0,0,1-3.1,3.1m0-5.041a1.939,1.939,0,1,0,1.939,1.939A1.942,1.942,0,0,0,55.23,140.8" transform="translate(-0.906 -4.488)" fill="#b25696"/>
      <path id="Path_6048" data-name="Path 6048" d="M398.087,66.9a6.019,6.019,0,1,1,6.019-6.019,6.026,6.026,0,0,1-6.019,6.019m0-9.878a3.859,3.859,0,1,0,3.858,3.858,3.863,3.863,0,0,0-3.858-3.858" transform="translate(-11.871 -1.753)" fill="#b25696"/>
      <rect id="Rectangle_436" data-name="Rectangle 436" width="2.16" height="11.675" transform="translate(471.38 201.917)" fill="#b25696"/>
      <rect id="Rectangle_437" data-name="Rectangle 437" width="11.675" height="2.16" transform="translate(466.622 206.675)" fill="#b25696"/>
      <rect id="Rectangle_438" data-name="Rectangle 438" width="2.16" height="11.675" transform="translate(28.798 231.834)" fill="#b25696"/>
      <rect id="Rectangle_439" data-name="Rectangle 439" width="11.675" height="2.16" transform="translate(24.041 236.592)" fill="#b25696"/>
      <rect id="Rectangle_440" data-name="Rectangle 440" width="2.16" height="27.319" transform="translate(70.694 80.174)"/>
      <path id="Path_6049" data-name="Path 6049" d="M70.452,87.741l-1.637-1.409,4.5-5.236,4.318,5.256-1.669,1.371-2.686-3.27Z" transform="translate(-1.444 -2.6)"/>
      <rect id="Rectangle_441" data-name="Rectangle 441" width="2.16" height="50.57" transform="translate(49.8 29.624)"/>
      <path id="Path_6050" data-name="Path 6050" d="M48.862,35.507,47.224,34.1l4.5-5.236,4.318,5.256-1.669,1.371-2.686-3.27Z" transform="translate(-0.748 -0.915)"/>
      <rect id="Rectangle_442" data-name="Rectangle 442" width="2.16" height="50.57" transform="translate(447.525 36.825)"/>
      <path id="Path_6051" data-name="Path 6051" d="M459.844,42.947l-1.637-1.409,4.5-5.236,4.318,5.256-1.669,1.371-2.686-3.27Z" transform="translate(-14.004 -1.155)"/>
      <rect id="Rectangle_443" data-name="Rectangle 443" width="2.16" height="31.722" transform="translate(425.897 82.726)"/>
      <path id="Path_6052" data-name="Path 6052" d="M355.868,58.528l-7.259-7.259,7.259-7.259,7.26,7.259Zm-4.217-7.259,4.217,4.217,4.218-4.217-4.218-4.218Z" transform="translate(-10.469 -1.403)" fill="#b25696"/>
      <rect id="Rectangle_444" data-name="Rectangle 444" width="2.16" height="11.675" transform="translate(314.405 6.597)" fill="#b25696"/>
      <rect id="Rectangle_445" data-name="Rectangle 445" width="11.675" height="2.16" transform="translate(309.647 11.354)" fill="#b25696"/>
      <path id="Path_6053" data-name="Path 6053" d="M94.936,61.424l-7.259-7.259,7.259-7.259,7.259,7.259Zm-4.217-7.259,4.217,4.217,4.218-4.217-4.218-4.217Z" transform="translate(-2.053 -1.497)" fill="#b25696"/>
      <path id="Path_6054" data-name="Path 6054" d="M207.656,191.124l-40.192-34.91L152.917,143.6a36.281,36.281,0,0,0-28.684-14.033H99.811A36.363,36.363,0,0,0,66.3,151.8l-1.364,2.355L34.945,206.046a14.86,14.86,0,0,0,25.736,14.863l2.777-4.8v37.1h91.948l3.674-61.919L186.7,215.28a15.989,15.989,0,0,0,20.955-24.156" transform="translate(-0.288 -4.163)" fill="#a62973"/>
      <path id="Path_6055" data-name="Path 6055" d="M207.656,191.124l-40.192-34.91L152.917,143.6a36.281,36.281,0,0,0-28.684-14.033H99.811A36.363,36.363,0,0,0,66.3,151.8l-1.364,2.355L34.945,206.046a14.86,14.86,0,0,0,25.736,14.863l2.777-4.8v37.1h91.948l3.674-61.919L186.7,215.28a15.989,15.989,0,0,0,20.955-24.156Z" transform="translate(-0.288 -4.163)" fill="none" stroke="#000" stroke-miterlimit="10" stroke-width="1"/>
      <path id="Path_6056" data-name="Path 6056" d="M34.219,119.779a6.019,6.019,0,1,1,6.019-6.019,6.026,6.026,0,0,1-6.019,6.019m0-9.878a3.859,3.859,0,1,0,3.858,3.858,3.863,3.863,0,0,0-3.858-3.858" transform="translate(-0.134 -3.459)" fill="#b25696"/>
      <rect id="Rectangle_446" data-name="Rectangle 446" width="2.16" height="11.675" transform="translate(465.542 108.848)" fill="#b25696"/>
      <rect id="Rectangle_447" data-name="Rectangle 447" width="11.675" height="2.16" transform="translate(460.785 113.605)" fill="#b25696"/>
      <path id="Path_6057" data-name="Path 6057" d="M458.756,204.314l-29.993-51.886-5.254-9.074a14.443,14.443,0,0,0-4.33-4.719,14.819,14.819,0,0,0-12.154-2.253,48.532,48.532,0,0,0-58.037,6.352,14.871,14.871,0,0,0-6.865,2.145,14.443,14.443,0,0,0-4.632,4.423l-5.842,8.707L298.3,207.8A14.86,14.86,0,0,0,323,224.331l10.66-15.9v44.772h97.127v-37.9l2.237,3.865a14.86,14.86,0,0,0,25.736-14.863" transform="translate(-8.766 -4.163)" fill="#672376"/>
      <path id="Path_6058" data-name="Path 6058" d="M458.756,204.314l-29.993-51.886-5.254-9.074a14.443,14.443,0,0,0-4.33-4.719,14.819,14.819,0,0,0-12.154-2.253,48.532,48.532,0,0,0-58.037,6.352,14.871,14.871,0,0,0-6.865,2.145,14.443,14.443,0,0,0-4.632,4.423l-5.842,8.707L298.3,207.8A14.86,14.86,0,0,0,323,224.331l10.66-15.9v44.772h97.127v-37.9l2.237,3.865a14.86,14.86,0,0,0,25.736-14.863Z" transform="translate(-8.766 -4.163)" fill="none" stroke="#000" stroke-miterlimit="10" stroke-width="1"/>
      <path id="Path_6059" data-name="Path 6059" d="M336.012,217.31l1.424-.034-1.04-40.425-1.423.034Z" transform="translate(-10.029 -5.688)" fill="#672376"/>
      <path id="Path_6060" data-name="Path 6060" d="M336.012,217.31l1.424-.034-1.04-40.425-1.423.034Z" transform="translate(-10.029 -5.688)" fill="none" stroke="#000" stroke-miterlimit="10" stroke-width="1"/>
      <path id="Path_6061" data-name="Path 6061" d="M433.757,216.975l1.234-.71-20.239-35.008-1.234.71Z" transform="translate(-12.563 -5.83)" fill="#672376"/>
      <path id="Path_6062" data-name="Path 6062" d="M433.757,216.975l1.234-.71-20.239-35.008-1.234.71Z" transform="translate(-12.563 -5.83)" fill="none" stroke="#000" stroke-miterlimit="10" stroke-width="1"/>
      <path id="Path_6063" data-name="Path 6063" d="M348.49,100.583A13.189,13.189,0,1,0,357.579,84.3a13.189,13.189,0,0,0-9.089,16.287" transform="translate(-10.449 -2.687)"/>
      <path id="Path_6064" data-name="Path 6064" d="M348.49,100.583A13.189,13.189,0,1,0,357.579,84.3,13.189,13.189,0,0,0,348.49,100.583Z" transform="translate(-10.449 -2.687)" fill="none" stroke="#000" stroke-miterlimit="10" stroke-width="1"/>
      <path id="Path_6065" data-name="Path 6065" d="M372.874,112.2a11.411,11.411,0,1,0,7.864-14.091,11.41,11.41,0,0,0-7.864,14.091" transform="translate(-11.238 -3.134)"/>
      <path id="Path_6066" data-name="Path 6066" d="M372.874,112.2a11.411,11.411,0,1,0,7.864-14.091A11.41,11.41,0,0,0,372.874,112.2Z" transform="translate(-11.238 -3.134)" fill="none" stroke="#000" stroke-miterlimit="10" stroke-width="1"/>
      <path id="Path_6067" data-name="Path 6067" d="M393.654,128.5l-8.485-15.746a7.214,7.214,0,0,0,3.694-4.69c.98-3.425-.225-6.772-2.691-7.479a3.46,3.46,0,0,0-1.031-.126c-.046-.187-.076-.374-.13-.56a16.605,16.605,0,0,0-32.577,4.964l-.02.007.03.387c.014.272.035.544.062.817l.854,11.147a11.053,11.053,0,0,0,15.67,8.837l1.249,2.259-3.424.307a11.983,11.983,0,0,0-.914,6.557c1.115,5.1,9.693,5.664,17.656,2.345,4.482-1.871,7.773-4.667,9.3-7.544.179-.342.528-.938.719-1.259Z" transform="translate(-10.592 -2.816)" fill="#cc715e"/>
      <path id="Path_6068" data-name="Path 6068" d="M393.654,128.5l-8.485-15.746a7.214,7.214,0,0,0,3.694-4.69c.98-3.425-.225-6.772-2.691-7.479a3.46,3.46,0,0,0-1.031-.126c-.046-.187-.076-.374-.13-.56a16.605,16.605,0,0,0-32.577,4.964l-.02.007.03.387c.014.272.035.544.062.817l.854,11.147a11.053,11.053,0,0,0,15.67,8.837l1.249,2.259-3.424.307a11.983,11.983,0,0,0-.914,6.557c1.115,5.1,9.693,5.664,17.656,2.345,4.482-1.871,7.773-4.667,9.3-7.544.179-.342.528-.938.719-1.259Z" transform="translate(-10.592 -2.816)" fill="none" stroke="#000" stroke-miterlimit="10" stroke-width="1"/>
      <path id="Path_6069" data-name="Path 6069" d="M354.375,90.618s7.764,8.294,14.986,10.385a44.092,44.092,0,0,0,14.9,1.266l3.2-4.53S384.9,81.67,370.108,82.028s-18.376,6.031-15.733,8.591" transform="translate(-10.629 -2.63)"/>
      <path id="Path_6070" data-name="Path 6070" d="M354.375,90.618s7.764,8.294,14.986,10.385a44.092,44.092,0,0,0,14.9,1.266l3.2-4.53S384.9,81.67,370.108,82.028,351.731,88.059,354.375,90.618Z" transform="translate(-10.629 -2.63)" fill="none" stroke="#000" stroke-miterlimit="10" stroke-width="1"/>
      <path id="Path_6071" data-name="Path 6071" d="M369.647,116.524l.172,6.183-14.664,3.527-.2-7.748a2.955,2.955,0,0,1,2.36-2.972l8.789-1.8a2.954,2.954,0,0,1,3.547,2.811" transform="translate(-10.674 -3.65)"/>
      <path id="Path_6072" data-name="Path 6072" d="M379.866,106.453s2.977,12.277,2.936,13.419-13.566,15.075-22.139,12.507-7.414-16.363-7.414-16.363.416,8.292,9,5.674,15.6-8.752,15.162-16.335Z" transform="translate(-10.617 -3.382)"/>
      <path id="Path_6073" data-name="Path 6073" d="M384.392,107.694a4.92,4.92,0,0,1,2.673-3.752l-.356-.832a5.829,5.829,0,0,0-3.213,4.45Z" transform="translate(-11.594 -3.31)"/>
      <path id="Path_6074" data-name="Path 6074" d="M362.442,119.777a12.272,12.272,0,0,0,1.365-.47,8.656,8.656,0,0,0,2.631-1.9l-.708-.651a7.787,7.787,0,0,1-2.294,1.666,13.158,13.158,0,0,1-2.636.747l.149.95a13.57,13.57,0,0,0,1.493-.34" transform="translate(-10.862 -3.75)" fill="#cc715e"/>
      <path id="Path_6075" data-name="Path 6075" d="M359.792,115.578l.63-.727a5.676,5.676,0,0,1-1-1.092,5.445,5.445,0,0,1,1.353-.164l.536,0-.312-2.7-.955.11.191,1.653a2.787,2.787,0,0,0-1.635.5.707.707,0,0,0-.2.525c.034.659.981,1.548,1.387,1.9" transform="translate(-10.785 -3.561)"/>
      <path id="Path_6076" data-name="Path 6076" d="M365.651,108.865c.214.756.055,1.462-.355,1.578s-.916-.4-1.13-1.156-.056-1.462.354-1.579.917.4,1.131,1.157" transform="translate(-10.968 -3.457)"/>
      <path id="Path_6077" data-name="Path 6077" d="M358.283,110.956c.214.756.055,1.462-.355,1.578s-.916-.4-1.13-1.156-.056-1.462.354-1.579.917.4,1.131,1.157" transform="translate(-10.73 -3.525)"/>
      <path id="Path_6078" data-name="Path 6078" d="M385.98,114.668a6.968,6.968,0,0,0,.968-.353l-.41-.87a5.222,5.222,0,0,1-1.814.461l.007.962a4.828,4.828,0,0,0,1.249-.2" transform="translate(-11.634 -3.643)"/>
      <rect id="Rectangle_448" data-name="Rectangle 448" width="0.962" height="2.686" transform="translate(362.045 130.757) rotate(-28.937)"/>
      <path id="Path_6079" data-name="Path 6079" d="M458.66,207.108h0c-5.3-6.521-14.489-7.959-20.517-3.213l-43.021,28.873L410.443,251.6l46.906-24.1c6.028-4.746,6.615-13.878,1.311-20.4" transform="translate(-11.969 -6.47)" fill="#cc715e"/>
      <path id="Path_6080" data-name="Path 6080" d="M458.66,207.108h0c-5.3-6.521-14.489-7.959-20.517-3.213l-43.021,28.873L410.443,251.6l46.906-24.1C463.377,222.761,463.963,213.628,458.66,207.108Z" transform="translate(-11.969 -6.47)" fill="none" stroke="#000" stroke-miterlimit="10" stroke-width="1"/>
      <path id="Path_6081" data-name="Path 6081" d="M296.856,209.75h0c5.3-6.521,14.489-7.959,20.517-3.213l43.021,28.873-15.321,18.837-46.906-24.1c-6.028-4.746-6.615-13.878-1.311-20.4" transform="translate(-8.683 -6.556)" fill="#cc715e"/>
      <path id="Path_6082" data-name="Path 6082" d="M296.856,209.75h0c5.3-6.521,14.489-7.959,20.517-3.213l43.021,28.873-15.321,18.837-46.906-24.1C292.139,225.4,291.553,216.27,296.856,209.75Z" transform="translate(-8.683 -6.556)" fill="none" stroke="#000" stroke-miterlimit="10" stroke-width="1"/>
      <path id="Path_6083" data-name="Path 6083" d="M405.708,255.327H322.039a5.4,5.4,0,0,1-5.219-4.285l-8.542-51.479a3.631,3.631,0,0,1,3.8-4.285h83.667a5.4,5.4,0,0,1,5.221,4.285l8.54,51.479a3.63,3.63,0,0,1-3.8,4.285" transform="translate(-9.166 -6.283)" fill="#fff"/>
      <path id="Path_6084" data-name="Path 6084" d="M404.05,255.327H320.382a5.4,5.4,0,0,1-5.22-4.285l-8.541-51.479a3.63,3.63,0,0,1,3.8-4.285h83.667a5.4,5.4,0,0,1,5.22,4.285l8.541,51.479a3.63,3.63,0,0,1-3.8,4.285" transform="translate(-9.113 -6.283)" fill="#2d2d2d"/>
      <path id="Path_6085" data-name="Path 6085" d="M359.823,232.96l-8.385-6.886,6.1-6.885,8.385,6.885Zm-5.352-6.886,4.874,4,3.544-4-4.872-4Z" transform="translate(-10.56 -7.054)" fill="#fff"/>
      <path id="Path_6086" data-name="Path 6086" d="M211.386,197.163h0a15.982,15.982,0,0,0-22.508-2.075l-47.543,38.351,16.27,16.9,51.707-30.673a15.984,15.984,0,0,0,2.075-22.508" transform="translate(-3.783 -6.157)" fill="#f79463"/>
      <path id="Path_6087" data-name="Path 6087" d="M211.386,197.163h0a15.982,15.982,0,0,0-22.508-2.075l-47.543,38.351,16.27,16.9,51.707-30.673A15.984,15.984,0,0,0,211.386,197.163Z" transform="translate(-3.783 -6.157)" fill="none" stroke="#000" stroke-miterlimit="10" stroke-width="1"/>
      <rect id="Rectangle_449" data-name="Rectangle 449" width="1.425" height="8.209" transform="translate(158.202 176.87)" fill="#2c2334"/>
      <path id="Path_6088" data-name="Path 6088" d="M144.046,101.21q0-.425-.01-.848l-.006-.4-.02,0A17.17,17.17,0,0,0,110,97.82c-.037.2-.05.393-.081.589a3.5,3.5,0,0,0-1.05.224c-2.475.952-3.41,4.511-2.088,7.947a7.458,7.458,0,0,0,4.232,4.493l-7.377,17.171,18.331,10.616,6.885-15.558a11.428,11.428,0,0,0,15.329-10.534Z" transform="translate(-2.567 -2.688)" fill="#f79463"/>
      <path id="Path_6089" data-name="Path 6089" d="M144.046,101.21q0-.425-.01-.848l-.006-.4-.02,0A17.17,17.17,0,0,0,110,97.82c-.037.2-.05.393-.081.589a3.5,3.5,0,0,0-1.05.224c-2.475.952-3.41,4.511-2.088,7.947a7.458,7.458,0,0,0,4.232,4.493l-7.377,17.171,18.331,10.616,6.885-15.558a11.428,11.428,0,0,0,15.329-10.534Z" transform="translate(-2.567 -2.688)" fill="none" stroke="#000" stroke-miterlimit="10" stroke-width="1"/>
      <path id="Path_6090" data-name="Path 6090" d="M131.865,105.729c-.157.823.079,1.558.525,1.642s.936-.512,1.092-1.335-.078-1.558-.525-1.643-.935.513-1.092,1.335" transform="translate(-3.476 -3.351)" fill="#2c2334"/>
      <path id="Path_6091" data-name="Path 6091" d="M139.887,107.255c-.157.823.079,1.558.526,1.642s.936-.512,1.093-1.335-.079-1.558-.526-1.643-.935.513-1.092,1.335" transform="translate(-3.735 -3.4)" fill="#2c2334"/>
      <path id="Path_6092" data-name="Path 6092" d="M140.186,82.055a11.715,11.715,0,0,0-6.8.641,25.14,25.14,0,0,0-9.813-1.09c-15.267.983-16.438,17.767-16.438,17.767l4.775,8.388s1.954-3.751,9.2-6.563c2.863-1.111,1.142-6.54,4.13-8.765a8.838,8.838,0,0,1,4.624-1.4,10.639,10.639,0,0,0,7.628,5.183c5.274,1,10.153-1.354,10.9-5.265s-2.928-7.895-8.2-8.9" transform="translate(-2.68 -2.614)" fill="#2c2334"/>
      <path id="Path_6093" data-name="Path 6093" d="M140.186,82.055a11.715,11.715,0,0,0-6.8.641,25.14,25.14,0,0,0-9.813-1.09c-15.267.983-16.438,17.767-16.438,17.767l4.775,8.388s1.954-3.751,9.2-6.563c2.863-1.111,1.142-6.54,4.13-8.765a8.838,8.838,0,0,1,4.624-1.4,10.639,10.639,0,0,0,7.628,5.183c5.274,1,10.153-1.354,10.9-5.265S145.461,83.057,140.186,82.055Z" transform="translate(-2.68 -2.614)" fill="none" stroke="#000" stroke-miterlimit="10" stroke-width="1"/>
      <path id="Path_6094" data-name="Path 6094" d="M112.53,105.753a5.085,5.085,0,0,0-3.095-3.619l.29-.89a6.027,6.027,0,0,1,3.714,4.289Z" transform="translate(-2.754 -3.25)" fill="#2c2334"/>
      <path id="Path_6095" data-name="Path 6095" d="M136.169,116.2a12.619,12.619,0,0,1-1.448-.36,8.919,8.919,0,0,1-2.884-1.72l.671-.735a8.011,8.011,0,0,0,2.513,1.507,13.628,13.628,0,0,0,2.783.528l-.067.993a14.51,14.51,0,0,1-1.569-.214" transform="translate(-3.477 -3.641)" fill="#2c2334"/>
      <path id="Path_6096" data-name="Path 6096" d="M138.615,111.624l-.715-.691a5.862,5.862,0,0,0,.925-1.215,5.618,5.618,0,0,0-1.407-.045l-.554.045.075-2.81.994.026-.046,1.72a2.875,2.875,0,0,1,1.729.363.728.728,0,0,1,.254.523c.024.682-.869,1.685-1.255,2.085" transform="translate(-3.639 -3.432)" fill="#2c2334"/>
      <path id="Path_6097" data-name="Path 6097" d="M112.047,112.711a7.143,7.143,0,0,1-1.029-.276l.344-.933a5.408,5.408,0,0,0,1.908.309l.082.991a4.964,4.964,0,0,1-1.305-.091" transform="translate(-2.805 -3.58)"/>
      <path id="Path_6098" data-name="Path 6098" d="M64.728,218.763l-1.234-.71,20.239-35.006,1.234.71Z" transform="translate(-1.273 -5.888)" fill="#2c2334"/>
      <path id="Path_6099" data-name="Path 6099" d="M131.858,239.349l-12.232-5.128,9.657,4.048a2.9,2.9,0,0,0,3.782-1.513l.108-.248a2.9,2.9,0,0,0-1.537-3.843l-7.673-3.217a3.1,3.1,0,0,0,.21-.636l.047-.228a3.111,3.111,0,0,0-2.584-3.7l-12.183-1.832c-.32-.008-.449-.008-.775-.008l-4.794-2.009L54.72,204.681c-7.076-2.966-15.545.871-18.916,8.569s-.371,16.344,6.7,19.31l51.634,10.713,4.051,1.7L98.18,245l20.464,8.579a2.9,2.9,0,0,0,3.782-1.513l.108-.249A2.9,2.9,0,0,0,121,247.976l-6.249-2.62L125.2,249.74a2.9,2.9,0,0,0,3.783-1.513l.108-.248a2.9,2.9,0,0,0-1.537-3.843l-10.371-4.348,12.317,5.164a2.9,2.9,0,0,0,3.782-1.513l.108-.248a2.9,2.9,0,0,0-1.537-3.843" transform="translate(-0.335 -6.554)" fill="#f79463"/>
      <path id="Path_6100" data-name="Path 6100" d="M131.858,239.349l-12.232-5.128,9.657,4.048a2.9,2.9,0,0,0,3.782-1.513l.108-.248a2.9,2.9,0,0,0-1.537-3.843l-7.673-3.217a3.1,3.1,0,0,0,.21-.636l.047-.228a3.111,3.111,0,0,0-2.584-3.7l-12.183-1.832c-.32-.008-.449-.008-.775-.008l-4.794-2.009L54.72,204.681c-7.076-2.966-15.545.871-18.916,8.569s-.371,16.344,6.7,19.31l51.634,10.713,4.051,1.7L98.18,245l20.464,8.579a2.9,2.9,0,0,0,3.782-1.513l.108-.249A2.9,2.9,0,0,0,121,247.976l-6.249-2.62L125.2,249.74a2.9,2.9,0,0,0,3.783-1.513l.108-.248a2.9,2.9,0,0,0-1.537-3.843l-10.371-4.348,12.317,5.164a2.9,2.9,0,0,0,3.782-1.513l.108-.248A2.9,2.9,0,0,0,131.858,239.349Z" transform="translate(-0.335 -6.554)" fill="none" stroke="#000" stroke-miterlimit="10" stroke-width="1"/>
      <path id="Path_6101" data-name="Path 6101" d="M131.97,239.733l-10.865-4.555.374-.887,10.864,4.555Z" transform="translate(-3.131 -7.541)"/>
      <rect id="Rectangle_450" data-name="Rectangle 450" width="0.963" height="13.587" transform="matrix(0.389, -0.921, 0.921, 0.389, 115.027, 232.992)"/>
      <path id="Path_6102" data-name="Path 6102" d="M123.59,249.84l-8.05-3.376.374-.887,8.049,3.376Z" transform="translate(-2.951 -7.905)"/>
      <rect id="Rectangle_451" data-name="Rectangle 451" width="53.244" height="2.37" transform="translate(89.365 246.675)" fill="#fff"/>
      <rect id="Rectangle_452" data-name="Rectangle 452" width="53.244" height="2.37" transform="translate(89.365 246.675)" fill="none" stroke="#000" stroke-miterlimit="10" stroke-width="1"/>
      <path id="Path_6103" data-name="Path 6103" d="M133.156,255.39h60.335a4.528,4.528,0,0,0,4.131-3.293l14.261-51.582a2.475,2.475,0,0,0-2.454-3.293H149.093a4.531,4.531,0,0,0-4.132,3.293L130.7,252.1a2.474,2.474,0,0,0,2.454,3.293" transform="translate(-3.437 -6.345)" fill="#2c2334"/>
      <path id="Path_6104" data-name="Path 6104" d="M134.6,255.39H194.94a4.528,4.528,0,0,0,4.131-3.293l14.261-51.582a2.475,2.475,0,0,0-2.454-3.293H150.542a4.531,4.531,0,0,0-4.132,3.293L132.15,252.1a2.474,2.474,0,0,0,2.454,3.293" transform="translate(-3.484 -6.345)" fill="#fff"/>
      <path id="Path_6105" data-name="Path 6105" d="M134.6,255.39H194.94a4.528,4.528,0,0,0,4.131-3.293l14.261-51.582a2.475,2.475,0,0,0-2.454-3.293H150.542a4.531,4.531,0,0,0-4.132,3.293L132.15,252.1A2.474,2.474,0,0,0,134.6,255.39Z" transform="translate(-3.484 -6.345)" fill="none" stroke="#000" stroke-miterlimit="10" stroke-width="1"/>
      <path id="Path_6106" data-name="Path 6106" d="M173.188,232.571l6.873-5.477-4.081-5.477-6.874,5.477Zm4.578-5.477-3.994,3.183-2.372-3.183,3.994-3.183Z" transform="translate(-4.679 -7.132)"/>
      <path id="Path_6107" data-name="Path 6107" d="M437.487,88.679l-1.637-1.409,4.5-5.236,4.318,5.256L443,88.661l-2.686-3.27Z" transform="translate(-13.283 -2.63)"/>
    </g>
  </g>
</svg>
