<svg xmlns="http://www.w3.org/2000/svg" width="40" height="39.864" viewBox="0 0 40 39.864">
  <path id="facebook-logo" d="M64,44.009A20.031,20.031,0,0,1,46.394,63.867a.769.769,0,0,1-.856-.769V48.625h4.615a1.538,1.538,0,0,0,1.538-1.64,1.571,1.571,0,0,0-1.587-1.437H45.538V40.933a3.077,3.077,0,0,1,3.077-3.077h3.077a1.538,1.538,0,0,0,1.538-1.64,1.571,1.571,0,0,0-1.59-1.437H48.615a6.154,6.154,0,0,0-6.154,6.154v4.615H37.846a1.538,1.538,0,0,0-1.538,1.64,1.571,1.571,0,0,0,1.59,1.437h4.563V63.1a.769.769,0,0,1-.854.769A19.993,19.993,0,1,1,64,44.009Z" transform="translate(-23.999 -24.012)" fill="#fff"/>
</svg>
