<svg xmlns="http://www.w3.org/2000/svg" width="428.061" height="139.37" viewBox="0 0 428.061 139.37">
  <g id="Group_108" data-name="Group 108" transform="translate(0)">
    <path id="Path_290" data-name="Path 290" d="M105.8,129.265a1.657,1.657,0,0,0-.778-.72,36.024,36.024,0,0,1-6.481-5.288,74.561,74.561,0,0,1-5.967-6.961c-.938-1.3-1.962-2.537-2.878-3.855A67.974,67.974,0,0,1,79.182,88.869a75.282,75.282,0,0,1,.1-35.138,37.805,37.805,0,0,1,5.762-13.318A18.678,18.678,0,0,1,92.07,34.4c.294-.145.549-.265.543-.673-.052-3.555,1.437-6.557,3.43-9.358a43,43,0,0,1,10.093-9.737A80.8,80.8,0,0,1,124.89,4.19,66.684,66.684,0,0,1,146.79.033,71.262,71.262,0,0,1,165.26,1.8q2.757.651,5.475,1.5a72.094,72.094,0,0,1,47.034,46.467,64.521,64.521,0,0,1,2.742,11.687c2.9,22.077-2.8,41.633-17.43,58.457-8.014,9.214-18.318,14.8-29.926,18.164-.277.08-.555.155-.9.251a1.536,1.536,0,0,0,1,.137c27.81.006,225.62,0,253.43,0,.268,0,.535,0,.8.006.286.01.555.077.573.425.018.369-.261.42-.544.434-.17.009-.341,0-.511,0-30.779,0-231.557,0-262.336-.011-.382,0-1.043.244-1.04-.424,0-.653.655-.418,1.043-.428a41.71,41.71,0,0,0,13.216-2.8,66.214,66.214,0,0,0,18.953-10.766,56.323,56.323,0,0,0,9.9-10.9,71.159,71.159,0,0,0-8.962-94A69.74,69.74,0,0,0,177.833,6.86a68.916,68.916,0,0,0-7.948-2.924,71.265,71.265,0,0,0-40.279-.393c-7.946,2.223-15.025,6.23-21.744,10.916a46.642,46.642,0,0,0-10.646,9.793,17.448,17.448,0,0,0-3.61,7.489c-.361,2.008-.356,2.007,1.535,1.487a19.982,19.982,0,0,1,8.032-.486,1.277,1.277,0,0,0,1.265-.458,62.339,62.339,0,0,1,35.877-19.77c2.515-.458,5.092-.67,7.48.349a4.942,4.942,0,0,0,3.948.046,14.667,14.667,0,0,1,8.214-.1A64.816,64.816,0,0,1,190.8,28.945a58.168,58.168,0,0,1,14.74,22A56.953,56.953,0,0,1,208.509,61.6c.444,2.634,1.008,5.33-.1,7.9a4.975,4.975,0,0,0-.02,4.147c.926,2.381.709,4.928.444,7.433a55.706,55.706,0,0,1-19.391,36.272c-1.584,1.325-3.156,2.659-4.855,3.831a61.531,61.531,0,0,1-29.367,10.79,10.03,10.03,0,0,1-3.051-.156.574.574,0,0,0-.728.284c-2.615,4.545-6.816,6.474-11.791,7.047-5.365.618-10.571-.321-15.7-1.808a69.456,69.456,0,0,1-15.76-6.827,2.853,2.853,0,0,0-1.516-.391q-52.628.011-105.255.006c-.316,0-.633,0-.948-.016-.272-.015-.479-.141-.468-.445.009-.268.214-.367.448-.391.193-.019.389-.013.583-.013H105.8M148.726,14.258a2.827,2.827,0,0,0-1.185-.611,13.051,13.051,0,0,0-6.275-.394,61.862,61.862,0,0,0-35.794,19.163c-.348.377-.543.61.176.78a25.677,25.677,0,0,1,9.756,4.614.719.719,0,0,0,.974.045c.94-.65,1.914-1.253,2.833-1.93a4.4,4.4,0,0,1,6.4.783c4.123,5.015,8.286,10,12.418,15,1.681,2.037,3.3,4.131,5.067,6.1,2.171,2.418,4.081,5.058,6.249,7.483a1.413,1.413,0,0,0,1.925.279q2.955-1.881,5.908-3.764,7.636-4.853,15.271-9.706a4.5,4.5,0,0,1,3.329-.746,4.326,4.326,0,0,1,3.544,3.526,4.4,4.4,0,0,1-2.124,4.6Q166.641,66.2,156.078,72.909a1.575,1.575,0,0,0-.749.923,6.333,6.333,0,0,1-12.423-1.892,1.7,1.7,0,0,0-.44-1.179c-2.522-3.016-5.054-6.025-7.534-9.076-2.526-3.108-5.089-6.187-7.641-9.272q-3.9-4.718-7.849-9.407a32.083,32.083,0,0,0-3.13-3.361.807.807,0,0,0-1.088-.144,24.5,24.5,0,0,1-4.483,1.931c-3.755,1.2-7.554,1.684-11.4.495a.922.922,0,0,0-1.306.509,58.691,58.691,0,0,0-7.943,25.186,6.842,6.842,0,0,0,.384,2.726c.146.443.305.473.627.12a8.342,8.342,0,0,1,4.407-2.421,27.435,27.435,0,0,1,6.4-.348,4.31,4.31,0,0,1,4.559,4.3,4.381,4.381,0,0,1-4.509,4.452c-1.143.021-2.287.025-3.43,0a9.785,9.785,0,0,1-7.142-2.98c-.212-.218-.371-.679-.667-.582s-.3.573-.383.9a13.863,13.863,0,0,0-.01,5.078,58.823,58.823,0,0,0,10.735,28.04c6.235,8.593,14.512,14.694,23.966,19.294a31.064,31.064,0,0,0,9.787,3.029c.382.047,1.054-.169,1.008.5-.043.631-.689.391-1.077.392q-12.117.021-24.233.017c-.269,0-.577-.121-.816.128.032.056.046.11.081.135a2.822,2.822,0,0,0,.308.193,64.36,64.36,0,0,0,21.364,7.5A26.762,26.762,0,0,0,142.6,137.7a12.816,12.816,0,0,0,7.867-5.643c.257-.415.278-.626-.243-.864a8.994,8.994,0,0,1-5.115-6.522,23.434,23.434,0,0,1-.249-5.381,4.378,4.378,0,1,1,8.755-.024q.023,1.861,0,3.723a21.21,21.21,0,0,1-1.034,6.533c-.518,1.535-.512,1.557,1.151,1.613a29.568,29.568,0,0,0,5.725-.6,60.414,60.414,0,0,0,17.142-5.587,46.36,46.36,0,0,0,6.38-3.753,57.556,57.556,0,0,0,7.4-5.771,70.062,70.062,0,0,0,6.373-6.893,53.51,53.51,0,0,0,11.353-29.217,13.989,13.989,0,0,0-.766-6.177c-.2-.522-.34-.676-.766-.137a8.67,8.67,0,0,1-5.131,3.25,21.736,21.736,0,0,1-5.166.176A4.315,4.315,0,0,1,192,71.985a4.394,4.394,0,0,1,4.453-4.29c1.192-.019,2.385-.031,3.576,0a8.8,8.8,0,0,1,6.58,2.648c.345.374.476.26.636-.126a11.263,11.263,0,0,0,.761-6.2,62.561,62.561,0,0,0-2.533-10.749A58.434,58.434,0,0,0,190.831,30.2a63.457,63.457,0,0,0-31.809-16.675,13.744,13.744,0,0,0-7.9.483c-.47.18-.576.317-.156.707a8.137,8.137,0,0,1,2.421,4.566,23.3,23.3,0,0,1,.153,6.33,4.342,4.342,0,0,1-8.555.153,18.042,18.042,0,0,1,.106-6.1,8.739,8.739,0,0,1,3.64-5.4M129.941,129.233l0-.13a1.707,1.707,0,0,0-.254-.13,57.163,57.163,0,0,1-15.152-7.879A57,57,0,0,1,97.03,102.312a62.045,62.045,0,0,1-7.683-24.238,10.8,10.8,0,0,1,.563-5.737,1.265,1.265,0,0,0-.033-1.167,7.052,7.052,0,0,1-.657-3.621,59.015,59.015,0,0,1,8.065-25.515c.36-.61.229-.812-.325-1.126a8.091,8.091,0,0,1-4.067-5.189c-.15-.593-.342-.616-.83-.356a18.265,18.265,0,0,0-6.291,5.551,37.5,37.5,0,0,0-5.583,12.762,73.528,73.528,0,0,0-1.85,24.406,68.925,68.925,0,0,0,10.993,32.332,67.987,67.987,0,0,0,6.515,8.573c.957,1.066,1.864,2.179,2.848,3.219a44.021,44.021,0,0,0,8.5,6.712,2.3,2.3,0,0,0,1.306.35q10.4-.014,20.8-.009c.213,0,.426-.018.639-.028m13.824-57.446a5.476,5.476,0,0,0,10.781,1.621,1.625,1.625,0,0,1,.78-1.065q5.491-3.464,10.967-6.954,5.234-3.326,10.466-6.654a3.466,3.466,0,0,0,1.76-2.86,3.327,3.327,0,0,0-1.738-3.227,3.426,3.426,0,0,0-3.791.158q-10.647,6.777-21.3,13.544a2.218,2.218,0,0,1-3.018-.473c-.981-1.2-1.886-2.462-2.934-3.594-1.865-2.015-3.447-4.259-5.269-6.311-1.885-2.123-3.634-4.366-5.446-6.554q-5.12-6.18-10.247-12.353a3.45,3.45,0,0,0-4.6-.742c-1.079.7-2.116,1.471-3.189,2.183-.3.2-.287.315-.046.54a18.313,18.313,0,0,1,1.557,1.535c3.454,4.109,6.881,8.241,10.332,12.353,1.575,1.877,3.065,3.823,4.672,5.676,1.479,1.706,2.876,3.485,4.312,5.228,1.791,2.173,3.608,4.329,5.426,6.482.4.474.7.931.529,1.469m8.99,49.689c0-.465.014-1.317,0-2.168a3.516,3.516,0,1,0-7.031-.008c-.019,1.094-.053,2.192.005,3.284.174,3.3,1.462,5.972,4.451,7.63,1.01.56,1.035.535,1.427-.526a22.352,22.352,0,0,0,1.151-8.212M100.1,68.555a18.487,18.487,0,0,0-3.805.21A7.918,7.918,0,0,0,91.6,71.2a.775.775,0,0,0-.01,1.19,8.423,8.423,0,0,0,5.038,2.981,22.86,22.86,0,0,0,5.885.142,3.424,3.424,0,0,0,3.089-3.549,3.494,3.494,0,0,0-3.344-3.4c-.776-.038-1.555-.006-2.158-.006m52.658-45.585a21.129,21.129,0,0,0-.111-2.909,8.075,8.075,0,0,0-2.414-4.861.769.769,0,0,0-1.181-.093,8.168,8.168,0,0,0-2.864,3.859,15.8,15.8,0,0,0-.395,6.351,3.418,3.418,0,0,0,3.683,3.088,3.521,3.521,0,0,0,3.277-3.468c.016-.655,0-1.311,0-1.967m45.954,45.581c-.872,0-1.6-.018-2.33,0a3.565,3.565,0,0,0-3.515,3.557,3.519,3.519,0,0,0,3.529,3.451q1.677.037,3.355,0a7.979,7.979,0,0,0,6.432-3.467.642.642,0,0,0-.028-.954,7.074,7.074,0,0,0-2.57-1.872,11.467,11.467,0,0,0-4.872-.716M103.9,41.74a24.1,24.1,0,0,0,10.624-2.846c.441-.225.4-.384.039-.642a26.016,26.016,0,0,0-9.773-4.38.793.793,0,0,0-.878.317,67.973,67.973,0,0,0-4.563,6.138c-.349.527-.194.68.327.828a16.183,16.183,0,0,0,4.224.585m-3.438-8.361a19.616,19.616,0,0,0-6.3,1.066c-.5.175-.611.414-.482.917a7.725,7.725,0,0,0,4.06,4.992c.288.157.476.143.661-.151a58.1,58.1,0,0,1,4.468-6.12c.28-.337.206-.519-.224-.552-.727-.056-1.454-.1-2.181-.154" transform="translate(0)"/>
    <rect id="Rectangle_75" data-name="Rectangle 75" width="258.061" height="139.37" fill="none"/>
  </g>
</svg>
