<svg xmlns="http://www.w3.org/2000/svg" width="502.999" height="276.249" viewBox="0 0 502.999 276.249">
  <g id="Group_419" data-name="Group 419" transform="translate(-24.041 0.033)">
    <path id="Path_6019" data-name="Path 6019" d="M234.024,36.719,232.95,46.966l-3.919-.811a10.166,10.166,0,0,0-.539-1.037c-2.135-3.468-5.889-5.032-8.387-3.494s-2.793,5.595-.658,9.062a9.067,9.067,0,0,0,3.829,3.517l-9.166,19.839,17.022,3.522,6.2-13.41,4.231,2.307a11.912,11.912,0,0,0,16.6-10.543l.054-13.335Z" transform="translate(13.606 2.593)" fill="#f79463"/>
    <path id="Path_6020" data-name="Path 6020" d="M234.024,36.719,232.95,46.966l-3.919-.811a10.166,10.166,0,0,0-.539-1.037c-2.135-3.468-5.889-5.032-8.387-3.494s-2.793,5.595-.658,9.062a9.067,9.067,0,0,0,3.829,3.517l-9.166,19.839,17.022,3.522,6.2-13.41,4.231,2.307a11.912,11.912,0,0,0,16.6-10.543l.054-13.335Z" transform="translate(13.606 2.593)" fill="none" stroke="#000" stroke-miterlimit="10" stroke-width="1"/>
    <path id="Path_6021" data-name="Path 6021" d="M269.227,163.549H199.584s-15.705,26.386-21.81,52.936c-2.81,12.218-4.829,29.086-6.28,47.557h113c-1.378-37.77-5.531-75.628-15.266-100.493" transform="translate(10.556 11.672)" fill="#ee5064"/>
    <path id="Path_6022" data-name="Path 6022" d="M269.227,163.549H199.584s-15.705,26.386-21.81,52.936c-2.81,12.218-4.829,29.086-6.28,47.557h113C283.115,226.272,278.961,188.414,269.227,163.549Z" transform="translate(10.556 11.672)" fill="none" stroke="#000" stroke-miterlimit="10" stroke-width="1"/>
    <path id="Path_6023" data-name="Path 6023" d="M178.946,253.638c2.6-61.939,30.426-90.509,30.706-90.789l-1.24-1.24c-.286.285-28.581,29.282-31.215,91.957q-.223,5.3-.438,10.615h1.752q.214-5.272.435-10.543" transform="translate(10.933 11.533)"/>
    <path id="Path_6024" data-name="Path 6024" d="M275.241,98.861,258.357,77.619c-5.421-6.269-9.7-9.976-16.667-9.976h-1.6l.692-1.4-21.737-4.5-2.919,5.9h-1.013a18.834,18.834,0,0,0-14.242,6.5,16.028,16.028,0,0,0-8.3,9.4l-24.1,72.327a16.069,16.069,0,0,0,16.859,21.083l58.74,4.694,1.626-10.818h23.8l3.568-32.962a31.331,31.331,0,0,1,2.892-10.843,31.33,31.33,0,0,0-.722-28.17" transform="translate(10.28 4.384)" fill="#fff"/>
    <path id="Path_6025" data-name="Path 6025" d="M275.241,98.861,258.357,77.619c-5.421-6.269-9.7-9.976-16.667-9.976h-1.6l.692-1.4-21.737-4.5-2.919,5.9h-1.013a18.834,18.834,0,0,0-14.242,6.5,16.028,16.028,0,0,0-8.3,9.4l-24.1,72.327a16.069,16.069,0,0,0,16.859,21.083l58.74,4.694,1.626-10.818h23.8l3.568-32.962a31.331,31.331,0,0,1,2.892-10.843A31.33,31.33,0,0,0,275.241,98.861Z" transform="translate(10.28 4.384)" fill="none" stroke="#000" stroke-miterlimit="10" stroke-width="1"/>
    <path id="Path_6026" data-name="Path 6026" d="M222.269,40.532a17.887,17.887,0,1,0,21.14-13.892,17.887,17.887,0,0,0-21.14,13.892" transform="translate(14.164 1.844)" fill="#f79463"/>
    <path id="Path_6027" data-name="Path 6027" d="M260.164,38.61c-2.5-5.387-5.626-9.492-7.823-10.552-2.091-1.846-7.3-2.974-16.332-1.037a19.1,19.1,0,1,0-11.883,10.792,22.46,22.46,0,0,0-.935,7.913l4.177,3.493A43.878,43.878,0,0,0,241.29,44.6c3.686-2.09,7.026-6.148,9.2-9.209a41.186,41.186,0,0,0,2.428,6.583c3.176,6.847,7.374,11.646,9.375,10.718s1.049-7.233-2.127-14.081" transform="translate(12.548 0)" fill="#2c2334"/>
    <path id="Path_6028" data-name="Path 6028" d="M260.164,38.61c-2.5-5.387-5.626-9.492-7.823-10.552-2.091-1.846-7.3-2.974-16.332-1.037a19.1,19.1,0,1,0-11.883,10.792,22.46,22.46,0,0,0-.935,7.913l4.177,3.493A43.878,43.878,0,0,0,241.29,44.6c3.686-2.09,7.026-6.148,9.2-9.209a41.186,41.186,0,0,0,2.428,6.583c3.176,6.847,7.374,11.646,9.375,10.718S263.34,45.457,260.164,38.61Z" transform="translate(12.548 0)" fill="none" stroke="#000" stroke-miterlimit="10" stroke-width="1"/>
    <path id="Path_6029" data-name="Path 6029" d="M224.739,49.6l.944-.424a6.658,6.658,0,0,0-4.908-3.909L220.64,46.3a5.626,5.626,0,0,1,4.1,3.307" transform="translate(14.074 3.205)"/>
    <rect id="Rectangle_433" data-name="Rectangle 433" width="1.035" height="4.321" transform="translate(246.948 65.048) rotate(-60.064)"/>
    <path id="Path_6030" data-name="Path 6030" d="M246.8,57.1a14.709,14.709,0,0,0,1.63.249l.086-1.032a14.228,14.228,0,0,1-2.889-.6,8.319,8.319,0,0,1-2.591-1.61l-.71.753A9.315,9.315,0,0,0,245.3,56.7a13.387,13.387,0,0,0,1.5.4" transform="translate(15.627 3.838)" fill="#2c2334"/>
    <path id="Path_6031" data-name="Path 6031" d="M248.912,53.027c.408-.409,1.356-1.438,1.342-2.15A.761.761,0,0,0,250,50.33a3,3,0,0,0-1.794-.407l.075-1.79-1.033-.044-.125,2.925.577-.039a5.831,5.831,0,0,1,1.467.071,6.2,6.2,0,0,1-.986,1.249Z" transform="translate(15.97 3.407)" fill="#2c2334"/>
    <path id="Path_6032" data-name="Path 6032" d="M242.628,46.575c-.171.827.055,1.574.5,1.667s.954-.5,1.124-1.331-.054-1.574-.5-1.666-.953.5-1.124,1.33" transform="translate(15.644 3.203)" fill="#2c2334"/>
    <path id="Path_6033" data-name="Path 6033" d="M249.92,48.084c-.171.827.055,1.574.5,1.667s.954-.5,1.124-1.331-.054-1.574-.5-1.666-.953.5-1.124,1.33" transform="translate(16.166 3.311)" fill="#2c2334"/>
    <path id="Path_6034" data-name="Path 6034" d="M224.107,54.115a4.358,4.358,0,0,0,.7.09l.041-1.035a5.611,5.611,0,0,1-1.933-.562l-.474.922a7.335,7.335,0,0,0,1.667.585" transform="translate(14.203 3.73)"/>
    <path id="Path_6035" data-name="Path 6035" d="M234.505,209.318l12.71-3.349-.446-1.692-13.887,3.657-5.249,53.193h1.761Z" transform="translate(14.575 14.588)"/>
    <rect id="Rectangle_434" data-name="Rectangle 434" width="1.651" height="10.772" transform="translate(236.49 77.046) rotate(-78.309)"/>
    <path id="Path_6036" data-name="Path 6036" d="M246.244,152.332l69.331,9.105a4.718,4.718,0,0,0,4.928-3.191l19.212-57.6a3.125,3.125,0,0,0-2.639-4.186l-69.329-9.1a4.719,4.719,0,0,0-4.929,3.19l-19.212,57.6a3.124,3.124,0,0,0,2.639,4.185" transform="translate(15.706 6.215)" fill="#2c2334"/>
    <path id="Path_6037" data-name="Path 6037" d="M247.747,152.529l69.331,9.105a4.718,4.718,0,0,0,4.928-3.191l19.212-57.6a3.125,3.125,0,0,0-2.639-4.186l-69.329-9.1a4.719,4.719,0,0,0-4.929,3.19l-19.213,57.6a3.124,3.124,0,0,0,2.639,4.185" transform="translate(15.813 6.23)" fill="#e099c7"/>
    <path id="Path_6038" data-name="Path 6038" d="M247.747,152.529l69.331,9.105a4.718,4.718,0,0,0,4.928-3.191l19.212-57.6a3.125,3.125,0,0,0-2.639-4.186l-69.329-9.1a4.719,4.719,0,0,0-4.929,3.19l-19.213,57.6A3.124,3.124,0,0,0,247.747,152.529Z" transform="translate(15.813 6.23)" fill="none" stroke="#000" stroke-miterlimit="10" stroke-width="1"/>
    <path id="Path_6039" data-name="Path 6039" d="M293.145,129.278l8.2-5.309-4.39-6.961-8.2,5.308Zm5.562-5.655-4.764,3.084-2.55-4.044,4.763-3.085Z" transform="translate(18.95 8.34)" fill="#2c2334"/>
    <path id="Path_6040" data-name="Path 6040" d="M330.348,113.809l0-.059-13.308-3.4c-1.437-.373-2.846.811-3.138,2.643a4.312,4.312,0,0,0,.027,1.5,3.043,3.043,0,0,0,2.06,2.457l9.2,2.359-.032.3-10.039-1.663-2.749-.45c-1.454-.245-2.794,1.061-2.977,2.894a4.105,4.105,0,0,0,.114,1.5,2.927,2.927,0,0,0,2.179,2.275l13.081,2.144c-1.447-.218-13.952-.755-14.15,1.069a4.354,4.354,0,0,0,.114,1.5,2.912,2.912,0,0,0,2.189,2.271l4.245.709,6.617,1.087,0,.021-7.007-.887c-1.46-.191-2.757,1.158-2.908,3a4.081,4.081,0,0,0,.148,1.5,2.873,2.873,0,0,0,2.231,2.194l8.416,1.065,2.465.407a9.425,9.425,0,0,0,10.91-8.332l.569-5.506a11.947,11.947,0,0,0-8.261-12.6" transform="translate(20.426 7.859)" fill="#f79463"/>
    <path id="Path_6041" data-name="Path 6041" d="M330.348,113.809l0-.059-13.308-3.4c-1.437-.373-2.846.811-3.138,2.643a4.312,4.312,0,0,0,.027,1.5,3.043,3.043,0,0,0,2.06,2.457l9.2,2.359-.032.3-10.039-1.663-2.749-.45c-1.454-.245-2.794,1.061-2.977,2.894a4.105,4.105,0,0,0,.114,1.5,2.927,2.927,0,0,0,2.179,2.275l13.081,2.144c-1.447-.218-13.952-.755-14.15,1.069a4.354,4.354,0,0,0,.114,1.5,2.912,2.912,0,0,0,2.189,2.271l4.245.709,6.617,1.087,0,.021-7.007-.887c-1.46-.191-2.757,1.158-2.908,3a4.081,4.081,0,0,0,.148,1.5,2.873,2.873,0,0,0,2.231,2.194l8.416,1.065,2.465.407a9.425,9.425,0,0,0,10.91-8.332l.569-5.506A11.947,11.947,0,0,0,330.348,113.809Z" transform="translate(20.426 7.859)" fill="none" stroke="#000" stroke-miterlimit="10" stroke-width="1"/>
    <path id="Path_6042" data-name="Path 6042" d="M278.354,149.162l-25.508-3.833-9.157-1.376-3.815,25.384,15.751,1.123,4.138.7a3.2,3.2,0,0,0,2.5-5.657l3.35.568a4.37,4.37,0,0,0,3.654-2.7,3.2,3.2,0,0,0-1.125-2.936l.72.122a3.2,3.2,0,0,0,1.9-6.039l6.633,1a3.213,3.213,0,0,0,.955-6.355" transform="translate(15.451 10.269)" fill="#f79463"/>
    <path id="Path_6043" data-name="Path 6043" d="M278.354,149.162l-25.508-3.833-9.157-1.376-3.815,25.384,15.751,1.123,4.138.7a3.2,3.2,0,0,0,2.5-5.657l3.35.568a4.37,4.37,0,0,0,3.654-2.7,3.2,3.2,0,0,0-1.125-2.936l.72.122a3.2,3.2,0,0,0,1.9-6.039l6.633,1a3.213,3.213,0,0,0,.955-6.355Z" transform="translate(15.451 10.269)" fill="none" stroke="#000" stroke-miterlimit="10" stroke-width="1"/>
    <path id="Path_6044" data-name="Path 6044" d="M232.071,143.132,194.845,140.5l.242-1.632,37.478,2.7Z" transform="translate(12.227 9.905)"/>
    <path id="Path_6045" data-name="Path 6045" d="M204.561,142.278l-1.567-.521L213.8,110.221l1.566.521Z" transform="translate(12.811 7.855)"/>
    <path id="Path_6046" data-name="Path 6046" d="M291.191,64.527a3.434,3.434,0,1,1,3.434-3.434,3.439,3.439,0,0,1-3.434,3.434m0-5.582a2.147,2.147,0,1,0,2.147,2.147,2.15,2.15,0,0,0-2.147-2.147" transform="translate(18.879 4.092)" fill="#b25696"/>
    <path id="Path_6047" data-name="Path 6047" d="M55.562,146.51A3.434,3.434,0,1,1,59,143.075a3.438,3.438,0,0,1-3.434,3.434m0-5.582a2.147,2.147,0,1,0,2.147,2.147,2.15,2.15,0,0,0-2.147-2.147" transform="translate(2.011 9.961)" fill="#b25696"/>
    <path id="Path_6048" data-name="Path 6048" d="M398.733,68.188a6.665,6.665,0,1,1,6.665-6.665,6.672,6.672,0,0,1-6.665,6.665m0-10.938a4.273,4.273,0,1,0,4.272,4.272,4.278,4.278,0,0,0-4.272-4.272" transform="translate(26.346 3.891)" fill="#b25696"/>
    <rect id="Rectangle_436" data-name="Rectangle 436" width="2.392" height="12.928" transform="translate(519.381 223.529)" fill="#b25696"/>
    <rect id="Rectangle_437" data-name="Rectangle 437" width="12.928" height="2.392" transform="translate(514.113 228.798)" fill="#b25696"/>
    <rect id="Rectangle_438" data-name="Rectangle 438" width="2.392" height="12.928" transform="translate(29.309 256.657)" fill="#b25696"/>
    <rect id="Rectangle_439" data-name="Rectangle 439" width="12.928" height="2.392" transform="translate(24.041 261.925)" fill="#b25696"/>
    <rect id="Rectangle_440" data-name="Rectangle 440" width="2.392" height="30.251" transform="translate(75.7 88.724)"/>
    <path id="Path_6049" data-name="Path 6049" d="M70.628,88.454l-1.813-1.56L73.8,81.1l4.781,5.82-1.848,1.518L73.76,84.813Z" transform="translate(3.205 5.77)"/>
    <rect id="Rectangle_441" data-name="Rectangle 441" width="2.392" height="55.997" transform="translate(52.564 32.749)"/>
    <path id="Path_6050" data-name="Path 6050" d="M49.037,36.22l-1.813-1.56,4.987-5.8,4.781,5.82L55.144,36.2,52.17,32.578Z" transform="translate(1.66 2.03)"/>
    <rect id="Rectangle_442" data-name="Rectangle 442" width="2.392" height="55.997" transform="translate(492.966 40.723)"/>
    <path id="Path_6051" data-name="Path 6051" d="M460.019,43.66l-1.813-1.56,4.987-5.8,4.781,5.82-1.848,1.518-2.975-3.621Z" transform="translate(31.08 2.563)"/>
    <rect id="Rectangle_443" data-name="Rectangle 443" width="2.392" height="35.126" transform="translate(469.017 91.549)"/>
    <path id="Path_6052" data-name="Path 6052" d="M356.647,60.086l-8.038-8.038,8.038-8.038,8.039,8.038Zm-4.67-8.038,4.67,4.67,4.671-4.67-4.671-4.671Z" transform="translate(23.235 3.115)" fill="#b25696"/>
    <rect id="Rectangle_444" data-name="Rectangle 444" width="2.392" height="12.928" transform="translate(345.562 7.251)" fill="#b25696"/>
    <rect id="Rectangle_445" data-name="Rectangle 445" width="12.928" height="2.392" transform="translate(340.294 12.519)" fill="#b25696"/>
    <path id="Path_6053" data-name="Path 6053" d="M95.715,62.982l-8.038-8.038,8.038-8.038,8.038,8.038Zm-4.67-8.038,4.67,4.67,4.671-4.67-4.671-4.67Z" transform="translate(4.555 3.322)" fill="#b25696"/>
    <path id="Path_6054" data-name="Path 6054" d="M226.4,197.729,181.9,159.073l-16.108-13.965a40.174,40.174,0,0,0-31.762-15.539H106.984a40.265,40.265,0,0,0-37.1,24.622l-1.51,2.608L35.158,214.252a16.454,16.454,0,0,0,28.5,16.457l3.075-5.313v41.079H168.546l4.068-68.563L203.2,224.477a17.7,17.7,0,0,0,23.2-26.748" transform="translate(0.639 9.24)" fill="#a62973"/>
    <path id="Path_6055" data-name="Path 6055" d="M226.4,197.729,181.9,159.073l-16.108-13.965a40.174,40.174,0,0,0-31.762-15.539H106.984a40.265,40.265,0,0,0-37.1,24.622l-1.51,2.608L35.158,214.252a16.454,16.454,0,0,0,28.5,16.457l3.075-5.313v41.079H168.546l4.068-68.563L203.2,224.477a17.7,17.7,0,0,0,23.2-26.748Z" transform="translate(0.639 9.24)" fill="none" stroke="#000" stroke-miterlimit="10" stroke-width="1"/>
    <path id="Path_6056" data-name="Path 6056" d="M34.865,121.07a6.665,6.665,0,1,1,6.665-6.665,6.673,6.673,0,0,1-6.665,6.665m0-10.938a4.273,4.273,0,1,0,4.272,4.272,4.277,4.277,0,0,0-4.272-4.272" transform="translate(0.298 7.677)" fill="#b25696"/>
    <rect id="Rectangle_446" data-name="Rectangle 446" width="2.392" height="12.928" transform="translate(512.917 120.474)" fill="#b25696"/>
    <rect id="Rectangle_447" data-name="Rectangle 447" width="12.928" height="2.392" transform="translate(507.649 125.742)" fill="#b25696"/>
    <path id="Path_6057" data-name="Path 6057" d="M476.242,212.334l-33.212-57.453-5.818-10.047a15.994,15.994,0,0,0-4.794-5.225,16.409,16.409,0,0,0-13.458-2.495,53.739,53.739,0,0,0-64.264,7.034,16.467,16.467,0,0,0-7.6,2.375,15.993,15.993,0,0,0-5.129,4.9l-6.469,9.641L298.566,216.2a16.454,16.454,0,0,0,27.349,18.3l11.8-17.6v49.576H445.267V224.512l2.477,4.28a16.454,16.454,0,0,0,28.5-16.457" transform="translate(19.454 9.24)" fill="#672376"/>
    <path id="Path_6058" data-name="Path 6058" d="M476.242,212.334l-33.212-57.453-5.818-10.047a15.994,15.994,0,0,0-4.794-5.225,16.409,16.409,0,0,0-13.458-2.495,53.739,53.739,0,0,0-64.264,7.034,16.467,16.467,0,0,0-7.6,2.375,15.993,15.993,0,0,0-5.129,4.9l-6.469,9.641L298.566,216.2a16.454,16.454,0,0,0,27.349,18.3l11.8-17.6v49.576H445.267V224.512l2.477,4.28a16.454,16.454,0,0,0,28.5-16.457Z" transform="translate(19.454 9.24)" fill="none" stroke="#000" stroke-miterlimit="10" stroke-width="1"/>
    <path id="Path_6059" data-name="Path 6059" d="M336.124,221.651l1.576-.038-1.152-44.762-1.575.038Z" transform="translate(22.259 12.624)" fill="#672376"/>
    <path id="Path_6060" data-name="Path 6060" d="M336.124,221.651l1.576-.038-1.152-44.762-1.575.038Z" transform="translate(22.259 12.624)" fill="none" stroke="#000" stroke-miterlimit="10" stroke-width="1"/>
    <path id="Path_6061" data-name="Path 6061" d="M435.929,220.808l1.366-.787-22.411-38.765-1.366.787Z" transform="translate(27.881 12.94)" fill="#672376"/>
    <path id="Path_6062" data-name="Path 6062" d="M435.929,220.808l1.366-.787-22.411-38.765-1.366.787Z" transform="translate(27.881 12.94)" fill="none" stroke="#000" stroke-miterlimit="10" stroke-width="1"/>
    <path id="Path_6063" data-name="Path 6063" d="M348.544,102.385A14.6,14.6,0,1,0,358.609,84.35a14.6,14.6,0,0,0-10.064,18.035" transform="translate(23.19 5.963)"/>
    <path id="Path_6064" data-name="Path 6064" d="M348.544,102.385A14.6,14.6,0,1,0,358.609,84.35,14.6,14.6,0,0,0,348.544,102.385Z" transform="translate(23.19 5.963)" fill="none" stroke="#000" stroke-miterlimit="10" stroke-width="1"/>
    <path id="Path_6065" data-name="Path 6065" d="M372.921,113.758a12.635,12.635,0,1,0,8.708-15.6,12.635,12.635,0,0,0-8.708,15.6" transform="translate(24.941 6.956)"/>
    <path id="Path_6066" data-name="Path 6066" d="M372.921,113.758a12.635,12.635,0,1,0,8.708-15.6A12.635,12.635,0,0,0,372.921,113.758Z" transform="translate(24.941 6.956)" fill="none" stroke="#000" stroke-miterlimit="10" stroke-width="1"/>
    <path id="Path_6067" data-name="Path 6067" d="M398.08,132.866l-9.4-17.436a7.988,7.988,0,0,0,4.09-5.193c1.086-3.792-.25-7.5-2.98-8.281a3.831,3.831,0,0,0-1.141-.139c-.051-.207-.085-.414-.144-.62a18.387,18.387,0,0,0-36.073,5.5l-.022.008.033.429c.015.3.039.6.069.9l.945,12.344a12.239,12.239,0,0,0,17.351,9.786l1.383,2.5L368.4,133s-1.765,3.814-1.012,7.261c1.234,5.642,10.733,6.272,19.551,2.6,4.963-2.071,8.607-5.168,10.293-8.353.2-.378.585-1.038.8-1.394Z" transform="translate(23.507 6.251)" fill="#cc715e"/>
    <path id="Path_6068" data-name="Path 6068" d="M398.08,132.866l-9.4-17.436a7.988,7.988,0,0,0,4.09-5.193c1.086-3.792-.25-7.5-2.98-8.281a3.831,3.831,0,0,0-1.141-.139c-.051-.207-.085-.414-.144-.62a18.387,18.387,0,0,0-36.073,5.5l-.022.008.033.429c.015.3.039.6.069.9l.945,12.344a12.239,12.239,0,0,0,17.351,9.786l1.383,2.5L368.4,133s-1.765,3.814-1.012,7.261c1.234,5.642,10.733,6.272,19.551,2.6,4.963-2.071,8.607-5.168,10.293-8.353.2-.378.585-1.038.8-1.394Z" transform="translate(23.507 6.251)" fill="none" stroke="#000" stroke-miterlimit="10" stroke-width="1"/>
    <path id="Path_6069" data-name="Path 6069" d="M354.461,91.541s8.6,9.183,16.594,11.5a48.823,48.823,0,0,0,16.5,1.4l3.546-5.016s-2.836-17.794-19.218-17.4-20.348,6.678-17.421,9.512" transform="translate(23.59 5.836)"/>
    <path id="Path_6070" data-name="Path 6070" d="M354.461,91.541s8.6,9.183,16.594,11.5a48.823,48.823,0,0,0,16.5,1.4l3.546-5.016s-2.836-17.794-19.218-17.4S351.534,88.707,354.461,91.541Z" transform="translate(23.59 5.836)" fill="none" stroke="#000" stroke-miterlimit="10" stroke-width="1"/>
    <path id="Path_6071" data-name="Path 6071" d="M371.224,116.832l.191,6.846-16.238,3.906-.226-8.579a3.272,3.272,0,0,1,2.614-3.291l9.732-2a3.271,3.271,0,0,1,3.927,3.113" transform="translate(23.689 8.1)"/>
    <path id="Path_6072" data-name="Path 6072" d="M382.728,106.571s3.3,13.594,3.251,14.859-15.022,16.692-24.515,13.849-8.209-18.118-8.209-18.118.461,9.181,9.963,6.283,17.272-9.691,16.789-18.087Z" transform="translate(23.563 7.506)"/>
    <path id="Path_6073" data-name="Path 6073" d="M384.488,108.186a5.448,5.448,0,0,1,2.96-4.155l-.394-.922a6.454,6.454,0,0,0-3.558,4.927Z" transform="translate(25.732 7.346)"/>
    <path id="Path_6074" data-name="Path 6074" d="M362.618,120.1a13.592,13.592,0,0,0,1.511-.521,9.587,9.587,0,0,0,2.914-2.107l-.784-.721a8.623,8.623,0,0,1-2.54,1.845,14.569,14.569,0,0,1-2.919.827l.165,1.052a15.029,15.029,0,0,0,1.653-.376" transform="translate(24.107 8.322)" fill="#cc715e"/>
    <path id="Path_6075" data-name="Path 6075" d="M359.941,116.081l.7-.8a6.285,6.285,0,0,1-1.1-1.209,6.029,6.029,0,0,1,1.5-.181l.594,0-.345-2.992-1.058.122.211,1.83a3.086,3.086,0,0,0-1.811.551.783.783,0,0,0-.22.582c.038.73,1.087,1.715,1.536,2.1" transform="translate(23.936 7.903)"/>
    <path id="Path_6076" data-name="Path 6076" d="M365.821,108.991c.237.837.061,1.619-.393,1.748s-1.015-.445-1.252-1.281-.062-1.619.392-1.749,1.016.445,1.253,1.282" transform="translate(24.341 7.673)"/>
    <path id="Path_6077" data-name="Path 6077" d="M358.453,111.082c.237.837.061,1.619-.393,1.748s-1.015-.445-1.252-1.281-.062-1.619.392-1.749,1.016.445,1.253,1.282" transform="translate(23.814 7.823)"/>
    <path id="Path_6078" data-name="Path 6078" d="M386.115,114.8a7.706,7.706,0,0,0,1.072-.391l-.454-.963a5.782,5.782,0,0,1-2.008.51l.007,1.065a5.346,5.346,0,0,0,1.383-.221" transform="translate(25.82 8.085)"/>
    <rect id="Rectangle_448" data-name="Rectangle 448" width="1.065" height="2.975" transform="translate(398.314 144.734) rotate(-28.937)"/>
    <path id="Path_6079" data-name="Path 6079" d="M465.478,207.753h0c-5.872-7.22-16.044-8.813-22.719-3.558l-47.637,31.971,16.965,20.858,51.939-26.684c6.675-5.255,7.324-15.368,1.452-22.588" transform="translate(26.564 14.36)" fill="#cc715e"/>
    <path id="Path_6080" data-name="Path 6080" d="M465.478,207.753h0c-5.872-7.22-16.044-8.813-22.719-3.558l-47.637,31.971,16.965,20.858,51.939-26.684C470.7,225.085,471.35,214.973,465.478,207.753Z" transform="translate(26.564 14.36)" fill="none" stroke="#000" stroke-miterlimit="10" stroke-width="1"/>
    <path id="Path_6081" data-name="Path 6081" d="M297.245,210.395h0c5.872-7.22,16.044-8.813,22.719-3.558L367.6,238.808l-16.965,20.858L298.7,232.983c-6.675-5.255-7.324-15.368-1.452-22.588" transform="translate(19.271 14.549)" fill="#cc715e"/>
    <path id="Path_6082" data-name="Path 6082" d="M297.245,210.395h0c5.872-7.22,16.044-8.813,22.719-3.558L367.6,238.808l-16.965,20.858L298.7,232.983C292.022,227.727,291.373,217.615,297.245,210.395Z" transform="translate(19.271 14.549)" fill="none" stroke="#000" stroke-miterlimit="10" stroke-width="1"/>
    <path id="Path_6083" data-name="Path 6083" d="M416.168,261.771H323.522a5.983,5.983,0,0,1-5.779-4.745l-9.459-57a4.02,4.02,0,0,1,4.2-4.745h92.645a5.985,5.985,0,0,1,5.781,4.745l9.457,57a4.019,4.019,0,0,1-4.2,4.745" transform="translate(20.344 13.944)" fill="#fff"/>
    <path id="Path_6084" data-name="Path 6084" d="M414.51,261.771H321.865a5.984,5.984,0,0,1-5.78-4.745l-9.458-57a4.019,4.019,0,0,1,4.2-4.745h92.645a5.983,5.983,0,0,1,5.78,4.745l9.458,57a4.02,4.02,0,0,1-4.2,4.745" transform="translate(20.225 13.944)" fill="#2d2d2d"/>
    <path id="Path_6085" data-name="Path 6085" d="M360.723,234.438l-9.285-7.625,6.755-7.623,9.285,7.623Zm-5.926-7.625,5.4,4.432,3.924-4.432-5.394-4.43Z" transform="translate(23.437 15.655)" fill="#fff"/>
    <path id="Path_6086" data-name="Path 6086" d="M218.9,197.782h0a17.7,17.7,0,0,0-24.923-2.3L141.335,237.95l18.016,18.718L216.605,222.7a17.7,17.7,0,0,0,2.3-24.923" transform="translate(8.397 13.666)" fill="#f79463"/>
    <path id="Path_6087" data-name="Path 6087" d="M218.9,197.782h0a17.7,17.7,0,0,0-24.923-2.3L141.335,237.95l18.016,18.718L216.605,222.7A17.7,17.7,0,0,0,218.9,197.782Z" transform="translate(8.397 13.666)" fill="none" stroke="#000" stroke-miterlimit="10" stroke-width="1"/>
    <rect id="Rectangle_449" data-name="Rectangle 449" width="1.577" height="9.09" transform="translate(172.598 195.796)" fill="#2c2334"/>
    <path id="Path_6088" data-name="Path 6088" d="M148.382,103.073q0-.471-.011-.939l-.006-.444-.022-.005a19.012,19.012,0,0,0-37.654-2.366c-.041.219-.056.435-.09.653a3.877,3.877,0,0,0-1.163.248c-2.741,1.054-3.776,4.995-2.312,8.8a8.258,8.258,0,0,0,4.686,4.975l-8.169,19.013,20.3,11.755,7.624-17.228a12.654,12.654,0,0,0,16.974-11.664Z" transform="translate(5.698 5.967)" fill="#f79463"/>
    <path id="Path_6089" data-name="Path 6089" d="M148.382,103.073q0-.471-.011-.939l-.006-.444-.022-.005a19.012,19.012,0,0,0-37.654-2.366c-.041.219-.056.435-.09.653a3.877,3.877,0,0,0-1.163.248c-2.741,1.054-3.776,4.995-2.312,8.8a8.258,8.258,0,0,0,4.686,4.975l-8.169,19.013,20.3,11.755,7.624-17.228a12.654,12.654,0,0,0,16.974-11.664Z" transform="translate(5.698 5.967)" fill="none" stroke="#000" stroke-miterlimit="10" stroke-width="1"/>
    <path id="Path_6090" data-name="Path 6090" d="M131.871,105.873c-.174.911.088,1.725.582,1.818s1.036-.567,1.209-1.478-.087-1.725-.582-1.82-1.035.568-1.209,1.479" transform="translate(7.715 7.437)" fill="#2c2334"/>
    <path id="Path_6091" data-name="Path 6091" d="M139.893,107.4c-.174.911.088,1.725.582,1.818s1.036-.567,1.21-1.478-.088-1.725-.583-1.82-1.035.568-1.209,1.479" transform="translate(8.29 7.546)" fill="#2c2334"/>
    <path id="Path_6092" data-name="Path 6092" d="M143.733,82.11a12.972,12.972,0,0,0-7.528.709,27.837,27.837,0,0,0-10.866-1.207c-16.905,1.089-18.2,19.673-18.2,19.673l5.287,9.289s2.164-4.153,10.187-7.268c3.17-1.23,1.264-7.242,4.574-9.705a9.786,9.786,0,0,1,5.12-1.55c1.363,2.725,4.5,4.988,8.446,5.739,5.84,1.111,11.242-1.5,12.065-5.829s-3.243-8.742-9.083-9.852" transform="translate(5.949 5.801)" fill="#2c2334"/>
    <path id="Path_6093" data-name="Path 6093" d="M143.733,82.11a12.972,12.972,0,0,0-7.528.709,27.837,27.837,0,0,0-10.866-1.207c-16.905,1.089-18.2,19.673-18.2,19.673l5.287,9.289s2.164-4.153,10.187-7.268c3.17-1.23,1.264-7.242,4.574-9.705a9.786,9.786,0,0,1,5.12-1.55c1.363,2.725,4.5,4.988,8.446,5.739,5.84,1.111,11.242-1.5,12.065-5.829S149.573,83.221,143.733,82.11Z" transform="translate(5.949 5.801)" fill="none" stroke="#000" stroke-miterlimit="10" stroke-width="1"/>
    <path id="Path_6094" data-name="Path 6094" d="M112.862,106.237a5.631,5.631,0,0,0-3.427-4.008l.321-.986a6.673,6.673,0,0,1,4.113,4.749Z" transform="translate(6.113 7.212)" fill="#2c2334"/>
    <path id="Path_6095" data-name="Path 6095" d="M136.633,116.5a13.972,13.972,0,0,1-1.6-.4,9.876,9.876,0,0,1-3.193-1.9l.743-.813a8.871,8.871,0,0,0,2.783,1.668,15.089,15.089,0,0,0,3.082.585l-.074,1.1a16.068,16.068,0,0,1-1.737-.237" transform="translate(7.717 8.081)" fill="#2c2334"/>
    <path id="Path_6096" data-name="Path 6096" d="M138.8,112.13l-.792-.765a6.492,6.492,0,0,0,1.024-1.346,6.221,6.221,0,0,0-1.558-.049l-.613.05.083-3.112,1.1.029-.05,1.9a3.183,3.183,0,0,1,1.915.4.806.806,0,0,1,.281.579c.027.755-.962,1.866-1.39,2.308" transform="translate(8.077 7.617)" fill="#2c2334"/>
    <path id="Path_6097" data-name="Path 6097" d="M112.157,112.84a7.911,7.911,0,0,1-1.139-.305l.38-1.033a5.988,5.988,0,0,0,2.113.342l.091,1.1a5.5,5.5,0,0,1-1.446-.1" transform="translate(6.226 7.946)"/>
    <path id="Path_6098" data-name="Path 6098" d="M64.861,222.6l-1.366-.787,22.411-38.762,1.366.787Z" transform="translate(2.824 13.068)" fill="#2c2334"/>
    <path id="Path_6099" data-name="Path 6099" d="M142.314,243.177,128.769,237.5l10.693,4.482a3.214,3.214,0,0,0,4.188-1.675l.12-.274a3.214,3.214,0,0,0-1.7-4.255l-8.5-3.562a3.434,3.434,0,0,0,.233-.7l.053-.253a3.445,3.445,0,0,0-2.861-4.1l-13.49-2.029c-.355-.009-.5-.009-.858-.009l-5.309-2.225L56.9,204.788c-7.835-3.284-17.213.964-20.946,9.489s-.41,18.1,7.424,21.382l57.174,11.862,4.486,1.881-.015.032,22.66,9.5a3.216,3.216,0,0,0,4.188-1.675l.12-.275a3.213,3.213,0,0,0-1.7-4.254l-6.919-2.9,11.577,4.853a3.215,3.215,0,0,0,4.189-1.675l.12-.274a3.216,3.216,0,0,0-1.7-4.255l-11.484-4.815,13.639,5.718a3.214,3.214,0,0,0,4.188-1.675l.12-.274a3.216,3.216,0,0,0-1.7-4.255" transform="translate(0.743 14.545)" fill="#f79463"/>
    <path id="Path_6100" data-name="Path 6100" d="M142.314,243.177,128.769,237.5l10.693,4.482a3.214,3.214,0,0,0,4.188-1.675l.12-.274a3.214,3.214,0,0,0-1.7-4.255l-8.5-3.562a3.434,3.434,0,0,0,.233-.7l.053-.253a3.445,3.445,0,0,0-2.861-4.1l-13.49-2.029c-.355-.009-.5-.009-.858-.009l-5.309-2.225L56.9,204.788c-7.835-3.284-17.213.964-20.946,9.489s-.41,18.1,7.424,21.382l57.174,11.862,4.486,1.881-.015.032,22.66,9.5a3.216,3.216,0,0,0,4.188-1.675l.12-.275a3.213,3.213,0,0,0-1.7-4.254l-6.919-2.9,11.577,4.853a3.215,3.215,0,0,0,4.189-1.675l.12-.274a3.216,3.216,0,0,0-1.7-4.255l-11.484-4.815,13.639,5.718a3.214,3.214,0,0,0,4.188-1.675l.12-.274A3.216,3.216,0,0,0,142.314,243.177Z" transform="translate(0.743 14.545)" fill="none" stroke="#000" stroke-miterlimit="10" stroke-width="1"/>
    <path id="Path_6101" data-name="Path 6101" d="M133.136,240.317l-12.031-5.044.415-.983,12.03,5.044Z" transform="translate(6.948 16.736)"/>
    <rect id="Rectangle_450" data-name="Rectangle 450" width="1.066" height="15.045" transform="matrix(0.389, -0.921, 0.921, 0.389, 124.79, 257.939)"/>
    <path id="Path_6102" data-name="Path 6102" d="M124.454,250.3l-8.913-3.739.415-.983,8.912,3.739Z" transform="translate(6.55 17.544)"/>
    <rect id="Rectangle_451" data-name="Rectangle 451" width="58.958" height="2.624" transform="translate(96.374 273.09)" fill="#fff"/>
    <rect id="Rectangle_452" data-name="Rectangle 452" width="58.958" height="2.624" transform="translate(96.374 273.09)" fill="none" stroke="#000" stroke-miterlimit="10" stroke-width="1"/>
    <path id="Path_6103" data-name="Path 6103" d="M133.43,261.632H200.24a5.014,5.014,0,0,0,4.575-3.647l15.791-57.117a2.74,2.74,0,0,0-2.718-3.647H151.078a5.017,5.017,0,0,0-4.576,3.647l-15.79,57.117a2.74,2.74,0,0,0,2.718,3.647" transform="translate(7.628 14.083)" fill="#2c2334"/>
    <path id="Path_6104" data-name="Path 6104" d="M134.879,261.632h66.809a5.014,5.014,0,0,0,4.575-3.647l15.791-57.117a2.74,2.74,0,0,0-2.718-3.647H152.527a5.017,5.017,0,0,0-4.576,3.647l-15.79,57.117a2.74,2.74,0,0,0,2.718,3.647" transform="translate(7.732 14.083)" fill="#fff"/>
    <path id="Path_6105" data-name="Path 6105" d="M134.879,261.632h66.809a5.014,5.014,0,0,0,4.575-3.647l15.791-57.117a2.74,2.74,0,0,0-2.718-3.647H152.527a5.017,5.017,0,0,0-4.576,3.647l-15.79,57.117A2.74,2.74,0,0,0,134.879,261.632Z" transform="translate(7.732 14.083)" fill="none" stroke="#000" stroke-miterlimit="10" stroke-width="1"/>
    <path id="Path_6106" data-name="Path 6106" d="M173.626,233.746l7.61-6.065-4.519-6.065-7.611,6.065Zm5.07-6.065-4.422,3.524-2.626-3.524,4.422-3.524Z" transform="translate(10.385 15.829)"/>
    <path id="Path_6107" data-name="Path 6107" d="M437.662,89.392l-1.813-1.56,4.987-5.8,4.781,5.82-1.848,1.518-2.975-3.621Z" transform="translate(29.48 5.837)"/>
  </g>
</svg>
