<svg xmlns="http://www.w3.org/2000/svg" xmlns:xlink="http://www.w3.org/1999/xlink" width="109" height="109" viewBox="0 0 109 109">
  <defs>
    <linearGradient id="linear-gradient" x1="0.5" x2="0.5" y2="1" gradientUnits="objectBoundingBox">
      <stop offset="0" stop-color="#702576"/>
      <stop offset="1" stop-color="#bb5e96"/>
    </linearGradient>
    <linearGradient id="linear-gradient-2" x1="0.5" x2="0.5" y2="1" gradientUnits="objectBoundingBox">
      <stop offset="0" stop-color="#6e2576"/>
      <stop offset="1" stop-color="#a12873"/>
    </linearGradient>
  </defs>
  <g id="Group_385" data-name="Group 385" transform="translate(-883 -1984)">
    <path id="Path_293" data-name="Path 293" d="M123.677,78.976q.031-1.125,0-2.25l7.77-9.707a4.166,4.166,0,0,0,.771-3.677,55.829,55.829,0,0,0-5.666-13.67,4.166,4.166,0,0,0-3.125-2.047l-12.352-1.375q-.771-.812-1.562-1.562l-1.458-12.384A4.166,4.166,0,0,0,106,29.181a56.09,56.09,0,0,0-13.67-5.661,4.166,4.166,0,0,0-3.677.776l-9.681,7.728h-2.25l-9.707-7.754a4.166,4.166,0,0,0-3.677-.771,56.033,56.033,0,0,0-13.67,5.666,4.166,4.166,0,0,0-2.047,3.125L46.252,44.663q-.812.776-1.562,1.562L32.306,47.647A4.166,4.166,0,0,0,29.181,49.7a56.09,56.09,0,0,0-5.661,13.67,4.166,4.166,0,0,0,.776,3.677l7.728,9.681v2.25l-7.754,9.707a4.166,4.166,0,0,0-.771,3.677,55.83,55.83,0,0,0,5.666,13.67,4.166,4.166,0,0,0,3.125,2.047l12.352,1.375q.776.812,1.562,1.562L47.647,123.4a4.166,4.166,0,0,0,2.052,3.125,56.091,56.091,0,0,0,13.67,5.661,4.166,4.166,0,0,0,3.677-.776l9.681-7.728q1.125.031,2.25,0l9.707,7.77a4.166,4.166,0,0,0,3.677.771,55.829,55.829,0,0,0,13.67-5.666,4.166,4.166,0,0,0,2.047-3.125l1.375-12.352q.812-.771,1.562-1.562l12.384-1.458A4.166,4.166,0,0,0,126.521,106a56.091,56.091,0,0,0,5.661-13.67,4.166,4.166,0,0,0-.776-3.677Zm-8.384-3.385a38.5,38.5,0,0,1,0,4.52,4.166,4.166,0,0,0,.906,2.854l7.389,9.233a47.686,47.686,0,0,1-3.244,7.811l-11.769,1.333a4.166,4.166,0,0,0-2.656,1.375,38.592,38.592,0,0,1-3.2,3.2,4.166,4.166,0,0,0-1.375,2.656l-1.307,11.759a47.555,47.555,0,0,1-7.811,3.244l-9.238-7.39a4.166,4.166,0,0,0-2.6-.911h-.25a38.5,38.5,0,0,1-4.52,0,4.166,4.166,0,0,0-2.854.906L63.5,123.573a47.685,47.685,0,0,1-7.811-3.244L54.36,108.575a4.166,4.166,0,0,0-1.375-2.656,38.591,38.591,0,0,1-3.2-3.2,4.166,4.166,0,0,0-2.656-1.375l-11.759-1.312a47.555,47.555,0,0,1-3.244-7.811l7.389-9.238a4.166,4.166,0,0,0,.906-2.854,38.5,38.5,0,0,1,0-4.52,4.166,4.166,0,0,0-.906-2.854L32.129,63.5a47.686,47.686,0,0,1,3.244-7.811L47.127,54.36a4.166,4.166,0,0,0,2.656-1.375,38.593,38.593,0,0,1,3.2-3.2,4.166,4.166,0,0,0,1.38-2.661l1.307-11.753a47.554,47.554,0,0,1,7.811-3.244l9.238,7.389a4.166,4.166,0,0,0,2.854.906,38.5,38.5,0,0,1,4.52,0,4.166,4.166,0,0,0,2.854-.906L92.2,32.129a47.686,47.686,0,0,1,7.811,3.244l1.333,11.753a4.166,4.166,0,0,0,1.375,2.656,38.591,38.591,0,0,1,3.2,3.2,4.166,4.166,0,0,0,2.656,1.375l11.759,1.307a47.556,47.556,0,0,1,3.244,7.811l-7.39,9.238a4.166,4.166,0,0,0-.906,2.88Z" transform="translate(859.641 1960.641)" fill="url(#linear-gradient)"/>
    <rect id="Rectangle_76" data-name="Rectangle 76" width="10" height="48" rx="5" transform="translate(933 2016)" fill="url(#linear-gradient-2)"/>
    <rect id="Rectangle_77" data-name="Rectangle 77" width="8.662" height="25" rx="4.331" transform="translate(937.504 2013.411) rotate(43)" fill="url(#linear-gradient-2)"/>
    <rect id="Rectangle_78" data-name="Rectangle 78" width="8.662" height="25" rx="4.331" transform="translate(955.531 2031.694) rotate(137)" fill="url(#linear-gradient-2)"/>
  </g>
</svg>
