<svg id="Group_570" data-name="Group 570" xmlns="http://www.w3.org/2000/svg" xmlns:xlink="http://www.w3.org/1999/xlink" width="311" height="304.185" viewBox="0 0 311 304.185">
  <defs>
    <clipPath id="clip-path">
      <rect id="Rectangle_571" data-name="Rectangle 571" width="311" height="304.185" fill="none"/>
    </clipPath>
  </defs>
  <g id="Group_569" data-name="Group 569" clip-path="url(#clip-path)">
    <path id="Path_6812" data-name="Path 6812" d="M285.021,89.741s.149-1.494-1.227-4.6-1.619-10.062-1.781-12.272c0,0-1.577-1.555-2.124,4.254a117.8,117.8,0,0,0,0,14.562,3.531,3.531,0,0,0,1.572,3.233" transform="translate(-46.506 -11.44)" fill="#f9b5a2"/>
    <path id="Path_6813" data-name="Path 6813" d="M234.413,12.024V292.033a11.464,11.464,0,0,1-11.4,11.524H11.9A11.464,11.464,0,0,1,.5,292.033V12.024A11.464,11.464,0,0,1,11.9.5H223.01a11.464,11.464,0,0,1,11.4,11.524" transform="translate(-0.083 -0.079)" fill="#ee5064"/>
    <path id="Path_6814" data-name="Path 6814" d="M234.413,12.024V292.033a11.464,11.464,0,0,1-11.4,11.524H11.9A11.464,11.464,0,0,1,.5,292.033V12.024A11.464,11.464,0,0,1,11.9.5H223.01A11.464,11.464,0,0,1,234.413,12.024Z" transform="translate(-0.083 -0.079)" fill="none" stroke="#000" stroke-miterlimit="10" stroke-width="1"/>
    <rect id="Rectangle_548" data-name="Rectangle 548" width="216.648" height="285.61" rx="3.323" transform="translate(9.049 9.145)" fill="#efdfe3"/>
    <rect id="Rectangle_549" data-name="Rectangle 549" width="78.524" height="108.012" transform="translate(34.402 166.625)" fill="#fff"/>
    <rect id="Rectangle_550" data-name="Rectangle 550" width="78.524" height="108.012" transform="translate(121.82 166.625)" fill="#fff"/>
    <rect id="Rectangle_551" data-name="Rectangle 551" width="78.524" height="108.012" transform="translate(34.402 51.461)" fill="#fff"/>
    <rect id="Rectangle_552" data-name="Rectangle 552" width="66.083" height="60.866" transform="translate(40.623 57.75)" fill="#ffd4db"/>
    <rect id="Rectangle_553" data-name="Rectangle 553" width="78.524" height="108.012" transform="translate(121.82 51.461)" fill="#fff"/>
    <rect id="Rectangle_554" data-name="Rectangle 554" width="66.082" height="60.866" transform="translate(128.041 57.75)" fill="#f7b2b0"/>
    <rect id="Rectangle_555" data-name="Rectangle 555" width="66.083" height="60.866" transform="translate(40.623 172.938)" fill="#eccef4"/>
    <rect id="Rectangle_556" data-name="Rectangle 556" width="66.082" height="60.866" transform="translate(128.041 172.938)" fill="#ffcaec"/>
    <rect id="Rectangle_557" data-name="Rectangle 557" width="135.115" height="13.824" transform="translate(49.815 22.458)" fill="#fff"/>
    <rect id="Rectangle_558" data-name="Rectangle 558" width="135.115" height="1.494" transform="translate(49.815 17.778)" fill="#fff"/>
    <path id="Path_6815" data-name="Path 6815" d="M63.841,100.8A20.641,20.641,0,0,0,66.4,110.806a20.332,20.332,0,0,0,35.13,1.075A20.516,20.516,0,1,0,63.841,100.8" transform="translate(-10.617 -12.614)" fill="#fff"/>
    <path id="Path_6816" data-name="Path 6816" d="M66.911,115.922A20.332,20.332,0,0,0,102.041,117a9.341,9.341,0,0,0-6.1-3.793l-.74-.125c-.894-.148-1.78-.257-2.674-.328-.239-.023-.486-.039-.724-.054-.108,0-.224-.008-.332-.016-.131-.008-.262-.008-.4-.015-.162-.008-.316-.016-.47-.016-.917-.031-1.818-.015-2.736.039l-.694.04-.093.008-8.4.5-.679.039c-.331.015-.663.046-1,.07s-.663.07-.994.1c-.332.047-.655.086-.987.132-.123.016-.254.031-.378.055-.2.031-.408.07-.609.109-.323.055-.655.125-.971.2a34.1,34.1,0,0,0-3.938,1.083l-.67.226a10.059,10.059,0,0,0-1.541.677" transform="translate(-11.128 -17.729)" fill="#f38255" fill-rule="evenodd"/>
    <path id="Path_6817" data-name="Path 6817" d="M79.424,113.271a33.331,33.331,0,0,0-3.968.471q3.585,6.352,9.577,6,6.474-.378,7.86-7.063a33.031,33.031,0,0,0-3.607.013Z" transform="translate(-12.549 -17.73)" fill="#fdc5ae" fill-rule="evenodd"/>
    <path id="Path_6818" data-name="Path 6818" d="M96.855,86.616q2.521,1.922-1.345,7.773" transform="translate(-15.884 -13.634)" fill="none" stroke="#384562" stroke-width="2.908"/>
    <path id="Path_6819" data-name="Path 6819" d="M95.569,96.877q3.411,3.529,3.893,9.8" transform="translate(-15.894 -15.249)" fill="none" stroke="#384562" stroke-width="2.908"/>
    <path id="Path_6820" data-name="Path 6820" d="M81.9,84.1a9.2,9.2,0,0,1,8.881,1.664c2.482-1.1,3.616.875,2.534,4.441l-.061.2q-.391,1.24-1.536,4.383,2.691,3.038,3.59,9.97a5.053,5.053,0,0,1-1.743,1.63l-.528-2.837.173,3.035A13.315,13.315,0,0,1,89.2,107.8l-.559-1.729.1,1.8q-1.149.163-2.48.241a34.468,34.468,0,0,1-9.407-.72l.113-1.681-.531,1.587a34.362,34.362,0,0,1-4.038-1.2,31.738,31.738,0,0,1,1.631-6.508,29.183,29.183,0,0,1,3.1-5c-.3-5.326.79-7.528,2.305-9.031A6.027,6.027,0,0,1,81.9,84.1" transform="translate(-12.041 -13.162)" fill="#384562" fill-rule="evenodd"/>
    <path id="Path_6821" data-name="Path 6821" d="M93.054,89.935l.788,10.591A2.777,2.777,0,0,1,92.35,103.2a4.83,4.83,0,0,1-3.4.385l-.572-.146.971,6.025a4.323,4.323,0,1,1-8.578.931c-.008-.144-.009-.289,0-.433l.344-8.406q.03-.731.12-1.458l.273-2.211q-2.417-1.491-1.814-2.974c.6-1.483,2.785-.3,2.811.163q8.281-1.539,9.708-5.979a.9.9,0,0,1,.845.834" transform="translate(-13.233 -14.025)" fill="#fdc5ae" fill-rule="evenodd"/>
    <path id="Path_6822" data-name="Path 6822" d="M85.058,103.12a13.279,13.279,0,0,0,4.233,2.531l.933,5.789Z" transform="translate(-14.145 -16.232)" fill="#f9b59d" fill-rule="evenodd"/>
    <path id="Path_6823" data-name="Path 6823" d="M80.077,96.582c-3.649.225-2.243-4.151.55-4.131,2.526.039,3.6,2.634,1,4.04-1.386.236-2.8.465-2.083,1.507,2.382,2.09,4.4-3.47.529-1.416" transform="translate(-12.952 -14.552)" fill="#f9b59d"/>
    <path id="Path_6824" data-name="Path 6824" d="M93,96.2q.153,2.045,1.02,2.509c.867.464.116,2.032-1.232,1.492" transform="translate(-15.43 -15.142)" fill="none" stroke="#0f0b47" stroke-width="0.5"/>
    <path id="Path_6825" data-name="Path 6825" d="M90.469,93.23l-2.171.559a.335.335,0,0,0-.239.408l0,.007a.345.345,0,0,0,.418.245l2.17-.559a.335.335,0,0,0,.24-.408l0-.007a.345.345,0,0,0-.418-.245" transform="translate(-14.643 -14.673)" fill="#384562" fill-rule="evenodd"/>
    <path id="Path_6826" data-name="Path 6826" d="M93.214,93.1l2.22.3a.334.334,0,0,1,.284.377v.007a.345.345,0,0,1-.387.292l-2.22-.3a.333.333,0,0,1-.284-.377v-.007a.345.345,0,0,1,.387-.292" transform="translate(-15.437 -14.654)" fill="#384562" fill-rule="evenodd"/>
    <path id="Path_6827" data-name="Path 6827" d="M92.867,88.809q-1.633,5.751-9.78,6.226" transform="translate(-13.818 -13.979)" fill="none" stroke="#384562" stroke-width="2.908"/>
    <path id="Path_6828" data-name="Path 6828" d="M74.286,113.938c3.007,4.221,6.264,6.438,9.725,6.613a9.072,9.072,0,0,0,2.19-.161,8.826,8.826,0,0,0,7.557-7.628c-.487-.046-.967-.077-1.456-.087a7.36,7.36,0,0,1-6.368,6.282c-3.579.69-6.874-1.049-10.064-5.314-.527.084-1.062.183-1.584.3" transform="translate(-12.354 -17.736)" fill="#fff"/>
    <path id="Path_6829" data-name="Path 6829" d="M94.259,96.79a.546.546,0,1,0,.572-.523.545.545,0,0,0-.572.523" transform="translate(-15.676 -15.153)" fill="#0f0b47"/>
    <path id="Path_6830" data-name="Path 6830" d="M89.892,97.037a.546.546,0,1,0,.572-.522.545.545,0,0,0-.572.522" transform="translate(-14.949 -15.192)" fill="#0f0b47"/>
    <path id="Path_6831" data-name="Path 6831" d="M94.339,103.186a1.494,1.494,0,0,1-1.052.76,1.879,1.879,0,0,1-1.379-.377,4.164,4.164,0,0,1-.98-1.09,2.815,2.815,0,0,0,2,.1,2.7,2.7,0,0,0,1.471-1.285,6.121,6.121,0,0,1-.055,1.892" transform="translate(-15.122 -15.944)" fill="#fff"/>
    <path id="Path_6832" data-name="Path 6832" d="M168.7,100.8a20.641,20.641,0,0,0,2.559,10.009,20.332,20.332,0,0,0,35.13,1.075A20.516,20.516,0,1,0,168.7,100.8" transform="translate(-28.055 -12.614)" fill="#fff"/>
    <path id="Path_6833" data-name="Path 6833" d="M171.766,115.922A20.332,20.332,0,0,0,206.9,117a9.341,9.341,0,0,0-6.1-3.793l-.74-.125c-.894-.148-1.78-.257-2.674-.328-.239-.023-.486-.039-.724-.054-.108,0-.224-.008-.332-.016-.131-.008-.262-.008-.4-.015-.162-.008-.316-.016-.47-.016-.917-.031-1.818-.015-2.736.039l-.694.04-.093.008-8.4.5-.679.039c-.331.015-.663.046-1,.07s-.663.07-.994.1c-.332.047-.655.086-.987.132-.123.016-.254.031-.378.055-.2.031-.408.07-.609.109-.323.055-.655.125-.971.2a34.1,34.1,0,0,0-3.938,1.083l-.67.226a10.057,10.057,0,0,0-1.541.677" transform="translate(-28.565 -17.729)" fill="#5aad64" fill-rule="evenodd"/>
    <path id="Path_6834" data-name="Path 6834" d="M184.28,113.271a33.331,33.331,0,0,0-3.968.471q3.585,6.352,9.577,6,6.474-.378,7.86-7.063a33.031,33.031,0,0,0-3.607.013Z" transform="translate(-29.987 -17.73)" fill="#fdc5ae" fill-rule="evenodd"/>
    <path id="Path_6835" data-name="Path 6835" d="M201.71,86.616q2.521,1.922-1.345,7.773" transform="translate(-33.322 -13.634)" fill="none" stroke="#384562" stroke-width="2.908"/>
    <path id="Path_6836" data-name="Path 6836" d="M200.425,96.877q3.412,3.529,3.893,9.8" transform="translate(-33.331 -15.249)" fill="none" stroke="#384562" stroke-width="2.908"/>
    <path id="Path_6837" data-name="Path 6837" d="M186.755,84.1a9.2,9.2,0,0,1,8.881,1.664c2.482-1.1,3.616.875,2.534,4.441l-.061.2q-.391,1.24-1.537,4.383,2.691,3.038,3.59,9.97a5.053,5.053,0,0,1-1.743,1.63l-.528-2.837.173,3.035a13.315,13.315,0,0,1-4.006,1.214l-.559-1.729.1,1.8q-1.149.163-2.48.241a34.468,34.468,0,0,1-9.407-.72l.113-1.681L181.3,107.3a34.364,34.364,0,0,1-4.038-1.2,31.74,31.74,0,0,1,1.631-6.508,29.184,29.184,0,0,1,3.1-5c-.3-5.326.79-7.528,2.305-9.031a6.027,6.027,0,0,1,2.454-1.453" transform="translate(-29.479 -13.162)" fill="#384562" fill-rule="evenodd"/>
    <path id="Path_6838" data-name="Path 6838" d="M197.909,89.935l.788,10.591A2.777,2.777,0,0,1,197.2,103.2a4.83,4.83,0,0,1-3.4.385l-.572-.146.971,6.025a4.323,4.323,0,1,1-8.578.931c-.008-.144-.009-.289,0-.433l.344-8.406q.03-.731.12-1.458l.273-2.211q-2.417-1.491-1.814-2.974c.6-1.483,2.785-.3,2.811.163q8.281-1.539,9.708-5.979a.9.9,0,0,1,.845.834" transform="translate(-30.671 -14.025)" fill="#fdc5ae" fill-rule="evenodd"/>
    <path id="Path_6839" data-name="Path 6839" d="M189.913,103.12a13.279,13.279,0,0,0,4.233,2.531l.933,5.789Z" transform="translate(-31.583 -16.232)" fill="#f9b59d" fill-rule="evenodd"/>
    <path id="Path_6840" data-name="Path 6840" d="M184.932,96.582c-3.649.225-2.243-4.151.55-4.131,2.526.038,3.6,2.634,1,4.04-1.386.236-2.8.465-2.083,1.507,2.382,2.09,4.4-3.47.529-1.416" transform="translate(-30.39 -14.552)" fill="#f9b59d"/>
    <path id="Path_6841" data-name="Path 6841" d="M197.852,96.2q.151,2.045,1.019,2.509c.867.464.117,2.032-1.232,1.492" transform="translate(-32.868 -15.142)" fill="none" stroke="#0f0b47" stroke-width="0.5"/>
    <path id="Path_6842" data-name="Path 6842" d="M195.325,93.23l-2.171.559a.335.335,0,0,0-.239.408l0,.007a.345.345,0,0,0,.418.245l2.17-.559a.335.335,0,0,0,.24-.408l0-.007a.344.344,0,0,0-.418-.245" transform="translate(-32.081 -14.673)" fill="#384562" fill-rule="evenodd"/>
    <path id="Path_6843" data-name="Path 6843" d="M198.07,93.1l2.22.3a.335.335,0,0,1,.284.377l0,.007a.344.344,0,0,1-.387.292l-2.22-.3a.333.333,0,0,1-.284-.377l0-.007a.344.344,0,0,1,.387-.292" transform="translate(-32.875 -14.654)" fill="#384562" fill-rule="evenodd"/>
    <path id="Path_6844" data-name="Path 6844" d="M197.722,88.809q-1.633,5.751-9.78,6.226" transform="translate(-31.256 -13.979)" fill="none" stroke="#384562" stroke-width="2.908"/>
    <path id="Path_6845" data-name="Path 6845" d="M179.141,113.938c3.007,4.221,6.264,6.438,9.725,6.613a9.072,9.072,0,0,0,2.19-.161,8.826,8.826,0,0,0,7.557-7.628c-.487-.046-.967-.077-1.456-.087a7.36,7.36,0,0,1-6.368,6.282c-3.579.69-6.874-1.049-10.064-5.314-.527.084-1.062.183-1.584.3" transform="translate(-29.792 -17.736)" fill="#fff"/>
    <path id="Path_6846" data-name="Path 6846" d="M199.115,96.79a.546.546,0,1,0,.573-.523.545.545,0,0,0-.573.523" transform="translate(-33.114 -15.153)" fill="#0f0b47"/>
    <path id="Path_6847" data-name="Path 6847" d="M194.747,97.037a.546.546,0,1,0,.573-.522.545.545,0,0,0-.573.522" transform="translate(-32.387 -15.192)" fill="#0f0b47"/>
    <path id="Path_6848" data-name="Path 6848" d="M199.2,103.186a1.5,1.5,0,0,1-1.052.76,1.879,1.879,0,0,1-1.379-.377,4.165,4.165,0,0,1-.98-1.09,2.815,2.815,0,0,0,2,.1,2.7,2.7,0,0,0,1.471-1.285,6.122,6.122,0,0,1-.055,1.892" transform="translate(-32.56 -15.944)" fill="#fff"/>
    <path id="Path_6849" data-name="Path 6849" d="M63.841,237.5A20.64,20.64,0,0,0,66.4,247.512a20.332,20.332,0,0,0,35.13,1.075A20.517,20.517,0,1,0,63.841,237.5" transform="translate(-10.617 -34.133)" fill="#fff"/>
    <path id="Path_6850" data-name="Path 6850" d="M66.911,252.628a20.332,20.332,0,0,0,35.13,1.075,9.341,9.341,0,0,0-6.1-3.793l-.74-.125c-.894-.148-1.78-.257-2.674-.328-.239-.023-.486-.039-.724-.054-.108,0-.224-.008-.332-.016-.131-.008-.262-.008-.4-.015-.162-.008-.316-.016-.47-.016-.917-.031-1.818-.015-2.736.039l-.694.04-.093.008-8.4.5L78,249.98c-.331.015-.663.046-1,.07s-.663.07-.994.1c-.332.047-.655.086-.987.132-.123.016-.254.031-.378.055-.2.031-.408.07-.609.109-.323.055-.655.125-.971.2a34.09,34.09,0,0,0-3.938,1.083l-.67.226a10.056,10.056,0,0,0-1.541.677" transform="translate(-11.128 -39.248)" fill="#f38255" fill-rule="evenodd"/>
    <path id="Path_6851" data-name="Path 6851" d="M79.424,249.977a33.325,33.325,0,0,0-3.968.471q3.585,6.352,9.577,6,6.474-.378,7.86-7.063a33.025,33.025,0,0,0-3.607.013Z" transform="translate(-12.549 -39.249)" fill="#fdc5ae" fill-rule="evenodd"/>
    <path id="Path_6852" data-name="Path 6852" d="M96.855,223.322q2.521,1.922-1.345,7.773" transform="translate(-15.884 -35.152)" fill="none" stroke="#384562" stroke-width="2.908"/>
    <path id="Path_6853" data-name="Path 6853" d="M95.569,233.584q3.411,3.529,3.893,9.8" transform="translate(-15.894 -36.768)" fill="none" stroke="#384562" stroke-width="2.908"/>
    <path id="Path_6854" data-name="Path 6854" d="M81.9,220.809a9.2,9.2,0,0,1,8.881,1.664c2.482-1.1,3.616.875,2.534,4.441l-.061.2q-.391,1.24-1.536,4.383,2.691,3.038,3.59,9.97a5.053,5.053,0,0,1-1.743,1.63l-.528-2.837.173,3.035a13.315,13.315,0,0,1-4.006,1.214l-.559-1.729.1,1.8q-1.149.164-2.48.242a34.468,34.468,0,0,1-9.407-.72l.113-1.681-.531,1.587a34.365,34.365,0,0,1-4.038-1.2,31.737,31.737,0,0,1,1.631-6.508,29.182,29.182,0,0,1,3.1-5c-.3-5.326.79-7.528,2.305-9.031a6.027,6.027,0,0,1,2.454-1.453" transform="translate(-12.041 -34.68)" fill="#384562" fill-rule="evenodd"/>
    <path id="Path_6855" data-name="Path 6855" d="M93.054,226.641l.788,10.591a2.777,2.777,0,0,1-1.492,2.677,4.83,4.83,0,0,1-3.4.385l-.572-.146.971,6.025a4.323,4.323,0,1,1-8.578.931c-.008-.144-.009-.289,0-.433l.344-8.406q.03-.73.12-1.458l.273-2.211q-2.417-1.491-1.814-2.974c.6-1.483,2.785-.3,2.811.163q8.281-1.539,9.708-5.979a.9.9,0,0,1,.845.834" transform="translate(-13.233 -35.544)" fill="#fdc5ae" fill-rule="evenodd"/>
    <path id="Path_6856" data-name="Path 6856" d="M85.058,239.827a13.279,13.279,0,0,0,4.233,2.531l.933,5.789Z" transform="translate(-14.145 -37.75)" fill="#f9b59d" fill-rule="evenodd"/>
    <path id="Path_6857" data-name="Path 6857" d="M80.077,233.288c-3.649.225-2.243-4.151.55-4.131,2.526.039,3.6,2.634,1,4.04-1.386.236-2.8.465-2.083,1.507,2.382,2.09,4.4-3.47.529-1.416" transform="translate(-12.952 -36.071)" fill="#f9b59d"/>
    <path id="Path_6858" data-name="Path 6858" d="M93,232.9q.153,2.045,1.02,2.509c.867.464.116,2.032-1.232,1.492" transform="translate(-15.43 -36.66)" fill="none" stroke="#0f0b47" stroke-width="0.5"/>
    <path id="Path_6859" data-name="Path 6859" d="M90.469,229.936l-2.171.559a.335.335,0,0,0-.239.408l0,.007a.345.345,0,0,0,.418.245l2.17-.559a.335.335,0,0,0,.24-.408l0-.007a.345.345,0,0,0-.418-.245" transform="translate(-14.643 -36.192)" fill="#384562" fill-rule="evenodd"/>
    <path id="Path_6860" data-name="Path 6860" d="M93.214,229.8l2.22.3a.334.334,0,0,1,.284.377v.007a.346.346,0,0,1-.387.292l-2.22-.3a.333.333,0,0,1-.284-.377v-.007a.345.345,0,0,1,.387-.292" transform="translate(-15.437 -36.172)" fill="#384562" fill-rule="evenodd"/>
    <path id="Path_6861" data-name="Path 6861" d="M92.867,225.515q-1.633,5.751-9.78,6.226" transform="translate(-13.818 -35.498)" fill="none" stroke="#384562" stroke-width="2.908"/>
    <path id="Path_6862" data-name="Path 6862" d="M74.286,250.645c3.007,4.221,6.264,6.438,9.725,6.613a9.07,9.07,0,0,0,2.19-.161,8.826,8.826,0,0,0,7.557-7.628c-.487-.045-.967-.077-1.456-.087a7.36,7.36,0,0,1-6.368,6.282c-3.579.69-6.874-1.049-10.064-5.314-.527.084-1.062.183-1.584.3" transform="translate(-12.354 -39.254)" fill="#fff"/>
    <path id="Path_6863" data-name="Path 6863" d="M94.259,233.5a.546.546,0,1,0,.572-.523.545.545,0,0,0-.572.523" transform="translate(-15.676 -36.671)" fill="#0f0b47"/>
    <path id="Path_6864" data-name="Path 6864" d="M89.892,233.744a.546.546,0,1,0,.572-.523.545.545,0,0,0-.572.523" transform="translate(-14.949 -36.71)" fill="#0f0b47"/>
    <path id="Path_6865" data-name="Path 6865" d="M94.339,239.892a1.494,1.494,0,0,1-1.052.76,1.879,1.879,0,0,1-1.379-.377,4.165,4.165,0,0,1-.98-1.09,2.814,2.814,0,0,0,2,.1A2.7,2.7,0,0,0,94.395,238a6.121,6.121,0,0,1-.055,1.892" transform="translate(-15.122 -37.463)" fill="#fff"/>
    <path id="Path_6866" data-name="Path 6866" d="M168.7,237.5a20.64,20.64,0,0,0,2.559,10.009,20.332,20.332,0,0,0,35.13,1.075A20.516,20.516,0,1,0,168.7,237.5" transform="translate(-28.055 -34.133)" fill="#fff"/>
    <path id="Path_6867" data-name="Path 6867" d="M171.766,252.628A20.332,20.332,0,0,0,206.9,253.7a9.341,9.341,0,0,0-6.1-3.793l-.74-.125c-.894-.148-1.78-.257-2.674-.328-.239-.023-.486-.039-.724-.054-.108,0-.224-.008-.332-.016-.131-.008-.262-.008-.4-.015-.162-.008-.316-.016-.47-.016-.917-.031-1.818-.015-2.736.039l-.694.04-.093.008-8.4.5-.679.039c-.331.015-.663.046-1,.07s-.663.07-.994.1c-.332.047-.655.086-.987.132-.123.016-.254.031-.378.055-.2.031-.408.07-.609.109-.323.055-.655.125-.971.2a34.091,34.091,0,0,0-3.938,1.083l-.67.226a10.054,10.054,0,0,0-1.541.677" transform="translate(-28.565 -39.248)" fill="#5aad64" fill-rule="evenodd"/>
    <path id="Path_6868" data-name="Path 6868" d="M184.28,249.977a33.325,33.325,0,0,0-3.968.471q3.585,6.352,9.577,6,6.474-.378,7.86-7.063a33.025,33.025,0,0,0-3.607.013Z" transform="translate(-29.987 -39.249)" fill="#fdc5ae" fill-rule="evenodd"/>
    <path id="Path_6869" data-name="Path 6869" d="M201.71,223.322q2.521,1.922-1.345,7.773" transform="translate(-33.322 -35.152)" fill="none" stroke="#384562" stroke-width="2.908"/>
    <path id="Path_6870" data-name="Path 6870" d="M200.425,233.584q3.412,3.529,3.893,9.8" transform="translate(-33.331 -36.768)" fill="none" stroke="#384562" stroke-width="2.908"/>
    <path id="Path_6871" data-name="Path 6871" d="M186.755,220.809a9.2,9.2,0,0,1,8.881,1.664c2.482-1.1,3.616.875,2.534,4.441l-.061.2q-.391,1.24-1.537,4.383,2.691,3.038,3.59,9.97a5.053,5.053,0,0,1-1.743,1.63l-.528-2.837.173,3.035a13.315,13.315,0,0,1-4.006,1.214l-.559-1.729.1,1.8q-1.149.164-2.48.242a34.468,34.468,0,0,1-9.407-.72l.113-1.681-.531,1.587a34.367,34.367,0,0,1-4.038-1.2,31.739,31.739,0,0,1,1.631-6.508,29.182,29.182,0,0,1,3.1-5c-.3-5.326.79-7.528,2.305-9.031a6.027,6.027,0,0,1,2.454-1.453" transform="translate(-29.479 -34.68)" fill="#384562" fill-rule="evenodd"/>
    <path id="Path_6872" data-name="Path 6872" d="M197.909,226.641l.788,10.591a2.777,2.777,0,0,1-1.492,2.677,4.83,4.83,0,0,1-3.4.385l-.572-.146.971,6.025a4.323,4.323,0,1,1-8.578.931c-.008-.144-.009-.289,0-.433l.344-8.406q.03-.73.12-1.458l.273-2.211q-2.417-1.491-1.814-2.974c.6-1.483,2.785-.3,2.811.163q8.281-1.539,9.708-5.979a.9.9,0,0,1,.845.834" transform="translate(-30.671 -35.544)" fill="#fdc5ae" fill-rule="evenodd"/>
    <path id="Path_6873" data-name="Path 6873" d="M189.913,239.827a13.279,13.279,0,0,0,4.233,2.531l.933,5.789Z" transform="translate(-31.583 -37.75)" fill="#f9b59d" fill-rule="evenodd"/>
    <path id="Path_6874" data-name="Path 6874" d="M184.932,233.288c-3.649.225-2.243-4.151.55-4.131,2.526.038,3.6,2.634,1,4.04-1.386.236-2.8.465-2.083,1.507,2.382,2.09,4.4-3.47.529-1.416" transform="translate(-30.39 -36.071)" fill="#f9b59d"/>
    <path id="Path_6875" data-name="Path 6875" d="M197.852,232.9q.151,2.045,1.019,2.509c.867.464.117,2.032-1.232,1.492" transform="translate(-32.868 -36.66)" fill="none" stroke="#0f0b47" stroke-width="0.5"/>
    <path id="Path_6876" data-name="Path 6876" d="M195.325,229.936l-2.171.559a.335.335,0,0,0-.239.408l0,.007a.345.345,0,0,0,.418.245l2.17-.559a.335.335,0,0,0,.24-.408l0-.007a.344.344,0,0,0-.418-.245" transform="translate(-32.081 -36.192)" fill="#384562" fill-rule="evenodd"/>
    <path id="Path_6877" data-name="Path 6877" d="M198.07,229.8l2.22.3a.335.335,0,0,1,.284.377l0,.007a.345.345,0,0,1-.387.292l-2.22-.3a.333.333,0,0,1-.284-.377l0-.007a.344.344,0,0,1,.387-.292" transform="translate(-32.875 -36.172)" fill="#384562" fill-rule="evenodd"/>
    <path id="Path_6878" data-name="Path 6878" d="M197.722,225.515q-1.633,5.751-9.78,6.226" transform="translate(-31.256 -35.498)" fill="none" stroke="#384562" stroke-width="2.908"/>
    <path id="Path_6879" data-name="Path 6879" d="M179.141,250.645c3.007,4.221,6.264,6.438,9.725,6.613a9.07,9.07,0,0,0,2.19-.161,8.826,8.826,0,0,0,7.557-7.628c-.487-.045-.967-.077-1.456-.087a7.36,7.36,0,0,1-6.368,6.282c-3.579.69-6.874-1.049-10.064-5.314-.527.084-1.062.183-1.584.3" transform="translate(-29.792 -39.254)" fill="#fff"/>
    <path id="Path_6880" data-name="Path 6880" d="M199.115,233.5a.546.546,0,1,0,.573-.523.545.545,0,0,0-.573.523" transform="translate(-33.114 -36.671)" fill="#0f0b47"/>
    <path id="Path_6881" data-name="Path 6881" d="M194.747,233.744a.546.546,0,1,0,.573-.523.545.545,0,0,0-.573.523" transform="translate(-32.387 -36.71)" fill="#0f0b47"/>
    <path id="Path_6882" data-name="Path 6882" d="M199.2,239.892a1.5,1.5,0,0,1-1.052.76,1.879,1.879,0,0,1-1.379-.377,4.165,4.165,0,0,1-.98-1.09,2.815,2.815,0,0,0,2,.1A2.7,2.7,0,0,0,199.251,238a6.122,6.122,0,0,1-.055,1.892" transform="translate(-32.56 -37.463)" fill="#fff"/>
    <rect id="Rectangle_559" data-name="Rectangle 559" width="58.859" height="1.927" transform="translate(44.235 124.673)" fill="#bccbe3"/>
    <rect id="Rectangle_560" data-name="Rectangle 560" width="58.859" height="1.927" transform="translate(44.235 131.199)" fill="#bccbe3"/>
    <rect id="Rectangle_561" data-name="Rectangle 561" width="58.859" height="1.927" transform="translate(44.235 137.727)" fill="#bccbe3"/>
    <path id="Path_6883" data-name="Path 6883" d="M84.567,173.508l.7,2.165-1.817-1.34-1.826,1.34.7-2.165-1.817-1.331H82.75l.7-2.165.692,2.165h2.251Z" transform="translate(-13.389 -26.761)" fill="#fbae5c"/>
    <path id="Path_6884" data-name="Path 6884" d="M76.367,173.508l.7,2.165-1.817-1.34-1.826,1.34.7-2.165-1.817-1.331H74.55l.7-2.165.692,2.165h2.251Z" transform="translate(-12.025 -26.761)" fill="#fbae5c"/>
    <path id="Path_6885" data-name="Path 6885" d="M68.167,173.508l.7,2.165-1.817-1.34-1.826,1.34.7-2.165-1.817-1.331H66.35l.7-2.165.692,2.165h2.251Z" transform="translate(-10.661 -26.761)" fill="#fbae5c"/>
    <path id="Path_6886" data-name="Path 6886" d="M109.61,173.508l.7,2.165-1.817-1.34-1.826,1.34.7-2.165-1.817-1.331h2.243l.7-2.165.692,2.165h2.251Z" transform="translate(-17.553 -26.761)" fill="#fff"/>
    <path id="Path_6887" data-name="Path 6887" d="M101.41,173.508l.7,2.165-1.817-1.34-1.826,1.34.7-2.165-1.817-1.331h2.243l.7-2.165.692,2.165h2.251Z" transform="translate(-16.19 -26.761)" fill="#fff"/>
    <path id="Path_6888" data-name="Path 6888" d="M93.21,173.508l.7,2.165-1.817-1.34-1.826,1.34.7-2.165-1.817-1.331h2.243l.7-2.165.692,2.165h2.251Z" transform="translate(-14.826 -26.761)" fill="#fbae5c"/>
    <rect id="Rectangle_562" data-name="Rectangle 562" width="58.859" height="1.927" transform="translate(131.652 124.673)" fill="#bccbe3"/>
    <rect id="Rectangle_563" data-name="Rectangle 563" width="58.859" height="1.927" transform="translate(131.652 131.199)" fill="#bccbe3"/>
    <rect id="Rectangle_564" data-name="Rectangle 564" width="58.859" height="1.927" transform="translate(131.652 137.727)" fill="#bccbe3"/>
    <path id="Path_6889" data-name="Path 6889" d="M189.423,173.508l.7,2.165-1.817-1.34-1.826,1.34.7-2.165-1.817-1.331h2.243l.7-2.165.692,2.165h2.251Z" transform="translate(-30.827 -26.761)" fill="#fff"/>
    <path id="Path_6890" data-name="Path 6890" d="M181.223,173.508l.7,2.165-1.817-1.34-1.826,1.34.7-2.165-1.817-1.331h2.243l.7-2.165.692,2.165h2.251Z" transform="translate(-29.463 -26.761)" fill="#fbae5c"/>
    <path id="Path_6891" data-name="Path 6891" d="M173.023,173.508l.7,2.165-1.817-1.34-1.826,1.34.7-2.165-1.817-1.331h2.243l.7-2.165.692,2.165h2.251Z" transform="translate(-28.099 -26.761)" fill="#fbae5c"/>
    <path id="Path_6892" data-name="Path 6892" d="M214.465,173.508l.7,2.165-1.817-1.34-1.826,1.34.7-2.165-1.817-1.331h2.243l.7-2.165.692,2.165h2.251Z" transform="translate(-34.991 -26.761)" fill="#fff"/>
    <path id="Path_6893" data-name="Path 6893" d="M206.265,173.508l.7,2.165-1.817-1.34-1.826,1.34.7-2.165-1.817-1.331h2.243l.7-2.165.692,2.165h2.251Z" transform="translate(-33.628 -26.761)" fill="#fff"/>
    <path id="Path_6894" data-name="Path 6894" d="M198.065,173.508l.7,2.165-1.817-1.34-1.826,1.34.7-2.165-1.817-1.331h2.243l.7-2.165.692,2.165h2.251Z" transform="translate(-32.264 -26.761)" fill="#fff"/>
    <rect id="Rectangle_565" data-name="Rectangle 565" width="58.859" height="1.927" transform="translate(44.235 240.838)" fill="#bccbe3"/>
    <rect id="Rectangle_566" data-name="Rectangle 566" width="58.859" height="1.927" transform="translate(44.235 247.364)" fill="#bccbe3"/>
    <rect id="Rectangle_567" data-name="Rectangle 567" width="58.859" height="1.927" transform="translate(44.235 253.892)" fill="#bccbe3"/>
    <path id="Path_6895" data-name="Path 6895" d="M84.567,311.374l.7,2.165L83.45,312.2l-1.826,1.34.7-2.165-1.817-1.331H82.75l.7-2.165.692,2.165h2.251Z" transform="translate(-13.389 -48.462)" fill="#fbae5c"/>
    <path id="Path_6896" data-name="Path 6896" d="M76.367,311.374l.7,2.165L75.25,312.2l-1.826,1.34.7-2.165-1.817-1.331H74.55l.7-2.165.692,2.165h2.251Z" transform="translate(-12.025 -48.462)" fill="#fbae5c"/>
    <path id="Path_6897" data-name="Path 6897" d="M68.167,311.374l.7,2.165L67.05,312.2l-1.826,1.34.7-2.165-1.817-1.331H66.35l.7-2.165.692,2.165h2.251Z" transform="translate(-10.661 -48.462)" fill="#fbae5c"/>
    <path id="Path_6898" data-name="Path 6898" d="M109.61,311.374l.7,2.165-1.817-1.34-1.826,1.34.7-2.165-1.817-1.331h2.243l.7-2.165.692,2.165h2.251Z" transform="translate(-17.553 -48.462)" fill="#fff"/>
    <path id="Path_6899" data-name="Path 6899" d="M101.41,311.374l.7,2.165-1.817-1.34-1.826,1.34.7-2.165-1.817-1.331h2.243l.7-2.165.692,2.165h2.251Z" transform="translate(-16.19 -48.462)" fill="#fff"/>
    <path id="Path_6900" data-name="Path 6900" d="M93.21,311.374l.7,2.165-1.817-1.34-1.826,1.34.7-2.165-1.817-1.331h2.243l.7-2.165.692,2.165h2.251Z" transform="translate(-14.826 -48.462)" fill="#fff"/>
    <rect id="Rectangle_568" data-name="Rectangle 568" width="58.859" height="1.927" transform="translate(131.652 240.838)" fill="#bccbe3"/>
    <rect id="Rectangle_569" data-name="Rectangle 569" width="58.859" height="1.927" transform="translate(131.652 247.364)" fill="#bccbe3"/>
    <rect id="Rectangle_570" data-name="Rectangle 570" width="58.859" height="1.927" transform="translate(131.652 253.892)" fill="#bccbe3"/>
    <path id="Path_6901" data-name="Path 6901" d="M189.423,311.374l.7,2.165-1.817-1.34-1.826,1.34.7-2.165-1.817-1.331h2.243l.7-2.165.692,2.165h2.251Z" transform="translate(-30.827 -48.462)" fill="#fbae5c"/>
    <path id="Path_6902" data-name="Path 6902" d="M181.223,311.374l.7,2.165-1.817-1.34-1.826,1.34.7-2.165-1.817-1.331h2.243l.7-2.165.692,2.165h2.251Z" transform="translate(-29.463 -48.462)" fill="#fbae5c"/>
    <path id="Path_6903" data-name="Path 6903" d="M173.023,311.374l.7,2.165-1.817-1.34-1.826,1.34.7-2.165-1.817-1.331h2.243l.7-2.165.692,2.165h2.251Z" transform="translate(-28.099 -48.462)" fill="#fbae5c"/>
    <path id="Path_6904" data-name="Path 6904" d="M214.465,311.374l.7,2.165-1.817-1.34-1.826,1.34.7-2.165-1.817-1.331h2.243l.7-2.165.692,2.165h2.251Z" transform="translate(-34.991 -48.462)" fill="#fff"/>
    <path id="Path_6905" data-name="Path 6905" d="M206.265,311.374l.7,2.165-1.817-1.34-1.826,1.34.7-2.165-1.817-1.331h2.243l.7-2.165.692,2.165h2.251Z" transform="translate(-33.628 -48.462)" fill="#fff"/>
    <path id="Path_6906" data-name="Path 6906" d="M198.065,311.374l.7,2.165-1.817-1.34-1.826,1.34.7-2.165-1.817-1.331h2.243l.7-2.165.692,2.165h2.251Z" transform="translate(-32.264 -48.462)" fill="#fff"/>
    <path id="Path_6907" data-name="Path 6907" d="M231.932,92.928c-2.6-2.564-2.868-7.02-5.756-9.3-1.652-1.305-4.388-1.981-6.355-2.655a56.681,56.681,0,0,0-6.774-1.86,3.564,3.564,0,0,0-1.39-.1,1.289,1.289,0,0,0-1.033.847c-.2.731.474,1.389,1.1,1.8a15.9,15.9,0,0,0,5.148,2.22,4.519,4.519,0,0,0-1.809,1.3,1.369,1.369,0,0,0,.305,1.865,2.056,2.056,0,0,0-1.636,3.557,2.071,2.071,0,0,0-.719,2.882,4.341,4.341,0,0,0,2.708,1.9c1.083.321,2.222.452,3.27.874a6.423,6.423,0,0,1,3.352,3.156Z" transform="translate(-35.022 -12.432)" fill="#f9b5a2"/>
    <path id="Path_6908" data-name="Path 6908" d="M231.932,92.928c-2.6-2.564-2.868-7.02-5.756-9.3-1.652-1.305-4.388-1.981-6.355-2.655a56.681,56.681,0,0,0-6.774-1.86,3.564,3.564,0,0,0-1.39-.1,1.289,1.289,0,0,0-1.033.847c-.2.731.474,1.389,1.1,1.8a15.9,15.9,0,0,0,5.148,2.22,4.519,4.519,0,0,0-1.809,1.3,1.369,1.369,0,0,0,.305,1.865,2.056,2.056,0,0,0-1.636,3.557,2.071,2.071,0,0,0-.719,2.882,4.341,4.341,0,0,0,2.708,1.9c1.083.321,2.222.452,3.27.874a6.423,6.423,0,0,1,3.352,3.156Z" transform="translate(-35.022 -12.432)" fill="none" stroke="#000" stroke-miterlimit="10" stroke-width="1"/>
    <path id="Path_6909" data-name="Path 6909" d="M307.632,74.837a1.05,1.05,0,0,0-.881.326A1.2,1.2,0,0,0,306.875,77a1.046,1.046,0,0,0,.918.2c-.3-.07.168-.344,0-.539s-.067-.17-.067-.414a1.1,1.1,0,0,1,.093-.74c.145-.217-.47-.562-.183-.672" transform="translate(-50.953 -11.778)" fill="#f9b5a2"/>
    <path id="Path_6910" data-name="Path 6910" d="M326.192,67.545c-.11-2.1-5.982-4.686-5.982-4.686l-7.767,1.9a33.127,33.127,0,0,0-6.422,11.929c-.037.124-.073.235-.11.359a13.275,13.275,0,0,0-.539,2.941,5.967,5.967,0,0,0,.832,3.845c1.26,1.941,3.8,2.633,6.092,2.448.275-.024.547-.071.819-.116a19.994,19.994,0,0,1-.086,2.812,21.29,21.29,0,0,1-2.618,8.418l14.837-1.186a21.458,21.458,0,0,1-4.577-13.354,1.806,1.806,0,0,0,.2-.142,2.307,2.307,0,0,0,.632-1.368c.011-.084,0-.171,0-.256l5.578-3.237c.538-.469.758-2.744.93-3.894s-1.712-4.315-1.822-6.416" transform="translate(-50.78 -9.894)" fill="#f9b5a2"/>
    <path id="Path_6911" data-name="Path 6911" d="M326.192,67.545c-.11-2.1-5.982-4.686-5.982-4.686l-7.767,1.9a33.127,33.127,0,0,0-6.422,11.929c-.037.124-.073.235-.11.359a13.275,13.275,0,0,0-.539,2.941,5.967,5.967,0,0,0,.832,3.845c1.26,1.941,3.8,2.633,6.092,2.448.275-.024.547-.071.819-.116a19.994,19.994,0,0,1-.086,2.812,21.29,21.29,0,0,1-2.618,8.418l14.837-1.186a21.458,21.458,0,0,1-4.577-13.354,1.806,1.806,0,0,0,.2-.142,2.307,2.307,0,0,0,.632-1.368c.011-.084,0-.171,0-.256l5.578-3.237c.538-.469.758-2.744.93-3.894S326.3,69.646,326.192,67.545Z" transform="translate(-50.78 -9.894)" fill="none" stroke="#000" stroke-miterlimit="10" stroke-width="1"/>
    <path id="Path_6912" data-name="Path 6912" d="M319.066,76a12.362,12.362,0,0,0,3.755-3.374,2.335,2.335,0,0,1-2.77-1.683,7.467,7.467,0,0,1,.212-3.718c-.076.329-4.872-.813-5.315-.95a12.649,12.649,0,0,1-5.046-2.761,8.126,8.126,0,0,1-1.491-10.128,7.807,7.807,0,0,1,8.524-3.247c2.86.829,4.97,3.241,6.714,5.677s3.356,5.078,5.809,6.778c.8.556,1.682,1,2.429,1.63.916.773,1.17,1.909,1.881,2.67,1,1.068,1.994,1.464,2.427,3.058a8.142,8.142,0,0,1-.266,4.553,13.172,13.172,0,0,1-6.087,7.459,12.944,12.944,0,0,1-9.5,1.181,7.566,7.566,0,0,0,.033-2.548" transform="translate(-51.098 -7.849)"/>
    <path id="Path_6913" data-name="Path 6913" d="M303.9,101.4l-15.694,7.368-1.59-1.718-6.679-7.208,7.143-10.384,16.17,11.485Z" transform="translate(-46.555 -14.081)" fill="#fb847d"/>
    <path id="Path_6914" data-name="Path 6914" d="M303.9,101.4l-15.694,7.368-1.59-1.718-6.679-7.208,7.143-10.384,16.17,11.485Z" transform="translate(-46.555 -14.081)" fill="none" stroke="#000" stroke-miterlimit="10" stroke-width="1"/>
    <path id="Path_6915" data-name="Path 6915" d="M365.192,333.9c-1-.08-.787-.914-2.717,4.585s-6.961-3.718-10.138-2.588c.582-1.776.332-3.594-.44-5.886l11.117-3.823a77.146,77.146,0,0,0,2.178,7.711" transform="translate(-58.522 -51.344)" fill="#f9b5a2" stroke="#000" stroke-width="1"/>
    <path id="Path_6916" data-name="Path 6916" d="M364.8,344.47c-1.937,2.307-25.646,9.876-31.251,11.631-1.276.4-3.161-5.456,1.066-7.687,2.518-1.341,8.2-4.136,11.68-8.269a19.137,19.137,0,0,0,2.275-3.752.83.83,0,0,1,.978-.447c2.591.575,6.286-.59,9.678-1.305,1.09-.23,1.5-2.245,2.644-2,.535.114,1.116,2.954,1.291,3.219,1.279,1.956,3.843,5.955,1.639,8.613" transform="translate(-55.213 -52.356)" fill="#fb847d"/>
    <path id="Path_6917" data-name="Path 6917" d="M364.8,344.47c-1.937,2.307-25.646,9.876-31.251,11.631-1.276.4-3.161-5.456,1.066-7.687,2.518-1.341,8.2-4.136,11.68-8.269a19.137,19.137,0,0,0,2.275-3.752.83.83,0,0,1,.978-.447c2.591.575,6.286-.59,9.678-1.305,1.09-.23,1.5-2.245,2.644-2,.535.114,1.116,2.954,1.291,3.219C364.435,337.813,367,341.812,364.8,344.47Z" transform="translate(-55.213 -52.356)" fill="none" stroke="#000" stroke-miterlimit="10" stroke-width="1"/>
    <path id="Path_6918" data-name="Path 6918" d="M365.259,341.118a4.674,4.674,0,0,1-.451,4.69c-1.937,2.307-25.646,9.876-31.251,11.63-.562.172-1.259-.884-1.479-2.3a.376.376,0,0,0,.167-.013c5.758-1.807,30.182-9.6,32.163-11.967a3.824,3.824,0,0,0,.851-2.042" transform="translate(-55.226 -53.694)" fill="#fff"/>
    <path id="Path_6919" data-name="Path 6919" d="M365.259,341.118a4.674,4.674,0,0,1-.451,4.69c-1.937,2.307-25.646,9.876-31.251,11.63-.562.172-1.259-.884-1.479-2.3a.376.376,0,0,0,.167-.013c5.758-1.807,30.182-9.6,32.163-11.967A3.824,3.824,0,0,0,365.259,341.118Z" transform="translate(-55.226 -53.694)" fill="none" stroke="#000" stroke-miterlimit="10" stroke-width="1"/>
    <path id="Path_6920" data-name="Path 6920" d="M349.3,340.477l1.673,1.6a.319.319,0,0,1,.012.445.314.314,0,0,1-.439.012l-1.674-1.6a.319.319,0,0,1-.008-.441.306.306,0,0,1,.436-.016" transform="translate(-58.003 -53.58)"/>
    <path id="Path_6921" data-name="Path 6921" d="M348.393,341.725l1.673,1.6a.319.319,0,0,1,.012.445.314.314,0,0,1-.439.012l-1.674-1.6a.319.319,0,0,1-.008-.441.306.306,0,0,1,.436-.016" transform="translate(-57.853 -53.777)"/>
    <path id="Path_6922" data-name="Path 6922" d="M347.3,342.841l1.673,1.6a.319.319,0,0,1,.012.445.314.314,0,0,1-.439.012l-1.674-1.6a.319.319,0,0,1-.008-.441.306.306,0,0,1,.436-.016" transform="translate(-57.67 -53.952)"/>
    <path id="Path_6923" data-name="Path 6923" d="M347.033,173.992s4.549,13.137,3.127,35.2,5.6,72.167,13.944,90.413l-25.067,11.469s-12.786-42.76-15.824-67.011,7.235-55.024,7.235-55.024Z" transform="translate(-53.658 -27.388)" fill="#7c1858"/>
    <path id="Path_6924" data-name="Path 6924" d="M347.033,173.992s4.549,13.137,3.127,35.2,5.6,72.167,13.944,90.413l-25.067,11.469s-12.786-42.76-15.824-67.011,7.235-55.024,7.235-55.024Z" transform="translate(-53.658 -27.388)" fill="none" stroke="#000" stroke-miterlimit="10" stroke-width="1"/>
    <path id="Path_6925" data-name="Path 6925" d="M303.952,345.883c-.919-.4-.454-1.122-4.033,3.456s-5.4-5.786-8.772-5.75c1.116-1.493,1.458-3.295,1.458-5.716h11.743a77.54,77.54,0,0,0-.4,8.01" transform="translate(-48.419 -53.184)" fill="#f9b5a2" stroke="#000" stroke-width="1"/>
    <path id="Path_6926" data-name="Path 6926" d="M299.371,356.781c-2.569,1.554-27.427,1-33.292.838-1.335-.041-1.254-6.194,3.458-6.93,2.812-.449,9.081-1.247,13.693-4.027a18.933,18.933,0,0,0,3.35-2.812.827.827,0,0,1,1.068-.1c2.27,1.387,6.14,1.488,9.578,1.914,1.106.137,2.136-1.637,3.141-1.035.47.282.115,3.161.2,3.467.587,2.269,1.74,6.889-1.193,8.688" transform="translate(-44.126 -54.085)" fill="#fb847d"/>
    <path id="Path_6927" data-name="Path 6927" d="M299.371,356.781c-2.569,1.554-27.427,1-33.292.838-1.335-.041-1.254-6.194,3.458-6.93,2.812-.449,9.081-1.247,13.693-4.027a18.933,18.933,0,0,0,3.35-2.812.827.827,0,0,1,1.068-.1c2.27,1.387,6.14,1.488,9.578,1.914,1.106.137,2.136-1.637,3.141-1.035.47.282.115,3.161.2,3.467C301.151,350.362,302.3,354.982,299.371,356.781Z" transform="translate(-44.126 -54.085)" fill="none" stroke="#000" stroke-miterlimit="10" stroke-width="1"/>
    <path id="Path_6928" data-name="Path 6928" d="M301.291,354.148a4.652,4.652,0,0,1-1.922,4.293c-2.569,1.554-27.426,1-33.292.837-.586-.02-.91-1.247-.668-2.658a.374.374,0,0,0,.163.041c6.027.163,31.633.736,34.262-.859a3.787,3.787,0,0,0,1.456-1.656" transform="translate(-44.125 -55.745)" fill="#fff"/>
    <path id="Path_6929" data-name="Path 6929" d="M301.291,354.148a4.652,4.652,0,0,1-1.922,4.293c-2.569,1.554-27.426,1-33.292.837-.586-.02-.91-1.247-.668-2.658a.374.374,0,0,0,.163.041c6.027.163,31.633.736,34.262-.859A3.787,3.787,0,0,0,301.291,354.148Z" transform="translate(-44.125 -55.745)" fill="none" stroke="#000" stroke-miterlimit="10" stroke-width="1"/>
    <path id="Path_6930" data-name="Path 6930" d="M287.272,346.286l1.073,2.063a.312.312,0,1,1-.551.293l-1.073-2.063a.318.318,0,0,1,.133-.42.307.307,0,0,1,.418.127" transform="translate(-47.677 -54.482)"/>
    <path id="Path_6931" data-name="Path 6931" d="M286.012,347.177l1.073,2.063a.312.312,0,1,1-.551.293l-1.073-2.063a.318.318,0,0,1,.133-.42.307.307,0,0,1,.418.127" transform="translate(-47.468 -54.622)"/>
    <path id="Path_6932" data-name="Path 6932" d="M284.616,347.88l1.073,2.063a.312.312,0,1,1-.551.293l-1.073-2.063a.318.318,0,0,1,.133-.421.307.307,0,0,1,.418.127" transform="translate(-47.236 -54.733)"/>
    <path id="Path_6933" data-name="Path 6933" d="M340.585,171.088s-8.731,38.207-18.725,53.672-10.619,89.057-10.619,89.057H281.885s-.4-122.83,14.322-149.343Z" transform="translate(-46.878 -25.889)" fill="#a62973"/>
    <path id="Path_6934" data-name="Path 6934" d="M340.585,171.088s-8.731,38.207-18.725,53.672-10.619,89.057-10.619,89.057H281.885s-.4-122.83,14.322-149.343Z" transform="translate(-46.878 -25.889)" fill="none" stroke="#000" stroke-miterlimit="10" stroke-width="1"/>
    <path id="Path_6935" data-name="Path 6935" d="M311.822,168.213C297.853,197,298.233,313.9,298.233,313.9" transform="translate(-49.597 -26.478)" fill="none" stroke="#fff" stroke-miterlimit="10" stroke-width="3.57"/>
    <path id="Path_6936" data-name="Path 6936" d="M333.761,160.027s-28.084,10.31-51.153-3.115c0,0,4.2-18.631,6.483-30.473q.11-.612.22-1.187c.44-2.311.783-4.3.99-5.761l-.99,5.761s-20.256,18.952-36.463,8.221-28.793-31.5-28.793-31.5l13.553-9.037,26.14,23.872s25.3-17.518,46.823-17.382c0,0,13.553-.569,16.9,12.709,2.507,9.939,4.782,31.845,5.773,42.229.33,3.474.514,5.662.514,5.662" transform="translate(-37.261 -14.629)" fill="#fb847d"/>
    <path id="Path_6937" data-name="Path 6937" d="M333.761,160.027s-28.084,10.31-51.153-3.115c0,0,4.2-18.631,6.483-30.473q.11-.612.22-1.187c.44-2.311.783-4.3.99-5.761l-.99,5.761s-20.256,18.952-36.463,8.221-28.793-31.5-28.793-31.5l13.553-9.037,26.14,23.872s25.3-17.518,46.823-17.382c0,0,13.553-.569,16.9,12.709,2.507,9.939,4.782,31.845,5.773,42.229C333.577,157.839,333.761,160.027,333.761,160.027Z" transform="translate(-37.261 -14.629)" fill="none" stroke="#000" stroke-miterlimit="10" stroke-width="1"/>
    <path id="Path_6938" data-name="Path 6938" d="M299.162,171.588a9.236,9.236,0,0,0-.364,6.9,9.114,9.114,0,0,0,4.569,5.142" transform="translate(-49.608 -27.009)" fill="none" stroke="#000" stroke-miterlimit="10" stroke-width="1"/>
    <line id="Line_50" data-name="Line 50" x1="0.846" y2="27.882" transform="translate(239.857 253.992)" fill="none" stroke="#000" stroke-miterlimit="10" stroke-width="1"/>
    <path id="Path_6939" data-name="Path 6939" d="M337.119,299.986l6.972,24.2,13.945-5.668" transform="translate(-56.064 -47.22)" fill="none" stroke="#000" stroke-miterlimit="10" stroke-width="1"/>
    <path id="Path_6940" data-name="Path 6940" d="M309.818,80.076s-1.492,4.277-3.657,2.62a.956.956,0,0,1-.208-.185,13.235,13.235,0,0,1,.538-2.942c.037-.123.073-.234.11-.358a6.375,6.375,0,0,0,3.217.865" transform="translate(-50.881 -12.468)" fill="#e7ebf6"/>
    <path id="Path_6941" data-name="Path 6941" d="M307.277,74.812a1.05,1.05,0,0,0-.881.326,1.2,1.2,0,0,0,.124,1.839,1.046,1.046,0,0,0,.918.2,1.361,1.361,0,0,1-.7-.438,1.115,1.115,0,0,1-.1-1.4,1.362,1.362,0,0,1,.639-.532" transform="translate(-50.894 -11.775)"/>
    <path id="Path_6942" data-name="Path 6942" d="M312.327,73.125a.868.868,0,0,0-1.216.211.889.889,0,0,0,.21,1.229.866.866,0,0,0,1.215-.213.887.887,0,0,0-.209-1.227" transform="translate(-51.713 -11.485)"/>
    <path id="Path_6943" data-name="Path 6943" d="M314.924,73.571l-.911-3.061-1.072.535,1.85,2.593Z" transform="translate(-52.043 -11.099)"/>
    <path id="Path_6944" data-name="Path 6944" d="M216.336,88.487a5.682,5.682,0,0,1,1.652.809" transform="translate(-35.978 -13.928)" fill="none" stroke="#000" stroke-miterlimit="10" stroke-width="3.57"/>
    <line id="Line_51" data-name="Line 51" x2="1.519" y2="0.624" transform="translate(178.752 78.121)" fill="none" stroke="#000" stroke-miterlimit="10" stroke-width="3.57"/>
    <path id="Path_6945" data-name="Path 6945" d="M218,84.822a8.453,8.453,0,0,1,3.133,1.352" transform="translate(-36.254 -13.352)" fill="none" stroke="#000" stroke-miterlimit="10" stroke-width="3.57"/>
  </g>
</svg>
