<svg xmlns="http://www.w3.org/2000/svg" width="426.459" height="95.087" viewBox="0 0 426.459 95.087">
  <g id="hands-partners-vector" transform="translate(-2.759 -39.218)">
    <path id="Path_5058" data-name="Path 5058" d="M1955.053,335.527a.464.464,0,0,1,0-.927h5.651v.927Z" transform="translate(-1612.345 -295.323)" opacity="0.99"/>
    <path id="Path_5059" data-name="Path 5059" d="M84.959,334.6c1.972,0,3.571.208,3.571.464s-1.6.464-3.571.464H.107V334.6Z" transform="translate(2.652 -295.323)"/>
    <g id="Group_1734" data-name="Group 1734" transform="translate(83.609 39.218)">
      <path id="Path_5060" data-name="Path 5060" d="M288.061,334.283a.462.462,0,1,1,.46.8c-16.909,9.728-25,10.525-35.569,11.566a138.468,138.468,0,0,0-30.5,5.955,77.148,77.148,0,0,1,12.183-.615c7.541.209,15.165,1.513,21.266,4.154,15.278,6.614,22.846,14.061,25.065,21.381a17.215,17.215,0,0,1-1.479,13.238,34.725,34.725,0,0,1-10.35,11.422c-12.939,9.593-33.4,15.18-48.63,11.691-5.987-1.372-8.009-2.4-7.751-3.524.213-.929,1.993-1.636,4.358-2.575,4.238-1.682,10.508-4.17,11.9-9.089,1.882-6.631,3.956-16.358,3.565-24.977a26.789,26.789,0,0,0-2.727-11.462,13.1,13.1,0,0,0-8.211-6.634,20.226,20.226,0,0,0-6.416-.652c-.95.257-1.859.536-2.721.836-4.885,1.7-6.619,2.276-6.615,2.287.03.087.829-.077,2.052-.062a43.4,43.4,0,0,1,4.836.251,10.937,10.937,0,0,1,4.233,1.462c3.954,2.337,6.776,7.084,8.439,12.549a41.975,41.975,0,0,1,1.515,16.758,21.018,21.018,0,0,1-2.427,7.95c-2.554,4.322-6.421,6.776-9.11,7.391a3.933,3.933,0,0,1-2.614-.119,1.7,1.7,0,0,1-.844-2.061c.311-1.456,1.952-3.7,5.645-6.7a12.178,12.178,0,0,0,4.711-9.047,18.613,18.613,0,0,0-1.524-8,31.365,31.365,0,0,0-4.7-7.778c-4.85-5.978-11.7-10.524-17.591-10.855a96.161,96.161,0,0,0-10.625-.023l.284.438c3.3,5.083,6.364,9.82,1.342,15.511a17.348,17.348,0,0,1,.6,2.966c.257,1.785.514,3.57,1.667,4.655a19.613,19.613,0,0,0,4.639,2.224,4.98,4.98,0,0,1-.091-1.325,2.88,2.88,0,0,1,1.445-2.38,5,5,0,0,1,2.01-.614,3.92,3.92,0,0,1,3.7,1.7,3.167,3.167,0,0,1,.494,1.208,2.325,2.325,0,0,1-.121,1.266,2.958,2.958,0,0,1-2.752,1.628,12.04,12.04,0,0,1-3.319-.186q.03.073.062.147a21.048,21.048,0,0,0,4.014,5.741l1.415,1.482c1.313,1.375,2.626,2.75,3.922,4.126a12.126,12.126,0,0,1,3.329,6.719,6.3,6.3,0,0,1-.5,3.451,4.642,4.642,0,0,1-2.513,2.315,10,10,0,0,1-6.238-.027,15.352,15.352,0,0,1-2.216-.769,10.522,10.522,0,0,1,.076,4.954c-.794,2.657-3.372,4.025-9.365,2.344.01.08.019.16.027.24a5.23,5.23,0,0,1-.491,3.012,3.787,3.787,0,0,1-2.56,1.862,10.934,10.934,0,0,1-5.072-.265c-.554-.134-1.068-.24-1.545-.325a6.954,6.954,0,0,1,.449,1.037,5.734,5.734,0,0,1,.136,3.487,3.775,3.775,0,0,1-2.46,2.514c-2.315.812-6.355.15-12.749-3.648q-.415-.246-.817-.48a4.958,4.958,0,0,1-3.332,3.7,5.145,5.145,0,0,1-2.167.239,4.522,4.522,0,0,1-2.045-.732,4.753,4.753,0,0,1-2-3.861,6.152,6.152,0,0,1-3.43,1.979,5.374,5.374,0,0,1-2.668-.143,4.82,4.82,0,0,1-2.278-1.562c-1.066-1.309-1.659-3.359-1.308-6.243a10.6,10.6,0,0,1-4.692,2.452,3.406,3.406,0,0,1-2.73-.615,4.481,4.481,0,0,1-1.473-2.467,16.193,16.193,0,0,1,.614-8.195.463.463,0,0,1,.76-.237,42.164,42.164,0,0,0,15.157,9.182l.023.008a81.081,81.081,0,0,1,11.363,5.306l.115.013A5.89,5.89,0,0,0,169.548,422a8.656,8.656,0,0,0,2.244-5.1c.017-.134.029-.236.036-.307a.462.462,0,0,1,.464-.417c2.324-.059,4.121-.54,5.187-1.6,1.045-1.037,1.408-2.679.9-5.086a.463.463,0,0,1,.357-.549.476.476,0,0,1,.071-.009c6.943-.477,6.909-2.7,6.86-5.853a13.764,13.764,0,0,1,.837-5.854.463.463,0,0,1,.47-.283,8.007,8.007,0,0,0,4.763-1,5.561,5.561,0,0,0,2.326-2.816,6.881,6.881,0,0,0,.232-3.85,9.947,9.947,0,0,0-3.079-5.173l-.036-.023a35.364,35.364,0,0,1-9.367-9.182,12.476,12.476,0,0,1-5.57,1.789l-.618.1c-1.029,3.846-5.806,10.328-9.968,13.367a7.722,7.722,0,0,1-3.973,1.734,2.775,2.775,0,0,1-2.835-2.188c-.924-2.68-.44-8.319,2.563-18.435,1.436-4.836,5.923-7.985,11.806-9.914a56.066,56.066,0,0,1,13.052-2.368c-.284-.454-.562-.911-.829-1.373a1.794,1.794,0,0,0-.379-.436c-1.656-1.448-6.54-2.652-11.751-3.087s-10.72-.09-13.584,1.567a4.65,4.65,0,0,0-1.184.938c-10.549,12.063-16.208,9.875-23.871,6.911a49.119,49.119,0,0,0-8.54-2.681c.352,8.239-.315,14.628-2.131,20.722a75.231,75.231,0,0,1-7.506,16.378c2.447-2.3,4.825-2.681,15.56,5.481a15.286,15.286,0,0,1,3.88,3.876,1.3,1.3,0,0,1,.184,1.081c-.145.364-.482.536-1.025.474a12.365,12.365,0,0,1-4.116-1.957,34.028,34.028,0,0,0-7.2-3.133c-2.84-.935-6.045-1.781-9.336-2.552-3.086,2.529-8.619,4.759-23.319,1.339a41.053,41.053,0,0,0-9.449-.935l-.685-.006a112.49,112.49,0,0,1-15.5,22.365.462.462,0,0,1-.425.151h0c-38.44-6.553-40.887-18.983-30.785-31.368,9.89-12.125,32.108-24.142,43.638-30.345,4.263-2.293,6.559-4.5,7.348-6.583.811-2.146-.015-4.215-1.942-6.156a30.575,30.575,0,0,0-9.019-5.615c-13.274-5.92-33.787-9.48-37.931-8.9a.463.463,0,0,1-.127-.916c4.223-.6,25.027,2.988,38.435,8.968A31.443,31.443,0,0,1,83.97,349c2.19,2.206,3.112,4.6,2.152,7.134-.866,2.292-3.3,4.664-7.775,7.072C66.872,369.381,44.76,381.34,34.988,393.32c-9.538,11.694-7.01,23.471,29.97,29.827A111.668,111.668,0,0,0,79.95,401.564a5.709,5.709,0,0,1-2.614-.513c-1.867-1.12-.645-4.021,4.6-12.761.924-1.539,1.759-2.906,2.548-4.2,2.027-3.316,3.752-6.14,5.27-9.06A200.36,200.36,0,0,0,93.63,353.21c.33-2.586,1.346-3.47,2.88-3.274a8.162,8.162,0,0,1,3.192,1.477,7.823,7.823,0,0,1,5.077-.218,45.372,45.372,0,0,1,7.46,2.749c1.521.656,3.087,1.332,4.641,1.917,3.664,1.379,6.038,3.225,6.909,4.762a2.455,2.455,0,0,1,.355,1.779,1.9,1.9,0,0,1-1.2,1.294c-1.275.547-3.682.483-7.314-.637-4.352-1.342-8.644-4.784-12.277-7.7-1.318-1.057-2.548-2.044-3.646-2.824-1.293.809-2.286,2.377-2.883,5.035a69.336,69.336,0,0,1-6.2,17.8,123.734,123.734,0,0,1-4.893,15.73c-1.265,3.249-2.682,6.431-4.276,9.567l.219,0a41.908,41.908,0,0,1,9.652.956c14.447,3.361,19.716,1.175,22.635-1.253,4.32-7.151,7.327-12.975,9.15-19.1s2.471-12.571,2.069-20.967a.464.464,0,0,1,.54-.509A48.02,48.02,0,0,1,135,362.64c7.316,2.83,12.718,4.919,22.842-6.657a5.559,5.559,0,0,1,1.416-1.13c3.042-1.76,8.748-2.139,14.123-1.69s10.483,1.74,12.283,3.315a2.7,2.7,0,0,1,.571.668c.345.6.708,1.184,1.076,1.765a96.487,96.487,0,0,1,11.248-.008c6.153.346,13.259,5.034,18.257,11.2a32.306,32.306,0,0,1,4.841,8.014,19.519,19.519,0,0,1,1.589,8.4,13.071,13.071,0,0,1-5.051,9.713c-3.509,2.846-5.051,4.9-5.322,6.172a.856.856,0,0,0,.366,1.047,3.072,3.072,0,0,0,1.98.039c2.5-.571,6.108-2.879,8.519-6.96a20.1,20.1,0,0,0,2.3-7.591,41.018,41.018,0,0,0-1.479-16.377c-1.6-5.26-4.288-9.811-8.026-12.021a10.011,10.011,0,0,0-3.874-1.339,42.318,42.318,0,0,0-4.735-.247c-1.6-.019-2.732-.033-2.914-.557-.224-.642,1.653-1.538,7.183-3.464.893-.311,1.837-.6,2.823-.865,18.624-6.436,29.086-7.467,37.84-8.33,10.461-1.03,18.465-1.819,35.2-11.446ZM218.8,354.136a18.411,18.411,0,0,1,3.094.587,14,14,0,0,1,8.776,7.087,27.687,27.687,0,0,1,2.835,11.86c.4,8.741-1.7,18.572-3.6,25.267-1.52,5.358-8.044,7.947-12.454,9.7-2.107.836-3.692,1.465-3.8,1.923-.118.514,1.733,1.2,7.056,2.416,14.979,3.432,35.122-2.078,47.873-11.532a33.809,33.809,0,0,0,10.078-11.1,16.322,16.322,0,0,0,1.418-12.546c-2.144-7.073-9.55-14.308-24.547-20.8-5.986-2.592-13.491-3.871-20.925-4.078a73.409,73.409,0,0,0-15.811,1.223Zm-31.968,5.732A55.88,55.88,0,0,0,173.5,362.23c-5.606,1.838-9.869,4.8-11.2,9.295-2.942,9.909-3.441,15.358-2.574,17.874a1.933,1.933,0,0,0,1.93,1.565,6.886,6.886,0,0,0,3.458-1.556c4.131-3.016,8.879-9.5,9.686-13.129a.462.462,0,0,1,.379-.357h0l.923-.144a11.766,11.766,0,0,0,5.6-1.895.463.463,0,0,1,.638.148l.01.017a34.843,34.843,0,0,0,7.528,7.987,16.1,16.1,0,0,1-.676-3.187,15.093,15.093,0,0,0-.645-3.04.462.462,0,0,1,.091-.472h0c4.8-5.258,1.884-9.758-1.249-14.591q-.283-.436-.567-.877Zm10.607,26.007a11.389,11.389,0,0,0,3.594.285c1.149-.1,1.762-.522,1.973-1.048a1.414,1.414,0,0,0,.067-.767,2.244,2.244,0,0,0-.352-.853,2.993,2.993,0,0,0-2.831-1.294,4.1,4.1,0,0,0-1.641.487,2,2,0,0,0-.992,1.655,4.566,4.566,0,0,0,.182,1.534Zm-.731.77a17.734,17.734,0,0,1-3.1-1.182,10.148,10.148,0,0,1,1.587,3.628,7.8,7.8,0,0,1-.271,4.364,6.477,6.477,0,0,1-2.71,3.279,8.753,8.753,0,0,1-4.979,1.149,13.466,13.466,0,0,0-.649,5.187c.056,3.58.094,6.134-7.206,6.748.422,2.475-.057,4.233-1.25,5.416s-3.055,1.742-5.428,1.852a9.539,9.539,0,0,1-2.5,5.569,6.542,6.542,0,0,1-4.1,1.913c6.045,3.57,9.774,4.225,11.848,3.5a2.882,2.882,0,0,0,1.88-1.916,4.806,4.806,0,0,0-.129-2.915,5.975,5.975,0,0,0-.766-1.516c-.958-.121-1.749-.162-2.428-.2h-.007a4.878,4.878,0,0,1-2.7-.713.877.877,0,0,1-.354-.691.83.83,0,0,1,.4-.674,4.077,4.077,0,0,1,2.406-.387,4.533,4.533,0,0,1,3.187,1.8c.723.1,1.535.253,2.456.475a10.065,10.065,0,0,0,4.634.265,2.9,2.9,0,0,0,1.97-1.406,4.338,4.338,0,0,0,.383-2.483q-.03-.313-.088-.633a7.828,7.828,0,0,1-1.987-1.1,6.989,6.989,0,0,1-1.8-2,5.029,5.029,0,0,1-.907-3.153,1.135,1.135,0,0,1,.485-.775,1.065,1.065,0,0,1,.926-.087,5.413,5.413,0,0,1,2.4,2.434,13.837,13.837,0,0,1,1.677,3.968c5.649,1.68,8,.619,8.663-1.591a10.6,10.6,0,0,0-.249-5.2,12.925,12.925,0,0,1-2.506-1.722,7.511,7.511,0,0,1-2.658-4.583,6.049,6.049,0,0,1,.218-3.243,1.137,1.137,0,0,1,.768-.649,1.211,1.211,0,0,1,.963.248,6.485,6.485,0,0,1,1.829,2.906l.06.155a58.611,58.611,0,0,1,2.12,6.256,14.385,14.385,0,0,0,2.717,1.018,9.124,9.124,0,0,0,5.655.064,3.737,3.737,0,0,0,2.027-1.858,5.4,5.4,0,0,0,.414-2.947,11.187,11.187,0,0,0-3.083-6.187c-1.309-1.389-2.614-2.756-3.918-4.122l-1.415-1.482a22,22,0,0,1-4.2-6.012q-.167-.387-.3-.765Zm-.59,20.511a11.47,11.47,0,0,0,1.554,1.153c-.541-1.868-1.259-3.741-1.856-5.3l-.06-.155a5.692,5.692,0,0,0-1.5-2.479c-.108-.077-.189-.11-.239-.1s-.085.063-.137.164a5.294,5.294,0,0,0-.124,2.707,6.615,6.615,0,0,0,2.357,4.007Zm-8.748,8.086a6.84,6.84,0,0,0,1.158.71,13.226,13.226,0,0,0-1.4-3.072c-.785-1.268-1.446-1.893-1.895-2.035-.08-.026-.131-.031-.151-.018s-.053.077-.072.174a4.2,4.2,0,0,0,.794,2.508,6.062,6.062,0,0,0,1.562,1.734Zm-10.81,5.359c.425.022.892.045,1.415.089a3.212,3.212,0,0,0-1.772-.707,3.868,3.868,0,0,0-1.733.168,4.551,4.551,0,0,0,2.083.45Zm-2.181-.47h0c0-.008,0-.01,0,0Zm0,0v0h0v0Zm-10.531,4.192a80.589,80.589,0,0,0-11.061-5.144l-.024-.01a42.65,42.65,0,0,1-14.879-8.86,14.542,14.542,0,0,0-.416,7.014,3.593,3.593,0,0,0,1.147,1.975,2.522,2.522,0,0,0,2.021.43c1.342-.212,3.068-1.159,5.183-3.047a.462.462,0,0,1,.761.434h0c-.649,3.247-.141,5.438.913,6.733a3.9,3.9,0,0,0,1.843,1.265,4.457,4.457,0,0,0,2.212.114,5.254,5.254,0,0,0,3.737-2.947.462.462,0,0,1,.875.264h0c-.364,2.4.366,3.94,1.5,4.706a3.6,3.6,0,0,0,1.629.58,4.227,4.227,0,0,0,1.779-.2,4.063,4.063,0,0,0,2.772-3.313Zm23.126-27.383.135.034a.463.463,0,0,0-.135-.034Zm-71.687,3.494c3.1.737,6.1,1.54,8.778,2.423a34.871,34.871,0,0,1,7.407,3.231,11.786,11.786,0,0,0,3.728,1.82c.067.008.037.165.061.105a1.071,1.071,0,0,0-.137-.3,14.462,14.462,0,0,0-3.626-3.582c-11.375-8.648-12.716-7.268-15.24-4.671-.3.312-.623.64-.972.972Zm-37.472-.18a6.065,6.065,0,0,0,2.613.4,104.257,104.257,0,0,0,4.445-9.886,118.982,118.982,0,0,0,3.962-12.124c-1.079,1.879-2.256,3.8-3.556,5.932-.811,1.328-1.67,2.733-2.545,4.19-4.882,8.134-6.128,10.768-4.92,11.493Zm13.753-29a74.482,74.482,0,0,0,4.361-13.888c.616-2.742,1.612-4.457,2.9-5.43a6.5,6.5,0,0,0-2.434-1.088c-.954-.122-1.6.549-1.847,2.474-.8,6.3-1.763,12.247-2.983,17.933ZM104.576,352.1a7.369,7.369,0,0,0-3.91-.007c1.013.741,2.108,1.619,3.27,2.551,3.57,2.863,7.787,6.245,11.969,7.535,3.4,1.049,5.585,1.139,6.68.669a1.022,1.022,0,0,0,.661-.66,1.58,1.58,0,0,0-.261-1.106c-.779-1.374-2.981-3.055-6.431-4.353-1.6-.6-3.164-1.277-4.681-1.931A44.918,44.918,0,0,0,104.576,352.1Z" transform="translate(-29.192 -334.161)"/>
    </g>
    <path id="Path_5061" data-name="Path 5061" d="M268.764,45.5h80.859" transform="translate(79.595 -5.763)" fill="none" stroke="#707070" stroke-width="1"/>
  </g>
</svg>
