<svg xmlns="http://www.w3.org/2000/svg" width="40" height="40" viewBox="0 0 40 40">
  <path id="instagram-logo" d="M53.231,24H34.769A10.781,10.781,0,0,0,24,34.769V53.231A10.781,10.781,0,0,0,34.769,64H53.231A10.781,10.781,0,0,0,64,53.231V34.769A10.781,10.781,0,0,0,53.231,24ZM44,53.231A9.231,9.231,0,1,1,53.231,44,9.231,9.231,0,0,1,44,53.231ZM55.538,34.769a2.308,2.308,0,1,1,2.308-2.308A2.308,2.308,0,0,1,55.538,34.769ZM50.154,44A6.154,6.154,0,1,1,44,37.846,6.154,6.154,0,0,1,50.154,44Z" transform="translate(-24 -24)" fill="#fff"/>
</svg>
