<svg xmlns="http://www.w3.org/2000/svg" xmlns:xlink="http://www.w3.org/1999/xlink" width="113.015" height="90.398" viewBox="0 0 113.015 90.398">
  <defs>
    <linearGradient id="linear-gradient" x1="0.5" x2="0.5" y2="1" gradientUnits="objectBoundingBox">
      <stop offset="0" stop-color="#682376"/>
      <stop offset="1" stop-color="#a42973"/>
    </linearGradient>
  </defs>
  <path id="icon-4" d="M108.442,79.11a11.5,11.5,0,0,0-10-1.992l-19.7,4.529a13.183,13.183,0,0,0-12.83-16.219H42.345A14.981,14.981,0,0,0,31.69,69.84L21.04,80.494H7.533A7.533,7.533,0,0,0,0,88.027V106.86a7.533,7.533,0,0,0,7.533,7.533H56.5a3.733,3.733,0,0,0,.913-.113l30.132-7.533a3.268,3.268,0,0,0,.56-.188l18.3-7.787.207-.094a11.582,11.582,0,0,0,1.85-19.567ZM7.533,88.027h11.3V106.86H7.533Zm95.777,3.865L85.419,99.51,56.026,106.86H26.365V85.819L37.02,75.169a7.467,7.467,0,0,1,5.325-2.208H65.913a5.65,5.65,0,0,1,0,11.3H52.731a3.766,3.766,0,0,0,0,7.533H67.8a3.917,3.917,0,0,0,.843-.094l31.544-7.255.146-.038a4.049,4.049,0,0,1,2.966,7.486Zm-26.1-34a16.949,16.949,0,0,0,2.778-.226A16.949,16.949,0,1,0,93.277,35.541,16.949,16.949,0,1,0,77.213,57.9Zm28.249-5.65a9.416,9.416,0,1,1-9.416-9.416,9.416,9.416,0,0,1,9.416,9.416ZM77.213,31.53a9.416,9.416,0,0,1,9.063,6.879,16.949,16.949,0,0,0-7.062,11.737,9.614,9.614,0,0,1-2,.217,9.416,9.416,0,0,1,0-18.832Z" transform="translate(0 -23.995)" fill="url(#linear-gradient)"/>
</svg>
