<svg xmlns="http://www.w3.org/2000/svg" xmlns:xlink="http://www.w3.org/1999/xlink" width="97.158" height="123.669" viewBox="0 0 97.158 123.669">
  <defs>
    <linearGradient id="linear-gradient" x1="0.5" x2="0.5" y2="1" gradientUnits="objectBoundingBox">
      <stop offset="0" stop-color="#672376"/>
      <stop offset="1" stop-color="#a62973"/>
    </linearGradient>
  </defs>
  <path id="icon-2" d="M115.075,135.227a4.416,4.416,0,0,1-4.416,4.416H66.5a4.416,4.416,0,1,1,0-8.832h44.162A4.416,4.416,0,0,1,115.075,135.227Zm22.081-70.66a48.33,48.33,0,0,1-18.57,38.206,8.965,8.965,0,0,0-3.511,7.06v3.312a8.832,8.832,0,0,1-8.832,8.832H70.913a8.832,8.832,0,0,1-8.832-8.832v-3.312a8.832,8.832,0,0,0-3.439-6.989,48.592,48.592,0,1,1,78.515-38.278Zm-8.832,0A39.746,39.746,0,1,0,64.09,95.862h0a17.665,17.665,0,0,1,6.823,13.972v3.312H84.162V88.475L67.789,72.108a4.419,4.419,0,0,1,6.249-6.249L88.578,80.4l14.54-14.546a4.419,4.419,0,1,1,6.249,6.249L92.994,88.475v24.67h13.249v-3.312a17.731,17.731,0,0,1,6.884-13.994,39.553,39.553,0,0,0,15.2-31.272Z" transform="translate(-39.999 -15.974)" fill="url(#linear-gradient)"/>
</svg>
