<svg xmlns="http://www.w3.org/2000/svg" width="40" height="40" viewBox="0 0 40 40">
  <path id="linkedin-logo" d="M60.923,24H27.077A3.077,3.077,0,0,0,24,27.077V60.923A3.077,3.077,0,0,0,27.077,64H60.923A3.077,3.077,0,0,0,64,60.923V27.077A3.077,3.077,0,0,0,60.923,24ZM37.846,53.231a1.538,1.538,0,1,1-3.077,0V40.923a1.538,1.538,0,1,1,3.077,0ZM36.308,37.846a2.308,2.308,0,1,1,2.308-2.308A2.308,2.308,0,0,1,36.308,37.846ZM54.769,53.231a1.538,1.538,0,1,1-3.077,0V46.308a3.846,3.846,0,1,0-7.692,0v6.923a1.538,1.538,0,1,1-3.077,0V40.923a1.538,1.538,0,0,1,3.037-.342,6.923,6.923,0,0,1,10.81,5.727Z" transform="translate(-24 -24)" fill="#fff"/>
</svg>
