<svg xmlns="http://www.w3.org/2000/svg" xmlns:xlink="http://www.w3.org/1999/xlink" width="457.551" height="504" viewBox="0 0 457.551 504">
  <defs>
    <clipPath id="clip-path">
      <rect id="Rectangle_1216" data-name="Rectangle 1216" width="457.551" height="504" fill="none"/>
    </clipPath>
    <clipPath id="clip-path-2">
      <rect id="Rectangle_1236" data-name="Rectangle 1236" width="6.655" height="44.848" fill="none"/>
    </clipPath>
    <clipPath id="clip-path-3">
      <rect id="Rectangle_1237" data-name="Rectangle 1237" width="26.87" height="12.046" fill="none"/>
    </clipPath>
    <clipPath id="clip-path-4">
      <rect id="Rectangle_1238" data-name="Rectangle 1238" width="5.53" height="7.061" fill="none"/>
    </clipPath>
    <clipPath id="clip-path-5">
      <rect id="Rectangle_1239" data-name="Rectangle 1239" width="10.627" height="8.999" fill="none"/>
    </clipPath>
    <clipPath id="clip-path-6">
      <rect id="Rectangle_1240" data-name="Rectangle 1240" width="4.276" height="12.073" fill="none"/>
    </clipPath>
    <clipPath id="clip-path-7">
      <rect id="Rectangle_1241" data-name="Rectangle 1241" width="4.591" height="12.028" fill="none"/>
    </clipPath>
    <clipPath id="clip-path-8">
      <rect id="Rectangle_1242" data-name="Rectangle 1242" width="2.542" height="34.018" fill="none"/>
    </clipPath>
    <clipPath id="clip-path-9">
      <rect id="Rectangle_1243" data-name="Rectangle 1243" width="7.311" height="8.431" fill="none"/>
    </clipPath>
    <clipPath id="clip-path-10">
      <rect id="Rectangle_1244" data-name="Rectangle 1244" width="2.047" height="10.69" fill="none"/>
    </clipPath>
    <clipPath id="clip-path-11">
      <rect id="Rectangle_1246" data-name="Rectangle 1246" width="2.66" height="11.955" fill="none"/>
    </clipPath>
    <clipPath id="clip-path-12">
      <rect id="Rectangle_1247" data-name="Rectangle 1247" width="2.2" height="3.001" fill="none"/>
    </clipPath>
  </defs>
  <g id="partners-caricature" clip-path="url(#clip-path)">
    <g id="Group_1537" data-name="Group 1537" transform="translate(97.516 -0.001)">
      <path id="Path_7932" data-name="Path 7932" d="M250.658,334.042v-46.33a.376.376,0,0,1,.611-.295,15.034,15.034,0,1,0,0-23.565.376.376,0,0,1-.609-.3V211.87H203.026a.74.74,0,0,0-.668,1.053,15.035,15.035,0,1,1-27.453,0,.742.742,0,0,0-.67-1.054H128.486V262.5a.421.421,0,0,1-.641.357,14.936,14.936,0,0,0-7.921-2.259,15.034,15.034,0,1,0,7.923,27.809.42.42,0,0,1,.639.359v45.274Z" transform="translate(83.501 168.668)" fill="#c6364e"/>
      <path id="Path_7933" data-name="Path 7933" d="M250.658,334.042v-46.33a.376.376,0,0,1,.611-.295,15.034,15.034,0,1,0,0-23.565.376.376,0,0,1-.609-.3V211.87H203.026a.74.74,0,0,0-.668,1.053,15.035,15.035,0,1,1-27.453,0,.742.742,0,0,0-.67-1.054H128.486V262.5a.421.421,0,0,1-.641.357,14.936,14.936,0,0,0-7.921-2.259,15.034,15.034,0,1,0,7.923,27.809.42.42,0,0,1,.639.359v45.274Z" transform="translate(83.501 168.668)" fill="none" stroke="#000" stroke-width="1"/>
      <path id="Path_7934" data-name="Path 7934" d="M257.886,124.22a14.97,14.97,0,0,0-7.2,1.5.611.611,0,0,1-.882-.546V75.823H203.908a.837.837,0,0,0-.772,1.167,15.035,15.035,0,1,1-27.495,0,.837.837,0,0,0-.772-1.167H127.63v48.59a.742.742,0,0,1-1.033.679,15.034,15.034,0,1,0,0,27.821.742.742,0,0,1,1.035.679v44.4H249.8V153.312a.61.61,0,0,1,.88-.548,15.034,15.034,0,1,0,7.2-28.543" transform="translate(84.272 60.362)" fill="#ee5064"/>
      <path id="Path_7935" data-name="Path 7935" d="M257.886,124.22a14.97,14.97,0,0,0-7.2,1.5.611.611,0,0,1-.882-.546V75.823H203.908a.837.837,0,0,0-.772,1.167,15.035,15.035,0,1,1-27.495,0,.837.837,0,0,0-.772-1.167H127.63v48.59a.742.742,0,0,1-1.033.679,15.034,15.034,0,1,0,0,27.821.742.742,0,0,1,1.035.679v44.4H249.8V153.312a.61.61,0,0,1,.88-.548,15.034,15.034,0,1,0,7.2-28.543Z" transform="translate(84.272 60.362)" fill="none" stroke="#000" stroke-width="1"/>
      <path id="Path_7936" data-name="Path 7936" d="M126.134,201.741a15.034,15.034,0,1,1-6.611,28.535,1.075,1.075,0,0,0-1.539.973v45.389h43.1c1.889,0,3.172,1.067,2.57,2.858a17.265,17.265,0,0,0-.765,5.773c.3,7.6,6.89,14.133,14.182,14.133,9.69,0,16.668-6.083,16.668-14.737a17.5,17.5,0,0,0-.789-5.2c-.6-1.778-.074-2.823,1.8-2.823h45.405v-45.2A1.151,1.151,0,0,0,238.5,230.4a15.034,15.034,0,1,1-.113-27.035,1.235,1.235,0,0,0,1.769-1.117V154.464H195.321c-1.893,0-3.341-.708-2.554-3.66a21.977,21.977,0,0,0,.821-5.289,15.035,15.035,0,1,0-30.07,0,16.89,16.89,0,0,0,.832,5.318c1.317,3.659-.708,3.632-2.594,3.632H117.983V202.3a1.081,1.081,0,0,0,1.57.959,14.945,14.945,0,0,1,6.581-1.518" transform="translate(93.925 103.873)" fill="#672376"/>
      <path id="Path_7937" data-name="Path 7937" d="M126.134,201.741a15.034,15.034,0,1,1-6.611,28.535,1.075,1.075,0,0,0-1.539.973v45.389h43.1c1.889,0,3.172,1.067,2.57,2.858a17.265,17.265,0,0,0-.765,5.773c.3,7.6,6.89,14.133,14.182,14.133,9.69,0,16.668-6.083,16.668-14.737a17.5,17.5,0,0,0-.789-5.2c-.6-1.778-.074-2.823,1.8-2.823h45.405v-45.2A1.151,1.151,0,0,0,238.5,230.4a15.034,15.034,0,1,1-.113-27.035,1.235,1.235,0,0,0,1.769-1.117V154.464H195.321c-1.893,0-3.341-.708-2.554-3.66a21.977,21.977,0,0,0,.821-5.289,15.035,15.035,0,1,0-30.07,0,16.89,16.89,0,0,0,.832,5.318c1.317,3.659-.708,3.632-2.594,3.632H117.983V202.3a1.081,1.081,0,0,0,1.57.959A14.945,14.945,0,0,1,126.134,201.741Z" transform="translate(93.925 103.873)" fill="none" stroke="#000" stroke-width="1"/>
      <path id="Path_7938" data-name="Path 7938" d="M93.872,142.045a2.839,2.839,0,1,1-2.84-2.84,2.84,2.84,0,0,1,2.84,2.84" transform="translate(70.211 110.82)" fill="#a62973"/>
      <path id="Path_7939" data-name="Path 7939" d="M93.872,149.479a2.839,2.839,0,1,1-2.84-2.84,2.84,2.84,0,0,1,2.84,2.84" transform="translate(70.211 116.738)" fill="#a62973"/>
      <path id="Path_7940" data-name="Path 7940" d="M70.732,57.01A24.465,24.465,0,1,1,46.267,32.545,24.464,24.464,0,0,1,70.732,57.01" transform="translate(-32.537 25.909)" fill="#a62973"/>
      <path id="Path_8583" data-name="Path 8583" d="M70.732,57.01A24.465,24.465,0,1,1,46.267,32.545,24.464,24.464,0,0,1,70.732,57.01" transform="translate(-105.664 253.041)" fill="#a62973"/>
      <path id="Path_7941" data-name="Path 7941" d="M41.262,68.993a4.047,4.047,0,1,1-4.047-4.047,4.047,4.047,0,0,1,4.047,4.047" transform="translate(-23.487 51.703)" fill="#a62973"/>
      <path id="Path_8582" data-name="Path 8582" d="M41.262,68.993a4.047,4.047,0,1,1-4.047-4.047,4.047,4.047,0,0,1,4.047,4.047" transform="translate(-96.614 278.835)" fill="#a62973"/>
      <path id="Path_7942" data-name="Path 7942" d="M41.262,79.588a4.047,4.047,0,1,1-4.047-4.047,4.047,4.047,0,0,1,4.047,4.047" transform="translate(-3.067 57.608)" fill="#a62973"/>
      <path id="Path_8581" data-name="Path 8581" d="M56.983,87.448A11.907,11.907,0,1,1,45.076,75.541,11.909,11.909,0,0,1,56.983,87.448" transform="translate(-68.102 170.908)" fill="#a62973"/>
      <path id="Path_7943" data-name="Path 7943" d="M89.495,124.17c1.306-.354-8.639,7.007-14.417,12.463-3.391,3.2-.029,9.051,5.464,5.275,4.179-2.874,14.442-11.622,14.442-11.622Z" transform="translate(58.684 98.841)" fill="#a62973"/>
      <path id="Path_7944" data-name="Path 7944" d="M80.542,128.48A18.458,18.458,0,1,1,99,146.939,18.479,18.479,0,0,1,80.542,128.48m32.949,0A14.491,14.491,0,1,0,99,142.971a14.507,14.507,0,0,0,14.491-14.491" transform="translate(64.119 87.587)" fill="#a62973"/>
      <rect id="Rectangle_1220" data-name="Rectangle 1220" width="71.576" height="4.275" transform="translate(45.382 297.553)" fill="#672376"/>
      <rect id="Rectangle_1221" data-name="Rectangle 1221" width="71.576" height="4.275" transform="translate(45.382 297.553)" fill="none" stroke="#000" stroke-width="1"/>
      <rect id="Rectangle_1222" data-name="Rectangle 1222" width="209.525" height="0.794" transform="translate(3.157 502.524) rotate(-78.105)" fill="#672376"/>
      <rect id="Rectangle_1223" data-name="Rectangle 1223" width="209.525" height="0.794" transform="translate(3.157 502.524) rotate(-78.105)" fill="none" stroke="#000" stroke-width="1"/>
      <path id="Path_7945" data-name="Path 7945" d="M40.626,369.738l-.776-.163L82.191,167.317l.776.163Z" transform="translate(31.724 133.199)" fill="#672376"/>
      <path id="Path_7946" data-name="Path 7946" d="M40.626,369.738l-.776-.163L82.191,167.317l.776.163Z" transform="translate(31.724 133.199)" fill="none" stroke="#000" stroke-width="1"/>
      <rect id="Rectangle_1224" data-name="Rectangle 1224" width="0.793" height="202.934" transform="translate(116.292 300.663) rotate(-9.433)" fill="#672376"/>
      <rect id="Rectangle_1225" data-name="Rectangle 1225" width="0.793" height="202.934" transform="translate(116.292 300.663) rotate(-9.433)" fill="none" stroke="#000" stroke-width="1"/>
      <rect id="Rectangle_1226" data-name="Rectangle 1226" width="68.611" height="0.794" transform="translate(38.196 333.494)" fill="#672376"/>
      <rect id="Rectangle_1227" data-name="Rectangle 1227" width="68.611" height="0.794" transform="translate(38.196 333.494)" fill="none" stroke="#000" stroke-width="1"/>
      <rect id="Rectangle_1228" data-name="Rectangle 1228" width="68.612" height="0.794" transform="translate(31.08 368.374)" fill="#672376"/>
      <rect id="Rectangle_1229" data-name="Rectangle 1229" width="68.612" height="0.794" transform="translate(31.08 368.374)" fill="none" stroke="#000" stroke-width="1"/>
      <rect id="Rectangle_1230" data-name="Rectangle 1230" width="68.612" height="0.794" transform="translate(23.965 403.254)" fill="#672376"/>
      <rect id="Rectangle_1231" data-name="Rectangle 1231" width="68.612" height="0.794" transform="translate(23.965 403.254)" fill="none" stroke="#000" stroke-width="1"/>
      <rect id="Rectangle_1232" data-name="Rectangle 1232" width="68.612" height="0.794" transform="translate(16.851 438.136)" fill="#672376"/>
      <rect id="Rectangle_1233" data-name="Rectangle 1233" width="68.612" height="0.794" transform="translate(16.851 438.136)" fill="none" stroke="#000" stroke-width="1"/>
      <rect id="Rectangle_1234" data-name="Rectangle 1234" width="68.612" height="0.794" transform="translate(9.737 473.016)" fill="#672376"/>
      <rect id="Rectangle_1235" data-name="Rectangle 1235" width="68.612" height="0.794" transform="translate(9.737 473.016)" fill="none" stroke="#000" stroke-width="1"/>
      <path id="Path_7947" data-name="Path 7947" d="M104.565,166.91l6.94-1.027s6.263,11.256,8.126,28.966-.853,20.114-.569,27.164,2.139,19.168-.936,24.457c-2.911,5.006-5.3,6.013-5.3,6.013l-23.013,2.743-1.308,4.815s-6.59,1.925-10.272-4.115-4.287-13.552-1.266-18.81,3.369-13.165,4.848-15.157,3.2-4.021,9.144-6.676,10.64-5.122,12.422-10.2-.248-20.483.32-26.9.864-11.274.864-11.274" transform="translate(59.738 132.058)" fill="#672376"/>
      <path id="Path_7948" data-name="Path 7948" d="M104.565,166.91l6.94-1.027s6.263,11.256,8.126,28.966-.853,20.114-.569,27.164,2.139,19.168-.936,24.457c-2.911,5.006-5.3,6.013-5.3,6.013l-23.013,2.743-1.308,4.815s-6.59,1.925-10.272-4.115-4.287-13.552-1.266-18.81,3.369-13.165,4.848-15.157,3.2-4.021,9.144-6.676,10.64-5.122,12.422-10.2-.248-20.483.32-26.9S104.565,166.91,104.565,166.91Z" transform="translate(59.738 132.058)" fill="none" stroke="#000" stroke-width="1"/>
      <path id="Path_7949" data-name="Path 7949" d="M83.46,225.637a.2.2,0,0,1-.057,0,.233.233,0,0,1-.208-.255l2.18-22.228a.233.233,0,1,1,.463.045l-2.18,22.228a.235.235,0,0,1-.2.208" transform="translate(66.229 161.562)" fill="#fff"/>
      <path id="Path_7950" data-name="Path 7950" d="M87.588,217.039l23.875-3.188s3.016,13.945,1.706,22.421c-1.827,11.824-4.873,36.822-4.873,36.822s11.044,22.361,12.425,28.229a47.59,47.59,0,0,1,1.106,15.105l-8.244,4.079s-9.029-8.438-12.828-18.938c-1.911-5.288-5.494-14.336-5.494-14.336s.507,19.355,0,24.078A34.292,34.292,0,0,1,90.787,325.2h-9.3s-4.84-33.659-3.378-57.6,9.478-50.569,9.478-50.569" transform="translate(61.964 170.245)" fill="#a62973"/>
      <path id="Path_7951" data-name="Path 7951" d="M87.588,217.039l23.875-3.188s3.016,13.945,1.706,22.421c-1.827,11.824-4.873,36.822-4.873,36.822s11.044,22.361,12.425,28.229a47.59,47.59,0,0,1,1.106,15.105l-8.244,4.079s-9.029-8.438-12.828-18.938c-1.911-5.288-5.494-14.336-5.494-14.336s.507,19.355,0,24.078A34.292,34.292,0,0,1,90.787,325.2h-9.3s-4.84-33.659-3.378-57.6S87.588,217.039,87.588,217.039Z" transform="translate(61.964 170.245)" fill="none" stroke="#000" stroke-width="1"/>
      <g id="Group_1465" data-name="Group 1465" transform="translate(156.989 412.862)" opacity="0.46" style="mix-blend-mode: multiply;isolation: isolate">
        <g id="Group_1464" data-name="Group 1464">
          <g id="Group_1463" data-name="Group 1463" clip-path="url(#clip-path-2)">
            <path id="Path_7952" data-name="Path 7952" d="M87.643,274.715a.233.233,0,0,1-.233-.23c0-.1-.11-9.8.859-14.193.963-4.361,5.288-29.971,5.331-30.23a.233.233,0,0,1,.46.077c-.045.259-4.372,25.882-5.336,30.253-.957,4.341-.848,13.99-.846,14.087a.235.235,0,0,1-.23.235Z" transform="translate(-87.406 -229.867)" fill="#f7adc1"/>
          </g>
        </g>
      </g>
      <g id="Group_1468" data-name="Group 1468" transform="translate(147.147 384.097)" opacity="0.29" style="mix-blend-mode: multiply;isolation: isolate">
        <g id="Group_1467" data-name="Group 1467">
          <g id="Group_1466" data-name="Group 1466" clip-path="url(#clip-path-3)">
            <path id="Path_7953" data-name="Path 7953" d="M81.926,225.9s3.136-6.193,7.764-6.435,19.107-.794,19.107-.794l-.591-4.817L84.331,217.04Z" transform="translate(-81.926 -213.852)" fill="#f7adc1"/>
          </g>
        </g>
      </g>
      <path id="Path_7954" data-name="Path 7954" d="M91.5,176.778s-.1-7.2-.04-9.065-.147-14.225,1.394-14.225c1.042,0,.894,10.545.894,10.545a14.625,14.625,0,0,1,2.725-3.276c1.365-1.045,1.94.559,2.037,1.22s1.347-.031,2.13.7.232,5.656-.627,6.89a8.453,8.453,0,0,0-1.573,6.187Z" transform="translate(72.798 122.19)" fill="#fcada9"/>
      <path id="Path_7955" data-name="Path 7955" d="M91.5,176.778s-.1-7.2-.04-9.065-.147-14.225,1.394-14.225c1.042,0,.894,10.545.894,10.545a14.625,14.625,0,0,1,2.725-3.276c1.365-1.045,1.94.559,2.037,1.22s1.347-.031,2.13.7.232,5.656-.627,6.89a8.453,8.453,0,0,0-1.573,6.187Z" transform="translate(72.798 122.19)" fill="none" stroke="#000" stroke-width="1"/>
      <path id="Path_7956" data-name="Path 7956" d="M74.578,283.059H93.96l-.58-7.21h-9.3c-2.814,3.6-8.77,2.671-9.5,7.21" transform="translate(59.371 219.601)" fill="#672376"/>
      <path id="Path_7957" data-name="Path 7957" d="M74.578,283.059H93.96l-.58-7.21h-9.3C81.265,279.454,75.309,278.52,74.578,283.059Z" transform="translate(59.371 219.601)" fill="none" stroke="#000" stroke-width="1"/>
      <path id="Path_7958" data-name="Path 7958" d="M74.578,281.162s.848-2.545,1.62-2.714c.7-.151,4.632,1.352,8.073,1.358s9.306-1.575,9.306-1.575l.383,2.931Z" transform="translate(59.371 221.497)" fill="#fff"/>
      <path id="Path_7959" data-name="Path 7959" d="M74.578,281.162s.848-2.545,1.62-2.714c.7-.151,4.632,1.352,8.073,1.358s9.306-1.575,9.306-1.575l.383,2.931Z" transform="translate(59.371 221.497)" fill="none" stroke="#000" stroke-width="0.5"/>
      <path id="Path_7960" data-name="Path 7960" d="M77.755,278.413a11.077,11.077,0,0,0,2.382-1.243,14.933,14.933,0,0,0,1.415-1.322h2.624a4.752,4.752,0,0,1-2.436,2.268,12.675,12.675,0,0,1-3.986.3" transform="translate(61.9 219.6)" fill="#fff"/>
      <path id="Path_7961" data-name="Path 7961" d="M77.755,278.413a11.077,11.077,0,0,0,2.382-1.243,14.933,14.933,0,0,0,1.415-1.322h2.624a4.752,4.752,0,0,1-2.436,2.268A12.675,12.675,0,0,1,77.755,278.413Z" transform="translate(61.9 219.6)" fill="none" stroke="#000" stroke-width="0.5"/>
      <path id="Path_7962" data-name="Path 7962" d="M95.063,286l17.11-9.106-3.9-6.091-8.21,4.368c-.788,4.5-6.487,6.478-5,10.829" transform="translate(75.483 215.582)" fill="#672376"/>
      <path id="Path_7963" data-name="Path 7963" d="M95.063,286l17.11-9.106-3.9-6.091-8.21,4.368C99.275,279.674,93.576,281.648,95.063,286Z" transform="translate(75.483 215.582)" fill="none" stroke="#000" stroke-width="1"/>
      <path id="Path_7964" data-name="Path 7964" d="M95.025,284.365s-.447-2.646.154-3.156c.542-.462,4.725-.982,7.763-2.6s7.475-5.762,7.475-5.762l1.717,2.407Z" transform="translate(75.521 217.215)" fill="#fff"/>
      <path id="Path_7965" data-name="Path 7965" d="M95.025,284.365s-.447-2.646.154-3.156c.542-.462,4.725-.982,7.763-2.6s7.475-5.762,7.475-5.762l1.717,2.407Z" transform="translate(75.521 217.215)" fill="none" stroke="#000" stroke-width="0.5"/>
      <path id="Path_7966" data-name="Path 7966" d="M96.544,277.828a11.09,11.09,0,0,0,1.519-2.216,14.732,14.732,0,0,0,.627-1.83l2.317-1.234a4.754,4.754,0,0,1-1.085,3.147,12.674,12.674,0,0,1-3.378,2.134" transform="translate(76.858 216.972)" fill="#fff"/>
      <path id="Path_7967" data-name="Path 7967" d="M96.544,277.828a11.09,11.09,0,0,0,1.519-2.216,14.732,14.732,0,0,0,.627-1.83l2.317-1.234a4.754,4.754,0,0,1-1.085,3.147A12.674,12.674,0,0,1,96.544,277.828Z" transform="translate(76.858 216.972)" fill="none" stroke="#000" stroke-width="0.5"/>
      <path id="Path_7968" data-name="Path 7968" d="M102.178,188.98c0,6.6,23.326,15.2,14.755,25.7-14.469,17.724-31.642-15.06-32.662-25.7-.63-6.57,4.009-11.951,8.953-11.951s8.953,5.351,8.953,11.951" transform="translate(67.041 140.931)" fill="#8c473e"/>
      <path id="Path_7969" data-name="Path 7969" d="M102.178,188.98c0,6.6,23.326,15.2,14.755,25.7-14.469,17.724-31.642-15.06-32.662-25.7-.63-6.57,4.009-11.951,8.953-11.951S102.178,182.38,102.178,188.98Z" transform="translate(67.041 140.931)" fill="none" stroke="#000" stroke-width="1"/>
      <g id="Group_1471" data-name="Group 1471" transform="translate(146.077 488.389)" opacity="0.29" style="mix-blend-mode: multiply;isolation: isolate">
        <g id="Group_1470" data-name="Group 1470">
          <g id="Group_1469" data-name="Group 1469" clip-path="url(#clip-path-4)">
            <path id="Path_7970" data-name="Path 7970" d="M81.33,278.979s3.608-7.885,5.176-6.99-2.588,6.99-2.588,6.99Z" transform="translate(-81.331 -271.918)" fill="#f7adc1"/>
          </g>
        </g>
      </g>
      <g id="Group_1474" data-name="Group 1474" transform="translate(170.212 480.52)" opacity="0.29" style="mix-blend-mode: multiply;isolation: isolate">
        <g id="Group_1473" data-name="Group 1473">
          <g id="Group_1472" data-name="Group 1472" clip-path="url(#clip-path-5)">
            <path id="Path_7971" data-name="Path 7971" d="M105.4,274.953s-8.923-9.239-10.451-7.093,7.477,8.677,7.477,8.677Z" transform="translate(-94.768 -267.536)" fill="#f7adc1"/>
          </g>
        </g>
      </g>
      <g id="Group_1477" data-name="Group 1477" transform="translate(166.577 431.265)" opacity="0.29" style="mix-blend-mode: multiply;isolation: isolate">
        <g id="Group_1476" data-name="Group 1476">
          <g id="Group_1475" data-name="Group 1475" clip-path="url(#clip-path-6)">
            <path id="Path_7972" data-name="Path 7972" d="M96.427,252.186s-4.469-6.18-3.562-10.884,4.154,6.08,4.154,6.08Z" transform="translate(-92.744 -240.113)" fill="#f7adc1"/>
          </g>
        </g>
      </g>
      <path id="Path_7973" data-name="Path 7973" d="M57.905,155.083,56.54,168.3l8.975-.309,1.634-12.458Z" transform="translate(45.011 123.46)" fill="#eb9180"/>
      <path id="Path_7974" data-name="Path 7974" d="M56.152,169.463H73.906s.465-2.741-3.944-5.29a20.723,20.723,0,0,0-5.586-2.631,18.036,18.036,0,0,0-7.377-.35Z" transform="translate(44.702 128.139)" fill="#252526"/>
      <path id="Path_7975" data-name="Path 7975" d="M56.217,165.061H73.851l.054,1.137H56.153Z" transform="translate(44.703 131.403)" fill="#3d4fa5"/>
      <path id="Path_7976" data-name="Path 7976" d="M64.257,168.159l-.4-.463a13.435,13.435,0,0,0-3.175-3.15,17,17,0,0,0-4.183-1.683l.14-.9a17.2,17.2,0,0,1,4.386,1.782,14.076,14.076,0,0,1,3.307,3.269l.4.465Z" transform="translate(44.98 128.938)" fill="#3d4fa5"/>
      <path id="Path_7977" data-name="Path 7977" d="M65.35,166.242l-6.534-5.271,1.23.05,5.46,4.269,3.213-.573.973.749Z" transform="translate(46.822 128.147)" fill="#3d4fa5"/>
      <path id="Path_7978" data-name="Path 7978" d="M189.093,130.38l41.2-22.717L207.212,65.82a1,1,0,0,0-1.663-.142,15.011,15.011,0,0,1-5.175,4.124c-6.778,3.3-15.285.638-19.365-5.7-4.765-7.4-2.585-17.826,4.993-22a14.955,14.955,0,0,1,5.562-1.776,1,1,0,0,0,.771-1.482L171.291.679l-39.715,21.9a1.54,1.54,0,0,1-2.285-1.194,15.039,15.039,0,0,0-23.15-11.38,15.036,15.036,0,0,0-.645,24.808,1.312,1.312,0,0,1-.122,2.216L65.562,58.984,88.148,99.94a.609.609,0,0,0,1.035.052,15.035,15.035,0,1,1,13.061,23.685.609.609,0,0,0-.506.9L124.312,166.1l41.215-22.728a.848.848,0,0,1,1.255.794A15.033,15.033,0,1,0,189.1,131.865a.848.848,0,0,1,0-1.485" transform="translate(52.193 0.541)" fill="#672376"/>
      <path id="Path_7979" data-name="Path 7979" d="M189.093,130.38l41.2-22.717L207.212,65.82a1,1,0,0,0-1.663-.142,15.011,15.011,0,0,1-5.175,4.124c-6.778,3.3-15.285.638-19.365-5.7-4.765-7.4-2.585-17.826,4.993-22a14.955,14.955,0,0,1,5.562-1.776,1,1,0,0,0,.771-1.482L171.291.679l-39.715,21.9a1.54,1.54,0,0,1-2.285-1.194,15.039,15.039,0,0,0-23.15-11.38,15.036,15.036,0,0,0-.645,24.808,1.312,1.312,0,0,1-.122,2.216L65.562,58.984,88.148,99.94a.609.609,0,0,0,1.035.052,15.035,15.035,0,1,1,13.061,23.685.609.609,0,0,0-.506.9L124.312,166.1l41.215-22.728a.848.848,0,0,1,1.255.794A15.033,15.033,0,1,0,189.1,131.865.848.848,0,0,1,189.093,130.38Z" transform="translate(52.193 0.541)" fill="none" stroke="#000" stroke-width="1"/>
      <path id="Path_7980" data-name="Path 7980" d="M81.814,89.24s14.593.05,16.908-.582c4.066-1.112,11.894-6.831,15.89-10.369.832-.736,4.291-9.248,5.3-8.7.783.426-1.746,5.731-1.279,5.466,2.434-1.39,6.575-4.7,7.869-4.19,1.027.4-1.742,1.916-1.326,2.2.323.216,2.942-1.55,3.249-1.121.559.785-2.365,3.29-2.719,3.946a37.393,37.393,0,0,1-6.141,7.526c-5.178,5.167-16.131,13.176-19.543,14.606-3.978,1.665-19.565,2.33-19.565,2.33Z" transform="translate(64.05 55.38)" fill="#eb9180"/>
      <path id="Path_7981" data-name="Path 7981" d="M81.814,89.24s14.593.05,16.908-.582c4.066-1.112,11.894-6.831,15.89-10.369.832-.736,4.291-9.248,5.3-8.7.783.426-1.746,5.731-1.279,5.466,2.434-1.39,6.575-4.7,7.869-4.19,1.027.4-1.742,1.916-1.326,2.2.323.216,2.942-1.55,3.249-1.121.559.785-2.365,3.29-2.719,3.946a37.393,37.393,0,0,1-6.141,7.526c-5.178,5.167-16.131,13.176-19.543,14.606-3.978,1.665-19.565,2.33-19.565,2.33Z" transform="translate(64.05 55.38)" fill="none" stroke="#000" stroke-width="1"/>
      <path id="Path_7982" data-name="Path 7982" d="M83.282,58.978c.016-.458.038-.925.065-1.394.167-.528,2.818-8.871,2.168-9.359-.3-.223-.986.875-1.66,2.166.163-3.226-.056-5.162-1.721-3.409a5.241,5.241,0,0,0-.591.776c-3.434,5.408-5.169,24.172-6.13,25.528A132.339,132.339,0,0,1,61.6,89.77l12.479,3.321s.839-2.313,4.864-8.842c2.832-4.593,3.831-7.118,4.336-14.543.059-.885-.11-7.513,0-10.728" transform="translate(49.042 36.875)" fill="#eb9180"/>
      <path id="Path_7983" data-name="Path 7983" d="M83.282,58.978c.016-.458.038-.925.065-1.394.167-.528,2.818-8.871,2.168-9.359-.3-.223-.986.875-1.66,2.166.163-3.226-.056-5.162-1.721-3.409a5.241,5.241,0,0,0-.591.776c-3.434,5.408-5.169,24.172-6.13,25.528A132.339,132.339,0,0,1,61.6,89.77l12.479,3.321s.839-2.313,4.864-8.842c2.832-4.593,3.831-7.118,4.336-14.543C83.341,68.821,83.172,62.193,83.282,58.978Z" transform="translate(49.042 36.875)" fill="none" stroke="#000" stroke-width="1"/>
      <path id="Path_7984" data-name="Path 7984" d="M54.95,124.5l22.821,1.983,5.521-12.9c2.9-6.771,3.316-7.894,10.419-9.911l12.643-1.523L108.5,88.117,94.66,87.754c-7,.363-10.786-.627-18.011-.627H73.566l5.812-13.295L66.9,70.512s-7.75,10.1-9.884,22.079c-1.04,5.835-2.066,23.825-2.066,31.913" transform="translate(43.745 56.134)" fill="#a62973"/>
      <path id="Path_7985" data-name="Path 7985" d="M54.95,124.5l22.821,1.983,5.521-12.9c2.9-6.771,3.316-7.894,10.419-9.911l12.643-1.523L108.5,88.117,94.66,87.754c-7,.363-10.786-.627-18.011-.627H73.566l5.812-13.295L66.9,70.512s-7.75,10.1-9.884,22.079C55.976,98.427,54.95,116.416,54.95,124.5Z" transform="translate(43.745 56.134)" fill="none" stroke="#000" stroke-width="1"/>
      <path id="Path_7986" data-name="Path 7986" d="M63.723,91.131s3.032,2.816,9.544.643l.253-7.134s3.714.158,4.815-1.39.823-7.732.823-7.732,2.457.255,1.7-1.284c-.7-1.419-2.457-.253-3.853-6.132-.952-4.014-7.628-5.175-11.653,1.706s-1.634,21.323-1.634,21.323" transform="translate(50.169 51.64)" fill="#eb9180"/>
      <path id="Path_7987" data-name="Path 7987" d="M63.723,91.131s3.032,2.816,9.544.643l.253-7.134s3.714.158,4.815-1.39.823-7.732.823-7.732,2.457.255,1.7-1.284c-.7-1.419-2.457-.253-3.853-6.132-.952-4.014-7.628-5.175-11.653,1.706S63.723,91.131,63.723,91.131Z" transform="translate(50.169 51.64)" fill="none" stroke="#000" stroke-width="1"/>
      <path id="Path_7988" data-name="Path 7988" d="M64.526,86.059a16.692,16.692,0,0,0,7.127.557c4.564-.954,1.981-9.422,2.805-11.673,1.356-3.7,2.874,1.8,3.853.636,1.2-1.433-1.916-7.454.67-9.977,1.534-1.5-13.842-5.57-16.867,1.719-3.691,8.887,2.412,18.739,2.412,18.739" transform="translate(48.504 50.241)"/>
      <path id="Path_7989" data-name="Path 7989" d="M37.025,204.448H49.019s5.679-16.287,12.754-33.515c5.616-13.672,11.946-36.159,11.946-36.159s-.8,26.241-1.011,33.486c-.745,25.126-.776,37.7-.776,37.7h10.6S86,189.185,90.748,160.731c2.572-15.416,3.36-36.426,3.292-46.589a38.037,38.037,0,0,0-2-11.585L69.22,100.573S56.2,127.2,51.3,145c-11.2,40.714-14.274,59.449-14.274,59.449" transform="translate(29.475 80.065)" fill="#672376"/>
      <path id="Path_7990" data-name="Path 7990" d="M37.025,204.448H49.019s5.679-16.287,12.754-33.515c5.616-13.672,11.946-36.159,11.946-36.159s-.8,26.241-1.011,33.486c-.745,25.126-.776,37.7-.776,37.7h10.6S86,189.185,90.748,160.731c2.572-15.416,3.36-36.426,3.292-46.589a38.037,38.037,0,0,0-2-11.585L69.22,100.573S56.2,127.2,51.3,145C40.1,185.713,37.025,204.448,37.025,204.448Z" transform="translate(29.475 80.065)" fill="none" stroke="#000" stroke-width="1"/>
      <path id="Path_7991" data-name="Path 7991" d="M47.85,158.407l-3.567,7.612-8.228,1.559,2.85-9.171Z" transform="translate(28.703 126.106)" fill="#eb9180"/>
      <g id="Group_1480" data-name="Group 1480" transform="translate(102.691 169.271)" opacity="0.44" style="mix-blend-mode: multiply;isolation: isolate">
        <g id="Group_1479" data-name="Group 1479">
          <g id="Group_1478" data-name="Group 1478" clip-path="url(#clip-path-7)">
            <path id="Path_7992" data-name="Path 7992" d="M58.95,106.066s-4.2-11.825.327-11.822,1.5,12.028,1.5,12.028Z" transform="translate(-57.175 -94.244)" fill="#f7adc1"/>
          </g>
        </g>
      </g>
      <path id="Path_7993" data-name="Path 7993" d="M65.1,110.024h6.6c-.1,7.9-.551,15.987-.551,15.987s-6.067,4.46-6.046-15.987" transform="translate(51.825 87.589)" fill="#542060"/>
      <path id="Path_7994" data-name="Path 7994" d="M65.1,110.024h6.6c-.1,7.9-.551,15.987-.551,15.987S65.077,130.471,65.1,110.024Z" transform="translate(51.825 87.589)" fill="none" stroke="#000" stroke-width="1"/>
      <path id="Path_7995" data-name="Path 7995" d="M63.507,132l6.94.718s-1.085,6.06-1.306,7.976c-.232,2.022-1.374,7.993-1.374,7.993s-6.261,3.66-4.26-16.687" transform="translate(50.243 105.081)" fill="#542060"/>
      <path id="Path_7996" data-name="Path 7996" d="M63.507,132l6.94.718s-1.085,6.06-1.306,7.976c-.232,2.022-1.374,7.993-1.374,7.993S61.506,152.345,63.507,132Z" transform="translate(50.243 105.081)" fill="none" stroke="#000" stroke-width="1"/>
      <g id="Group_1483" data-name="Group 1483" transform="translate(102.183 181.057)" opacity="0.53" style="mix-blend-mode: multiply;isolation: isolate">
        <g id="Group_1482" data-name="Group 1482">
          <g id="Group_1481" data-name="Group 1481" clip-path="url(#clip-path-8)">
            <path id="Path_7997" data-name="Path 7997" d="M57.595,134.824c-.013-.059-1.207-6.087-.456-17.478.465-7.06,1.764-16.447,1.776-16.54l.519.072c-.014.093-1.309,9.462-1.773,16.5-.745,11.312.433,17.28.445,17.339Z" transform="translate(-56.892 -100.806)" fill="#3d4fa5"/>
          </g>
        </g>
      </g>
      <path id="Path_7998" data-name="Path 7998" d="M54.14,108.455l2.646.463s-4.693,15.344-9.119,15.538c0,0,3.732-9.419,6.473-16" transform="translate(37.947 86.34)" fill="#542060"/>
      <path id="Path_7999" data-name="Path 7999" d="M54.14,108.455l2.646.463s-4.693,15.344-9.119,15.538C47.667,124.456,51.4,115.038,54.14,108.455Z" transform="translate(37.947 86.34)" fill="none" stroke="#000" stroke-width="1"/>
      <path id="Path_8000" data-name="Path 8000" d="M45.43,130.393l3.7-.2s-2.074,15.739-7.786,15.964Z" transform="translate(32.91 103.646)" fill="#542060"/>
      <path id="Path_8001" data-name="Path 8001" d="M45.43,130.393l3.7-.2s-2.074,15.739-7.786,15.964Z" transform="translate(32.91 103.646)" fill="none" stroke="#000" stroke-width="1"/>
      <g id="Group_1486" data-name="Group 1486" transform="translate(110.424 173.52)" opacity="0.44" style="mix-blend-mode: multiply;isolation: isolate">
        <g id="Group_1485" data-name="Group 1485">
          <g id="Group_1484" data-name="Group 1484" clip-path="url(#clip-path-9)">
            <path id="Path_8002" data-name="Path 8002" d="M61.48,104.747s3.537-8.345,6.5-8.133-3.141,8.425-3.141,8.425Z" transform="translate(-61.481 -96.609)" fill="#f7adc1"/>
          </g>
        </g>
      </g>
      <path id="Path_8003" data-name="Path 8003" d="M73.878,70.059l-.523.111V68.159l-2.622.853-.163-.5,3.308-1.076Z" transform="translate(56.18 53.687)" fill="#252526"/>
      <g id="Group_1489" data-name="Group 1489" transform="translate(146.091 144.197)" style="mix-blend-mode: screen;isolation: isolate">
        <g id="Group_1488" data-name="Group 1488">
          <g id="Group_1487" data-name="Group 1487" clip-path="url(#clip-path-10)">
            <path id="Path_8004" data-name="Path 8004" d="M81.338,90.9l1.53-10.617.517.075-1.53,10.617Z" transform="translate(-81.338 -80.284)" fill="#672376"/>
          </g>
        </g>
      </g>
      <g id="Group_1492" data-name="Group 1492" transform="translate(140.972 146.76)" style="mix-blend-mode: screen;isolation: isolate">
        <g id="Group_1491" data-name="Group 1491">
          <g id="Group_1490" data-name="Group 1490" clip-path="url(#clip-path-11)">
            <rect id="Rectangle_1245" data-name="Rectangle 1245" width="12.054" height="0.522" transform="matrix(0.178, -0.984, 0.984, 0.178, 0, 11.861)" fill="#672376"/>
          </g>
        </g>
      </g>
      <path id="Path_8005" data-name="Path 8005" d="M47.311,169.513H30.722s-.514-2.6,4.356-5.015a49.953,49.953,0,0,1,8.98-3.251c3.736-1,5.8.029,5.8.029Z" transform="translate(24.445 128.018)" fill="#252526"/>
      <path id="Path_8006" data-name="Path 8006" d="M30.729,166.163H47.317l.354-1.146H30.887a2.464,2.464,0,0,0-.158,1.146" transform="translate(24.438 131.368)" fill="#3d4fa5"/>
      <path id="Path_8007" data-name="Path 8007" d="M35.967,167.682l-.923-.316c.233-.18,6.191-4.706,8.041-5.1a4.152,4.152,0,0,1,2.687-.009l-.216.761L45.479,163a3.907,3.907,0,0,0-2.225.039c-1.392.3-5.731,3.454-7.287,4.643" transform="translate(27.898 129.019)" fill="#3d4fa5"/>
      <path id="Path_8008" data-name="Path 8008" d="M33.971,166.448l-.683-2.155.727-.341.41,1.295,6.121-3.666s.986-.309,1.32-.393,1.361-.286,1.361-.286Z" transform="translate(26.5 128.092)" fill="#3d4fa5"/>
      <path id="Path_8009" data-name="Path 8009" d="M55.282,100.573l24.179,2.087.954,4.3-26.889-2.653Z" transform="translate(42.611 80.065)" fill="#ee5064"/>
      <path id="Path_8010" data-name="Path 8010" d="M55.282,100.573l24.179,2.087.954,4.3-26.889-2.653Z" transform="translate(42.611 80.065)" fill="none" stroke="#000" stroke-width="1"/>
      <g id="Group_1495" data-name="Group 1495" transform="translate(127.335 121.845)" opacity="0.31">
        <g id="Group_1494" data-name="Group 1494">
          <g id="Group_1493" data-name="Group 1493" clip-path="url(#clip-path-12)">
            <path id="Path_8011" data-name="Path 8011" d="M70.9,68.555l2.2-.715v2.949s-2.046.586-2.2-2.234" transform="translate(-70.896 -67.838)" fill="#a4dfff"/>
          </g>
        </g>
      </g>
      <path id="Path_8012" data-name="Path 8012" d="M69.856,78.6s3.059-8.257,3.863-5.812.036,6.994-3.863,5.812" transform="translate(55.612 57.585)"/>
      <path id="Path_8013" data-name="Path 8013" d="M18.379,23.873a9.19,9.19,0,1,1-9.189-9.189,9.189,9.189,0,0,1,9.189,9.189" transform="translate(-49.893 11.69)" fill="#a62973"/>
      <path id="Path_8014" data-name="Path 8014" d="M11.62,84.491a6.725,6.725,0,1,1,6.725-6.725,6.732,6.732,0,0,1-6.725,6.725m0-12.655a5.931,5.931,0,1,0,5.931,5.931,5.937,5.937,0,0,0-5.931-5.931" transform="translate(-45.996 56.556)" fill="#a62973"/>
      <path id="Path_8015" data-name="Path 8015" d="M30.97,153.861a10.689,10.689,0,1,1,10.689-10.689A10.7,10.7,0,0,1,30.97,153.861m0-20.583a9.895,9.895,0,1,0,9.895,9.895,9.905,9.905,0,0,0-9.895-9.895" transform="translate(-113.855 80.665)" fill="#a62973"/>
      <path id="Path_8016" data-name="Path 8016" d="M14.7,167.811a4.351,4.351,0,1,1,4.352-4.35,4.355,4.355,0,0,1-4.352,4.35m0-7.908a3.558,3.558,0,1,0,3.558,3.558A3.563,3.563,0,0,0,14.7,159.9" transform="translate(-82.545 81.993)" fill="#a62973"/>
    </g>
  </g>
</svg>
