<?xml version="1.0" encoding="utf-8"?>
<!-- Generator: Adobe Illustrator 27.5.0, SVG Export Plug-In . SVG Version: 6.00 Build 0)  -->
<svg version="1.1" id="Ñëîé_1" xmlns="http://www.w3.org/2000/svg" xmlns:xlink="http://www.w3.org/1999/xlink" x="0px" y="0px"
	 viewBox="0 0 2000.215 1414.564" style="enable-background:new 0 0 2000.215 1414.564;" xml:space="preserve">
<rect x="0.108" y="0.108" style="fill-rule:evenodd;clip-rule:evenodd;fill:none;stroke:#1D1D1B;stroke-width:0.216;stroke-miterlimit:22.9256;" width="1999.999" height="1414.348"/>
<path style="opacity:0.99;" d="M1958.042,341.503c-1.906,0-3.452-1.546-3.452-3.452c0-1.906,1.546-3.451,3.452-3.451h42.065v6.903
	H1958.042z"/>
<path d="M82.114,334.6c1.906,0,3.451,1.545,3.451,3.451c0,1.906-1.545,3.452-3.451,3.452H0.107V334.6H82.114z"/>
<g>
	<path d="M1956.33,335.072c1.645-0.945,3.746-0.378,4.691,1.267c0.945,1.645,0.378,3.746-1.267,4.691
		c-125.876,72.417-186.087,78.35-264.788,86.104c-55.992,5.516-121.428,11.969-227.068,44.331
		c28.709-3.815,59.618-5.445,90.693-4.581c56.135,1.559,112.897,11.261,158.31,30.923
		c113.735,49.24,170.076,104.676,186.594,159.166c10.268,33.872,5.209,67.271-11.013,98.551
		c-16.074,30.992-43.124,59.879-77.049,85.031c-96.327,71.418-248.642,113.01-362.023,87.032
		c-44.571-10.212-59.622-17.866-57.704-26.234c1.584-6.919,14.834-12.18,32.445-19.168c31.553-12.522,78.224-31.046,88.613-67.659
		c14.007-49.362,29.452-121.779,26.536-185.943c-1.445-31.792-7.403-61.529-20.3-85.325c-12.729-23.487-32.307-41.213-61.128-49.39
		c-13.73-3.896-29.566-5.647-47.763-4.855c-7.071,1.914-13.842,3.99-20.258,6.225c-36.367,12.665-49.273,16.94-49.244,17.023
		c0.225,0.648,6.173-0.571,15.276-0.462c10.218,0.122,23.35,0.28,36,1.868c11.382,1.428,21.89,5.201,31.511,10.886
		c29.439,17.394,50.446,52.733,62.826,93.423c12.289,40.391,16.125,86.149,11.281,124.751c-2.895,23.072-8.901,43.675-18.065,59.184
		c-19.01,32.175-47.797,50.447-67.817,55.024c-7.989,1.827-14.825,1.524-19.457-0.883c-5.355-2.782-7.868-7.911-6.283-15.341
		c2.312-10.839,14.531-27.556,42.022-49.858c23.059-18.706,33.656-42.182,35.069-67.348c1.083-19.259-3.184-39.575-11.348-59.568
		c-8.217-20.125-20.368-39.886-34.985-57.905c-36.103-44.504-87.094-78.346-130.954-80.81c-25.557-1.436-52.492-1.646-79.095-0.169
		l2.114,3.264c24.53,37.843,47.376,73.102,9.991,115.474c2.305,6.958,3.394,14.518,4.482,22.077
		c1.912,13.288,3.828,26.577,12.409,34.653c11.052,7.056,22.684,12.851,34.533,16.56c-0.668-3.462-0.915-6.771-0.674-9.863
		c0.582-7.466,3.896-13.633,10.755-17.717c3.853-2.294,8.796-3.872,14.964-4.571c12.11-1.373,22.307,4.746,27.574,12.677
		c1.879,2.831,3.149,5.912,3.674,8.993c0.549,3.218,0.294,6.448-0.903,9.427c-2.495,6.209-8.925,11.103-20.485,12.117
		c-8.24,0.723-16.509,0.182-24.708-1.385c0.15,0.363,0.304,0.727,0.461,1.092c6.061,14.053,17.38,29.62,29.882,42.736
		c3.507,3.68,7.02,7.359,10.531,11.036c9.771,10.234,19.548,20.475,29.197,30.714c14.255,15.126,22.956,33.491,24.784,50.02
		c1.038,9.397-0.128,18.255-3.73,25.687c-3.681,7.593-9.839,13.645-18.705,17.232c-11.085,4.485-26.42,5.054-46.439-0.204
		c-5.584-1.467-11.136-3.392-16.496-5.724c2.805,13.573,3.661,26.536,0.569,36.883c-5.908,19.777-25.103,29.962-69.716,17.449
		c0.074,0.596,0.141,1.191,0.198,1.783c0.791,8.234-0.177,16.03-3.656,22.423c-3.576,6.569-9.679,11.541-19.058,13.861
		c-9.135,2.26-21.474,1.954-37.758-1.975c-4.125-0.995-7.947-1.786-11.505-2.422c1.32,2.475,2.443,5.067,3.342,7.719
		c2.916,8.607,3.521,17.916,1.015,25.959c-2.591,8.318-8.419,15.246-18.313,18.716c-17.235,6.044-47.308,1.114-94.906-27.16
		c-2.059-1.223-4.086-2.412-6.085-3.57c-3.098,14.286-13.181,23.703-24.806,27.573c-5.234,1.741-10.779,2.355-16.131,1.777
		c-5.418-0.585-10.662-2.382-15.226-5.453c-8.173-5.5-14.117-14.98-14.892-28.745c-6.891,7.837-16.053,12.898-25.535,14.731
		c-6.665,1.289-13.511,0.986-19.863-1.062c-6.402-2.064-12.283-5.89-16.957-11.631c-7.938-9.747-12.353-25.003-9.738-46.473
		c-13.663,10.987-25.327,16.737-34.929,18.254c-8.209,1.296-14.995-0.421-20.327-4.579c-5.195-4.051-8.853-10.352-10.966-18.366
		c-3.998-15.164-2.504-36.861,4.573-61.006c0.129-0.543,0.391-1.063,0.791-1.506c1.273-1.415,3.453-1.529,4.867-0.256
		c47.247,42.426,76.607,54.051,112.836,68.352l0.171,0.062c23.247,9.177,49.302,19.463,84.59,39.5
		c0.396,0.048,0.677,0.081,0.854,0.098c15.504,1.55,27.877-3.256,36.824-12.203c9.101-9.102,14.776-22.518,16.707-37.967
		c0.125-1,0.213-1.756,0.266-2.282c0.175-1.789,1.693-3.122,3.457-3.104c17.302-0.436,30.679-4.02,38.614-11.894
		c7.781-7.722,10.481-19.944,6.68-37.866c-0.394-1.861,0.795-3.691,2.656-4.085c0.176-0.037,0.352-0.06,0.526-0.07
		c51.688-3.549,51.431-20.125,51.066-43.575c-0.2-12.864-0.429-27.593,6.233-43.583c0.592-1.427,2.035-2.244,3.496-2.11
		c14.655,0.944,26.516-1.954,35.459-7.435c8.288-5.079,14.102-12.414,17.317-20.963c3.249-8.637,3.864-18.542,1.724-28.658
		c-2.807-13.271-10.359-26.882-22.924-38.509l-0.27-0.173c-29.6-19.108-54.979-46.825-69.731-68.352
		c-15.542,9.306-23.821,10.589-41.462,13.319c-1.382,0.213-2.851,0.441-4.597,0.716c-7.662,28.633-43.221,76.884-74.204,99.508
		c-10.631,7.764-20.885,12.634-29.576,12.909c-9.537,0.302-17.042-4.499-21.106-16.289c-6.875-19.948-3.279-61.931,19.081-137.241
		c10.689-36,44.092-59.445,87.887-73.806c28.999-9.51,62.616-15.048,97.164-17.63c-2.114-3.378-4.185-6.783-6.172-10.218
		c-0.617-1.067-1.568-2.153-2.819-3.246c-12.328-10.781-48.684-19.742-87.479-22.98c-38.851-3.244-79.806-0.667-101.123,11.667
		c-3.567,2.063-6.544,4.387-8.813,6.982c-78.533,89.803-120.659,73.511-177.706,51.447c-18.865-7.296-39.416-15.245-63.575-19.962
		c2.623,61.336-2.347,108.901-15.861,154.264c-11.861,39.813-30.27,77.832-55.876,121.922c18.213-17.089,35.923-19.955,115.838,40.8
		c15.002,11.404,25.223,22.122,28.881,28.851c1.724,3.172,2.214,5.919,1.368,8.044c-1.079,2.709-3.588,3.993-7.627,3.532
		c-5.412-0.618-15.398-4.988-30.641-14.572c-13.526-8.504-32.147-16.247-53.635-23.325c-21.142-6.964-44.999-13.262-69.503-19
		c-22.973,18.824-64.163,35.426-173.599,9.97c-28.405-6.607-52.458-6.809-70.346-6.957c-1.758-0.014-3.458-0.029-5.101-0.048
		c-29.572,56.742-67.117,111.519-115.39,166.497c-0.817,0.934-2.027,1.319-3.167,1.126l-0.001,0.007
		C10.013,954.962-8.203,862.423,67,770.226c73.624-90.263,239.026-179.723,324.863-225.9c31.738-17.073,48.83-33.475,54.701-49.006
		c6.04-15.977-0.108-31.375-14.46-45.831c-15.009-15.118-38.805-29.166-67.139-41.804c-98.818-44.074-251.522-70.572-282.378-66.224
		c-1.883,0.26-3.623-1.055-3.883-2.939c-0.26-1.883,1.055-3.623,2.939-3.883c31.441-4.43,186.314,22.245,286.126,66.763
		c29.062,12.963,53.57,27.474,69.216,43.233c16.301,16.419,23.165,34.22,16.024,53.112c-6.449,17.061-24.56,34.72-57.883,52.647
		c-85.428,45.957-250.038,134.985-322.786,224.174c-71.006,87.053-52.185,174.73,223.109,222.045
		c46.428-53.084,82.792-105.982,111.608-160.675c-8.543-0.323-15.069-1.185-19.458-3.82c-13.896-8.34-4.799-29.932,34.254-94.995
		c6.879-11.46,13.096-21.632,18.969-31.243c15.087-24.685,27.935-45.71,39.23-67.449c12.345-50.968,21.481-104.745,28.844-162.46
		c2.456-19.255,10.021-25.829,21.437-24.373c6.742,0.859,14.738,4.947,23.764,10.995c10.68-5.025,23.492-4.832,37.795-1.62
		c16.913,3.799,35.724,11.916,55.539,20.465c11.325,4.885,22.982,9.915,34.55,14.267c27.279,10.263,44.946,24.009,51.432,35.454
		c2.694,4.754,3.603,9.282,2.645,13.245c-1.008,4.17-3.953,7.506-8.916,9.633c-9.491,4.069-27.414,3.595-54.447-4.74
		c-32.401-9.991-64.347-35.614-91.394-57.308c-9.815-7.872-18.968-15.214-27.146-21.021c-9.628,6.024-17.016,17.697-21.461,37.483
		c-13.241,58.938-27.637,96.727-46.173,132.494c-9.869,40.602-21.77,79.448-36.428,117.103
		c-9.414,24.185-19.963,47.874-31.833,71.219l1.633,0.014c18.249,0.152,42.787,0.357,71.856,7.119
		c107.55,25.018,146.775,8.75,168.504-9.325c32.162-53.233,54.546-96.591,68.119-142.153
		c13.589-45.615,18.394-93.582,15.406-156.086c-0.036-0.32-0.028-0.652,0.03-0.986c0.327-1.876,2.114-3.132,3.991-2.805
		c26.586,4.684,48.8,13.276,69.096,21.126c54.465,21.066,94.682,36.62,170.047-49.56c2.788-3.188,6.344-5.984,10.539-8.411
		c22.644-13.103,65.121-15.925,105.14-12.584c40.077,3.345,78.039,12.957,91.443,24.678c1.822,1.593,3.254,3.253,4.248,4.972
		c2.569,4.44,5.27,8.813,8.014,13.138c28.139-1.739,56.708-1.58,83.736-0.062c45.809,2.574,98.705,37.472,135.916,83.343
		c15.051,18.552,27.566,38.912,36.037,59.658c8.525,20.879,12.975,42.196,11.832,62.534c-1.519,27.046-12.881,52.256-37.603,72.31
		c-26.12,21.189-37.599,36.459-39.623,45.948c-0.836,3.922,0.266,6.515,2.724,7.791c3.18,1.652,8.36,1.749,14.739,0.29
		c18.601-4.254,45.471-21.435,63.421-51.816c8.663-14.66,14.365-34.342,17.148-56.513c4.737-37.745,0.993-82.467-11.012-121.921
		c-11.915-39.158-31.919-73.041-59.752-89.486c-8.813-5.208-18.431-8.663-28.841-9.969c-12.498-1.569-25.291-1.723-35.246-1.842
		c-11.941-0.143-20.335-0.244-21.693-4.147c-1.665-4.782,12.309-11.451,53.477-25.788c6.651-2.317,13.675-4.466,21.013-6.443
		c138.644-47.913,216.526-55.589,281.694-62.009C1772.172,412.612,1831.754,406.741,1956.33,335.072L1956.33,335.072z
		 M1440.697,482.865c8.23,0.87,15.898,2.343,23.036,4.368c30.817,8.744,51.741,27.679,65.335,52.762
		c13.426,24.771,19.618,55.519,21.107,88.291c2.957,65.071-12.635,138.26-26.777,188.101c-11.318,39.884-59.88,59.158-92.712,72.188
		c-15.686,6.224-27.487,10.908-28.266,14.314c-0.876,3.824,12.9,8.904,52.527,17.983c111.51,25.549,261.465-15.469,356.387-85.846
		c33.11-24.548,59.456-52.635,75.026-82.657c15.421-29.735,20.256-61.398,10.555-93.401
		c-15.96-52.651-71.098-106.518-182.738-154.851c-44.566-19.294-100.433-28.819-155.776-30.357
		C1517.209,472.614,1476.355,475.896,1440.697,482.865L1440.697,482.865z M1202.714,525.538
		c-35.309,2.417-69.729,7.911-99.224,17.583c-41.733,13.686-73.469,35.711-83.411,69.195
		c-21.902,73.766-25.618,114.33-19.161,133.062c2.901,8.417,7.994,11.853,14.364,11.652c7.215-0.228,16.18-4.602,25.746-11.587
		c30.75-22.454,66.102-70.727,72.104-97.736c0.313-1.42,1.463-2.438,2.818-2.654v-0.002c2.093-0.334,4.541-0.714,6.873-1.074
		c17.685-2.737,25.431-3.937,41.702-14.106c1.615-1.005,3.741-0.51,4.746,1.105l0.077,0.13
		c11.883,17.975,31.981,41.07,56.041,59.457c-2.673-7.333-3.853-15.529-5.033-23.726c-1.143-7.943-2.287-15.887-4.802-22.632
		c-0.464-1.247-0.158-2.593,0.678-3.514l-0.004-0.004c35.741-39.144,14.029-72.641-9.296-108.623
		C1205.528,529.898,1204.118,527.723,1202.714,525.538L1202.714,525.538z M1281.674,719.148c8.892,2.079,17.861,2.9,26.755,2.12
		c8.553-0.75,13.114-3.884,14.688-7.803c0.701-1.747,0.839-3.706,0.499-5.707c-0.365-2.139-1.271-4.315-2.622-6.35
		c-4.006-6.032-11.795-10.682-21.076-9.63c-5.183,0.587-9.209,1.837-12.214,3.626c-4.701,2.799-6.978,7.093-7.385,12.324
		C1280.051,711.167,1280.549,715.021,1281.674,719.148L1281.674,719.148z M1276.23,724.88c-7.804-2.128-15.514-5.131-23.042-8.801
		c5.975,8.706,9.891,17.914,11.814,27.006c2.41,11.393,1.69,22.622-2.021,32.488c-3.743,9.953-10.515,18.495-20.175,24.414
		c-9.593,5.879-22.004,9.136-37.068,8.555c-5.215,13.881-5.012,27.043-4.831,38.613c0.416,26.65,0.701,45.661-53.644,50.236
		c3.141,18.423-0.425,31.51-9.305,40.322c-8.823,8.755-22.745,12.967-40.412,13.785c-2.187,16.729-8.501,31.357-18.604,41.461
		c-7.943,7.943-18.163,13.074-30.492,14.243c45.005,26.574,72.76,31.456,88.2,26.042c7.572-2.656,12.026-7.934,13.999-14.266
		c2.058-6.606,1.513-14.397-0.961-21.698c-1.363-4.024-3.302-7.881-5.703-11.288c-7.131-0.904-13.018-1.203-18.073-1.458
		l-0.055-0.003c-10.388-0.525-17.08-2.772-20.098-5.307c-1.797-1.509-2.67-3.278-2.638-5.144c0.033-1.948,1.023-3.675,2.946-5.019
		c2.956-2.065,9.037-3.427,17.915-2.881c9.376,0.576,17.62,5.855,23.726,13.367c5.384,0.771,11.428,1.883,18.286,3.537
		c15.122,3.648,26.368,3.986,34.496,1.975c7.304-1.807,11.989-5.554,14.662-10.464c2.769-5.086,3.515-11.537,2.848-18.485
		c-0.149-1.553-0.369-3.127-0.652-4.714c-5.308-1.987-10.321-4.76-14.789-8.157c-5.436-4.134-10.057-9.196-13.41-14.9
		c-5.888-10.014-7.737-18.417-6.749-23.472c0.511-2.618,1.751-4.586,3.607-5.769c1.916-1.22,4.257-1.486,6.895-0.649
		c4.706,1.492,11.067,7.111,17.88,18.118c5.403,8.728,10.045,19.216,12.487,29.54c42.05,12.503,59.578,4.608,64.493-11.846
		c3.114-10.421,1.636-24.252-1.852-38.72c-6.824-3.632-13.167-7.945-18.654-12.819c-10.664-9.474-18.145-21.114-19.788-34.12
		c-1.477-11.69-0.631-19.751,1.62-24.141c1.39-2.71,3.342-4.321,5.714-4.831c2.295-0.494,4.729,0.122,7.171,1.844
		c4.363,3.076,9.287,10.336,13.619,21.636l0.444,1.157c5.195,13.545,11.58,30.197,15.784,46.57
		c6.452,3.197,13.31,5.758,20.229,7.575c18.451,4.846,32.316,4.43,42.097,0.473c7.182-2.906,12.149-7.762,15.092-13.834
		c3.02-6.231,3.982-13.802,3.083-21.939c-1.672-15.124-9.729-32.027-22.95-46.056c-9.744-10.341-19.459-20.516-29.169-30.687
		c-3.511-3.677-7.024-7.356-10.531-11.036c-13.022-13.662-24.847-29.956-31.231-44.758
		C1277.61,728.653,1276.871,726.752,1276.23,724.88L1276.23,724.88z M1271.838,877.572c3.512,3.12,7.408,5.993,11.572,8.586
		c-4.027-13.905-9.375-27.847-13.82-39.438l-0.444-1.157c-3.816-9.954-7.809-16.107-11.138-18.454
		c-0.807-0.57-1.41-0.818-1.778-0.738c-0.291,0.062-0.636,0.467-1.022,1.218c-1.671,3.258-2.212,9.923-0.92,20.15
		C1255.703,858.937,1262.342,869.136,1271.838,877.572L1271.838,877.572z M1206.712,937.765c2.664,2.026,5.56,3.801,8.618,5.282
		c-2.423-8.032-6.157-16.014-10.4-22.867c-5.844-9.441-10.768-14.093-14.105-15.151c-0.599-0.19-0.974-0.229-1.124-0.134
		c-0.21,0.134-0.394,0.574-0.534,1.293c-0.71,3.631,0.947,10.225,5.914,18.672C1197.977,929.785,1201.985,934.17,1206.712,937.765
		L1206.712,937.765z M1126.236,977.659c3.162,0.16,6.641,0.336,10.533,0.659c-3.902-3.028-8.373-4.966-13.19-5.262
		c-6.463-0.397-10.754,0.202-12.903,1.253c2.326,1.568,7.41,2.938,15.505,3.348L1126.236,977.659L1126.236,977.659z
		 M1109.998,974.16l0.001-0.002C1109.999,974.099,1109.999,974.085,1109.998,974.16L1109.998,974.16z M1109.997,974.188l0.002,0.059
		v-0.088l-0.001,0.002L1109.997,974.188L1109.997,974.188z M1031.599,1005.395c-34.155-19.271-59.602-29.318-82.341-38.294
		l-0.176-0.075c-35.8-14.132-65.019-25.708-110.769-65.955c-5.499,20.855-6.512,39.268-3.099,52.214
		c1.73,6.564,4.582,11.614,8.538,14.699c3.819,2.978,8.833,4.184,15.042,3.203c9.988-1.577,22.842-8.629,38.584-22.684
		c1.414-1.265,3.588-1.145,4.853,0.27c0.749,0.837,1.012,1.94,0.809,2.963l0.013,0.003c-4.834,24.173-1.049,40.485,6.798,50.121
		c3.79,4.654,8.547,7.752,13.721,9.421c5.222,1.684,10.899,1.923,16.466,0.847c11.36-2.197,22.19-9.867,27.823-21.938
		c0.803-1.719,2.851-2.462,4.571-1.659c1.412,0.66,2.165,2.158,1.944,3.625l0.01,0.001c-2.712,17.902,2.726,29.331,11.202,35.035
		c3.609,2.428,7.786,3.853,12.125,4.321c4.403,0.475,8.957-0.027,13.247-1.454
		C1020.998,1026.719,1029.631,1018.281,1031.599,1005.395L1031.599,1005.395z M1203.762,801.543l1.007,0.25
		C1204.438,801.656,1204.1,801.574,1203.762,801.543L1203.762,801.543z M670.092,827.551c23.041,5.484,45.393,11.467,65.35,18.041
		c21.946,7.229,41.068,15.202,55.144,24.052c14.286,8.981,23.255,13.034,27.756,13.547c0.497,0.057,0.276,1.232,0.455,0.782
		c0.052-0.133-0.301-0.901-1.018-2.219c-3.26-5.997-12.788-15.868-26.993-26.667c-84.681-64.378-94.666-54.107-113.456-34.775
		C675.072,822.636,672.695,825.079,670.092,827.551L670.092,827.551z M391.131,826.213c3.635,2.182,10.334,2.753,19.451,2.952
		c12.399-24.113,23.359-48.589,33.092-73.597c11.39-29.262,21.108-59.259,29.494-90.26c-8.029,13.986-16.792,28.324-26.469,44.158
		c-6.04,9.884-12.435,20.347-18.943,31.189C391.411,801.206,382.14,820.817,391.131,826.213L391.131,826.213z M493.513,610.332
		c12.286-28.084,22.7-59.929,32.466-103.391c4.586-20.415,11.997-33.183,21.613-40.422c-7.024-4.504-13.147-7.466-18.122-8.101
		c-7.103-0.906-11.926,4.089-13.753,18.414C509.737,523.708,502.589,568.006,493.513,610.332L493.513,610.332z M590.38,467.687
		c-10.789-2.423-20.612-2.858-29.109-0.052c7.544,5.515,15.696,12.053,24.343,18.988c26.576,21.317,57.967,46.494,89.102,56.095
		c25.32,7.807,41.574,8.478,49.728,4.983c2.815-1.207,4.439-2.903,4.924-4.914c0.536-2.217-0.131-5.032-1.944-8.23
		c-5.799-10.232-22.189-22.744-47.873-32.407c-11.937-4.491-23.557-9.505-34.846-14.375
		C625.149,479.337,606.583,471.327,590.38,467.687z"/>
</g>
</svg>
