<svg xmlns="http://www.w3.org/2000/svg" xmlns:xlink="http://www.w3.org/1999/xlink" width="109.28" height="92.468" viewBox="0 0 109.28 92.468">
  <defs>
    <linearGradient id="linear-gradient" x1="0.5" x2="0.5" y2="1" gradientUnits="objectBoundingBox">
      <stop offset="0" stop-color="#6c2476"/>
      <stop offset="1" stop-color="#a22874"/>
    </linearGradient>
  </defs>
  <path id="Path_1406" data-name="Path 1406" d="M133.28,128.265a4.2,4.2,0,0,1-4.2,4.2H28.2a4.2,4.2,0,0,1-4.2-4.2V44.2a4.2,4.2,0,1,1,8.406,0V50.87L61.828,80.292,75.666,66.448a4.2,4.2,0,0,1,5.947,0L112.265,97.1V86.234a4.2,4.2,0,1,1,8.406,0v21.015a3.671,3.671,0,0,1,0,.42.377.377,0,0,1-.026.168c-.026.058,0,.158-.037.242a1.486,1.486,0,0,1-.047.194.736.736,0,0,1-.053.2c-.021.068-.042.121-.063.184l-.074.2-.079.163c-.032.068-.063.142-.1.21s-.058.095-.084.147l-.126.2-.11.147-.137.184c-.058.074-.126.142-.189.21l-.084.095-.089.079a2.539,2.539,0,0,1-.221.194,2.061,2.061,0,0,1-.168.131l-.158.116-.2.121a1.532,1.532,0,0,1-.158.089l-.194.1-.179.079-.189.068a1.494,1.494,0,0,1-.2.068l-.189.053a1.511,1.511,0,0,0-.21.047l-.221.037-.184.026a3.674,3.674,0,0,1-.415,0H95.452a4.2,4.2,0,1,1,0-8.406h10.87L78.64,75.364,64.8,89.208a4.2,4.2,0,0,1-5.947,0L32.406,62.754v61.307h96.671A4.2,4.2,0,0,1,133.28,128.265Z" transform="translate(-24 -40)" fill="url(#linear-gradient)"/>
</svg>
