<svg xmlns="http://www.w3.org/2000/svg" xmlns:xlink="http://www.w3.org/1999/xlink" width="291" height="275" viewBox="0 0 291 275">
  <defs>
    <clipPath id="clip-path">
      <rect id="Rectangle_422" data-name="Rectangle 422" width="291" height="275" transform="translate(0.63 0.001)" fill="none"/>
    </clipPath>
    <clipPath id="clip-path-2">
      <rect id="Rectangle_417" data-name="Rectangle 417" width="4.471" height="4.392" transform="translate(233.605 83.622)" fill="none"/>
    </clipPath>
    <clipPath id="clip-path-3">
      <rect id="Rectangle_416" data-name="Rectangle 416" width="4.466" height="4.387" transform="translate(233.605 83.627)" fill="none"/>
    </clipPath>
  </defs>
  <g id="Group_403" data-name="Group 403" transform="translate(-0.63 -0.001)">
    <g id="Group_404" data-name="Group 404">
      <g id="Group_401" data-name="Group 401">
        <g id="Group_400" data-name="Group 400" clip-path="url(#clip-path)">
          <path id="Path_2509" data-name="Path 2509" d="M161.214,33.924C120.586,42.507,126.638,89.957,56.7,116.587c-74.96,28.539-29.559,136.206,55.727,142.334,84.886,6.1,124.033-32.174,132.747-104.913,6.552-54.7-23.6-132.835-83.964-120.082" fill="#a62973"/>
          <path id="Path_2510" data-name="Path 2510" d="M65.73,106.827c18.219-6.26,45.834-35.518,35.847-68.287S11.944,125.311,65.73,106.827" fill="#a62973"/>
          <path id="Path_2511" data-name="Path 2511" d="M290.988,150.156a.789.789,0,1,1-1.1.2.788.788,0,0,1,1.1-.2" fill="#fff"/>
          <path id="Path_2512" data-name="Path 2512" d="M214.233,31.683a1.5,1.5,0,1,1-1.622,2.524l-.078-.054a1.5,1.5,0,0,1,1.7-2.47" fill="#fff"/>
          <path id="Path_2513" data-name="Path 2513" d="M167.858,82.392a1.5,1.5,0,0,1-1.6,2.536c-.034-.021-.066-.043-.1-.067a1.5,1.5,0,0,1,1.7-2.469" fill="#fff"/>
          <path id="Path_2514" data-name="Path 2514" d="M204.817,61.034a.838.838,0,1,1-1.141.212.837.837,0,0,1,1.141-.212" fill="#fff"/>
          <path id="Path_2515" data-name="Path 2515" d="M157,70.707a.838.838,0,1,1-1.141.212A.837.837,0,0,1,157,70.707" fill="#fff"/>
          <path id="Path_2516" data-name="Path 2516" d="M234.288,27.539a.825.825,0,0,1-1.57.509.951.951,0,0,1-.03-.128.825.825,0,0,1,1.6-.381" fill="#fff"/>
          <path id="Path_2517" data-name="Path 2517" d="M175.662,65.553a.825.825,0,1,1-.913-.561.824.824,0,0,1,.913.561" fill="#fff"/>
          <path id="Path_2518" data-name="Path 2518" d="M119.362,49.171a.931.931,0,1,1-.04-.028l.04.028" fill="#fff"/>
          <path id="Path_2519" data-name="Path 2519" d="M187.135,74.971s-.843,4.5-.559,5.992,2.746,5.475,2.746,5.475-4.494-1.026-5.965-.8-5.326,2.563-5.326,2.563.846-4.5.562-5.992-2.746-5.475-2.746-5.475,4.495,1.026,5.965.8,5.323-2.563,5.323-2.563" fill="#fff"/>
          <path id="Path_2520" data-name="Path 2520" d="M176.479,34.122s-1.515,8.081-1,10.764,4.932,9.836,4.932,9.836-8.073-1.843-10.716-1.429-9.566,4.6-9.566,4.6,1.52-8.085,1.01-10.765-4.933-9.836-4.933-9.836,8.073,1.843,10.716,1.429,9.562-4.6,9.562-4.6" fill="#fff"/>
          <path id="Path_2521" data-name="Path 2521" d="M163.284,19.347a9.131,9.131,0,0,0-.185,1.986,9.689,9.689,0,0,0,.91,1.815,9.293,9.293,0,0,0-1.978-.265,8.777,8.777,0,0,0-1.765.851,9.26,9.26,0,0,0,.188-1.986,9.728,9.728,0,0,0-.912-1.815,9.175,9.175,0,0,0,1.979.264,8.789,8.789,0,0,0,1.763-.851" fill="#fff"/>
          <path id="Path_2522" data-name="Path 2522" d="M133.245,51.1a.938.938,0,1,1-1.3.241.938.938,0,0,1,1.3-.241" fill="#fff"/>
          <path id="Path_2523" data-name="Path 2523" d="M141.526,41.586a.913.913,0,1,1-.933,1.57.866.866,0,0,1-.1-.07.913.913,0,0,1,1.034-1.5" fill="#fff"/>
          <path id="Path_2524" data-name="Path 2524" d="M207.54,77.461a.833.833,0,1,1-1.159.214.834.834,0,0,1,1.159-.214" fill="#fff"/>
          <path id="Path_2525" data-name="Path 2525" d="M209.984,45.115a.834.834,0,1,1-1.159.215.834.834,0,0,1,1.159-.215" fill="#fff"/>
          <path id="Path_2526" data-name="Path 2526" d="M192.29,66.872a.91.91,0,1,1-1.265.235.91.91,0,0,1,1.265-.235" fill="#fff"/>
          <path id="Path_2527" data-name="Path 2527" d="M252.08,129.1a3.189,3.189,0,0,1,.972.556,2.009,2.009,0,0,1,.519,2.725,1.908,1.908,0,0,1-2.663.436l-.021-.015a3.231,3.231,0,0,1-.839-.746,1.991,1.991,0,0,1-.129-2.3,1.882,1.882,0,0,1,2.161-.652" fill="#fff"/>
          <path id="Path_2528" data-name="Path 2528" d="M113.326,64.891a1.5,1.5,0,0,1-1.6,2.536c-.034-.021-.066-.043-.1-.067a1.5,1.5,0,0,1,1.7-2.469" fill="#fff"/>
          <path id="Path_2529" data-name="Path 2529" d="M111.677,37.347a.825.825,0,1,1-1.148.211.825.825,0,0,1,1.148-.211" fill="#fff"/>
          <path id="Path_2530" data-name="Path 2530" d="M222.108,99.6a.837.837,0,1,1-1.164.215.836.836,0,0,1,1.164-.215" fill="#fff"/>
          <path id="Path_2531" data-name="Path 2531" d="M179.432,4.095a9.193,9.193,0,0,0-.186,1.986,9.693,9.693,0,0,0,.911,1.815,9.23,9.23,0,0,0-1.978-.265,8.691,8.691,0,0,0-1.764.851,9.272,9.272,0,0,0,.186-1.987,9.688,9.688,0,0,0-.91-1.815,9.149,9.149,0,0,0,1.977.264,8.762,8.762,0,0,0,1.764-.849" fill="#fff"/>
          <path id="Path_2532" data-name="Path 2532" d="M268.526,104.08c2.075,1.494-.1,4.653-2.174,3.16s.1-4.653,2.174-3.16" fill="#fff"/>
          <path id="Path_2533" data-name="Path 2533" d="M253.111,71.576a.875.875,0,1,1-1.217.225.875.875,0,0,1,1.217-.225" fill="#fff"/>
          <path id="Path_2534" data-name="Path 2534" d="M201.051,98.878c1.885,1.356-.09,4.227-1.975,2.871s.09-4.227,1.975-2.871" fill="#fff"/>
          <path id="Path_2535" data-name="Path 2535" d="M196.841,43.422a.931.931,0,0,1,.539,1.2,1.006,1.006,0,0,1-.086.17.889.889,0,0,1-1.241.195.913.913,0,0,1-.173-.167c-.283-.391-.7-.824-.366-1.308s.872-.23,1.327-.089" fill="#fff"/>
          <path id="Path_2536" data-name="Path 2536" d="M241.753,134.63a1.5,1.5,0,0,1-1.6,2.536c-.034-.021-.066-.043-.1-.067a1.5,1.5,0,0,1,1.7-2.469" fill="#fff"/>
          <path id="Path_2537" data-name="Path 2537" d="M237.5,148.061a.834.834,0,1,1-1.159.215.834.834,0,0,1,1.159-.215" fill="#fff"/>
          <path id="Path_2538" data-name="Path 2538" d="M223.041,150.843a.928.928,0,0,1,.538,1.2.863.863,0,0,1-.086.172.889.889,0,0,1-1.241.2.913.913,0,0,1-.173-.167c-.283-.391-.7-.824-.365-1.308s.871-.23,1.327-.089" fill="#fff"/>
          <path id="Path_2539" data-name="Path 2539" d="M183.607,22.23a.938.938,0,1,1-1.3.241.939.939,0,0,1,1.3-.241" fill="#fff"/>
          <g id="Group_399" data-name="Group 399" opacity="0.5">
            <g id="Group_398" data-name="Group 398">
              <g id="Group_397" data-name="Group 397" clip-path="url(#clip-path-2)">
                <g id="Group_396" data-name="Group 396">
                  <g id="Group_395" data-name="Group 395" clip-path="url(#clip-path-3)">
                    <path id="Path_2540" data-name="Path 2540" d="M237.351,83.622a9.145,9.145,0,0,0-.185,1.987,9.72,9.72,0,0,0,.91,1.815,9.166,9.166,0,0,0-1.978-.264,8.686,8.686,0,0,0-1.764.85,9.258,9.258,0,0,0,.186-1.986,9.689,9.689,0,0,0-.91-1.815,9.22,9.22,0,0,0,1.977.264,8.823,8.823,0,0,0,1.764-.851" fill="#fff"/>
                  </g>
                </g>
              </g>
            </g>
          </g>
          <path id="Path_2541" data-name="Path 2541" d="M134.947,72.233a20.5,20.5,0,0,0-.414,4.42,21.489,21.489,0,0,0,2.028,4.041,20.594,20.594,0,0,0-4.4-.589A19.407,19.407,0,0,0,128.234,82a20.627,20.627,0,0,0,.415-4.42,21.629,21.629,0,0,0-2.027-4.04,20.467,20.467,0,0,0,4.4.588,19.514,19.514,0,0,0,3.927-1.892" fill="#fff"/>
          <path id="Path_2542" data-name="Path 2542" d="M86.941,80.366c2.219,1.6-.1,4.976-2.324,3.379s.107-4.975,2.324-3.379" fill="#fff"/>
          <path id="Path_2543" data-name="Path 2543" d="M122.731,21.148a.478.478,0,1,1-.664.123.478.478,0,0,1,.664-.123" fill="#fff"/>
          <path id="Path_2544" data-name="Path 2544" d="M98.285,109.043a.842.842,0,1,1-1.14.211.842.842,0,0,1,1.14-.211" fill="#fff"/>
          <path id="Path_2545" data-name="Path 2545" d="M194.2,127.612a9.257,9.257,0,0,0-.186,1.986,9.693,9.693,0,0,0,.911,1.815,9.293,9.293,0,0,0-1.978-.265,8.778,8.778,0,0,0-1.765.851,9.259,9.259,0,0,0,.188-1.986,9.79,9.79,0,0,0-.912-1.815,9.113,9.113,0,0,0,1.979.264,8.786,8.786,0,0,0,1.763-.85" fill="#fff"/>
          <path id="Path_2546" data-name="Path 2546" d="M134.677,120.208a1.5,1.5,0,0,1-1.621,2.524c-.027-.017-.053-.035-.079-.054a1.5,1.5,0,0,1,1.7-2.47" fill="#fff"/>
          <path id="Path_2547" data-name="Path 2547" d="M118.055,86.493a.678.678,0,1,1-.943.175.678.678,0,0,1,.943-.175" fill="#fff"/>
          <path id="Path_2548" data-name="Path 2548" d="M98.336,135.633c1.884,1.357-.09,4.226-1.975,2.871s.09-4.227,1.975-2.871" fill="#fff"/>
          <path id="Path_2549" data-name="Path 2549" d="M133.668,127.865a.6.6,0,1,1-.017-.012l.017.012" fill="#fff"/>
          <path id="Path_2550" data-name="Path 2550" d="M102.427,122.271a.667.667,0,1,1-.927.174.666.666,0,0,1,.927-.174" fill="#fff"/>
          <path id="Path_2551" data-name="Path 2551" d="M114.313,122.867a.53.53,0,1,1-.045-.031.511.511,0,0,1,.045.031" fill="#fff"/>
          <path id="Path_2552" data-name="Path 2552" d="M121.065,132.047c.877.576-.066,1.946-.892,1.3-.319-.251-.609-.441-.7-.86a.693.693,0,0,1,.541-.817l.024-.005a1.465,1.465,0,0,1,1.029.385" fill="#fff"/>
          <path id="Path_2553" data-name="Path 2553" d="M108.492,100.118a1.5,1.5,0,0,1-2.578-1.535c.02-.032.04-.064.062-.1a1.5,1.5,0,0,1,2.516,1.63" fill="#fff"/>
          <path id="Path_2554" data-name="Path 2554" d="M100.81,99.32a.607.607,0,1,1-.179-.84.606.606,0,0,1,.179.84" fill="#fff"/>
          <path id="Path_2555" data-name="Path 2555" d="M105.537,67.937a.665.665,0,0,1-1.131-.7l.015-.023a.665.665,0,0,1,1.131.7l-.015.023" fill="#fff"/>
          <path id="Path_2556" data-name="Path 2556" d="M105.272,79.836a.538.538,0,1,1,.026-.041c-.008.014-.017.028-.026.041" fill="#fff"/>
          <path id="Path_2557" data-name="Path 2557" d="M96.282,86.837c-.551.892-1.947-.013-1.322-.857.241-.324.424-.62.841-.724a.694.694,0,0,1,.832.52l0,.023a1.466,1.466,0,0,1-.357,1.038" fill="#fff"/>
          <path id="Path_2558" data-name="Path 2558" d="M121.576,106.119a.478.478,0,1,1-.664.123.478.478,0,0,1,.664-.123" fill="#fff"/>
          <path id="Path_2559" data-name="Path 2559" d="M136.727,99.683a.77.77,0,1,1-1.071.2.771.771,0,0,1,1.071-.2" fill="#fff"/>
          <path id="Path_2560" data-name="Path 2560" d="M214.423,65.009a.892.892,0,1,1-1.24.23.891.891,0,0,1,1.24-.23" fill="#fff"/>
          <path id="Path_2561" data-name="Path 2561" d="M221.391,115.677a.838.838,0,1,1-1.165.215.838.838,0,0,1,1.165-.215" fill="#fff"/>
          <path id="Path_2562" data-name="Path 2562" d="M224.112,132.1a.833.833,0,1,1-1.159.215.833.833,0,0,1,1.159-.215" fill="#fff"/>
          <path id="Path_2563" data-name="Path 2563" d="M208.863,121.515a.91.91,0,1,1-1.265.235.91.91,0,0,1,1.265-.235" fill="#fff"/>
          <path id="Path_2564" data-name="Path 2564" d="M230.995,119.653a.892.892,0,1,1-1.24.23.891.891,0,0,1,1.24-.23" fill="#fff"/>
          <path id="Path_2565" data-name="Path 2565" d="M237.67,52.04a.825.825,0,1,1-1.148.212.825.825,0,0,1,1.148-.212" fill="#fff"/>
          <path id="Path_2566" data-name="Path 2566" d="M190.741,95.3a.842.842,0,1,1-1.14.211.842.842,0,0,1,1.14-.211" fill="#fff"/>
          <path id="Path_2567" data-name="Path 2567" d="M191.673,103.1a.938.938,0,1,1-1.305.241.938.938,0,0,1,1.305-.241" fill="#fff"/>
          <path id="Path_2568" data-name="Path 2568" d="M241.686,103.594a17.33,17.33,0,0,0-.348,3.733,18.2,18.2,0,0,0,1.71,3.411,17.255,17.255,0,0,0-3.716-.5,16.408,16.408,0,0,0-3.317,1.6,17.331,17.331,0,0,0,.349-3.733,18.2,18.2,0,0,0-1.71-3.411,17.255,17.255,0,0,0,3.716.5,16.366,16.366,0,0,0,3.315-1.6" fill="#fff"/>
          <path id="Path_2569" data-name="Path 2569" d="M221.89,87.536a9.191,9.191,0,0,0-.186,1.985,9.7,9.7,0,0,0,.91,1.816,9.293,9.293,0,0,0-1.978-.265,8.74,8.74,0,0,0-1.764.85,9.259,9.259,0,0,0,.187-1.986,9.785,9.785,0,0,0-.911-1.815,9.175,9.175,0,0,0,1.979.264,8.786,8.786,0,0,0,1.763-.85" fill="#fff"/>
          <path id="Path_2570" data-name="Path 2570" d="M141.823,56.245a9.127,9.127,0,0,0-.185,1.985,9.7,9.7,0,0,0,.91,1.816,9.294,9.294,0,0,0-1.978-.265,8.744,8.744,0,0,0-1.764.851,9.258,9.258,0,0,0,.187-1.986,9.788,9.788,0,0,0-.912-1.815,9.175,9.175,0,0,0,1.979.264,8.786,8.786,0,0,0,1.763-.85" fill="#fff"/>
          <path id="Path_2571" data-name="Path 2571" d="M271.725,126.458a.834.834,0,1,1-1.159.215.834.834,0,0,1,1.159-.215" fill="#fff"/>
          <path id="Path_2572" data-name="Path 2572" d="M133.263,29.864a1.5,1.5,0,1,1-2,.369,1.5,1.5,0,0,1,2-.369" fill="#fff"/>
          <path id="Path_2573" data-name="Path 2573" d="M76.779,109.272a.938.938,0,1,1-1.305.242.939.939,0,0,1,1.305-.242" fill="#fff"/>
          <path id="Path_2574" data-name="Path 2574" d="M81.313,102.424a.913.913,0,0,1-.941,1.565.872.872,0,0,1-.094-.065.913.913,0,0,1,1.035-1.5" fill="#fff"/>
          <path id="Path_2575" data-name="Path 2575" d="M71.466,98.18a.825.825,0,1,1-1.147.212.825.825,0,0,1,1.147-.212" fill="#fff"/>
          <path id="Path_2576" data-name="Path 2576" d="M71.773,91.544a.478.478,0,1,1-.664.123.478.478,0,0,1,.664-.123" fill="#fff"/>
          <path id="Path_2577" data-name="Path 2577" d="M79.264,93.031a1.5,1.5,0,1,1-2,.369,1.5,1.5,0,0,1,2-.369" fill="#fff"/>
          <path id="Path_2578" data-name="Path 2578" d="M223.352,48.106c2.1,1.513-.1,4.715-2.2,3.2s.1-4.714,2.2-3.2" fill="#fff"/>
          <path id="Path_2579" data-name="Path 2579" d="M111.793,157.687a.838.838,0,1,1-1.165.215.837.837,0,0,1,1.165-.215" fill="#fff"/>
          <path id="Path_2580" data-name="Path 2580" d="M212.353,138.7a.838.838,0,1,1-1.141.212.837.837,0,0,1,1.141-.212" fill="#fff"/>
          <path id="Path_2581" data-name="Path 2581" d="M116.958,141.768a.834.834,0,1,1-1.159.215.834.834,0,0,1,1.159-.215" fill="#fff"/>
          <path id="Path_2582" data-name="Path 2582" d="M121.4,161.661a.892.892,0,1,1-1.241.229.893.893,0,0,1,1.241-.229" fill="#fff"/>
          <path id="Path_2583" data-name="Path 2583" d="M130.327,144.758c2.1,1.513-.1,4.715-2.2,3.2s.1-4.715,2.2-3.2" fill="#fff"/>
          <path id="Path_2584" data-name="Path 2584" d="M254.9,107.609a.837.837,0,1,1-1.165.215.838.838,0,0,1,1.165-.215" fill="#fff"/>
          <path id="Path_2585" data-name="Path 2585" d="M48.579,47.078a.907.907,0,1,1-1.161-.547.906.906,0,0,1,1.161.547" fill="#fff"/>
          <path id="Path_2586" data-name="Path 2586" d="M40.591,63.239a.9.9,0,1,1-1.155-.545.9.9,0,0,1,1.155.545" fill="#fff"/>
          <path id="Path_2587" data-name="Path 2587" d="M63.18,36.35a.9.9,0,1,1-1.155-.545.9.9,0,0,1,1.155.545" fill="#fff"/>
          <path id="Path_2588" data-name="Path 2588" d="M47.113,136.77a3.467,3.467,0,0,1,.5,1.1,2.175,2.175,0,0,1-1.266,2.724,2.066,2.066,0,0,1-2.616-1.3l-.008-.025a3.514,3.514,0,0,1-.266-1.187,2.153,2.153,0,0,1,1.341-2.1,2.037,2.037,0,0,1,2.312.791" fill="#fff"/>
          <path id="Path_2589" data-name="Path 2589" d="M39.41,91.895a.907.907,0,1,1-1.7.642.249.249,0,0,1-.011-.029.907.907,0,1,1,1.7-.642.249.249,0,0,1,.011.029" fill="#fff"/>
          <path id="Path_2590" data-name="Path 2590" d="M77.375,125.169c.88,2.623-3.027,4.028-3.907,1.4s3.027-4.028,3.907-1.4" fill="#fff"/>
          <path id="Path_2591" data-name="Path 2591" d="M84.362,86.86a.947.947,0,1,1-1.212-.571.948.948,0,0,1,1.212.571" fill="#fff"/>
          <path id="Path_2592" data-name="Path 2592" d="M153.031,123.948c2.219,1.6-.1,4.976-2.323,3.38s.106-4.976,2.323-3.38" fill="#fff"/>
          <path id="Path_2593" data-name="Path 2593" d="M164.371,152.627a.842.842,0,1,1-1.139.211.841.841,0,0,1,1.139-.211" fill="#fff"/>
          <path id="Path_2594" data-name="Path 2594" d="M174.578,143.7A1.5,1.5,0,0,1,172,142.169c.02-.032.04-.064.062-.1a1.5,1.5,0,0,1,2.516,1.63" fill="#fff"/>
          <path id="Path_2595" data-name="Path 2595" d="M166.9,142.9a.607.607,0,1,1-.18-.839.606.606,0,0,1,.18.839" fill="#fff"/>
          <path id="Path_2596" data-name="Path 2596" d="M162.369,130.421c-.552.892-1.949-.013-1.322-.857.241-.323.424-.619.84-.724a.694.694,0,0,1,.831.522l.005.022a1.456,1.456,0,0,1-.355,1.037" fill="#fff"/>
          <path id="Path_2597" data-name="Path 2597" d="M147.4,146.008a.913.913,0,1,1-.933,1.57.865.865,0,0,1-.1-.07.913.913,0,0,1,1.034-1.5" fill="#fff"/>
          <path id="Path_2598" data-name="Path 2598" d="M145.348,136.615a1.5,1.5,0,0,1-1.621,2.524c-.027-.017-.053-.035-.079-.054a1.5,1.5,0,0,1,1.7-2.47" fill="#fff"/>
          <path id="Path_2599" data-name="Path 2599" d="M150.45,130.445a.947.947,0,1,1-1.212-.571.948.948,0,0,1,1.212.571" fill="#fff"/>
          <path id="Path_2600" data-name="Path 2600" d="M52.7,26.558a1.007,1.007,0,0,1-.286,1.395.914.914,0,0,1-1.4-.522.975.975,0,0,1-.046-.252c0-.523-.1-1.165.5-1.381s.911.348,1.223.76" fill="#fff"/>
          <path id="Path_2601" data-name="Path 2601" d="M62.893,87.489a10,10,0,0,0-1.419,1.628,10.489,10.489,0,0,0-.346,2.17,9.891,9.891,0,0,0-1.572-1.482,9.426,9.426,0,0,0-2.088-.368,10.045,10.045,0,0,0,1.419-1.628,10.5,10.5,0,0,0,.346-2.171,9.934,9.934,0,0,0,1.572,1.482,9.482,9.482,0,0,0,2.088.367" fill="#fff"/>
          <path id="Path_2602" data-name="Path 2602" d="M54.51,56.642a.965.965,0,1,1-1.235-.582.965.965,0,0,1,1.235.582" fill="#fff"/>
          <path id="Path_2603" data-name="Path 2603" d="M83.138,59.932a.893.893,0,1,1-1.1-.521.893.893,0,0,1,1.1.521" fill="#fff"/>
          <path id="Path_2604" data-name="Path 2604" d="M54.094,107.782a18.8,18.8,0,0,0-2.665,3.06,19.689,19.689,0,0,0-.652,4.079,18.706,18.706,0,0,0-2.953-2.783,17.718,17.718,0,0,0-3.93-.692,18.678,18.678,0,0,0,2.666-3.06,19.69,19.69,0,0,0,.652-4.079,18.749,18.749,0,0,0,2.953,2.783,17.781,17.781,0,0,0,3.924.692" fill="#fff"/>
          <path id="Path_2605" data-name="Path 2605" d="M46.838,81.159a9.991,9.991,0,0,0-1.418,1.628,10.422,10.422,0,0,0-.347,2.171,10.051,10.051,0,0,0-1.57-1.481,9.426,9.426,0,0,0-2.088-.368,10.073,10.073,0,0,0,1.419-1.632,10.575,10.575,0,0,0,.346-2.172,9.934,9.934,0,0,0,1.572,1.482,9.544,9.544,0,0,0,2.087.368" fill="#fff"/>
          <path id="Path_2606" data-name="Path 2606" d="M66.045,146.859a.9.9,0,1,1-1.155-.545.9.9,0,0,1,1.155.545" fill="#fff"/>
          <path id="Path_2607" data-name="Path 2607" d="M73.039,47.426c.892,2.659-3.067,4.081-3.958,1.423s3.067-4.081,3.958-1.423" fill="#fff"/>
          <path id="Path_2608" data-name="Path 2608" d="M63.168,119.659a.923.923,0,1,1-.011-.029.249.249,0,0,1,.011.029" fill="#fff"/>
          <path id="Path_2609" data-name="Path 2609" d="M196.548,19.193a.679.679,0,1,1-.725,1.148.426.426,0,0,1-.044-.03.679.679,0,0,1,.769-1.118" fill="#fff"/>
          <path id="Path_2610" data-name="Path 2610" d="M244.087,185.982c-4.9-15.208-41.541-30.633-54.018-36.307a43.219,43.219,0,0,0-10.421-3.458,4.8,4.8,0,0,0-1.538-.36c-2.246-.07-11.245-.244-21.686-.441-.552-.018-1.1-.027-1.665-.044-1.624-.025-3.29-.06-4.963-.093-1.926-.044-3.861-.078-5.777-.112-1.239-.021-2.458-.053-3.668-.074-.958-.023-1.906-.035-2.845-.058-9.783-.193-18.028-.367-20.157-.421-.134-.005-.266.012-.4.014-4.536-.261-9.709,1.351-16.891,5.993-11.511,7.439-45.5,28.065-48.117,43.826C47.878,218.9,76.3,232.557,89.8,224.813a17,17,0,0,0,2.407-1.759q-.511,3.554-1.028,7.162c-4.775,33.352-9.568,68.5-9.591,68.668.033.011,3.187,1.087,8.23,2.678,11.655,3.671,33.391,10.087,50.042,12.391l.331.045c.223.031.437.061.651.083s.409.062.612.083c2.75.342,5.34.563,7.692.63,6.7.184,15.744-1.492,24.662-3.741,8.563-2.169,17-4.865,23.129-6.952,5.643-1.923,9.312-3.328,9.312-3.328.878-7.247-1.028-32.49-3.274-57v-.009c-.122-1.436-.253-2.862-.384-4.289-.178-1.869-.353-3.729-.529-5.569-.691-7.214-1.376-14.124-1.989-20.242,4.443,3.927,8.336,6.854,11,7.9,14.485,5.683,40.606-11.99,33.006-35.583" fill="#ffccc9"/>
          <path id="Path_2611" data-name="Path 2611" d="M244.087,185.982c-4.9-15.208-41.541-30.633-54.018-36.307a43.219,43.219,0,0,0-10.421-3.458,4.8,4.8,0,0,0-1.538-.36c-2.246-.07-11.245-.244-21.686-.441-.552-.018-1.1-.027-1.665-.044-1.624-.025-3.29-.06-4.963-.093-1.926-.044-3.861-.078-5.777-.112-1.239-.021-2.458-.053-3.668-.074-.958-.023-1.906-.035-2.845-.058-9.783-.193-18.028-.367-20.157-.421-.134-.005-.266.012-.4.014-4.536-.261-9.709,1.351-16.891,5.993-11.511,7.439-45.5,28.065-48.117,43.826C47.878,218.9,76.3,232.557,89.8,224.813a17,17,0,0,0,2.407-1.759q-.511,3.554-1.028,7.162c-4.775,33.352-9.568,68.5-9.591,68.668.033.011,3.187,1.087,8.23,2.678,11.655,3.671,33.391,10.087,50.042,12.391l.331.045c.223.031.437.061.651.083s.409.062.612.083c2.75.342,5.34.563,7.692.63,6.7.184,15.744-1.492,24.662-3.741,8.563-2.169,17-4.865,23.129-6.952,5.643-1.923,9.312-3.328,9.312-3.328.878-7.247-1.028-32.49-3.274-57v-.009c-.122-1.436-.253-2.862-.384-4.289-.178-1.869-.353-3.729-.529-5.569-.691-7.214-1.376-14.124-1.989-20.242,4.443,3.927,8.336,6.854,11,7.9C225.566,227.248,251.687,209.575,244.087,185.982Z" fill="none" stroke="#000" stroke-miterlimit="10" stroke-width="1"/>
          <path id="Path_2612" data-name="Path 2612" d="M209.994,187.845c7.972-9.21,20.131-11.745,27.156-5.665s7.811,18.681-.16,27.892-21.683,11.543-28.708,5.46-6.259-18.477,1.712-27.687" fill="#101c3a"/>
          <path id="Path_2613" data-name="Path 2613" d="M232.917,211.792c-5.41,5.348-4.708,4.559-11.005,4.322-3.285-.125-10.062-2.97-12.136-4.765-7.025-6.081-7.752-14.293.219-23.5a25.992,25.992,0,0,1,13.454-8.455c9.808,9.436,20.213,21.779,9.468,32.4" fill="#f8a3a2"/>
          <path id="Path_2614" data-name="Path 2614" d="M232.917,211.792c-5.41,5.348-4.708,4.559-11.005,4.322-3.285-.125-10.062-2.97-12.136-4.765-7.025-6.081-7.752-14.293.219-23.5a25.992,25.992,0,0,1,13.454-8.455c9.808,9.436,20.213,21.779,9.468,32.4" fill="none" stroke="#000" stroke-miterlimit="10" stroke-width="1"/>
          <path id="Path_2615" data-name="Path 2615" d="M156.863,129.706l-.079,2.89-.026,1-.54,19.278c-2.628,3.1-11.813,24.665-11.813,24.665s-5.954-23.328-7.107-25.145l.209-7.736.227-8.163.009-.218c1.868-.533,3.624-1.066,5.256-1.58,8.714-2.75,13.865-4.994,13.865-4.994" fill="#f8a3a2"/>
          <path id="Path_2616" data-name="Path 2616" d="M156.863,129.706l-.079,2.89-.026,1-.54,19.278c-2.628,3.1-11.813,24.665-11.813,24.665s-5.954-23.328-7.107-25.145l.209-7.736.227-8.163.009-.218c1.868-.533,3.624-1.066,5.256-1.58,8.714-2.75,13.865-4.994,13.865-4.994" fill="none" stroke="#000" stroke-miterlimit="10" stroke-width="1"/>
          <path id="Path_2617" data-name="Path 2617" d="M156.784,132.6,143,134.7l-5.265,1.8-.227,6.417a7.89,7.89,0,0,0,4.383-.061c4.862-1.2,10.477-5.864,13.236-8.665Z" fill="#101c3a"/>
          <rect id="Rectangle_418" data-name="Rectangle 418" width="0.965" height="33.15" transform="translate(173.518 186.388) rotate(-42.773)" fill="#dba2a1"/>
          <rect id="Rectangle_419" data-name="Rectangle 419" width="0.965" height="33.15" transform="translate(173.518 186.388) rotate(-42.773)" fill="none" stroke="#000" stroke-miterlimit="10" stroke-width="1"/>
          <path id="Path_2618" data-name="Path 2618" d="M85.939,191.3c-9.236-7.943-21.633-8.669-27.693-1.626s-4.99,19.624,4.245,27.567,23.139,8.242,29.2,1.2,3.486-19.194-5.749-27.137" fill="#101c3a"/>
          <path id="Path_2619" data-name="Path 2619" d="M66.772,218.344c6.136,4.5,5.325,3.822,11.52,2.664,3.232-.6,9.518-4.412,11.306-6.492,6.059-7.043,5.576-15.274-3.658-23.217A26,26,0,0,0,71.393,184.9c-8.32,10.772-16.8,24.505-4.621,33.439" fill="#f8a3a2"/>
          <path id="Path_2620" data-name="Path 2620" d="M66.772,218.344c6.136,4.5,5.325,3.822,11.52,2.664,3.232-.6,9.518-4.412,11.306-6.492,6.059-7.043,5.576-15.274-3.658-23.217A26,26,0,0,0,71.393,184.9c-8.32,10.772-16.8,24.505-4.621,33.439" fill="none" stroke="#000" stroke-miterlimit="10" stroke-width="1"/>
          <path id="Path_2621" data-name="Path 2621" d="M35.454,142.768c1.262-2.312.87-5.273,3.286-6.855a13.247,13.247,0,0,0,3.779-4,38.444,38.444,0,0,1-9.443-8.471c-1.867-2.6-.093-3.445,1.264-2.567,3.085,1.991,10.743,5.645,14.048,8.561a.466.466,0,0,1,.075.085c2.594,1.684,8.759,10.829,9.432,12.872,1.005,3.048-.474,4.056,2.235,11.659,3.213,13.4,27.2,44.992,28.5,50.043,4.162,16.211-21.218,24.982-29.315,11-6.451-11.142-9.99-43.813-9.8-56.683h-.01c.109-6.7-7.348-5.132-10.261-7.584s-5.046-5.742-3.785-8.054" fill="#f8a3a2"/>
          <path id="Path_2622" data-name="Path 2622" d="M35.454,142.768c1.262-2.312.87-5.273,3.286-6.855a13.247,13.247,0,0,0,3.779-4,38.444,38.444,0,0,1-9.443-8.471c-1.867-2.6-.093-3.445,1.264-2.567,3.085,1.991,10.743,5.645,14.048,8.561a.466.466,0,0,1,.075.085c2.594,1.684,8.759,10.829,9.432,12.872,1.005,3.048-.474,4.056,2.235,11.659,3.213,13.4,27.2,44.992,28.5,50.043,4.162,16.211-21.218,24.982-29.315,11-6.451-11.142-9.99-43.813-9.8-56.683h-.01c.109-6.7-7.348-5.132-10.261-7.584s-5.046-5.742-3.785-8.054" fill="none" stroke="#000" stroke-miterlimit="10" stroke-width="1"/>
          <path id="Path_2623" data-name="Path 2623" d="M209.9,193.967c-.592-4.546,2-11.216,2.112-11.5l.813.319c-.026.067-2.623,6.744-2.059,11.066Z" fill="#d17f80"/>
          <path id="Path_2624" data-name="Path 2624" d="M209.9,193.967c-.592-4.546,2-11.216,2.112-11.5l.813.319c-.026.067-2.623,6.744-2.059,11.066Z" fill="none" stroke="#000" stroke-miterlimit="10" stroke-width="1"/>
          <rect id="Rectangle_420" data-name="Rectangle 420" width="41.621" height="0.873" transform="translate(99.104 215.26) rotate(-71.818)" fill="#dba2a1"/>
          <rect id="Rectangle_421" data-name="Rectangle 421" width="41.621" height="0.873" transform="translate(99.104 215.26) rotate(-71.818)" fill="none" stroke="#000" stroke-miterlimit="10" stroke-width="1"/>
          <path id="Path_2625" data-name="Path 2625" d="M135.218,137.037c4.952,2.4,17.274.123,21.5-3.406,1.506-1.258,3.334-5.67,3.7-8.053,1.15-7.478,2.406-14.154-1.741-18.407a31.019,31.019,0,0,0-9.238-5.551c-7.083-1.824-10.666,4.19-13.941,10.724-3.675,7.33-9.016,20.459-.284,24.693" fill="#f8a3a2"/>
          <path id="Path_2626" data-name="Path 2626" d="M135.218,137.037c4.952,2.4,17.274.123,21.5-3.406,1.506-1.258,3.334-5.67,3.7-8.053,1.15-7.478,2.406-14.154-1.741-18.407a31.019,31.019,0,0,0-9.238-5.551c-7.083-1.824-10.666,4.19-13.941,10.724-3.675,7.33-9.016,20.459-.284,24.693" fill="none" stroke="#000" stroke-miterlimit="10" stroke-width="1"/>
          <path id="Path_2627" data-name="Path 2627" d="M139.843,104.973c5.235-5.461,2.99,1.525,8.8,1.416,6.3-.118,11.946,4.361,10.227,8.668-3.309,8.294,1.023,5.034.278,6.77-3.084,7.181-1.739,11.045-1.739,11.045s12.3-4.54,14.361-15.565c1.464-7.849-6.029-13.513-11.839-19.784-6.866-7.411-19.74-5.219-20.084,7.449" fill="#101c3a"/>
          <path id="Path_2628" data-name="Path 2628" d="M139.843,104.973c5.235-5.461,2.99,1.525,8.8,1.416,6.3-.118,11.946,4.361,10.227,8.668-3.309,8.294,1.023,5.034.278,6.77-3.084,7.181-1.739,11.045-1.739,11.045s12.3-4.54,14.361-15.565c1.464-7.849-6.029-13.513-11.839-19.784-6.866-7.411-19.74-5.219-20.084,7.449" fill="none" stroke="#000" stroke-miterlimit="10" stroke-width="1"/>
          <path id="Path_2629" data-name="Path 2629" d="M137.591,123.875c-.583-.515-2.473-2.3-2.287-3.607a1.261,1.261,0,0,1,.75-.971,8.773,8.773,0,0,0,4.144-5.142,3.688,3.688,0,0,0-3.138-2.527l.148-1.1a4.775,4.775,0,0,1,4.113,3.516l.028.131-.033.131c-.046.174-1.157,4.286-4.787,6-.113.054-.118.093-.122.12-.069.486.938,1.744,1.921,2.615Z" fill="#101c3a"/>
          <path id="Path_2630" data-name="Path 2630" d="M156.481,124.386a5.144,5.144,0,1,0,6.89-2.335h0a5.144,5.144,0,0,0-6.889,2.335" fill="#f8a3a2"/>
          <path id="Path_2631" data-name="Path 2631" d="M156.481,124.386a5.144,5.144,0,1,0,6.89-2.335h0a5.144,5.144,0,0,0-6.889,2.335" fill="none" stroke="#000" stroke-miterlimit="10" stroke-width="1"/>
          <path id="Path_2632" data-name="Path 2632" d="M160.19,130.508a1.364,1.364,0,0,1-.149-.06,1.421,1.421,0,0,1-.76-.856,1.341,1.341,0,0,1,.622-1.637,1.123,1.123,0,0,0,.586-1.049,3.18,3.18,0,0,0-.4-1.361c-.316-.671-.8-1.685.685-2.409,1.991-.967,3.976,1.92,4.195,2.252l-.93.616c-.42-.632-1.828-2.332-2.775-1.865-.492.24-.492.24-.167.929a4.154,4.154,0,0,1,.507,1.832,2.2,2.2,0,0,1-1.02,1.937c-.3.234-.3.234-.248.4a.3.3,0,0,0,.17.2,1.963,1.963,0,0,0,1.226-.114l.413,1.038a3.219,3.219,0,0,1-1.956.149" fill="#101c3a"/>
          <path id="Path_2633" data-name="Path 2633" d="M160.19,130.508a1.364,1.364,0,0,1-.149-.06,1.421,1.421,0,0,1-.76-.856,1.341,1.341,0,0,1,.622-1.637,1.123,1.123,0,0,0,.586-1.049,3.18,3.18,0,0,0-.4-1.361c-.316-.671-.8-1.685.685-2.409,1.991-.967,3.976,1.92,4.195,2.252l-.93.616c-.42-.632-1.828-2.332-2.775-1.865-.492.24-.492.24-.167.929a4.154,4.154,0,0,1,.507,1.832,2.2,2.2,0,0,1-1.02,1.937c-.3.234-.3.234-.248.4a.3.3,0,0,0,.17.2,1.963,1.963,0,0,0,1.226-.114l.413,1.038a3.219,3.219,0,0,1-1.956.149" fill="none" stroke="#000" stroke-miterlimit="10" stroke-width="1"/>
          <path id="Path_2634" data-name="Path 2634" d="M133.856,128.462c-.113-.039-.181-.064-.2-.071l.39-1.045a18.9,18.9,0,0,0,7.562,1.009l.124,1.109a19.677,19.677,0,0,1-7.875-1" fill="#101c3a"/>
          <path id="Path_2635" data-name="Path 2635" d="M148.792,118.027c-2.739-3.713-4.523-2.731-4.54-2.721l-.6-.943c.106-.067,2.625-1.62,6.033,3Z" fill="#101c3a"/>
          <path id="Path_2636" data-name="Path 2636" d="M148.792,118.027c-2.739-3.713-4.523-2.731-4.54-2.721l-.6-.943c.106-.067,2.625-1.62,6.033,3Z" fill="none" stroke="#000" stroke-miterlimit="10" stroke-width="1"/>
          <path id="Path_2637" data-name="Path 2637" d="M147.118,119.276a1.333,1.333,0,1,1-.606-1.785,1.333,1.333,0,0,1,.606,1.785" fill="#101c3a"/>
          <path id="Path_2638" data-name="Path 2638" d="M147.118,119.276a1.333,1.333,0,1,1-.606-1.785,1.333,1.333,0,0,1,.606,1.785" fill="none" stroke="#000" stroke-miterlimit="10" stroke-width="1"/>
          <path id="Path_2639" data-name="Path 2639" d="M139.2,115.366a1.333,1.333,0,1,1-.605-1.785,1.333,1.333,0,0,1,.605,1.785" fill="#101c3a"/>
          <path id="Path_2640" data-name="Path 2640" d="M139.2,115.366a1.333,1.333,0,1,1-.605-1.785,1.333,1.333,0,0,1,.605,1.785" fill="none" stroke="#000" stroke-miterlimit="10" stroke-width="1"/>
          <path id="Path_2641" data-name="Path 2641" d="M152.84,122.391a7.9,7.9,0,0,1,5.643,3.868l3.251-4-4.2-9.583Z" fill="#390d9f"/>
          <path id="Path_2642" data-name="Path 2642" d="M152.84,122.391a7.9,7.9,0,0,1,5.643,3.868l3.251-4-4.2-9.583Z" fill="none" stroke="#000" stroke-miterlimit="10" stroke-width="1"/>
          <path id="Path_2643" data-name="Path 2643" d="M155.458,110.61,136.026,103.8a6.148,6.148,0,0,0-4.065,11.6l19.432,6.807a3.425,3.425,0,0,0,4.365-2.1l1.8-5.14a3.425,3.425,0,0,0-2.1-4.365"/>
          <path id="Path_2644" data-name="Path 2644" d="M155.458,110.61,136.026,103.8a6.148,6.148,0,0,0-4.065,11.6l19.432,6.807a3.425,3.425,0,0,0,4.365-2.1l1.8-5.14a3.425,3.425,0,0,0-2.1-4.365" fill="none" stroke="#000" stroke-miterlimit="10" stroke-width="1"/>
          <path id="Path_2645" data-name="Path 2645" d="M148.765,108.266l-13.6-4.764a5.239,5.239,0,0,0-6.675,3.212l-.6,1.719a5.237,5.237,0,0,0,3.211,6.674l13.6,4.764a5.237,5.237,0,0,0,6.675-3.21h0l.6-1.72a5.237,5.237,0,0,0-3.211-6.674" fill="#390d9f"/>
          <path id="Path_2646" data-name="Path 2646" d="M148.765,108.266l-13.6-4.764a5.239,5.239,0,0,0-6.675,3.212l-.6,1.719a5.237,5.237,0,0,0,3.211,6.674l13.6,4.764a5.237,5.237,0,0,0,6.675-3.21h0l.6-1.72a5.237,5.237,0,0,0-3.211-6.674" fill="none" stroke="#000" stroke-miterlimit="10" stroke-width="1"/>
          <path id="Path_2647" data-name="Path 2647" d="M146.494,108.626,135.97,104.94a.815.815,0,0,0-.54,1.538l10.524,3.687a.816.816,0,0,0,.54-1.539" fill="#fc721a"/>
          <path id="Path_2648" data-name="Path 2648" d="M146.494,108.626,135.97,104.94a.815.815,0,0,0-.54,1.538l10.524,3.687a.816.816,0,0,0,.54-1.539" fill="none" stroke="#000" stroke-miterlimit="10" stroke-width="1"/>
          <path id="Path_2649" data-name="Path 2649" d="M165.33,121.958l.35-1.055a7.217,7.217,0,0,0-2.491-2.049c-2.271-.858-5.278,1.539-6.717,5.352s-.765,7.6,1.505,8.455c.207.08,3.706.247,3.706.247l.573-1.721a10.882,10.882,0,0,0,2.438-3.877,10.352,10.352,0,0,0,.636-5.352"/>
          <path id="Path_2650" data-name="Path 2650" d="M165.33,121.958l.35-1.055a7.217,7.217,0,0,0-2.491-2.049c-2.271-.858-5.278,1.539-6.717,5.352s-.765,7.6,1.505,8.455c.207.08,3.706.247,3.706.247l.573-1.721a10.882,10.882,0,0,0,2.438-3.877,10.352,10.352,0,0,0,.636-5.352" fill="none" stroke="#000" stroke-miterlimit="10" stroke-width="1"/>
          <path id="Path_2651" data-name="Path 2651" d="M165.681,120.9c-2.271-.857-5.114,1.1-6.351,4.382s-.4,6.628,1.871,7.486,5.115-1.1,6.352-4.382.4-6.629-1.872-7.486" fill="#390d9f"/>
          <path id="Path_2652" data-name="Path 2652" d="M165.681,120.9c-2.271-.857-5.114,1.1-6.351,4.382s-.4,6.628,1.871,7.486,5.115-1.1,6.352-4.382.4-6.629-1.872-7.486" fill="none" stroke="#000" stroke-miterlimit="10" stroke-width="1"/>
          <path id="Path_2653" data-name="Path 2653" d="M165.225,123.906c-.963-.364-2.17.469-2.7,1.86s-.17,2.813.794,3.176,2.17-.469,2.7-1.86.17-2.813-.794-3.176" fill="#fc721a"/>
          <path id="Path_2654" data-name="Path 2654" d="M165.225,123.906c-.963-.364-2.17.469-2.7,1.86s-.17,2.813.794,3.176,2.17-.469,2.7-1.86.17-2.813-.794-3.176" fill="none" stroke="#000" stroke-miterlimit="10" stroke-width="1"/>
          <path id="Path_2655" data-name="Path 2655" d="M166.555,124.221,163.8,123.18a.768.768,0,0,0-.543,1.436l2.757,1.04a.767.767,0,0,0,.541-1.435" fill="#fc721a"/>
          <path id="Path_2656" data-name="Path 2656" d="M166.555,124.221,163.8,123.18a.768.768,0,0,0-.543,1.436l2.757,1.04a.767.767,0,0,0,.541-1.435" fill="none" stroke="#000" stroke-miterlimit="10" stroke-width="1"/>
          <path id="Path_2657" data-name="Path 2657" d="M242.27,130.358c-1.8-1.924-2.158-4.888-4.892-5.819a13.237,13.237,0,0,1-4.658-2.934,38.472,38.472,0,0,0,7.032-10.56c1.157-2.986-.769-3.358-1.865-2.171-2.491,2.7-8.994,8.147-11.469,11.794a.472.472,0,0,0-.051.1c-2.093,2.278-5.782,12.67-5.924,14.817-.213,3.2,1.471,3.811.743,11.848.229,13.775-15.119,50.354-15.116,55.567.013,16.738,26.777,18.9,31.13,3.339,3.469-12.4-1.251-44.921-4.643-57.337h.01c-1.774-6.457,5.837-6.8,8.045-9.9s3.455-6.82,1.658-8.743" fill="#f8a3a2"/>
          <path id="Path_2658" data-name="Path 2658" d="M242.27,130.358c-1.8-1.924-2.158-4.888-4.892-5.819a13.237,13.237,0,0,1-4.658-2.934,38.472,38.472,0,0,0,7.032-10.56c1.157-2.986-.769-3.358-1.865-2.171-2.491,2.7-8.994,8.147-11.469,11.794a.472.472,0,0,0-.051.1c-2.093,2.278-5.782,12.67-5.924,14.817-.213,3.2,1.471,3.811.743,11.848.229,13.775-15.119,50.354-15.116,55.567.013,16.738,26.777,18.9,31.13,3.339,3.469-12.4-1.251-44.921-4.643-57.337h.01c-1.774-6.457,5.837-6.8,8.045-9.9s3.455-6.82,1.658-8.743" fill="none" stroke="#000" stroke-miterlimit="10" stroke-width="1"/>
          <path id="Path_2659" data-name="Path 2659" d="M68.384,25.672a17.6,17.6,0,1,0,24.025,6.506,17.6,17.6,0,0,0-24.025-6.506l0,0" fill="#ee5064"/>
          <path id="Path_2660" data-name="Path 2660" d="M68.384,25.672a17.6,17.6,0,1,0,24.025,6.506,17.6,17.6,0,0,0-24.025-6.506l0,0" fill="none" stroke="#000" stroke-miterlimit="10" stroke-width="1"/>
          <path id="Path_2661" data-name="Path 2661" d="M87.658,33.2c-.973.559-1.093,2.178-.267,3.617s2.285,2.153,3.258,1.6,1.092-2.178.266-3.617-2.284-2.154-3.257-1.6" fill="#fff"/>
          <path id="Path_2662" data-name="Path 2662" d="M87.658,33.2c-.973.559-1.093,2.178-.267,3.617s2.285,2.153,3.258,1.6,1.092-2.178.266-3.617-2.284-2.154-3.257-1.6" fill="none" stroke="#000" stroke-miterlimit="10" stroke-width="1"/>
          <path id="Path_2663" data-name="Path 2663" d="M66.47,40.835c-2.948,1.692-3.7,5.912-1.688,9.425s6.04,4.99,8.989,3.3,3.7-5.912,1.688-9.425-6.04-4.99-8.989-3.3" fill="#fff"/>
          <path id="Path_2664" data-name="Path 2664" d="M66.47,40.835c-2.948,1.692-3.7,5.912-1.688,9.425s6.04,4.99,8.989,3.3,3.7-5.912,1.688-9.425-6.04-4.99-8.989-3.3" fill="none" stroke="#000" stroke-miterlimit="10" stroke-width="1"/>
          <path id="Path_2665" data-name="Path 2665" d="M77.136,53.09a2.213,2.213,0,1,0,2.833,1.33,2.265,2.265,0,0,0-.162-.35,2.026,2.026,0,0,0-2.671-.98" fill="#fff"/>
          <path id="Path_2666" data-name="Path 2666" d="M77.136,53.09a2.213,2.213,0,1,0,2.833,1.33,2.265,2.265,0,0,0-.162-.35,2.026,2.026,0,0,0-2.671-.98" fill="none" stroke="#000" stroke-miterlimit="10" stroke-width="1"/>
          <path id="Path_2667" data-name="Path 2667" d="M61.187,39.443c-.486.279-.541,1.1-.122,1.826s1.153,1.1,1.639.817.541-1.1.123-1.827-1.153-1.1-1.639-.816" fill="#fff"/>
          <path id="Path_2668" data-name="Path 2668" d="M61.187,39.443c-.486.279-.541,1.1-.122,1.826s1.153,1.1,1.639.817.541-1.1.123-1.827-1.153-1.1-1.639-.816" fill="none" stroke="#000" stroke-miterlimit="10" stroke-width="1"/>
          <path id="Path_2669" data-name="Path 2669" d="M86.583,29.29c-.486.279-.541,1.1-.122,1.826s1.153,1.1,1.639.817.541-1.1.123-1.827-1.153-1.1-1.639-.816" fill="#fff"/>
          <path id="Path_2670" data-name="Path 2670" d="M86.583,29.29c-.486.279-.541,1.1-.122,1.826s1.153,1.1,1.639.817.541-1.1.123-1.827-1.153-1.1-1.639-.816" fill="none" stroke="#000" stroke-miterlimit="10" stroke-width="1"/>
          <path id="Path_2671" data-name="Path 2671" d="M86.079,50.27a1.177,1.177,0,1,0,1.607.435,1.178,1.178,0,0,0-1.607-.435" fill="#fff"/>
          <path id="Path_2672" data-name="Path 2672" d="M86.079,50.27a1.177,1.177,0,1,0,1.607.435,1.178,1.178,0,0,0-1.607-.435" fill="none" stroke="#000" stroke-miterlimit="10" stroke-width="1"/>
          <path id="Path_2673" data-name="Path 2673" d="M75.284,25.238a.564.564,0,1,0,.771.209.564.564,0,0,0-.771-.209" fill="#fff"/>
          <path id="Path_2674" data-name="Path 2674" d="M75.284,25.238a.564.564,0,1,0,.771.209.564.564,0,0,0-.771-.209" fill="none" stroke="#000" stroke-miterlimit="10" stroke-width="1"/>
          <path id="Path_2675" data-name="Path 2675" d="M90.74,41.515a.564.564,0,1,0,.771.208.564.564,0,0,0-.771-.208h0" fill="#101c3a"/>
          <path id="Path_2676" data-name="Path 2676" d="M90.74,41.515a.564.564,0,1,0,.771.208.564.564,0,0,0-.771-.208h0" fill="none" stroke="#000" stroke-miterlimit="10" stroke-width="1"/>
          <path id="Path_2677" data-name="Path 2677" d="M64.045,39.265a.565.565,0,1,0,.771.211h0a.565.565,0,0,0-.77-.21" fill="#fff"/>
          <path id="Path_2678" data-name="Path 2678" d="M64.045,39.265a.565.565,0,1,0,.771.211h0a.565.565,0,0,0-.77-.21" fill="none" stroke="#000" stroke-miterlimit="10" stroke-width="1"/>
          <path id="Path_2679" data-name="Path 2679" d="M74.78,53.792a.564.564,0,1,0,.77.208.564.564,0,0,0-.77-.208" fill="#fff"/>
          <path id="Path_2680" data-name="Path 2680" d="M74.78,53.792a.564.564,0,1,0,.77.208.564.564,0,0,0-.77-.208" fill="none" stroke="#000" stroke-miterlimit="10" stroke-width="1"/>
          <path id="Path_2681" data-name="Path 2681" d="M110.554,28.958a3.967,3.967,0,0,1,.025,2.052,6.088,6.088,0,0,1-.645,1.6,13.175,13.175,0,0,1-1.765,2.318,28.347,28.347,0,0,1-4.033,3.408,71.343,71.343,0,0,1-8.549,5.182c-.737.375-1.467.746-2.208,1.114-.641.311-1.293.619-1.938.922A144.061,144.061,0,0,1,78,50.906a133.511,133.511,0,0,1-12.892,3.589c-.3.065-.585.125-.873.186-1.312.286-2.633.54-3.952.764a59.67,59.67,0,0,1-8.949.85,22.446,22.446,0,0,1-4.577-.374,9.774,9.774,0,0,1-2.391-.78,5.434,5.434,0,0,1-1.225-.858,3.693,3.693,0,0,1-.968-1.588,3.9,3.9,0,0,1-.037-1.874,5.862,5.862,0,0,1,.554-1.441,10.147,10.147,0,0,1,1.569-2.044,22.656,22.656,0,0,1,3.583-3.017,61.015,61.015,0,0,1,7.877-4.583c1.011-.495,2.032-.956,3.056-1.411a15.106,15.106,0,0,0-.166,1.686q-1.1.619-2.207,1.266a59.7,59.7,0,0,0-7.41,4.9,23.858,23.858,0,0,0-3.155,2.915,7.38,7.38,0,0,0-1.146,1.62,1.669,1.669,0,0,0-.246,1.2,1.682,1.682,0,0,0,.894.745,7.379,7.379,0,0,0,1.8.481,20.825,20.825,0,0,0,4.1.183,56.361,56.361,0,0,0,8.537-1.071c.772-.148,1.552-.3,2.324-.466.1-.017.186-.04.277-.064A127.768,127.768,0,0,0,77.034,47.57a135.02,135.02,0,0,0,14.9-5.961c.623-.29,1.243-.589,1.861-.906.151-.068.306-.147.453-.222a69.435,69.435,0,0,0,8.264-4.751,27.556,27.556,0,0,0,3.675-2.956,9.191,9.191,0,0,0,1.4-1.649,2.055,2.055,0,0,0,.4-1.266,1.635,1.635,0,0,0-.942-.878,8.518,8.518,0,0,0-2.006-.592,25.376,25.376,0,0,0-4.583-.3,66.546,66.546,0,0,0-9.386.919c-.532.087-1.052.175-1.583.261a16.145,16.145,0,0,0-1.3-1.333c.863-.239,1.732-.451,2.6-.656a63.817,63.817,0,0,1,9.626-1.563,23.825,23.825,0,0,1,5.044.077,9.952,9.952,0,0,1,2.657.665,5.279,5.279,0,0,1,1.366.854,3.592,3.592,0,0,1,1.067,1.645" fill="#fb847d"/>
          <path id="Path_2682" data-name="Path 2682" d="M110.554,28.958a3.967,3.967,0,0,1,.025,2.052,6.088,6.088,0,0,1-.645,1.6,13.175,13.175,0,0,1-1.765,2.318,28.347,28.347,0,0,1-4.033,3.408,71.343,71.343,0,0,1-8.549,5.182c-.737.375-1.467.746-2.208,1.114-.641.311-1.293.619-1.938.922A144.061,144.061,0,0,1,78,50.906a133.511,133.511,0,0,1-12.892,3.589c-.3.065-.585.125-.873.186-1.312.286-2.633.54-3.952.764a59.67,59.67,0,0,1-8.949.85,22.446,22.446,0,0,1-4.577-.374,9.774,9.774,0,0,1-2.391-.78,5.434,5.434,0,0,1-1.225-.858,3.693,3.693,0,0,1-.968-1.588,3.9,3.9,0,0,1-.037-1.874,5.862,5.862,0,0,1,.554-1.441,10.147,10.147,0,0,1,1.569-2.044,22.656,22.656,0,0,1,3.583-3.017,61.015,61.015,0,0,1,7.877-4.583c1.011-.495,2.032-.956,3.056-1.411a15.106,15.106,0,0,0-.166,1.686q-1.1.619-2.207,1.266a59.7,59.7,0,0,0-7.41,4.9,23.858,23.858,0,0,0-3.155,2.915,7.38,7.38,0,0,0-1.146,1.62,1.669,1.669,0,0,0-.246,1.2,1.682,1.682,0,0,0,.894.745,7.379,7.379,0,0,0,1.8.481,20.825,20.825,0,0,0,4.1.183,56.361,56.361,0,0,0,8.537-1.071c.772-.148,1.552-.3,2.324-.466.1-.017.186-.04.277-.064A127.768,127.768,0,0,0,77.034,47.57a135.02,135.02,0,0,0,14.9-5.961c.623-.29,1.243-.589,1.861-.906.151-.068.306-.147.453-.222a69.435,69.435,0,0,0,8.264-4.751,27.556,27.556,0,0,0,3.675-2.956,9.191,9.191,0,0,0,1.4-1.649,2.055,2.055,0,0,0,.4-1.266,1.635,1.635,0,0,0-.942-.878,8.518,8.518,0,0,0-2.006-.592,25.376,25.376,0,0,0-4.583-.3,66.546,66.546,0,0,0-9.386.919c-.532.087-1.052.175-1.583.261a16.145,16.145,0,0,0-1.3-1.333c.863-.239,1.732-.451,2.6-.656a63.817,63.817,0,0,1,9.626-1.563,23.825,23.825,0,0,1,5.044.077,9.952,9.952,0,0,1,2.657.665,5.279,5.279,0,0,1,1.366.854,3.592,3.592,0,0,1,1.067,1.645" fill="none" stroke="#000" stroke-miterlimit="10" stroke-width="1"/>
          <path id="Path_2683" data-name="Path 2683" d="M248.644,13.892a17.388,17.388,0,0,0-19.02,1.845,15.953,15.953,0,0,0-5.375,17.107,15.238,15.238,0,0,0,5.275,7.37,16.493,16.493,0,0,0,9.281,3.27,17.586,17.586,0,0,0,2.626-.094,17.151,17.151,0,0,0,14.564-12.1,15.19,15.19,0,0,0-.794-10.4,15.434,15.434,0,0,0-6.556-6.993" fill="#a62973"/>
          <path id="Path_2684" data-name="Path 2684" d="M248.644,13.892a17.388,17.388,0,0,0-19.02,1.845,15.953,15.953,0,0,0-5.375,17.107,15.238,15.238,0,0,0,5.275,7.37,16.493,16.493,0,0,0,9.281,3.27,17.586,17.586,0,0,0,2.626-.094,17.151,17.151,0,0,0,14.564-12.1,15.19,15.19,0,0,0-.794-10.4,15.434,15.434,0,0,0-6.556-6.993" fill="none" stroke="#000" stroke-miterlimit="10" stroke-width="1"/>
          <path id="Path_2685" data-name="Path 2685" d="M233.222,17.627c-.164-.13.008-.108-.245-.113a8.572,8.572,0,0,0-1.073.625c-.158.1-1.028.843-1.311.806a7.48,7.48,0,0,0-.38-1.93c-.088-.211-.062-.241-.3-.146a2.564,2.564,0,0,0-.817.847c-.325.477-.208.75-.329,1.25-.058.237-.256.4-.271.651l-.274.329c-.007.23-.382.444-.472.665a3.241,3.241,0,0,0-.043.973,2.634,2.634,0,0,1-.321,1.215,5.956,5.956,0,0,0-.66,2.465c-.026.551-.039,1.1-.053,1.655a2.729,2.729,0,0,1-.427,1.123c-.216.431-.348.894-.534,1.333a8.2,8.2,0,0,0-.393.944c-.085.3-.016.643-.1.941a1.7,1.7,0,0,1-.52.646c-.17.161-.346.3-.525.447a15,15,0,0,0,3.951,6.613c.215-.182.413-.376.574-.543a2.911,2.911,0,0,0,.574-1.274c.211-.668.514-1.285.779-1.93.249-.6.563-1.176.8-1.789a3,3,0,0,0,.137-1.69c-.138-.55-.539-1-.639-1.55a1.744,1.744,0,0,1-.014-.632c.181-1.075,1.217-.744,1.957-1.2.424-.26.276-.783.245-1.183-.034-.443.268-.609.39-.995a1.19,1.19,0,0,0-.029-.922c-.167-.3-.518-.447-.735-.675a3.406,3.406,0,0,0,1.034-.557c-.034-.534-.952-.586-1-1.043a3.923,3.923,0,0,0,.839-.788,2.635,2.635,0,0,0,.335-.85,5.08,5.08,0,0,1,.249-1.366c.3-.594.592-1.2.115-1.718a5.538,5.538,0,0,0-.5-.633" fill="#fff"/>
          <path id="Path_2686" data-name="Path 2686" d="M233.222,17.627c-.164-.13.008-.108-.245-.113a8.572,8.572,0,0,0-1.073.625c-.158.1-1.028.843-1.311.806a7.48,7.48,0,0,0-.38-1.93c-.088-.211-.062-.241-.3-.146a2.564,2.564,0,0,0-.817.847c-.325.477-.208.75-.329,1.25-.058.237-.256.4-.271.651l-.274.329c-.007.23-.382.444-.472.665a3.241,3.241,0,0,0-.043.973,2.634,2.634,0,0,1-.321,1.215,5.956,5.956,0,0,0-.66,2.465c-.026.551-.039,1.1-.053,1.655a2.729,2.729,0,0,1-.427,1.123c-.216.431-.348.894-.534,1.333a8.2,8.2,0,0,0-.393.944c-.085.3-.016.643-.1.941a1.7,1.7,0,0,1-.52.646c-.17.161-.346.3-.525.447a15,15,0,0,0,3.951,6.613c.215-.182.413-.376.574-.543a2.911,2.911,0,0,0,.574-1.274c.211-.668.514-1.285.779-1.93.249-.6.563-1.176.8-1.789a3,3,0,0,0,.137-1.69c-.138-.55-.539-1-.639-1.55a1.744,1.744,0,0,1-.014-.632c.181-1.075,1.217-.744,1.957-1.2.424-.26.276-.783.245-1.183-.034-.443.268-.609.39-.995a1.19,1.19,0,0,0-.029-.922c-.167-.3-.518-.447-.735-.675a3.406,3.406,0,0,0,1.034-.557c-.034-.534-.952-.586-1-1.043a3.923,3.923,0,0,0,.839-.788,2.635,2.635,0,0,0,.335-.85,5.08,5.08,0,0,1,.249-1.366c.3-.594.592-1.2.115-1.718a5.538,5.538,0,0,0-.5-.633" fill="none" stroke="#000" stroke-miterlimit="10" stroke-width="1"/>
          <path id="Path_2687" data-name="Path 2687" d="M243.376,12.227c-.287.228-.447.563-.734.774-.188.14-.374.2-.559.353a5.709,5.709,0,0,1-2.4,1.328,7.214,7.214,0,0,0-1.991.839c-.4.241-.277.654-.51.957l-.757.152a15.847,15.847,0,0,1-.407,1.852,4,4,0,0,0-.014.41,3.164,3.164,0,0,1-.3.938,1.026,1.026,0,0,0-.109.608c.11.616,1,1.231,1.431,1.637.166.159.4.283.354.53a.761.761,0,0,0,.477-.057c.221-.113.2-.361.371-.465.412-.257,1.2.531,1.533.66a1.691,1.691,0,0,0,1.13-.084,1.1,1.1,0,0,1,.51-.158c.179-.006.365-.016.544-.009.382.013.927.235,1.3.123.61-.182.779-1.122.94-1.617.155-.471.587-.357,1.061-.361.62-.006,1.252.018,1.873.054a3.687,3.687,0,0,0,1.582-.032,1.733,1.733,0,0,0,.931-1.374c.525-.084,1.191.139,1.609-.245a3.234,3.234,0,0,0,.719-1.658c.066-.294.121-.6.162-.909a16.059,16.059,0,0,0-8.629-4.338l-.114.092" fill="#fff"/>
          <path id="Path_2688" data-name="Path 2688" d="M243.376,12.227c-.287.228-.447.563-.734.774-.188.14-.374.2-.559.353a5.709,5.709,0,0,1-2.4,1.328,7.214,7.214,0,0,0-1.991.839c-.4.241-.277.654-.51.957l-.757.152a15.847,15.847,0,0,1-.407,1.852,4,4,0,0,0-.014.41,3.164,3.164,0,0,1-.3.938,1.026,1.026,0,0,0-.109.608c.11.616,1,1.231,1.431,1.637.166.159.4.283.354.53a.761.761,0,0,0,.477-.057c.221-.113.2-.361.371-.465.412-.257,1.2.531,1.533.66a1.691,1.691,0,0,0,1.13-.084,1.1,1.1,0,0,1,.51-.158c.179-.006.365-.016.544-.009.382.013.927.235,1.3.123.61-.182.779-1.122.94-1.617.155-.471.587-.357,1.061-.361.62-.006,1.252.018,1.873.054a3.687,3.687,0,0,0,1.582-.032,1.733,1.733,0,0,0,.931-1.374c.525-.084,1.191.139,1.609-.245a3.234,3.234,0,0,0,.719-1.658c.066-.294.121-.6.162-.909a16.059,16.059,0,0,0-8.629-4.338l-.114.092" fill="none" stroke="#000" stroke-miterlimit="10" stroke-width="1"/>
          <path id="Path_2689" data-name="Path 2689" d="M254.189,33.875c-.439-.293-.906-.579-.814-1.126.073-.448.1-.636-.441-.872a1.656,1.656,0,0,0-.847-.1c-.357.075-.565.471-.825.686-.424.353-2.223.8-2.348,0a4.671,4.671,0,0,1,.26-1.324,2.951,2.951,0,0,0,.028-.664,3.287,3.287,0,0,1-.775-.341c-.332-.155-.851-.29-1.042-.616a.533.533,0,0,1,.488-.843c.307.009.512.243.821.212.185-.019.612-.193.67-.38.081-.265-.735-.694-.767-1.1-.008-.095.051-.234.008-.321-.089-.182-.465-.188-.57-.357-.122-.195.047-.424-.032-.613-.1-.234-.507-.267-.615-.584-.09-.259,0-.544-.32-.647-.187-.061-.225-.029-.4.072a3.394,3.394,0,0,0-.652.643,3.789,3.789,0,0,1-1.082.769,2.212,2.212,0,0,1-1.543-.235,8.891,8.891,0,0,0-1.239-.539c-.194-.049-.271-.094-.464.022-.26.159-.424.821-.731.864-.144.02-.455-.26-.573-.321a3.708,3.708,0,0,0-.963-.4c-.179-.033-.523-.056-.652.126-.083.116-.019.457-.024.578a1.984,1.984,0,0,1-.338,1.122c-.28.4-.357.333-.757.352a6.972,6.972,0,0,0-1.054.18c-.517.109-1.071.1-1.159.667a7.956,7.956,0,0,1-.183,1.781c-.157.409-.645.363-1.051.5a.868.868,0,0,0-.555.333c-.046.084-.027.229-.076.328-.1.207-.11.139-.331.315a.613.613,0,0,0-.256.472q.069.76.208,1.51l.111,1.028a3.83,3.83,0,0,1-.033,1.116c-.129.356-.621.479-.8.8-.413.709.256,1.314.126,1.994-.1.532-.8.581-.857,1.021a3.043,3.043,0,0,0,.187.853,6.192,6.192,0,0,1,.117.94,16.46,16.46,0,0,0,5.682,1.665c.083-.152.152-.312.23-.481.124-.27.311-.506.43-.772.914.144,1.861.735,2.8.635.5-.054.858-.541,1.168-.88a7.458,7.458,0,0,1,1.1-1.039c.363-.266.818-.649,1.3-.559a16.838,16.838,0,0,0,1.626.512c.234.024.821.1,1.012-.086.118-.112.081-.327.084-.487a8.584,8.584,0,0,1,.03-2.5,2.36,2.36,0,0,1,.26-.667c.417-.384,2.315-.452,2.739-.5a13.107,13.107,0,0,0,1.935-.234,7.3,7.3,0,0,1,1.183.009,16.47,16.47,0,0,0,1.12-1.784c-.028-.3-.211-.5-.551-.731" fill="#fff"/>
          <path id="Path_2690" data-name="Path 2690" d="M254.189,33.875c-.439-.293-.906-.579-.814-1.126.073-.448.1-.636-.441-.872a1.656,1.656,0,0,0-.847-.1c-.357.075-.565.471-.825.686-.424.353-2.223.8-2.348,0a4.671,4.671,0,0,1,.26-1.324,2.951,2.951,0,0,0,.028-.664,3.287,3.287,0,0,1-.775-.341c-.332-.155-.851-.29-1.042-.616a.533.533,0,0,1,.488-.843c.307.009.512.243.821.212.185-.019.612-.193.67-.38.081-.265-.735-.694-.767-1.1-.008-.095.051-.234.008-.321-.089-.182-.465-.188-.57-.357-.122-.195.047-.424-.032-.613-.1-.234-.507-.267-.615-.584-.09-.259,0-.544-.32-.647-.187-.061-.225-.029-.4.072a3.394,3.394,0,0,0-.652.643,3.789,3.789,0,0,1-1.082.769,2.212,2.212,0,0,1-1.543-.235,8.891,8.891,0,0,0-1.239-.539c-.194-.049-.271-.094-.464.022-.26.159-.424.821-.731.864-.144.02-.455-.26-.573-.321a3.708,3.708,0,0,0-.963-.4c-.179-.033-.523-.056-.652.126-.083.116-.019.457-.024.578a1.984,1.984,0,0,1-.338,1.122c-.28.4-.357.333-.757.352a6.972,6.972,0,0,0-1.054.18c-.517.109-1.071.1-1.159.667a7.956,7.956,0,0,1-.183,1.781c-.157.409-.645.363-1.051.5a.868.868,0,0,0-.555.333c-.046.084-.027.229-.076.328-.1.207-.11.139-.331.315a.613.613,0,0,0-.256.472q.069.76.208,1.51l.111,1.028a3.83,3.83,0,0,1-.033,1.116c-.129.356-.621.479-.8.8-.413.709.256,1.314.126,1.994-.1.532-.8.581-.857,1.021a3.043,3.043,0,0,0,.187.853,6.192,6.192,0,0,1,.117.94,16.46,16.46,0,0,0,5.682,1.665c.083-.152.152-.312.23-.481.124-.27.311-.506.43-.772.914.144,1.861.735,2.8.635.5-.054.858-.541,1.168-.88a7.458,7.458,0,0,1,1.1-1.039c.363-.266.818-.649,1.3-.559a16.838,16.838,0,0,0,1.626.512c.234.024.821.1,1.012-.086.118-.112.081-.327.084-.487a8.584,8.584,0,0,1,.03-2.5,2.36,2.36,0,0,1,.26-.667c.417-.384,2.315-.452,2.739-.5a13.107,13.107,0,0,0,1.935-.234,7.3,7.3,0,0,1,1.183.009,16.47,16.47,0,0,0,1.12-1.784c-.028-.3-.211-.5-.551-.731" fill="none" stroke="#000" stroke-miterlimit="10" stroke-width="1"/>
          <path id="Path_2691" data-name="Path 2691" d="M52.714,116.779,28.3,102.686v28.187Z" fill="#ee5064"/>
          <path id="Path_2692" data-name="Path 2692" d="M52.714,116.779,28.3,102.686v28.187Z" fill="none" stroke="#000" stroke-miterlimit="10" stroke-width="1"/>
          <path id="Path_2693" data-name="Path 2693" d="M38.358,143.636A27.231,27.231,0,1,1,65.589,116.4h0a27.262,27.262,0,0,1-27.231,27.23m0-53.706a26.472,26.472,0,1,1,0,.006" fill="#ee5064"/>
          <path id="Path_2694" data-name="Path 2694" d="M38.358,143.636A27.231,27.231,0,1,1,65.589,116.4h0a27.262,27.262,0,0,1-27.231,27.23m0-53.706a26.472,26.472,0,1,1,0,.006" fill="none" stroke="#000" stroke-miterlimit="10" stroke-width="1"/>
          <path id="Path_2695" data-name="Path 2695" d="M35.815,154.186a38.337,38.337,0,0,1-5.117-.691l.152-.742a37.307,37.307,0,0,0,5.015.679Zm5.165-.007-.052-.755a37.319,37.319,0,0,0,5.015-.686l.153.739a38,38,0,0,1-5.116.7M25.718,152.1a38.042,38.042,0,0,1-4.741-2.056l.346-.671a37.189,37.189,0,0,0,4.647,2.014Zm25.351-.024-.255-.712a37,37,0,0,0,4.641-2.021l.349.671a37.583,37.583,0,0,1-4.735,2.063m-34.507-4.716a37.966,37.966,0,0,1-4.009-3.258l.515-.552A37.614,37.614,0,0,0,17,146.749Zm43.649-.035-.437-.617a37.6,37.6,0,0,0,3.922-3.2l.518.552a38.263,38.263,0,0,1-4,3.263m-51.188-6.99a38.185,38.185,0,0,1-2.988-4.212l.646-.394a37.464,37.464,0,0,0,2.928,4.127Zm58.715-.048-.586-.477a37.51,37.51,0,0,0,2.922-4.135l.646.393a37.953,37.953,0,0,1-2.982,4.219m-64.09-8.737a37.721,37.721,0,0,1-1.739-4.863l.729-.206a36.609,36.609,0,0,0,1.7,4.766Zm69.45-.065-.694-.3a37.166,37.166,0,0,0,1.695-4.772l.728.2a37.85,37.85,0,0,1-1.729,4.872M.858,121.634A38.154,38.154,0,0,1,.5,116.479h.756a37.563,37.563,0,0,0,.35,5.049Zm75.015-.073-.75-.1a37.581,37.581,0,0,0,.341-5.05v-.146h.756v.146a38.439,38.439,0,0,1-.347,5.152M1.587,111.431l-.749-.1a37.749,37.749,0,0,1,1.035-5.059l.728.2a37.06,37.06,0,0,0-1.015,4.958m73.517-.214a36.839,36.839,0,0,0-1.044-4.952l.728-.207a37.684,37.684,0,0,1,1.064,5.053ZM4.287,101.7l-.694-.3a37.659,37.659,0,0,1,2.371-4.591l.647.393a36.951,36.951,0,0,0-2.324,4.5m68.06-.194A37.136,37.136,0,0,0,70,97.023l.644-.4a37.871,37.871,0,0,1,2.4,4.573ZM9.524,93.058l-.588-.478A38.471,38.471,0,0,1,12.454,88.8l.517.551a37.541,37.541,0,0,0-3.447,3.708M67.066,92.9A37.415,37.415,0,0,0,63.6,89.212l.514-.555a38.367,38.367,0,0,1,3.539,3.762ZM16.888,86.145l-.439-.616a38.24,38.24,0,0,1,4.4-2.7l.35.671a37.161,37.161,0,0,0-4.314,2.642m42.776-.118A37.185,37.185,0,0,0,55.328,83.4l.347-.672A37.9,37.9,0,0,1,60.1,85.406ZM25.839,81.471l-.256-.712a37.738,37.738,0,0,1,4.971-1.4l.155.74a36.883,36.883,0,0,0-4.87,1.376m24.843-.07A36.833,36.833,0,0,0,45.8,80.053l.151-.742a37.54,37.54,0,0,1,4.982,1.377Zm-14.96-2-.053-.755c.885-.062,1.781-.094,2.661-.094h.03c.823,0,1.654.027,2.472.08l-.048.755c-.811-.052-1.639-.067-2.453-.078-.864,0-1.741.031-2.609.092" fill="#ee5064"/>
          <path id="Path_2696" data-name="Path 2696" d="M35.815,154.186a38.337,38.337,0,0,1-5.117-.691l.152-.742a37.307,37.307,0,0,0,5.015.679Zm5.165-.007-.052-.755a37.319,37.319,0,0,0,5.015-.686l.153.739a38,38,0,0,1-5.116.7M25.718,152.1a38.042,38.042,0,0,1-4.741-2.056l.346-.671a37.189,37.189,0,0,0,4.647,2.014Zm25.351-.024-.255-.712a37,37,0,0,0,4.641-2.021l.349.671a37.583,37.583,0,0,1-4.735,2.063m-34.507-4.716a37.966,37.966,0,0,1-4.009-3.258l.515-.552A37.614,37.614,0,0,0,17,146.749Zm43.649-.035-.437-.617a37.6,37.6,0,0,0,3.922-3.2l.518.552a38.263,38.263,0,0,1-4,3.263m-51.188-6.99a38.185,38.185,0,0,1-2.988-4.212l.646-.394a37.464,37.464,0,0,0,2.928,4.127Zm58.715-.048-.586-.477a37.51,37.51,0,0,0,2.922-4.135l.646.393a37.953,37.953,0,0,1-2.982,4.219m-64.09-8.737a37.721,37.721,0,0,1-1.739-4.863l.729-.206a36.609,36.609,0,0,0,1.7,4.766Zm69.45-.065-.694-.3a37.166,37.166,0,0,0,1.695-4.772l.728.2a37.85,37.85,0,0,1-1.729,4.872M.858,121.634A38.154,38.154,0,0,1,.5,116.479h.756a37.563,37.563,0,0,0,.35,5.049Zm75.015-.073-.75-.1a37.581,37.581,0,0,0,.341-5.05v-.146h.756v.146a38.439,38.439,0,0,1-.347,5.152M1.587,111.431l-.749-.1a37.749,37.749,0,0,1,1.035-5.059l.728.2a37.06,37.06,0,0,0-1.015,4.958m73.517-.214a36.839,36.839,0,0,0-1.044-4.952l.728-.207a37.684,37.684,0,0,1,1.064,5.053ZM4.287,101.7l-.694-.3a37.659,37.659,0,0,1,2.371-4.591l.647.393a36.951,36.951,0,0,0-2.324,4.5m68.06-.194A37.136,37.136,0,0,0,70,97.023l.644-.4a37.871,37.871,0,0,1,2.4,4.573ZM9.524,93.058l-.588-.478A38.471,38.471,0,0,1,12.454,88.8l.517.551a37.541,37.541,0,0,0-3.447,3.708M67.066,92.9A37.415,37.415,0,0,0,63.6,89.212l.514-.555a38.367,38.367,0,0,1,3.539,3.762ZM16.888,86.145l-.439-.616a38.24,38.24,0,0,1,4.4-2.7l.35.671a37.161,37.161,0,0,0-4.314,2.642m42.776-.118A37.185,37.185,0,0,0,55.328,83.4l.347-.672A37.9,37.9,0,0,1,60.1,85.406ZM25.839,81.471l-.256-.712a37.738,37.738,0,0,1,4.971-1.4l.155.74a36.883,36.883,0,0,0-4.87,1.376m24.843-.07A36.833,36.833,0,0,0,45.8,80.053l.151-.742a37.54,37.54,0,0,1,4.982,1.377Zm-14.96-2-.053-.755c.885-.062,1.781-.094,2.661-.094h.03c.823,0,1.654.027,2.472.08l-.048.755c-.811-.052-1.639-.067-2.453-.078-.864,0-1.741.031-2.609.092" fill="none" stroke="#000" stroke-miterlimit="10" stroke-width="1"/>
          <path id="Path_2697" data-name="Path 2697" d="M239.387,67.933l.732.021.242-8.1-.974-.023Z" fill="#ee5064"/>
          <path id="Path_2698" data-name="Path 2698" d="M239.387,67.933l.732.021.242-8.1-.974-.023Z" fill="none" stroke="#000" stroke-miterlimit="10" stroke-width="1"/>
          <path id="Path_2699" data-name="Path 2699" d="M242.228,68.108l.724.091,1.192-8.015-.969-.123Z" fill="#ee5064"/>
          <path id="Path_2700" data-name="Path 2700" d="M242.228,68.108l.724.091,1.192-8.015-.969-.123Z" fill="none" stroke="#000" stroke-miterlimit="10" stroke-width="1"/>
          <path id="Path_2701" data-name="Path 2701" d="M246.921,60.727l-1.9,7.879.355.08.35.1,2.136-7.819-.469-.13-.476-.112" fill="#ee5064"/>
          <path id="Path_2702" data-name="Path 2702" d="M246.921,60.727l-1.9,7.879.355.08.35.1,2.136-7.819-.469-.13-.476-.112" fill="none" stroke="#000" stroke-miterlimit="10" stroke-width="1"/>
          <path id="Path_2703" data-name="Path 2703" d="M247.741,69.43l.678.268,3.05-7.507-.909-.358Z" fill="#ee5064"/>
          <path id="Path_2704" data-name="Path 2704" d="M247.741,69.43l.678.268,3.05-7.507-.909-.358Z" fill="none" stroke="#000" stroke-miterlimit="10" stroke-width="1"/>
          <path id="Path_2705" data-name="Path 2705" d="M254.04,63.371l-3.7,7.208.323.166c.165.079.32.174.32.174l3.923-7.091s-.21-.125-.429-.234-.434-.223-.434-.223" fill="#ee5064"/>
          <path id="Path_2706" data-name="Path 2706" d="M254.04,63.371l-3.7,7.208.323.166c.165.079.32.174.32.174l3.923-7.091s-.21-.125-.429-.234-.434-.223-.434-.223" fill="none" stroke="#000" stroke-miterlimit="10" stroke-width="1"/>
          <path id="Path_2707" data-name="Path 2707" d="M252.786,72.023l.594.424,4.733-6.578-.8-.564Z" fill="#ee5064"/>
          <path id="Path_2708" data-name="Path 2708" d="M252.786,72.023l.594.424,4.733-6.578-.8-.564Z" fill="none" stroke="#000" stroke-miterlimit="10" stroke-width="1"/>
          <path id="Path_2709" data-name="Path 2709" d="M260.333,67.614l-5.292,6.138.275.24c.14.117.275.241.275.241l5.473-5.976s-.178-.165-.364-.324-.368-.319-.368-.319" fill="#ee5064"/>
          <path id="Path_2710" data-name="Path 2710" d="M260.333,67.614l-5.292,6.138.275.24c.14.117.275.241.275.241l5.473-5.976s-.178-.165-.364-.324-.368-.319-.368-.319" fill="none" stroke="#000" stroke-miterlimit="10" stroke-width="1"/>
          <path id="Path_2711" data-name="Path 2711" d="M263.063,70.256l-5.976,5.473s.123.134.241.274.239.276.239.276l6.137-5.291-.319-.368c-.159-.185-.324-.364-.324-.364" fill="#ee5064"/>
          <path id="Path_2712" data-name="Path 2712" d="M263.063,70.256l-5.976,5.473s.123.134.241.274.239.276.239.276l6.137-5.291-.319-.368c-.159-.185-.324-.364-.324-.364" fill="none" stroke="#000" stroke-miterlimit="10" stroke-width="1"/>
          <path id="Path_2713" data-name="Path 2713" d="M258.876,77.939l.424.594L266.019,74l-.563-.8Z" fill="#ee5064"/>
          <path id="Path_2714" data-name="Path 2714" d="M258.876,77.939l.424.594L266.019,74l-.563-.8Z" fill="none" stroke="#000" stroke-miterlimit="10" stroke-width="1"/>
          <path id="Path_2715" data-name="Path 2715" d="M267.492,76.416,260.4,80.339s.1.155.173.319l.166.326,7.207-3.7-.223-.434c-.108-.219-.233-.429-.233-.429" fill="#ee5064"/>
          <path id="Path_2716" data-name="Path 2716" d="M267.492,76.416,260.4,80.339s.1.155.173.319l.166.326,7.207-3.7-.223-.434c-.108-.219-.233-.429-.233-.429" fill="none" stroke="#000" stroke-miterlimit="10" stroke-width="1"/>
          <path id="Path_2717" data-name="Path 2717" d="M261.622,82.9l.268.679,7.6-2.822-.359-.91Z" fill="#ee5064"/>
          <path id="Path_2718" data-name="Path 2718" d="M261.622,82.9l.268.679,7.6-2.822-.359-.91Z" fill="none" stroke="#000" stroke-miterlimit="10" stroke-width="1"/>
          <path id="Path_2719" data-name="Path 2719" d="M270.35,83.453l-7.818,2.136.1.352.08.354,7.879-1.9-.11-.474-.132-.471" fill="#ee5064"/>
          <path id="Path_2720" data-name="Path 2720" d="M270.35,83.453l-7.818,2.136.1.352.08.354,7.879-1.9-.11-.474-.132-.471" fill="none" stroke="#000" stroke-miterlimit="10" stroke-width="1"/>
          <path id="Path_2721" data-name="Path 2721" d="M263.121,88.367l.091.724,8.049-.948-.125-.969Z" fill="#ee5064"/>
          <path id="Path_2722" data-name="Path 2722" d="M263.121,88.367l.091.724,8.049-.948-.125-.969Z" fill="none" stroke="#000" stroke-miterlimit="10" stroke-width="1"/>
          <path id="Path_2723" data-name="Path 2723" d="M263.366,91.2l.019.731h8.1l-.023-.974Z" fill="#ee5064"/>
          <path id="Path_2724" data-name="Path 2724" d="M263.366,91.2l.019.731h8.1l-.023-.974Z" fill="none" stroke="#000" stroke-miterlimit="10" stroke-width="1"/>
          <path id="Path_2725" data-name="Path 2725" d="M263.357,93.03c-.006.275-.039.547-.05.753s-.025.341-.025.341l8.071.729s.013-.182.034-.456.057-.638.066-1l.036-1.46h-8.1s-.013.548-.028,1.1" fill="#ee5064"/>
          <path id="Path_2726" data-name="Path 2726" d="M263.357,93.03c-.006.275-.039.547-.05.753s-.025.341-.025.341l8.071.729s.013-.182.034-.456.057-.638.066-1l.036-1.46h-8.1s-.013.548-.028,1.1" fill="none" stroke="#000" stroke-miterlimit="10" stroke-width="1"/>
          <path id="Path_2727" data-name="Path 2727" d="M262.943,96.517c-.03.2-.1.469-.156.734s-.125.533-.17.732a2.141,2.141,0,0,1-.1.329l7.818,2.152.123-.442c.07-.265.149-.623.233-.979s.166-.714.208-.986.081-.45.081-.45L263,96.183l-.06.337" fill="#ee5064"/>
          <path id="Path_2728" data-name="Path 2728" d="M262.943,96.517c-.03.2-.1.469-.156.734s-.125.533-.17.732a2.141,2.141,0,0,1-.1.329l7.818,2.152.123-.442c.07-.265.149-.623.233-.979s.166-.714.208-.986.081-.45.081-.45L263,96.183l-.06.337" fill="none" stroke="#000" stroke-miterlimit="10" stroke-width="1"/>
          <path id="Path_2729" data-name="Path 2729" d="M261.487,101.3c-.224.5-.45,1-.45,1l7.306,3.5.6-1.335c.269-.682.54-1.363.54-1.363l-7.6-2.821s-.2.509-.4,1.016" fill="#ee5064"/>
          <path id="Path_2730" data-name="Path 2730" d="M261.487,101.3c-.224.5-.45,1-.45,1l7.306,3.5.6-1.335c.269-.682.54-1.363.54-1.363l-7.6-2.821s-.2.509-.4,1.016" fill="none" stroke="#000" stroke-miterlimit="10" stroke-width="1"/>
          <path id="Path_2731" data-name="Path 2731" d="M259.882,104.422l-.407.634c-.142.234-.3.457-.421.623l-.2.279,6.571,4.742.264-.373c.161-.222.372-.521.566-.832s.394-.617.543-.848l.232-.4-6.976-4.125s-.065.121-.172.3" fill="#ee5064"/>
          <path id="Path_2732" data-name="Path 2732" d="M259.882,104.422l-.407.634c-.142.234-.3.457-.421.623l-.2.279,6.571,4.742.264-.373c.161-.222.372-.521.566-.832s.394-.617.543-.848l.232-.4-6.976-4.125s-.065.121-.172.3" fill="none" stroke="#000" stroke-miterlimit="10" stroke-width="1"/>
          <path id="Path_2733" data-name="Path 2733" d="M257.343,107.847c-.129.159-.317.357-.51.554s-.375.4-.522.544l-.248.235L261.7,115l.33-.316c.194-.193.443-.461.7-.724s.5-.529.68-.741l.3-.345-6.138-5.292-.224.26" fill="#ee5064"/>
          <path id="Path_2734" data-name="Path 2734" d="M257.343,107.847c-.129.159-.317.357-.51.554s-.375.4-.522.544l-.248.235L261.7,115l.33-.316c.194-.193.443-.461.7-.724s.5-.529.68-.741l.3-.345-6.138-5.292-.224.26" fill="none" stroke="#000" stroke-miterlimit="10" stroke-width="1"/>
          <path id="Path_2735" data-name="Path 2735" d="M253.648,111.233l-.613.436-.281.2,4.522,6.724s.151-.1.374-.261l.82-.584c.585-.44,1.154-.9,1.154-.9l-5.111-6.287s-.429.342-.866.672" fill="#ee5064"/>
          <path id="Path_2736" data-name="Path 2736" d="M253.648,111.233l-.613.436-.281.2,4.522,6.724s.151-.1.374-.261l.82-.584c.585-.44,1.154-.9,1.154-.9l-5.111-6.287s-.429.342-.866.672" fill="none" stroke="#000" stroke-miterlimit="10" stroke-width="1"/>
          <path id="Path_2737" data-name="Path 2737" d="M250.681,113.109l-.671.343c-.238.132-.493.234-.678.32l-.311.141,3.257,7.42.417-.189c.249-.115.587-.257.91-.429l.9-.46c.246-.121.4-.219.4-.219l-3.923-7.091a3.1,3.1,0,0,1-.3.163" fill="#ee5064"/>
          <path id="Path_2738" data-name="Path 2738" d="M250.681,113.109l-.671.343c-.238.132-.493.234-.678.32l-.311.141,3.257,7.42.417-.189c.249-.115.587-.257.91-.429l.9-.46c.246-.121.4-.219.4-.219l-3.923-7.091a3.1,3.1,0,0,1-.3.163" fill="none" stroke="#000" stroke-miterlimit="10" stroke-width="1"/>
          <path id="Path_2739" data-name="Path 2739" d="M246.764,114.771c-.192.073-.457.144-.72.217s-.525.154-.724.2l-.333.077,1.884,7.882.446-.1c.267-.065.619-.171.972-.269s.7-.2.963-.292l.434-.147-2.6-7.676-.323.11" fill="#ee5064"/>
          <path id="Path_2740" data-name="Path 2740" d="M246.764,114.771c-.192.073-.457.144-.72.217s-.525.154-.724.2l-.333.077,1.884,7.882.446-.1c.267-.065.619-.171.972-.269s.7-.2.963-.292l.434-.147-2.6-7.676-.323.11" fill="none" stroke="#000" stroke-miterlimit="10" stroke-width="1"/>
          <path id="Path_2741" data-name="Path 2741" d="M241.867,115.8l-1.093.084.46,8.09,1.458-.113,1.452-.185-1.192-8.014-1.086.137" fill="#ee5064"/>
          <path id="Path_2742" data-name="Path 2742" d="M241.867,115.8l-1.093.084.46,8.09,1.458-.113,1.452-.185-1.192-8.014-1.086.137" fill="none" stroke="#000" stroke-miterlimit="10" stroke-width="1"/>
          <path id="Path_2743" data-name="Path 2743" d="M236.846,115.8l-.338-.044-.961,8.047.454.057c.271.032.638.053,1,.083.729.069,1.46.075,1.46.075l.23-8.1s-.551,0-1.1-.056c-.272-.023-.546-.037-.751-.061" fill="#ee5064"/>
          <path id="Path_2744" data-name="Path 2744" d="M236.846,115.8l-.338-.044-.961,8.047.454.057c.271.032.638.053,1,.083.729.069,1.46.075,1.46.075l.23-8.1s-.551,0-1.1-.056c-.272-.023-.546-.037-.751-.061" fill="none" stroke="#000" stroke-miterlimit="10" stroke-width="1"/>
          <path id="Path_2745" data-name="Path 2745" d="M232.343,114.88l-2.375,7.748,1.409.4,1.429.329,1.654-7.933-1.065-.245-1.052-.3" fill="#ee5064"/>
          <path id="Path_2746" data-name="Path 2746" d="M232.343,114.88l-2.375,7.748,1.409.4,1.429.329,1.654-7.933-1.065-.245-1.052-.3" fill="none" stroke="#000" stroke-miterlimit="10" stroke-width="1"/>
          <path id="Path_2747" data-name="Path 2747" d="M229.388,113.747c-.25-.11-.5-.224-.679-.323l-.3-.155-3.717,7.2.408.208c.242.13.574.285.909.434l.918.412.426.168,3.041-7.511-.318-.125-.685-.309" fill="#ee5064"/>
          <path id="Path_2748" data-name="Path 2748" d="M229.388,113.747c-.25-.11-.5-.224-.679-.323l-.3-.155-3.717,7.2.408.208c.242.13.574.285.909.434l.918.412.426.168,3.041-7.511-.318-.125-.685-.309" fill="none" stroke="#000" stroke-miterlimit="10" stroke-width="1"/>
          <path id="Path_2749" data-name="Path 2749" d="M225.691,111.634l-.614-.436-.271-.21-4.929,6.432.361.278.82.585c.3.217.6.414.834.562l.386.247,4.324-6.854-.287-.185c-.173-.111-.4-.256-.624-.42" fill="#ee5064"/>
          <path id="Path_2750" data-name="Path 2750" d="M225.691,111.634l-.614-.436-.271-.21-4.929,6.432.361.278.82.585c.3.217.6.414.834.562l.386.247,4.324-6.854-.287-.185c-.173-.111-.4-.256-.624-.42" fill="none" stroke="#000" stroke-miterlimit="10" stroke-width="1"/>
          <path id="Path_2751" data-name="Path 2751" d="M221.661,108.108l-5.984,5.466s.507.529,1.011,1.058l1.058,1.01,5.465-5.984-.794-.757-.755-.794" fill="#ee5064"/>
          <path id="Path_2752" data-name="Path 2752" d="M221.661,108.108l-5.984,5.466s.507.529,1.011,1.058l1.058,1.01,5.465-5.984-.794-.757-.755-.794" fill="none" stroke="#000" stroke-miterlimit="10" stroke-width="1"/>
          <path id="Path_2753" data-name="Path 2753" d="M219.686,105.629c-.163-.219-.312-.451-.42-.624l-.185-.287-6.853,4.324s.1.154.247.385.346.54.561.834.425.6.584.821l.279.362,6.432-4.93s-.084-.109-.211-.27-.278-.391-.435-.615" fill="#ee5064"/>
          <path id="Path_2754" data-name="Path 2754" d="M219.686,105.629c-.163-.219-.312-.451-.42-.624l-.185-.287-6.853,4.324s.1.154.247.385.346.54.561.834.425.6.584.821l.279.362,6.432-4.93s-.084-.109-.211-.27-.278-.391-.435-.615" fill="none" stroke="#000" stroke-miterlimit="10" stroke-width="1"/>
          <path id="Path_2755" data-name="Path 2755" d="M217.572,101.933c-.113-.249-.225-.5-.31-.686a2.544,2.544,0,0,1-.123-.318l-7.512,3.041s.067.17.17.425.262.585.411.918.3.667.435.909l.207.409,7.2-3.717-.155-.3c-.1-.181-.214-.429-.323-.679" fill="#ee5064"/>
          <path id="Path_2756" data-name="Path 2756" d="M217.572,101.933c-.113-.249-.225-.5-.31-.686a2.544,2.544,0,0,1-.123-.318l-7.512,3.041s.067.17.17.425.262.585.411.918.3.667.435.909l.207.409,7.2-3.717-.155-.3c-.1-.181-.214-.429-.323-.679" fill="none" stroke="#000" stroke-miterlimit="10" stroke-width="1"/>
          <path id="Path_2757" data-name="Path 2757" d="M215.9,96.86l-7.934,1.654.331,1.427.4,1.411,7.748-2.376-.3-1.051c-.122-.533-.245-1.066-.245-1.066" fill="#ee5064"/>
          <path id="Path_2758" data-name="Path 2758" d="M215.9,96.86l-7.934,1.654.331,1.427.4,1.411,7.748-2.376-.3-1.051c-.122-.533-.245-1.066-.245-1.066" fill="none" stroke="#000" stroke-miterlimit="10" stroke-width="1"/>
          <path id="Path_2759" data-name="Path 2759" d="M215.462,93.721c-.054-.544-.055-1.094-.055-1.094l-8.1.23s.006.731.073,1.46c.03.365.052.73.084,1s.058.454.058.454l8.047-.962-.045-.338c-.024-.2-.037-.478-.06-.751" fill="#ee5064"/>
          <path id="Path_2760" data-name="Path 2760" d="M215.462,93.721c-.054-.544-.055-1.094-.055-1.094l-8.1.23s.006.731.073,1.46c.03.365.052.73.084,1s.058.454.058.454l8.047-.962-.045-.338c-.024-.2-.037-.478-.06-.751" fill="none" stroke="#000" stroke-miterlimit="10" stroke-width="1"/>
          <path id="Path_2761" data-name="Path 2761" d="M207.454,88.627l-.114,1.459,8.091.459.084-1.092c.07-.544.139-1.086.139-1.086l-8.017-1.191-.183,1.452" fill="#ee5064"/>
          <path id="Path_2762" data-name="Path 2762" d="M207.454,88.627l-.114,1.459,8.091.459.084-1.092c.07-.544.139-1.086.139-1.086l-8.017-1.191-.183,1.452" fill="none" stroke="#000" stroke-miterlimit="10" stroke-width="1"/>
          <path id="Path_2763" data-name="Path 2763" d="M208.836,82.066c-.093.26-.191.612-.292.965s-.2.7-.269.97l-.1.446,7.882,1.884.077-.334c.049-.2.129-.46.2-.723s.145-.528.217-.72.11-.323.11-.323l-7.675-2.6-.147.432" fill="#ee5064"/>
          <path id="Path_2764" data-name="Path 2764" d="M208.836,82.066c-.093.26-.191.612-.292.965s-.2.7-.269.97l-.1.446,7.882,1.884.077-.334c.049-.2.129-.46.2-.723s.145-.528.217-.72.11-.323.11-.323l-7.675-2.6-.147.432" fill="none" stroke="#000" stroke-miterlimit="10" stroke-width="1"/>
          <path id="Path_2765" data-name="Path 2765" d="M211.068,76.819c-.125.244-.292.57-.458.9s-.315.661-.43.91-.189.417-.189.417L217.41,82.3s.056-.125.142-.311.188-.441.32-.681l.343-.67a3.1,3.1,0,0,1,.163-.3l-7.09-3.923a4.181,4.181,0,0,0-.219.4" fill="#ee5064"/>
          <path id="Path_2766" data-name="Path 2766" d="M211.068,76.819c-.125.244-.292.57-.458.9s-.315.661-.43.91-.189.417-.189.417L217.41,82.3s.056-.125.142-.311.188-.441.32-.681l.343-.67a3.1,3.1,0,0,1,.163-.3l-7.09-3.923a4.181,4.181,0,0,0-.219.4" fill="none" stroke="#000" stroke-miterlimit="10" stroke-width="1"/>
          <path id="Path_2767" data-name="Path 2767" d="M213.574,72.85c-.211.3-.424.6-.583.821s-.263.375-.263.375l6.727,4.52s.076-.114.2-.28l.436-.614c.331-.436.672-.865.672-.865l-6.287-5.112s-.458.57-.9,1.155" fill="#ee5064"/>
          <path id="Path_2768" data-name="Path 2768" d="M213.574,72.85c-.211.3-.424.6-.583.821s-.263.375-.263.375l6.727,4.52s.076-.114.2-.28l.436-.614c.331-.436.672-.865.672-.865l-6.287-5.112s-.458.57-.9,1.155" fill="none" stroke="#000" stroke-miterlimit="10" stroke-width="1"/>
          <path id="Path_2769" data-name="Path 2769" d="M218.1,67.914c-.211.175-.477.425-.741.68s-.532.5-.725.7l-.316.33,5.825,5.634.235-.248c.14-.148.347-.331.544-.521s.395-.379.555-.51l.26-.224-5.292-6.137-.345.3" fill="#ee5064"/>
          <path id="Path_2770" data-name="Path 2770" d="M218.1,67.914c-.211.175-.477.425-.741.68s-.532.5-.725.7l-.316.33,5.825,5.634.235-.248c.14-.148.347-.331.544-.521s.395-.379.555-.51l.26-.224-5.292-6.137-.345.3" fill="none" stroke="#000" stroke-miterlimit="10" stroke-width="1"/>
          <path id="Path_2771" data-name="Path 2771" d="M222.672,64.521l-.847.543c-.312.193-.611.4-.833.565s-.369.264-.369.264l4.742,6.571.28-.2c.166-.12.387-.279.622-.421s.46-.3.634-.407.294-.173.294-.173l-4.128-6.97s-.157.093-.4.231" fill="#ee5064"/>
          <path id="Path_2772" data-name="Path 2772" d="M222.672,64.521l-.847.543c-.312.193-.611.4-.833.565s-.369.264-.369.264l4.742,6.571.28-.2c.166-.12.387-.279.622-.421s.46-.3.634-.407.294-.173.294-.173l-4.128-6.97s-.157.093-.4.231" fill="none" stroke="#000" stroke-miterlimit="10" stroke-width="1"/>
          <path id="Path_2773" data-name="Path 2773" d="M226.85,62.373l-1.335.6,3.507,7.306,1-.45,1.016-.4-2.821-7.6-1.363.54" fill="#ee5064"/>
          <path id="Path_2774" data-name="Path 2774" d="M226.85,62.373l-1.335.6,3.507,7.306,1-.45,1.016-.4-2.821-7.6-1.363.54" fill="none" stroke="#000" stroke-miterlimit="10" stroke-width="1"/>
          <path id="Path_2775" data-name="Path 2775" d="M233.265,60.42c-.271.043-.629.126-.985.208s-.713.163-.981.231l-.44.124,2.149,7.815.328-.095.732-.171c.265-.062.531-.126.735-.156l.337-.06-1.424-7.976-.451.08" fill="#ee5064"/>
          <path id="Path_2776" data-name="Path 2776" d="M233.265,60.42c-.271.043-.629.126-.985.208s-.713.163-.981.231l-.44.124,2.149,7.815.328-.095.732-.171c.265-.062.531-.126.735-.156l.337-.06-1.424-7.976-.451.08" fill="none" stroke="#000" stroke-miterlimit="10" stroke-width="1"/>
          <path id="Path_2777" data-name="Path 2777" d="M236.924,59.932l-.456.035.73,8.072.34-.025c.206-.013.478-.046.753-.051l1.1-.029v-8.1l-1.46.036c-.365.01-.729.048-1,.065" fill="#ee5064"/>
          <path id="Path_2778" data-name="Path 2778" d="M236.924,59.932l-.456.035.73,8.072.34-.025c.206-.013.478-.046.753-.051l1.1-.029v-8.1l-1.46.036c-.365.01-.729.048-1,.065" fill="none" stroke="#000" stroke-miterlimit="10" stroke-width="1"/>
          <path id="Path_2779" data-name="Path 2779" d="M239.386,74.007a17.925,17.925,0,1,0,17.926,17.925,17.925,17.925,0,0,0-17.926-17.925m0,35.547a17.622,17.622,0,1,1,17.622-17.622,17.622,17.622,0,0,1-17.622,17.622" fill="#ee5064"/>
          <path id="Path_2780" data-name="Path 2780" d="M239.386,74.007a17.925,17.925,0,1,0,17.926,17.925,17.925,17.925,0,0,0-17.926-17.925m0,35.547a17.622,17.622,0,1,1,17.622-17.622,17.622,17.622,0,0,1-17.622,17.622" fill="none" stroke="#000" stroke-miterlimit="10" stroke-width="1"/>
          <path id="Path_2781" data-name="Path 2781" d="M239.386,73.856a18.077,18.077,0,1,0,18.078,18.079,18.077,18.077,0,0,0-18.078-18.079m0,35.547a17.47,17.47,0,1,1,17.471-17.47,17.471,17.471,0,0,1-17.471,17.47" fill="#ee5064"/>
          <path id="Path_2782" data-name="Path 2782" d="M239.386,73.856a18.077,18.077,0,1,0,18.078,18.079,18.077,18.077,0,0,0-18.078-18.079m0,35.547a17.47,17.47,0,1,1,17.471-17.47,17.471,17.471,0,0,1-17.471,17.47" fill="none" stroke="#000" stroke-miterlimit="10" stroke-width="1"/>
          <path id="Path_2783" data-name="Path 2783" d="M239.386,73.382a18.55,18.55,0,1,0,18.552,18.553,18.55,18.55,0,0,0-18.552-18.553m0,35.548a17,17,0,1,1,17-17,17,17,0,0,1-17,17" fill="#ee5064"/>
          <path id="Path_2784" data-name="Path 2784" d="M239.386,73.382a18.55,18.55,0,1,0,18.552,18.553,18.55,18.55,0,0,0-18.552-18.553m0,35.548a17,17,0,1,1,17-17,17,17,0,0,1-17,17" fill="none" stroke="#000" stroke-miterlimit="10" stroke-width="1"/>
          <path id="Path_2785" data-name="Path 2785" d="M239.386,73.228a18.7,18.7,0,1,0,18.706,18.707,18.7,18.7,0,0,0-18.706-18.707m0,35.548a16.846,16.846,0,1,1,16.848-16.844v0a16.864,16.864,0,0,1-16.848,16.841" fill="#ee5064"/>
          <path id="Path_2786" data-name="Path 2786" d="M239.386,73.228a18.7,18.7,0,1,0,18.706,18.707,18.7,18.7,0,0,0-18.706-18.707m0,35.548a16.846,16.846,0,1,1,16.848-16.844v0a16.864,16.864,0,0,1-16.848,16.841" fill="none" stroke="#000" stroke-miterlimit="10" stroke-width="1"/>
        </g>
      </g>
    </g>
  </g>
</svg>
