<svg xmlns="http://www.w3.org/2000/svg" xmlns:xlink="http://www.w3.org/1999/xlink" width="124.736" height="87.64" viewBox="0 0 124.736 87.64">
  <defs>
    <linearGradient id="linear-gradient" x1="0.216" y1="-0.089" x2="0.903" y2="0.916" gradientUnits="objectBoundingBox">
      <stop offset="0" stop-color="#672376"/>
      <stop offset="1" stop-color="#a42973"/>
    </linearGradient>
  </defs>
  <path id="Path_1403" data-name="Path 1403" d="M61,132.594a3.983,3.983,0,0,1-3.863,3.017,4.047,4.047,0,0,1-1-.12l-15.932-3.983a3.983,3.983,0,0,1-1.245-.553L27.012,122.99a3.983,3.983,0,1,1,4.421-6.627L42.8,123.946l15.265,3.819A3.983,3.983,0,0,1,61,132.594Zm66.063-48.025a7.911,7.911,0,0,1-3.983,4.605l-11.79,5.895L83.864,122.5a3.983,3.983,0,0,1-3.784,1.046l-31.864-7.966a4.013,4.013,0,0,1-1.349-.622L19.225,95.219,7.137,89.175A7.966,7.966,0,0,1,3.572,78.49L15.944,53.751h0a7.966,7.966,0,0,1,10.684-3.565l10.983,5.477L64,48.125a3.983,3.983,0,0,1,2.191,0l26.387,7.538,10.983-5.477a7.966,7.966,0,0,1,10.684,3.565L126.616,78.49a7.916,7.916,0,0,1,.443,6.079Zm-22.992,6.442L90.52,63.918H74.678L53.15,84.828c6.3,4.028,16.186,5.138,25.053-3.8a3.983,3.983,0,0,1,5.317-.3l17.132,13.726ZM10.7,82.05,19.5,86.456,31.876,61.717l-8.807-4.406Zm84.275,18.043-13.8-11.048c-9.728,7.966-22.081,9.016-32.317,2.489A7.966,7.966,0,0,1,47.5,79.177a.3.3,0,0,1,.04-.04L69.878,57.475,65.1,56.111,40,63.285,26.369,90.534l24.5,17.5,28.946,7.234ZM119.486,82.05,107.129,57.311l-8.807,4.406,12.372,24.739Z" transform="translate(-2.731 -47.972)" fill="url(#linear-gradient)"/>
</svg>
