<svg xmlns="http://www.w3.org/2000/svg" xmlns:xlink="http://www.w3.org/1999/xlink" width="108.146" height="108.146" viewBox="0 0 108.146 108.146">
  <defs>
    <linearGradient id="linear-gradient" x1="0.5" x2="0.5" y2="1" gradientUnits="objectBoundingBox">
      <stop offset="0" stop-color="#6d2576"/>
      <stop offset="1" stop-color="#9f2874"/>
    </linearGradient>
  </defs>
  <path id="Path_291" data-name="Path 291" d="M140.146,104.1v27.036a4.506,4.506,0,0,1-7.694,3.188l-9.046-9.052c-11.35,9.75-24.175,14.876-37.333,14.876-24.119,0-38.628-14.234-39.237-14.836a4.507,4.507,0,0,1,6.365-6.382,50.074,50.074,0,0,0,32.872,12.206c13.051,0,23.612-6.111,30.934-12.256l-11.592-11.592a4.506,4.506,0,0,1,3.188-7.694h27.036A4.506,4.506,0,0,1,140.146,104.1ZM67.7,69.772a4.506,4.506,0,0,0-.974-4.912L55.139,53.269c7.322-6.145,17.883-12.256,30.934-12.256a50,50,0,0,1,32.872,12.211,4.509,4.509,0,0,0,6.365-6.387C124.7,46.234,110.191,32,86.073,32,72.915,32,60.09,37.126,48.74,46.876l-9.046-9.052A4.506,4.506,0,0,0,32,41.012V68.049a4.506,4.506,0,0,0,4.506,4.506H63.542A4.506,4.506,0,0,0,67.7,69.773Z" transform="translate(-32 -32)" fill="url(#linear-gradient)"/>
</svg>
