<svg xmlns="http://www.w3.org/2000/svg" xmlns:xlink="http://www.w3.org/1999/xlink" width="112.964" height="85.363" viewBox="0 0 112.964 85.363">
  <defs>
    <linearGradient id="linear-gradient" x1="0.5" x2="0.5" y2="1" gradientUnits="objectBoundingBox">
      <stop offset="0" stop-color="#722677"/>
      <stop offset="1" stop-color="#b55a94"/>
    </linearGradient>
  </defs>
  <path id="Path_1040" data-name="Path 1040" d="M119.443,97.59a3.7,3.7,0,0,1-5.271-.775A24.062,24.062,0,0,0,94.594,86.743a3.765,3.765,0,0,1-3.468-2.368,3.977,3.977,0,0,1,0-3.012A3.765,3.765,0,0,1,94.594,79a11.428,11.428,0,0,0,11.254-10.644,11.563,11.563,0,0,0-9.362-12.435,11.3,11.3,0,0,0-12.83,8.552,3.759,3.759,0,0,1-4.589,2.784,3.886,3.886,0,0,1-2.706-4.721,18.98,18.98,0,0,1,16.75-14.463,18.77,18.77,0,0,1,18.742,11.59A19.763,19.763,0,0,1,107.3,81.663a32.14,32.14,0,0,1,12.909,10.5,3.958,3.958,0,0,1,.711,2.878,3.9,3.9,0,0,1-1.478,2.55ZM94.086,127.418a3.97,3.97,0,0,1,.11,3.966,3.716,3.716,0,0,1-6.624-.092,26.448,26.448,0,0,0-46.2,0,3.716,3.716,0,0,1-6.624.092,3.97,3.97,0,0,1,.11-3.966A34.25,34.25,0,0,1,50.741,112.93a23.643,23.643,0,0,1-7.662-25.915,22.393,22.393,0,0,1,42.791,0,23.643,23.643,0,0,1-7.662,25.915,34.25,34.25,0,0,1,15.879,14.488ZM64.474,109.986a15.5,15.5,0,1,0-15.06-15.5A15.282,15.282,0,0,0,64.474,109.986ZM38.119,82.869A3.821,3.821,0,0,0,34.353,79,11.428,11.428,0,0,1,23.1,68.351a11.564,11.564,0,0,1,9.362-12.435,11.3,11.3,0,0,1,12.83,8.552,3.759,3.759,0,0,0,4.589,2.784,3.886,3.886,0,0,0,2.706-4.721,18.98,18.98,0,0,0-16.75-14.463,18.77,18.77,0,0,0-18.742,11.59,19.763,19.763,0,0,0,4.552,22.006,32.141,32.141,0,0,0-12.9,10.5A3.95,3.95,0,0,0,9.5,97.587a3.7,3.7,0,0,0,5.273-.772A24.062,24.062,0,0,1,34.353,86.743a3.821,3.821,0,0,0,3.765-3.874Z" transform="translate(-7.997 -48.008)" fill="url(#linear-gradient)"/>
</svg>
