<svg xmlns="http://www.w3.org/2000/svg" xmlns:xlink="http://www.w3.org/1999/xlink" width="838" height="575" viewBox="0 0 838 575">
  <defs>
    <clipPath id="clip-path">
      <rect id="Rectangle_1176" data-name="Rectangle 1176" width="838" height="575" transform="translate(800 261)" fill="#fff"/>
    </clipPath>
  </defs>
  <g id="banner-image" transform="translate(-800 -261)" clip-path="url(#clip-path)">
    <g id="Group_1434" data-name="Group 1434" transform="translate(205.48 -116.889)">
      <g id="Group_1266" data-name="Group 1266" transform="translate(594.52 377.458)">
        <g id="Group_894" data-name="Group 894">
          <path id="Path_7593" data-name="Path 7593" d="M182.925,140.018s-27.913-21.97-38.949,14.651c.644-2.218-15.73-4.916-17.582-4.938-10.634-.134-20.27,6.456-25.846,15.464-7.18,11.6-16.084,35.525-1.688,45.482,1.629,1.126,14.254,2.894,13.953,2.051,0,0,12.984,36.355,53.882,9.089,0,0,41.472,1.6,36.641-24.518,0,0,19.838-49.489-20.411-57.28" transform="translate(-36.58 -53.557)" fill="#ff5c5c"/>
          <path id="Path_7594" data-name="Path 7594" d="M182.925,140.018s-27.913-21.97-38.949,14.651c.644-2.218-15.73-4.916-17.582-4.938-10.634-.134-20.27,6.456-25.846,15.464-7.18,11.6-16.084,35.525-1.688,45.482,1.629,1.126,14.254,2.894,13.953,2.051,0,0,12.984,36.355,53.882,9.089,0,0,41.472,1.6,36.641-24.518,0,0,19.838-49.489-20.411-57.28" transform="translate(-36.58 -53.557)" fill="#242424" stroke="#000" stroke-width="2"/>
          <path id="Path_7595" data-name="Path 7595" d="M238.553,485.084l20.43,94.483v.006l30.271,139.985,2.74,12.658,1.824,8.441,2.733,12.659,2.376,10.978h51.227q-.71-5.433-1.428-10.978-.818-6.271-1.636-12.659-.535-4.2-1.084-8.441-.808-6.29-1.617-12.658C338.022,669.8,331.322,617.1,324.428,572.536c-7.3-47.2-14.821-85.239-22.371-100.936l-39.5,8.388h-.013Z" transform="translate(-95.72 -189.227)" fill="#a62973"/>
          <path id="Path_7596" data-name="Path 7596" d="M159.878,564.322c.24,5.667,2.668,11.751,2.908,16.827l6.629,144L170,737.811l.383,8.439.584,12.659.507,10.977h46.7l.545-10.977.629-12.659.416-8.439.63-12.659,6.947-139.984v-.007l4.947-99.618-1.377.039H230.9c-8.264.24-50.676,1.461-51.306,1.48-1.584.046-6.122,9.966-6.8,11.25a113.843,113.843,0,0,0-7.33,17.385c-5.141,15.724-6.277,32.18-5.589,48.624" transform="translate(-64.079 -194.822)" fill="#a62973"/>
          <path id="Path_7597" data-name="Path 7597" d="M335.695,353.68l3.424,2.141a48.532,48.532,0,0,0,25.728,7.381h0a48.532,48.532,0,0,0,29.707-10.154l67.953-52.6L444.33,274.875l-56.155,33.362h-47.9Z" transform="translate(-134.698 -110.291)" fill="#ffbfaa" stroke="#000" stroke-width="2"/>
          <path id="Path_7598" data-name="Path 7598" d="M306.317,175.511q2.757-.248,5.525-.292c13.933-.22,30.536,2.767,39.175,14.845,5.158,7.21,6.476,18,1.535,25.679-5.4,8.387-16.71,10.551-25.946,11.094a75.426,75.426,0,0,1-58.962-23.106c-1.348-1.408-4.666-4.07-5.166-6.026-1.108-4.337,7.314-8.909,11-11.224a74.584,74.584,0,0,1,32.836-10.968" transform="translate(-105.28 -70.299)" fill="#242424" stroke="#000" stroke-width="2"/>
          <path id="Path_7599" data-name="Path 7599" d="M178.908,384.911l93.7-10.567,16.036-63.357,5.228-6.473a58.312,58.312,0,0,0,12.949-36.64v-6.2a68.909,68.909,0,0,0-6.375-28.948,23.381,23.381,0,0,0-21.218-13.559H185.22A23.382,23.382,0,0,0,162,245.3Z" transform="translate(-64.937 -87.939)" fill="#672376"/>
          <path id="Path_7600" data-name="Path 7600" d="M253.971,200.953l44.268,36.822-9.614-36.822V147.984H253.971Z" transform="translate(-101.906 -59.376)" fill="#fff" stroke="#000" stroke-width="2"/>
          <rect id="Rectangle_836" data-name="Rectangle 836" width="34.654" height="62.697" transform="translate(152.065 61.833)" fill="#ffbfaa" stroke="#000" stroke-width="2"/>
          <path id="Path_7601" data-name="Path 7601" d="M287.622,236.939H252.968a1.5,1.5,0,1,1,0-2.994h34.654a1.5,1.5,0,0,1,0,2.994" transform="translate(-100.903 -93.868)"/>
          <path id="Path_7602" data-name="Path 7602" d="M245.558,87.291v13.676a40.193,40.193,0,0,0,40.193,40.193,27.809,27.809,0,0,0,27.809-27.809V92.757A31.907,31.907,0,0,0,281.653,60.85H272a26.442,26.442,0,0,0-26.441,26.441" transform="translate(-98.53 -24.413)" fill="#ffbfaa" stroke="#000" stroke-width="2"/>
          <path id="Path_7603" data-name="Path 7603" d="M253.063,47.363c0,11.115,40.25,11.115,40.25,0a20.125,20.125,0,0,0-40.25,0" transform="translate(-101.542 -10.927)" fill="#242424" stroke="#000" stroke-width="2"/>
          <path id="Path_7604" data-name="Path 7604" d="M343.339,286.329h47.9c-.328-7.49-1.016-15.056-1.057-22.519-.059-10.6-.123-22.56-6.7-31.418a32.41,32.41,0,0,0-25.522-13.131l-7.868-.091Z" transform="translate(-137.766 -87.939)" fill="#672376"/>
          <path id="Path_7605" data-name="Path 7605" d="M192.707,818a1.5,1.5,0,0,1-1.494-1.419l-5.03-96.828a1.5,1.5,0,1,1,2.99-.156l5.029,96.828A1.5,1.5,0,0,1,192.786,818l-.079,0" transform="translate(-74.705 -288.167)" fill="#2a0055"/>
          <path id="Path_7606" data-name="Path 7606" d="M235.142,84.274v27.358c26.611-9.838,41.925-23.1,47.415-39.344,5.853,12.239,17.583,19.1,33.059,22.534V90.751c0-15.934-10.253-28.672-24.765-34.382-14.09-5.545-34.116-5.875-45.8,5.069a31.452,31.452,0,0,0-9.906,22.837" transform="translate(-94.352 -21.099)" fill="#242424" stroke="#000" stroke-width="2"/>
          <path id="Path_7607" data-name="Path 7607" d="M317.718,165.273c-2.6-.22-6.372-1.219-8.05-4.981,0,0-4.671,9.907,6.557,8.93,2.375-.207,3.973-3.739,1.493-3.949" transform="translate(-123.869 -64.314)" fill="#fff"/>
          <path id="Path_7608" data-name="Path 7608" d="M328.671,154.039h-4.815a1.5,1.5,0,1,1,0-2.994h4.815a.073.073,0,0,0,.069-.037.075.075,0,0,0,.009-.078l-2.333-5.894a1.5,1.5,0,0,1,2.784-1.1l2.333,5.894a3.078,3.078,0,0,1-2.862,4.211" transform="translate(-129.348 -57.371)"/>
          <path id="Path_7609" data-name="Path 7609" d="M329.258,142.956a1.5,1.5,0,0,1-1.392-.947l-1.788-4.516a1.5,1.5,0,0,1,2.784-1.1l1.788,4.516a1.5,1.5,0,0,1-1.391,2.048" transform="translate(-130.798 -54.344)"/>
          <path id="Path_7610" data-name="Path 7610" d="M252.057,61.184a1.5,1.5,0,0,1-.98-2.63c11.578-10,29.007-9.807,41.457-6.287a1.5,1.5,0,0,1-.815,2.881c-11.165-3.157-28-3.566-38.684,5.672a1.494,1.494,0,0,1-.978.364" transform="translate(-100.538 -20.088)"/>
          <path id="Path_7611" data-name="Path 7611" d="M328.922,340.762A41.257,41.257,0,0,0,282,346.188l-18.3-61.154L69.722,343.086l58.052,193.976,61.154-18.3A41.226,41.226,0,1,1,260.6,497.312l61.154-18.3-18.3-61.154a41.229,41.229,0,0,0,25.474-77.094" transform="translate(-27.976 -114.367)" fill="#ee5064" stroke="#000" stroke-width="2"/>
          <path id="Path_7612" data-name="Path 7612" d="M165.674,648.22a1.5,1.5,0,0,1-.429-2.932l58.972-17.649a42.739,42.739,0,0,1,46.489-67.274,42.821,42.821,0,0,1,19.612,13.111,1.5,1.5,0,0,1-2.285,1.934,39.735,39.735,0,0,0-68.407,37.05,39.4,39.4,0,0,0,8.323,14.966,1.5,1.5,0,0,1-.69,2.428l-61.154,18.3a1.506,1.506,0,0,1-.43.063" transform="translate(-65.877 -224.027)"/>
          <path id="Path_7613" data-name="Path 7613" d="M126.316,233.088a1.5,1.5,0,0,1-.383-2.944c.332-.089,7.751-2.17,8.305-9.1a1.5,1.5,0,1,1,2.984.238c-.726,9.069-10.124,11.647-10.524,11.752a1.5,1.5,0,0,1-.382.05" transform="translate(-50.084 -88.14)"/>
          <path id="Path_7614" data-name="Path 7614" d="M224.136,482.321l11.071-.747a5.434,5.434,0,0,1,1.647,10.7l-18.54,4.481Z" transform="translate(-87.599 -193.224)" fill="#ffbfaa" stroke="#000" stroke-width="2"/>
          <path id="Path_7615" data-name="Path 7615" d="M339.049,135.031a2.272,2.272,0,1,0,2.272-2.272,2.272,2.272,0,0,0-2.272,2.272" transform="translate(-136.044 -53.267)"/>
          <path id="Path_7616" data-name="Path 7616" d="M309.173,135.031a2.272,2.272,0,1,0,2.272-2.272,2.272,2.272,0,0,0-2.272,2.272" transform="translate(-124.056 -53.267)"/>
          <path id="Path_7617" data-name="Path 7617" d="M343.478,125.252a1.49,1.49,0,0,1-.845-.262c-.191-.129-4.621-3.079-8.118-.1a1.5,1.5,0,0,1-1.943-2.278c4.21-3.589,9.532-1.63,11.758-.093a1.5,1.5,0,0,1-.852,2.728" transform="translate(-133.235 -48.383)"/>
          <path id="Path_7618" data-name="Path 7618" d="M313.6,125.252a1.49,1.49,0,0,1-.845-.262c-.191-.13-4.621-3.078-8.118-.1a1.5,1.5,0,1,1-1.943-2.278c4.209-3.589,9.532-1.63,11.758-.093a1.5,1.5,0,0,1-.852,2.728" transform="translate(-121.246 -48.383)"/>
          <path id="Path_7619" data-name="Path 7619" d="M112.913,368.149l39.62,76.052H184.55L157.486,358.97l5.609-28.376H117.23l-5.973,22.825a20.6,20.6,0,0,0,1.656,14.73" transform="translate(-44.372 -132.648)" fill="#ffbfaa" stroke="#000" stroke-width="2"/>
          <path id="Path_7620" data-name="Path 7620" d="M121.683,285.883h45.865l13.191-66.717-16.4.493a32.785,32.785,0,0,0-31.726,24.494Z" transform="translate(-48.825 -87.937)" fill="#672376" stroke="#000" stroke-width="2"/>
          <path id="Path_7621" data-name="Path 7621" d="M211.661,520.831H179.641a1.5,1.5,0,1,1,0-2.994h32.021a1.5,1.5,0,0,1,0,2.994" transform="translate(-71.48 -207.78)" fill="#fff"/>
          <path id="Path_7622" data-name="Path 7622" d="M169.037,484.75c-4.71,2.927,4.166,21.669,5.5,25.077,2.882,7.363,6.68,24.993,15.558,25.946a9.773,9.773,0,0,0,5.147-.848l3.06-1.417a5.836,5.836,0,0,0,5.847,3.358l3.175-.3a14.627,14.627,0,0,0,10.718-6.341l1.881,1.41a4.364,4.364,0,0,0,6.818-2.306,35.177,35.177,0,0,0-.013-19.163l-2.191-7.721a21.113,21.113,0,0,0-6.571-10.266l-8.585-7.359L195.864,468.26l-26.827,16.49" transform="translate(-67.278 -187.887)" fill="#ffbfaa" stroke="#000" stroke-width="2"/>
          <path id="Path_7623" data-name="Path 7623" d="M238.961,143.044h0a12.175,12.175,0,0,0,12.175-12.176V126.54a12.176,12.176,0,0,0-24.351,0v4.329a12.176,12.176,0,0,0,12.176,12.176" transform="translate(-90.998 -45.886)" fill="#ffbfaa" stroke="#000" stroke-width="2"/>
          <path id="Path_7624" data-name="Path 7624" d="M247.283,139.749a1.492,1.492,0,0,1-1.12-.5L239.1,131.3a1.5,1.5,0,1,1,2.238-1.988l7.06,7.942a1.5,1.5,0,0,1-1.119,2.491" transform="translate(-95.789 -51.683)"/>
          <path id="Path_7625" data-name="Path 7625" d="M186.212,176.895a1.5,1.5,0,0,1-1.5-1.5c0-3.751-3.947-6.909-7.258-8.9A1.5,1.5,0,1,1,179,163.934c5.7,3.422,8.711,7.387,8.711,11.464a1.5,1.5,0,0,1-1.5,1.5" transform="translate(-70.913 -65.689)"/>
          <path id="Path_7626" data-name="Path 7626" d="M313.251,774.066a1.5,1.5,0,0,1-1.454-1.145L272.411,610.534a1.5,1.5,0,1,1,2.909-.706l39.387,162.387a1.5,1.5,0,0,1-1.456,1.85" transform="translate(-109.289 -244.233)" fill="#2a0055"/>
          <path id="Path_7627" data-name="Path 7627" d="M504.663,249.031V213.005a2.175,2.175,0,0,1,3.367-1.818,20.251,20.251,0,0,1,9.072,15.271l.489,5.948,21.8-34.708a3.444,3.444,0,0,1,5.274-.679l21.307,20.012a7.536,7.536,0,0,1,.923,9.941l-19.458,26.6a70.475,70.475,0,0,1-24.23,20.845l-.362.189Z" transform="translate(-202.497 -78.676)" fill="#ffbfaa" stroke="#000" stroke-width="2"/>
          <path id="Path_7628" data-name="Path 7628" d="M572.6,255.944a1.5,1.5,0,0,1-1.206-2.381L588.7,229.921a1.5,1.5,0,0,1,2.415,1.769L573.8,255.331a1.5,1.5,0,0,1-1.209.613" transform="translate(-229.155 -92.007)" fill="#2a0055"/>
          <path id="Path_7629" data-name="Path 7629" d="M563.2,241.322a1.5,1.5,0,0,1-1.2-2.384l17.08-23.212a1.5,1.5,0,0,1,2.411,1.774l-17.079,23.212a1.5,1.5,0,0,1-1.207.61" transform="translate(-225.385 -86.313)" fill="#2a0055"/>
          <path id="Path_7630" data-name="Path 7630" d="M547.3,234.261a1.5,1.5,0,0,1-1.236-2.339l18.061-26.535a1.5,1.5,0,0,1,2.475,1.684l-18.061,26.536a1.493,1.493,0,0,1-1.239.654" transform="translate(-219.004 -82.146)" fill="#2a0055"/>
          <path id="Path_7631" data-name="Path 7631" d="M550.584,284.8a1.493,1.493,0,0,1-1.2-.6c-.056-.072-3.6-4.679-8.531-5.155-2.733-.265-5.459.8-8.1,3.169a1.5,1.5,0,1,1-2-2.228c3.3-2.957,6.8-4.275,10.411-3.918,6.262.618,10.438,6.1,10.613,6.336a1.5,1.5,0,0,1-1.2,2.394" transform="translate(-212.768 -110.748)" fill="#2a0055"/>
          <path id="Path_7632" data-name="Path 7632" d="M530.5,262.433a1.474,1.474,0,0,1-.258-.023,1.5,1.5,0,0,1-1.218-1.731c.161-.928-2.163-2.642-4.35-3.555a1.5,1.5,0,0,1,1.149-2.764c1.143.474,6.811,3.031,6.15,6.832a1.5,1.5,0,0,1-1.473,1.241" transform="translate(-210.158 -102.013)" fill="#2a0055"/>
          <path id="Path_7633" data-name="Path 7633" d="M181.267,378.48h-9.918a1.5,1.5,0,0,1,0-2.994h9.918a1.5,1.5,0,1,1,0,2.994" transform="translate(-68.153 -150.661)"/>
          <path id="Path_7634" data-name="Path 7634" d="M390.7,277.936a1.5,1.5,0,0,1-1.479-1.741c3.435-20.863-.087-46.453-15.934-53.332a1.5,1.5,0,0,1,1.193-2.746c8.287,3.6,14.172,11.842,17.018,23.84,2.275,9.592,2.522,21.519.678,32.725a1.5,1.5,0,0,1-1.475,1.254" transform="translate(-149.42 -88.27)" fill="#fff"/>
          <path id="Path_7635" data-name="Path 7635" d="M249.661,555.106a1.5,1.5,0,0,1-1.457-1.161l-2.2-9.556-3.46-17.848a1.5,1.5,0,0,1,2.939-.569l3.449,17.8,2.188,9.505a1.5,1.5,0,0,1-1.46,1.833" transform="translate(-97.31 -210.558)"/>
          <path id="Path_7636" data-name="Path 7636" d="M208.958,565.7a1.5,1.5,0,0,1-1.264-.693l-5.608-8.845-4.148-9.479a1.5,1.5,0,0,1,2.743-1.2l4.1,9.373,5.437,8.542a1.5,1.5,0,0,1-1.261,2.3" transform="translate(-79.373 -218.514)"/>
          <path id="Path_7637" data-name="Path 7637" d="M231.356,565.359a1.5,1.5,0,0,1-1.425-1.041L225.2,549.54l-3.535-8.838a1.5,1.5,0,1,1,2.779-1.112l3.591,8.987,4.745,14.828a1.5,1.5,0,0,1-1.426,1.954" transform="translate(-88.901 -216.131)"/>
          <path id="Path_7638" data-name="Path 7638" d="M1463.491,338.28h0a9.315,9.315,0,0,1-1.793-10.615,25.179,25.179,0,0,1,10-10.77l6.854,4.64.682,2.321Z" transform="translate(-586.138 -127.152)" fill="#ffbfaa"/>
          <path id="Path_7639" data-name="Path 7639" d="M1603.838,388.522a27.733,27.733,0,0,1-12.1,2.686l-79.847-30.8,22.325-25.059,28.646.2,4.193-49.626,49.88,18.928,2.695,57.328a27.728,27.728,0,0,1-15.791,26.343" transform="translate(-606.649 -114.724)" fill="#ffbfaa" stroke="#000" stroke-width="2"/>
          <path id="Path_7640" data-name="Path 7640" d="M1632.061,69.083a3.047,3.047,0,0,1,.721.177Z" transform="translate(-654.868 -27.717)" fill="#2a0055"/>
          <path id="Path_7641" data-name="Path 7641" d="M1701.32,197.5c-24.128,3.727-49.515,9.616-74.4,10.254a150.216,150.216,0,0,1-17.114-.483c-6.282-.554-13.1-1.741-18.732-4.885a22.808,22.808,0,0,1-6.4-5.168c-10.037-11.817-8.928-31.165-1.791-44.1,9.028-16.359,25.953-27,30.927-45.783,2.3-8.712,8.518-29.918-1.275-36.971a7.31,7.31,0,0,0-1.714-.976l91.311,22.132s-25.359,39.184,16.187,47.563,57.556,46.9-17,58.422" transform="translate(-632.911 -27.836)" fill="#262626" stroke="#000" stroke-width="2"/>
          <path id="Path_7642" data-name="Path 7642" d="M1728.519,62.424l-3.727,121.545h-37.586l1.286-12.205v-.005l3.217-30.461,8.318-78.873Z" transform="translate(-676.995 -25.045)" fill="#ffbfaa" stroke="#000" stroke-width="2"/>
          <path id="Path_7643" data-name="Path 7643" d="M1675.934,139.582h-.867a19.275,19.275,0,0,1-19.275-19.275V78.941h53.237v27.547a33.1,33.1,0,0,1-33.095,33.095" transform="translate(-664.39 -31.672)" fill="#ffbfaa" stroke="#000" stroke-width="2"/>
          <path id="Path_7644" data-name="Path 7644" d="M1726.581,425.022c19.761,25.571,58.938,50.013,54.741,86.183a64.928,64.928,0,0,0-.735,7.131c-.038,8.083,52.225,236.641,53.375,236.641H1786.4L1677.222,505.536l49.359-80.514" transform="translate(-672.989 -170.538)" fill="#ff5c5c"/>
          <path id="Path_7645" data-name="Path 7645" d="M1644.627,449.406c-3.188,27.934-3.125,59.337-.518,93.814,4.831,63.884,6.256,138.741,11.918,221.541h41.807L1735.48,451.68Z" transform="translate(-658.932 -180.322)" fill="#ff5c5c"/>
          <path id="Path_7646" data-name="Path 7646" d="M1631.465,296.881v58.183l-42.805-17.307,6.96-46.244c5.629,3.145,12.45,4.331,18.732,4.886a150.19,150.19,0,0,0,17.113.483" transform="translate(-637.453 -116.967)" fill="#ee5064" stroke="#000" stroke-width="2"/>
          <path id="Path_7647" data-name="Path 7647" d="M1809.066,272.793l-7.258,5.593-45.442,35-7.471,5.759-14.645-12.1-8.84,35.939-.948,3.845-4.526,18.39-89.39.693-3.691-11.926-.835-2.7-11.382-36.827-3.821-12.365-6.47-20.932c-.107-.421-.2-.841-.29-1.262a38.207,38.207,0,0,1,9.029-33.45c.61-.687,1.25-1.357,1.914-2,.9-.871,1.837-1.706,2.826-2.5l11.618-9.337,2.316-1.86,6.375-5.125,2.773-2.228,15.925-12.8-1.878,16.175,41.929-19.4,9.462,5.516,2.4,1.4,11.949,6.973,2.405,1.4,25.044,14.61,2.69,1.57,2.465,1.433,10.368,6.043,3.448,2.014Z" transform="translate(-643.294 -83.206)" fill="#ee5064" stroke="#000" stroke-width="2"/>
          <path id="Path_7648" data-name="Path 7648" d="M1624.728,356.115a9.7,9.7,0,0,0-8.812,5.656l3.821,12.366a9.612,9.612,0,0,0,4.99,1.387,9.7,9.7,0,1,0,0-19.409m0,16.636a6.932,6.932,0,1,1,6.932-6.932,6.941,6.941,0,0,1-6.932,6.932" transform="translate(-648.39 -142.889)" fill="#16f4d3"/>
          <path id="Path_7649" data-name="Path 7649" d="M1612.739,345.82a1.5,1.5,0,0,1-1.43-1.055l-9.4-30.406c-.008-.025-.014-.05-.021-.076q-.165-.653-.307-1.31a38.936,38.936,0,0,1,2.055-23.028,1.5,1.5,0,0,1,2.772,1.129,35.961,35.961,0,0,0-1.9,21.263q.128.588.275,1.176l9.387,30.368a1.5,1.5,0,0,1-1.431,1.939" transform="translate(-642.286 -115.964)"/>
          <path id="Path_7650" data-name="Path 7650" d="M1689.292,194.154l-3.216,30.461-4.891-22.548Z" transform="translate(-674.579 -77.902)" fill="#fff" stroke="#000" stroke-width="2"/>
          <path id="Path_7651" data-name="Path 7651" d="M1685.711,143.977H1680.9a3.077,3.077,0,0,1-2.861-4.211l2.333-5.894a1.5,1.5,0,1,1,2.783,1.1l-2.333,5.894a.085.085,0,0,0,.078.116h4.814a1.5,1.5,0,0,1,0,2.994" transform="translate(-673.228 -53.334)"/>
          <path id="Path_7652" data-name="Path 7652" d="M1683.4,132.894a1.5,1.5,0,0,1-1.391-2.048l1.788-4.516a1.5,1.5,0,0,1,2.784,1.1l-1.789,4.516a1.5,1.5,0,0,1-1.392.946" transform="translate(-674.867 -50.307)"/>
          <path id="Path_7653" data-name="Path 7653" d="M1673.766,124.969a2.272,2.272,0,1,1-2.272-2.272,2.272,2.272,0,0,1,2.272,2.272" transform="translate(-669.779 -49.229)"/>
          <path id="Path_7654" data-name="Path 7654" d="M1703.644,124.969a2.273,2.273,0,1,1-2.272-2.272,2.272,2.272,0,0,1,2.272,2.272" transform="translate(-681.767 -49.229)"/>
          <path id="Path_7655" data-name="Path 7655" d="M1663.718,115.19a1.5,1.5,0,0,1-.852-2.728c2.227-1.538,7.551-3.5,11.758.093a1.5,1.5,0,1,1-1.942,2.278c-3.531-3.011-8.069.061-8.114.093a1.491,1.491,0,0,1-.85.265" transform="translate(-666.969 -44.345)"/>
          <path id="Path_7656" data-name="Path 7656" d="M1693.594,115.19a1.5,1.5,0,0,1-.852-2.728c2.227-1.538,7.549-3.5,11.759.093a1.5,1.5,0,0,1-1.943,2.278c-3.531-3.01-8.07.061-8.115.093a1.489,1.489,0,0,1-.85.265" transform="translate(-678.957 -44.345)"/>
          <path id="Path_7657" data-name="Path 7657" d="M1668.548,74.124c8.033-.865,15.689-3.5,18.186-10.033,0,0-2.658,18.879,13.7,25.938,5.219,2.252,12.709,3.254,17.574-.311,7.706-5.647,5.68-17.161,3.7-25.081-8.907-35.621-50-42.194-78.9-27.04-10.565,5.538-17.221,16.666-7.3,26.45,8.277,8.165,21.757,11.292,33.048,10.078" transform="translate(-654.295 -12.016)" fill="#262626" stroke="#000" stroke-width="2"/>
          <path id="Path_7658" data-name="Path 7658" d="M1748.718,125.886h0a10.107,10.107,0,0,1-10.107-10.107v-3.594a10.107,10.107,0,0,1,20.214,0v3.594a10.107,10.107,0,0,1-10.107,10.107" transform="translate(-697.621 -40.956)" fill="#ffbfaa"/>
          <path id="Path_7659" data-name="Path 7659" d="M1755.575,123.114a1.492,1.492,0,0,1-.994-.378l-6.593-5.861a1.5,1.5,0,0,1,1.989-2.238l6.593,5.86a1.5,1.5,0,0,1-1,2.616" transform="translate(-701.183 -45.844)"/>
          <path id="Path_7660" data-name="Path 7660" d="M1694.066,179.327a1.5,1.5,0,0,1-.176-2.984,31.521,31.521,0,0,0,15.009-5.973,1.5,1.5,0,0,1,1.783,2.405,34.53,34.53,0,0,1-16.437,6.541,1.523,1.523,0,0,1-.18.011" transform="translate(-679.148 -68.24)"/>
          <path id="Path_7661" data-name="Path 7661" d="M1689.358,219.077l37.551-26.757,7.255,17.145-44.807,17.006Z" transform="translate(-677.859 -77.165)" fill="#fff" stroke="#000" stroke-width="2"/>
          <path id="Path_7662" data-name="Path 7662" d="M1484.56,351.57h41.589l-19.131-57.416h-43.1Z" transform="translate(-587.398 -118.027)" fill="#2a0055"/>
          <path id="Path_7663" data-name="Path 7663" d="M1467.41,351.57H1509l-19.131-57.416h-43.1Z" transform="translate(-580.517 -118.027)" fill="#aa5fff"/>
          <path id="Path_7664" data-name="Path 7664" d="M1503.151,335.073l-29.875-.319a9.478,9.478,0,0,0-9.265,11.9l5.475,20.731a15.453,15.453,0,0,0,14.459,11.5l26.8.838,2.017.021a5.156,5.156,0,0,0,5.016-6.559l-9.722-34.357a5.156,5.156,0,0,0-4.906-3.752" transform="translate(-587.309 -134.317)" fill="#ffbfaa" stroke="#000" stroke-width="2"/>
          <path id="Path_7665" data-name="Path 7665" d="M1526.8,355.255h-.016l-20.535-.219a1.5,1.5,0,0,1,.015-2.994h.016l20.535.219a1.5,1.5,0,0,1-.015,2.994" transform="translate(-603.792 -141.255)" fill="#2a0055"/>
          <path id="Path_7666" data-name="Path 7666" d="M1533.017,373.044H1533l-20.535-.219a1.5,1.5,0,0,1,.015-2.994h.016l20.535.219a1.5,1.5,0,0,1-.015,2.994" transform="translate(-606.285 -148.392)" fill="#2a0055"/>
          <path id="Path_7667" data-name="Path 7667" d="M1539.231,390.834h-.016l-20.534-.219a1.5,1.5,0,0,1,.014-2.994h.017l20.534.219a1.5,1.5,0,0,1-.015,2.994" transform="translate(-608.779 -155.53)" fill="#2a0055"/>
          <path id="Path_7668" data-name="Path 7668" d="M1673.68,393.791a6.49,6.49,0,0,1-3.7-1.7c-1.087-.822-1.787-1.3-2.318-1.064a1.386,1.386,0,0,1-1.137-2.529c2.07-.93,3.836.405,5.126,1.381,1.087.822,1.787,1.3,2.318,1.064s.636-1.082.744-2.441c.128-1.612.3-3.821,2.372-4.75s3.836.406,5.126,1.381c1.088.822,1.784,1.3,2.318,1.064s.638-1.083.747-2.442c.127-1.612.3-3.821,2.372-4.75s3.837.4,5.128,1.379c1.089.822,1.79,1.3,2.32,1.063a1.387,1.387,0,0,1,1.138,2.529c-2.072.931-3.84-.405-5.13-1.38-1.089-.822-1.787-1.3-2.32-1.063s-.638,1.082-.746,2.442c-.127,1.612-.3,3.821-2.373,4.75s-3.836-.405-5.126-1.381c-1.086-.82-1.784-1.3-2.318-1.064s-.637,1.082-.744,2.441c-.128,1.612-.3,3.821-2.372,4.751a3.442,3.442,0,0,1-1.423.314" transform="translate(-668.367 -151.949)" fill="#16f4d3"/>
          <path id="Path_7669" data-name="Path 7669" d="M1794.778,426.493l-.948,3.849a3.944,3.944,0,0,1-3.843.26c-2.013-1.02-2.1-3.2-2.168-4.791-.056-1.458-.144-2.174-.655-2.429s-1.136.089-2.351.9c-1.32.881-3.133,2.091-5.147,1.065s-2.1-3.2-2.168-4.791c-.055-1.459-.138-2.174-.649-2.435a1.384,1.384,0,1,1,1.254-2.467c2.018,1.026,2.1,3.2,2.168,4.791.061,1.458.144,2.174.655,2.435s1.136-.095,2.351-.9c1.32-.887,3.133-2.1,5.146-1.07s2.1,3.205,2.169,4.791c.049,1.336.121,2.163.648,2.435.511.26,1.143-.095,2.357-.9.361-.238.755-.5,1.181-.738" transform="translate(-712.66 -166.719)" fill="#16f4d3"/>
          <path id="Path_7670" data-name="Path 7670" d="M1745.991,281.295a6.488,6.488,0,0,1-3.7-1.7c-1.088-.822-1.786-1.3-2.318-1.064a1.386,1.386,0,1,1-1.136-2.529c2.069-.928,3.836.406,5.126,1.381,1.087.822,1.785,1.3,2.318,1.064s.638-1.082.745-2.44c.128-1.612.3-3.821,2.372-4.75s3.837.406,5.126,1.381c1.088.821,1.788,1.3,2.319,1.063s.638-1.082.745-2.441c.127-1.612.3-3.821,2.372-4.751s3.838.4,5.129,1.379c1.088.821,1.786,1.3,2.321,1.063a1.386,1.386,0,1,1,1.136,2.529c-2.068.929-3.836-.4-5.128-1.38-1.087-.821-1.785-1.3-2.321-1.063s-.638,1.083-.745,2.442c-.127,1.612-.3,3.821-2.372,4.75s-3.837-.405-5.127-1.381c-1.088-.822-1.788-1.3-2.319-1.064s-.637,1.082-.744,2.44c-.127,1.613-.3,3.821-2.372,4.751a3.431,3.431,0,0,1-1.424.314" transform="translate(-697.382 -106.81)" fill="#16f4d3"/>
          <path id="Path_7671" data-name="Path 7671" d="M1637.529,287.862a1.4,1.4,0,0,1-.959.383,1.368,1.368,0,0,1-1-.427c-1.5-1.569-1.125-3.416-.854-4.769.255-1.265.316-1.83-.139-2.3s-1.02-.438-2.3-.233c-1.359.216-3.222.516-4.73-1.054s-1.126-3.421-.854-4.769c.255-1.264.316-1.83-.138-2.3s-1.015-.438-2.291-.233c-1.314.211-3.089.493-4.558-.887.609-.688,1.248-1.353,1.913-2,.444.383,1.015.344,2.208.15,1.358-.216,3.228-.515,4.73,1.054s1.132,3.416.854,4.769c-.255,1.265-.316,1.824.139,2.3s1.02.438,2.3.233c1.359-.216,3.222-.515,4.73,1.054s1.131,3.421.854,4.769c-.255,1.264-.316,1.83.139,2.3a1.391,1.391,0,0,1-.039,1.963" transform="translate(-649.911 -108.031)" fill="#16f4d3"/>
          <path id="Path_7672" data-name="Path 7672" d="M1664.478,453.108a1.392,1.392,0,0,1-1.337,1.01,1.292,1.292,0,0,1-.377-.056c-2.2-.621-2.667-2.878-3.006-4.525-.277-1.359-.5-2.257-1.042-2.412s-1.209.494-2.163,1.5c-1.152,1.226-2.733,2.9-4.935,2.274s-2.663-2.878-3-4.525c-.278-1.359-.505-2.263-1.044-2.418s-1.208.5-2.162,1.508a7,7,0,0,1-3.271,2.324l-.838-2.7c.533.078,1.181-.56,2.1-1.525,1.148-1.22,2.734-2.894,4.93-2.268s2.668,2.878,3.006,4.52c.277,1.359.5,2.262,1.042,2.418s1.209-.5,2.157-1.508c1.153-1.22,2.734-2.895,4.936-2.268s2.667,2.878,3.005,4.525c.277,1.359.505,2.263,1.048,2.412a1.391,1.391,0,0,1,.954,1.714" transform="translate(-658.577 -177.013)" fill="#16f4d3"/>
          <path id="Path_7673" data-name="Path 7673" d="M1760.842,377.42l-9.615-16.659a1.39,1.39,0,0,0-1.2-.693,1.373,1.373,0,0,0-1.2.693L1739.2,377.42a1.386,1.386,0,0,0,1.2,2.079h19.243a1.386,1.386,0,0,0,1.2-2.079m-18.039-.693,7.22-12.5,7.22,12.5Z" transform="translate(-697.784 -144.475)" fill="#16f4d3"/>
          <path id="Path_7674" data-name="Path 7674" d="M1701.215,290.764l-9.621-16.664a1.387,1.387,0,0,0-2.4,0l-9.621,16.664a1.386,1.386,0,0,0,1.2,2.079h19.237a1.386,1.386,0,0,0,1.2-2.079m-18.039-.693,7.22-12.5,7.214,12.5Z" transform="translate(-673.858 -109.702)" fill="#16f4d3"/>
          <path id="Path_7675" data-name="Path 7675" d="M21.827,17.357,12.206.693a1.387,1.387,0,0,0-2.4,0L.183,17.357a1.386,1.386,0,0,0,1.2,2.079H20.624a1.386,1.386,0,0,0,1.2-2.079M3.788,16.664l7.22-12.5,7.214,12.5Z" transform="matrix(-0.087, 0.996, -0.996, -0.087, 999.559, 186.019)" fill="#16f4d3"/>
          <path id="Path_7676" data-name="Path 7676" d="M1655.714,236.357v8.806l-6.377-3.682-2.317,1.863,9.388,5.423a1.4,1.4,0,0,0,.692.183,1.381,1.381,0,0,0,1.387-1.387V234.128Z" transform="translate(-660.87 -93.942)" fill="#16f4d3"/>
          <path id="Path_7677" data-name="Path 7677" d="M1891.155,324.338a1.381,1.381,0,0,0-1.1-.848L1871,320.883a1.385,1.385,0,0,0-1.47,1.9l7.275,17.806a1.382,1.382,0,0,0,1.092.848,1.112,1.112,0,0,0,.189.017,1.4,1.4,0,0,0,1.1-.538l11.784-15.211a1.371,1.371,0,0,0,.189-1.37m-12.694,12.982L1873,323.956l14.3,1.952Z" transform="translate(-750.11 -128.747)" fill="#16f4d3"/>
          <path id="Path_7678" data-name="Path 7678" d="M1819.454,352.176a1.38,1.38,0,0,0-1.1-.846l-19.06-2.607a1.391,1.391,0,0,0-1.468,1.9l2.179,5.334,4.042,2.561-2.749-6.726,14.3,1.962-6.285,8.112,2.349,1.492,7.6-9.8a1.4,1.4,0,0,0,.188-1.38" transform="translate(-721.34 -139.917)" fill="#16f4d3"/>
          <path id="Path_7679" data-name="Path 7679" d="M1860.163,267.4l-13.065,3.183,2.7-9.227-2.468-1.436-3.565,12.194a1.375,1.375,0,0,0,.327,1.342,1.391,1.391,0,0,0,1,.432,1.706,1.706,0,0,0,.327-.039l18.189-4.436Z" transform="translate(-739.792 -104.291)" fill="#16f4d3"/>
          <path id="Path_7680" data-name="Path 7680" d="M1728.622,426.6a9.7,9.7,0,1,0,9.7,9.7,9.715,9.715,0,0,0-9.7-9.7m0,16.636a6.932,6.932,0,1,1,6.932-6.932,6.938,6.938,0,0,1-6.932,6.932" transform="translate(-689.719 -171.17)" fill="#16f4d3"/>
          <path id="Path_7681" data-name="Path 7681" d="M1827.759,294.95a9.7,9.7,0,1,0,9.7,9.7,9.719,9.719,0,0,0-9.7-9.7m0,16.636a6.932,6.932,0,1,1,6.932-6.932,6.942,6.942,0,0,1-6.932,6.932" transform="translate(-729.498 -118.346)" fill="#16f4d3"/>
          <path id="Path_7682" data-name="Path 7682" d="M1789.035,224.959a6.927,6.927,0,0,1-12.738-3.776,6.842,6.842,0,0,1,.787-3.2l-2.4-1.4a9.7,9.7,0,0,0,16.752,9.771Z" transform="translate(-711.631 -86.903)" fill="#16f4d3"/>
          <path id="Path_7683" data-name="Path 7683" d="M1634.874,338.474a41.226,41.226,0,1,1-64.006,38.727l-54.614,33.044L1549.3,464.86a41.226,41.226,0,1,0,38.727,64.005l33.045,54.615,173.235-104.816L1689.489,305.429Z" transform="translate(-606.924 -122.551)" fill="#aa5fff" stroke="#000" stroke-width="2"/>
          <path id="Path_7684" data-name="Path 7684" d="M1713.028,408.458a1.5,1.5,0,0,1-.776-2.778,39.75,39.75,0,0,0,1.619-66.967,1.5,1.5,0,0,1,.06-2.523l54.615-33.045a1.5,1.5,0,0,1,2.055.506l29.128,48.14a1.5,1.5,0,1,1-2.561,1.55l-28.353-46.859-51.385,31.091a42.739,42.739,0,0,1-3.628,70.669,1.484,1.484,0,0,1-.773.216" transform="translate(-686.755 -121.548)" fill="#2a0055"/>
          <path id="Path_7685" data-name="Path 7685" d="M1898.339,376.855l-76.131,85.783-27.354-17.282,42.515-81.221-4.106-3.158,45.441-35,14.954,11.5a27.726,27.726,0,0,1,4.68,39.381" transform="translate(-720.189 -130.795)" fill="#ffbfaa" stroke="#000" stroke-width="2"/>
          <path id="Path_7686" data-name="Path 7686" d="M1781.531,521.075l-15.746,6.84a24.8,24.8,0,0,0-8.385,18.592.384.384,0,0,0,.384.384h.321a29.963,29.963,0,0,0,17.85-5.9.383.383,0,0,1,.553.1l13.554,21.26a26.832,26.832,0,0,0,11.943,10.2c10.045,4.355,18.623,4.536,25.354-.527a.393.393,0,0,0,.157-.313c.023-11.112-3.355-23.891-12.46-39.48a.388.388,0,0,0-.235-.18l-32.935-11.069a.384.384,0,0,0-.355.083" transform="translate(-705.161 -209.041)" fill="#ffbfaa" stroke="#000" stroke-width="2"/>
          <path id="Path_7687" data-name="Path 7687" d="M1825.254,594a1.5,1.5,0,0,1-1.4-.972l-8.648-23.078a1.5,1.5,0,0,1,2.8-1.05l8.648,23.078a1.5,1.5,0,0,1-1.4,2.022" transform="translate(-728.316 -227.881)"/>
          <path id="Path_7688" data-name="Path 7688" d="M1845,596.245a1.5,1.5,0,0,1-1.4-.972l-8.647-23.077a1.5,1.5,0,1,1,2.8-1.05l8.648,23.078a1.5,1.5,0,0,1-1.4,2.023" transform="translate(-736.241 -228.78)"/>
          <path id="Path_7689" data-name="Path 7689" d="M1862.637,595.8a1.5,1.5,0,0,1-1.425-1.041l-6.533-20.393a1.5,1.5,0,0,1,2.851-.913l6.533,20.392a1.5,1.5,0,0,1-1.427,1.954" transform="translate(-744.165 -229.68)"/>
          <path id="Path_7690" data-name="Path 7690" d="M1328.695,539.557,1339.5,579.37h36.729l-2.952-39.813Z" transform="translate(-642.174 -216.495)" fill="#ffbfaa" stroke="#000" stroke-width="2"/>
          <path id="Path_7691" data-name="Path 7691" d="M1316.124,347.724l-12.952,112.6h38.69L1365.991,342.1Z" transform="translate(-616.65 -137.265)" fill="#ffbfaa" stroke="#000" stroke-width="2"/>
          <path id="Path_7692" data-name="Path 7692" d="M1399.1,539.557v11a6.3,6.3,0,0,1-12.5,1.059l-.907-5.319Z" transform="translate(-556.011 -216.495)" fill="#ffbfaa"/>
          <path id="Path_7693" data-name="Path 7693" d="M1391.8,557.343a7.776,7.776,0,0,1-7.683-6.483l-.907-5.319a1.5,1.5,0,1,1,2.951-.5l.907,5.319a4.8,4.8,0,0,0,9.532-.807v-11a1.5,1.5,0,0,1,2.994,0v11a7.8,7.8,0,0,1-7.794,7.794" transform="translate(-555.008 -215.492)" fill="#2a0055"/>
          <path id="Path_7694" data-name="Path 7694" d="M1234.963,768.545h67.272l1.114-287.419h-76.781Z" transform="translate(-508.143 -193.05)" fill="#2a0055"/>
          <path id="Path_7695" data-name="Path 7695" d="M1122.195,768.545h67.272l8.394-287.419H1121.08Z" transform="translate(-339.494 -193.05)" fill="#2a0055"/>
          <path id="Path_7696" data-name="Path 7696" d="M1112.255,368.152H1252.2l13.085-150.607a21.725,21.725,0,0,0-15.578-22.741l-67.479-19.62-67.5,19.626a21.7,21.7,0,0,0-15.559,22.715Z" transform="translate(-393.832 -70.289)" fill="#aa5fff" stroke="#000" stroke-width="2"/>
          <path id="Path_7697" data-name="Path 7697" d="M1198.986,154.045h0a28.836,28.836,0,0,0,43.655,3.035l2.995-3.035V98.95h-46.649Z" transform="translate(-433.914 -39.701)" fill="#ffbfaa" stroke="#000" stroke-width="2"/>
          <path id="Path_7698" data-name="Path 7698" d="M1221.121,203.077a30.3,30.3,0,0,0,21.582-9.028l2.994-3.034a1.5,1.5,0,0,0-2.131-2.1l-2.994,3.035a27.34,27.34,0,0,1-41.39-2.877,1.5,1.5,0,1,0-2.4,1.788A30.3,30.3,0,0,0,1219.009,203c.7.049,1.41.074,2.112.074" transform="translate(-432.91 -75.62)"/>
          <path id="Path_7699" data-name="Path 7699" d="M1209.324,116.154h44.407V56.636h-51.878v52.048a7.47,7.47,0,0,0,7.47,7.471" transform="translate(-443.728 -22.722)" fill="#ffbfaa" stroke="#000" stroke-width="2"/>
          <path id="Path_7700" data-name="Path 7700" d="M1250.816,69.3s18.5-13.1,3.62-19.332c0,0,14.075-11.059-1.408-13.673,0,0,6.212-18.7-10.567-13.875,0,0-15.573-17.494-26.431.6,0,0-10.657-19.3-21.515-1.408,0,0-19.3,2.815-14.076,18.5,0,0-2.815,21.428,10.858,14.535,0,0-6.434,12.41,4.424,6.377,0,0,2.259-8.043-1.005-12.265,0,0,15.885,8.847,23.526,1.809,0,0,4.223,5.027,13.07.2,0,0,3.62,9.652,10.054,6.234,0,0,.559,22.434,9.45,12.295" transform="translate(-436.93 -5.619)" fill="#242424" stroke="#000" stroke-width="2"/>
          <path id="Path_7701" data-name="Path 7701" d="M1248.436,156.535h15.916a1.5,1.5,0,0,0,0-2.994h-15.916a1.5,1.5,0,0,0,0,2.994" transform="translate(-482.84 -61.606)"/>
          <path id="Path_7702" data-name="Path 7702" d="M1254.594,178.909l7.525-3.362a1.5,1.5,0,0,0-1.221-2.734l-5.977,2.67-3.613-2.53a1.5,1.5,0,1,0-1.716,2.453Z" transform="translate(-481.204 -69.286)"/>
          <path id="Path_7703" data-name="Path 7703" d="M1233.052,108.723a13.884,13.884,0,0,0,12.572-8.049,5.827,5.827,0,0,0-5.292-8.266h-14.559a5.827,5.827,0,0,0-5.293,8.266,13.884,13.884,0,0,0,12.573,8.049m7.28-13.322a2.833,2.833,0,0,1,2.573,4.019,10.849,10.849,0,0,1-19.706,0,2.833,2.833,0,0,1,2.573-4.019Z" transform="translate(-446.987 -37.076)" fill="#fff"/>
          <path id="Path_7704" data-name="Path 7704" d="M1279.537,108.723a13.886,13.886,0,0,0,12.573-8.049,5.828,5.828,0,0,0-5.293-8.266h-14.559a5.827,5.827,0,0,0-5.293,8.266,13.884,13.884,0,0,0,12.572,8.049m7.279-13.322a2.833,2.833,0,0,1,2.574,4.019,10.85,10.85,0,0,1-19.707,0,2.833,2.833,0,0,1,2.574-4.019Z" transform="translate(-521.308 -37.076)" fill="#fff"/>
          <path id="Path_7705" data-name="Path 7705" d="M1209.383,101.633h7.266a1.5,1.5,0,1,0,0-2.994h-7.266a1.5,1.5,0,1,0,0,2.994" transform="translate(-411.754 -39.576)" fill="#fff"/>
          <path id="Path_7706" data-name="Path 7706" d="M1190.319,110.265h0a10.107,10.107,0,0,0,10.107-10.107V96.565a10.107,10.107,0,0,0-20.214,0v3.594a10.106,10.106,0,0,0,10.107,10.107" transform="translate(-377.465 -34.688)" fill="#ffbfaa" stroke="#000" stroke-width="2"/>
          <path id="Path_7707" data-name="Path 7707" d="M1190.584,107.492a1.489,1.489,0,0,0,.994-.378l6.593-5.86a1.5,1.5,0,1,0-1.989-2.238l-6.593,5.859a1.5,1.5,0,0,0,1,2.616" transform="translate(-381.025 -39.576)"/>
          <path id="Path_7708" data-name="Path 7708" d="M1260.234,101.633h4.653a1.5,1.5,0,1,0,0-2.994h-4.653a1.5,1.5,0,0,0,0,2.994" transform="translate(-490.438 -39.576)" fill="#fff"/>
          <path id="Path_7709" data-name="Path 7709" d="M1241.121,103.487a2,2,0,1,0,2-2,2,2,0,0,0-2,2" transform="translate(-458.627 -40.719)"/>
          <path id="Path_7710" data-name="Path 7710" d="M1282.447,103.487a2,2,0,1,0,2-2,2,2,0,0,0-2,2" transform="translate(-524.697 -40.719)"/>
          <path id="Path_7711" data-name="Path 7711" d="M1262.528,118.736h6.721a1.5,1.5,0,1,0,0-2.994h-4.418l4.353-9.8a1.5,1.5,0,0,0-2.736-1.216l-5.288,11.9a1.5,1.5,0,0,0,1.368,2.1" transform="translate(-496.174 -41.662)"/>
          <path id="Path_7712" data-name="Path 7712" d="M1334.982,231.035l-19.9,76.145h42.224l13.463-73.192Z" transform="translate(-628.561 -92.701)" fill="#aa5fff" stroke="#000" stroke-width="2"/>
          <path id="Path_7713" data-name="Path 7713" d="M1365.9,323.962c-.043,0-.087,0-.131-.005a1.5,1.5,0,0,1-1.361-1.621l4.5-51.842a1.5,1.5,0,0,1,2.983.259l-4.5,51.841a1.5,1.5,0,0,1-1.49,1.368" transform="translate(-547.47 -107.984)"/>
          <path id="Path_7714" data-name="Path 7714" d="M1213.625,353.561a41.238,41.238,0,0,1-16.08-77.882c.495-.254,1-.5,1.5-.732l-50.883-39.882-39.377,50.24a41.234,41.234,0,1,0-46.147,58.877l-39.377,50.239L1073.5,433.8a41.228,41.228,0,1,1,58.877,46.147l50.24,39.378,124.9-159.355-50.753-39.78c-.1.546-.223,1.094-.351,1.635a41.262,41.262,0,0,1-42.792,31.737" transform="translate(-390.588 -94.318)" fill="#ff5c5c" stroke="#000" stroke-width="2"/>
          <path id="Path_7715" data-name="Path 7715" d="M1471.734,318.955a1.5,1.5,0,0,1-1.458-1.16,39.913,39.913,0,0,0-15.677-23.428,1.5,1.5,0,1,1,1.736-2.438,42.9,42.9,0,0,1,16.858,25.193,1.5,1.5,0,0,1-1.123,1.8,1.515,1.515,0,0,1-.337.038" transform="translate(-583.409 -117.022)" fill="#fff"/>
          <path id="Path_7716" data-name="Path 7716" d="M1291.077,317.459a1.438,1.438,0,0,0,.182-.011,1.5,1.5,0,0,0,1.305-1.666,39.743,39.743,0,0,1,21.385-40.175c.48-.247.963-.484,1.448-.705l2.238-1.022-54-42.322-38.9,49.625a42.87,42.87,0,0,0-23.1-18.979,1.5,1.5,0,0,0-.97,2.833,39.84,39.84,0,0,1,22.514,19.541l1.065,2.09,39.9-50.908,47.836,37.494a42.739,42.739,0,0,0-22.391,42.888,1.5,1.5,0,0,0,1.484,1.317" transform="translate(-506.315 -92.91)" fill="#2a0055"/>
          <path id="Path_7717" data-name="Path 7717" d="M1188.207,342.1l12.7,40.038a20.335,20.335,0,0,1-20.936,26.423l-107.013-10.97.593-31.4,54-6,7.667-6.44Z" transform="translate(-314.693 -137.266)" fill="#ffbfaa" stroke="#000" stroke-width="2"/>
          <path id="Path_7718" data-name="Path 7718" d="M1134.377,230.875l15.251,76.242-72.723,8.451-1.27-36.07Z" transform="translate(-264.051 -92.636)" fill="#aa5fff" stroke="#000" stroke-width="2"/>
          <path id="Path_7719" data-name="Path 7719" d="M1202.492,353.2a1.5,1.5,0,0,0,1.463-1.817l-6.4-29.267a1.5,1.5,0,0,0-2.925.64l6.4,29.268a1.5,1.5,0,0,0,1.461,1.177" transform="translate(-389.639 -128.776)"/>
          <path id="Path_7720" data-name="Path 7720" d="M1199.43,132.591a10.62,10.62,0,0,0,4.673-1.262,1.5,1.5,0,0,0-1.448-2.621c-.675.369-2.744,1.222-4.212.748a1.5,1.5,0,1,0-.921,2.849,6.191,6.191,0,0,0,1.907.286" transform="translate(-391.657 -51.567)"/>
          <path id="Path_7721" data-name="Path 7721" d="M1377.725,590.959l1.809-22.521Z" transform="translate(-552.815 -228.084)" fill="#f9aea6"/>
          <path id="Path_7722" data-name="Path 7722" d="M1376.723,591.453c-.04,0-.081,0-.121,0a1.5,1.5,0,0,1-1.372-1.612l1.809-22.521a1.5,1.5,0,0,1,2.985.24l-1.81,22.52a1.5,1.5,0,0,1-1.49,1.377" transform="translate(-551.812 -227.081)" fill="#2a0055"/>
          <path id="Path_7723" data-name="Path 7723" d="M1363.281,590.959l-2.011-22.521Z" transform="translate(-546.212 -228.084)" fill="#f9aea6"/>
          <path id="Path_7724" data-name="Path 7724" d="M1362.275,591.452a1.5,1.5,0,0,1-1.489-1.364l-2.011-22.521a1.5,1.5,0,0,1,2.983-.266l2.011,22.521a1.5,1.5,0,0,1-1.357,1.625c-.047,0-.091.006-.135.006" transform="translate(-545.209 -227.081)" fill="#2a0055"/>
          <path id="Path_7725" data-name="Path 7725" d="M1354.805,534.437s11.713-1.207,10.908-7.641Z" transform="translate(-543.619 -211.375)" fill="#f9aea6"/>
          <path id="Path_7726" data-name="Path 7726" d="M1353.8,534.93a1.5,1.5,0,0,1-.153-2.986c1.834-.193,7.007-1.215,8.909-3.61a2.977,2.977,0,0,0,.669-2.356,1.5,1.5,0,0,1,2.971-.372,5.949,5.949,0,0,1-1.3,4.595c-3.077,3.87-10.622,4.688-10.941,4.721a1.5,1.5,0,0,1-.155.008" transform="translate(-542.615 -210.371)" fill="#2a0055"/>
          <path id="Path_7727" data-name="Path 7727" d="M1229.8,375.521s8.053,2.22,9.747,7.6Z" transform="translate(-446.28 -150.675)" fill="#f9aea6"/>
          <path id="Path_7728" data-name="Path 7728" d="M1238.545,383.612a1.5,1.5,0,0,0,1.429-1.947c-1.918-6.084-10.417-8.491-10.778-8.591a1.5,1.5,0,0,0-.8,2.885c.072.02,7.291,2.078,8.718,6.605a1.5,1.5,0,0,0,1.428,1.047" transform="translate(-445.276 -149.672)"/>
          <path id="Path_7729" data-name="Path 7729" d="M1204.686,375.521s8.052,2.22,9.746,7.6Z" transform="translate(-406.126 -150.675)" fill="#f9aea6"/>
          <path id="Path_7730" data-name="Path 7730" d="M1213.428,383.612a1.5,1.5,0,0,0,1.428-1.947c-1.917-6.084-10.417-8.491-10.778-8.591a1.5,1.5,0,0,0-.8,2.885c.072.02,7.292,2.078,8.718,6.605a1.5,1.5,0,0,0,1.428,1.047" transform="translate(-405.12 -149.672)"/>
          <path id="Path_7731" data-name="Path 7731" d="M1243.891,854.509h.055a1.471,1.471,0,0,0,1.442-1.5l-5.8-156.238a1.488,1.488,0,0,0-1.549-1.4,1.471,1.471,0,0,0-1.442,1.5l5.8,156.238a1.477,1.477,0,0,0,1.495,1.4" transform="translate(-456.189 -279.014)" fill="#fff"/>
          <path id="Path_7732" data-name="Path 7732" d="M1322.058,541.665h.019c10.162-.125,15.237-4.795,17.7-8.69a1.5,1.5,0,1,0-2.53-1.6c-3.012,4.756-8.13,7.211-15.211,7.3a1.5,1.5,0,0,0,.017,2.994" transform="translate(-601.087 -212.932)" fill="#fff"/>
          <path id="Path_7733" data-name="Path 7733" d="M1141.619,222.1a1.481,1.481,0,0,0,.5-.089,1.5,1.5,0,0,0,.9-1.911c-.154-.429-3.868-10.538-14.108-13.823-8.313-2.667-18.3-.014-29.672,7.884a1.5,1.5,0,1,0,1.707,2.46c10.557-7.329,19.646-9.853,27.021-7.5,8.827,2.814,12.2,11.9,12.233,11.992a1.5,1.5,0,0,0,1.41.99" transform="translate(-271.293 -82.362)"/>
          <path id="Path_7734" data-name="Path 7734" d="M1302.891,368.365,1298.2,358.31a5.434,5.434,0,0,0-10.167,3.726l5.029,18.4Z" transform="translate(-544.372 -142.511)" fill="#ffbfaa" stroke="#000" stroke-width="2"/>
          <path id="Path_7735" data-name="Path 7735" d="M1163.717,735.278a1.5,1.5,0,1,0,0-2.994,37.8,37.8,0,0,1-37.751-35.813l-.8-15.259h41.882a1.5,1.5,0,1,0,0-2.994h-45.037l.97,18.41a40.789,40.789,0,0,0,40.74,38.649" transform="translate(-310.729 -272.134)" fill="#00c9b9"/>
          <path id="Path_7736" data-name="Path 7736" d="M1151.573,708.573a7.449,7.449,0,1,0-7.448-7.449,7.457,7.457,0,0,0,7.448,7.449m0-11.9a4.455,4.455,0,1,1-4.455,4.455,4.46,4.46,0,0,1,4.455-4.455" transform="translate(-314.452 -278.336)" fill="#00c9b9"/>
          <path id="Path_7737" data-name="Path 7737" d="M1338.094,402.83l-3.066.512a48.478,48.478,0,0,1-18.974-.6l-5.791-1.347-16.583,2.993a9.771,9.771,0,0,1-11.443-10.738l.388-3.349a5.836,5.836,0,0,1-5.02-4.5l-.708-3.11a14.628,14.628,0,0,1,2.667-12.165l-1.927-1.345a4.364,4.364,0,0,1,.055-7.2A35.186,35.186,0,0,1,1295.9,356l8.02-.336a21.107,21.107,0,0,1,11.806,3.027l9.676,5.85,19.958,7.653Z" transform="translate(-579.61 -142.699)" fill="#ffbfaa" stroke="#000" stroke-width="2"/>
          <path id="Path_7738" data-name="Path 7738" d="M1345.488,380.711a1.49,1.49,0,0,0,.612-.131l8.831-3.961,14.007,1.618a1.5,1.5,0,1,0,.344-2.974l-14.824-1.713-9.583,4.3a1.5,1.5,0,0,0,.613,2.863" transform="translate(-645.708 -149.884)"/>
          <path id="Path_7739" data-name="Path 7739" d="M1348.041,420.289a1.5,1.5,0,0,0,.684-.166l7.861-4.042,10.44-.915a1.5,1.5,0,0,0-.262-2.982l-11.026.967-8.383,4.31a1.5,1.5,0,0,0,.686,2.828" transform="translate(-645.018 -165.384)"/>
          <path id="Path_7740" data-name="Path 7740" d="M1348.654,404.143a1.5,1.5,0,0,0,.756-.205l10.41-6.1,12.038.411h.052a1.5,1.5,0,0,0,.05-2.992l-12.9-.441-11.159,6.538a1.5,1.5,0,0,0,.758,2.789" transform="translate(-650.403 -158.418)"/>
          <path id="Path_7741" data-name="Path 7741" d="M986.735,138.211h0a1.5,1.5,0,0,1-1.314-.779l-5.1-9.333-9.333-5.1a1.5,1.5,0,0,1,0-2.626l9.333-5.1,5.1-9.333a1.5,1.5,0,0,1,2.627,0l5.1,9.333,9.333,5.1a1.5,1.5,0,0,1,0,2.626l-9.333,5.1-5.1,9.333a1.5,1.5,0,0,1-1.313.779m-11.912-16.529,7.316,4a1.5,1.5,0,0,1,.595.595l4,7.317,4-7.317a1.494,1.494,0,0,1,.595-.595l7.316-4-7.316-4a1.5,1.5,0,0,1-.595-.6l-4-7.316-4,7.316a1.5,1.5,0,0,1-.595.6Z" transform="translate(-389.298 -42.19)" fill="#a62973" opacity="0.24"/>
          <path id="Path_7742" data-name="Path 7742" d="M17.22,117.06a1.5,1.5,0,0,1-1.313-.778l-5.1-9.333-9.333-5.1a1.5,1.5,0,0,1,0-2.626l9.333-5.1,5.1-9.333a1.5,1.5,0,0,1,2.626,0l5.1,9.333,9.333,5.1a1.5,1.5,0,0,1,0,2.626l-9.333,5.1-5.1,9.333a1.5,1.5,0,0,1-1.313.778M5.308,100.531l7.316,4a1.5,1.5,0,0,1,.595.6l4,7.316,4-7.316a1.5,1.5,0,0,1,.595-.6l7.316-4-7.316-4a1.5,1.5,0,0,1-.595-.595l-4-7.316-4,7.316a1.5,1.5,0,0,1-.595.595Z" transform="translate(69.923 -62.853)" fill="#a62973" opacity="0.24"/>
          <path id="Path_7743" data-name="Path 7743" d="M502.672,37.661a18.833,18.833,0,1,1,18.833-18.833,18.855,18.855,0,0,1-18.833,18.833m0-34.672a15.839,15.839,0,1,0,15.839,15.839A15.857,15.857,0,0,0,502.672,2.989" transform="translate(-194.141 0.005)" fill="#a62973" opacity="0.24"/>
          <path id="Path_7744" data-name="Path 7744" d="M1021.394,714.025a18.833,18.833,0,1,1,18.833-18.833,18.854,18.854,0,0,1-18.833,18.833m0-34.672a15.839,15.839,0,1,0,15.839,15.839,15.857,15.857,0,0,0-15.839-15.839" transform="translate(-402.28 -271.388)" fill="#a62973" opacity="0.24"/>
          <path id="Path_7745" data-name="Path 7745" d="M2012.3,150.027a18.833,18.833,0,1,1,18.832-18.833,18.854,18.854,0,0,1-18.832,18.833m0-34.672a15.839,15.839,0,1,0,15.839,15.839,15.857,15.857,0,0,0-15.839-15.839" transform="translate(-799.883 -45.082)" fill="#eacbdd"/>
          <path id="Path_7746" data-name="Path 7746" d="M2022.8,720.579h-11.271a1.5,1.5,0,0,1,0-2.994H2022.8a1.5,1.5,0,0,1,0,2.994" transform="translate(-806.531 -287.929)" fill="#f0e6ff"/>
          <path id="Path_7747" data-name="Path 7747" d="M1478.742,97.234a1.5,1.5,0,0,1-1.5-1.5V84.466a1.5,1.5,0,0,1,2.994,0V95.737a1.5,1.5,0,0,1-1.5,1.5" transform="translate(-592.748 -33.288)" fill="#eacbdd"/>
          <path id="Path_7748" data-name="Path 7748" d="M1478.742,141.786a1.5,1.5,0,0,1-1.5-1.5V129.018a1.5,1.5,0,0,1,2.994,0v11.271a1.5,1.5,0,0,1-1.5,1.5" transform="translate(-592.748 -51.165)" fill="#eacbdd"/>
          <path id="Path_7749" data-name="Path 7749" d="M1502.877,117.651h-11.271a1.5,1.5,0,1,1,0-2.994h11.271a1.5,1.5,0,0,1,0,2.994" transform="translate(-597.909 -46.003)" fill="#eacbdd"/>
          <path id="Path_7750" data-name="Path 7750" d="M1458.324,117.651h-11.271a1.5,1.5,0,0,1,0-2.994h11.271a1.5,1.5,0,1,1,0,2.994" transform="translate(-580.032 -46.003)" fill="#eacbdd"/>
          <path id="Path_7751" data-name="Path 7751" d="M488.482,687.89a1.5,1.5,0,0,1-1.5-1.5v-11.27a1.5,1.5,0,1,1,2.994,0v11.27a1.5,1.5,0,0,1-1.5,1.5" transform="translate(-195.404 -270.29)" fill="#eacbdd"/>
          <path id="Path_7752" data-name="Path 7752" d="M488.482,732.443a1.5,1.5,0,0,1-1.5-1.5V719.675a1.5,1.5,0,1,1,2.994,0v11.271a1.5,1.5,0,0,1-1.5,1.5" transform="translate(-195.404 -288.167)" fill="#eacbdd"/>
          <path id="Path_7753" data-name="Path 7753" d="M512.617,708.307H501.346a1.5,1.5,0,1,1,0-2.994h11.271a1.5,1.5,0,0,1,0,2.994" transform="translate(-200.566 -283.005)" fill="#eacbdd"/>
          <path id="Path_7754" data-name="Path 7754" d="M468.065,708.307H456.794a1.5,1.5,0,1,1,0-2.994h11.271a1.5,1.5,0,0,1,0,2.994" transform="translate(-182.689 -283.005)" fill="#eacbdd"/>
          <path id="Path_7755" data-name="Path 7755" d="M33.185,663.389a1.5,1.5,0,0,1-1.5-1.5V650.622a1.5,1.5,0,0,1,2.994,0v11.271a1.5,1.5,0,0,1-1.5,1.5" transform="translate(-12.715 -260.46)" fill="#eacbdd"/>
          <path id="Path_7756" data-name="Path 7756" d="M33.185,707.942a1.5,1.5,0,0,1-1.5-1.5V695.174a1.5,1.5,0,1,1,2.994,0v11.271a1.5,1.5,0,0,1-1.5,1.5" transform="translate(-12.715 -278.336)" fill="#eacbdd"/>
          <path id="Path_7757" data-name="Path 7757" d="M57.32,683.806H46.049a1.5,1.5,0,1,1,0-2.994H57.32a1.5,1.5,0,1,1,0,2.994" transform="translate(-17.877 -273.174)" fill="#eacbdd"/>
          <path id="Path_7758" data-name="Path 7758" d="M12.768,683.806H1.5a1.5,1.5,0,1,1,0-2.994H12.768a1.5,1.5,0,1,1,0,2.994" transform="translate(0 -273.174)" fill="#eacbdd"/>
          <path id="Path_7759" data-name="Path 7759" d="M563.792,502.541l-1,2.944a48.493,48.493,0,0,0-2.452,18.825l.4,5.932-5.613,15.889a9.771,9.771,0,0,0,8.764,13.016l3.368.155a5.834,5.834,0,0,0,3.638,5.677l2.956,1.2a14.63,14.63,0,0,0,12.435-.682l1.018,2.119a4.365,4.365,0,0,0,7.114,1.1l6.822-7.255,3.625-17.616a21.11,21.11,0,0,0-1.094-12.139l-4.222-10.489L595.2,500.287Z" transform="translate(-222.523 -200.738)" fill="#ffbfaa" stroke="#000" stroke-width="2"/>
          <path id="Path_7760" data-name="Path 7760" d="M548.549,520.2l-5.93,9.378a5.434,5.434,0,0,0,8.625,6.546l12.771-14.168Z" transform="translate(-217.388 -208.73)" fill="#ffbfaa"/>
          <path id="Path_7761" data-name="Path 7761" d="M546.191,538.413a6.854,6.854,0,0,1-1.252-.115,6.931,6.931,0,0,1-4.587-10.518l5.93-9.378a1.5,1.5,0,1,1,2.53,1.6l-5.93,9.378a3.937,3.937,0,0,0,2.606,5.975,3.953,3.953,0,0,0,3.644-1.232l2.335-2.59a1.5,1.5,0,0,1,2.224,2l-2.336,2.592a6.985,6.985,0,0,1-5.164,2.285" transform="translate(-216.387 -207.727)"/>
          <path id="Path_7762" data-name="Path 7762" d="M645.644,193.342,593.958,200.7a19.457,19.457,0,0,0-16.2,17.171l-7.5,71.481L538.68,390.849h59.489l27.5-101.494Z" transform="translate(-216.146 -77.576)" fill="#ee5064" stroke="#000" stroke-width="2"/>
          <path id="Path_7763" data-name="Path 7763" d="M604.021,594.21a1.5,1.5,0,0,1-1.248-2.321l5.326-8.081.648-14.084a1.5,1.5,0,0,1,2.991.138l-.686,14.906-5.779,8.769a1.5,1.5,0,0,1-1.251.673" transform="translate(-241.764 -228.027)"/>
          <path id="Path_7764" data-name="Path 7764" d="M565.193,585.859a1.5,1.5,0,0,1-1.2-2.386l5.25-7.111,2.578-10.158a1.5,1.5,0,0,1,2.9.736L572,577.668l-5.6,7.583a1.5,1.5,0,0,1-1.205.608" transform="translate(-226.185 -226.735)"/>
          <path id="Path_7765" data-name="Path 7765" d="M579.049,593.351A1.5,1.5,0,0,1,577.9,590.9l7.69-9.3,1.524-11.948a1.5,1.5,0,0,1,2.97.379l-1.635,12.808-8.243,9.966a1.5,1.5,0,0,1-1.154.542" transform="translate(-231.745 -228.047)"/>
          <path id="Path_7766" data-name="Path 7766" d="M574.843,543.383a22.677,22.677,0,0,1-4.573-.451,1.5,1.5,0,0,1,.655-2.921c.118.026,6.976,1.488,10.955-1.528,1.769-1.341,2.7-3.352,2.861-6.15a1.5,1.5,0,1,1,2.989.167c-.206,3.682-1.569,6.5-4.053,8.377a14.725,14.725,0,0,1-8.835,2.506" transform="translate(-228.353 -213.029)"/>
          <path id="Path_7767" data-name="Path 7767" d="M604.423,497.521H545.367a1.5,1.5,0,0,1,0-2.994h59.056a1.5,1.5,0,1,1,0,2.994" transform="translate(-218.229 -198.427)" stroke="#000" stroke-width="1"/>
          <path id="Path_7768" data-name="Path 7768" d="M597.328,355.7a15.687,15.687,0,0,1-7.687-1.724,1.5,1.5,0,0,1,1.54-2.567c.229.134,5.222,2.946,13.632-.121a1.5,1.5,0,0,1,1.026,2.813,24.785,24.785,0,0,1-8.511,1.6" transform="translate(-236.304 -140.916)"/>
          <path id="Path_7769" data-name="Path 7769" d="M822.715,761.092l-15.733-.183-42.689-.5-.971-10.8-3.216-35.846-5.14-57.325-3.577-39.854v-.006l-4.3-47.987-8.89-99.11-.144-1.582,79.655-4.27,2.068,122.743.738,43.86,1.68,99.969Z" transform="translate(-296.145 -186.027)" fill="#a62973"/>
          <path id="Path_7770" data-name="Path 7770" d="M845.341,764.192a1.5,1.5,0,0,1-1.5-1.487l-1.328-218.217A1.5,1.5,0,0,1,844,542.982h.01a1.5,1.5,0,0,1,1.5,1.487l1.329,218.217a1.5,1.5,0,0,1-1.487,1.506Z" transform="translate(-338.061 -217.87)" fill="#00c9b9"/>
          <path id="Path_7771" data-name="Path 7771" d="M862.107,766.149a1.5,1.5,0,0,1-1.5-1.483l-2.025-215.3a1.5,1.5,0,0,1,1.483-1.511,1.515,1.515,0,0,1,1.51,1.483l2.025,215.3a1.5,1.5,0,0,1-1.482,1.511Z" transform="translate(-344.509 -219.826)" fill="#00c9b9"/>
          <path id="Path_7772" data-name="Path 7772" d="M706.932,470.98l-14.368,91.9-6.128,39.192-13.392,82.2L666.406,725,661.6,754.515l-34.858.4-24.567.286,2.489-28.15,6.189-69.936,3.832-43.275,1.814-20.506,7.431-58.409,5.529-43.463,5.412-42.518,48.806,14.923Z" transform="translate(-241.623 -180.137)" fill="#a62973"/>
          <rect id="Rectangle_837" data-name="Rectangle 837" width="87.441" height="63.319" transform="translate(398.143 284.188)" fill="#2a0055"/>
          <path id="Path_7773" data-name="Path 7773" d="M752.645,190.595c-21.509,30.446-29.594,63.568-32.278,97.331-12.811-42.522-9.679-78.222-4.809-97.173l19.056-2.977Z" transform="translate(-285.417 -75.342)" fill="#fff"/>
          <path id="Path_7774" data-name="Path 7774" d="M774.7,199.914V372.089H629.968l11.4-173.487,41.747-6.991.158-.026c-4.87,18.95-8,54.65,4.809,97.172,2.684-33.763,10.768-66.884,32.278-97.331l.411.064Z" transform="translate(-252.776 -76.807)" fill="#ee5064" stroke="#000" stroke-width="2"/>
          <path id="Path_7775" data-name="Path 7775" d="M755.562,148.4l-35.253,30.653L718.437,148.4l.943-65.957h36.182Z" transform="translate(-288.275 -33.076)" fill="#ffbfaa" stroke="#000" stroke-width="2"/>
          <path id="Path_7776" data-name="Path 7776" d="M720.378,144.252H701.909A17.149,17.149,0,0,1,684.76,127.1V82.44h52.767V127.1a17.149,17.149,0,0,1-17.149,17.149" transform="translate(-274.761 -33.076)" fill="#ffbfaa" stroke="#000" stroke-width="2"/>
          <path id="Path_7777" data-name="Path 7777" d="M736.991,66.955A52.944,52.944,0,0,1,714.3,77.079a171.451,171.451,0,0,1-19.768,2.6c-5.6.391-11.425.8-16.933-.527-3.747-.9-7.236-2.791-8-6.917-.854-4.58,2.9-9.2,6.738-11.237,0,0-13.6-4.427-3.479-12.966.293-.247-1.1-6.749-1.136-7.441-.511-9.434,7.092-16.093,16.371-14.027,17.768,3.955,26.553,24.623,45.171,26.527,15.654,1.6,10.9,8.305,3.736,13.865" transform="translate(-268.48 -10.504)" fill="#2a0055" stroke="#000" stroke-width="2"/>
          <path id="Path_7778" data-name="Path 7778" d="M724.418,47.587s35.806-15.076,44.851,2.638-7.161,50.128-12.061,54.651-14.7-31.659-14.7-31.659Z" transform="translate(-290.674 -16.691)" fill="#2a0055" stroke="#000" stroke-width="2"/>
          <path id="Path_7779" data-name="Path 7779" d="M767.77,140.931h0a10.4,10.4,0,0,1-10.4-10.4v-3.7a10.4,10.4,0,1,1,20.8,0v3.7a10.4,10.4,0,0,1-10.4,10.4" transform="translate(-303.897 -46.716)" fill="#ffbfaa" stroke="#000" stroke-width="2"/>
          <path id="Path_7780" data-name="Path 7780" d="M768.7,138.188a1.5,1.5,0,0,1-1.118-2.491l6.031-6.784a1.5,1.5,0,1,1,2.237,1.989l-6.03,6.784a1.5,1.5,0,0,1-1.12.5" transform="translate(-307.842 -51.521)"/>
          <path id="Path_7781" data-name="Path 7781" d="M714.432,146.422h-1.969a3.645,3.645,0,0,1-3.5-4.65l1.93-9.946a1.5,1.5,0,0,1,2.939.57l-1.986,10.185a.651.651,0,0,0,.621.847h1.969a1.5,1.5,0,0,1,0,2.994" transform="translate(-284.414 -52.406)"/>
          <path id="Path_7782" data-name="Path 7782" d="M725.356,162.446a10.108,10.108,0,0,1-2.972-.469,1.5,1.5,0,0,1,.942-2.841c.6.2,2.564.61,3.634-.038a1.83,1.83,0,0,0,.827-1.425,1.5,1.5,0,0,1,2.953.493,4.807,4.807,0,0,1-2.241,3.5,6.075,6.075,0,0,1-3.144.781" transform="translate(-289.447 -62.762)"/>
          <path id="Path_7783" data-name="Path 7783" d="M698.149,129.08a2.262,2.262,0,1,1-2.261-2.261,2.261,2.261,0,0,1,2.261,2.261" transform="translate(-278.319 -50.883)"/>
          <path id="Path_7784" data-name="Path 7784" d="M698.009,293.592a1.494,1.494,0,0,1-1.241-.657c-10.182-15.033-25.513-46.909-30.791-67.07a1.5,1.5,0,0,1,.536-1.567l14.177-10.881-10.962-2.339a1.5,1.5,0,0,1-.492-2.726l15.6-9.949a1.5,1.5,0,0,1,1.609,2.524l-12.523,7.986,10.561,2.254a1.5,1.5,0,0,1,.6,2.651l-15.956,12.247c5.427,19.916,20.23,50.6,30.116,65.192a1.5,1.5,0,0,1-1.238,2.336" transform="translate(-267.205 -79.512)"/>
          <path id="Path_7785" data-name="Path 7785" d="M738.445,281.706a1.5,1.5,0,0,1-1.3-2.232c10.721-19.048,23.473-40.313,37.258-54.733l-12-5.169a1.5,1.5,0,0,1,.208-2.821l12.094-3.213-12.31-20.855a1.54,1.54,0,0,1-.311-.165,1.5,1.5,0,0,1-.379-2.083l.206-.293a1.5,1.5,0,0,1,2.521.1l.207.354,13.648,23.121a1.5,1.5,0,0,1-.9,2.208l-9.822,2.61,10.03,4.319a1.5,1.5,0,0,1,.468,2.432c-14.117,14.16-27.283,36.082-38.3,55.658a1.5,1.5,0,0,1-1.306.763" transform="translate(-295.702 -76.034)"/>
          <path id="Path_7786" data-name="Path 7786" d="M730.568,129.395a2.261,2.261,0,1,1-2.261-2.262,2.261,2.261,0,0,1,2.261,2.262" transform="translate(-291.327 -51.009)"/>
          <path id="Path_7787" data-name="Path 7787" d="M686.7,134.008a11.3,11.3,0,1,1,11.3-11.3,11.309,11.309,0,0,1-11.3,11.3m0-19.6a8.3,8.3,0,1,0,8.3,8.3,8.311,8.311,0,0,0-8.3-8.3" transform="translate(-271.009 -44.703)" fill="#fff"/>
          <path id="Path_7788" data-name="Path 7788" d="M727.307,134.322a11.3,11.3,0,1,1,11.3-11.3,11.309,11.309,0,0,1-11.3,11.3m0-19.6a8.3,8.3,0,1,0,8.3,8.3,8.312,8.312,0,0,0-8.3-8.3" transform="translate(-287.301 -44.828)" fill="#fff"/>
          <path id="Path_7789" data-name="Path 7789" d="M714.35,132.669h-4.825a1.5,1.5,0,0,1,0-2.994h4.825a1.5,1.5,0,1,1,0,2.994" transform="translate(-284.098 -52.029)" fill="#fff"/>
          <path id="Path_7790" data-name="Path 7790" d="M678.021,797.733a1.5,1.5,0,0,1-1.484-1.708l23.934-168.167a1.5,1.5,0,0,1,2.964.422L679.5,796.447a1.5,1.5,0,0,1-1.48,1.285" transform="translate(-271.456 -251.41)" fill="#00c9b9"/>
          <path id="Path_7791" data-name="Path 7791" d="M693.38,799.407a1.547,1.547,0,0,1-.215-.015A1.5,1.5,0,0,1,691.9,797.7l23.861-165.669a1.5,1.5,0,1,1,2.963.427L694.86,798.124a1.5,1.5,0,0,1-1.48,1.283" transform="translate(-277.619 -253.084)" fill="#00c9b9"/>
          <path id="Path_7792" data-name="Path 7792" d="M842.68,410.849a41.268,41.268,0,0,0-35.222-41.066l26.481-56.08L650.847,227.249l-27.256,57.722a41.226,41.226,0,1,1-31.943,67.647l-27.256,57.722L622.115,437.6a41.226,41.226,0,1,0,67.646,31.942l57.722,27.256,26.281-55.658a41.246,41.246,0,0,0,68.914-30.287" transform="translate(-226.464 -91.181)" fill="#fb847d" stroke="#000" stroke-width="2"/>
          <path id="Path_7793" data-name="Path 7793" d="M569.449,435.561a1.5,1.5,0,0,1-1.353-2.136l23.628-50.038a1.5,1.5,0,0,1,2.5-.319,39.729,39.729,0,1,0,30.783-65.192,1.5,1.5,0,0,1-1.344-2.136l4.419-9.359a1.5,1.5,0,0,1,2.708,1.278l-3.447,7.3a42.723,42.723,0,1,1-33.887,71.765L570.8,434.7a1.5,1.5,0,0,1-1.354.859" transform="translate(-227.892 -122.589)"/>
          <path id="Path_7794" data-name="Path 7794" d="M669.64,276.106a1.5,1.5,0,0,1-1.353-2.136l22.837-48.363a1.5,1.5,0,0,1,1.993-.714l84.592,39.944a1.5,1.5,0,0,1-1.278,2.708l-83.238-39.3-22.2,47.009a1.5,1.5,0,0,1-1.354.858" transform="translate(-268.094 -90.177)" fill="#2a0055"/>
          <path id="Path_7795" data-name="Path 7795" d="M719.972,182.783c-1.5,0-2.477-.059-2.633-.069a1.5,1.5,0,0,1,.191-2.988c.15.01,15.06.888,20.878-4.733a1.5,1.5,0,1,1,2.08,2.152c-5.185,5.01-15.617,5.637-20.516,5.637" transform="translate(-287.272 -70.045)"/>
          <path id="Path_7796" data-name="Path 7796" d="M721.255,210.054l-3.726-2.56a1.5,1.5,0,1,1,1.694-2.467l2.308,1.586,6.007-2.836a1.5,1.5,0,1,1,1.277,2.707Z" transform="translate(-287.649 -81.705)"/>
          <path id="Path_7797" data-name="Path 7797" d="M815.374,432.36,802.3,425.52l-9.817-12.366a2.56,2.56,0,0,0-4.535,1.2l-.964,6.3-6.354-2.085a33.552,33.552,0,0,0-16.325-1.156l-7.707,1.367a4.909,4.909,0,0,0,1.163,9.733l8.753-.545,15.259,5.238-10.352,1.657a35.869,35.869,0,0,0-10.853,3.58l-5.953,3.088a5.766,5.766,0,0,0,1.782,10.818l1.133.174-.311.485a5.268,5.268,0,0,0,6.911,7.493l5.887-3.135a19.466,19.466,0,0,1,9.719-2.276l8.9.26-7.912,10.892a4.461,4.461,0,0,0,6.475,6.04l10.662-8.94,13.339-1.643,12.626-6.222,9.136,3.563,6.726-28.769Z" transform="translate(-301.54 -165.387)" fill="#ffbfaa" stroke="#000" stroke-width="2"/>
          <path id="Path_7798" data-name="Path 7798" d="M842.762,204.469l10.319,1.4a47.744,47.744,0,0,1,32.254,22.844l35.648,55.434a17.868,17.868,0,0,1-.5,20.066l-43.868,61.264a24.839,24.839,0,0,1-10.577,8.441l-14.3,6.007-7.293-36.7,24.3-51.141L824.014,238.6Z" transform="translate(-330.637 -82.04)" fill="#ee5064" stroke="#000" stroke-width="2"/>
          <path id="Path_7799" data-name="Path 7799" d="M644.986,365.384a1.5,1.5,0,0,1-1.486-1.332l-4.791-43.073a159.632,159.632,0,0,1,1.975-48.26l1.726-8.848a1.5,1.5,0,0,1,2.938.573l-1.726,8.848a156.667,156.667,0,0,0-1.938,47.356l4.792,43.073a1.5,1.5,0,0,1-1.323,1.653,1.549,1.549,0,0,1-.167.009" transform="translate(-255.889 -105.39)"/>
          <path id="Path_7800" data-name="Path 7800" d="M812.517,482.278a1.5,1.5,0,0,1-1.1-2.51l3.882-4.221h6.753a1.5,1.5,0,0,1,0,2.994h-5.439l-2.992,3.253a1.488,1.488,0,0,1-1.1.484" transform="translate(-325.423 -190.811)"/>
          <path id="Path_7801" data-name="Path 7801" d="M760.564,474.843a1.5,1.5,0,0,1-.81-2.757l5.907-3.787a26.759,26.759,0,0,1,14.469-4.239h8.664a1.5,1.5,0,1,1,0,2.994H780.13a23.778,23.778,0,0,0-12.853,3.765l-5.906,3.787a1.489,1.489,0,0,1-.806.237" transform="translate(-304.577 -186.202)"/>
          <path id="Path_7802" data-name="Path 7802" d="M817.69,429.81a1.474,1.474,0,0,1-.524-.1l-7.938-2.973a1.5,1.5,0,0,1,1.05-2.8l7.937,2.974a1.5,1.5,0,0,1-.525,2.9" transform="translate(-324.314 -170.064)"/>
          <path id="Path_7803" data-name="Path 7803" d="M886.167,459.6a1.5,1.5,0,0,1-1.43-1.055l-11.616-37.583a1.5,1.5,0,1,1,2.86-.884L887.6,457.657a1.5,1.5,0,0,1-1.431,1.939" transform="translate(-350.316 -168.129)"/>
          <path id="Path_7804" data-name="Path 7804" d="M901.538,350.327a20.215,20.215,0,0,1-4.142-.444,1.5,1.5,0,0,1,.655-2.921c1.719.381,6.932.95,8.317-1.357a1.5,1.5,0,1,1,2.567,1.54c-1.547,2.579-4.746,3.182-7.4,3.182" transform="translate(-359.613 -138.38)"/>
          <path id="Path_7805" data-name="Path 7805" d="M1694.821,153.05a4.4,4.4,0,0,0,4.029-4.167s5.661,5.189.579,7.362c-2.68,1.146-4.387.224-5.4-.9a1.385,1.385,0,0,1,.794-2.291" transform="translate(-679.589 -59.737)" fill="#fff"/>
          <path id="Path_7806" data-name="Path 7806" d="M1247.467,134.505a5.874,5.874,0,0,0,5.956-4.893,1.5,1.5,0,0,0-2.953-.489,2.876,2.876,0,0,1-3,2.388,1.5,1.5,0,1,0,0,2.994" transform="translate(-469.853 -51.308)"/>
          <path id="Path_7807" data-name="Path 7807" d="M1676.6,727.614a1.521,1.521,0,0,1-.361-.044,1.5,1.5,0,0,1-.922-.682l-23.675-39.381a1.5,1.5,0,0,1,2.567-1.543l22.9,38.1,104.068-62.8a1.5,1.5,0,1,1,1.547,2.563L1677.374,727.4a1.5,1.5,0,0,1-.774.215" transform="translate(-662.639 -265.241)" fill="#2a0055"/>
          <path id="Path_7808" data-name="Path 7808" d="M2043.22,700.16a1.5,1.5,0,0,1-1.5-1.5V687.393a1.5,1.5,0,1,1,2.994,0v11.271a1.5,1.5,0,0,1-1.5,1.5" transform="translate(-819.245 -275.214)" fill="#f0e6ff"/>
          <path id="Path_7809" data-name="Path 7809" d="M2043.22,744.714a1.5,1.5,0,0,1-1.5-1.5V731.946a1.5,1.5,0,0,1,2.994,0v11.271a1.5,1.5,0,0,1-1.5,1.5" transform="translate(-819.245 -293.091)" fill="#f0e6ff"/>
          <path id="Path_7810" data-name="Path 7810" d="M2067.355,720.579h-11.272a1.5,1.5,0,0,1,0-2.994h11.272a1.5,1.5,0,1,1,0,2.994" transform="translate(-824.407 -287.929)" fill="#f0e6ff"/>
        </g>
      </g>
    </g>
  </g>
</svg>
