<svg xmlns="http://www.w3.org/2000/svg" xmlns:xlink="http://www.w3.org/1999/xlink" width="426" height="337" viewBox="0 0 426 337">
  <defs>
    <clipPath id="clip-path">
      <rect id="Rectangle_725" data-name="Rectangle 725" width="426" height="337" transform="translate(965 3060)" fill="#fff" stroke="#707070" stroke-width="1"/>
    </clipPath>
    <clipPath id="clip-path-2">
      <rect id="Rectangle_482" data-name="Rectangle 482" width="394.71" height="432.447" fill="none"/>
    </clipPath>
    <clipPath id="clip-path-3">
      <rect id="Rectangle_485" data-name="Rectangle 485" width="312.791" height="262.084" transform="translate(35.313 93.417)" fill="none"/>
    </clipPath>
    <clipPath id="clip-path-4">
      <rect id="Rectangle_486" data-name="Rectangle 486" width="191.147" height="136.954" transform="translate(203.563 70.388)" fill="none"/>
    </clipPath>
    <clipPath id="clip-path-5">
      <rect id="Rectangle_511" data-name="Rectangle 511" width="142.26" height="125.736" transform="translate(0 98.795)" fill="none"/>
    </clipPath>
    <clipPath id="clip-path-6">
      <rect id="Rectangle_513" data-name="Rectangle 513" width="97.801" height="1.994" transform="translate(43.462 111.95)" fill="none"/>
    </clipPath>
  </defs>
  <g id="roi-driven-efficiency" transform="translate(-965 -3060)" clip-path="url(#clip-path)">
    <g id="Group_558" data-name="Group 558" transform="translate(995.896 3039)">
      <g id="Group_527" data-name="Group 527">
        <g id="Group_526" data-name="Group 526" clip-path="url(#clip-path-2)">
          <path id="Path_6576" data-name="Path 6576" d="M212.279,55.149c-54.133,11.437-46.07,74.667-139.267,110.15-99.889,38.031-39.389,181.5,74.26,189.673,113.117,8.13,165.284-42.874,176.9-139.806C332.9,142.281,292.723,38.154,212.279,55.149" fill="#e099c7"/>
          <path id="Path_6577" data-name="Path 6577" d="M85.046,152.3c24.278-8.342,61.076-47.33,47.768-91s-119.443,115.626-47.768,91" fill="#e099c7"/>
          <path id="Path_6578" data-name="Path 6578" d="M73.823,355.319l52.847.162a1.307,1.307,0,0,0,1.312-1.3l.014-4.733a1.306,1.306,0,0,0-1.3-1.309l-52.847-.163a1.306,1.306,0,0,0-1.311,1.3l-.015,4.731a1.306,1.306,0,0,0,1.3,1.311" fill="#ee5064"/>
          <path id="Path_6579" data-name="Path 6579" d="M73.823,355.319l52.847.162a1.307,1.307,0,0,0,1.312-1.3l.014-4.733a1.306,1.306,0,0,0-1.3-1.309l-52.847-.163a1.306,1.306,0,0,0-1.311,1.3l-.015,4.731A1.306,1.306,0,0,0,73.823,355.319Z" fill="none" stroke="#000" stroke-miterlimit="10" stroke-width="1"/>
          <path id="Path_6580" data-name="Path 6580" d="M126.675,355.678h-.006l-52.847-.162a1.506,1.506,0,0,1-1.5-1.509l.015-4.731a1.506,1.506,0,0,1,1.5-1.5h.006l52.847.163a1.505,1.505,0,0,1,1.5,1.508l-.015,4.732a1.506,1.506,0,0,1-1.5,1.5m-52.851-.555,52.847.162h0a1.111,1.111,0,0,0,1.11-1.107l.014-4.732a1.111,1.111,0,0,0-1.107-1.114l-52.848-.162h0a1.11,1.11,0,0,0-1.11,1.108l-.015,4.731a1.112,1.112,0,0,0,1.108,1.114" fill="#101c3a"/>
          <path id="Path_6581" data-name="Path 6581" d="M126.675,355.678h-.006l-52.847-.162a1.506,1.506,0,0,1-1.5-1.509l.015-4.731a1.506,1.506,0,0,1,1.5-1.5h.006l52.847.163a1.505,1.505,0,0,1,1.5,1.508l-.015,4.732a1.506,1.506,0,0,1-1.5,1.5Zm-52.851-.555,52.847.162h0a1.111,1.111,0,0,0,1.11-1.107l.014-4.732a1.111,1.111,0,0,0-1.107-1.114l-52.848-.162h0a1.11,1.11,0,0,0-1.11,1.108l-.015,4.731A1.112,1.112,0,0,0,73.824,355.123Z" fill="none" stroke="#000" stroke-miterlimit="10" stroke-width="1"/>
          <path id="Path_6582" data-name="Path 6582" d="M68.826,348.056l52.848.163a1.308,1.308,0,0,0,1.311-1.3l.014-4.731a1.307,1.307,0,0,0-1.3-1.311l-52.847-.163a1.307,1.307,0,0,0-1.311,1.3l-.015,4.732a1.306,1.306,0,0,0,1.3,1.31" fill="#ee5064"/>
          <path id="Path_6583" data-name="Path 6583" d="M68.826,348.056l52.848.163a1.308,1.308,0,0,0,1.311-1.3l.014-4.731a1.307,1.307,0,0,0-1.3-1.311l-52.847-.163a1.307,1.307,0,0,0-1.311,1.3l-.015,4.732A1.306,1.306,0,0,0,68.826,348.056Z" fill="none" stroke="#000" stroke-miterlimit="10" stroke-width="1"/>
          <path id="Path_6584" data-name="Path 6584" d="M121.678,348.416h-.006l-52.847-.163a1.5,1.5,0,0,1-1.5-1.509l.013-4.73a1.506,1.506,0,0,1,1.5-1.5h.006l52.847.163a1.5,1.5,0,0,1,1.5,1.508l-.015,4.732a1.505,1.505,0,0,1-1.5,1.5m-52.851-.556,52.848.162h0a1.111,1.111,0,0,0,1.11-1.107l.015-4.732a1.111,1.111,0,0,0-1.108-1.113l-52.847-.162h0a1.113,1.113,0,0,0-1.11,1.107l-.013,4.732a1.11,1.11,0,0,0,1.106,1.113" fill="#101c3a"/>
          <path id="Path_6585" data-name="Path 6585" d="M121.678,348.416h-.006l-52.847-.163a1.5,1.5,0,0,1-1.5-1.509l.013-4.73a1.506,1.506,0,0,1,1.5-1.5h.006l52.847.163a1.5,1.5,0,0,1,1.5,1.508l-.015,4.732A1.505,1.505,0,0,1,121.678,348.416Zm-52.851-.556,52.848.162h0a1.111,1.111,0,0,0,1.11-1.107l.015-4.732a1.111,1.111,0,0,0-1.108-1.113l-52.847-.162h0a1.113,1.113,0,0,0-1.11,1.107l-.013,4.732a1.11,1.11,0,0,0,1.106,1.113Z" fill="none" stroke="#000" stroke-miterlimit="10" stroke-width="1"/>
          <path id="Path_6586" data-name="Path 6586" d="M72.327,340.711l52.847.162a1.307,1.307,0,0,0,1.312-1.3l.014-4.733a1.306,1.306,0,0,0-1.3-1.31l-52.847-.163a1.307,1.307,0,0,0-1.311,1.3l-.015,4.732a1.307,1.307,0,0,0,1.3,1.311" fill="#ee5064"/>
          <path id="Path_6587" data-name="Path 6587" d="M72.327,340.711l52.847.162a1.307,1.307,0,0,0,1.312-1.3l.014-4.733a1.306,1.306,0,0,0-1.3-1.31l-52.847-.163a1.307,1.307,0,0,0-1.311,1.3l-.015,4.732A1.307,1.307,0,0,0,72.327,340.711Z" fill="none" stroke="#000" stroke-miterlimit="10" stroke-width="1"/>
          <path id="Path_6588" data-name="Path 6588" d="M125.178,341.07h-.005l-52.848-.162a1.5,1.5,0,0,1-1.5-1.509l.015-4.731a1.5,1.5,0,0,1,1.5-1.5h.006l52.847.164a1.5,1.5,0,0,1,1.5,1.508l-.015,4.732a1.506,1.506,0,0,1-1.5,1.5m-52.85-.556,52.847.162h0a1.112,1.112,0,0,0,1.111-1.107l.014-4.731a1.111,1.111,0,0,0-1.107-1.114l-52.848-.162h0a1.108,1.108,0,0,0-1.109,1.108l-.015,4.731a1.11,1.11,0,0,0,1.107,1.113" fill="#101c3a"/>
          <path id="Path_6589" data-name="Path 6589" d="M125.178,341.07h-.005l-52.848-.162a1.5,1.5,0,0,1-1.5-1.509l.015-4.731a1.5,1.5,0,0,1,1.5-1.5h.006l52.847.164a1.5,1.5,0,0,1,1.5,1.508l-.015,4.732A1.506,1.506,0,0,1,125.178,341.07Zm-52.85-.556,52.847.162h0a1.112,1.112,0,0,0,1.111-1.107l.014-4.731a1.111,1.111,0,0,0-1.107-1.114l-52.848-.162h0a1.108,1.108,0,0,0-1.109,1.108l-.015,4.731a1.11,1.11,0,0,0,1.107,1.113Z" fill="none" stroke="#000" stroke-miterlimit="10" stroke-width="1"/>
          <path id="Path_6590" data-name="Path 6590" d="M76.2,333.448l52.847.162a1.308,1.308,0,0,0,1.312-1.3l.014-4.733a1.305,1.305,0,0,0-1.3-1.309L76.222,326.1a1.307,1.307,0,0,0-1.311,1.3l-.015,4.732a1.307,1.307,0,0,0,1.3,1.311" fill="#ee5064"/>
          <path id="Path_6591" data-name="Path 6591" d="M76.2,333.448l52.847.162a1.308,1.308,0,0,0,1.312-1.3l.014-4.733a1.305,1.305,0,0,0-1.3-1.309L76.222,326.1a1.307,1.307,0,0,0-1.311,1.3l-.015,4.732A1.307,1.307,0,0,0,76.2,333.448Z" fill="none" stroke="#000" stroke-miterlimit="10" stroke-width="1"/>
          <path id="Path_6592" data-name="Path 6592" d="M129.054,333.806h-.009L76.2,333.645a1.5,1.5,0,0,1-1.5-1.509l.015-4.733a1.5,1.5,0,0,1,1.5-1.5h.006l52.848.163a1.5,1.5,0,0,1,1.5,1.507l-.015,4.733a1.5,1.5,0,0,1-1.5,1.5M76.2,333.252l52.849.161h0a1.108,1.108,0,0,0,1.108-1.106l.015-4.733a1.11,1.11,0,0,0-1.107-1.112L76.219,326.3h0a1.111,1.111,0,0,0-1.109,1.107l-.015,4.732a1.111,1.111,0,0,0,1.107,1.114" fill="#101c3a"/>
          <path id="Path_6593" data-name="Path 6593" d="M129.054,333.806h-.009L76.2,333.645a1.5,1.5,0,0,1-1.5-1.509l.015-4.733a1.5,1.5,0,0,1,1.5-1.5h.006l52.848.163a1.5,1.5,0,0,1,1.5,1.507l-.015,4.733a1.5,1.5,0,0,1-1.5,1.5ZM76.2,333.252l52.849.161h0a1.108,1.108,0,0,0,1.108-1.106l.015-4.733a1.11,1.11,0,0,0-1.107-1.112L76.219,326.3h0a1.111,1.111,0,0,0-1.109,1.107l-.015,4.732a1.111,1.111,0,0,0,1.107,1.114Z" fill="none" stroke="#000" stroke-miterlimit="10" stroke-width="1"/>
          <path id="Path_6594" data-name="Path 6594" d="M68.826,326.116l52.848.162a1.307,1.307,0,0,0,1.311-1.3l.014-4.731a1.306,1.306,0,0,0-1.3-1.311l-52.847-.163a1.307,1.307,0,0,0-1.311,1.3l-.015,4.731a1.306,1.306,0,0,0,1.3,1.311" fill="#ee5064"/>
          <path id="Path_6595" data-name="Path 6595" d="M68.826,326.116l52.848.162a1.307,1.307,0,0,0,1.311-1.3l.014-4.731a1.306,1.306,0,0,0-1.3-1.311l-52.847-.163a1.307,1.307,0,0,0-1.311,1.3l-.015,4.731A1.306,1.306,0,0,0,68.826,326.116Z" fill="none" stroke="#000" stroke-miterlimit="10" stroke-width="1"/>
          <path id="Path_6596" data-name="Path 6596" d="M121.679,326.475h0l-52.849-.162a1.5,1.5,0,0,1-1.5-1.509l.014-4.732a1.493,1.493,0,0,1,.442-1.06,1.477,1.477,0,0,1,1.066-.438l52.847.163a1.5,1.5,0,0,1,1.5,1.507l-.015,4.733a1.5,1.5,0,0,1-1.5,1.5m-52.852-.555,52.849.162h0a1.108,1.108,0,0,0,1.109-1.107l.015-4.733a1.108,1.108,0,0,0-1.108-1.112l-52.847-.162h0a1.108,1.108,0,0,0-1.109,1.105l-.014,4.733a1.11,1.11,0,0,0,1.106,1.114" fill="#101c3a"/>
          <path id="Path_6597" data-name="Path 6597" d="M121.679,326.475h0l-52.849-.162a1.5,1.5,0,0,1-1.5-1.509l.014-4.732a1.493,1.493,0,0,1,.442-1.06,1.477,1.477,0,0,1,1.066-.438l52.847.163a1.5,1.5,0,0,1,1.5,1.507l-.015,4.733a1.5,1.5,0,0,1-1.5,1.5Zm-52.852-.555,52.849.162h0a1.108,1.108,0,0,0,1.109-1.107l.015-4.733a1.108,1.108,0,0,0-1.108-1.112l-52.847-.162h0a1.108,1.108,0,0,0-1.109,1.105l-.014,4.733a1.11,1.11,0,0,0,1.106,1.114Z" fill="none" stroke="#000" stroke-miterlimit="10" stroke-width="1"/>
          <path id="Path_6598" data-name="Path 6598" d="M70.357,304.193l52.848.162a1.308,1.308,0,0,0,1.311-1.3l.014-4.733a1.307,1.307,0,0,0-1.3-1.31l-52.847-.163a1.307,1.307,0,0,0-1.311,1.3l-.015,4.732a1.307,1.307,0,0,0,1.3,1.311" fill="#fc721a"/>
          <path id="Path_6599" data-name="Path 6599" d="M70.357,304.193l52.848.162a1.308,1.308,0,0,0,1.311-1.3l.014-4.733a1.307,1.307,0,0,0-1.3-1.31l-52.847-.163a1.307,1.307,0,0,0-1.311,1.3l-.015,4.732A1.307,1.307,0,0,0,70.357,304.193Z" fill="none" stroke="#000" stroke-miterlimit="10" stroke-width="1"/>
          <path id="Path_6600" data-name="Path 6600" d="M123.211,304.552H123.2l-52.847-.163a1.506,1.506,0,0,1-1.5-1.508l.014-4.731a1.506,1.506,0,0,1,1.511-1.5l52.847.163a1.5,1.5,0,0,1,1.5,1.507l-.015,4.732a1.506,1.506,0,0,1-1.5,1.5m-52.835-7.508a1.108,1.108,0,0,0-1.11,1.107l-.015,4.731A1.111,1.111,0,0,0,70.357,304h0l52.848.162h0a1.111,1.111,0,0,0,1.11-1.106l.015-4.732a1.111,1.111,0,0,0-1.107-1.114l-52.849-.162Z" fill="#101c3a"/>
          <path id="Path_6601" data-name="Path 6601" d="M123.211,304.552H123.2l-52.847-.163a1.506,1.506,0,0,1-1.5-1.508l.014-4.731a1.506,1.506,0,0,1,1.511-1.5l52.847.163a1.5,1.5,0,0,1,1.5,1.507l-.015,4.732a1.506,1.506,0,0,1-1.5,1.5Zm-52.835-7.508a1.108,1.108,0,0,0-1.11,1.107l-.015,4.731A1.111,1.111,0,0,0,70.357,304h0l52.848.162h0a1.111,1.111,0,0,0,1.11-1.106l.015-4.732a1.111,1.111,0,0,0-1.107-1.114l-52.849-.162Z" fill="none" stroke="#000" stroke-miterlimit="10" stroke-width="1"/>
          <path id="Path_6602" data-name="Path 6602" d="M66.392,296.861l52.848.162a1.307,1.307,0,0,0,1.311-1.3l.014-4.731a1.306,1.306,0,0,0-1.3-1.311l-52.847-.163a1.307,1.307,0,0,0-1.311,1.3l-.015,4.732a1.306,1.306,0,0,0,1.3,1.31" fill="#fc721a"/>
          <path id="Path_6603" data-name="Path 6603" d="M66.392,296.861l52.848.162a1.307,1.307,0,0,0,1.311-1.3l.014-4.731a1.306,1.306,0,0,0-1.3-1.311l-52.847-.163a1.307,1.307,0,0,0-1.311,1.3l-.015,4.732A1.306,1.306,0,0,0,66.392,296.861Z" fill="none" stroke="#000" stroke-miterlimit="10" stroke-width="1"/>
          <path id="Path_6604" data-name="Path 6604" d="M119.243,297.22h0l-52.85-.162a1.506,1.506,0,0,1-1.5-1.508l.015-4.732a1.5,1.5,0,0,1,1.508-1.5l52.847.163a1.5,1.5,0,0,1,1.5,1.507l-.015,4.733a1.505,1.505,0,0,1-1.5,1.5m-52.85-.555,52.848.162h0a1.113,1.113,0,0,0,1.111-1.106l.014-4.733a1.11,1.11,0,0,0-1.107-1.113l-52.848-.162h0a1.106,1.106,0,0,0-1.109,1.106l-.015,4.732a1.112,1.112,0,0,0,1.107,1.114" fill="#101c3a"/>
          <path id="Path_6605" data-name="Path 6605" d="M119.243,297.22h0l-52.85-.162a1.506,1.506,0,0,1-1.5-1.508l.015-4.732a1.5,1.5,0,0,1,1.508-1.5l52.847.163a1.5,1.5,0,0,1,1.5,1.507l-.015,4.733A1.505,1.505,0,0,1,119.243,297.22Zm-52.85-.555,52.848.162h0a1.113,1.113,0,0,0,1.111-1.106l.014-4.733a1.11,1.11,0,0,0-1.107-1.113l-52.848-.162h0a1.106,1.106,0,0,0-1.109,1.106l-.015,4.732A1.112,1.112,0,0,0,66.393,296.665Z" fill="none" stroke="#000" stroke-miterlimit="10" stroke-width="1"/>
          <path id="Path_6606" data-name="Path 6606" d="M68.826,318.853l52.848.163a1.308,1.308,0,0,0,1.311-1.3l.014-4.731a1.307,1.307,0,0,0-1.3-1.311l-52.847-.163a1.307,1.307,0,0,0-1.311,1.3l-.015,4.732a1.305,1.305,0,0,0,1.3,1.31" fill="#ee5064"/>
          <path id="Path_6607" data-name="Path 6607" d="M68.826,318.853l52.848.163a1.308,1.308,0,0,0,1.311-1.3l.014-4.731a1.307,1.307,0,0,0-1.3-1.311l-52.847-.163a1.307,1.307,0,0,0-1.311,1.3l-.015,4.732A1.305,1.305,0,0,0,68.826,318.853Z" fill="none" stroke="#000" stroke-miterlimit="10" stroke-width="1"/>
          <path id="Path_6608" data-name="Path 6608" d="M121.677,319.213h0l-52.85-.163a1.5,1.5,0,0,1-1.5-1.508l.015-4.731a1.5,1.5,0,0,1,1.5-1.5h0l52.848.163a1.506,1.506,0,0,1,1.5,1.508l-.015,4.733a1.5,1.5,0,0,1-1.5,1.5M68.845,311.7a1.11,1.11,0,0,0-1.11,1.108l-.014,4.732a1.106,1.106,0,0,0,1.1,1.112h0l52.849.163h0a1.112,1.112,0,0,0,1.111-1.107l.015-4.731a1.111,1.111,0,0,0-1.108-1.114L68.848,311.7Z" fill="#101c3a"/>
          <path id="Path_6609" data-name="Path 6609" d="M121.677,319.213h0l-52.85-.163a1.5,1.5,0,0,1-1.5-1.508l.015-4.731a1.5,1.5,0,0,1,1.5-1.5h0l52.848.163a1.506,1.506,0,0,1,1.5,1.508l-.015,4.733A1.5,1.5,0,0,1,121.677,319.213ZM68.845,311.7a1.11,1.11,0,0,0-1.11,1.108l-.014,4.732a1.106,1.106,0,0,0,1.1,1.112h0l52.849.163h0a1.112,1.112,0,0,0,1.111-1.107l.015-4.731a1.111,1.111,0,0,0-1.108-1.114L68.848,311.7Z" fill="none" stroke="#000" stroke-miterlimit="10" stroke-width="1"/>
          <path id="Path_6610" data-name="Path 6610" d="M63,311.508l52.848.162a1.307,1.307,0,0,0,1.311-1.3l.014-4.733a1.306,1.306,0,0,0-1.3-1.31l-52.847-.163a1.307,1.307,0,0,0-1.311,1.3L61.7,310.2a1.306,1.306,0,0,0,1.3,1.311" fill="#ee5064"/>
          <path id="Path_6611" data-name="Path 6611" d="M63,311.508l52.848.162a1.307,1.307,0,0,0,1.311-1.3l.014-4.733a1.306,1.306,0,0,0-1.3-1.31l-52.847-.163a1.307,1.307,0,0,0-1.311,1.3L61.7,310.2A1.306,1.306,0,0,0,63,311.508Z" fill="none" stroke="#000" stroke-miterlimit="10" stroke-width="1"/>
          <path id="Path_6612" data-name="Path 6612" d="M115.856,311.868h-.006L63,311.7a1.507,1.507,0,0,1-1.5-1.508l.015-4.731a1.506,1.506,0,0,1,1.5-1.5h.006l52.847.163a1.505,1.505,0,0,1,1.5,1.508l-.015,4.732a1.5,1.5,0,0,1-1.5,1.5m-52.851-.556,52.848.162h0a1.108,1.108,0,0,0,1.109-1.106l.015-4.732a1.111,1.111,0,0,0-1.107-1.114l-52.847-.162h0a1.112,1.112,0,0,0-1.11,1.107L61.9,310.2a1.112,1.112,0,0,0,1.108,1.113" fill="#101c3a"/>
          <path id="Path_6613" data-name="Path 6613" d="M115.856,311.868h-.006L63,311.7a1.507,1.507,0,0,1-1.5-1.508l.015-4.731a1.506,1.506,0,0,1,1.5-1.5h.006l52.847.163a1.505,1.505,0,0,1,1.5,1.508l-.015,4.732a1.5,1.5,0,0,1-1.5,1.5Zm-52.851-.556,52.848.162h0a1.108,1.108,0,0,0,1.109-1.106l.015-4.732a1.111,1.111,0,0,0-1.107-1.114l-52.847-.162h0a1.112,1.112,0,0,0-1.11,1.107L61.9,310.2A1.112,1.112,0,0,0,63.005,311.312Z" fill="none" stroke="#000" stroke-miterlimit="10" stroke-width="1"/>
          <path id="Path_6614" data-name="Path 6614" d="M125.95,289.671l-52.847.162a1.307,1.307,0,0,1-1.311-1.3l-.015-4.733a1.306,1.306,0,0,1,1.3-1.309l52.847-.164a1.308,1.308,0,0,1,1.311,1.3l.015,4.731a1.307,1.307,0,0,1-1.3,1.311" fill="#fc721a"/>
          <path id="Path_6615" data-name="Path 6615" d="M125.95,289.671l-52.847.162a1.307,1.307,0,0,1-1.311-1.3l-.015-4.733a1.306,1.306,0,0,1,1.3-1.309l52.847-.164a1.308,1.308,0,0,1,1.311,1.3l.015,4.731A1.307,1.307,0,0,1,125.95,289.671Z" fill="none" stroke="#000" stroke-miterlimit="10" stroke-width="1"/>
          <path id="Path_6616" data-name="Path 6616" d="M73.1,290.031a1.506,1.506,0,0,1-1.5-1.5l-.013-4.732a1.5,1.5,0,0,1,1.5-1.507l52.847-.163h.006a1.507,1.507,0,0,1,1.5,1.5l.014,4.732a1.507,1.507,0,0,1-1.5,1.508l-52.847.162Zm52.834-7.508h0l-52.848.163a1.11,1.11,0,0,0-1.106,1.113l.013,4.732a1.11,1.11,0,0,0,1.11,1.106h0l52.848-.162a1.111,1.111,0,0,0,1.108-1.113l-.015-4.732a1.112,1.112,0,0,0-1.11-1.107" fill="#101c3a"/>
          <path id="Path_6617" data-name="Path 6617" d="M73.1,290.031a1.506,1.506,0,0,1-1.5-1.5l-.013-4.732a1.5,1.5,0,0,1,1.5-1.507l52.847-.163h.006a1.507,1.507,0,0,1,1.5,1.5l.014,4.732a1.507,1.507,0,0,1-1.5,1.508l-52.847.162Zm52.834-7.508h0l-52.848.163a1.11,1.11,0,0,0-1.106,1.113l.013,4.732a1.11,1.11,0,0,0,1.11,1.106h0l52.848-.162a1.111,1.111,0,0,0,1.108-1.113l-.015-4.732A1.112,1.112,0,0,0,125.931,282.523Z" fill="none" stroke="#000" stroke-miterlimit="10" stroke-width="1"/>
          <path id="Path_6618" data-name="Path 6618" d="M120.332,267.748l-52.847.162a1.307,1.307,0,0,1-1.311-1.3l-.015-4.732a1.307,1.307,0,0,1,1.3-1.311l52.848-.163a1.308,1.308,0,0,1,1.311,1.3l.014,4.733a1.305,1.305,0,0,1-1.3,1.31" fill="#fc721a"/>
          <path id="Path_6619" data-name="Path 6619" d="M120.332,267.748l-52.847.162a1.307,1.307,0,0,1-1.311-1.3l-.015-4.732a1.307,1.307,0,0,1,1.3-1.311l52.848-.163a1.308,1.308,0,0,1,1.311,1.3l.014,4.733A1.305,1.305,0,0,1,120.332,267.748Z" fill="none" stroke="#000" stroke-miterlimit="10" stroke-width="1"/>
          <path id="Path_6620" data-name="Path 6620" d="M67.48,268.107a1.5,1.5,0,0,1-1.5-1.5l-.015-4.732a1.5,1.5,0,0,1,1.5-1.507l52.846-.164h.005a1.506,1.506,0,0,1,1.5,1.5l.015,4.731a1.5,1.5,0,0,1-1.5,1.508l-52.847.162Zm52.833-7.508h0l-52.846.163a1.111,1.111,0,0,0-1.108,1.114l.015,4.732a1.11,1.11,0,0,0,1.11,1.106h0l52.849-.162a1.111,1.111,0,0,0,1.107-1.114l-.015-4.731a1.112,1.112,0,0,0-1.111-1.108" fill="#101c3a"/>
          <path id="Path_6621" data-name="Path 6621" d="M67.48,268.107a1.5,1.5,0,0,1-1.5-1.5l-.015-4.732a1.5,1.5,0,0,1,1.5-1.507l52.846-.164h.005a1.506,1.506,0,0,1,1.5,1.5l.015,4.731a1.5,1.5,0,0,1-1.5,1.508l-52.847.162Zm52.833-7.508h0l-52.846.163a1.111,1.111,0,0,0-1.108,1.114l.015,4.732a1.11,1.11,0,0,0,1.11,1.106h0l52.849-.162a1.111,1.111,0,0,0,1.107-1.114l-.015-4.731A1.112,1.112,0,0,0,120.313,260.6Z" fill="none" stroke="#000" stroke-miterlimit="10" stroke-width="1"/>
          <path id="Path_6622" data-name="Path 6622" d="M125.95,282.408,73.1,282.57a1.3,1.3,0,0,1-1.311-1.3l-.015-4.732a1.306,1.306,0,0,1,1.3-1.309l52.847-.163a1.3,1.3,0,0,1,1.311,1.3l.015,4.731a1.306,1.306,0,0,1-1.3,1.31" fill="#fc721a"/>
          <path id="Path_6623" data-name="Path 6623" d="M125.95,282.408,73.1,282.57a1.3,1.3,0,0,1-1.311-1.3l-.015-4.732a1.306,1.306,0,0,1,1.3-1.309l52.847-.163a1.3,1.3,0,0,1,1.311,1.3l.015,4.731A1.306,1.306,0,0,1,125.95,282.408Z" fill="none" stroke="#000" stroke-miterlimit="10" stroke-width="1"/>
          <path id="Path_6624" data-name="Path 6624" d="M73.1,282.768a1.5,1.5,0,0,1-1.5-1.5l-.013-4.732a1.5,1.5,0,0,1,1.5-1.508l52.847-.163h0a1.507,1.507,0,0,1,1.5,1.5l.014,4.732a1.506,1.506,0,0,1-1.5,1.508l-52.847.162Zm52.833-7.508h0l-52.847.162a1.111,1.111,0,0,0-1.106,1.114l.014,4.733a1.11,1.11,0,0,0,1.109,1.106h0l52.847-.162a1.111,1.111,0,0,0,1.108-1.114l-.015-4.732a1.112,1.112,0,0,0-1.111-1.107" fill="#101c3a"/>
          <path id="Path_6625" data-name="Path 6625" d="M73.1,282.768a1.5,1.5,0,0,1-1.5-1.5l-.013-4.732a1.5,1.5,0,0,1,1.5-1.508l52.847-.163h0a1.507,1.507,0,0,1,1.5,1.5l.014,4.732a1.506,1.506,0,0,1-1.5,1.508l-52.847.162Zm52.833-7.508h0l-52.847.162a1.111,1.111,0,0,0-1.106,1.114l.014,4.733a1.11,1.11,0,0,0,1.109,1.106h0l52.847-.162a1.111,1.111,0,0,0,1.108-1.114l-.015-4.732A1.112,1.112,0,0,0,125.93,275.26Z" fill="none" stroke="#000" stroke-miterlimit="10" stroke-width="1"/>
          <path id="Path_6626" data-name="Path 6626" d="M122.646,275.064l-52.848.162a1.308,1.308,0,0,1-1.312-1.3l-.014-4.732a1.306,1.306,0,0,1,1.3-1.31l52.847-.163a1.307,1.307,0,0,1,1.311,1.3l.014,4.732a1.306,1.306,0,0,1-1.3,1.311" fill="#fc721a"/>
          <path id="Path_6627" data-name="Path 6627" d="M122.646,275.064l-52.848.162a1.308,1.308,0,0,1-1.312-1.3l-.014-4.732a1.306,1.306,0,0,1,1.3-1.31l52.847-.163a1.307,1.307,0,0,1,1.311,1.3l.014,4.732A1.306,1.306,0,0,1,122.646,275.064Z" fill="none" stroke="#000" stroke-miterlimit="10" stroke-width="1"/>
          <path id="Path_6628" data-name="Path 6628" d="M69.793,275.422a1.5,1.5,0,0,1-1.5-1.5l-.015-4.732a1.5,1.5,0,0,1,1.5-1.508l52.847-.163h.006a1.5,1.5,0,0,1,1.5,1.5l.015,4.731a1.5,1.5,0,0,1-1.5,1.508l-52.849.162Zm52.835-7.508h0l-52.847.163a1.111,1.111,0,0,0-1.108,1.114l.015,4.732a1.108,1.108,0,0,0,1.109,1.106h0l52.849-.162a1.11,1.11,0,0,0,1.106-1.114l-.014-4.731a1.111,1.111,0,0,0-1.109-1.108" fill="#101c3a"/>
          <path id="Path_6629" data-name="Path 6629" d="M69.793,275.422a1.5,1.5,0,0,1-1.5-1.5l-.015-4.732a1.5,1.5,0,0,1,1.5-1.508l52.847-.163h.006a1.5,1.5,0,0,1,1.5,1.5l.015,4.731a1.5,1.5,0,0,1-1.5,1.508l-52.849.162Zm52.835-7.508h0l-52.847.163a1.111,1.111,0,0,0-1.108,1.114l.015,4.732a1.108,1.108,0,0,0,1.109,1.106h0l52.849-.162a1.11,1.11,0,0,0,1.106-1.114l-.014-4.731a1.111,1.111,0,0,0-1.109-1.108Z" fill="none" stroke="#000" stroke-miterlimit="10" stroke-width="1"/>
          <path id="Path_6630" data-name="Path 6630" d="M59.169,318.626c-9-4.966-13.911-17.15-11.288-29.923C50.487,276.018,59.7,266.8,69.842,265.677l.181-.9,5.644,1.16c12.243,2.515,19.659,16.786,16.559,31.873s-15.54,25.278-27.785,22.764l-5.468-.979Z" fill="#ee5064"/>
          <path id="Path_6631" data-name="Path 6631" d="M59.169,318.626c-9-4.966-13.911-17.15-11.288-29.923C50.487,276.018,59.7,266.8,69.842,265.677l.181-.9,5.644,1.16c12.243,2.515,19.659,16.786,16.559,31.873s-15.54,25.278-27.785,22.764l-5.468-.979Z" fill="none" stroke="#000" stroke-miterlimit="10" stroke-width="1"/>
          <path id="Path_6632" data-name="Path 6632" d="M68.175,321.155a18.771,18.771,0,0,1-3.773-.384l-5.661-1.013.207-1.029c-9.21-5.172-13.837-17.509-11.26-30.065,2.557-12.438,11.587-21.94,21.989-23.166l.192-.949,5.838,1.2c5.981,1.228,11.012,5.25,14.167,11.323a31.459,31.459,0,0,1,2.544,20.782c-2.8,13.621-13.216,23.3-24.243,23.3m-8.97-1.713,5.271.943c12.12,2.486,24.484-7.653,27.558-22.609a31.08,31.08,0,0,0-2.508-20.522c-3.1-5.967-8.036-9.916-13.9-11.12l-5.451-1.12-.169.842-.144.016c-10.3,1.137-19.256,10.542-21.791,22.871-2.555,12.447,2.047,24.665,11.192,29.712l.125.069Z" fill="#101c3a"/>
          <path id="Path_6633" data-name="Path 6633" d="M68.175,321.155a18.771,18.771,0,0,1-3.773-.384l-5.661-1.013.207-1.029c-9.21-5.172-13.837-17.509-11.26-30.065,2.557-12.438,11.587-21.94,21.989-23.166l.192-.949,5.838,1.2c5.981,1.228,11.012,5.25,14.167,11.323a31.459,31.459,0,0,1,2.544,20.782C89.621,311.475,79.2,321.155,68.175,321.155Zm-8.97-1.713,5.271.943c12.12,2.486,24.484-7.653,27.558-22.609a31.08,31.08,0,0,0-2.508-20.522c-3.1-5.967-8.036-9.916-13.9-11.12l-5.451-1.12-.169.842-.144.016c-10.3,1.137-19.256,10.542-21.791,22.871-2.555,12.447,2.047,24.665,11.192,29.712l.125.069Z" fill="none" stroke="#000" stroke-miterlimit="10" stroke-width="1"/>
          <path id="Path_6634" data-name="Path 6634" d="M42.237,287.543c-3.1,15.088,4.49,29.54,16.735,32.056s24.51-7.857,27.611-22.944S82.267,267.3,70.022,264.782s-24.685,7.675-27.785,22.761" fill="#fff"/>
          <path id="Path_6635" data-name="Path 6635" d="M42.237,287.543c-3.1,15.088,4.49,29.54,16.735,32.056s24.51-7.857,27.611-22.944S82.267,267.3,70.022,264.782,45.337,272.457,42.237,287.543Z" fill="none" stroke="#000" stroke-miterlimit="10" stroke-width="1"/>
          <path id="Path_6636" data-name="Path 6636" d="M62.619,320.234a18.33,18.33,0,0,1-3.7-.377c-12.481-2.565-20.079-17.084-16.939-32.366a31.514,31.514,0,0,1,10.553-18.133c5.31-4.351,11.538-6.07,17.543-4.834,12.367,2.541,19.888,16.979,16.765,32.184C84.015,310.45,73.6,320.232,62.619,320.234m3.632-55.574a21.138,21.138,0,0,0-13.384,5.105A30.988,30.988,0,0,0,42.5,287.6c-3.083,15,4.333,29.24,16.53,31.746,11.961,2.457,24.216-7.742,27.3-22.74,3.066-14.921-4.272-29.08-16.356-31.563a18.464,18.464,0,0,0-3.718-.379" fill="#101c3a"/>
          <path id="Path_6637" data-name="Path 6637" d="M62.619,320.234a18.33,18.33,0,0,1-3.7-.377c-12.481-2.565-20.079-17.084-16.939-32.366a31.514,31.514,0,0,1,10.553-18.133c5.31-4.351,11.538-6.07,17.543-4.834,12.367,2.541,19.888,16.979,16.765,32.184C84.015,310.45,73.6,320.232,62.619,320.234Zm3.632-55.574a21.138,21.138,0,0,0-13.384,5.105A30.988,30.988,0,0,0,42.5,287.6c-3.083,15,4.333,29.24,16.53,31.746,11.961,2.457,24.216-7.742,27.3-22.74,3.066-14.921-4.272-29.08-16.356-31.563A18.464,18.464,0,0,0,66.251,264.66Z" fill="none" stroke="#000" stroke-miterlimit="10" stroke-width="1"/>
          <path id="Path_6638" data-name="Path 6638" d="M46.195,288.37C43.65,300.762,49.882,312.633,59.94,314.7s20.133-6.452,22.678-18.844-3.544-24.112-13.6-26.179-20.277,6.3-22.822,18.7" fill="#ee5064"/>
          <path id="Path_6639" data-name="Path 6639" d="M46.195,288.37C43.65,300.762,49.882,312.633,59.94,314.7s20.133-6.452,22.678-18.844-3.544-24.112-13.6-26.179S48.74,275.978,46.195,288.37Z" fill="none" stroke="#000" stroke-miterlimit="10" stroke-width="1"/>
          <path id="Path_6640" data-name="Path 6640" d="M62.99,315.2a15.3,15.3,0,0,1-3.089-.314c-4.927-1.011-9.094-4.347-11.734-9.391a26.93,26.93,0,0,1,6.5-32.05c4.357-3.57,9.468-4.979,14.392-3.967,10.147,2.086,16.317,13.934,13.754,26.412a26.289,26.289,0,0,1-8.587,14.955A17.533,17.533,0,0,1,62.99,315.2m-16.8-26.833.192.04a25.492,25.492,0,0,0,2.13,16.906c2.582,4.938,6.654,8.2,11.464,9.188,4.79.985,9.759-.422,13.991-3.958a25.9,25.9,0,0,0,8.455-14.733c2.519-12.265-3.515-23.9-13.45-25.946-4.806-.99-9.8.391-14.064,3.885a25.49,25.49,0,0,0-8.526,14.658Z" fill="#ee5064"/>
          <path id="Path_6641" data-name="Path 6641" d="M62.99,315.2a15.3,15.3,0,0,1-3.089-.314c-4.927-1.011-9.094-4.347-11.734-9.391a26.93,26.93,0,0,1,6.5-32.05c4.357-3.57,9.468-4.979,14.392-3.967,10.147,2.086,16.317,13.934,13.754,26.412a26.289,26.289,0,0,1-8.587,14.955A17.533,17.533,0,0,1,62.99,315.2Zm-16.8-26.833.192.04a25.492,25.492,0,0,0,2.13,16.906c2.582,4.938,6.654,8.2,11.464,9.188,4.79.985,9.759-.422,13.991-3.958a25.9,25.9,0,0,0,8.455-14.733c2.519-12.265-3.515-23.9-13.45-25.946-4.806-.99-9.8.391-14.064,3.885a25.49,25.49,0,0,0-8.526,14.658Z" fill="none" stroke="#000" stroke-miterlimit="10" stroke-width="1"/>
          <path id="Path_6642" data-name="Path 6642" d="M67.337,281.163a8.186,8.186,0,0,1,1.88.84,6.2,6.2,0,0,1,1.528,1.31,5.916,5.916,0,0,1,1.03,1.809,7,7,0,0,1,.388,2.33l-2.486-.4a4.962,4.962,0,0,0-.9-2.2,3.828,3.828,0,0,0-1.835-1.265l-1.12,6.936c.466.3.929.593,1.384.894s.887.612,1.3.938a10.73,10.73,0,0,1,1.117,1.039,5.808,5.808,0,0,1,.841,1.183,4.616,4.616,0,0,1,.463,1.368,4.713,4.713,0,0,1-.009,1.571,5.358,5.358,0,0,1-.925,2.362,5.586,5.586,0,0,1-1.669,1.528,6.644,6.644,0,0,1-2.129.8,9.4,9.4,0,0,1-2.279.168l-.561,3.469-2.516-.408.569-3.527a6.72,6.72,0,0,1-1.956-1.191,7.585,7.585,0,0,1-1.5-1.777,8.55,8.55,0,0,1-.963-2.234,9.223,9.223,0,0,1-.329-2.556l2.64.426a7.217,7.217,0,0,0,.183,1.55,6.2,6.2,0,0,0,.487,1.368,4.472,4.472,0,0,0,.782,1.11,3.875,3.875,0,0,0,1.062.787l1.217-7.535c-.646-.42-1.267-.853-1.854-1.3a8.869,8.869,0,0,1-1.534-1.468,5.425,5.425,0,0,1-.963-1.747,4.89,4.89,0,0,1,.627-4.033,5.408,5.408,0,0,1,1.422-1.4,6.537,6.537,0,0,1,1.9-.866,7.848,7.848,0,0,1,2.189-.284l.359-2.225,2.516.4Zm-6.152,4.362a2.388,2.388,0,0,0,.045,1.036,3.03,3.03,0,0,0,.44.932,4.925,4.925,0,0,0,.766.855,10.774,10.774,0,0,0,1.028.806l.959-5.94a3.655,3.655,0,0,0-2.23.653,2.527,2.527,0,0,0-1.008,1.658M68.3,297.16a1.975,1.975,0,0,0-.119-1.068,3.71,3.71,0,0,0-.626-1.005,6.8,6.8,0,0,0-.98-.944q-.565-.456-1.19-.87L64.3,299.962a4.787,4.787,0,0,0,1.5-.181,4.2,4.2,0,0,0,1.211-.575,3.207,3.207,0,0,0,.853-.895,3.049,3.049,0,0,0,.429-1.151" fill="#fff"/>
          <path id="Path_6643" data-name="Path 6643" d="M67.337,281.163a8.186,8.186,0,0,1,1.88.84,6.2,6.2,0,0,1,1.528,1.31,5.916,5.916,0,0,1,1.03,1.809,7,7,0,0,1,.388,2.33l-2.486-.4a4.962,4.962,0,0,0-.9-2.2,3.828,3.828,0,0,0-1.835-1.265l-1.12,6.936c.466.3.929.593,1.384.894s.887.612,1.3.938a10.73,10.73,0,0,1,1.117,1.039,5.808,5.808,0,0,1,.841,1.183,4.616,4.616,0,0,1,.463,1.368,4.713,4.713,0,0,1-.009,1.571,5.358,5.358,0,0,1-.925,2.362,5.586,5.586,0,0,1-1.669,1.528,6.644,6.644,0,0,1-2.129.8,9.4,9.4,0,0,1-2.279.168l-.561,3.469-2.516-.408.569-3.527a6.72,6.72,0,0,1-1.956-1.191,7.585,7.585,0,0,1-1.5-1.777,8.55,8.55,0,0,1-.963-2.234,9.223,9.223,0,0,1-.329-2.556l2.64.426a7.217,7.217,0,0,0,.183,1.55,6.2,6.2,0,0,0,.487,1.368,4.472,4.472,0,0,0,.782,1.11,3.875,3.875,0,0,0,1.062.787l1.217-7.535c-.646-.42-1.267-.853-1.854-1.3a8.869,8.869,0,0,1-1.534-1.468,5.425,5.425,0,0,1-.963-1.747,4.89,4.89,0,0,1,.627-4.033,5.408,5.408,0,0,1,1.422-1.4,6.537,6.537,0,0,1,1.9-.866,7.848,7.848,0,0,1,2.189-.284l.359-2.225,2.516.4Zm-6.152,4.362a2.388,2.388,0,0,0,.045,1.036,3.03,3.03,0,0,0,.44.932,4.925,4.925,0,0,0,.766.855,10.774,10.774,0,0,0,1.028.806l.959-5.94a3.655,3.655,0,0,0-2.23.653A2.527,2.527,0,0,0,61.185,285.525ZM68.3,297.16a1.975,1.975,0,0,0-.119-1.068,3.71,3.71,0,0,0-.626-1.005,6.8,6.8,0,0,0-.98-.944q-.565-.456-1.19-.87L64.3,299.962a4.787,4.787,0,0,0,1.5-.181,4.2,4.2,0,0,0,1.211-.575,3.207,3.207,0,0,0,.853-.895A3.049,3.049,0,0,0,68.3,297.16Z" fill="none" stroke="#000" stroke-miterlimit="10" stroke-width="1"/>
          <path id="Path_6644" data-name="Path 6644" d="M30.217,355.339l52.848.162a1.308,1.308,0,0,0,1.311-1.3l.014-4.733a1.306,1.306,0,0,0-1.3-1.31l-52.847-.163a1.307,1.307,0,0,0-1.311,1.3l-.015,4.731a1.307,1.307,0,0,0,1.3,1.311" fill="#ee5064"/>
          <path id="Path_6645" data-name="Path 6645" d="M30.217,355.339l52.848.162a1.308,1.308,0,0,0,1.311-1.3l.014-4.733a1.306,1.306,0,0,0-1.3-1.31l-52.847-.163a1.307,1.307,0,0,0-1.311,1.3l-.015,4.731A1.307,1.307,0,0,0,30.217,355.339Z" fill="none" stroke="#000" stroke-miterlimit="10" stroke-width="1"/>
          <path id="Path_6646" data-name="Path 6646" d="M83.07,355.7h-.006l-52.849-.162a1.507,1.507,0,0,1-1.5-1.51l.015-4.73a1.5,1.5,0,0,1,1.5-1.5h0l52.849.163a1.507,1.507,0,0,1,1.5,1.508l-.015,4.733a1.5,1.5,0,0,1-1.5,1.5m-52.852-.556,52.848.162h0a1.108,1.108,0,0,0,1.109-1.106l.014-4.733a1.111,1.111,0,0,0-1.107-1.113l-52.848-.162h0a1.111,1.111,0,0,0-1.111,1.107l-.015,4.731a1.112,1.112,0,0,0,1.107,1.114" fill="#101c3a"/>
          <path id="Path_6647" data-name="Path 6647" d="M83.07,355.7h-.006l-52.849-.162a1.507,1.507,0,0,1-1.5-1.51l.015-4.73a1.5,1.5,0,0,1,1.5-1.5h0l52.849.163a1.507,1.507,0,0,1,1.5,1.508l-.015,4.733a1.5,1.5,0,0,1-1.5,1.5Zm-52.852-.556,52.848.162h0a1.108,1.108,0,0,0,1.109-1.106l.014-4.733a1.111,1.111,0,0,0-1.107-1.113l-52.848-.162h0a1.111,1.111,0,0,0-1.111,1.107l-.015,4.731A1.112,1.112,0,0,0,30.218,355.142Z" fill="none" stroke="#000" stroke-miterlimit="10" stroke-width="1"/>
          <path id="Path_6648" data-name="Path 6648" d="M40.876,333.415l52.847.162a1.306,1.306,0,0,0,1.311-1.3l.014-4.732a1.3,1.3,0,0,0-1.3-1.31L40.9,326.07a1.307,1.307,0,0,0-1.311,1.3l-.015,4.731a1.306,1.306,0,0,0,1.3,1.311" fill="#ee5064"/>
          <path id="Path_6649" data-name="Path 6649" d="M40.876,333.415l52.847.162a1.306,1.306,0,0,0,1.311-1.3l.014-4.732a1.3,1.3,0,0,0-1.3-1.31L40.9,326.07a1.307,1.307,0,0,0-1.311,1.3l-.015,4.731A1.306,1.306,0,0,0,40.876,333.415Z" fill="none" stroke="#000" stroke-miterlimit="10" stroke-width="1"/>
          <path id="Path_6650" data-name="Path 6650" d="M93.729,333.774h-.008l-52.847-.161a1.506,1.506,0,0,1-1.5-1.51l.015-4.731a1.5,1.5,0,0,1,1.5-1.5H40.9l52.847.164a1.5,1.5,0,0,1,1.5,1.507l-.015,4.733a1.5,1.5,0,0,1-1.5,1.5m-52.853-.555,52.847.161h.006a1.108,1.108,0,0,0,1.108-1.106l.016-4.733a1.11,1.11,0,0,0-1.108-1.112L40.9,326.267h0a1.108,1.108,0,0,0-1.109,1.106l-.015,4.733a1.11,1.11,0,0,0,1.107,1.113" fill="#101c3a"/>
          <path id="Path_6651" data-name="Path 6651" d="M93.729,333.774h-.008l-52.847-.161a1.506,1.506,0,0,1-1.5-1.51l.015-4.731a1.5,1.5,0,0,1,1.5-1.5H40.9l52.847.164a1.5,1.5,0,0,1,1.5,1.507l-.015,4.733a1.5,1.5,0,0,1-1.5,1.5Zm-52.853-.555,52.847.161h.006a1.108,1.108,0,0,0,1.108-1.106l.016-4.733a1.11,1.11,0,0,0-1.108-1.112L40.9,326.267h0a1.108,1.108,0,0,0-1.109,1.106l-.015,4.733a1.11,1.11,0,0,0,1.107,1.113Z" fill="none" stroke="#000" stroke-miterlimit="10" stroke-width="1"/>
          <path id="Path_6652" data-name="Path 6652" d="M36.911,326.084l52.848.162a1.307,1.307,0,0,0,1.311-1.3l.014-4.733a1.306,1.306,0,0,0-1.3-1.31l-52.847-.163a1.307,1.307,0,0,0-1.311,1.3l-.015,4.732a1.307,1.307,0,0,0,1.3,1.311" fill="#ee5064"/>
          <path id="Path_6653" data-name="Path 6653" d="M36.911,326.084l52.848.162a1.307,1.307,0,0,0,1.311-1.3l.014-4.733a1.306,1.306,0,0,0-1.3-1.31l-52.847-.163a1.307,1.307,0,0,0-1.311,1.3l-.015,4.732A1.307,1.307,0,0,0,36.911,326.084Z" fill="none" stroke="#000" stroke-miterlimit="10" stroke-width="1"/>
          <path id="Path_6654" data-name="Path 6654" d="M89.763,326.443h-.006l-52.848-.162a1.5,1.5,0,0,1-1.5-1.509l.015-4.732a1.5,1.5,0,0,1,1.5-1.5h.006l52.848.163a1.5,1.5,0,0,1,1.5,1.507l-.015,4.733a1.5,1.5,0,0,1-1.5,1.5m-52.852-.556,52.849.163h0a1.11,1.11,0,0,0,1.109-1.108l.015-4.732A1.112,1.112,0,0,0,89.78,319.1l-52.849-.162h0a1.11,1.11,0,0,0-1.109,1.107l-.015,4.732a1.11,1.11,0,0,0,1.107,1.113" fill="#101c3a"/>
          <path id="Path_6655" data-name="Path 6655" d="M89.763,326.443h-.006l-52.848-.162a1.5,1.5,0,0,1-1.5-1.509l.015-4.732a1.5,1.5,0,0,1,1.5-1.5h.006l52.848.163a1.5,1.5,0,0,1,1.5,1.507l-.015,4.733a1.5,1.5,0,0,1-1.5,1.5Zm-52.852-.556,52.849.163h0a1.11,1.11,0,0,0,1.109-1.108l.015-4.732A1.112,1.112,0,0,0,89.78,319.1l-52.849-.162h0a1.11,1.11,0,0,0-1.109,1.107l-.015,4.732a1.11,1.11,0,0,0,1.107,1.113Z" fill="none" stroke="#000" stroke-miterlimit="10" stroke-width="1"/>
          <path id="Path_6656" data-name="Path 6656" d="M30.217,348.076l52.848.162a1.308,1.308,0,0,0,1.311-1.3l.014-4.733a1.305,1.305,0,0,0-1.3-1.309L30.24,340.73a1.307,1.307,0,0,0-1.311,1.3l-.015,4.731a1.307,1.307,0,0,0,1.3,1.311" fill="#ee5064"/>
          <path id="Path_6657" data-name="Path 6657" d="M30.217,348.076l52.848.162a1.308,1.308,0,0,0,1.311-1.3l.014-4.733a1.305,1.305,0,0,0-1.3-1.309L30.24,340.73a1.307,1.307,0,0,0-1.311,1.3l-.015,4.731A1.307,1.307,0,0,0,30.217,348.076Z" fill="none" stroke="#000" stroke-miterlimit="10" stroke-width="1"/>
          <path id="Path_6658" data-name="Path 6658" d="M83.07,348.435h-.006l-52.849-.162a1.5,1.5,0,0,1-1.5-1.509l.015-4.731a1.5,1.5,0,0,1,1.5-1.5h.006l52.847.163a1.506,1.506,0,0,1,1.5,1.508l-.015,4.732a1.5,1.5,0,0,1-1.5,1.5m-52.852-.556,52.848.163h0a1.11,1.11,0,0,0,1.109-1.107l.014-4.732a1.111,1.111,0,0,0-1.107-1.114l-52.848-.162h0a1.106,1.106,0,0,0-1.109,1.107l-.015,4.732a1.11,1.11,0,0,0,1.107,1.113" fill="#101c3a"/>
          <path id="Path_6659" data-name="Path 6659" d="M83.07,348.435h-.006l-52.849-.162a1.5,1.5,0,0,1-1.5-1.509l.015-4.731a1.5,1.5,0,0,1,1.5-1.5h.006l52.847.163a1.506,1.506,0,0,1,1.5,1.508l-.015,4.732a1.5,1.5,0,0,1-1.5,1.5Zm-52.852-.556,52.848.163h0a1.11,1.11,0,0,0,1.109-1.107l.014-4.732a1.111,1.111,0,0,0-1.107-1.114l-52.848-.162h0a1.106,1.106,0,0,0-1.109,1.107l-.015,4.732a1.11,1.11,0,0,0,1.107,1.113Z" fill="none" stroke="#000" stroke-miterlimit="10" stroke-width="1"/>
          <path id="Path_6660" data-name="Path 6660" d="M33.522,340.73l52.848.163a1.308,1.308,0,0,0,1.311-1.3l.014-4.732a1.306,1.306,0,0,0-1.3-1.31l-52.847-.163a1.307,1.307,0,0,0-1.311,1.3l-.015,4.731a1.307,1.307,0,0,0,1.3,1.311" fill="#ee5064"/>
          <path id="Path_6661" data-name="Path 6661" d="M33.522,340.73l52.848.163a1.308,1.308,0,0,0,1.311-1.3l.014-4.732a1.306,1.306,0,0,0-1.3-1.31l-52.847-.163a1.307,1.307,0,0,0-1.311,1.3l-.015,4.731A1.307,1.307,0,0,0,33.522,340.73Z" fill="none" stroke="#000" stroke-miterlimit="10" stroke-width="1"/>
          <path id="Path_6662" data-name="Path 6662" d="M86.374,341.089h-.006l-52.847-.162a1.507,1.507,0,0,1-1.5-1.509l.015-4.731a1.506,1.506,0,0,1,1.5-1.5h.006l52.847.163a1.505,1.505,0,0,1,1.5,1.508l-.015,4.732a1.5,1.5,0,0,1-1.5,1.5m-52.851-.555,52.848.162h0a1.11,1.11,0,0,0,1.11-1.107l.015-4.732a1.112,1.112,0,0,0-1.108-1.114l-52.848-.162h0a1.111,1.111,0,0,0-1.11,1.109l-.015,4.73a1.112,1.112,0,0,0,1.108,1.114" fill="#101c3a"/>
          <path id="Path_6663" data-name="Path 6663" d="M86.374,341.089h-.006l-52.847-.162a1.507,1.507,0,0,1-1.5-1.509l.015-4.731a1.506,1.506,0,0,1,1.5-1.5h.006l52.847.163a1.505,1.505,0,0,1,1.5,1.508l-.015,4.732a1.5,1.5,0,0,1-1.5,1.5Zm-52.851-.555,52.848.162h0a1.11,1.11,0,0,0,1.11-1.107l.015-4.732a1.112,1.112,0,0,0-1.108-1.114l-52.848-.162h0a1.111,1.111,0,0,0-1.11,1.109l-.015,4.73A1.112,1.112,0,0,0,33.523,340.534Z" fill="none" stroke="#000" stroke-miterlimit="10" stroke-width="1"/>
        </g>
      </g>
      <g id="Group_529" data-name="Group 529">
        <g id="Group_528" data-name="Group 528" clip-path="url(#clip-path-3)">
          <path id="Path_6664" data-name="Path 6664" d="M323.17,189.192c-18.5-10.537-68.393,7.285-85.76,12.939a65.892,65.892,0,0,0-10.671,4.4c-4.763-.094-10.49-.2-16.585-.319-.735-.024-1.47-.034-2.219-.058-2.165-.035-4.383-.08-6.615-.125-2.566-.057-5.145-.1-7.7-.149-1.651-.028-3.276-.07-4.888-.1-1.276-.029-2.54-.046-3.791-.077-6.73-.132-12.9-.258-17.7-.359-8.844-4.16-17.26-4.342-32.2,5.311-15.339,9.914-60.631,37.4-64.12,58.4-5.413,32.583,32.469,50.782,50.454,40.464a23.838,23.838,0,0,0,3.615-2.69c-.59,4.08-1.184,8.217-1.78,12.379-6.378,44.552-12.781,91.516-12.781,91.516s4.215,1.439,10.97,3.569c15.531,4.892,44.5,13.442,66.684,16.511.156.02.3.041.441.061.3.041.583.082.867.109s.545.083.816.111c3.664.456,7.116.751,10.25.839,8.925.245,20.979-1.987,32.864-4.985,11.41-2.89,22.653-6.483,30.821-9.264,7.518-2.564,12.409-4.435,12.409-4.435,1.17-9.656-1.37-43.295-4.364-75.963v-.013c-.162-1.914-.337-3.814-.511-5.714q-.352-3.736-.7-7.422c-1-10.425-1.991-20.387-2.858-29.026-.364-3.543-.707-6.855-1.015-9.884-.721-6.828-1.3-12.23-1.64-15.517a144.081,144.081,0,0,0-2.636-15.652c22.941,1.991,50.833,3.319,59.936-.188,19.349-7.453,29.111-48.331.408-64.674" fill="#672376"/>
          <path id="Path_6665" data-name="Path 6665" d="M323.17,189.192c-18.5-10.537-68.393,7.285-85.76,12.939a65.892,65.892,0,0,0-10.671,4.4c-4.763-.094-10.49-.2-16.585-.319-.735-.024-1.47-.034-2.219-.058-2.165-.035-4.383-.08-6.615-.125-2.566-.057-5.145-.1-7.7-.149-1.651-.028-3.276-.07-4.888-.1-1.276-.029-2.54-.046-3.791-.077-6.73-.132-12.9-.258-17.7-.359-8.844-4.16-17.26-4.342-32.2,5.311-15.339,9.914-60.631,37.4-64.12,58.4-5.413,32.583,32.469,50.782,50.454,40.464a23.838,23.838,0,0,0,3.615-2.69c-.59,4.08-1.184,8.217-1.78,12.379-6.378,44.552-12.781,91.516-12.781,91.516s4.215,1.439,10.97,3.569c15.531,4.892,44.5,13.442,66.684,16.511.156.02.3.041.441.061.3.041.583.082.867.109s.545.083.816.111c3.664.456,7.116.751,10.25.839,8.925.245,20.979-1.987,32.864-4.985,11.41-2.89,22.653-6.483,30.821-9.264,7.518-2.564,12.409-4.435,12.409-4.435,1.17-9.656-1.37-43.295-4.364-75.963v-.013c-.162-1.914-.337-3.814-.511-5.714q-.352-3.736-.7-7.422c-1-10.425-1.991-20.387-2.858-29.026-.364-3.543-.707-6.855-1.015-9.884-.721-6.828-1.3-12.23-1.64-15.517a144.081,144.081,0,0,0-2.636-15.652c22.941,1.991,50.833,3.319,59.936-.188C342.111,246.413,351.873,205.535,323.17,189.192Z" fill="none" stroke="#000" stroke-miterlimit="10" stroke-width="1"/>
          <path id="Path_6666" data-name="Path 6666" d="M291.346,221.709c-.455-16.226,9.21-29.66,21.588-30.009s24.489,11.329,24.945,27.554-10.919,30.858-23.3,31.2-22.781-12.523-23.236-28.748" fill="#101c3a"/>
          <path id="Path_6667" data-name="Path 6667" d="M337.395,223.535c.294-17.154-16.749-57.493-25.306-72.359l.015,0c-4.464-7.727,5.232-10.738,7.036-15.478s2.155-9.957-.811-11.831-4.428-5.576-8.266-5.853a17.644,17.644,0,0,1-6.995-2.215c2.2-4.058,4.921-10.867,5.509-15.983.486-4.241-2.123-4.071-3.136-2.17-2.3,4.317-8.851,13.533-10.812,19.069a.6.6,0,0,0-.033.148c-1.93,3.642-3.186,18.285-2.646,21.1.8,4.2,3.181,4.417,4.951,15.025,2.769,9.923,1.635,30.755.417,48.316l-.361-.01a34.628,34.628,0,0,0-5.611,20.417c.456,16.225,8.562,23.641,20.939,23.293,2.778-.078,8.77-2.007,12.953-4.173,6.752-3.054,12.016-9.045,12.157-17.294" fill="#f8a3a2"/>
          <path id="Path_6668" data-name="Path 6668" d="M337.395,223.535c.294-17.154-16.749-57.493-25.306-72.359l.015,0c-4.464-7.727,5.232-10.738,7.036-15.478s2.155-9.957-.811-11.831-4.428-5.576-8.266-5.853a17.644,17.644,0,0,1-6.995-2.215c2.2-4.058,4.921-10.867,5.509-15.983.486-4.241-2.123-4.071-3.136-2.17-2.3,4.317-8.851,13.533-10.812,19.069a.6.6,0,0,0-.033.148c-1.93,3.642-3.186,18.285-2.646,21.1.8,4.2,3.181,4.417,4.951,15.025,2.769,9.923,1.635,30.755.417,48.316l-.361-.01a34.628,34.628,0,0,0-5.611,20.417c.456,16.225,8.562,23.641,20.939,23.293,2.778-.078,8.77-2.007,12.953-4.173C331.99,237.775,337.254,231.784,337.395,223.535Z" fill="none" stroke="#000" stroke-miterlimit="10" stroke-width="1"/>
          <path id="Path_6669" data-name="Path 6669" d="M189.788,204.958c-1.529-1.576-2.958-7.658-4.666-8.274l.144-5.139a227.269,227.269,0,0,0,25.475-8.76l-.492,17.512c-1.22.908-3.371,6.1-5.88,7.828-4.246,2.92-9.682,1.889-14.581-3.167" fill="#ff7761"/>
          <path id="Path_6670" data-name="Path 6670" d="M219.672,172.993a6.741,6.741,0,0,0-2.893-.14,20.765,20.765,0,0,0-.8-5.533c-3.364-10.919-12.788-15.876-23.708-12.513-9.667,2.977-12.66,7.829-11.948,17.1a6.792,6.792,0,1,0,.4,12.9c.044,2.361.129,4.571.323,6.079a8.314,8.314,0,0,0,3.192,5.114l.883.736-.458,16.286c1.538,2.418,9.473,33.5,9.473,33.5s12.247-28.733,15.739-32.866l.458-16.293.831-.6a8.572,8.572,0,0,0,3.585-5.011c.261-1.252.549-3.584.8-5.872.187.069.376.134.571.187a6.781,6.781,0,0,0,3.556-13.087" fill="#f8a3a2"/>
          <path id="Path_6671" data-name="Path 6671" d="M219.672,172.993a6.741,6.741,0,0,0-2.893-.14,20.765,20.765,0,0,0-.8-5.533c-3.364-10.919-12.788-15.876-23.708-12.513-9.667,2.977-12.66,7.829-11.948,17.1a6.792,6.792,0,1,0,.4,12.9c.044,2.361.129,4.571.323,6.079a8.314,8.314,0,0,0,3.192,5.114l.883.736-.458,16.286c1.538,2.418,9.473,33.5,9.473,33.5s12.247-28.733,15.739-32.866l.458-16.293.831-.6a8.572,8.572,0,0,0,3.585-5.011c.261-1.252.549-3.584.8-5.872.187.069.376.134.571.187a6.781,6.781,0,0,0,3.556-13.087Z" fill="none" stroke="#000" stroke-miterlimit="10" stroke-width="1"/>
          <path id="Path_6672" data-name="Path 6672" d="M210.1,160.275c-14.273,2.48-24.337-.774-25.454-.715s-1.9,6.784-2.228,9.816a11.3,11.3,0,0,1-1.925,5.147s.655,6.4-.656,5.72-2.837-2.642-3.5-5.433-.6-15.1,1.274-18.914,12.666-10.086,14.588-13.212,5.126-5.407,5.478-3.638a11.159,11.159,0,0,1,.079,3.463s2.612-2.5,4.572.059,12.422,6.353,14.864,9.866,2.738,12.415,2.582,15.393-1.135,5.819-1.859,10.212-2.46,2.019-2.841.437a40.891,40.891,0,0,1,.445-4.977s-2.85-8.47-3.084-10.035c-.384-2.562.113-3.615-2.336-3.189" fill="#101c3a"/>
          <path id="Path_6673" data-name="Path 6673" d="M210.1,160.275c-14.273,2.48-24.337-.774-25.454-.715s-1.9,6.784-2.228,9.816a11.3,11.3,0,0,1-1.925,5.147s.655,6.4-.656,5.72-2.837-2.642-3.5-5.433-.6-15.1,1.274-18.914,12.666-10.086,14.588-13.212,5.126-5.407,5.478-3.638a11.159,11.159,0,0,1,.079,3.463s2.612-2.5,4.572.059,12.422,6.353,14.864,9.866,2.738,12.415,2.582,15.393-1.135,5.819-1.859,10.212-2.46,2.019-2.841.437a40.891,40.891,0,0,1,.445-4.977s-2.85-8.47-3.084-10.035C212.048,160.9,212.545,159.849,210.1,160.275Z" fill="none" stroke="#000" stroke-miterlimit="10" stroke-width="1"/>
          <path id="Path_6674" data-name="Path 6674" d="M199.33,182.879l.4-1.412c-1.689-.475-3.631-1.4-3.83-2.034-.011-.034-.029-.089.078-.223,3.362-4.162,2.312-9.74,2.265-9.976l-1.438.283c.01.048.955,5.15-1.966,8.77a1.67,1.67,0,0,0-.336,1.592c.549,1.717,4.12,2.8,4.83,3" fill="#101c3a"/>
          <path id="Path_6675" data-name="Path 6675" d="M209.913,170.834l.83-1.208c-5.374-3.694-9.452-.378-9.492-.344l.94,1.125-.47-.561.466.564c.133-.107,3.294-2.62,7.726.424" fill="#101c3a"/>
          <path id="Path_6676" data-name="Path 6676" d="M189.846,187.114s7.159-3.882,17.233.06c0,0-7.15,13.8-17.233-.06" fill="#101c3a"/>
          <path id="Path_6677" data-name="Path 6677" d="M204.66,190.437c-2.561,2.63-6.992,5.038-12.5-.566,8.668-1.044,11.909.506,12.5.566" fill="#ee5064"/>
          <path id="Path_6678" data-name="Path 6678" d="M190.975,188.555c-.372-.446-.748-.916-1.127-1.441,0,0,7.157-3.882,17.232.06,0,0-.231.439-.658,1.076-1.168-.3-10.185-1.559-15.447.3" fill="#fff"/>
          <path id="Path_6679" data-name="Path 6679" d="M204.179,173.376a1.8,1.8,0,0,1-.074-.273,1.822,1.822,0,1,1,3.384.59,12.212,12.212,0,0,0-3.31-.317" fill="#101c3a"/>
          <path id="Path_6680" data-name="Path 6680" d="M186.785,170.851c.114-.128,2.868-3.083,7.7-.731l.644-1.32c-5.871-2.85-9.4,1.036-9.439,1.075l1.1.973-.548-.488Z" fill="#101c3a"/>
          <path id="Path_6681" data-name="Path 6681" d="M189.194,173.487a1.791,1.791,0,0,1-.114-.26,1.822,1.822,0,0,1,3.469-1.114,1.8,1.8,0,0,1-.036,1.195,12.192,12.192,0,0,0-3.319.179" fill="#101c3a"/>
          <rect id="Rectangle_483" data-name="Rectangle 483" width="1.287" height="44.175" transform="translate(254.188 253.109) rotate(-85.264)"/>
          <path id="Path_6682" data-name="Path 6682" d="M116.228,264.864c-12.306-10.585-28.828-11.554-36.9-2.167s-6.65,26.15,5.656,36.736,30.835,10.982,38.908,1.593,4.645-25.577-7.661-36.162" fill="#101c3a"/>
          <path id="Path_6683" data-name="Path 6683" d="M116.229,264.864a36.982,36.982,0,0,0-10.791-6.482c-9.708-14.9-21.158-32.973-23.6-43.158-3.611-10.131-1.639-11.474-2.979-15.536-.9-2.722-9.112-14.908-12.569-17.153a.585.585,0,0,0-.1-.114c-4.4-3.885-14.608-8.754-18.719-11.408-1.809-1.168-4.171-.048-1.685,3.421,3,4.185,8.687,8.813,12.583,11.289a17.639,17.639,0,0,1-5.035,5.337c-3.218,2.107-2.7,6.051-4.379,9.132S50.117,207.66,54,210.925s13.817,1.183,13.673,10.107l.014-.006c-.253,17.151,4.464,60.688,13.06,75.536,5.32,9.189,16.238,11,25.277,7.894l.015,0c4.307-.8,12.684-5.879,15.067-8.65,8.075-9.387,7.431-20.354-4.875-30.939" fill="#f8a3a2"/>
          <path id="Path_6684" data-name="Path 6684" d="M116.229,264.864a36.982,36.982,0,0,0-10.791-6.482c-9.708-14.9-21.158-32.973-23.6-43.158-3.611-10.131-1.639-11.474-2.979-15.536-.9-2.722-9.112-14.908-12.569-17.153a.585.585,0,0,0-.1-.114c-4.4-3.885-14.608-8.754-18.719-11.408-1.809-1.168-4.171-.048-1.685,3.421,3,4.185,8.687,8.813,12.583,11.289a17.639,17.639,0,0,1-5.035,5.337c-3.218,2.107-2.7,6.051-4.379,9.132S50.117,207.66,54,210.925s13.817,1.183,13.673,10.107l.014-.006c-.253,17.151,4.464,60.688,13.06,75.536,5.32,9.189,16.238,11,25.277,7.894l.015,0c4.307-.8,12.684-5.879,15.067-8.65C129.179,286.416,128.535,275.449,116.229,264.864Z" fill="none" stroke="#000" stroke-miterlimit="10" stroke-width="1"/>
          <path id="Path_6685" data-name="Path 6685" d="M113.119,271.4c-1.487-5.615-8.058-12.54-8.124-12.609l.841-.8c.278.292,6.843,7.21,8.408,13.115Z"/>
          <path id="Path_6686" data-name="Path 6686" d="M298.025,216.779c-2.3-5.661-1.2-15.135-1.15-15.535l1.154.138c-.01.1-1.109,9.578,1.073,14.959Z"/>
          <rect id="Rectangle_484" data-name="Rectangle 484" width="55.469" height="1.165" transform="translate(133.793 296.801) rotate(-71.892)"/>
        </g>
      </g>
      <g id="Group_540" data-name="Group 540">
        <g id="Group_559" data-name="Group 559">
          <path id="Path_6687" data-name="Path 6687" d="M175.208,44.553a13.74,13.74,0,1,1-13.742-13.741,13.74,13.74,0,0,1,13.742,13.741" transform="translate(-171.622 207.711)" fill="#a62973" fill-rule="evenodd"/>
          <path id="Path_6688" data-name="Path 6688" d="M163.705,56.485a13.927,13.927,0,1,1,13.927-13.926,13.941,13.941,0,0,1-13.927,13.926m0-27.481A13.554,13.554,0,1,0,177.26,42.559,13.57,13.57,0,0,0,163.705,29" transform="translate(-171.622 207.711)" fill="#101c3a"/>
          <path id="Path_6689" data-name="Path 6689" d="M70.91,56.9A1.888,1.888,0,1,1,69.4,54.7,1.889,1.889,0,0,1,70.91,56.9" transform="translate(75.094 33)" fill="#ee5064"/>
          <path id="Path_6690" data-name="Path 6690" d="M145.815,4.48A3.776,3.776,0,1,1,142.807.067a3.777,3.777,0,0,1,3.008,4.413" transform="translate(-155.457 168.949)" fill="#390d9f"/>
          <g id="Group_532" data-name="Group 532" opacity="0.6">
            <g id="Group_531" data-name="Group 531">
              <g id="Group_530" data-name="Group 530" clip-path="url(#clip-path-4)">
                <path id="Path_6691" data-name="Path 6691" d="M219.137,71.494l160.221-.109c7.922-.02,14.381,6.809,14.355,15.175l-.125,104.428c-.028,8.367-6.53,15.229-14.451,15.247l-160.223.109c-7.922.021-14.38-6.808-14.354-15.174l.125-104.429c.027-8.366,6.53-15.227,14.452-15.247" fill="#fff"/>
                <path id="Path_6692" data-name="Path 6692" d="M218.876,207.342a14.844,14.844,0,0,1-10.54-4.441,16.6,16.6,0,0,1-4.773-11.734L203.69,86.74c.027-8.936,6.955-16.221,15.445-16.242h0l160.221-.11h.035a14.846,14.846,0,0,1,10.546,4.443,16.612,16.612,0,0,1,4.772,11.732l-.127,104.426c-.027,8.938-6.955,16.222-15.444,16.243l-160.224.11Zm.263-134.851c-7.4.019-13.432,6.413-13.457,14.253l-.126,104.428a14.6,14.6,0,0,0,4.192,10.319,12.862,12.862,0,0,0,9.13,3.857h.034l160.224-.11c7.393-.018,13.43-6.411,13.455-14.252l.125-104.427a14.6,14.6,0,0,0-4.19-10.318,12.865,12.865,0,0,0-9.135-3.859h-.03l-160.223.109Z" fill="#cfe0fa"/>
              </g>
            </g>
          </g>
          <path id="Path_6693" data-name="Path 6693" d="M273.906,179.411c-.44-.035-.5-.043-.58-.052l-.054-.008.082-.749c.2.021.408.04.614.057Z" fill="#101c3a"/>
          <path id="Path_6694" data-name="Path 6694" d="M310.787,140.241c-.023-.154-.045-.309-.067-.433-.015-.14-.037-.279-.059-.419l-.022-.125a34.564,34.564,0,0,0-26.874-28.21c-.1-.022-.183-.036-.278-.058-.449-.088-.882-.154-1.41-.25-.014,0-.036-.007-.051-.007-.044-.008-.089-.015-.14-.022-.015,0-.037-.008-.059-.008l-.073-.014-2.577-.514L275.052,138l-.015.132-.022.139-.866,5.836-29.648.338h-.133l-.154.007-4.089.044v.375c0,.58.022,1.1.052,1.571a34.706,34.706,0,0,0,27.5,32.056c.256.058.514.118.778.169h.007a41.22,41.22,0,0,0,4.808.683h.015v-.007c.184.022.382.036.623.058.331.03.749.059,1.344.088.4.015.845.03,1.35.03a34.064,34.064,0,0,0,25.5-11.437,34.861,34.861,0,0,0,5.587-8.332c.417-.866.8-1.754,1.137-2.65.089-.227.169-.455.257-.69.044-.125.088-.257.132-.389a33.907,33.907,0,0,0,1.843-9.7c.007-.125.015-.249.015-.374.014-.463.022-.94.014-1.417a36.013,36.013,0,0,0-.3-4.294M310.3,146.3a33.987,33.987,0,0,1-3.12,12.839c-.059.124-.117.249-.176.367s-.117.257-.184.381a2.771,2.771,0,0,1-.125.25,33.807,33.807,0,0,1-25.222,18.278,33.467,33.467,0,0,1-6.189.323c-.66-.029-1.1-.066-1.453-.088a.75.75,0,0,1-.139-.015c-.125-.014-.235-.022-.346-.036l-.241-.023v.007a40.5,40.5,0,0,1-4.14-.579h-.007c-.265-.051-.515-.1-.771-.162A33.993,33.993,0,0,1,240.925,146.4c-.022-.36-.036-.742-.044-1.153l3.465-.037.147-.007h.132l30.178-.345.976-6.592.022-.139.021-.133,3.986-26.918,1.836.368.051.007c.029.007.059.007.081.015.051.007.1.014.139.022.221.036.419.066.609.1.287.052.551.1.816.147.315.066.631.132.939.206A33.819,33.819,0,0,1,309.9,139.382l.015.125c.022.132.043.257.058.411s.044.279.066.418a34.042,34.042,0,0,1,.294,4.206c.008.411,0,.815-.014,1.212,0,.183-.008.359-.015.543" fill="#101c3a"/>
          <path id="Path_6695" data-name="Path 6695" d="M273.906,179.411c-.44-.035-.5-.043-.58-.052l-.054-.008.082-.749c.2.021.408.04.614.057Z" fill="#101c3a"/>
          <path id="Path_6696" data-name="Path 6696" d="M225.086,129.32l0,.44,36.234-.38L243.271,98.794l-1.666.834a34.343,34.343,0,0,0-16.519,29.692" fill="#390d9f"/>
          <path id="Path_6697" data-name="Path 6697" d="M313.767,133.913a34.164,34.164,0,0,0-28.658-29.208l-2.261-.448-.624,4.169-.3,2.033-.038.257-.11.75L277.827,138.1l-2.026.022-.763.007-31.183.36c.007.521.022,1.042.052,1.556a37.1,37.1,0,0,0,.461,4.4c.037.249.081.506.126.756,2.136,11.657,9.976,24.092,26.851,26.94.258.044.514.081.771.118a50.557,50.557,0,0,0,12.766.153A31.974,31.974,0,0,0,306.7,159.9c.11-.133.206-.265.309-.4a34.106,34.106,0,0,0,2.077-3.091,35.317,35.317,0,0,0,4.052-9.976,34.683,34.683,0,0,0,.9-6.5c.022-.579.037-1.167.03-1.761a36.079,36.079,0,0,0-.3-4.258" fill="#a62973"/>
          <path id="Path_6698" data-name="Path 6698" d="M273.682,133.689l5.346-36.636h-.012l-2.251-.448A33.817,33.817,0,0,0,254.3,101.15Z" fill="#7109b5"/>
          <path id="Path_6699" data-name="Path 6699" d="M254.6,186.753l-.122-.744c8.92-1.483,14.943-7.117,17.9-16.743a44.1,44.1,0,0,0,1.779-14.14l.753-.052a44.958,44.958,0,0,1-1.811,14.414c-3.008,9.782-9.4,15.753-18.5,17.265" fill="#101c3a"/>
          <path id="Path_6700" data-name="Path 6700" d="M256.39,182.837l.612.444-2.19,3.009,3.161,1.963-.4.641-3.85-2.391Z" fill="#101c3a"/>
          <path id="Path_6701" data-name="Path 6701" d="M260.013,99.525c-.159-.111-3.918-2.771-4.425-6.987-.3-2.537.644-5.072,2.82-7.535l.565.5c-2.027,2.295-2.913,4.632-2.635,6.947.467,3.882,4.07,6.432,4.106,6.457Z" fill="#101c3a"/>
          <path id="Path_6702" data-name="Path 6702" d="M259.547,89.173l-.754.051-.245-3.713-3.685.515-.1-.747,4.489-.627Z" fill="#101c3a"/>
          <path id="Path_6703" data-name="Path 6703" d="M225.1,141.824c-1.9-11.465,6.921-15.009,7.01-15.043l.272.7c-.34.132-8.336,3.372-6.538,14.215Z" fill="#101c3a"/>
          <path id="Path_6704" data-name="Path 6704" d="M222.116,139.691l.478-.584,2.874,2.362,2.148-3.039.615.436-2.614,3.7Z" fill="#101c3a"/>
          <rect id="Rectangle_487" data-name="Rectangle 487" width="19.694" height="0.706" transform="translate(270.063 82.982)" fill="#101c3a"/>
          <rect id="Rectangle_488" data-name="Rectangle 488" width="13.207" height="0.706" transform="translate(270.063 84.828)" fill="#101c3a"/>
          <rect id="Rectangle_489" data-name="Rectangle 489" width="17.282" height="0.706" transform="translate(270.063 86.675)" fill="#101c3a"/>
          <path id="Path_6705" data-name="Path 6705" d="M268.849,85.158a2.986,2.986,0,1,1-2.987-2.987,2.987,2.987,0,0,1,2.987,2.987" fill="#7109b5"/>
          <rect id="Rectangle_490" data-name="Rectangle 490" width="19.694" height="0.706" transform="translate(261.778 191.745)" fill="#101c3a"/>
          <rect id="Rectangle_491" data-name="Rectangle 491" width="13.207" height="0.706" transform="translate(261.778 193.592)" fill="#101c3a"/>
          <rect id="Rectangle_492" data-name="Rectangle 492" width="17.283" height="0.706" transform="translate(261.778 195.439)" fill="#101c3a"/>
          <path id="Path_6706" data-name="Path 6706" d="M260.564,193.921a2.986,2.986,0,1,1-2.986-2.986,2.986,2.986,0,0,1,2.986,2.986" fill="#425fec"/>
          <rect id="Rectangle_493" data-name="Rectangle 493" width="19.694" height="0.706" transform="translate(209.15 149.602)" fill="#101c3a"/>
          <rect id="Rectangle_494" data-name="Rectangle 494" width="13.206" height="0.706" transform="translate(215.639 147.756)" fill="#101c3a"/>
          <rect id="Rectangle_495" data-name="Rectangle 495" width="17.282" height="0.706" transform="translate(211.563 145.909)" fill="#101c3a"/>
          <path id="Path_6707" data-name="Path 6707" d="M236.642,147.94a2.986,2.986,0,1,1-2.986-2.986,2.986,2.986,0,0,1,2.986,2.986" fill="#390d9f"/>
          <path id="Path_6708" data-name="Path 6708" d="M332.831,94.465a2.986,2.986,0,1,1-2.986-2.986,2.986,2.986,0,0,1,2.986,2.986" fill="#390d9f"/>
          <rect id="Rectangle_496" data-name="Rectangle 496" width="41.17" height="2.197" transform="translate(343.495 101.093)" fill="#101c3a"/>
          <rect id="Rectangle_497" data-name="Rectangle 497" width="13.114" height="2.196" transform="translate(343.495 93.367)" fill="#101c3a"/>
          <rect id="Rectangle_498" data-name="Rectangle 498" width="21.455" height="2.196" transform="translate(362.282 93.367)" fill="#101c3a"/>
          <rect id="Rectangle_499" data-name="Rectangle 499" width="27.492" height="2.197" transform="translate(343.495 85.641)" fill="#101c3a"/>
          <rect id="Rectangle_500" data-name="Rectangle 500" width="13.573" height="2.197" transform="translate(374.673 85.641)" fill="#101c3a"/>
          <path id="Path_6709" data-name="Path 6709" d="M332.831,134.3a2.986,2.986,0,1,1-2.986-2.986,2.986,2.986,0,0,1,2.986,2.986" fill="#425fec"/>
          <rect id="Rectangle_501" data-name="Rectangle 501" width="41.17" height="2.196" transform="translate(343.495 140.93)" fill="#101c3a"/>
          <rect id="Rectangle_502" data-name="Rectangle 502" width="13.114" height="2.197" transform="translate(343.495 133.204)" fill="#101c3a"/>
          <rect id="Rectangle_503" data-name="Rectangle 503" width="21.455" height="2.197" transform="translate(362.282 133.204)" fill="#101c3a"/>
          <rect id="Rectangle_504" data-name="Rectangle 504" width="27.492" height="2.196" transform="translate(343.495 125.478)" fill="#101c3a"/>
          <rect id="Rectangle_505" data-name="Rectangle 505" width="13.573" height="2.196" transform="translate(374.673 125.478)" fill="#101c3a"/>
          <path id="Path_6710" data-name="Path 6710" d="M332.831,174.139a2.986,2.986,0,1,1-2.986-2.986,2.986,2.986,0,0,1,2.986,2.986" fill="#ee5064"/>
          <rect id="Rectangle_506" data-name="Rectangle 506" width="41.17" height="2.195" transform="translate(343.495 180.768)" fill="#101c3a"/>
          <rect id="Rectangle_507" data-name="Rectangle 507" width="13.114" height="2.196" transform="translate(343.495 173.041)" fill="#101c3a"/>
          <rect id="Rectangle_508" data-name="Rectangle 508" width="21.455" height="2.196" transform="translate(362.282 173.041)" fill="#101c3a"/>
          <rect id="Rectangle_509" data-name="Rectangle 509" width="27.492" height="2.197" transform="translate(343.495 165.315)" fill="#101c3a"/>
          <rect id="Rectangle_510" data-name="Rectangle 510" width="13.573" height="2.197" transform="translate(374.673 165.315)" fill="#101c3a"/>
          <g id="Group_535" data-name="Group 535" opacity="0.6">
            <g id="Group_534" data-name="Group 534">
              <g id="Group_533" data-name="Group 533" clip-path="url(#clip-path-5)">
                <path id="Path_6711" data-name="Path 6711" d="M126.771,223.533H15.489A14.492,14.492,0,0,1,1,209.041V112.18A12.389,12.389,0,0,1,13.385,99.791H128.874a12.389,12.389,0,0,1,12.389,12.389v96.861a14.492,14.492,0,0,1-14.492,14.492" fill="#fff"/>
                <path id="Path_6712" data-name="Path 6712" d="M126.771,224.531H15.489A15.507,15.507,0,0,1,0,209.041v-96.86A13.4,13.4,0,0,1,13.385,98.795H128.874a13.4,13.4,0,0,1,13.386,13.386v96.86a15.507,15.507,0,0,1-15.489,15.49M13.385,100.789A11.4,11.4,0,0,0,1.993,112.181v96.86a13.511,13.511,0,0,0,13.5,13.5H126.771a13.512,13.512,0,0,0,13.5-13.5v-96.86a11.406,11.406,0,0,0-11.393-11.392Z" fill="#cfe0fa"/>
              </g>
            </g>
          </g>
          <path id="Path_6713" data-name="Path 6713" d="M116.019,104.015a1.118,1.118,0,1,0,1.119,1.119,1.118,1.118,0,0,0-1.119-1.119" fill="#3e36c7"/>
          <path id="Path_6714" data-name="Path 6714" d="M120.74,104.015a1.118,1.118,0,1,0,1.118,1.119,1.118,1.118,0,0,0-1.118-1.119" fill="#fc721a"/>
          <path id="Path_6715" data-name="Path 6715" d="M125.461,104.015a1.118,1.118,0,1,0,1.119,1.119,1.118,1.118,0,0,0-1.119-1.119" fill="#425fec"/>
          <g id="Group_538" data-name="Group 538" opacity="0.6">
            <g id="Group_537" data-name="Group 537">
              <g id="Group_536" data-name="Group 536" clip-path="url(#clip-path-6)">
                <rect id="Rectangle_512" data-name="Rectangle 512" width="97.801" height="1.994" transform="translate(43.462 111.95)" fill="#cfe0fa"/>
              </g>
            </g>
          </g>
          <path id="Path_6716" data-name="Path 6716" d="M36.452,213.961l-3.256.016a6.1,6.1,0,0,1-6.122-6.069l-.063-13.879a6.093,6.093,0,0,1,6.068-6.122l3.256-.015a6.094,6.094,0,0,1,6.122,6.067l.063,13.88a6.1,6.1,0,0,1-6.068,6.122" fill="#390d9f"/>
          <path id="Path_6717" data-name="Path 6717" d="M59.237,213.86l-3.256.014a6.1,6.1,0,0,1-6.123-6.068l-.145-32.394a6.094,6.094,0,0,1,6.067-6.122l3.257-.015a6.1,6.1,0,0,1,6.122,6.068l.146,32.394a6.1,6.1,0,0,1-6.068,6.123" fill="#a62973"/>
          <path id="Path_6718" data-name="Path 6718" d="M84.466,213.746l-3.256.015a6.1,6.1,0,0,1-6.123-6.068l-.207-46.055a6.1,6.1,0,0,1,6.068-6.123L84.2,155.5a6.1,6.1,0,0,1,6.123,6.068l.207,46.055a6.1,6.1,0,0,1-6.068,6.123" fill="#390d9f"/>
          <path id="Path_6719" data-name="Path 6719" d="M109.181,213.635l-3.256.015a6.1,6.1,0,0,1-6.122-6.068l-.279-62.088a6.1,6.1,0,0,1,6.068-6.123l3.255-.014a6.1,6.1,0,0,1,6.123,6.068l.279,62.087a6.1,6.1,0,0,1-6.068,6.123" fill="#a62973"/>
          <path id="Path_6720" data-name="Path 6720" d="M89.3,126.988l8.345,4.669.576-10.265Z" fill="#390d9f"/>
          <path id="Path_6721" data-name="Path 6721" d="M28.655,171.325a1.064,1.064,0,0,1-.939-.6.8.8,0,0,1,.683-1.027c.428-.1,43.022-10.063,65.68-43a1.169,1.169,0,0,1,1.412-.3.769.769,0,0,1,.42,1.139C72.839,161.068,29.457,171.2,29.022,171.3a1.309,1.309,0,0,1-.367.028" fill="#390d9f"/>
          <path id="Path_6722" data-name="Path 6722" d="M242.407,355.467a.454.454,0,0,1-.454.455l-78.454.1a.908.908,0,0,1-.91-.907l0-2.192,79.817-.1Z" fill="#1a1a1a"/>
        </g>
      </g>
      <path id="Path_6730" data-name="Path 6730" d="M235.836,294.235a5.883,5.883,0,0,1,5.556-4.383l-18,65.722a3.578,3.578,0,0,1-2.252-4.373c.669-2.8,11.231-43.578,14.7-56.966" fill="#1a1a1a"/>
      <path id="Path_6731" data-name="Path 6731" d="M241.221,289.266l83.56-.1a1.792,1.792,0,0,1,1.74,2.23l-15.3,60.776-87.907.11,15.454-61.094a2.536,2.536,0,0,1,2.456-1.917" fill="#a62973"/>
      <path id="Path_6732" data-name="Path 6732" d="M241.221,289.266l83.56-.1a1.792,1.792,0,0,1,1.74,2.23l-15.3,60.776-87.907.11,15.454-61.094A2.536,2.536,0,0,1,241.221,289.266Z" fill="none" stroke="#000" stroke-miterlimit="10" stroke-width="1"/>
      <path id="Path_6733" data-name="Path 6733" d="M238.353,291.08a2.959,2.959,0,0,1,2.868-2.239l83.56-.1a2.215,2.215,0,0,1,2.152,2.758l-15.3,60.776-.079.32-88.785.113Zm87.756.207a1.366,1.366,0,0,0-1.327-1.7l-83.56.1a2.111,2.111,0,0,0-2.045,1.6l-15.319,60.565,87.028-.11Z" fill="#101c3a"/>
      <path id="Path_6734" data-name="Path 6734" d="M311.608,355.38a.454.454,0,0,1-.453.455l-86.22.109a.908.908,0,0,1-.91-.907l0-2.777,87.582-.111Z" fill="#131313"/>
      <rect id="Rectangle_522" data-name="Rectangle 522" width="61.434" height="1.04" transform="matrix(1, -0.001, 0.001, 1, 163.577, 352.401)" fill="#131313"/>
      <rect id="Rectangle_523" data-name="Rectangle 523" width="71.68" height="1.041" transform="translate(239.924 352.305) rotate(-0.072)" fill="#101c3a"/>
      <rect id="Rectangle_524" data-name="Rectangle 524" width="349.493" height="2.315" transform="translate(21.494 355.501)" fill="#131313"/>
      <path id="Path_6735" data-name="Path 6735" d="M320.794,14.218l-.038-.167-13.73,3.21L316.47,27.35l.562-.457a13.365,13.365,0,0,0,3.762-12.675" transform="translate(41.077 202.173)" fill="#ee5064"/>
      <path id="Path_6736" data-name="Path 6736" d="M278.7,44.294a1.888,1.888,0,1,1-.247,2.659,1.888,1.888,0,0,1,.247-2.659" transform="translate(-128 123)" fill="#3e36c7"/>
      <path id="Path_6737" data-name="Path 6737" d="M234.9,12.6a1.888,1.888,0,1,1-.247,2.66,1.889,1.889,0,0,1,.247-2.66" transform="translate(110.104 222)" fill="#390d9f"/>
    </g>
  </g>
</svg>
