<svg xmlns="http://www.w3.org/2000/svg" xmlns:xlink="http://www.w3.org/1999/xlink" width="426" height="337" viewBox="0 0 426 337">
  <defs>
    <clipPath id="clip-path">
      <rect id="Rectangle_832" data-name="Rectangle 832" width="426" height="337" transform="translate(972 3151)" fill="#fff" stroke="#707070" stroke-width="1"/>
    </clipPath>
    <clipPath id="clip-path-2">
      <rect id="Rectangle_533" data-name="Rectangle 533" width="72.936" height="16.595" fill="none"/>
    </clipPath>
  </defs>
  <g id="seamless-ecosystem-integration" transform="translate(-972 -3151)" clip-path="url(#clip-path)">
    <g id="Group_566" data-name="Group 566" transform="translate(1067.401 3185.754)">
      <g id="Group_567" data-name="Group 567">
        <rect id="Rectangle_525" data-name="Rectangle 525" width="250.819" height="174.517" transform="translate(2.967 77.073)" fill="#e099c7"/>
        <rect id="Rectangle_526" data-name="Rectangle 526" width="250.819" height="174.517" transform="translate(2.967 77.073)" fill="none" stroke="#000" stroke-miterlimit="10" stroke-width="1"/>
        <rect id="Rectangle_527" data-name="Rectangle 527" width="235.081" height="143.533" transform="translate(10.835 84.942)" fill="#ffe7eb"/>
        <g id="Group_564" data-name="Group 564">
          <g id="Group_568" data-name="Group 568">
            <path id="Path_6738" data-name="Path 6738" d="M142.22,274.287a4.721,4.721,0,1,0,4.721-4.721,4.721,4.721,0,0,0-4.721,4.721" transform="translate(-18.565 -35.189)" fill="#ffe7eb"/>
            <path id="Path_6739" data-name="Path 6739" d="M176.714,336.774h-68.4l.006-3.74L115.8,293.27h53.421l7.489,39.833Zm-67.655-.743h66.913v-2.894l-7.363-39.125H116.42l-7.362,39.125Z" transform="translate(-14.139 -38.283)"/>
            <rect id="Rectangle_528" data-name="Rectangle 528" width="235.081" height="49.985" transform="translate(10.835 174.983)" fill="#ffadab"/>
            <path id="Path_6741" data-name="Path 6741" d="M108.541,238.963H173.38a12.138,12.138,0,0,0,12.138-12.138v-1.2a12.138,12.138,0,0,0-12.138-12.138H108.541A12.138,12.138,0,0,0,96.4,225.622v1.2a12.138,12.138,0,0,0,12.138,12.138" transform="translate(-12.584 -27.868)" fill="#fff"/>
            <path id="Path_6742" data-name="Path 6742" d="M297.721,146.022H92.537V.073H297.721ZM93.28,145.279h203.7V.816H93.28Z" transform="translate(-12.08 -0.01)"/>
            <rect id="Rectangle_529" data-name="Rectangle 529" width="204.441" height="12.886" transform="translate(80.829 0.435)" fill="#fb847d"/>
            <rect id="Rectangle_530" data-name="Rectangle 530" width="204.441" height="12.886" transform="translate(80.829 0.435)" fill="none" stroke="#000" stroke-miterlimit="10" stroke-width="1"/>
            <rect id="Rectangle_531" data-name="Rectangle 531" width="172.783" height="106.771" transform="translate(96.658 26.064)" fill="#ee5064"/>
            <rect id="Rectangle_532" data-name="Rectangle 532" width="172.783" height="106.771" transform="translate(96.658 26.064)" fill="none" stroke="#000" stroke-miterlimit="10" stroke-width="1"/>
            <path id="Path_6743" data-name="Path 6743" d="M314.874,7.574A2.931,2.931,0,1,0,317.8,4.643a2.931,2.931,0,0,0-2.931,2.931" transform="translate(-41.103 -0.606)" fill="#fff"/>
            <path id="Path_6744" data-name="Path 6744" d="M303.982,7.574a2.931,2.931,0,1,0,2.931-2.931,2.931,2.931,0,0,0-2.931,2.931" transform="translate(-39.681 -0.606)" fill="#fff"/>
            <path id="Path_6745" data-name="Path 6745" d="M293.091,7.574a2.931,2.931,0,1,0,2.931-2.931,2.931,2.931,0,0,0-2.931,2.931" transform="translate(-38.259 -0.606)" fill="#fff"/>
            <path id="Path_6746" data-name="Path 6746" d="M201.191,112.536l3.2-1.382a32.254,32.254,0,0,0,3.178,4.023l-2.083,2.8,9.473,7.053,2.088-2.8a32.625,32.625,0,0,0,4.76,1.892l-.406,3.472,11.73,1.372.405-3.463a32.193,32.193,0,0,0,5.072-.745l1.382,3.2,10.845-4.677-1.382-3.2a32.257,32.257,0,0,0,4.023-3.178l2.8,2.083,7.053-9.473-2.8-2.088a32.626,32.626,0,0,0,1.892-4.76l3.472.406,1.372-11.73-3.463-.406a32.193,32.193,0,0,0-.745-5.072l3.2-1.382-4.677-10.845-3.2,1.382a32.252,32.252,0,0,0-3.178-4.023l2.083-2.8-9.473-7.054-2.088,2.8a32.629,32.629,0,0,0-4.76-1.893l.406-3.471-11.73-1.373-.405,3.464a32.192,32.192,0,0,0-5.072.745l-1.382-3.2-10.845,4.677,1.382,3.2a32.254,32.254,0,0,0-4.023,3.178l-2.8-2.083-7.054,9.473,2.8,2.088a32.633,32.633,0,0,0-1.893,4.76l-3.471-.406-1.373,11.73,3.464.405a32.192,32.192,0,0,0,.745,5.072l-3.2,1.382ZM223.76,73.674a20.855,20.855,0,1,1-11.243,28.291A20.93,20.93,0,0,1,223.76,73.674" transform="translate(-25.521 -7.468)" fill="#fff"/>
            <path id="Path_6747" data-name="Path 6747" d="M201.191,112.536l3.2-1.382a32.254,32.254,0,0,0,3.178,4.023l-2.083,2.8,9.473,7.053,2.088-2.8a32.625,32.625,0,0,0,4.76,1.892l-.406,3.472,11.73,1.372.405-3.463a32.193,32.193,0,0,0,5.072-.745l1.382,3.2,10.845-4.677-1.382-3.2a32.257,32.257,0,0,0,4.023-3.178l2.8,2.083,7.053-9.473-2.8-2.088a32.626,32.626,0,0,0,1.892-4.76l3.472.406,1.372-11.73-3.463-.406a32.193,32.193,0,0,0-.745-5.072l3.2-1.382-4.677-10.845-3.2,1.382a32.252,32.252,0,0,0-3.178-4.023l2.083-2.8-9.473-7.054-2.088,2.8a32.629,32.629,0,0,0-4.76-1.893l.406-3.471-11.73-1.373-.405,3.464a32.192,32.192,0,0,0-5.072.745l-1.382-3.2-10.845,4.677,1.382,3.2a32.254,32.254,0,0,0-4.023,3.178l-2.8-2.083-7.054,9.473,2.8,2.088a32.633,32.633,0,0,0-1.893,4.76l-3.471-.406-1.373,11.73,3.464.405a32.192,32.192,0,0,0,.745,5.072l-3.2,1.382ZM223.76,73.674a20.855,20.855,0,1,1-11.243,28.291A20.93,20.93,0,0,1,223.76,73.674Z" transform="translate(-25.521 -7.468)" fill="none" stroke="#000" stroke-miterlimit="10" stroke-width="1"/>
            <path id="Path_6748" data-name="Path 6748" d="M233.655,120.746a26.176,26.176,0,0,1-20.677-10.1.371.371,0,0,1,.586-.456A25.467,25.467,0,1,0,227.188,69.9a.371.371,0,1,1-.189-.717,26.208,26.208,0,1,1,6.656,51.559" transform="translate(-27.792 -8.919)" fill="#ee5064"/>
            <path id="Path_6749" data-name="Path 6749" d="M166.347,66l1.2-.516a12.08,12.08,0,0,0,1.187,1.5l-.778,1.044,3.537,2.634.78-1.047a12.179,12.179,0,0,0,1.777.707l-.151,1.3,4.379.512.151-1.293a12.121,12.121,0,0,0,1.894-.278l.516,1.2,4.049-1.746-.516-1.2a12.091,12.091,0,0,0,1.5-1.187l1.044.778,2.634-3.537-1.047-.78a12.176,12.176,0,0,0,.706-1.777l1.3.151.512-4.379-1.293-.151a12.019,12.019,0,0,0-.278-1.894l1.2-.516L188.9,51.475l-1.2.516a12,12,0,0,0-1.186-1.5l.777-1.044-3.537-2.634-.779,1.047a12.089,12.089,0,0,0-1.778-.706l.152-1.3-4.379-.512-.151,1.293a12.014,12.014,0,0,0-1.895.278l-.516-1.2-4.049,1.746.516,1.2a12,12,0,0,0-1.5,1.186l-1.044-.777-2.634,3.537,1.046.779a12.285,12.285,0,0,0-.706,1.778l-1.3-.152-.512,4.379,1.293.151a12.117,12.117,0,0,0,.278,1.895l-1.2.516Zm8.72-13.764a6.986,6.986,0,1,1-3.766,9.476,7.011,7.011,0,0,1,3.766-9.476" transform="translate(-21.438 -5.919)" fill="#fff"/>
            <path id="Path_6750" data-name="Path 6750" d="M166.347,66l1.2-.516a12.08,12.08,0,0,0,1.187,1.5l-.778,1.044,3.537,2.634.78-1.047a12.179,12.179,0,0,0,1.777.707l-.151,1.3,4.379.512.151-1.293a12.121,12.121,0,0,0,1.894-.278l.516,1.2,4.049-1.746-.516-1.2a12.091,12.091,0,0,0,1.5-1.187l1.044.778,2.634-3.537-1.047-.78a12.176,12.176,0,0,0,.706-1.777l1.3.151.512-4.379-1.293-.151a12.019,12.019,0,0,0-.278-1.894l1.2-.516L188.9,51.475l-1.2.516a12,12,0,0,0-1.186-1.5l.777-1.044-3.537-2.634-.779,1.047a12.089,12.089,0,0,0-1.778-.706l.152-1.3-4.379-.512-.151,1.293a12.014,12.014,0,0,0-1.895.278l-.516-1.2-4.049,1.746.516,1.2a12,12,0,0,0-1.5,1.186l-1.044-.777-2.634,3.537,1.046.779a12.285,12.285,0,0,0-.706,1.778l-1.3-.152-.512,4.379,1.293.151a12.117,12.117,0,0,0,.278,1.895l-1.2.516Zm8.72-13.764a6.986,6.986,0,1,1-3.766,9.476A7.011,7.011,0,0,1,175.066,52.236Z" transform="translate(-21.438 -5.919)" fill="none" stroke="#000" stroke-miterlimit="10" stroke-width="1"/>
            <path id="Path_6751" data-name="Path 6751" d="M178.433,69.263a10,10,0,0,1-7.9-3.86.371.371,0,1,1,.586-.456,9.276,9.276,0,1,0,4.962-14.672.372.372,0,0,1-.19-.719,10.018,10.018,0,1,1,2.545,19.708" transform="translate(-22.25 -6.426)" fill="#ee5064"/>
            <path id="Path_6752" data-name="Path 6752" d="M22.953,333.039l-15.2-.229,4.53-19.6,15.494,2.582Z" transform="translate(-1.012 -40.885)" fill="#fabcc6"/>
            <path id="Path_6753" data-name="Path 6753" d="M22.953,333.039l-15.2-.229,4.53-19.6,15.494,2.582Z" transform="translate(-1.012 -40.885)" fill="none" stroke="#000" stroke-miterlimit="10" stroke-width="1"/>
            <path id="Path_6754" data-name="Path 6754" d="M43.756,345.364H4.385l3.626-15.05H23.435l11.153,3.4A12.1,12.1,0,0,1,43.756,345.364Z" transform="translate(-0.572 -43.118)" fill="#a62973"/>
            <path id="Path_6755" data-name="Path 6755" d="M43.756,345.364H4.385l3.626-15.05H23.435l11.153,3.4A12.1,12.1,0,0,1,43.756,345.364Z" transform="translate(-0.572 -43.118)" fill="none" stroke="#000" stroke-miterlimit="10" stroke-width="1"/>
            <path id="Path_6756" data-name="Path 6756" d="M32.029,329.868h-.037l-7.041-.105,5.541-4.345a2.322,2.322,0,0,1,3.633,1.086l.1.3a2.323,2.323,0,0,1-2.2,3.065m-4.967-.817,4.941.074a1.58,1.58,0,0,0,1.522-2.084l-.1-.3A1.58,1.58,0,0,0,30.951,326Z" transform="translate(-3.257 -42.414)" fill="#672376"/>
            <path id="Path_6757" data-name="Path 6757" d="M32.029,329.868h-.037l-7.041-.105,5.541-4.345a2.322,2.322,0,0,1,3.633,1.086l.1.3a2.323,2.323,0,0,1-2.2,3.065Zm-4.967-.817,4.941.074a1.58,1.58,0,0,0,1.522-2.084l-.1-.3A1.58,1.58,0,0,0,30.951,326Z" transform="translate(-3.257 -42.414)" fill="none" stroke="#000" stroke-miterlimit="10" stroke-width="0.25"/>
            <path id="Path_6758" data-name="Path 6758" d="M18.976,334.507a2.359,2.359,0,0,1-.675-.1,2.3,2.3,0,0,1-1.535-1.483l-.1-.3a2.323,2.323,0,0,1,2.2-3.064H18.9l7.041.106L20.4,334.01a2.3,2.3,0,0,1-1.423.5m-.112-4.206a1.581,1.581,0,0,0-1.5,2.084l.1.3a1.58,1.58,0,0,0,2.472.739l3.889-3.05-4.941-.074h-.025" transform="translate(-2.159 -43.02)" fill="#672376"/>
            <path id="Path_6759" data-name="Path 6759" d="M18.976,334.507a2.359,2.359,0,0,1-.675-.1,2.3,2.3,0,0,1-1.535-1.483l-.1-.3a2.323,2.323,0,0,1,2.2-3.064H18.9l7.041.106L20.4,334.01A2.3,2.3,0,0,1,18.976,334.507Zm-.112-4.206a1.581,1.581,0,0,0-1.5,2.084l.1.3a1.58,1.58,0,0,0,2.472.739l3.889-3.05-4.941-.074Z" transform="translate(-2.159 -43.02)" fill="none" stroke="#000" stroke-miterlimit="10" stroke-width="0.25"/>
            <path id="Path_6760" data-name="Path 6760" d="M104.572,335.972l-15.2-.229.47-22.536,15.494,2.582Z" transform="translate(-11.666 -40.885)" fill="#fabcc6"/>
            <path id="Path_6761" data-name="Path 6761" d="M104.572,335.972l-15.2-.229.47-22.536,15.494,2.582Z" transform="translate(-11.666 -40.885)" fill="none" stroke="#000" stroke-miterlimit="10" stroke-width="1"/>
            <path id="Path_6762" data-name="Path 6762" d="M125.025,345.364H85.654l3.391-15.05H104.7l11.153,3.4A12.1,12.1,0,0,1,125.025,345.364Z" transform="translate(-11.181 -43.118)" fill="#a62973"/>
            <path id="Path_6763" data-name="Path 6763" d="M125.025,345.364H85.654l3.391-15.05H104.7l11.153,3.4A12.1,12.1,0,0,1,125.025,345.364Z" transform="translate(-11.181 -43.118)" fill="none" stroke="#000" stroke-miterlimit="10" stroke-width="1"/>
            <path id="Path_6764" data-name="Path 6764" d="M113.3,329.868h-.037l-7.041-.105,5.541-4.345A2.322,2.322,0,0,1,115.4,326.5l.1.3a2.323,2.323,0,0,1-2.2,3.064m-4.967-.817,4.941.074a1.541,1.541,0,0,0,1.3-.648,1.563,1.563,0,0,0,.222-1.436l-.1-.3A1.58,1.58,0,0,0,112.22,326Z" transform="translate(-13.866 -42.414)" fill="#672376"/>
            <path id="Path_6765" data-name="Path 6765" d="M113.3,329.868h-.037l-7.041-.105,5.541-4.345A2.322,2.322,0,0,1,115.4,326.5l.1.3a2.323,2.323,0,0,1-2.2,3.064Zm-4.967-.817,4.941.074a1.541,1.541,0,0,0,1.3-.648,1.563,1.563,0,0,0,.222-1.436l-.1-.3A1.58,1.58,0,0,0,112.22,326Z" transform="translate(-13.866 -42.414)" fill="none" stroke="#000" stroke-miterlimit="10" stroke-width="0.25"/>
            <path id="Path_6766" data-name="Path 6766" d="M100.245,334.507a2.355,2.355,0,0,1-.675-.1,2.3,2.3,0,0,1-1.535-1.483l-.1-.3a2.322,2.322,0,0,1,2.2-3.064h.037l7.041.106-5.541,4.345a2.3,2.3,0,0,1-1.423.5m-.112-4.206a1.581,1.581,0,0,0-1.5,2.084l.1.3a1.58,1.58,0,0,0,2.472.739l3.889-3.05-4.941-.074h-.025" transform="translate(-12.768 -43.02)" fill="#672376"/>
            <path id="Path_6767" data-name="Path 6767" d="M100.245,334.507a2.355,2.355,0,0,1-.675-.1,2.3,2.3,0,0,1-1.535-1.483l-.1-.3a2.322,2.322,0,0,1,2.2-3.064h.037l7.041.106-5.541,4.345A2.3,2.3,0,0,1,100.245,334.507Zm-.112-4.206a1.581,1.581,0,0,0-1.5,2.084l.1.3a1.58,1.58,0,0,0,2.472.739l3.889-3.05-4.941-.074Z" transform="translate(-12.768 -43.02)" fill="none" stroke="#000" stroke-miterlimit="10" stroke-width="0.25"/>
            <path id="Path_6768" data-name="Path 6768" d="M102.951,231.859c-8.216-34.039-21.6-70.66-21.6-70.66H59.992l-.153,3.166-16.515.121A309.473,309.473,0,0,0,27.6,210.731C21.258,236.085,9.99,299.7,9.99,299.7H27.362s26.9-30.773,35.156-75.174c5.388,12.248,13.227,36.27,14.141,73.765H96.613s14.555-32.4,6.338-66.435" transform="translate(-1.304 -21.043)" fill="#672376"/>
            <path id="Path_6769" data-name="Path 6769" d="M102.951,231.859c-8.216-34.039-21.6-70.66-21.6-70.66H59.992l-.153,3.166-16.515.121A309.473,309.473,0,0,0,27.6,210.731C21.258,236.085,9.99,299.7,9.99,299.7H27.362s26.9-30.773,35.156-75.174c5.388,12.248,13.227,36.27,14.141,73.765H96.613S111.168,265.9,102.951,231.859Z" transform="translate(-1.304 -21.043)" fill="none" stroke="#000" stroke-miterlimit="10" stroke-width="1"/>
            <path id="Path_6770" data-name="Path 6770" d="M71.052,227.2a.372.372,0,0,1-.364-.447l3.6-17.4,5.322-3.6a.371.371,0,1,1,.416.615l-5.073,3.434L71.416,226.9a.372.372,0,0,1-.363.3" transform="translate(-9.226 -26.849)"/>
            <path id="Path_6771" data-name="Path 6771" d="M147.4,98.162c-.61-1.6-11.985,2.908-19.316,6.684-4.808,2.477-15.943,9.028-22.41,12.865-7.293-3.009-16.259-5.153-20.83-6.418q-2.867,9.552-5.735,19.1c6.85,1.428,23.288,5.8,32.1,3.132a.094.094,0,0,0,0,.016c.243-.076.495-.165.752-.263.067-.024.13-.052.2-.077,7.336-2.867,20.1-13.5,24.148-16.056,2.148-1.355,6.467-3.367,8.029-4.142a2.158,2.158,0,0,0,1.329-2.474,2.556,2.556,0,0,0-1.645-1.346,2.07,2.07,0,0,0,.586-2.331c-.333-.859-1.562-1.164-1.671-1.185a1.787,1.787,0,0,0,.809-1.93,2.179,2.179,0,0,0-1.385-1.485c3.973-2.247,5.4-3.182,5.049-4.093" transform="translate(-10.327 -12.771)" fill="#fabcc6"/>
            <path id="Path_6772" data-name="Path 6772" d="M147.4,98.162c-.61-1.6-11.985,2.908-19.316,6.684-4.808,2.477-15.943,9.028-22.41,12.865-7.293-3.009-16.259-5.153-20.83-6.418q-2.867,9.552-5.735,19.1c6.85,1.428,23.288,5.8,32.1,3.132a.094.094,0,0,0,0,.016c.243-.076.495-.165.752-.263.067-.024.13-.052.2-.077,7.336-2.867,20.1-13.5,24.148-16.056,2.148-1.355,6.467-3.367,8.029-4.142a2.158,2.158,0,0,0,1.329-2.474,2.556,2.556,0,0,0-1.645-1.346,2.07,2.07,0,0,0,.586-2.331c-.333-.859-1.562-1.164-1.671-1.185a1.787,1.787,0,0,0,.809-1.93,2.179,2.179,0,0,0-1.385-1.485C146.328,100.009,147.752,99.073,147.4,98.162Z" transform="translate(-10.327 -12.771)" fill="none" stroke="#000" stroke-miterlimit="10" stroke-width="1"/>
            <path id="Path_6773" data-name="Path 6773" d="M140.341,114a.371.371,0,0,1-.27-.627,8.423,8.423,0,0,0,1.915-3.7c.348-1.174.649-2.187,1.817-2.277a4.041,4.041,0,0,0,2.153-1.106.365.365,0,0,0,.105-.415.374.374,0,0,0-.359-.251h-5.361a.371.371,0,0,1,0-.743H145.7a1.123,1.123,0,0,1,.739,1.97,4.68,4.68,0,0,1-2.581,1.285c-.63.049-.822.6-1.162,1.748a9.164,9.164,0,0,1-2.087,4,.372.372,0,0,1-.27.116" transform="translate(-18.271 -13.691)"/>
            <path id="Path_6774" data-name="Path 6774" d="M150.115,114.451a.372.372,0,0,1-.332-.205,3.06,3.06,0,0,1,.26-3.154,2.086,2.086,0,0,1-1.469-3.874l.253-.13a1.737,1.737,0,0,1-.192-3.138l1.721-.946a.371.371,0,0,1,.357.65l-1.72.946a1,1,0,0,0,.842,1.806l1.262-.491a.371.371,0,0,1,.3.676l-2.488,1.287a1.343,1.343,0,0,0,1.042,2.467l2-.665a.371.371,0,0,1,.306.671l-.922.544a2.316,2.316,0,0,0-.889,3.02.372.372,0,0,1-.166.5.381.381,0,0,1-.166.039" transform="translate(-19.247 -13.44)"/>
            <path id="Path_6775" data-name="Path 6775" d="M32.121,205.116l2-.864a20.159,20.159,0,0,0,1.988,2.516l-.791,1.062a.858.858,0,0,0,.176,1.2l4.55,3.387a.857.857,0,0,0,1.2-.176l.794-1.066a20.375,20.375,0,0,0,2.978,1.183l-.254,2.172,7.337.858.254-2.167a20.109,20.109,0,0,0,3.173-.465l.864,2,6.783-2.925-.864-2a20.166,20.166,0,0,0,2.516-1.987l1.749,1.3,4.412-5.925-1.753-1.306a20.535,20.535,0,0,0,1.183-2.978l1.32.155a.858.858,0,0,0,.951-.752l.659-5.634a.857.857,0,0,0-.752-.95L71.28,191.6a20.182,20.182,0,0,0-.466-3.173l2-.864-2.925-6.784-2,.864a20.239,20.239,0,0,0-1.988-2.516l.791-1.062a.858.858,0,0,0-.176-1.2l-4.55-3.387a.858.858,0,0,0-1.2.176l-.794,1.066A20.367,20.367,0,0,0,57,173.54l.254-2.172-7.337-.858-.253,2.167a20.094,20.094,0,0,0-3.173.465l-.864-2-6.783,2.925.864,2a20.178,20.178,0,0,0-2.517,1.987l-1.749-1.3-4.412,5.925,1.754,1.306A20.338,20.338,0,0,0,31.6,186.96l-1.32-.155a.857.857,0,0,0-.951.752l-.659,5.634a.857.857,0,0,0,.751.95l1.315.154a20.183,20.183,0,0,0,.466,3.173l-2,.864Zm13.71-25.341a14.155,14.155,0,1,1-7.631,19.2,14.206,14.206,0,0,1,7.631-19.2" transform="translate(-3.741 -22.258)" fill="#fff"/>
            <path id="Path_6776" data-name="Path 6776" d="M32.121,205.116l2-.864a20.159,20.159,0,0,0,1.988,2.516l-.791,1.062a.858.858,0,0,0,.176,1.2l4.55,3.387a.857.857,0,0,0,1.2-.176l.794-1.066a20.375,20.375,0,0,0,2.978,1.183l-.254,2.172,7.337.858.254-2.167a20.109,20.109,0,0,0,3.173-.465l.864,2,6.783-2.925-.864-2a20.166,20.166,0,0,0,2.516-1.987l1.749,1.3,4.412-5.925-1.753-1.306a20.535,20.535,0,0,0,1.183-2.978l1.32.155a.858.858,0,0,0,.951-.752l.659-5.634a.857.857,0,0,0-.752-.95L71.28,191.6a20.182,20.182,0,0,0-.466-3.173l2-.864-2.925-6.784-2,.864a20.239,20.239,0,0,0-1.988-2.516l.791-1.062a.858.858,0,0,0-.176-1.2l-4.55-3.387a.858.858,0,0,0-1.2.176l-.794,1.066A20.367,20.367,0,0,0,57,173.54l.254-2.172-7.337-.858-.253,2.167a20.094,20.094,0,0,0-3.173.465l-.864-2-6.783,2.925.864,2a20.178,20.178,0,0,0-2.517,1.987l-1.749-1.3-4.412,5.925,1.754,1.306A20.338,20.338,0,0,0,31.6,186.96l-1.32-.155a.857.857,0,0,0-.951.752l-.659,5.634a.857.857,0,0,0,.751.95l1.315.154a20.183,20.183,0,0,0,.466,3.173l-2,.864Zm13.71-25.341a14.155,14.155,0,1,1-7.631,19.2A14.206,14.206,0,0,1,45.83,179.775Z" transform="translate(-3.741 -22.258)" fill="none" stroke="#000" stroke-miterlimit="10" stroke-width="1"/>
            <path id="Path_6777" data-name="Path 6777" d="M52.39,210.37A16.515,16.515,0,0,1,39.347,204a.371.371,0,0,1,.586-.456,15.79,15.79,0,1,0,8.448-24.976.371.371,0,0,1-.19-.718,16.623,16.623,0,0,1,19.379,9.444A16.536,16.536,0,0,1,52.39,210.37" transform="translate(-5.126 -23.146)" fill="#ffe7eb"/>
            <path id="Path_6778" data-name="Path 6778" d="M31.282,153.038,15.89,140.351C11.611,146.563-.149,161.724.528,170.789a13.06,13.06,0,0,0,4.132,8.871c5.871,5.379,11.626,9.813,25.347,18.464,5.842,3.683,10.9,6.455,13.77,8.7a3.023,3.023,0,0,0,3.307-.337,2.874,2.874,0,0,0,.909-1.875,2.576,2.576,0,0,0,3.394-.438,2.457,2.457,0,0,0,.2-2.488,3.069,3.069,0,0,0,2.725-.485,2.931,2.931,0,0,0,.915-3.112,2.9,2.9,0,0,0,2.506-1.437c1.244-2.529-5.8-7.735-9.029-10.267-1.729-1.355-19.971-14.508-27.422-20.462l3.136-4.062" transform="translate(-0.065 -18.321)" fill="#fabcc6"/>
            <path id="Path_6779" data-name="Path 6779" d="M31.282,153.038,15.89,140.351C11.611,146.563-.149,161.724.528,170.789a13.06,13.06,0,0,0,4.132,8.871c5.871,5.379,11.626,9.813,25.347,18.464,5.842,3.683,10.9,6.455,13.77,8.7a3.023,3.023,0,0,0,3.307-.337,2.874,2.874,0,0,0,.909-1.875,2.576,2.576,0,0,0,3.394-.438,2.457,2.457,0,0,0,.2-2.488,3.069,3.069,0,0,0,2.725-.485,2.931,2.931,0,0,0,.915-3.112,2.9,2.9,0,0,0,2.506-1.437c1.244-2.529-5.8-7.735-9.029-10.267-1.729-1.355-19.971-14.508-27.422-20.462l3.136-4.062" transform="translate(-0.065 -18.321)" fill="none" stroke="#000" stroke-miterlimit="10" stroke-width="1"/>
            <path id="Path_6780" data-name="Path 6780" d="M12.264,138.605S32.993,117.417,49.4,113.261C62.264,110,73.1,109.87,89.5,115.419l-3.96,22.137-3.648-1.349a178.346,178.346,0,0,1,7.744,21.256l-61.5,4.226,1.11-6.654-3.285,3Z" transform="translate(-1.601 -14.489)" fill="#a62973"/>
            <path id="Path_6781" data-name="Path 6781" d="M12.264,138.605S32.993,117.417,49.4,113.261C62.264,110,73.1,109.87,89.5,115.419l-3.96,22.137-3.648-1.349a178.346,178.346,0,0,1,7.744,21.256l-61.5,4.226,1.11-6.654-3.285,3Z" transform="translate(-1.601 -14.489)" fill="none" stroke="#000" stroke-miterlimit="10" stroke-width="1"/>
            <path id="Path_6782" data-name="Path 6782" d="M60.1,202.284a.371.371,0,0,1-.276-.619l1.205-1.347a.372.372,0,0,1,.554.5l-1.206,1.347a.37.37,0,0,1-.276.123" transform="translate(-7.797 -26.133)"/>
            <path id="Path_6783" data-name="Path 6783" d="M56.591,206.219a.371.371,0,0,1-.276-.618l1.205-1.347a.371.371,0,0,1,.553.495L56.868,206.1a.367.367,0,0,1-.276.123" transform="translate(-7.339 -26.647)"/>
            <path id="Path_6784" data-name="Path 6784" d="M53.059,210.266a.371.371,0,0,1-.276-.619l1.205-1.347a.371.371,0,0,1,.553.5l-1.205,1.347a.37.37,0,0,1-.276.123" transform="translate(-6.878 -27.175)"/>
            <path id="Path_6785" data-name="Path 6785" d="M49.78,213.869a.371.371,0,0,1-.276-.619l1.205-1.347a.371.371,0,0,1,.553.5l-1.205,1.347a.37.37,0,0,1-.276.123" transform="translate(-6.45 -27.645)"/>
            <path id="Path_6786" data-name="Path 6786" d="M62.953,110.753c-.4-1.347-2.354-2.056-4.983-2.025l-1.362-4.569c1.878.117,3.627-.1,4.4-1.1.959-1.226.738-3.966.214-6.587.579-.4,1.133-.892,1.094-1.283-.037-.368-.956-1.049-1.782-1.591-.513-1.868-1.006-3.243-1.006-3.243a8.557,8.557,0,0,0-16.428,4.8l0,0,.027.09h0l4.908,16.466c-2.168,1.4-3.38,3.043-2.982,4.376.636,2.135,5.159,2.67,10.1,1.2s8.433-4.4,7.8-6.532" transform="translate(-5.584 -10.997)" fill="#fabcc6"/>
            <path id="Path_6787" data-name="Path 6787" d="M62.953,110.753c-.4-1.347-2.354-2.056-4.983-2.025l-1.362-4.569c1.878.117,3.627-.1,4.4-1.1.959-1.226.738-3.966.214-6.587.579-.4,1.133-.892,1.094-1.283-.037-.368-.956-1.049-1.782-1.591-.513-1.868-1.006-3.243-1.006-3.243a8.557,8.557,0,0,0-16.428,4.8l0,0,.027.09h0l4.908,16.466c-2.168,1.4-3.38,3.043-2.982,4.376.636,2.135,5.159,2.67,10.1,1.2S63.59,112.887,62.953,110.753Z" transform="translate(-5.584 -10.997)" fill="none" stroke="#000" stroke-miterlimit="10" stroke-width="1"/>
            <path id="Path_6788" data-name="Path 6788" d="M60.083,101.724a1.561,1.561,0,0,1-.44-.063,1.582,1.582,0,0,1-1.1-1.242.371.371,0,1,1,.731-.127.827.827,0,0,0,1.447.4.371.371,0,0,1,.563.483,1.579,1.579,0,0,1-1.2.55" transform="translate(-7.641 -13.052)"/>
            <path id="Path_6789" data-name="Path 6789" d="M58.421,107.241a29.76,29.76,0,0,1-7.568-1.348.371.371,0,0,1,.226-.708c.051.017,5.155,1.629,8.416,1.256a.371.371,0,0,1,.083.738,10.365,10.365,0,0,1-1.158.061" transform="translate(-6.605 -13.728)"/>
            <path id="Path_6790" data-name="Path 6790" d="M42.321,100.2c-2.444-1.171-3.2-6.933-1.694-10.624,1.936-4.758,7.551-7.567,12.087-7.184,1.116.094,3.664.639,4.511,2.229.659,1.237-.6,3.809-2.725,4.548-2.991,1.04-7.183.348-5.634,3.756,4.7,10.329-3.86,8.562-6.545,7.275" transform="translate(-5.202 -10.751)" fill="#41193e"/>
            <path id="Path_6791" data-name="Path 6791" d="M42.321,100.2c-2.444-1.171-3.2-6.933-1.694-10.624,1.936-4.758,7.551-7.567,12.087-7.184,1.116.094,3.664.639,4.511,2.229.659,1.237-.6,3.809-2.725,4.548-2.991,1.04-7.183.348-5.634,3.756C53.561,103.254,45.006,101.486,42.321,100.2Z" transform="translate(-5.202 -10.751)" fill="none" stroke="#000" stroke-miterlimit="10" stroke-width="1"/>
            <path id="Path_6792" data-name="Path 6792" d="M60.467,94.672c.088.56-.157,1.063-.547,1.124s-.776-.343-.863-.9.157-1.063.546-1.124.776.343.864.9" transform="translate(-7.707 -12.24)"/>
            <path id="Path_6793" data-name="Path 6793" d="M39.967,94.65A17.958,17.958,0,1,1,22.008,76.691,17.959,17.959,0,0,1,39.967,94.65" transform="translate(-0.529 -10.011)" fill="#41193e"/>
            <path id="Path_6794" data-name="Path 6794" d="M39.967,94.65A17.958,17.958,0,1,1,22.008,76.691,17.959,17.959,0,0,1,39.967,94.65Z" transform="translate(-0.529 -10.011)" fill="none" stroke="#000" stroke-miterlimit="10" stroke-width="1"/>
            <path id="Path_6795" data-name="Path 6795" d="M57.862,98.487a3.75,3.75,0,0,1-3.436-3.33A3.64,3.64,0,0,1,57.04,90.77a3.945,3.945,0,0,1,1.291,7.677,2.776,2.776,0,0,1-.47.04m-.35-7.014a2.076,2.076,0,0,0-.35.03,3.217,3.217,0,1,0,3.05,2.681,3.013,3.013,0,0,0-2.7-2.71" transform="translate(-7.096 -11.844)" fill="#fff"/>
            <path id="Path_6796" data-name="Path 6796" d="M49.353,97.22a.371.371,0,0,1-.094-.73l4.46-1.174a.371.371,0,0,1,.189.718l-4.46,1.174a.394.394,0,0,1-.095.012" transform="translate(-6.394 -12.441)" fill="#fff"/>
            <path id="Path_6797" data-name="Path 6797" d="M61.5,94.749a.371.371,0,0,1-.3-.583,1.508,1.508,0,0,1,2.158-.353.371.371,0,0,1-.422.611.758.758,0,0,0-1.13.17.374.374,0,0,1-.3.154" transform="translate(-7.98 -12.206)" fill="#fff"/>
            <path id="Path_6798" data-name="Path 6798" d="M24.83,103.016A14.456,14.456,0,1,1,39.286,88.561,14.472,14.472,0,0,1,24.83,103.016m0-28.17A13.714,13.714,0,1,0,38.544,88.561,13.73,13.73,0,0,0,24.83,74.847" transform="translate(-1.354 -9.673)" fill="#41193e"/>
            <path id="Path_6799" data-name="Path 6799" d="M27.231,114a13.226,13.226,0,0,1-11.915-7.56.371.371,0,1,1,.671-.316,12.427,12.427,0,0,0,23.108-1.595.372.372,0,1,1,.709.221A13.106,13.106,0,0,1,27.231,114" transform="translate(-1.995 -13.61)"/>
            <path id="Path_6800" data-name="Path 6800" d="M207.38,158.474l19.053-60.5-60.5,19.053,11.723,11.723-23.569,23.569,18,18,23.569-23.569Z" transform="translate(-20.114 -12.789)" fill="#672376"/>
            <path id="Path_6801" data-name="Path 6801" d="M207.38,158.474l19.053-60.5-60.5,19.053,11.723,11.723-23.569,23.569,18,18,23.569-23.569Z" transform="translate(-20.114 -12.789)" fill="none" stroke="#000" stroke-miterlimit="10" stroke-width="1"/>
            <path id="Path_6802" data-name="Path 6802" d="M237.238,90.944a.371.371,0,0,1-.371-.371V82.3a.371.371,0,0,1,.743,0v8.273a.371.371,0,0,1-.371.371" transform="translate(-30.92 -10.695)" fill="#41193e"/>
            <path id="Path_6803" data-name="Path 6803" d="M237.238,112.666a.371.371,0,0,1-.371-.371v-8.273a.371.371,0,0,1,.743,0V112.3a.371.371,0,0,1-.371.371" transform="translate(-30.92 -13.53)" fill="#41193e"/>
            <path id="Path_6804" data-name="Path 6804" d="M229.893,98.29H221.62a.371.371,0,0,1,0-.743h8.273a.371.371,0,1,1,0,.743" transform="translate(-28.881 -12.734)" fill="#41193e"/>
            <path id="Path_6805" data-name="Path 6805" d="M251.615,98.29h-8.273a.371.371,0,0,1,0-.743h8.273a.371.371,0,0,1,0,.743" transform="translate(-31.717 -12.734)" fill="#41193e"/>
            <g id="Group_562" data-name="Group 562" transform="translate(50.045 32.502)" opacity="0.5" style="mix-blend-mode: overlay;isolation: isolate">
              <g id="Group_561" data-name="Group 561">
                <g id="Group_560" data-name="Group 560" clip-path="url(#clip-path-2)">
                  <path id="Path_6806" data-name="Path 6806" d="M122.59,53.977H65.465a7.929,7.929,0,0,1-7.906-7.906v-.784a7.929,7.929,0,0,1,7.906-7.905H122.59a7.929,7.929,0,0,1,7.906,7.905v.784a7.929,7.929,0,0,1-7.906,7.906" transform="translate(-57.559 -37.382)" fill="#fff"/>
                </g>
              </g>
            </g>
            <path id="Path_6807" data-name="Path 6807" d="M124.418,59.233H71.279a9.364,9.364,0,0,1,0-18.728h53.139a9.364,9.364,0,0,1,0,18.728M71.279,41.248a8.622,8.622,0,0,0,0,17.243h53.139a8.622,8.622,0,0,0,0-17.243Z" transform="translate(-8.082 -5.287)" fill="#fff"/>
            <path id="Path_6808" data-name="Path 6808" d="M75.464,50.549a3.27,3.27,0,1,1-3.27-3.27,3.27,3.27,0,0,1,3.27,3.27" transform="translate(-8.997 -6.172)" fill="#fff"/>
            <path id="Path_6809" data-name="Path 6809" d="M87.489,50.549a3.27,3.27,0,1,1-3.27-3.27,3.27,3.27,0,0,1,3.27,3.27" transform="translate(-10.567 -6.172)" fill="#fff"/>
            <path id="Path_6810" data-name="Path 6810" d="M99.514,50.549a3.27,3.27,0,1,1-3.27-3.27,3.27,3.27,0,0,1,3.27,3.27" transform="translate(-12.137 -6.172)" fill="#fff"/>
            <path id="Path_6811" data-name="Path 6811" d="M111.54,50.549a3.27,3.27,0,1,1-3.27-3.27,3.27,3.27,0,0,1,3.27,3.27" transform="translate(-13.706 -6.172)" fill="#fff"/>
            <rect id="Rectangle_534" data-name="Rectangle 534" width="9.035" height="9.035" transform="translate(237.454 152.604)" fill="#fff"/>
            <rect id="Rectangle_535" data-name="Rectangle 535" width="9.035" height="9.035" transform="translate(255.542 152.604)" fill="#fff"/>
            <rect id="Rectangle_536" data-name="Rectangle 536" width="9.035" height="9.035" transform="translate(201.278 170.692)" fill="#fff"/>
            <rect id="Rectangle_537" data-name="Rectangle 537" width="9.035" height="9.035" transform="translate(219.366 170.692)" fill="#fff"/>
            <rect id="Rectangle_538" data-name="Rectangle 538" width="9.035" height="9.035" transform="translate(237.454 170.692)" fill="#fff"/>
            <rect id="Rectangle_539" data-name="Rectangle 539" width="9.035" height="9.035" transform="translate(255.542 170.692)" fill="#fff"/>
            <rect id="Rectangle_540" data-name="Rectangle 540" width="9.035" height="9.035" transform="translate(201.278 188.78)" fill="#fff"/>
            <rect id="Rectangle_541" data-name="Rectangle 541" width="9.035" height="9.035" transform="translate(219.366 188.78)" fill="#fff"/>
            <rect id="Rectangle_542" data-name="Rectangle 542" width="9.035" height="9.035" transform="translate(237.454 188.78)" fill="#fff"/>
            <rect id="Rectangle_543" data-name="Rectangle 543" width="9.035" height="9.035" transform="translate(255.542 188.78)" fill="#fff"/>
            <rect id="Rectangle_544" data-name="Rectangle 544" width="9.035" height="9.035" transform="translate(201.278 206.868)" fill="#fff"/>
            <rect id="Rectangle_545" data-name="Rectangle 545" width="9.035" height="9.035" transform="translate(219.366 206.868)" fill="#fff"/>
            <rect id="Rectangle_546" data-name="Rectangle 546" width="9.035" height="9.035" transform="translate(237.454 206.868)" fill="#fff"/>
            <rect id="Rectangle_547" data-name="Rectangle 547" width="9.035" height="9.035" transform="translate(255.542 206.868)" fill="#fff"/>
          </g>
        </g>
      </g>
    </g>
  </g>
</svg>
