<svg xmlns="http://www.w3.org/2000/svg" xmlns:xlink="http://www.w3.org/1999/xlink" width="426" height="337" viewBox="0 0 426 337">
  <defs>
    <clipPath id="clip-path">
      <rect id="Rectangle_831" data-name="Rectangle 831" width="426" height="337" transform="translate(275 3060)" fill="#fff" stroke="#707070" stroke-width="1"/>
    </clipPath>
  </defs>
  <g id="skill-based-pathway" transform="translate(-275 -3060)" clip-path="url(#clip-path)">
    <g id="Group_421" data-name="Group 421" transform="translate(473.961 3100)">
      <g id="Group_422" data-name="Group 422">
        <path id="Path_6108" data-name="Path 6108" d="M125.835,223.111l4.559.013a4.194,4.194,0,0,1,.583-1.894,16.115,16.115,0,0,0,15.368-.4c1.11-.639,2.311-1.757,2.112-3.168-2.069-1.069-4.4.815-6.668.671-1.894-.122-3.513-1.645-5.374-2.067a9.478,9.478,0,0,0-2.414-.128c-1.424.046-5.883-.7-6.985.224-1.077.9-.983,5.1-1.181,6.749" transform="translate(1.734 2.976)" fill="#a1d7d4"/>
        <path id="Path_6109" data-name="Path 6109" d="M84.783,295.659a3.046,3.046,0,0,0,2.791-2.493l4.933-26.67,40.412.111-4.594,26.671a2,2,0,0,0,1.9,2.506,2.993,2.993,0,0,0,2.755-2.493L167.615,90.528a1.8,1.8,0,0,0-1.8-2.2,2.7,2.7,0,0,0-2.556,2.184l-4.156,24.12-38.482-.1,4.462-24.12a1.776,1.776,0,0,0-1.773-2.2,2.754,2.754,0,0,0-2.586,2.185l-37.8,202.754a1.966,1.966,0,0,0,1.862,2.505m21.695-104.688,39.453.107-5.611,32.571-39.867-.108Zm40.251-4.52-39.395-.107,5.883-31.806,38.991.106Zm-53.324,75.19,6.172-33.361,39.927.108-5.747,33.363ZM158.34,119.052l-5.353,31.07-38.933-.106,5.747-31.069Z" transform="translate(1.142 1.216)" fill="#232020"/>
        <path id="Path_6110" data-name="Path 6110" d="M91.225,261.373l4.559.013a4.194,4.194,0,0,1,.583-1.894,16.115,16.115,0,0,0,15.368-.4c.668-.384,2.384-1.606,2.19-2.714-.154-.875-1.351-.9-1.929-.864-1.621.1-3.2,1.184-4.816,1.081-1.894-.122-3.513-1.645-5.374-2.067a9.478,9.478,0,0,0-2.414-.128c-1.424.046-5.883-.7-6.985.224-1.077.9-.983,5.1-1.181,6.749" transform="translate(1.257 3.503)" fill="#a62973"/>
        <path id="Path_6111" data-name="Path 6111" d="M91.225,261.373l4.559.013a4.194,4.194,0,0,1,.583-1.894,16.115,16.115,0,0,0,15.368-.4c.668-.384,2.384-1.606,2.19-2.714-.154-.875-1.351-.9-1.929-.864-1.621.1-3.2,1.184-4.816,1.081-1.894-.122-3.513-1.645-5.374-2.067a9.478,9.478,0,0,0-2.414-.128c-1.424.046-5.883-.7-6.985.224C91.329,255.525,91.423,259.728,91.225,261.373Z" transform="translate(1.257 3.503)" fill="none" stroke="#000" stroke-miterlimit="10" stroke-width="1"/>
        <path id="Path_6112" data-name="Path 6112" d="M122.972,48.415A5.6,5.6,0,0,1,124,47.632a2.777,2.777,0,0,1,2.181-.332c.127,1.048-.785,1.888-1.51,2.654a21.3,21.3,0,0,0-3.525,5.865c1.718-2.558,3.8-5.651,6.783-6.818a3.376,3.376,0,0,1,2.4-.221.8.8,0,0,1,.476.392.846.846,0,0,1-.029.6,6.529,6.529,0,0,1-2.03,2.421,15.135,15.135,0,0,0-2.627,3.186,32.264,32.264,0,0,0-1.264,3.036c2.739-1.754,4.93-4.267,7.69-6.017.761-.484,2.435-1.006,2.7.362.186.979-1.432,2.225-2.023,2.866-.849.921-1.765,1.785-2.655,2.664-1.169,1.155-2.777,2.279-3.416,3.817,2.059.22,4.079-.861,6.147-.719,3.058.211.339,2.35-.977,2.876L124.6,67.349c-2.274.909-4.25,1.483-5.789,3.48a.831.831,0,0,1-.466.377.777.777,0,0,1-.442-.105c-1.737-.8-5.583-1.783-6.314-3.793-.367-1.007.322-2.055.681-2.961a113.93,113.93,0,0,0,3.58-12.022,9.962,9.962,0,0,1,2.1-4.454c.322-.333.943-.59,1.183-.194a.837.837,0,0,1,.035.587q-.721,3.879-1.441,7.761c.818-.954,1.028-2.459,1.748-3.548a24.632,24.632,0,0,1,2.811-3.373c.224-.234.45-.468.687-.689" transform="translate(1.537 0.651)" fill="#fac598"/>
        <path id="Path_6113" data-name="Path 6113" d="M122.972,48.415A5.6,5.6,0,0,1,124,47.632a2.777,2.777,0,0,1,2.181-.332c.127,1.048-.785,1.888-1.51,2.654a21.3,21.3,0,0,0-3.525,5.865c1.718-2.558,3.8-5.651,6.783-6.818a3.376,3.376,0,0,1,2.4-.221.8.8,0,0,1,.476.392.846.846,0,0,1-.029.6,6.529,6.529,0,0,1-2.03,2.421,15.135,15.135,0,0,0-2.627,3.186,32.264,32.264,0,0,0-1.264,3.036c2.739-1.754,4.93-4.267,7.69-6.017.761-.484,2.435-1.006,2.7.362.186.979-1.432,2.225-2.023,2.866-.849.921-1.765,1.785-2.655,2.664-1.169,1.155-2.777,2.279-3.416,3.817,2.059.22,4.079-.861,6.147-.719,3.058.211.339,2.35-.977,2.876L124.6,67.349c-2.274.909-4.25,1.483-5.789,3.48a.831.831,0,0,1-.466.377.777.777,0,0,1-.442-.105c-1.737-.8-5.583-1.783-6.314-3.793-.367-1.007.322-2.055.681-2.961a113.93,113.93,0,0,0,3.58-12.022,9.962,9.962,0,0,1,2.1-4.454c.322-.333.943-.59,1.183-.194a.837.837,0,0,1,.035.587q-.721,3.879-1.441,7.761c.818-.954,1.028-2.459,1.748-3.548a24.632,24.632,0,0,1,2.811-3.373C122.509,48.87,122.735,48.636,122.972,48.415Z" transform="translate(1.537 0.651)" fill="none" stroke="#000" stroke-miterlimit="10" stroke-width="1"/>
        <path id="Path_6114" data-name="Path 6114" d="M143.4,108.68a3.768,3.768,0,0,1,.447-.252c.53-.253,1.631-.364,1.971.245.069.126.117.29.253.33a.414.414,0,0,0,.289-.063c1.158-.562,3.19-.952,3.5.847a3.1,3.1,0,0,1,2.107-1.015,1.585,1.585,0,0,1,1.612,1.437,1.767,1.767,0,0,1,1.434-.579c.764.187.9,1.207.828,1.99a20.024,20.024,0,0,1-.935,4.476,5.621,5.621,0,0,1-1.425,2.5c-1.184,1.055-2.929,1.1-4.515,1.092a11.46,11.46,0,0,1-4.112-.68c-1.153-.427-1.812-1.382-2.8-2.133-.733-.556-.629-1.011-.562-1.926.162-2.164-.091-4.944,1.914-6.268" transform="translate(1.949 1.492)" fill="#fac598"/>
        <path id="Path_6115" data-name="Path 6115" d="M143.4,108.68a3.768,3.768,0,0,1,.447-.252c.53-.253,1.631-.364,1.971.245.069.126.117.29.253.33a.414.414,0,0,0,.289-.063c1.158-.562,3.19-.952,3.5.847a3.1,3.1,0,0,1,2.107-1.015,1.585,1.585,0,0,1,1.612,1.437,1.767,1.767,0,0,1,1.434-.579c.764.187.9,1.207.828,1.99a20.024,20.024,0,0,1-.935,4.476,5.621,5.621,0,0,1-1.425,2.5c-1.184,1.055-2.929,1.1-4.515,1.092a11.46,11.46,0,0,1-4.112-.68c-1.153-.427-1.812-1.382-2.8-2.133-.733-.556-.629-1.011-.562-1.926C141.647,112.784,141.393,110,143.4,108.68Z" transform="translate(1.949 1.492)" fill="none" stroke="#000" stroke-miterlimit="10" stroke-width="1"/>
        <path id="Path_6116" data-name="Path 6116" d="M139.651,221.6a31.373,31.373,0,0,1-.566-4.137c0-.019,0-.039,0-.058a11.728,11.728,0,0,0-2.667-1.141,9.478,9.478,0,0,0-2.414-.128c-1.424.047-5.883-.7-6.986.224-1.076.9-.983,5.1-1.18,6.749l4.559.013a4.194,4.194,0,0,1,.583-1.894,16.029,16.029,0,0,0,8.462,1.713,2.244,2.244,0,0,1,.069-.838c.049-.167.1-.336.143-.5" transform="translate(1.734 2.976)" fill="#a62973"/>
        <path id="Path_6117" data-name="Path 6117" d="M139.651,221.6a31.373,31.373,0,0,1-.566-4.137c0-.019,0-.039,0-.058a11.728,11.728,0,0,0-2.667-1.141,9.478,9.478,0,0,0-2.414-.128c-1.424.047-5.883-.7-6.986.224-1.076.9-.983,5.1-1.18,6.749l4.559.013a4.194,4.194,0,0,1,.583-1.894,16.029,16.029,0,0,0,8.462,1.713,2.244,2.244,0,0,1,.069-.838C139.557,221.938,139.6,221.77,139.651,221.6Z" transform="translate(1.734 2.976)" fill="none" stroke="#000" stroke-miterlimit="10" stroke-width="1"/>
        <path id="Path_6118" data-name="Path 6118" d="M106.545,154.992c.057-.549.1-1.095.159-1.645.042-.377-13.467-7.928-14.247-8.269-1.779-.781-6.8-3.272-7.253-.4-3.389,21.479,1.524,87.251,5.221,113.773l14.507-1.8c1.783-27.152-.413-52.746.227-79.088,9.12,2.266,22.184,2.407,23.325,3.8,1.469,1.8-3.24,37.309-3.24,37.309,4.363.644,15.169.924,15.953-1.5,1.784-5.511,5.547-32.043,5.856-37.856.891-16.743-21.989-21.637-40.509-24.322" transform="translate(1.159 1.976)" fill="#e099c7"/>
        <path id="Path_6119" data-name="Path 6119" d="M106.545,154.992c.057-.549.1-1.095.159-1.645.042-.377-13.467-7.928-14.247-8.269-1.779-.781-6.8-3.272-7.253-.4-3.389,21.479,1.524,87.251,5.221,113.773l14.507-1.8c1.783-27.152-.413-52.746.227-79.088,9.12,2.266,22.184,2.407,23.325,3.8,1.469,1.8-3.24,37.309-3.24,37.309,4.363.644,15.169.924,15.953-1.5,1.784-5.511,5.547-32.043,5.856-37.856C147.944,162.571,125.064,157.676,106.545,154.992Z" transform="translate(1.159 1.976)" fill="none" stroke="#000" stroke-miterlimit="10" stroke-width="1"/>
        <path id="Path_6120" data-name="Path 6120" d="M123.111,150.312c1.478.747,2.5,1.953,4.173,2.533a9.443,9.443,0,0,0,6.749-.224c3.752-1.6,6.353-5.05,8.6-8.455A123.268,123.268,0,0,0,155.8,117.844l-14.459-2.316a59.6,59.6,0,0,1-5.263,10.631c.951-4.546,1.782-9.714-.941-13.476-2.242-3.1-6.26-4.282-10.024-4.952a69.4,69.4,0,0,0-17.77-.843c1.86-11.678,6.941-23.593,13.307-36.622l-8.968-6.4c-9.668,10.222-16.16,29.561-19.493,39-5.225,14.789-7.41,31.438-9.184,47.023-.073.644,32.77,10.094,34.961,7.884s3.2-5.089,5.029-7.511l.115.057" transform="translate(1.144 0.88)" fill="#672376"/>
        <path id="Path_6121" data-name="Path 6121" d="M123.111,150.312c1.478.747,2.5,1.953,4.173,2.533a9.443,9.443,0,0,0,6.749-.224c3.752-1.6,6.353-5.05,8.6-8.455A123.268,123.268,0,0,0,155.8,117.844l-14.459-2.316a59.6,59.6,0,0,1-5.263,10.631c.951-4.546,1.782-9.714-.941-13.476-2.242-3.1-6.26-4.282-10.024-4.952a69.4,69.4,0,0,0-17.77-.843c1.86-11.678,6.941-23.593,13.307-36.622l-8.968-6.4c-9.668,10.222-16.16,29.561-19.493,39-5.225,14.789-7.41,31.438-9.184,47.023-.073.644,32.77,10.094,34.961,7.884s3.2-5.089,5.029-7.511Z" transform="translate(1.144 0.88)" fill="none" stroke="#000" stroke-miterlimit="10" stroke-width="1"/>
        <path id="Path_6122" data-name="Path 6122" d="M126.094,92.906a8.386,8.386,0,0,1,.117,2.569.937.937,0,0,1,1.33.635,1.612,1.612,0,0,1-.637,1.522,1.657,1.657,0,0,0-.545.565,1.3,1.3,0,0,0-.07.463,9.724,9.724,0,0,1-.744,3.741,4.892,4.892,0,0,1-2.659,2.629.933.933,0,0,0-.41.222.842.842,0,0,0-.152.391l-.456,2.242a1.1,1.1,0,0,1-.171.468.986.986,0,0,1-.453.287,6.546,6.546,0,0,1-2.955.224,18.932,18.932,0,0,1-3.922-.834,19.1,19.1,0,0,0,.463-4.113,5.858,5.858,0,0,1,.141-1.665,5.706,5.706,0,0,1,1.4-2.031,23.112,23.112,0,0,0,2.79-3.855,26.861,26.861,0,0,1,2-3.306,5.436,5.436,0,0,1,2.813-1.993c1.145-.286,1.868.827,2.128,1.839" transform="translate(1.576 1.255)" fill="#fac598"/>
        <path id="Path_6123" data-name="Path 6123" d="M117.634,85.921c-.881.28-1.888.181-2.816.429a4.459,4.459,0,0,0-2.715,1.659,5.19,5.19,0,0,1-.444.689,4.112,4.112,0,0,1-.933.643,3.714,3.714,0,0,0-1.579,3.92,4.72,4.72,0,0,1,.178.8A3.045,3.045,0,0,1,109,95.375a7.634,7.634,0,0,0-.648,2.588,3.249,3.249,0,0,0,.9,2.446c.8.761,1.936.872,2.859,1.4a4.093,4.093,0,0,1,1.1,1.211,11.308,11.308,0,0,0,.979,1.529,15.357,15.357,0,0,0,4.578-.512.966.966,0,0,0,.784-.609,23.557,23.557,0,0,1,1.112-2.1,18.07,18.07,0,0,0,1.33-1.687,2.031,2.031,0,0,1-.943-2.312c.3-.972,1.6-1.671,2.35-.691a.191.191,0,0,0,.08.073.173.173,0,0,0,.085,0l.716-.123q-.055-.633-.05-1.269a1.342,1.342,0,0,1,.061-.467,9.515,9.515,0,0,1,1.515-1.987,6.594,6.594,0,0,0,.4-7.11,4.032,4.032,0,0,0-1.8-1.775,4.7,4.7,0,0,0-3.94.314c-.775.392-1.483.9-2.221,1.353a2.68,2.68,0,0,1-.6.273" transform="translate(1.493 1.153)" fill="#232020"/>
        <path id="Path_6124" data-name="Path 6124" d="M122.241,149.345a.292.292,0,0,1-.281-.213,30.023,30.023,0,0,1,.986-19.176.293.293,0,0,1,.543.217,29.433,29.433,0,0,0-.967,18.8.293.293,0,0,1-.2.361.318.318,0,0,1-.08.011" transform="translate(1.666 1.789)"/>
        <path id="Path_6125" data-name="Path 6125" d="M129.863,138.4a.293.293,0,0,1-.281-.376,61.312,61.312,0,0,1,5.309-12.174c.5-.913,1.046-1.854,1.575-2.764a42.549,42.549,0,0,0,4.126-8.455.292.292,0,0,1,.559.173,43.037,43.037,0,0,1-4.179,8.576c-.527.906-1.073,1.844-1.568,2.75a60.8,60.8,0,0,0-5.262,12.06.292.292,0,0,1-.28.209" transform="translate(1.786 1.577)"/>
        <path id="Path_6126" data-name="Path 6126" d="M100.672,108.315a.292.292,0,0,1-.126-.557,17.371,17.371,0,0,1,6.912-1.669.293.293,0,0,1,.017.585,16.786,16.786,0,0,0-6.678,1.612.291.291,0,0,1-.126.028" transform="translate(1.384 1.462)" fill="#232020"/>
        <path id="Path_6127" data-name="Path 6127" d="M121.7,105.351a2.032,2.032,0,0,1-1.925-1,.292.292,0,0,1,.534-.238,1.493,1.493,0,0,0,1.422.652,3.9,3.9,0,0,0,2.718-1.183.293.293,0,1,1,.423.4,4.439,4.439,0,0,1-3.134,1.364H121.7" transform="translate(1.65 1.426)" fill="#232020"/>
        <path id="Path_6128" data-name="Path 6128" d="M133.454,53.8h0m.069-.042h0Z" transform="translate(1.839 0.741)" fill="#232020"/>
        <path id="Path_6129" data-name="Path 6129" d="M165.478,36.692l-12.694-5.515-11.74,7.33,1.322-13.776-10.6-8.9,13.512-3L150.468,0,157.5,11.923l13.807.97-9.168,10.368Z" transform="translate(1.816 0)" fill="#f9e7cd"/>
        <path id="Path_6130" data-name="Path 6130" d="M193.779,49.193l-5.957-6.522-8.75,1.21,4.362-7.681-3.854-7.947,8.653,1.774,6.367-6.121.986,8.777,7.79,4.164L195.332,40.5Z" transform="translate(2.468 0.33)" fill="#ffb0b8"/>
        <path id="Path_6131" data-name="Path 6131" d="M156.939,63.607l1.2-7.851-5.789-5.436,7.837-1.288,3.381-7.186,3.647,7.055,7.878,1-5.583,5.648,1.488,7.8-7.1-3.563Z" transform="translate(2.1 0.577)" fill="#9a5fbb"/>
        <path id="Path_6132" data-name="Path 6132" d="M184.215,183.513A2.313,2.313,0,1,0,181.9,181.2a2.34,2.34,0,0,0,2.313,2.313" transform="translate(2.507 2.466)" fill="#232020"/>
        <path id="Path_6133" data-name="Path 6133" d="M196.963,183.513a2.313,2.313,0,1,0-2.313-2.313,2.34,2.34,0,0,0,2.313,2.313" transform="translate(2.683 2.466)" fill="#232020"/>
        <path id="Path_6134" data-name="Path 6134" d="M209.975,183.513a2.313,2.313,0,1,0-2.313-2.313,2.34,2.34,0,0,0,2.313,2.313" transform="translate(2.862 2.466)" fill="#232020"/>
        <path id="Path_6135" data-name="Path 6135" d="M178.315,191.284A2.313,2.313,0,1,0,176,188.97a2.34,2.34,0,0,0,2.313,2.313" transform="translate(2.426 2.573)" fill="#232020"/>
        <path id="Path_6136" data-name="Path 6136" d="M191.064,191.284a2.313,2.313,0,1,0-2.313-2.313,2.34,2.34,0,0,0,2.313,2.313" transform="translate(2.602 2.573)" fill="#232020"/>
        <path id="Path_6137" data-name="Path 6137" d="M204.075,191.284a2.313,2.313,0,1,0-2.313-2.313,2.34,2.34,0,0,0,2.313,2.313" transform="translate(2.781 2.573)" fill="#232020"/>
        <path id="Path_6138" data-name="Path 6138" d="M172.2,199.055a2.313,2.313,0,1,0-2.313-2.313,2.34,2.34,0,0,0,2.313,2.313" transform="translate(2.342 2.68)" fill="#232020"/>
        <path id="Path_6139" data-name="Path 6139" d="M184.953,199.055a2.313,2.313,0,1,0-2.313-2.313,2.34,2.34,0,0,0,2.313,2.313" transform="translate(2.517 2.68)" fill="#232020"/>
        <path id="Path_6140" data-name="Path 6140" d="M197.964,199.055a2.313,2.313,0,1,0-2.313-2.313,2.34,2.34,0,0,0,2.313,2.313" transform="translate(2.697 2.68)" fill="#232020"/>
        <path id="Path_6141" data-name="Path 6141" d="M92.967,49.244l-3.59-18.51L77.1,45.41l4.094.989L51.569,143.618l-11.614-11a3.509,3.509,0,0,0-5.78,1.558L17.741,190.131a3.509,3.509,0,1,0,6.734,1.978l14.818-50.453L50.86,152.613a3.509,3.509,0,0,0,5.769-1.525L88.027,48.05Z" transform="translate(0.243 0.424)" fill="#fff"/>
        <path id="Path_6142" data-name="Path 6142" d="M92.967,49.244l-3.59-18.51L77.1,45.41l4.094.989L51.569,143.618l-11.614-11a3.509,3.509,0,0,0-5.78,1.558L17.741,190.131a3.509,3.509,0,1,0,6.734,1.978l14.818-50.453L50.86,152.613a3.509,3.509,0,0,0,5.769-1.525L88.027,48.05Z" transform="translate(0.243 0.424)" fill="none" stroke="#000" stroke-miterlimit="10" stroke-width="1"/>
        <path id="Path_6143" data-name="Path 6143" d="M13.421,174.54a.668.668,0,0,1-.1-.008.585.585,0,0,1-.477-.675c.062-.364.143-.856.242-1.462a284.551,284.551,0,0,1,6.124-29.1c4.155-14.921,8.835-23.577,13.91-25.727a7.067,7.067,0,0,1,7.106,1.03,16.2,16.2,0,0,1,4.425,5.23L57.921,73.729a.585.585,0,0,1,1.13.3L45.058,126.853l-.709-1.227c-1.242-2.15-2.649-4.587-4.79-6.073-2.076-1.441-4.033-1.74-5.982-.914-2.534,1.075-5.033,4.07-7.432,8.905A93.73,93.73,0,0,0,20.337,143.6a283.693,283.693,0,0,0-6.1,28.98c-.1.609-.18,1.1-.243,1.469a.585.585,0,0,1-.576.487" transform="translate(0.177 1.01)" fill="#232020"/>
        <path id="Path_6144" data-name="Path 6144" d="M148.933,41.034l1.407-14.65-11.271-9.465,14.367-3.189L158.954.085l7.474,12.679L181.11,13.8l-9.749,11.026L174.916,39.1l-13.5-5.865Zm-7.3-23.486,9.927,8.335-1.239,12.9,11-6.865,11.89,5.165-3.133-12.578,8.587-9.711-12.931-.908L159.151,2.721l-4.86,12.017Z" transform="translate(1.917 0.001)" fill="#232020"/>
        <path id="Path_6145" data-name="Path 6145" d="M34.114,275.477h0a8.874,8.874,0,0,1-8.848-8.848V252.7a2.03,2.03,0,0,1,2.025-2.025H40.938a2.03,2.03,0,0,1,2.025,2.025v13.932a8.874,8.874,0,0,1-8.848,8.848" transform="translate(-41.652 -163.615)" fill="#232020"/>
        <path id="Path_6146" data-name="Path 6146" d="M33.97,218.088A18.765,18.765,0,0,0,21.742,250.84a10.825,10.825,0,0,1,3.659,8.055v.055H43.1v-.056a10.72,10.72,0,0,1,3.609-8.01,18.765,18.765,0,0,0-12.737-32.8" transform="translate(-41.787 -164.064)" fill="#ee5064"/>
        <path id="Path_6147" data-name="Path 6147" d="M33.97,218.088A18.765,18.765,0,0,0,21.742,250.84a10.825,10.825,0,0,1,3.659,8.055v.055H43.1v-.056a10.72,10.72,0,0,1,3.609-8.01,18.765,18.765,0,0,0-12.737-32.8Z" transform="translate(-41.787 -164.064)" fill="none" stroke="#000" stroke-miterlimit="10" stroke-width="1"/>
        <path id="Path_6148" data-name="Path 6148" d="M42.545,233.247a3.824,3.824,0,0,0-4.238-.552,4.122,4.122,0,0,0-.631.35,3.392,3.392,0,0,0-2.74-1.544,4.147,4.147,0,0,0-2.824,1.177,3.014,3.014,0,0,0-1.567-1.125,4.187,4.187,0,0,0-4.018,1.072c-1.334,1.291-1.679,3.247-1.855,5.011a33.689,33.689,0,0,0,3.275,18.048c.431.87,1.636.106,1.276-.746A34.621,34.621,0,0,1,26.522,239c.133-1.8.293-5.147,2.649-5.45a1.229,1.229,0,0,1,1.431.984,7.312,7.312,0,0,0-.958,4.211,3.017,3.017,0,0,0,.842,2.034,1.653,1.653,0,0,0,2.33,0,3.148,3.148,0,0,0,.558-2.323,18.912,18.912,0,0,0-.274-3.128c-.01-.06-.022-.121-.033-.18.518-.7,1.267-1.409,2-1.183a1.668,1.668,0,0,1,.924,1.009,9.547,9.547,0,0,0-.6,1.346c-.54,1.506-1.319,3.734.036,5.028a2.315,2.315,0,0,0,2.126.609,2.211,2.211,0,0,0,1.511-2.07,12.964,12.964,0,0,0-.343-4.488c.491-.474,1.534-.946,2.077-.343a1.929,1.929,0,0,1,.268,1.324,22.741,22.741,0,0,1-.224,2.344,43.1,43.1,0,0,1-.833,4.454,44.262,44.262,0,0,1-3.575,9.724c-.807,1.589,1.606,2.994,2.392,1.4a47.237,47.237,0,0,0,3.814-10.829A47.963,47.963,0,0,0,43.5,237.9c.153-1.595.281-3.418-.959-4.648m-10.5,5.72a.161.161,0,0,0,0-.047c.519.03-.066.247,0,.047" transform="translate(-41.662 -163.88)" fill="#fff"/>
        <path id="Path_6149" data-name="Path 6149" d="M30,222.9a1.346,1.346,0,0,0-2.175-.432,11.61,11.61,0,0,1-1.808.985,14.772,14.772,0,0,0-4.664,4.4,13.7,13.7,0,0,0-2.363,8.107.732.732,0,0,0,1.464,0,12.835,12.835,0,0,1,2.539-7.021,12.41,12.41,0,0,1,2.552-2.605c.8-.607,2.166-1.656,3.23-1.573A1.339,1.339,0,0,0,30,222.9" transform="translate(-41.738 -164.009)" fill="#fff"/>
        <path id="Path_6150" data-name="Path 6150" d="M40.625,262.176a13.233,13.233,0,0,0-3.22.044q-1.578.015-3.156.028c-2.158.015-4.308.068-6.463.136a.567.567,0,0,0,0,1.133c2.155.068,4.3.122,6.463.137q1.578.011,3.156.027a13.181,13.181,0,0,0,3.22.044.81.81,0,0,0,0-1.549" transform="translate(-41.625 -163.458)" fill="#fff"/>
        <path id="Path_6151" data-name="Path 6151" d="M41.006,267.221a35.274,35.274,0,0,0-6.524-.232c-2.233-.017-4.461-.046-6.694-.008a.725.725,0,0,0,0,1.449c2.233.038,4.461.01,6.694-.008a35.1,35.1,0,0,0,6.524-.232.506.506,0,0,0,0-.968" transform="translate(-41.627 -163.39)" fill="#fff"/>
        <path id="Path_6152" data-name="Path 6152" d="M38.5,270.816a17.828,17.828,0,0,0-3.5-.106c-1.2.023-2.4.053-3.593.079a.768.768,0,0,0,0,1.535c1.2.026,2.395.056,3.593.079a17.828,17.828,0,0,0,3.5-.106.773.773,0,0,0,0-1.48" transform="translate(-41.577 -163.339)" fill="#fff"/>
        <path id="Path_6153" data-name="Path 6153" d="M19.375,218.695a42.433,42.433,0,0,0-3.508-4.655q-.9-1.057-1.867-2.061c-.631-.659-1.363-1.6-2.3-1.765a.915.915,0,0,0-1.109,1.109,4.661,4.661,0,0,0,1.56,2.018q.985.979,1.917,2.011c1.259,1.395,2.428,2.869,3.565,4.363.764,1,2.469.1,1.746-1.021" transform="translate(-41.854 -164.173)" fill="#232020"/>
        <path id="Path_6154" data-name="Path 6154" d="M28.451,215.482a19.549,19.549,0,0,0-1.388-5.362c-.639-1.523-1.467-3.713-3.021-4.5a.988.988,0,0,0-1.431,1.1,6.821,6.821,0,0,0,1.2,2.269,20.536,20.536,0,0,1,1.132,2.02,22.789,22.789,0,0,1,1.633,4.721c.242,1.024,2.005.833,1.879-.254" transform="translate(-41.689 -164.237)" fill="#232020"/>
        <path id="Path_6155" data-name="Path 6155" d="M39.776,202.155a5.172,5.172,0,0,0-1.709,2.36,27.4,27.4,0,0,0-1.219,2.787,25.782,25.782,0,0,0-1.34,5.929c-.132,1.113,1.771,1.377,1.969.267a27.426,27.426,0,0,1,1.561-5.415,24.687,24.687,0,0,1,1.171-2.513,6.589,6.589,0,0,0,1.116-2.525,1.037,1.037,0,0,0-1.549-.889" transform="translate(-41.511 -164.285)" fill="#232020"/>
        <path id="Path_6156" data-name="Path 6156" d="M59.543,212.3c-1.951-.27-3.873.972-5.465,1.991a23.206,23.206,0,0,0-4.567,3.859,1.094,1.094,0,0,0,1.546,1.546,21.62,21.62,0,0,1,4.284-3.245,20.635,20.635,0,0,1,2.319-1.164,6.566,6.566,0,0,0,2.326-1.313c.479-.481.335-1.567-.442-1.675" transform="translate(-41.322 -164.144)" fill="#232020"/>
        <path id="Path_6157" data-name="Path 6157" d="M12.472,226.054a8.49,8.49,0,0,0-5.25-1.945c-1.944-.154-4.474.056-6.086,1.276-1,.758-.489,2.684.933,2.214.857-.283,1.632-.752,2.486-1.045a14.9,14.9,0,0,1,2.6-.65,22.263,22.263,0,0,1,5.314.166.01.01,0,0,0,.007-.016" transform="translate(-41.992 -163.981)" fill="#232020"/>
        <path id="Path_6158" data-name="Path 6158" d="M9.285,238.222a20.252,20.252,0,0,0-5.293,2.216c-1.417.867-3.538,2.121-3.967,3.836a.837.837,0,0,0,1.019,1.02A5.433,5.433,0,0,0,3,244.016a23.6,23.6,0,0,1,2.145-1.6,20.125,20.125,0,0,1,4.666-2.277.994.994,0,0,0-.528-1.915" transform="translate(-42 -163.787)" fill="#232020"/>
        <path id="Path_6159" data-name="Path 6159" d="M15.879,249.552q-2.506,2.47-5.2,4.738c-.855.716-1.73,1.408-2.6,2.1a23.793,23.793,0,0,0-2.834,2.344,1.08,1.08,0,0,0,1.3,1.688,14.941,14.941,0,0,0,2.822-2c.961-.768,1.889-1.574,2.8-2.4q2.675-2.416,5.138-5.05a1.011,1.011,0,0,0-1.429-1.429" transform="translate(-41.932 -163.634)" fill="#232020"/>
        <path id="Path_6160" data-name="Path 6160" d="M69.4,226.662a21.566,21.566,0,0,0-5.493.3l-5.585.568c-1.339.136-1.388,2.213,0,2.131l5.585-.328a21.988,21.988,0,0,0,5.493-.539c.935-.311,1.157-1.94,0-2.126" transform="translate(-41.21 -163.947)" fill="#232020"/>
        <path id="Path_6161" data-name="Path 6161" d="M67.946,240.874a16.276,16.276,0,0,1-9.1-2.222,1.094,1.094,0,0,0-1.1,1.888,18.335,18.335,0,0,0,10.207,2.885c1.642-.032,1.639-2.626,0-2.551" transform="translate(-41.211 -163.783)" fill="#232020"/>
        <path id="Path_6162" data-name="Path 6162" d="M61.608,256.521a37.593,37.593,0,0,1-4.722-2.341,17.047,17.047,0,0,1-3.856-3.6c-.753-.945-2.4.313-1.688,1.3a19.667,19.667,0,0,0,4.077,4.192,13.32,13.32,0,0,0,5.255,2.659c1.256.237,2.255-1.576.934-2.214" transform="translate(-41.295 -163.621)" fill="#232020"/>
      </g>
    </g>
  </g>
</svg>
