<svg xmlns="http://www.w3.org/2000/svg" width="42" height="37.331" viewBox="0 0 42 37.331">
  <path id="twitter-logo" d="M73.532,47.318l-5.813,5.813a26.541,26.541,0,0,1-26.4,24.195A15.585,15.585,0,0,1,34.4,76a5.531,5.531,0,0,1-2.154-1.7A1.555,1.555,0,0,1,33,71.982a21.915,21.915,0,0,0,7.674-5.218,21.568,21.568,0,0,1-4.254-4.705c-2.411-3.579-5.11-9.8-4.277-19.089a1.555,1.555,0,0,1,2.654-.957c.068.068,6.471,6.436,14.3,8.5V49.329a9.307,9.307,0,0,1,2.792-6.669A9.113,9.113,0,0,1,58.452,40a9.461,9.461,0,0,1,8.063,4.666h5.916a1.555,1.555,0,0,1,1.1,2.656Z" transform="translate(-31.988 -39.996)" fill="#fff"/>
</svg>
