<?xml version="1.0" encoding="UTF-8"?>
<svg id="Layer_2" data-name="Layer 2" xmlns="http://www.w3.org/2000/svg" xmlns:xlink="http://www.w3.org/1999/xlink" viewBox="0 0 120 120">
  <defs>
    <style>
      .cls-1 {
        fill: url(#Razorswift_Gradient-2);
      }

      .cls-1, .cls-2, .cls-3 {
        stroke-width: 0px;
      }

      .cls-2 {
        fill: none;
      }

      .cls-3 {
        fill: url(#Razorswift_Gradient);
      }
    </style>
    <linearGradient id="Razorswift_Gradient" data-name="Razorswift Gradient" x1="10" y1="58.61" x2="110" y2="58.61" gradientUnits="userSpaceOnUse">
      <stop offset="0" stop-color="#682376"/>
      <stop offset="1" stop-color="#a52973"/>
    </linearGradient>
    <linearGradient id="Razorswift_Gradient-2" data-name="Razorswift Gradient" x1="52.47" y1="60.92" x2="67.53" y2="60.92" xlink:href="#Razorswift_Gradient"/>
  </defs>
  <g id="Layer_2-2" data-name="Layer 2">
    <g>
      <rect class="cls-2" width="120" height="120"/>
      <rect class="cls-2" x="10" y="10" width="100" height="100"/>
      <g>
        <path class="cls-3" d="m107.56,73.89h-2.11v-3.79c2.18-1.02,3.75-3.12,4-5.66l.51-5.09c.32-3.2-1.44-6.34-4.51-7.66v-6.79h.73c.99,0,1.88-.59,2.26-1.51.38-.92.17-1.96-.53-2.66l-11.29-11.29c-.46-.46-1.07-.72-1.73-.72s-1.27.25-1.73.72l-11.29,11.29c-.7.7-.91,1.75-.53,2.66.38.92,1.26,1.51,2.26,1.51h.73v9.11c0,.81.66,1.46,1.46,1.46s1.46-.66,1.46-1.46v-10.09c0-1.08-.88-1.95-1.95-1.95h-.53l10.11-10.11,10.11,10.11h-.53c-1.08,0-1.95.88-1.95,1.95v7.15s-.03,0-.05,0c-4.44,0-7.94,3.84-7.49,8.28l.51,5.09c.36,3.6,3.36,6.32,6.99,6.32.02,0,.03,0,.05,0v3.13h-6.4c-.65,0-1.27-.25-1.73-.72l-7.14-7.14v-5.18c0-.81-.66-1.46-1.46-1.46s-1.46.66-1.46,1.46v2.25c-1.76-1.66-4.54-1.63-6.27.09l-4.45,4.45v-32.26h2.24c.99,0,1.88-.59,2.26-1.51.38-.92.17-1.96-.53-2.66l-15.84-15.84c-.95-.95-2.5-.95-3.45,0l-7.12,7.12c-.57.57-.57,1.5,0,2.07.57.57,1.5.57,2.07,0l6.78-6.78,14.66,14.66h-2.04c-1.08,0-1.95.88-1.95,1.95v36.16l-2.59,2.59c-.46.46-1.07.72-1.73.72h-12.7c-.65,0-1.27-.25-1.73-.72l-2.59-2.59v-36.16c0-1.08-.88-1.95-1.95-1.95h-2.04l2.92-2.92c.57-.57.57-1.5,0-2.07-.57-.57-1.5-.57-2.07,0l-3.75,3.75c-.7.7-.91,1.75-.53,2.66.38.92,1.26,1.51,2.26,1.51h2.24v32.26l-4.45-4.45c-1.72-1.72-4.51-1.75-6.27-.09v-18.2h.73c.99,0,1.88-.59,2.26-1.51.38-.92.17-1.96-.53-2.66l-11.29-11.29c-.95-.95-2.5-.95-3.45,0l-11.29,11.29c-.7.7-.91,1.75-.53,2.66.38.92,1.26,1.51,2.26,1.51h.73v6.79c-.98.42-1.87,1.05-2.6,1.86-1.42,1.57-2.12,3.69-1.91,5.8l.51,5.09c.25,2.54,1.83,4.65,4,5.66v3.79h-2.11c-1.35,0-2.44,1.1-2.44,2.44v23.77c0,1.35,1.1,2.44,2.44,2.44h13.21c1.35,0,2.44-1.1,2.44-2.44v-7.74c0-.81-.66-1.46-1.46-1.46s-1.46.66-1.46,1.46v7.26h-12.24v-22.79h10.95c1.43,0,2.78-.56,3.8-1.57l6.99-6.99c.22.47.52.92.91,1.31l1.11,1.11-9.67,9.67c-1.2,1.2-1.86,2.79-1.86,4.49v.69c0,.81.66,1.46,1.46,1.46s1.46-.66,1.46-1.46v-.69c0-.91.36-1.77,1-2.42l9.67-9.67,9.67,9.67c.65.65,1,1.5,1,2.42v15.27c0,1.35,1.1,2.44,2.44,2.44h16.25c1.35,0,2.44-1.1,2.44-2.44v-15.27c0-.91.36-1.77,1-2.42l9.67-9.67,9.67,9.67c.65.65,1,1.5,1,2.42v15.27c0,1.35,1.1,2.44,2.44,2.44h13.21c1.35,0,2.44-1.1,2.44-2.44v-23.77c0-1.35-1.1-2.44-2.44-2.44h0Zm-9.16-9.74l-.51-5.09c-.27-2.73,1.88-5.06,4.58-5.06s4.85,2.35,4.58,5.06l-.51,5.09c-.21,2.1-1.96,3.68-4.07,3.68-2.11,0-3.86-1.58-4.07-3.68h0Zm-85.45-5.09c-.13-1.31.28-2.57,1.17-3.55.88-.97,2.09-1.51,3.41-1.51s2.53.54,3.41,1.51c.88.98,1.3,2.24,1.17,3.55l-.51,5.09c-.21,2.1-1.96,3.68-4.07,3.68s-3.86-1.58-4.07-3.68l-.51-5.09Zm12.66,14.11c-.46.46-1.07.72-1.73.72h-6.4v-3.13s.03,0,.05,0c3.62,0,6.62-2.72,6.99-6.32l.51-5.09c.21-2.11-.48-4.23-1.91-5.8s-3.46-2.48-5.58-2.48c-.02,0-.03,0-.05,0v-7.15c0-1.08-.88-1.95-1.95-1.95h-.53l10.11-10.11,10.11,10.11h-.53c-1.08,0-1.95.88-1.95,1.95v22.11l-7.14,7.14Zm43.89,7.16c-1.2,1.2-1.86,2.79-1.86,4.49v14.78h-15.27v-14.78c0-1.7-.66-3.29-1.86-4.49l-12.85-12.85c-.61-.61-.61-1.61,0-2.22.61-.61,1.61-.61,2.22,0l9.98,9.98c1.01,1.01,2.36,1.57,3.8,1.57h12.7c1.43,0,2.78-.56,3.8-1.57l9.98-9.98c.61-.61,1.61-.61,2.22,0,.61.61.61,1.61,0,2.22l-12.85,12.85Zm37.58,19.27h-12.24v-14.78c0-1.7-.66-3.29-1.86-4.49l-9.67-9.67,1.11-1.11c.39-.39.69-.83.91-1.31l6.99,6.99c1.01,1.01,2.36,1.57,3.8,1.57h10.95v22.79Z"/>
        <path class="cls-1" d="m60,70.77c3.62,0,6.62-2.72,6.99-6.32l.51-5.09c.21-2.11-.48-4.23-1.91-5.8s-3.46-2.48-5.58-2.48-4.16.9-5.58,2.48-2.12,3.69-1.91,5.8l.51,5.09c.36,3.6,3.36,6.32,6.99,6.32h0Zm-3.41-15.24c.88-.98,2.1-1.51,3.41-1.51s2.53.54,3.41,1.51c.88.98,1.3,2.24,1.17,3.55l-.51,5.09c-.21,2.1-1.96,3.68-4.07,3.68s-3.86-1.58-4.07-3.68l-.51-5.09c-.13-1.31.28-2.57,1.17-3.55h0Z"/>
      </g>
    </g>
  </g>
</svg>