<svg id="business-banner" xmlns="http://www.w3.org/2000/svg" width="667" height="386.361" viewBox="0 0 667 386.361">
  <path id="Path_7811" data-name="Path 7811" d="M490.569,208.884V325.378a5.63,5.63,0,0,1-5.63,5.63H299.231a5.634,5.634,0,0,1-5.635-5.63V208.884a5.634,5.634,0,0,1,5.635-5.63H484.939a5.63,5.63,0,0,1,5.63,5.63" fill="#e0dfe5"/>
  <path id="Path_7812" data-name="Path 7812" d="M490.569,208.884v2.293H293.593v-2.293a5.634,5.634,0,0,1,5.635-5.63H484.939a5.63,5.63,0,0,1,5.63,5.63" fill="#c7bfce"/>
  <path id="Path_7813" data-name="Path 7813" d="M478.644,209.252a.385.385,0,0,1-.227-.695l4.952-3.632a.385.385,0,0,1,.455.621l-4.953,3.631a.379.379,0,0,1-.227.075" fill="#5c69a5"/>
  <path id="Path_7814" data-name="Path 7814" d="M483.6,209.251a.379.379,0,0,1-.227-.075l-4.953-3.631a.385.385,0,0,1,.443-.63l.012.009,4.952,3.632a.385.385,0,0,1-.227.7" fill="#5c69a5"/>
  <path id="Path_7815" data-name="Path 7815" d="M474.682,209.251h-6.437a.386.386,0,0,1-.385-.384v-3.632a.385.385,0,0,1,.385-.385h6.437a.385.385,0,0,1,.384.385v3.632a.384.384,0,0,1-.384.384m-6.052-.769H474.3v-2.861H468.63Z" fill="#5c69a5"/>
  <path id="Path_7816" data-name="Path 7816" d="M464.615,207.437h-5.2a.385.385,0,1,1-.039-.769h5.239a.385.385,0,1,1,.039.769.252.252,0,0,1-.039,0" fill="#5c69a5"/>
  <path id="Path_7817" data-name="Path 7817" d="M439.107,232.217v54.16a8.808,8.808,0,0,1-8.806,8.806H328.357a8.8,8.8,0,0,1-8.806-8.794V232.217a8.807,8.807,0,0,1,8.806-8.806H430.3a8.81,8.81,0,0,1,8.806,8.806" fill="#b9b2c1"/>
  <rect id="Rectangle_1446" data-name="Rectangle 1446" width="119.553" height="0.598" transform="translate(319.551 235.07)" fill="#e0dfe5"/>
  <path id="Path_7818" data-name="Path 7818" d="M439.107,247.432v.6H319.748a.291.291,0,0,1-.2-.078v-.442a.291.291,0,0,1,.2-.078Z" fill="#e0dfe5"/>
  <path id="Path_7819" data-name="Path 7819" d="M439.107,259.067v.562a.285.285,0,0,1-.1.018H319.551v-.6H439.007a.285.285,0,0,1,.1.018" fill="#e0dfe5"/>
  <path id="Path_7820" data-name="Path 7820" d="M439.107,271.407v.6H319.647a.246.246,0,0,1-.1-.018v-.562a.246.246,0,0,1,.1-.018Z" fill="#e0dfe5"/>
  <path id="Path_7821" data-name="Path 7821" d="M439.107,283.777v.558a.285.285,0,0,1-.1.018H319.551v-.6H439.007a.285.285,0,0,1,.1.018" fill="#e0dfe5"/>
  <rect id="Rectangle_1447" data-name="Rectangle 1447" width="0.598" height="71.772" transform="translate(331.448 223.411)" fill="#e0dfe5"/>
  <rect id="Rectangle_1448" data-name="Rectangle 1448" width="0.598" height="71.772" transform="translate(343.801 223.411)" fill="#e0dfe5"/>
  <rect id="Rectangle_1449" data-name="Rectangle 1449" width="0.598" height="71.772" transform="translate(355.429 223.411)" fill="#e0dfe5"/>
  <rect id="Rectangle_1450" data-name="Rectangle 1450" width="0.598" height="71.772" transform="translate(367.78 223.411)" fill="#e0dfe5"/>
  <rect id="Rectangle_1451" data-name="Rectangle 1451" width="0.598" height="71.772" transform="translate(380.138 223.411)" fill="#e0dfe5"/>
  <rect id="Rectangle_1452" data-name="Rectangle 1452" width="0.598" height="71.772" transform="translate(392.161 223.411)" fill="#e0dfe5"/>
  <rect id="Rectangle_1453" data-name="Rectangle 1453" width="0.598" height="71.772" transform="translate(404.518 223.411)" fill="#e0dfe5"/>
  <rect id="Rectangle_1454" data-name="Rectangle 1454" width="0.598" height="71.772" transform="translate(416.141 223.411)" fill="#e0dfe5"/>
  <rect id="Rectangle_1455" data-name="Rectangle 1455" width="0.598" height="71.772" transform="translate(428.498 223.411)" fill="#e0dfe5"/>
  <path id="Path_7822" data-name="Path 7822" d="M462.707,317.93h-88.72a1.907,1.907,0,0,1-1.907-1.907V265.448a1.907,1.907,0,0,1,1.907-1.907h88.72a1.907,1.907,0,0,1,1.907,1.907v50.576a1.907,1.907,0,0,1-1.907,1.907" fill="#c7bfce"/>
  <rect id="Rectangle_1456" data-name="Rectangle 1456" width="5.443" height="14.939" transform="translate(390.333 293.476)" fill="#e0dfe5"/>
  <rect id="Rectangle_1457" data-name="Rectangle 1457" width="5.443" height="14.939" transform="translate(440.122 293.476)" fill="#e0dfe5"/>
  <rect id="Rectangle_1458" data-name="Rectangle 1458" width="5.443" height="22.576" transform="translate(402.78 285.785)" fill="#e0dfe5"/>
  <rect id="Rectangle_1459" data-name="Rectangle 1459" width="5.443" height="29.074" transform="translate(415.227 279.288)" fill="#e0dfe5"/>
  <rect id="Rectangle_1460" data-name="Rectangle 1460" width="5.443" height="35.492" transform="translate(427.674 272.99)" fill="#e0dfe5"/>
  <path id="Path_7823" data-name="Path 7823" d="M346.691,247.726a2.891,2.891,0,1,1-2.891-2.891,2.891,2.891,0,0,1,2.891,2.891Z" fill="#f7b369"/>
  <path id="Path_7824" data-name="Path 7824" d="M358.618,272.005a2.891,2.891,0,1,1-2.891-2.891,2.891,2.891,0,0,1,2.891,2.891Z" fill="#5c69a5"/>
  <path id="Path_7825" data-name="Path 7825" d="M407.708,248.025a2.891,2.891,0,1,1-2.891-2.891,2.891,2.891,0,0,1,2.891,2.891Z" fill="#92b4ea"/>
  <path id="Path_7826" data-name="Path 7826" d="M482.53,180.965H386.488a9.93,9.93,0,0,1-9.931-9.929h0V27.444a9.931,9.931,0,0,1,9.931-9.931H482.53a9.931,9.931,0,0,1,9.931,9.931V171.035a9.931,9.931,0,0,1-9.931,9.931" fill="#fcd3d1"/>
  <path id="Path_7827" data-name="Path 7827" d="M479.682,148H390.495a.385.385,0,1,1,0-.77h89.187a.385.385,0,0,1,0,.77" fill="#5c69a5"/>
  <path id="Path_7828" data-name="Path 7828" d="M456.191,160.126h-65.7a.385.385,0,1,1,0-.77h65.7a.385.385,0,0,1,0,.77" fill="#5c69a5"/>
  <path id="Path_7829" data-name="Path 7829" d="M434.249,116.78l3.389,6.867,7.578,1.1-5.483,5.346,1.294,7.547-6.778-3.564-6.778,3.564,1.294-7.547-5.484-5.346,7.579-1.1Z" fill="#ffac5a"/>
  <path id="Path_7830" data-name="Path 7830" d="M412.153,121.879l3.763,4.5,5.843-.547L418.64,130.8l2.326,5.388-5.691-1.431-4.4,3.877-.4-5.855-5.049-2.991,5.446-2.188Z" fill="#ffac5a"/>
  <path id="Path_7831" data-name="Path 7831" d="M456.084,121.879l-3.763,4.5-5.843-.547L449.6,130.8l-2.326,5.388,5.692-1.431,4.4,3.877.4-5.855,5.049-2.991-5.446-2.188Z" fill="#ffac5a"/>
  <path id="Path_7832" data-name="Path 7832" d="M475.375,72.38a41.084,41.084,0,0,1-41.048,41.12h-.072c-.318,0-.644,0-.97-.009a41.122,41.122,0,1,1,42.09-41.111" fill="#fff"/>
  <path id="Path_7833" data-name="Path 7833" d="M457.7,106.162a40.842,40.842,0,0,1-23.444,7.338c-.318,0-.644,0-.971-.008a41.1,41.1,0,0,1-29.354-13.34c2.894-6.271,9.606-18.1,20.1-20.939.123-.035.247-.062.362-.1,12.146-3.069,28.622-.2,31.9,2.258,1.349,1.112,1.588,12.146,1.4,24.786" fill="#f7b369"/>
  <path id="Path_7834" data-name="Path 7834" d="M426.869,57.2S420.034,48.749,422.9,45.4s7.3,0,7.3,0a3.912,3.912,0,0,1,4.182-3.624,3.767,3.767,0,0,1,.485.065c4.422.409,7.086,5.121,7.086,5.121s3.89-3.892,6.554,0,.82,10.243.82,10.243,3.073-.455,2.253,3.153-5.653,7.327-5.653,7.327Z"/>
  <path id="Path_7835" data-name="Path 7835" d="M441.833,70.509l.129,9.532s-1.682,2.764-7.252,3.292c-4.149.394-5.621-.525-5.621-.525l.514-4.835.507-4.716,10.04-2.35Z" fill="#f48462"/>
  <path id="Path_7836" data-name="Path 7836" d="M440.145,70.9a3.129,3.129,0,0,1-.264.923c-2.069,4.791-7.886,5.9-10.283,6.143l.508-4.716Z"/>
  <path id="Path_7837" data-name="Path 7837" d="M427.686,51.558s-4.841,12.019-2.779,18.632,8.1,5.387,11.7,3.993a12.039,12.039,0,0,0,5.22-3.672,5.126,5.126,0,0,0,5.608-2.17c2.179-3.223.676-6.808-1.287-7.583s-4.227.692-4.227.692l1.706-3.5s-8.11-17.308-15.944-6.391" fill="#f48462"/>
  <path id="Path_7838" data-name="Path 7838" d="M442.342,66.652a.441.441,0,0,1-.262-.8l3.591-2.657a.441.441,0,0,1,.525.709l-3.591,2.657a.443.443,0,0,1-.262.087"/>
  <path id="Path_7839" data-name="Path 7839" d="M446.254,66.547a.421.421,0,0,1-.1-.012l-2.838-.69a.441.441,0,1,1,.208-.858l2.837.69a.441.441,0,0,1-.1.87"/>
  <path id="Path_7840" data-name="Path 7840" d="M435.42,57.147a.441.441,0,0,1-.415-.293,2.135,2.135,0,0,0-2.344-1.552.441.441,0,0,1-.156-.868,3.005,3.005,0,0,1,3.331,2.123.439.439,0,0,1-.415.589"/>
  <path id="Path_7841" data-name="Path 7841" d="M426.483,56.217a.441.441,0,0,1-.286-.777c.423-.359,1.549-1.317,2.057-.737a.441.441,0,0,1-.457.713,3.485,3.485,0,0,0-1.027.7.445.445,0,0,1-.286.1"/>
  <path id="Path_7842" data-name="Path 7842" d="M428.209,65.262a.44.44,0,0,1-.35-.173c-1.547-2.03,1.428-5.239,1.556-5.375a.441.441,0,0,1,.643.6c-.726.774-2.409,3.043-1.5,4.236a.44.44,0,0,1-.35.708"/>
  <path id="Path_7843" data-name="Path 7843" d="M427.432,61.007a.442.442,0,0,1-.442-.442.37.37,0,0,1,0-.058l.321-2.244a.449.449,0,0,1,.5-.374.443.443,0,0,1,.374.5l-.321,2.244a.44.44,0,0,1-.436.378"/>
  <path id="Path_7844" data-name="Path 7844" d="M434,61.017a.446.446,0,0,1-.441-.451v-.018l.143-2.262a.431.431,0,0,1,.448-.413h.02a.442.442,0,0,1,.412.468l-.143,2.262a.441.441,0,0,1-.44.413"/>
  <path id="Path_7845" data-name="Path 7845" d="M426.719,54.265a4.022,4.022,0,0,1,3.386-1.978,5.141,5.141,0,0,1,3.789,1.607s-.989,4.019,2.273,6.1,5.756,1.455,5.756,1.455l2.334-.867,1.674-3.45-6.882-7.216L430.206,45.4l-4.422,4.117Z"/>
  <path id="Path_7846" data-name="Path 7846" d="M430.776,69.029a1.154,1.154,0,0,1-.189-.006.441.441,0,0,1-.4-.474.452.452,0,0,1,.473-.4,2.789,2.789,0,0,0,2.679-1.554.441.441,0,0,1,.8.363,3.61,3.61,0,0,1-3.364,2.076"/>
  <path id="Path_7847" data-name="Path 7847" d="M468.945,94.466a41.34,41.34,0,0,1-18.964,15.922L456.3,81.377a54.83,54.83,0,0,1,12.649,13.089" fill="#f7b369"/>
  <path id="Path_7848" data-name="Path 7848" d="M433.3,83.769a21.711,21.711,0,0,1-5.482-.7.385.385,0,0,1,.212-.74,21.449,21.449,0,0,0,6.648.619c4.068-.3,7.933-3.186,7.971-3.216a.385.385,0,0,1,.463.614,18.2,18.2,0,0,1-8.377,3.369c-.491.037-.971.052-1.436.052" fill="#fff"/>
  <path id="Path_7849" data-name="Path 7849" d="M332.932,180.85H236.89a9.931,9.931,0,0,1-9.931-9.931V27.329A9.931,9.931,0,0,1,236.89,17.4h96.042a9.931,9.931,0,0,1,9.931,9.931V170.92a9.931,9.931,0,0,1-9.931,9.931" fill="#fcd3d1"/>
  <path id="Path_7850" data-name="Path 7850" d="M330.083,147.885H242.057a.385.385,0,1,1,0-.77h88.027a.385.385,0,0,1,0,.77" fill="#5c69a5"/>
  <path id="Path_7851" data-name="Path 7851" d="M306.592,160.012h-65.7a.385.385,0,0,1,0-.77h65.7a.385.385,0,0,1,0,.77" fill="#5c69a5"/>
  <path id="Path_7852" data-name="Path 7852" d="M284.651,116.665l3.389,6.867,7.579,1.1-5.484,5.346,1.294,7.547-6.778-3.564-6.778,3.564,1.294-7.547-5.483-5.346,7.578-1.1Z" fill="#ffac5a"/>
  <path id="Path_7853" data-name="Path 7853" d="M262.553,121.767l3.763,4.5,5.843-.547-3.119,4.971,2.326,5.388-5.692-1.431-4.406,3.877-.4-5.855-5.049-2.991,5.446-2.188Z" fill="#ffac5a"/>
  <path id="Path_7854" data-name="Path 7854" d="M306.482,121.767l-3.763,4.5-5.843-.547,3.119,4.971-2.326,5.388,5.691-1.431,4.406,3.877.4-5.855,5.049-2.991-5.446-2.188Z" fill="#ffac5a"/>
  <path id="Path_7855" data-name="Path 7855" d="M325.771,70.992a40.813,40.813,0,0,1-7.232,23.287,39.428,39.428,0,0,1-3.845,4.789c-.088.106-.176.2-.273.3l-.106.105c-.088.1-.185.194-.273.282a41.074,41.074,0,0,1-7.6,6.112c-.106.062-.2.124-.291.177-.141.088-.291.176-.433.264-.185.114-.379.229-.573.335-.264.15-.529.3-.8.45s-.521.282-.785.415a3.384,3.384,0,0,1-.353.185c-.3.159-.6.3-.9.442a1.58,1.58,0,0,1-.247.114c-.38.185-.758.353-1.147.521-.353.158-.714.309-1.076.45-.106.044-.211.088-.326.123-.3.123-.6.238-.9.335-.115.044-.229.088-.344.123-.2.079-.406.15-.617.211-.309.106-.617.2-.926.3-.4.123-.8.238-1.208.353-.07.017-.141.035-.2.053q-.582.157-1.164.291c-1.252.3-2.531.538-3.819.715-.459.061-.926.123-1.393.167s-.944.088-1.42.123c-.344.027-.688.044-1.032.053-.609.026-1.217.044-1.826.044a42.877,42.877,0,0,1-4.657-.256c-.212-.018-.415-.044-.618-.071a41.258,41.258,0,0,1-5.751-1.173,40.349,40.349,0,0,1-6.3-2.32c-.309-.141-.617-.291-.926-.441a39.566,39.566,0,0,1-5.645-3.4,41.226,41.226,0,0,1-9.562-9.57c-.053-.079-.114-.158-.167-.238-.282-.4-.556-.793-.82-1.208a38.166,38.166,0,0,1-2.17-3.722A41.122,41.122,0,1,1,325.78,70.986" fill="#fff"/>
  <path id="Path_7856" data-name="Path 7856" d="M275.792,52.218s-14.02,5.362-14.735,21.23c-1.033,22.936,26.453,17.618,26.453,17.618s15.568,1.615,19.874-9.861-9.535-18.4-9.535-18.4-16.783-14.783-22.057-10.587"/>
  <path id="Path_7857" data-name="Path 7857" d="M318.539,94.278a39.438,39.438,0,0,1-3.845,4.79c-.088.1-.177.2-.273.3l-.106.106c-.088.1-.185.194-.273.282a41.047,41.047,0,0,1-7.6,6.113c-.1.061-.2.123-.291.176-.141.088-.291.176-.433.264-.185.115-.379.229-.573.335q-.4.225-.8.45c-.27.15-.521.282-.785.415a3.587,3.587,0,0,1-.353.185c-.3.158-.6.3-.9.441a1.58,1.58,0,0,1-.247.114c-.38.185-.758.353-1.147.521-.353.159-.714.309-1.076.45-.106.044-.212.088-.326.123-.3.124-.6.238-.9.335-.115.044-.229.088-.344.123-.2.08-.406.15-.617.212-.309.1-.617.2-.926.3-.4.123-.8.238-1.208.353l-.2.053q-.582.159-1.164.291c-1.252.3-2.531.538-3.819.714-.459.062-.926.123-1.393.167s-.944.088-1.42.124q-.516.039-1.032.052c-.609.027-1.218.044-1.826.044a42.9,42.9,0,0,1-4.658-.256c-.211-.018-.415-.044-.617-.07a41.292,41.292,0,0,1-5.751-1.174,40.349,40.349,0,0,1-6.3-2.32c-.309-.14-.617-.291-.926-.441a39.5,39.5,0,0,1-5.644-3.4,41.211,41.211,0,0,1-9.562-9.571c-.053-.079-.114-.158-.167-.238,5.115-8.088,17.579-18.39,31.33-20.543a.47.47,0,0,0,.106-.018,30.868,30.868,0,0,1,3.325-.309c15.6-.573,27.881,11.237,32.75,20.5" fill="#68b6d8"/>
  <path id="Path_7858" data-name="Path 7858" d="M305.715,106.312a40.868,40.868,0,0,1-21.063,5.8,42.9,42.9,0,0,1-4.658-.256c-.211-.018-.415-.044-.617-.071a41.287,41.287,0,0,1-5.751-1.173,40.348,40.348,0,0,1-6.3-2.32c-.309-.141-.618-.291-.926-.441a39.658,39.658,0,0,1-5.645-3.4c-.078-6.06-.123-10.841-.123-10.841L276.3,81.985l7.692-5.706c.1,0,.193,0,.291.009A32.475,32.475,0,0,1,294.9,78.281c.451.176.882.344,1.3.52a24.078,24.078,0,0,1,6.025,3.52s1.835,12.154,3.493,23.982" fill="#68b6d8"/>
  <path id="Path_7859" data-name="Path 7859" d="M294.435,78.343s-1.314,1.05-5.142.891c-5.142-.211-6.791-3-6.791-3l-.256-9.862v-.1l1.561.309,9.8,1.826.38,4.516Z" fill="#f48462"/>
  <path id="Path_7860" data-name="Path 7860" d="M293.98,72.928c-2.628-.238-9.429-1.826-11.572-6.156-.062-.141-.124-.273-.168-.4a2.05,2.05,0,0,1-.132-.485L293.6,68.41Z"/>
  <path id="Path_7861" data-name="Path 7861" d="M294.881,47.267s5.286,11.41,3.612,17.918-7.589,5.62-11.143,4.446a11.689,11.689,0,0,1-5.239-3.3A4.974,4.974,0,0,1,276.57,64.5c-2.27-3.015-.991-6.563.873-7.411s4.13.462,4.13.462l-1.827-3.309s7.006-17.171,15.135-6.979" fill="#f48462"/>
  <path id="Path_7862" data-name="Path 7862" d="M296.587,52.008h-.065l-2.256-.335a.441.441,0,0,1,.105-.876l.025,0,2.256.335a.441.441,0,0,1-.064.877"/>
  <path id="Path_7863" data-name="Path 7863" d="M288.177,52.939a.441.441,0,0,1-.17-.847l2.617-1.1a.441.441,0,0,1,.341.813l-2.618,1.1a.452.452,0,0,1-.17.034"/>
  <path id="Path_7864" data-name="Path 7864" d="M294.812,61.363a.449.449,0,0,1-.44-.459v-.027c.361-3.561-1.114-5.353-1.129-5.37a.441.441,0,1,1,.669-.575c.072.083,1.739,2.07,1.337,6.034a.443.443,0,0,1-.439.4"/>
  <path id="Path_7865" data-name="Path 7865" d="M291.214,65.218a1.95,1.95,0,0,1-.542-.077,2.517,2.517,0,0,1-1.628-2.158.446.446,0,0,1,.155-.375.437.437,0,0,1,.4-.09l3.42.886a.441.441,0,0,1,.316.538.429.429,0,0,1-.075.155,2.89,2.89,0,0,1-2.04,1.121m-1.1-1.655a1.287,1.287,0,0,0,.8.73,1.321,1.321,0,0,0,1.1-.238Z"/>
  <path id="Path_7866" data-name="Path 7866" d="M281.589,62.313a.439.439,0,0,1-.182-.04l-4.644-2.111a.441.441,0,0,1,.365-.8l4.644,2.111a.441.441,0,0,1-.182.843"/>
  <path id="Path_7867" data-name="Path 7867" d="M277.451,63.386a.441.441,0,0,1-.31-.755l2.048-2.023a.441.441,0,1,1,.648.6l-.029.029-2.047,2.023a.439.439,0,0,1-.31.128"/>
  <path id="Path_7868" data-name="Path 7868" d="M288.173,47.94a8.816,8.816,0,0,1,5.4,1.266c2.76,1.668,3.327,3.293,3.327,3.293a7.847,7.847,0,0,0-2.034-8.106c-3.741-3.8-10.918-4.853-15.056-.358s-3.884,8.464-3.884,8.464l5.647,5.055s8.714-1.677,6.6-9.615"/>
  <path id="Path_7869" data-name="Path 7869" d="M278.808,45.964s-5.323-10.109-10.719-5.837.613,12.894,5.972,13.524,4.746-7.686,4.746-7.686"/>
  <path id="Path_7870" data-name="Path 7870" d="M279.994,111.861c-.211-.018-.415-.044-.617-.07a41.289,41.289,0,0,1-5.751-1.174L276.3,82l.088-.908,5.972-6.977.07-.079s.009.017.036.061a12.32,12.32,0,0,0,1.817,2.2,9.191,9.191,0,0,0,10.6,2c.82-.353,1.226-.141,1.314.511.459,3.6-9.05,20.755-16.2,33.05" fill="#68b6d8"/>
  <path id="Path_7871" data-name="Path 7871" d="M306.147,106.048c-.141.088-.291.176-.432.264-.185.115-.38.229-.574.335,1.914-9.993-2-15.718-2.046-15.78a.479.479,0,0,1,.088-.644.433.433,0,0,1,.6.082l.013.018c.176.247,4,5.8,2.346,15.727" fill="#fff"/>
  <path id="Path_7872" data-name="Path 7872" d="M290.779,79.561c-5.721,0-8.65-5.279-8.685-5.344a.385.385,0,0,1,.665-.388l.012.022c.164.3,4.1,7.35,11.969,4.09a.385.385,0,0,1,.294.711,11.048,11.048,0,0,1-4.255.909" fill="#fff"/>
  <path id="Path_7873" data-name="Path 7873" d="M282.31,65.887a1.228,1.228,0,1,1-1.229-1.227h0a1.227,1.227,0,0,1,1.228,1.226Z" fill="#5c69a5"/>
  <path id="Path_7874" data-name="Path 7874" d="M289.484,57.687a.44.44,0,0,1-.441-.441V55.221a.444.444,0,0,1,.127-.31l.9-.91a.441.441,0,1,1,.628.62l-.77.78v1.847a.44.44,0,0,1-.441.441"/>
  <path id="Path_7875" data-name="Path 7875" d="M296.138,57.687a.44.44,0,0,1-.441-.441V55.221a.444.444,0,0,1,.127-.31l.9-.91a.441.441,0,1,1,.628.62l-.77.78v1.847a.44.44,0,0,1-.441.441"/>
  <path id="Path_7876" data-name="Path 7876" d="M490.492,297.746a32.535,32.535,0,0,1-1.871-43.629,30.4,30.4,0,0,1,2.173-2.394,32.367,32.367,0,0,1,21.9-9.351,29.44,29.44,0,0,1,3,.061,3.478,3.478,0,0,1,.421.013c.386.025.786.069,1.187.114.667.074,1.332.164,1.978.286.646.105,1.273.242,1.9.378.082.026.149.034.23.06q.764.185,1.523.421a.135.135,0,0,1,.082.025c.294.084.587.183.88.283a.911.911,0,0,1,.358.124c.7.229,1.4.509,2.089.8.436.183.855.365,1.288.564a7.132,7.132,0,0,1,.8.392c.256.13.528.261.782.407.51.276,1.018.568,1.507.876q.876.552,1.747,1.155a32.134,32.134,0,0,1,4.354,3.688,32.551,32.551,0,0,1,6.217,36.834,32.133,32.133,0,0,1-6.518,9.193,32.553,32.553,0,0,1-46.024-.3" fill="#f7b369"/>
  <path id="Path_7877" data-name="Path 7877" d="M543.038,288.868l-29.385-13.98,5.99-25.153,6.7-4.8a31.241,31.241,0,0,1,6.113,3.4,31.759,31.759,0,0,1,4.355,3.7,32.545,32.545,0,0,1,6.227,36.838" fill="#a37b90"/>
  <path id="Path_7878" data-name="Path 7878" d="M513.647,274.878l-25.026-20.759a30.4,30.4,0,0,1,2.173-2.394,32.365,32.365,0,0,1,21.9-9.351,29.157,29.157,0,0,1,3,.061Z" fill="#40507f"/>
  <path id="Path_7879" data-name="Path 7879" d="M513.647,274.878l-.954-32.5a29.153,29.153,0,0,1,3,.061,3.478,3.478,0,0,1,.421.013c.385.025.786.07,1.186.114.667.073,1.332.164,1.978.286.646.1,1.273.241,1.9.378.082.026.149.033.23.059q.763.186,1.523.421a.111.111,0,0,1,.082.026c.294.083.587.183.88.283a.893.893,0,0,1,.358.123,28.553,28.553,0,0,1,3.378,1.369,7.137,7.137,0,0,1,.8.392c.256.129.528.261.782.407.51.276,1.018.568,1.507.875q.876.552,1.747,1.155Z" fill="#92b4ea"/>
  <path id="Path_7880" data-name="Path 7880" d="M514.255,162.028S493.8,136.187,492.52,137.91s18.47,25.776,18.47,25.776Z" fill="#5c69a5"/>
  <path id="Path_7881" data-name="Path 7881" d="M530,176.758s-7.458.121-10.741-2.8,3.6-9.661,3.6-9.661L530,169.144Z" fill="#f48462"/>
  <path id="Path_7882" data-name="Path 7882" d="M530,176.758s-7.458.121-10.741-2.8,3.6-9.661,3.6-9.661L530,169.144Z" fill="none" stroke="#000" stroke-width="2"/>
  <path id="Path_7883" data-name="Path 7883" d="M519.836,160.8a6.809,6.809,0,0,0-3.039-1.106c-3.666-.48-14.176-.007-15.465,3.684-1.236,3.538,4.611,3.455,4.611,3.455s-4.7,1.008-2.915,3.975c1.487,2.477,4.55,1.969,4.55,1.969s-4.785,1.516-1.3,4.364,14.271,1.429,17.567-.4-1.338-5-1.338-5,3.294-2.439,2.267-4.431c-1.087-2.11-4.328-1.455-4.328-1.455s2.61-2.807-.613-5.061" fill="#f48462"/>
  <path id="Path_7884" data-name="Path 7884" d="M519.836,160.8a6.809,6.809,0,0,0-3.039-1.106c-3.666-.48-14.176-.007-15.465,3.684-1.236,3.538,4.611,3.455,4.611,3.455s-4.7,1.008-2.915,3.975c1.487,2.477,4.55,1.969,4.55,1.969s-4.785,1.516-1.3,4.364,14.271,1.429,17.567-.4-1.338-5-1.338-5,3.294-2.439,2.267-4.431c-1.087-2.11-4.328-1.455-4.328-1.455S523.059,163.051,519.836,160.8Z" fill="none" stroke="#000" stroke-width="2"/>
  <path id="Path_7885" data-name="Path 7885" d="M532.751,159.417s-13.391-6.544-15.889-6.17-11.818,8.274-9.538,10.443,9.538-3.426,9.538-3.426,7.447,12.5,12.334,11.088,3.555-11.934,3.555-11.934" fill="#f48462"/>
  <path id="Path_7886" data-name="Path 7886" d="M532.751,159.417s-13.391-6.544-15.889-6.17-11.818,8.274-9.538,10.443,9.538-3.426,9.538-3.426,7.447,12.5,12.334,11.088S532.751,159.417,532.751,159.417Z" fill="none" stroke="#000" stroke-width="2"/>
  <path id="Path_7887" data-name="Path 7887" d="M505.943,167.213a.382.382,0,1,1-.02-.764l13.321-.687a.364.364,0,0,1,.4.326c0,.012,0,.024,0,.036a.381.381,0,0,1-.361.4l-13.321.686h-.02"/>
  <path id="Path_7888" data-name="Path 7888" d="M507.576,173.157a.383.383,0,0,1-.025-.764l13.357-.852a.374.374,0,0,1,.4.34v.017a.383.383,0,0,1-.357.406l-13.357.852h-.025"/>
  <path id="Path_7889" data-name="Path 7889" d="M526.761,171.841a.357.357,0,0,1-.108-.016,15.789,15.789,0,0,1-10.169-11.485.383.383,0,1,1,.749-.161,15,15,0,0,0,9.636,10.912.383.383,0,0,1-.108.75"/>
  <path id="Path_7890" data-name="Path 7890" d="M569.786,340.32v13.262l-24.1-.936V340.32Z" fill="#f7b369"/>
  <path id="Path_7891" data-name="Path 7891" d="M569.786,340.32v13.262l-24.1-.936V340.32Z" fill="none" stroke="#000" stroke-width="2"/>
  <path id="Path_7892" data-name="Path 7892" d="M625.432,338.827v13.262l-22.31-.936V338.827Z" fill="#f7b369"/>
  <path id="Path_7893" data-name="Path 7893" d="M625.432,338.827v13.262l-22.31-.936V338.827Z" fill="none" stroke="#000" stroke-width="2"/>
  <path id="Path_7894" data-name="Path 7894" d="M574.255,194.457s-14.667,26.716-24.975,72.4a526.232,526.232,0,0,0-11.426,76.127h40.665s4.524-33.972,5.729-47.414,5.214-31.435,5.214-31.435,5.58,77.536,6.911,78.849,40.258.29,39.841-1.491-14.78-131.326-15.834-139.8c-3.24-26.061-46.125-7.228-46.125-7.228" fill="#a62973"/>
  <path id="Path_7895" data-name="Path 7895" d="M574.255,194.457s-14.667,26.716-24.975,72.4a526.232,526.232,0,0,0-11.426,76.127h40.665s4.524-33.972,5.729-47.414,5.214-31.435,5.214-31.435,5.58,77.536,6.911,78.849,40.258.29,39.841-1.491-14.78-131.326-15.834-139.8C617.139,175.624,574.255,194.457,574.255,194.457Z" fill="none" stroke="#000" stroke-width="2"/>
  <path id="Path_7896" data-name="Path 7896" d="M597.588,371.712c0,2.34.759,5.018,2.314,5.691s14.135,2.078,25.143,1.086c10.538-.955,12.725-1.76,13.5-2.752.38-.506-.362-2.846-1.211-5.111-.054-.113-.09-.244-.145-.356-.433-1.142-.885-2.247-1.211-3.033a13.146,13.146,0,0,0-1.193-2.153,37.889,37.889,0,0,1-3.976-6.74c-.759-2.322-1.916-7.34-2.693-9.7a4.216,4.216,0,0,0-2.675-2.808s-21.672-1.535-23.227-.188c-1.536,1.329-2.313,12.376-2.313,14.042v1.667c0,1.554-1.03,4.625-1.7,7.171-.181.637-.326,1.236-.434,1.778a7.505,7.505,0,0,0-.181,1.4" fill="#672376"/>
  <path id="Path_7897" data-name="Path 7897" d="M597.588,371.712c0,2.34.759,5.018,2.314,5.691s14.135,2.078,25.143,1.086c10.538-.955,12.725-1.76,13.5-2.752.38-.506-.362-2.846-1.211-5.111-.054-.113-.09-.244-.145-.356-.433-1.142-.885-2.247-1.211-3.033a13.146,13.146,0,0,0-1.193-2.153,37.889,37.889,0,0,1-3.976-6.74c-.759-2.322-1.916-7.34-2.693-9.7a4.216,4.216,0,0,0-2.675-2.808s-21.672-1.535-23.227-.188c-1.536,1.329-2.313,12.376-2.313,14.042v1.667c0,1.554-1.03,4.625-1.7,7.171-.181.637-.326,1.236-.434,1.778A7.485,7.485,0,0,0,597.588,371.712Z" fill="none" stroke="#000" stroke-width="2"/>
  <path id="Path_7898" data-name="Path 7898" d="M508.529,376.487c1.375.618,59.844,2.359,61.2,0,.412-.711.7-3.127.894-6.16.478-7.152.478-17.785.478-17.785a46.1,46.1,0,0,0,.344-5.317c-.069-1.666-28.2-1.03-28.2-1.03L524.964,361.9a32.173,32.173,0,0,0-10.5,0c-2.9.506-4.776,4.381-5.7,8.032-.825,3.239-.894,6.253-.241,6.553" fill="#672376"/>
  <path id="Path_7899" data-name="Path 7899" d="M508.529,376.487c1.375.618,59.844,2.359,61.2,0,.412-.711.7-3.127.894-6.16.478-7.152.478-17.785.478-17.785a46.1,46.1,0,0,0,.344-5.317c-.069-1.666-28.2-1.03-28.2-1.03L524.964,361.9a32.173,32.173,0,0,0-10.5,0c-2.9.506-4.776,4.381-5.7,8.032C507.945,373.172,507.876,376.187,508.529,376.487Z" fill="none" stroke="#000" stroke-width="2"/>
  <path id="Path_7900" data-name="Path 7900" d="M589.461,264.514a.384.384,0,0,1-.382-.354c-.013-.167-1.281-16.871-1.649-24.279-.316-6.324-.374-9.839-.383-10.758l-12.954-5.973a.383.383,0,0,1,.3-.706l.024.011,13.175,6.074a.385.385,0,0,1,.222.347c0,.035.015,3.575.383,10.965s1.637,24.093,1.65,24.261a.383.383,0,0,1-.353.41h-.028"/>
  <path id="Path_7901" data-name="Path 7901" d="M589.461,264.514a.384.384,0,0,1-.382-.354c-.013-.167-1.281-16.871-1.649-24.279-.316-6.324-.374-9.839-.383-10.758l-12.954-5.973a.383.383,0,0,1,.3-.706l.024.011,13.175,6.074a.385.385,0,0,1,.222.347c0,.035.015,3.575.383,10.965s1.637,24.093,1.65,24.261a.383.383,0,0,1-.353.41Z" fill="none" stroke="#000" stroke-width="1"/>
  <path id="Path_7902" data-name="Path 7902" d="M624.883,357.348a.376.376,0,0,1-.1-.013c-.084-.024-8.55-2.354-12.8-1.6l-4.389.78a.383.383,0,0,1-.32-.663c.322-.284,7.928-6.941,12.492-4.919a.383.383,0,1,1-.31.7c-3.148-1.393-8.278,2.121-10.543,3.872l2.937-.521c4.427-.79,12.786,1.514,13.14,1.612a.383.383,0,0,1-.1.752"/>
  <path id="Path_7903" data-name="Path 7903" d="M624.883,357.348a.376.376,0,0,1-.1-.013c-.084-.024-8.55-2.354-12.8-1.6l-4.389.78a.383.383,0,0,1-.32-.663c.322-.284,7.928-6.941,12.492-4.919a.383.383,0,1,1-.31.7c-3.148-1.393-8.278,2.121-10.543,3.872l2.937-.521c4.427-.79,12.786,1.514,13.14,1.612a.383.383,0,0,1-.1.752Z" fill="none" stroke="#000" stroke-width="1"/>
  <path id="Path_7904" data-name="Path 7904" d="M530.529,358.913a.382.382,0,0,1-.04-.763l10.255-1.094-3.373-4.114a.382.382,0,0,1,.591-.485l3.823,4.661a.382.382,0,0,1-.053.538.386.386,0,0,1-.2.084l-10.959,1.169h-.04"/>
  <path id="Path_7905" data-name="Path 7905" d="M530.529,358.913a.382.382,0,0,1-.04-.763l10.255-1.094-3.373-4.114a.382.382,0,0,1,.591-.485l3.823,4.661a.382.382,0,0,1-.053.538.386.386,0,0,1-.2.084l-10.959,1.169Z" fill="none" stroke="#000" stroke-width="1"/>
  <path id="Path_7906" data-name="Path 7906" d="M620.379,223.7a.382.382,0,0,1-.224-.073c-7.017-5.068-9.879-13.908-9.907-14a.383.383,0,0,1,.729-.232c.028.087,2.818,8.692,9.626,13.608a.382.382,0,0,1-.224.693"/>
  <path id="Path_7907" data-name="Path 7907" d="M620.379,223.7a.382.382,0,0,1-.224-.073c-7.017-5.068-9.879-13.908-9.907-14a.383.383,0,0,1,.729-.232c.028.087,2.818,8.692,9.626,13.608a.382.382,0,0,1-.224.693Z" fill="none" stroke="#000" stroke-width="1"/>
  <path id="Path_7908" data-name="Path 7908" d="M598.889,131.719a40.079,40.079,0,0,1,21.7,8.958c9.656,8.313,19.514,35.874,14.082,44.524s-12.345,9.255-12.345,9.255l.4,10.058-52.778.492s4.349-64.023,6.471-68.77,22.47-4.516,22.47-4.516" fill="#ee5064"/>
  <path id="Path_7909" data-name="Path 7909" d="M598.889,131.719a40.079,40.079,0,0,1,21.7,8.958c9.656,8.313,19.514,35.874,14.082,44.524s-12.345,9.255-12.345,9.255l.4,10.058-52.778.492s4.349-64.023,6.471-68.77S598.889,131.719,598.889,131.719Z" fill="none" stroke="#000" stroke-width="2"/>
  <path id="Path_7910" data-name="Path 7910" d="M584.57,102.509s-4.32,4.75-2.057,10.085,4.98-9.564,4.98-9.564Z"/>
  <path id="Path_7911" data-name="Path 7911" d="M598.567,124.32l.028,9.542s-1.712,2.749-7.294,3.219c-4.158.349-5.621-.586-5.621-.586l.566-4.834.557-4.715,10.073-2.247Z" fill="#f48462"/>
  <path id="Path_7912" data-name="Path 7912" d="M598.567,124.32l.028,9.542s-1.712,2.749-7.294,3.219c-4.158.349-5.621-.586-5.621-.586l.566-4.834.557-4.715,10.073-2.247Z" fill="none" stroke="#000" stroke-width="2"/>
  <path id="Path_7913" data-name="Path 7913" d="M596.875,124.7c-.023.261,1.52,1.1,1.367,1.455-2.121,4.773-9.807,7.08-12.209,7.3l.768-6.51Z"/>
  <path id="Path_7914" data-name="Path 7914" d="M586.375,103.012a9,9,0,0,0-2.826,4.094c-1.3,3.665-3.935,12.226-2.361,17.52,2.046,6.879,8.24,5.683,11.932,4.283a12.273,12.273,0,0,0,5.373-3.742,5.2,5.2,0,0,0,5.757-2.18c2.259-3.313.755-7.048-1.245-7.875s-4.33.665-4.33.665l1.779-3.607s-6.744-14.96-14.079-9.159" fill="#f48462"/>
  <path id="Path_7915" data-name="Path 7915" d="M586.375,103.012a9,9,0,0,0-2.826,4.094c-1.3,3.665-3.935,12.226-2.361,17.52,2.046,6.879,8.24,5.683,11.932,4.283a12.273,12.273,0,0,0,5.373-3.742,5.2,5.2,0,0,0,5.757-2.18c2.259-3.313.755-7.048-1.245-7.875s-4.33.665-4.33.665l1.779-3.607S593.71,97.21,586.375,103.012Z" fill="none" stroke="#000" stroke-width="2"/>
  <path id="Path_7916" data-name="Path 7916" d="M599.124,120.407a.383.383,0,0,1-.224-.693l4.29-3.1a.382.382,0,0,1,.448.619l-4.29,3.1a.383.383,0,0,1-.224.072"/>
  <path id="Path_7917" data-name="Path 7917" d="M603.041,120.342a.381.381,0,0,1-.1-.012l-2.833-.72a.383.383,0,0,1,.189-.742l2.834.721a.383.383,0,0,1-.095.753"/>
  <path id="Path_7918" data-name="Path 7918" d="M584.994,118.863a.382.382,0,0,1-.344-.215c-1.364-2.825.7-5.75.787-5.873a.383.383,0,0,1,.622.446c-.019.027-1.884,2.683-.72,5.094a.381.381,0,0,1-.344.548"/>
  <path id="Path_7919" data-name="Path 7919" d="M583.416,114.071a.376.376,0,0,1-.1-.013.383.383,0,0,1-.27-.468l.592-2.191a.379.379,0,0,1,.462-.272l.007,0a.383.383,0,0,1,.27.468l-.592,2.191a.382.382,0,0,1-.369.283"/>
  <path id="Path_7920" data-name="Path 7920" d="M583.4,142.375l-1.465,64.169H567.664l1.689-28.059a138.564,138.564,0,0,1-22.973,2.084c-12.817.1-18.064-1.216-18.064-1.216l2.213-22.494s15.646-.781,28.668-8.68,17.866-16.032,26.1-15.835-1.907,10.026-1.907,10.026" fill="#ee5064"/>
  <path id="Path_7921" data-name="Path 7921" d="M583.4,142.375l-1.465,64.169H567.664l1.689-28.059a138.564,138.564,0,0,1-22.973,2.084c-12.817.1-18.064-1.216-18.064-1.216l2.213-22.494s15.646-.781,28.668-8.68,17.866-16.032,26.1-15.835S583.4,142.375,583.4,142.375Z" fill="none" stroke="#000" stroke-width="2"/>
  <path id="Path_7922" data-name="Path 7922" d="M589.456,114.477a.376.376,0,0,1-.1-.013.383.383,0,0,1-.27-.468l.592-2.191a.378.378,0,0,1,.46-.272l.009,0a.383.383,0,0,1,.27.468l-.592,2.191a.382.382,0,0,1-.369.283"/>
  <path id="Path_7923" data-name="Path 7923" d="M583.417,109.772a.382.382,0,0,1-.036-.763l1.812-.171a.375.375,0,0,1,.416.33v.015a.384.384,0,0,1-.344.418l-1.813.17h-.036"/>
  <path id="Path_7924" data-name="Path 7924" d="M591.328,110.838a.382.382,0,0,1-.153-.032l-2.448-1.065a.383.383,0,0,1,.306-.7l2.448,1.065a.383.383,0,0,1-.153.734"/>
  <path id="Path_7925" data-name="Path 7925" d="M598.675,115.777s-1.044,3.957-1.8,3.462-1.387-6.23-.783-8.785,1.036-3.837,1.036-3.837-10.409-1.072-13.122-3.588,3.113-4.031,9.033-2.824,8.229,3.47,8.229,3.47,3.726-.5,5.084,1.786-1.926,10.863-1.926,10.863-.907-2.176-5.751-.548"/>
  <path id="Path_7926" data-name="Path 7926" d="M587.494,122.871a.383.383,0,0,1-.214-.7l2.554-1.73a.382.382,0,0,1,.429.633l-2.554,1.731a.381.381,0,0,1-.214.066"/>
  <path id="Path_7927" data-name="Path 7927" d="M581.284,184.9a.381.381,0,0,1-.357-.246c-2.624-6.85-7-18.45-6.815-19.184.176-.705,3.321-4.474,4.634-6.023-1.577-1.3-5.364-4.513-5.545-5.414-.188-.943,5.356-11.15,7.749-15.494a.382.382,0,1,1,.682.345l-.013.023c-2.935,5.331-7.612,14.123-7.664,15.018.149.486,2.954,3.028,5.576,5.178a.383.383,0,0,1,.054.538l-.005.005a59.7,59.7,0,0,0-4.726,6.013c.038.812,4.079,11.651,6.788,18.722a.383.383,0,0,1-.221.495.391.391,0,0,1-.136.025"/>
  <path id="Path_7928" data-name="Path 7928" d="M581.284,184.9a.381.381,0,0,1-.357-.246c-2.624-6.85-7-18.45-6.815-19.184.176-.705,3.321-4.474,4.634-6.023-1.577-1.3-5.364-4.513-5.545-5.414-.188-.943,5.356-11.15,7.749-15.494a.382.382,0,1,1,.682.345l-.013.023c-2.935,5.331-7.612,14.123-7.664,15.018.149.486,2.954,3.028,5.576,5.178a.383.383,0,0,1,.054.538l-.005.005a59.7,59.7,0,0,0-4.726,6.013c.038.812,4.079,11.651,6.788,18.722a.383.383,0,0,1-.221.495.391.391,0,0,1-.136.025Z" fill="none" stroke="#000" stroke-width="1"/>
  <path id="Path_7929" data-name="Path 7929" d="M581.881,205.007h18.365l-4.619-61H582.936Z" fill="#fff"/>
  <path id="Path_7930" data-name="Path 7930" d="M581.881,205.007h18.365l-4.619-61H582.936Z" fill="none" stroke="#000" stroke-width="2"/>
  <path id="Path_7931" data-name="Path 7931" d="M595.628,152.047s4.312,54.74,4.581,54.5,23-.631,23-.631l-.755-15.961Z" fill="#ee5064"/>
  <path id="Path_7932" data-name="Path 7932" d="M595.628,152.047s4.312,54.74,4.581,54.5,23-.631,23-.631l-.755-15.961Z" fill="none" stroke="#000" stroke-width="2"/>
  <path id="Path_7933" data-name="Path 7933" d="M600.208,184.9a.4.4,0,0,1-.137-.025.384.384,0,0,1-.22-.495c2.709-7.071,6.75-17.91,6.779-18.783a68.45,68.45,0,0,0-4.717-5.952.381.381,0,0,1,.044-.538l.005-.005c2.622-2.149,5.426-4.691,5.581-5.225-.057-.849-4.734-9.64-7.669-14.971a.382.382,0,1,1,.656-.391.18.18,0,0,1,.013.023c2.393,4.344,7.937,14.552,7.749,15.494-.181.9-3.968,4.111-5.545,5.414,1.313,1.55,4.458,5.318,4.634,6.023.184.734-4.191,12.335-6.815,19.184a.381.381,0,0,1-.357.246"/>
  <path id="Path_7934" data-name="Path 7934" d="M600.208,184.9a.4.4,0,0,1-.137-.025.384.384,0,0,1-.22-.495c2.709-7.071,6.75-17.91,6.779-18.783a68.45,68.45,0,0,0-4.717-5.952.381.381,0,0,1,.044-.538l.005-.005c2.622-2.149,5.426-4.691,5.581-5.225-.057-.849-4.734-9.64-7.669-14.971a.382.382,0,1,1,.656-.391.18.18,0,0,1,.013.023c2.393,4.344,7.937,14.552,7.749,15.494-.181.9-3.968,4.111-5.545,5.414,1.313,1.55,4.458,5.318,4.634,6.023.184.734-4.191,12.335-6.815,19.184A.382.382,0,0,1,600.208,184.9Z" fill="none" stroke="#000" stroke-width="1"/>
  <path id="Path_7935" data-name="Path 7935" d="M592.772,133.388s-14.507-9.08-16.132-8.028,6.3,7.682,6.3,7.682-3.6,3.043-3.8,3.623-1.053,2-1.716,3.556-.369,2.588,1.134,4.207,11.284,6.338,13.447,6.488l2.164.15,6.444-11.052s.356-9.679-1.722-10.849-3.073,6.368-3.073,6.368Z" fill="#f48462"/>
  <path id="Path_7936" data-name="Path 7936" d="M592.772,133.388s-14.507-9.08-16.132-8.028,6.3,7.682,6.3,7.682-3.6,3.043-3.8,3.623-1.053,2-1.716,3.556-.369,2.588,1.134,4.207,11.284,6.338,13.447,6.488l2.164.15,6.444-11.052s.356-9.679-1.722-10.849-3.073,6.368-3.073,6.368Z" fill="none" stroke="#000" stroke-width="2"/>
  <path id="Path_7937" data-name="Path 7937" d="M595.817,135.914a.383.383,0,0,1-.2-.059l-6.065-3.811a.383.383,0,0,1,.392-.658l.016.01,5.587,3.511c.111-.571.329-1.609.719-3.275.72-3.078,2.6-2.858,2.68-2.848a.383.383,0,0,1,.327.43.388.388,0,0,1-.425.329c-.074-.008-1.288-.087-1.838,2.264-.639,2.722-.81,3.774-.812,3.785a.388.388,0,0,1-.219.288.394.394,0,0,1-.158.034"/>
  <path id="Path_7938" data-name="Path 7938" d="M584.571,134.839a.386.386,0,0,1-.251-.093l-1.635-1.416a.383.383,0,0,1,.5-.578l1.635,1.416a.383.383,0,0,1-.251.672"/>
  <path id="Path_7939" data-name="Path 7939" d="M557.368,159.3a1.359,1.359,0,0,1-.934-.383c-1.519-1.379-1.626-6.4-1.634-6.965a.383.383,0,0,1,.7-.215c.6.911,3.535,5.529,2.8,7.024a.962.962,0,0,1-.826.534c-.039,0-.078,0-.115,0m-1.731-5.9c.138,1.778.5,4.213,1.311,4.95a.615.615,0,0,0,.471.182c.155-.013.183-.069.2-.108.325-.666-.8-3.03-1.984-5.024" fill="#ee5064"/>
  <path id="Path_7940" data-name="Path 7940" d="M557.368,159.3a1.359,1.359,0,0,1-.934-.383c-1.519-1.379-1.626-6.4-1.634-6.965a.383.383,0,0,1,.7-.215c.6.911,3.535,5.529,2.8,7.024a.962.962,0,0,1-.826.534A1.1,1.1,0,0,1,557.368,159.3Zm-1.731-5.9c.138,1.778.5,4.213,1.311,4.95a.615.615,0,0,0,.471.182c.155-.013.183-.069.2-.108.327-.665-.8-3.028-1.982-5.023Z" fill="none" stroke="#000" stroke-width="2"/>
  <path id="Path_7941" data-name="Path 7941" d="M569.357,178.872a.519.519,0,0,1-.056,0,.381.381,0,0,1-.322-.432v0l.592-3.971a.383.383,0,0,1,.757.113l-.593,3.97a.383.383,0,0,1-.378.326"/>
  <path id="Path_7942" data-name="Path 7942" d="M569.357,178.872a.519.519,0,0,1-.056,0,.381.381,0,0,1-.322-.432v0l.592-3.971a.383.383,0,0,1,.757.113l-.593,3.97A.383.383,0,0,1,569.357,178.872Z" fill="none" stroke="#000" stroke-width="1"/>
  <path id="Path_7943" data-name="Path 7943" d="M601.625,138.717l-9.489,14.872s8.292,36.247,28.243,40.418,15.692-18.763,15.692-18.763Z" fill="#ee5064"/>
  <path id="Path_7944" data-name="Path 7944" d="M601.625,138.717l-9.489,14.872s8.292,36.247,28.243,40.418,15.692-18.763,15.692-18.763Z" fill="none" stroke="#000" stroke-width="2"/>
  <path id="Path_7945" data-name="Path 7945" d="M625.9,162.859a.383.383,0,0,1-.317-.168c-4.69-6.925-17.952-19.67-18.085-19.8a.383.383,0,0,1,.529-.553c.134.129,13.453,12.93,18.189,19.922a.382.382,0,0,1-.317.6"/>
  <path id="Path_7946" data-name="Path 7946" d="M625.9,162.859a.383.383,0,0,1-.317-.168c-4.69-6.925-17.952-19.67-18.085-19.8a.383.383,0,0,1,.529-.553c.134.129,13.453,12.93,18.189,19.922a.382.382,0,0,1-.317.6Z" fill="none" stroke="#000" stroke-width="1"/>
  <path id="Path_7947" data-name="Path 7947" d="M625.785,158.672c-2.195,0-6.638-3.987-7.555-4.833a.382.382,0,0,1,.356-.651c.738.194,7.231,1.942,8.274,3.729a1.055,1.055,0,0,1,.134.823,1.158,1.158,0,0,1-.81.88,1.422,1.422,0,0,1-.4.052m-5.762-4.276c2.146,1.807,4.932,3.787,5.946,3.49.1-.031.221-.1.286-.341a.3.3,0,0,0-.056-.242c-.586-1-3.86-2.2-6.176-2.906"/>
  <path id="Path_7948" data-name="Path 7948" d="M625.785,158.672c-2.195,0-6.638-3.987-7.555-4.833a.382.382,0,0,1,.356-.651c.738.194,7.231,1.942,8.274,3.729a1.055,1.055,0,0,1,.134.823,1.158,1.158,0,0,1-.81.88A1.415,1.415,0,0,1,625.785,158.672Zm-5.762-4.276c2.146,1.807,4.932,3.787,5.946,3.49.1-.031.221-.1.286-.341a.3.3,0,0,0-.056-.242C625.613,156.3,622.338,155.107,620.023,154.4Z" fill="none" stroke="#000" stroke-width="1"/>
  <path id="Path_7949" data-name="Path 7949" d="M189.422,348.159s19.971,10.253,25.8,16.069,6.025,9.672,5.284,11.545-42.552-1.162-42.552-1.162-.137-11.511-4.617-10.892-2.329,10.988-2.329,10.988l-12.652-.468s-.268-11.449.775-15.911a111.606,111.606,0,0,1,4.1-12.274Z" fill="#672376"/>
  <path id="Path_7950" data-name="Path 7950" d="M189.422,348.159s19.971,10.253,25.8,16.069,6.025,9.672,5.284,11.545-42.552-1.162-42.552-1.162-.137-11.511-4.617-10.892-2.329,10.988-2.329,10.988l-12.652-.468s-.268-11.449.775-15.911a111.606,111.606,0,0,1,4.1-12.274Z" fill="none" stroke="#000" stroke-width="2"/>
  <path id="Path_7951" data-name="Path 7951" d="M185.193,344.7s12.421-72.345,4.374-82.593-26.458,15.615-26.458,15.615l.121,68.334s4.326,6.371,9.534,8.431,23.161,2.383,26.368,1.451S185.194,344.7,185.194,344.7" fill="#ed785d"/>
  <path id="Path_7952" data-name="Path 7952" d="M185.193,344.7s12.421-72.345,4.374-82.593-26.458,15.615-26.458,15.615l.121,68.334s4.326,6.371,9.534,8.431,23.161,2.383,26.368,1.451S185.193,344.7,185.193,344.7Z" fill="none" stroke="#000" stroke-width="2"/>
  <path id="Path_7953" data-name="Path 7953" d="M160.03,344.438h0c2.972-13.928,5.118-73.695,5.118-73.695l-31.417,1.525L138,346.7s3.993,12.378,11.44,12.378c5.928,0,9.127-9.274,10.185-13.059.136-.428.27-.956.4-1.576v-.008" fill="#f48462"/>
  <path id="Path_7954" data-name="Path 7954" d="M160.03,344.438h0c2.972-13.928,5.118-73.695,5.118-73.695l-31.417,1.525L138,346.7s3.993,12.378,11.44,12.378c5.928,0,9.127-9.274,10.185-13.059.136-.428.27-.956.4-1.576Z" fill="none" stroke="#000" stroke-width="2"/>
  <path id="Path_7955" data-name="Path 7955" d="M183.8,199.675s6.625,20.648,9.089,37.918,3.062,45.07.934,45.963-26.635.554-26.635.554-8.344,1.8-22.564.582a107.57,107.57,0,0,1-11.993-1.6,3.007,3.007,0,0,1-2.408-3.047c.359-11.718,2.926-66.741,10.238-76.607,6.491-8.758,43.339-3.763,43.339-3.763" fill="#a62973"/>
  <path id="Path_7956" data-name="Path 7956" d="M183.8,199.675s6.625,20.648,9.089,37.918,3.062,45.07.934,45.963-26.635.554-26.635.554-8.344,1.8-22.564.582a107.57,107.57,0,0,1-11.993-1.6,3.007,3.007,0,0,1-2.408-3.047c.359-11.718,2.926-66.741,10.238-76.607C146.95,194.675,183.8,199.675,183.8,199.675Z" fill="none" stroke="#000" stroke-width="2"/>
  <path id="Path_7957" data-name="Path 7957" d="M160.03,344.443s6.437,22.206,5.118,26.842-14.859,10-19.373,9.759-12.522-8.02-13.619-10.826,4.47-29.584,10.813-27.88,17.061,2.1,17.061,2.1" fill="#672376"/>
  <path id="Path_7958" data-name="Path 7958" d="M160.03,344.443s6.437,22.206,5.118,26.842-14.859,10-19.373,9.759-12.522-8.02-13.619-10.826,4.47-29.584,10.813-27.88S160.03,344.443,160.03,344.443Z" fill="none" stroke="#000" stroke-width="2"/>
  <path id="Path_7959" data-name="Path 7959" d="M204.173,180.782s-14.479-33.073-30.621-37.714,1.233,41.481,1.233,41.481Z" fill="#ee5064"/>
  <path id="Path_7960" data-name="Path 7960" d="M204.173,180.782s-14.479-33.073-30.621-37.714,1.233,41.481,1.233,41.481Z" fill="none" stroke="#000" stroke-width="2"/>
  <path id="Path_7961" data-name="Path 7961" d="M144.2,141.216s-31.457,6.563-35.584,32.233c-5.682,35.341,37.656,38.126,37.656,38.126Z" fill="#ee5064"/>
  <path id="Path_7962" data-name="Path 7962" d="M144.2,141.216s-31.457,6.563-35.584,32.233c-5.682,35.341,37.656,38.126,37.656,38.126Z" fill="none" stroke="#000" stroke-width="2"/>
  <path id="Path_7963" data-name="Path 7963" d="M153.359,135.863s-14.57,1.937-9.851-16.914,18.206-8.152,18.206-8.152Z"/>
  <path id="Path_7964" data-name="Path 7964" d="M153.359,135.863s-14.57,1.937-9.851-16.914,18.206-8.152,18.206-8.152Z" fill="none" stroke="#000" stroke-width="2"/>
  <path id="Path_7965" data-name="Path 7965" d="M186.729,208.731s.216-59.523-11.639-65.136c-14.863-7.037-36.379-3.795-40.3,3.366-4.484,8.181,1.916,57.544,1.916,57.544a69.04,69.04,0,0,0,50.027,4.226" fill="#ee5064"/>
  <path id="Path_7966" data-name="Path 7966" d="M186.729,208.731s.216-59.523-11.639-65.136c-14.863-7.037-36.379-3.795-40.3,3.366-4.484,8.181,1.916,57.544,1.916,57.544A69.04,69.04,0,0,0,186.729,208.731Z" fill="none" stroke="#000" stroke-width="2"/>
  <path id="Path_7967" data-name="Path 7967" d="M150.562,130.84l-.838,10.132s.835,3.352,6.723,4.323c4.386.723,6.773-.435,6.773-.435l-.192-5.183-.194-5.054-10.509-3.238Z" fill="#f48462"/>
  <path id="Path_7968" data-name="Path 7968" d="M150.562,130.84l-.838,10.132s.835,3.352,6.723,4.323c4.386.723,6.773-.435,6.773-.435l-.192-5.183-.194-5.054-10.509-3.238Z" fill="none" stroke="#000" stroke-width="2"/>
  <path id="Path_7969" data-name="Path 7969" d="M152.325,131.386a3.361,3.361,0,0,0,.214,1c1.85,5.248,7.958,6.852,10.49,7.291l-.194-5.055Z"/>
  <path id="Path_7970" data-name="Path 7970" d="M167,111.712s4.269,13.143,1.591,20.029-9.021,5.138-12.746,3.39a12.838,12.838,0,0,1-5.284-4.291,5.468,5.468,0,0,1-5.808-2.72c-2.082-3.59-.22-7.294,1.925-7.974s4.448,1.046,4.448,1.046l-1.559-3.851s9.9-17.821,17.434-5.63" fill="#f48462"/>
  <path id="Path_7971" data-name="Path 7971" d="M167,111.712s4.269,13.143,1.591,20.029-9.021,5.138-12.746,3.39a12.838,12.838,0,0,1-5.284-4.291,5.468,5.468,0,0,1-5.808-2.72c-2.082-3.59-.22-7.294,1.925-7.974s4.448,1.046,4.448,1.046l-1.559-3.851S159.466,99.523,167,111.712Z" fill="none" stroke="#000" stroke-width="2"/>
  <path id="Path_7972" data-name="Path 7972" d="M194.641,162.272s10.29-21.385,8.773-21.668-10.87,20.077-10.87,20.077Z"/>
  <path id="Path_7973" data-name="Path 7973" d="M205.174,172.9s-6.589-13.857-10.361-15.8-13.546-1.151-13.686-.007,8.535,3.592,8.535,3.592-6.008,8.088-6.322,10.029,3.488,8.162,4.4,8.847,3.766-2.187,3.766-2.187a14.639,14.639,0,0,0,6.059,5.107c3.724,1.479,8.838-3.827,8.838-3.827Z" fill="#f48462"/>
  <path id="Path_7974" data-name="Path 7974" d="M205.174,172.9s-6.589-13.857-10.361-15.8-13.546-1.151-13.686-.007,8.535,3.592,8.535,3.592-6.008,8.088-6.322,10.029,3.488,8.162,4.4,8.847,3.766-2.187,3.766-2.187a14.639,14.639,0,0,0,6.059,5.107c3.724,1.479,8.838-3.827,8.838-3.827Z" fill="none" stroke="#000" stroke-width="2"/>
  <path id="Path_7975" data-name="Path 7975" d="M166.851,123.7a.383.383,0,0,1-.381-.354l-.188-2.483a.382.382,0,0,1,.261-.391l1.219-.4a.382.382,0,0,1,.241.725l-.936.311.165,2.185a.383.383,0,0,1-.353.411h-.029"/>
  <path id="Path_7976" data-name="Path 7976" d="M193.566,183.025s-3.657-3.934-3.676-7.1S196.8,173.2,196.8,173.2l.844,6.155Z" fill="#ff9c85"/>
  <path id="Path_7977" data-name="Path 7977" d="M204.075,207.772H156.426a2.017,2.017,0,0,1-2.017-2.017v-32.84a2.017,2.017,0,0,1,2.017-2.017h47.649a2.017,2.017,0,0,1,2.016,2.017v32.839a2.017,2.017,0,0,1-2.016,2.017"/>
  <rect id="Rectangle_1461" data-name="Rectangle 1461" width="51.683" height="36.874" rx="2.7" transform="translate(154.409 170.898)" fill="none" stroke="#000" stroke-width="2"/>
  <path id="Path_7978" data-name="Path 7978" d="M200.669,207.772H153.217a2.013,2.013,0,0,1-2.013-2.013V172.911a2.013,2.013,0,0,1,2.013-2.013h47.452a2.013,2.013,0,0,1,2.013,2.013v32.847a2.014,2.014,0,0,1-2.013,2.013" fill="#40507f"/>
  <rect id="Rectangle_1462" data-name="Rectangle 1462" width="51.478" height="36.874" rx="2.695" transform="translate(151.204 170.898)" fill="none" stroke="#000" stroke-width="2"/>
  <path id="Path_7979" data-name="Path 7979" d="M183.289,189.336A4.338,4.338,0,1,1,178.951,185a4.338,4.338,0,0,1,4.338,4.338" fill="#fff"/>
  <path id="Path_7980" data-name="Path 7980" d="M159.608,123.239a.383.383,0,0,1-.383-.372l-.062-2.224a.384.384,0,0,1,.223-.358l1.2-.551a.383.383,0,0,1,.345.684l-.024.011-.968.445.055,1.972a.383.383,0,0,1-.372.393Z"/>
  <path id="Path_7981" data-name="Path 7981" d="M140.909,187.685s9.092-2.961,10.3-3.345c0,0,.129,3.275-.27,3.851s17.508,3.337,17.462,5.067a2.26,2.26,0,0,1-1.709,2.114s3.585.769,2.624,2.5a3.386,3.386,0,0,1-2.624,1.8s3.526,1.712,0,3.9-20.829,3.529-26.375-2.005c-4.078-4.069.6-13.878.6-13.878" fill="#f48462"/>
  <path id="Path_7982" data-name="Path 7982" d="M140.909,187.685s9.092-2.961,10.3-3.345c0,0,.129,3.275-.27,3.851s17.508,3.337,17.462,5.067a2.26,2.26,0,0,1-1.709,2.114s3.585.769,2.624,2.5a3.386,3.386,0,0,1-2.624,1.8s3.526,1.712,0,3.9-20.829,3.529-26.375-2.005C136.234,197.5,140.909,187.685,140.909,187.685Z" fill="none" stroke="#000" stroke-width="2"/>
  <path id="Path_7983" data-name="Path 7983" d="M151.126,121.195s6.025-.5,8.909-4.084a24.129,24.129,0,0,0,3.827-7.211,15.969,15.969,0,0,1,2.655,3.55,33.017,33.017,0,0,1,2.006,4.239s2.726-8.228-4.649-11.612-14.168,1.219-16.423,5.814,3.675,9.3,3.675,9.3"/>
  <path id="Path_7984" data-name="Path 7984" d="M151.126,121.195s6.025-.5,8.909-4.084a24.129,24.129,0,0,0,3.827-7.211,15.969,15.969,0,0,1,2.655,3.55,33.017,33.017,0,0,1,2.006,4.239s2.726-8.228-4.649-11.612-14.168,1.219-16.423,5.814S151.126,121.195,151.126,121.195Z" fill="none" stroke="#000" stroke-width="2"/>
  <path id="Path_7985" data-name="Path 7985" d="M146.294,182.38l-.459,23s-8.616,1.4-20.5-6.54c-16.514-11.032-10.8-14.5-10.8-14.5l15.995-9.306Z" fill="#ee5064"/>
  <path id="Path_7986" data-name="Path 7986" d="M146.294,182.38l-.459,23s-8.616,1.4-20.5-6.54c-16.514-11.032-10.8-14.5-10.8-14.5l15.995-9.306Z" fill="none" stroke="#000" stroke-width="2"/>
  <path id="Path_7987" data-name="Path 7987" d="M166.687,195.758c-.045,0-10.283-1.186-10.283-1.186a.383.383,0,1,1,.088-.76l10.238,1.183a.383.383,0,0,1-.043.763"/>
  <path id="Path_7988" data-name="Path 7988" d="M166.686,200.056H156.444a.383.383,0,0,1-.039-.765.252.252,0,0,1,.039,0h10.238a.383.383,0,0,1,.039.765.252.252,0,0,1-.039,0"/>
  <path id="Path_7989" data-name="Path 7989" d="M149.5,182.035a.378.378,0,0,1-.171-.041c-.142-.071-14.281-7.14-21.3-7.641a.383.383,0,1,1,.043-.765h.011c7.169.512,21,7.427,21.586,7.721a.382.382,0,0,1-.172.724" fill="#fff"/>
  <path id="Path_7990" data-name="Path 7990" d="M140.421,177.944a.373.373,0,0,1-.238-.083c-1.91-1.518-8.1-6.6-7.541-8.3.087-.264.338-.586,1.042-.611,3.674-.182,6.954,8.116,7.092,8.468a.382.382,0,0,1-.356.521m-6.643-8.226h-.064c-.263.01-.339.072-.344.087-.232.7,2.781,3.724,6.081,6.473-1.225-2.624-3.525-6.56-5.673-6.56" fill="#fff"/>
  <path id="Path_7991" data-name="Path 7991" d="M149.516,112.454s1.738-10.969-7.624-12.078-8.187,17.432,3.863,17.2,3.761-5.119,3.761-5.119"/>
  <path id="Path_7992" data-name="Path 7992" d="M149.516,112.454s1.738-10.969-7.624-12.078-8.187,17.432,3.863,17.2S149.516,112.454,149.516,112.454Z" fill="none" stroke="#000" stroke-width="2"/>
  <path id="Path_7993" data-name="Path 7993" d="M143.941,117.764a.374.374,0,0,1-.082-.009.382.382,0,0,1-.292-.454h0c1.18-5.413,3.933-7.34,4.049-7.42a.383.383,0,0,1,.432.632c-.026.018-2.625,1.86-3.734,6.95a.383.383,0,0,1-.373.3" fill="#fff"/>
  <path id="Path_7994" data-name="Path 7994" d="M158.561,118.049a.382.382,0,0,1-.055-.761l3.33-.493a.382.382,0,1,1,.112.756h0l-3.33.493h-.056"/>
  <path id="Path_7995" data-name="Path 7995" d="M168.523,118.07a.488.488,0,0,1-.076-.007l-2.229-.448a.383.383,0,0,1-.3-.451.39.39,0,0,1,.451-.3l2.228.448a.383.383,0,0,1-.075.758"/>
  <path id="Path_7996" data-name="Path 7996" d="M163.917,127.585a.383.383,0,0,1-.259-.663c1.458-1.347-.007-4.747-.022-4.782a.382.382,0,0,1,.7-.308c.07.16,1.7,3.935-.159,5.651a.377.377,0,0,1-.259.1"/>
  <path id="Path_7997" data-name="Path 7997" d="M160.878,130.422a.375.375,0,0,1-.11-.016,3.541,3.541,0,0,1-2.329-2.748.383.383,0,0,1,.754-.134,2.779,2.779,0,0,0,1.8,2.151.382.382,0,0,1-.111.748"/>
  <path id="Path_7998" data-name="Path 7998" d="M150.175,126.439a.383.383,0,0,1-.266-.108l-3.863-3.733a.382.382,0,1,1,.531-.55l3.863,3.733a.384.384,0,0,1,.006.542.38.38,0,0,1-.272.115"/>
  <path id="Path_7999" data-name="Path 7999" d="M146.267,125.481a.382.382,0,0,1-.052-.761l2.553-.353a.383.383,0,0,1,.1.758l-2.553.352h-.052"/>
  <path id="Path_8000" data-name="Path 8000" d="M194.642,162.654a.382.382,0,0,1-.261-.1c-.938-.875-3.757-1.367-4.764-1.484a.381.381,0,0,1-.336-.423h0a.392.392,0,0,1,.424-.336c.158.018,3.883.459,5.2,1.683a.383.383,0,0,1-.261.663"/>
  <path id="Path_8001" data-name="Path 8001" d="M194.642,162.654a.382.382,0,0,1-.261-.1c-.938-.875-3.757-1.367-4.764-1.484a.381.381,0,0,1-.336-.423h0a.392.392,0,0,1,.424-.336c.158.018,3.883.459,5.2,1.683a.383.383,0,0,1-.261.663Z" fill="none" stroke="#000" stroke-width="1"/>
  <path id="Path_8002" data-name="Path 8002" d="M140.46,284.66a.382.382,0,0,1-.367-.275l-3.142-10.735-2.206,9.852a.383.383,0,0,1-.746-.168l2.53-11.3a.383.383,0,0,1,.74-.023l3.559,12.157a.384.384,0,0,1-.261.475.377.377,0,0,1-.106.015" fill="#40507f"/>
  <path id="Path_8003" data-name="Path 8003" d="M140.46,284.66a.382.382,0,0,1-.367-.275l-3.142-10.735-2.206,9.852a.383.383,0,0,1-.746-.168l2.53-11.3a.383.383,0,0,1,.74-.023l3.559,12.157a.384.384,0,0,1-.261.475.377.377,0,0,1-.106.015Z" fill="none" stroke="#000" stroke-width="1"/>
  <path id="Path_8004" data-name="Path 8004" d="M155.448,379.184a2.783,2.783,0,0,0,2.784-2.784V242.688h-5.568V376.4a2.783,2.783,0,0,0,2.784,2.784" fill="#b8b0bf"/>
  <rect id="Rectangle_1463" data-name="Rectangle 1463" width="10.817" height="73.777" transform="translate(54.834 285.687)" fill="#c7bfce"/>
  <path id="Path_8005" data-name="Path 8005" d="M37.45,363.883H82.838a3.4,3.4,0,0,0,.013-6.8H37.45a3.4,3.4,0,0,0-.013,6.8Z" fill="#c7bfce"/>
  <path id="Path_8006" data-name="Path 8006" d="M76.763,369.094a7.312,7.312,0,1,0,7.313-7.311h0a7.311,7.311,0,0,0-7.311,7.311" fill="#c7bfce"/>
  <path id="Path_8007" data-name="Path 8007" d="M52.931,369.094a7.312,7.312,0,1,0,7.313-7.311h0a7.311,7.311,0,0,0-7.311,7.311" fill="#c7bfce"/>
  <path id="Path_8008" data-name="Path 8008" d="M29.2,369.094a7.312,7.312,0,1,0,7.313-7.311h0a7.311,7.311,0,0,0-7.311,7.311" fill="#c7bfce"/>
  <path id="Path_8009" data-name="Path 8009" d="M28.5,216.9s-22.91,13.7-17.814,43.761c5.862,34.583,40.34,45.8,70.248,37.626s24.924-31.735,24.924-31.735Z" fill="#e0dfe5"/>
  <path id="Path_8010" data-name="Path 8010" d="M23.957,279.716a.38.38,0,0,1-.26-.1c-7.624-7.053-9.039-20.375-9.1-20.938a.383.383,0,0,1,.761-.076c.013.134,1.446,13.6,8.855,20.452a.383.383,0,0,1-.26.663" fill="#fff"/>
  <path id="Path_8011" data-name="Path 8011" d="M69.811,175.883s15.6,1.382,21.462,8.915-1.883,54.765-2.3,55.423-11.286,5.471-30.231,5.053-23.548-4.037-24.176-5.053-4.6-54.338,0-58.857S58.4,174.5,69.811,175.883" fill="#ee5064"/>
  <path id="Path_8012" data-name="Path 8012" d="M69.811,175.883s15.6,1.382,21.462,8.915-1.883,54.765-2.3,55.423-11.286,5.471-30.231,5.053-23.548-4.037-24.176-5.053-4.6-54.338,0-58.857S58.4,174.5,69.811,175.883Z" fill="none" stroke="#000" stroke-width="2"/>
  <path id="Path_8013" data-name="Path 8013" d="M90.773,333.858v20.1l-15.305,5.791-9.642-10.817L64.24,330.34Z" fill="#f48462"/>
  <path id="Path_8014" data-name="Path 8014" d="M90.773,333.858v20.1l-15.305,5.791-9.642-10.817L64.24,330.34Z" fill="none" stroke="#000" stroke-width="2"/>
  <path id="Path_8015" data-name="Path 8015" d="M119.419,329.691v20.1l-16.307,5.787L92.835,344.763l-1.69-18.592Z" fill="#f48462"/>
  <path id="Path_8016" data-name="Path 8016" d="M119.419,329.691v20.1l-16.307,5.787L92.835,344.763l-1.69-18.592Z" fill="none" stroke="#000" stroke-width="2"/>
  <path id="Path_8017" data-name="Path 8017" d="M86.046,236.559s38.986,19.614,43.773,27.582-.486,72.9-.486,72.9l-34.569.461-4.787-36.291L63.7,240.092Z" fill="#a62973"/>
  <path id="Path_8018" data-name="Path 8018" d="M86.046,236.559s38.986,19.614,43.773,27.582-.486,72.9-.486,72.9l-34.569.461-4.787-36.291L63.7,240.092Z" fill="none" stroke="#000" stroke-width="2"/>
  <path id="Path_8019" data-name="Path 8019" d="M38.673,240.69s-1.575,17.423-1.009,23.141,18.6,19.19,18.6,19.19l.892,55.774,39.97,1.786s.87-63.736.2-69.739-27.262-27.829-27.262-27.829Z" fill="#a62973"/>
  <path id="Path_8020" data-name="Path 8020" d="M38.673,240.69s-1.575,17.423-1.009,23.141,18.6,19.19,18.6,19.19l.892,55.774,39.97,1.786s.87-63.736.2-69.739-27.262-27.829-27.262-27.829Z" fill="none" stroke="#000" stroke-width="2"/>
  <path id="Path_8021" data-name="Path 8021" d="M60.521,167.732l.226,10.15s1.895,2.877,7.843,3.228c4.432.262,5.963-.773,5.963-.773l-.731-5.127-.719-5-10.774-2.12Z" fill="#f48462"/>
  <path id="Path_8022" data-name="Path 8022" d="M60.521,167.732l.226,10.15s1.895,2.877,7.843,3.228c4.432.262,5.963-.773,5.963-.773l-.731-5.127-.719-5-10.774-2.12Z" fill="none" stroke="#000" stroke-width="2"/>
  <path id="Path_8023" data-name="Path 8023" d="M62.329,168.086a3.335,3.335,0,0,0,.317.973c2.384,5.02,8.617,5.975,11.177,6.147l-.719-5Z"/>
  <path id="Path_8024" data-name="Path 8024" d="M74.852,147.024s5.609,12.608,3.667,19.725-8.423,6.043-12.3,4.7a12.823,12.823,0,0,1-5.7-3.71,5.461,5.461,0,0,1-6.052-2.1c-2.442-3.347-.978-7.22,1.082-8.119s4.525.575,4.525.575l-1.949-3.662S66.1,135.7,74.851,147.025" fill="#f48462"/>
  <path id="Path_8025" data-name="Path 8025" d="M74.852,147.024s5.609,12.608,3.667,19.725-8.423,6.043-12.3,4.7a12.823,12.823,0,0,1-5.7-3.71,5.461,5.461,0,0,1-6.052-2.1c-2.442-3.347-.978-7.22,1.082-8.119s4.525.575,4.525.575l-1.949-3.662S66.1,135.7,74.852,147.024Z" fill="none" stroke="#000" stroke-width="2"/>
  <path id="Path_8026" data-name="Path 8026" d="M74.376,163.074a.4.4,0,0,1-.113-.017.382.382,0,0,1-.253-.478c.722-2.332-1.024-4.861-1.042-4.886a.383.383,0,0,1,.626-.44c.081.115,1.981,2.857,1.147,5.552a.382.382,0,0,1-.365.27"/>
  <path id="Path_8027" data-name="Path 8027" d="M59.538,164a.38.38,0,0,1-.278-.12l-3.435-3.64a.382.382,0,0,1,.556-.524l3.436,3.641a.383.383,0,0,1-.279.645"/>
  <path id="Path_8028" data-name="Path 8028" d="M55.9,163.028a.382.382,0,0,1-.057-.761l2.376-.361a.383.383,0,0,1,.114.757l-2.376.36a.281.281,0,0,1-.058,0"/>
  <path id="Path_8029" data-name="Path 8029" d="M68.646,158.358a.383.383,0,0,1-.379-.334l-.3-2.356a.383.383,0,0,1,.759-.1l.3,2.356a.383.383,0,0,1-.331.428h-.049"/>
  <path id="Path_8030" data-name="Path 8030" d="M75.641,157.8a.383.383,0,0,1-.378-.326l-.346-2.35a.383.383,0,0,1,.757-.111l.346,2.35a.382.382,0,0,1-.322.434h0a.519.519,0,0,1-.056,0"/>
  <path id="Path_8031" data-name="Path 8031" d="M67.034,154.045a.382.382,0,0,1-.336-.567c.9-1.627,2.979-1.139,3.068-1.115a.383.383,0,0,1-.182.743c-.066-.016-1.6-.37-2.217.741a.38.38,0,0,1-.335.2"/>
  <path id="Path_8032" data-name="Path 8032" d="M76.15,153.088a.383.383,0,0,1-.3-.149,1.833,1.833,0,0,0-1.059-.662,1.058,1.058,0,0,0-.8.3.383.383,0,0,1-.547-.536.363.363,0,0,1,.047-.041,1.788,1.788,0,0,1,1.381-.484,2.6,2.6,0,0,1,1.586.957.382.382,0,0,1-.3.614"/>
  <path id="Path_8033" data-name="Path 8033" d="M61.29,158.945s3.428-2.319,3.222-5.836-.979-4.415-.979-4.415a33.176,33.176,0,0,0,7.311-1.284,9.975,9.975,0,0,0,3.08-1.476l.927,1.09c1.011-.046,3.319-6.17,1.8-7.258s-9.663,1.75-9.663,1.75S58.411,139.5,53.4,145.6s.6,13.281.6,13.281,1.483-3.145,7.286.067"/>
  <path id="Path_8034" data-name="Path 8034" d="M71.159,167.285a2.626,2.626,0,0,1-.747-.108,1.611,1.611,0,0,1-1.03-.8,2.163,2.163,0,0,1-.086-1.529.381.381,0,0,1,.48-.245l.02.007,3.28,1.228a.382.382,0,0,1,.128.637,3.247,3.247,0,0,1-2.041.807m-1.2-1.793a1.066,1.066,0,0,0,.1.536.864.864,0,0,0,.566.414,2.055,2.055,0,0,0,1.469-.15Z"/>
  <path id="Path_8035" data-name="Path 8035" d="M136.274,202.792l.359-2.266s8.691-6.616,14.039-8.8c2.25-.919,5.4-.153,2.744,2.826a12.6,12.6,0,0,0-2.152,3.519,34.265,34.265,0,0,0,7.242-3.31c1.887-1.251,4.645-6.278,6.262-5.188,2.574,1.733-.384,6.64-.384,6.64s1.337-6.215,3.877-3.789-4.381,14.625-7.673,17.539-20.657,6.309-20.657,6.309Z" fill="#f48462"/>
  <path id="Path_8036" data-name="Path 8036" d="M136.274,202.792l.359-2.266s8.691-6.616,14.039-8.8c2.25-.919,5.4-.153,2.744,2.826a12.6,12.6,0,0,0-2.152,3.519,34.265,34.265,0,0,0,7.242-3.31c1.887-1.251,4.645-6.278,6.262-5.188,2.574,1.733-.384,6.64-.384,6.64s1.337-6.215,3.877-3.789-4.381,14.625-7.673,17.539-20.657,6.309-20.657,6.309Z" fill="none" stroke="#000" stroke-width="2"/>
  <path id="Path_8037" data-name="Path 8037" d="M154.574,200.733a.382.382,0,0,1-.037-.763c3.78-.374,7.385-3.73,7.42-3.764a.383.383,0,0,1,.525.557c-.155.146-3.827,3.57-7.87,3.968h-.038"/>
  <path id="Path_8038" data-name="Path 8038" d="M154.574,200.733a.382.382,0,0,1-.037-.763c3.78-.374,7.385-3.73,7.42-3.764a.383.383,0,0,1,.525.557c-.155.146-3.827,3.57-7.87,3.968Z" fill="none" stroke="#000" stroke-width="1"/>
  <path id="Path_8039" data-name="Path 8039" d="M159.075,203.552a.372.372,0,0,1-.2-.055l-7.615-4.621a.383.383,0,1,1,.4-.654l7.393,4.487,3.424-2.566a.383.383,0,0,1,.459.612l-3.632,2.721a.384.384,0,0,1-.229.076"/>
  <path id="Path_8040" data-name="Path 8040" d="M159.075,203.552a.372.372,0,0,1-.2-.055l-7.615-4.621a.383.383,0,1,1,.4-.654l7.393,4.487,3.424-2.566a.383.383,0,0,1,.459.612l-3.632,2.721A.384.384,0,0,1,159.075,203.552Z" fill="none" stroke="#000" stroke-width="1"/>
  <path id="Path_8041" data-name="Path 8041" d="M144.43,203.4a.382.382,0,0,1-.115-.747,16.9,16.9,0,0,0,6.858-4.365.383.383,0,1,1,.626.441.407.407,0,0,1-.051.059,17.344,17.344,0,0,1-7.2,4.59.373.373,0,0,1-.115.018"/>
  <path id="Path_8042" data-name="Path 8042" d="M144.43,203.4a.382.382,0,0,1-.115-.747,16.9,16.9,0,0,0,6.858-4.365.383.383,0,1,1,.626.441.407.407,0,0,1-.051.059,17.344,17.344,0,0,1-7.2,4.59A.367.367,0,0,1,144.43,203.4Z" fill="none" stroke="#000" stroke-width="1"/>
  <path id="Path_8043" data-name="Path 8043" d="M89.332,182.784s17.689,15.633,31.968,16.546c6.885.44,16.123-2.846,16.123-2.846l8.206,21.473s-28.854,27.34-58.247,5.8c-8.446-6.191,1.95-40.968,1.95-40.968" fill="#ee5064"/>
  <path id="Path_8044" data-name="Path 8044" d="M89.332,182.784s17.689,15.633,31.968,16.546c6.885.44,16.123-2.846,16.123-2.846l8.206,21.473s-28.854,27.34-58.247,5.8C78.936,217.561,89.332,182.784,89.332,182.784Z" fill="none" stroke="#000" stroke-width="2"/>
  <path id="Path_8045" data-name="Path 8045" d="M91.42,209.743a.382.382,0,0,1-.383-.381h0c0-2.572-4.661-16.71-4.708-16.852a.383.383,0,1,1,.713-.279c0,.012.009.025.013.038.194.587,4.747,14.4,4.747,17.093a.382.382,0,0,1-.382.382h0" fill="#f7b369"/>
  <path id="Path_8046" data-name="Path 8046" d="M91.42,209.743a.382.382,0,0,1-.383-.381h0c0-2.572-4.661-16.71-4.708-16.852a.383.383,0,1,1,.713-.279c0,.012.009.025.013.038.194.587,4.747,14.4,4.747,17.093A.382.382,0,0,1,91.42,209.743Z" fill="none" stroke="#000" stroke-width="1"/>
  <path id="Path_8047" data-name="Path 8047" d="M88.41,372.528s.717-32.313,5.739-31.64,10.042,5.385,10.042,5.385,11.477-6.058,16.5-2.693,7.907,10.771,7.907,10.771l27.959,18.176s3.381,5.385,2.408,8.078c-.759,2.1-43.283.923-61.937.3a8.647,8.647,0,0,1-8.615-8.383" fill="#672376"/>
  <path id="Path_8048" data-name="Path 8048" d="M88.41,372.528s.717-32.313,5.739-31.64,10.042,5.385,10.042,5.385,11.477-6.058,16.5-2.693,7.907,10.771,7.907,10.771l27.959,18.176s3.381,5.385,2.408,8.078c-.759,2.1-43.283.923-61.937.3A8.647,8.647,0,0,1,88.41,372.528Z" fill="none" stroke="#000" stroke-width="2"/>
  <path id="Path_8049" data-name="Path 8049" d="M102.834,364.666s-7.01-17.157-11.535-20.118-15.851,6.439-15.851,6.439S65.965,341,63.632,346.241s-3.464,23.994-1.7,28.134S76.708,385.408,93.8,385.361c8.053-.022,19.666-2.51,19.674-5.276.011-4.35-7.894-12.554-10.64-15.42" fill="#672376"/>
  <path id="Path_8050" data-name="Path 8050" d="M102.834,364.666s-7.01-17.157-11.535-20.118-15.851,6.439-15.851,6.439S65.965,341,63.632,346.241s-3.464,23.994-1.7,28.134S76.708,385.408,93.8,385.361c8.053-.022,19.666-2.51,19.674-5.276C113.485,375.735,105.579,367.532,102.834,364.666Z" fill="none" stroke="#000" stroke-width="2"/>
  <path id="Path_8051" data-name="Path 8051" d="M95.8,359.112H82.685a.383.383,0,1,1,0-.765H95.8a.383.383,0,1,1,0,.765" fill="#fff"/>
  <path id="Path_8052" data-name="Path 8052" d="M70.271,181.851,76.01,219.89H71.256l-4.222-38.822Z" fill="#a62973"/>
  <path id="Path_8053" data-name="Path 8053" d="M70.271,181.851,76.01,219.89H71.256l-4.222-38.822Z" fill="none" stroke="#000" stroke-width="2"/>
  <path id="Path_8054" data-name="Path 8054" d="M140.776,221.833l4.79-1.6a.71.71,0,0,0,.45-.9h0l-7.8-23.377a.71.71,0,0,0-.9-.45h0l-4.791,1.6a.711.711,0,0,0-.45.9l7.8,23.377a.711.711,0,0,0,.9.45" fill="#a62973"/>
  <path id="Path_8055" data-name="Path 8055" d="M140.776,221.833l4.79-1.6a.71.71,0,0,0,.45-.9h0l-7.8-23.377a.71.71,0,0,0-.9-.45h0l-4.791,1.6a.711.711,0,0,0-.45.9l7.8,23.377A.712.712,0,0,0,140.776,221.833Z" fill="none" stroke="#000" stroke-width="2"/>
  <path id="Path_8056" data-name="Path 8056" d="M97.966,365.048H84.075a.382.382,0,0,1,0-.764H97.967a.382.382,0,0,1,0,.764" fill="#fff"/>
  <path id="Path_8057" data-name="Path 8057" d="M121.676,357.1a.383.383,0,0,1-.052-.762l8.359-1.14a.383.383,0,1,1,.146.752.342.342,0,0,1-.046.006l-8.359,1.141a.448.448,0,0,1-.052,0" fill="#fff"/>
  <path id="Path_8058" data-name="Path 8058" d="M123.774,362.882a.382.382,0,0,1-.057-.761l14.064-2.14a.383.383,0,0,1,.115.757l-14.065,2.139a.283.283,0,0,1-.058,0" fill="#fff"/>
  <path id="Path_8059" data-name="Path 8059" d="M98.885,335.877a.385.385,0,0,1-.383-.387v-.005c.015-.594,1.469-59.508.008-66.419-1-4.708-15.943-19.391-16.094-19.539a.382.382,0,0,1,.136-.632l10.777-3.957a.383.383,0,0,1,.263.719L83.381,249.4c2.533,2.512,14.921,14.98,15.878,19.5,1.479,7,.069,64.166.008,66.6a.382.382,0,0,1-.383.373"/>
  <path id="Path_8060" data-name="Path 8060" d="M98.885,335.877a.385.385,0,0,1-.383-.387v-.005c.015-.594,1.469-59.508.008-66.419-1-4.708-15.943-19.391-16.094-19.539a.382.382,0,0,1,.136-.632l10.777-3.957a.383.383,0,0,1,.263.719L83.381,249.4c2.533,2.512,14.921,14.98,15.878,19.5,1.479,7,.069,64.166.008,66.6A.383.383,0,0,1,98.885,335.877Z" fill="none" stroke="#000" stroke-width="1"/>
  <path id="Path_8061" data-name="Path 8061" d="M63.478,233.362s9.382,3.789,11.233,3.535,8.533-1,8.8-2.408L81,230.189s3.737,1.566,6.268.253,5.57-3.948,6.187-5.965-2.3-1.611-2.3-1.611,3.3-2.053-.892-3.811-22.3-4.366-29.844.365,3.055,13.946,3.055,13.946" fill="#f48462"/>
  <path id="Path_8062" data-name="Path 8062" d="M63.478,233.362s9.382,3.789,11.233,3.535,8.533-1,8.8-2.408L81,230.189s3.737,1.566,6.268.253,5.57-3.948,6.187-5.965-2.3-1.611-2.3-1.611,3.3-2.053-.892-3.811-22.3-4.366-29.844.365S63.478,233.362,63.478,233.362Z" fill="none" stroke="#000" stroke-width="2"/>
  <path id="Path_8063" data-name="Path 8063" d="M91.16,223.246a.4.4,0,0,1-.123-.02,22.29,22.29,0,0,0-9.046-.838.382.382,0,1,1-.108-.757,22.639,22.639,0,0,1,9.4.87.383.383,0,0,1-.123.745"/>
  <path id="Path_8064" data-name="Path 8064" d="M56.556,286.387a.383.383,0,0,1-.383-.381c0-.013,0-.026,0-.039.022-.232.583-5.727,3.292-7.543a3.475,3.475,0,0,1,3.067-.4c.97.293,1.5.786,1.573,1.464.273,2.476-6.581,6.4-7.363,6.845a.385.385,0,0,1-.188.049m4.792-7.779a2.554,2.554,0,0,0-1.455.452c-1.857,1.243-2.6,4.684-2.852,6.222,2.76-1.639,6.457-4.332,6.306-5.706-.038-.344-.386-.619-1.034-.814a3.289,3.289,0,0,0-.965-.154"/>
  <path id="Path_8065" data-name="Path 8065" d="M56.556,286.387a.383.383,0,0,1-.383-.381c0-.013,0-.026,0-.039.022-.232.583-5.727,3.292-7.543a3.475,3.475,0,0,1,3.067-.4c.97.293,1.5.786,1.573,1.464.273,2.476-6.581,6.4-7.363,6.845A.379.379,0,0,1,56.556,286.387Zm4.792-7.779a2.554,2.554,0,0,0-1.455.452c-1.857,1.243-2.6,4.684-2.852,6.222,2.76-1.639,6.457-4.332,6.306-5.706-.038-.344-.386-.619-1.034-.814A3.289,3.289,0,0,0,61.348,278.608Z" fill="none" stroke="#000" stroke-width="1"/>
  <path id="Path_8066" data-name="Path 8066" d="M81.848,235.5h48.318l13.8-31.214H97.554a2.924,2.924,0,0,0-2.675,1.742Z" fill="#fff"/>
  <path id="Path_8067" data-name="Path 8067" d="M81.848,235.5h48.318l13.8-31.214H97.554a2.924,2.924,0,0,0-2.675,1.742Z" fill="none" stroke="#000" stroke-width="2"/>
  <path id="Path_8068" data-name="Path 8068" d="M86.045,235.5h48.32l12.316-27.86a2.39,2.39,0,0,0-2.186-3.356H99.845Z" fill="#7c576c"/>
  <path id="Path_8069" data-name="Path 8069" d="M86.045,235.5h48.32l12.316-27.86a2.39,2.39,0,0,0-2.186-3.356H99.845Z" fill="none" stroke="#000" stroke-width="2"/>
  <path id="Path_8070" data-name="Path 8070" d="M65.651,239.439h68.221a1.972,1.972,0,1,0,.089-3.943c-.03,0-.059,0-.089,0H65.651a1.972,1.972,0,1,0-.089,3.943c.03,0,.059,0,.089,0"/>
  <path id="Path_8071" data-name="Path 8071" d="M34.569,181.361S7.548,210.776,11.942,229.924s57.733,6.634,57.733,6.634l-.584-22.378-27.725-4.342Z" fill="#ee5064"/>
  <path id="Path_8072" data-name="Path 8072" d="M34.569,181.361S7.548,210.776,11.942,229.924s57.733,6.634,57.733,6.634l-.584-22.378-27.725-4.342Z" fill="none" stroke="#000" stroke-width="2"/>
  <path id="Path_8073" data-name="Path 8073" d="M32.173,211.16c-1.769,0-3.19-.226-3.55-.891-.237-.437-.086-.949.449-1.522,3.311-3.55,11.275.621,11.612.8a.383.383,0,0,1-.114.716,56.253,56.253,0,0,1-8.4.9m.737-3.074a4.327,4.327,0,0,0-3.28,1.183c-.317.341-.379.556-.335.637.437.8,5.282.53,9.941-.2a17.281,17.281,0,0,0-6.326-1.623" fill="#f7b369"/>
  <path id="Path_8074" data-name="Path 8074" d="M32.173,211.16c-1.769,0-3.19-.226-3.55-.891-.237-.437-.086-.949.449-1.522,3.311-3.55,11.275.621,11.612.8a.383.383,0,0,1-.114.716A56.223,56.223,0,0,1,32.173,211.16Zm.737-3.074a4.327,4.327,0,0,0-3.28,1.183c-.317.341-.379.556-.335.637.437.8,5.282.53,9.941-.2A17.307,17.307,0,0,0,32.91,208.086Z" fill="none" stroke="#000" stroke-width="1"/>
  <path id="Path_8075" data-name="Path 8075" d="M38.454,242.479h-.759a.447.447,0,1,1,0-.893,111.849,111.849,0,0,0,24.614-2.708.446.446,0,1,1,.238.86l-.017,0a109.377,109.377,0,0,1-24.08,2.739" fill="#ffba57"/>
  <path id="Path_8076" data-name="Path 8076" d="M13.608,245.91h151.65a3.55,3.55,0,1,0,0-7.1H13.608a3.55,3.55,0,0,0,0,7.1" fill="#b8b0bf"/>
  <path id="Path_8077" data-name="Path 8077" d="M89.242,330.724,57.8,329.077a.381.381,0,0,1-.362-.4h0a.362.362,0,0,1,.361-.363l.039,0,31.421,1.646a.382.382,0,1,1-.019.764"/>
  <path id="Path_8078" data-name="Path 8078" d="M89.242,330.724,57.8,329.077a.381.381,0,0,1-.362-.4h0a.362.362,0,0,1,.361-.363l.039,0,31.421,1.646a.382.382,0,1,1-.019.764Z" fill="none" stroke="#000" stroke-width="1"/>
  <path id="Path_8079" data-name="Path 8079" d="M127.076,329.078H99.04a.383.383,0,0,1,0-.765h28.036a.383.383,0,0,1,0,.765"/>
  <path id="Path_8080" data-name="Path 8080" d="M127.076,329.078H99.04a.383.383,0,0,1,0-.765h28.036a.383.383,0,0,1,0,.765Z" fill="none" stroke="#000" stroke-width="1"/>
  <path id="Path_8081" data-name="Path 8081" d="M64.508,238.036h5.05a.711.711,0,0,0,.711-.711v-24.65a.711.711,0,0,0-.711-.711h-5.05a.711.711,0,0,0-.711.711V237.32a.711.711,0,0,0,.711.711" fill="#a62973"/>
  <rect id="Rectangle_1464" data-name="Rectangle 1464" width="6.473" height="26.068" rx="0.952" transform="translate(63.798 211.963)" fill="none" stroke="#000" stroke-width="2"/>
  <path id="Path_8082" data-name="Path 8082" d="M112.362,219.889a4.1,4.1,0,1,0,4.1-4.1,4.1,4.1,0,0,0-4.1,4.1" fill="#fff"/>
  <path id="Path_8083" data-name="Path 8083" d="M74.007,176.505s3.23,10.84,2.143,10.628-7.56-6.023-7.56-6.023-4.717,5.987-6.261,6.026-2.087-11.62-2.087-11.62,1.6,3.648,7.316,4.467,6.448-3.478,6.448-3.478" fill="#a62973"/>
  <path id="Path_8084" data-name="Path 8084" d="M74.007,176.505s3.23,10.84,2.143,10.628-7.56-6.023-7.56-6.023-4.717,5.987-6.261,6.026-2.087-11.62-2.087-11.62,1.6,3.648,7.316,4.467S74.007,176.505,74.007,176.505Z" fill="none" stroke="#000" stroke-width="2"/>
  <path id="Path_8085" data-name="Path 8085" d="M23.418,378.875a2.783,2.783,0,0,0,2.783-2.783h0V242.379H20.634V376.091a2.783,2.783,0,0,0,2.784,2.784" fill="#b8b0bf"/>
  <path id="Path_8086" data-name="Path 8086" d="M352.447,163.017a43.167,43.167,0,0,1-28.311,15.69c-18.413,2.064-29.8-8.015-29.8-8.015l-7.964-38.686s18.215,9.125,33.536,14.969c9.024,3.442,23.829-3.84,23.829-3.84Z" fill="#a62973"/>
  <path id="Path_8087" data-name="Path 8087" d="M352.447,163.017a43.167,43.167,0,0,1-28.311,15.69c-18.413,2.064-29.8-8.015-29.8-8.015l-7.964-38.686s18.215,9.125,33.536,14.969c9.024,3.442,23.829-3.84,23.829-3.84Z" fill="none" stroke="#000" stroke-width="2"/>
  <path id="Path_8088" data-name="Path 8088" d="M344.774,145.8s2.5-11.158,5.567-11.385S351,143.4,351,143.4l8.307-3.177s9.454-2.636,11.334-1.813-1.216,3.889-1.216,3.889,6.732-2.02,5.788,1.261-5.55,5.169-5.55,5.169,6.58-2.332,5.094,1.514c-.8,2.079-15.273,10.841-25.024,10.528s-5.86-7.833-5.86-7.833Z" fill="#f48462"/>
  <path id="Path_8089" data-name="Path 8089" d="M366.039,150.845a.394.394,0,0,1-.256-.1l-8.371-7.152a.4.4,0,0,1,.513-.6l8.371,7.153a.4.4,0,0,1-.256.695"/>
  <path id="Path_8090" data-name="Path 8090" d="M348.441,154.924a.395.395,0,0,1-.031-.788,5.021,5.021,0,0,0,3.644-2.188c.951-1.684.636-4.149-.936-7.328a.395.395,0,0,1,.7-.366l.008.016c1.7,3.431,2,6.146.911,8.073a5.738,5.738,0,0,1-4.263,2.579h-.032"/>
  <path id="Path_8091" data-name="Path 8091" d="M280.693,99.818s-11.154-8.647-20.676-2.759-5.849,18.218-5.849,18.218-11.822,3.231-13.526,18.25,12.574,17.864,12.574,17.864l20.523-12.157Z"/>
  <path id="Path_8092" data-name="Path 8092" d="M280.693,99.818s-11.154-8.647-20.676-2.759-5.849,18.218-5.849,18.218-11.822,3.231-13.526,18.25,12.574,17.864,12.574,17.864l20.523-12.157Z" fill="none" stroke="#000" stroke-width="2"/>
  <path id="Path_8093" data-name="Path 8093" d="M247.783,333.582S293.6,322.835,298.936,288.2c6.569-42.6-5.071-63.474-5.071-63.474l-29.931,35.721-8.982,43.164-11.836,8.563-6.587,13.958Z" fill="#f27a5f"/>
  <path id="Path_8094" data-name="Path 8094" d="M247.783,333.582S293.6,322.835,298.936,288.2c6.569-42.6-5.071-63.474-5.071-63.474l-29.931,35.721-8.982,43.164-11.836,8.563-6.587,13.958Z" fill="none" stroke="#000" stroke-width="2"/>
  <path id="Path_8095" data-name="Path 8095" d="M223.193,308.526a3.284,3.284,0,0,1,3.409-2.974c7.138.086,23.149-.6,23.133.707-.019,1.662-4.776,18.283-4.776,18.283s9.884.6,8.024,7.457c-1.428,5.264-7.792,11.306-10.677,13.832a5.951,5.951,0,0,0-1.859,2.967c-1.29,4.9-5.494,18.387-12.756,18.492-8.879.128-7.82-3.42-7.8-5.081.018-1.426,2.577-42.171,3.3-53.682" fill="#a62973"/>
  <path id="Path_8096" data-name="Path 8096" d="M223.193,308.526a3.284,3.284,0,0,1,3.409-2.974c7.138.086,23.149-.6,23.133.707-.019,1.662-4.776,18.283-4.776,18.283s9.884.6,8.024,7.457c-1.428,5.264-7.792,11.306-10.677,13.832a5.951,5.951,0,0,0-1.859,2.967c-1.29,4.9-5.494,18.387-12.756,18.492-8.879.128-7.82-3.42-7.8-5.081C219.908,360.783,222.467,320.037,223.193,308.526Z" fill="none" stroke="#000" stroke-width="2"/>
  <path id="Path_8097" data-name="Path 8097" d="M279.323,260.451s-2.624,82.985-6.142,91.762-22.745,0-22.745,0l-4.542-89.92Z" fill="#f48462"/>
  <path id="Path_8098" data-name="Path 8098" d="M279.323,260.451s-2.624,82.985-6.142,91.762-22.745,0-22.745,0l-4.542-89.92Z" fill="none" stroke="#000" stroke-width="2"/>
  <path id="Path_8099" data-name="Path 8099" d="M298.936,200.11s3.254,18.384,3.254,32.09,1.606,28.75,0,30.089-17.544,5.827-36.81,4.823-25.047-5.5-24.726-7.1,2.569-2.94,2.569-2.94-1.284-39.625,3.854-50.231,27.04-12.919,27.04-12.919h23.556Z" fill="#672376"/>
  <path id="Path_8100" data-name="Path 8100" d="M298.936,200.11s3.254,18.384,3.254,32.09,1.606,28.75,0,30.089-17.544,5.827-36.81,4.823-25.047-5.5-24.726-7.1,2.569-2.94,2.569-2.94-1.284-39.625,3.854-50.231,27.04-12.919,27.04-12.919h23.556Z" fill="none" stroke="#000" stroke-width="2"/>
  <path id="Path_8101" data-name="Path 8101" d="M252.354,375.543A3.287,3.287,0,0,1,249.2,372.3c-.294-7.133-1.827-23.084-.526-23.137,1.66-.068,18.511,3.8,18.511,3.8s.07-9.9,7.019-8.41c5.333,1.145,11.7,7.18,14.38,9.925a5.953,5.953,0,0,0,3.062,1.7c4.966,1.027,18.653,4.505,19.144,11.752.6,8.859-3,7.991-4.658,8.059-1.425.058-42.248-.328-53.781-.439" fill="#a62973"/>
  <path id="Path_8102" data-name="Path 8102" d="M252.354,375.543A3.287,3.287,0,0,1,249.2,372.3c-.294-7.133-1.827-23.084-.526-23.137,1.66-.068,18.511,3.8,18.511,3.8s.07-9.9,7.019-8.41c5.333,1.145,11.7,7.18,14.38,9.925a5.953,5.953,0,0,0,3.062,1.7c4.966,1.027,18.653,4.505,19.144,11.752.6,8.859-3,7.991-4.658,8.059C304.711,376.04,263.888,375.654,252.354,375.543Z" fill="none" stroke="#000" stroke-width="2"/>
  <path id="Path_8103" data-name="Path 8103" d="M269.476,193.985s17.351,2.869,20.78,6.026-4.888,15.271-7.025,17.236-17.365-8.006-17.365-8.006l-2.2-8.7Z" fill="#f48462"/>
  <path id="Path_8104" data-name="Path 8104" d="M290.256,200.011s7.251,10.366,6.053,14.643-9.934-8.947-9.934-8.947Z" fill="#f48462"/>
  <path id="Path_8105" data-name="Path 8105" d="M277.483,214.371s-8.984-1.269-7.212,1.988,11.373,2.691,12.962.888-3.424-6.724-3.424-6.724Z" fill="#f48462"/>
  <path id="Path_8106" data-name="Path 8106" d="M276.321,215.387a.394.394,0,0,1-.14-.025l-2.581-.983a.394.394,0,0,1-.094-.685l2.057-1.522a.394.394,0,1,1,.483.623l-.014.01-1.477,1.094,1.907.726a.394.394,0,0,1-.14.763"/>
  <path id="Path_8107" data-name="Path 8107" d="M289.214,209.074a.4.4,0,0,1-.368-.252c-.6-1.545-1.751-4.171-2.306-4.644a.395.395,0,1,1,.469-.635.279.279,0,0,1,.042.035c.891.758,2.366,4.532,2.532,4.961a.4.4,0,0,1-.226.509.381.381,0,0,1-.142.027"/>
  <path id="Path_8108" data-name="Path 8108" d="M286.469,213.453a.393.393,0,0,1-.353-.216l-3.122-6.154a.395.395,0,0,1,.7-.357l3.118,6.157a.395.395,0,0,1-.351.573"/>
  <path id="Path_8109" data-name="Path 8109" d="M265.882,198.357s22.886,1.4,32.069-3.071l-.542-27.5s-4.988-35.223-12.144-35.974a59.693,59.693,0,0,0-13.473.2l-25.234,32.9Z" fill="#a62973"/>
  <path id="Path_8110" data-name="Path 8110" d="M265.882,198.357s22.886,1.4,32.069-3.071l-.542-27.5s-4.988-35.223-12.144-35.974a59.693,59.693,0,0,0-13.473.2l-25.234,32.9Z" fill="none" stroke="#000" stroke-width="2"/>
  <path id="Path_8111" data-name="Path 8111" d="M271.79,132.006s-44.96,5.278-44.358,49.736c.369,27.254,37.1,35.411,37.1,35.411l11.343-28.076L256.929,178.24Z" fill="#a62973"/>
  <path id="Path_8112" data-name="Path 8112" d="M271.79,132.006s-44.96,5.278-44.358,49.736c.369,27.254,37.1,35.411,37.1,35.411l11.343-28.076L256.929,178.24Z" fill="none" stroke="#000" stroke-width="2"/>
  <path id="Path_8113" data-name="Path 8113" d="M289.718,117.275a11.81,11.81,0,0,0,2.249-9.452c-.707-3.872-2.452-5.1-2.452-5.1s2.557-5.334-5.27-4.9a22,22,0,0,0-12.381,4.34s-3.6-1.708-5.151,2.489.144,10.332.144,10.332Z"/>
  <path id="Path_8114" data-name="Path 8114" d="M272.616,123.969l.374,9.556s1.83,2.68,7.439,2.916c4.178.176,5.413-2.015,5.413-2.015l-1.335-8.323-10.182-1.826Z" fill="#f48462"/>
  <path id="Path_8115" data-name="Path 8115" d="M272.616,123.969l.374,9.556s1.83,2.68,7.439,2.916c4.178.176,5.413-2.015,5.413-2.015l-1.335-8.323-10.182-1.826Z" fill="none" stroke="#000" stroke-width="2"/>
  <path id="Path_8116" data-name="Path 8116" d="M272.608,123.386a3.136,3.136,0,0,0,.314.911c2.325,4.69,9.928,6.383,12.342,6.5l-.757-4.7Z"/>
  <path id="Path_8117" data-name="Path 8117" d="M285.787,104.238s5.484,11.786,3.767,18.52-7.837,5.825-11.515,4.618a12.07,12.07,0,0,1-5.423-3.4,5.143,5.143,0,0,1-5.733-1.878c-2.353-3.115-1.036-6.785.889-7.665s4.272.471,4.272.471l-1.9-3.418s7.213-17.767,15.637-7.243" fill="#f48462"/>
  <path id="Path_8118" data-name="Path 8118" d="M285.787,104.238s5.484,11.786,3.767,18.52-7.837,5.825-11.515,4.618a12.07,12.07,0,0,1-5.423-3.4,5.143,5.143,0,0,1-5.733-1.878c-2.353-3.115-1.036-6.785.889-7.665s4.272.471,4.272.471l-1.9-3.418S277.362,93.713,285.787,104.238Z" fill="none" stroke="#000" stroke-width="2"/>
  <path id="Path_8119" data-name="Path 8119" d="M272.044,114.9s5.136.962,8.615-4.788,3.118-8.085,3.118-8.085l3.627,5.834s.736-4.09-.932-6.669-3.355-2.015-3.355-2.015l-11.254,2.979-2.847,9.094Z"/>
  <path id="Path_8120" data-name="Path 8120" d="M285.586,119.393a.412.412,0,0,1-.11-.016.4.4,0,0,1-.269-.489c.64-2.2-1.037-4.531-1.054-4.555a.395.395,0,0,1,.637-.465c.079.108,1.922,2.674,1.174,5.241a.4.4,0,0,1-.379.285"/>
  <path id="Path_8121" data-name="Path 8121" d="M271.626,120.509a.394.394,0,0,1-.282-.119l-3.292-3.374a.394.394,0,0,1,.564-.551l3.293,3.373a.4.4,0,0,1-.282.671"/>
  <path id="Path_8122" data-name="Path 8122" d="M268.185,119.648a.4.4,0,0,1-.065-.784l2.232-.377a.395.395,0,1,1,.132.778l-2.232.377a.379.379,0,0,1-.067.006"/>
  <path id="Path_8123" data-name="Path 8123" d="M287.744,109.611a.446.446,0,0,1-.063,0l-2.12-.338a.4.4,0,0,1-.328-.452.389.389,0,0,1,.441-.329l.011,0,2.12.338a.395.395,0,0,1-.061.784"/>
  <path id="Path_8124" data-name="Path 8124" d="M278.971,111.123a.4.4,0,0,1-.184-.744l3.444-1.805a.4.4,0,1,1,.367.7l-3.444,1.805a.4.4,0,0,1-.183.045"/>
  <path id="Path_8125" data-name="Path 8125" d="M287.813,114.5a.4.4,0,0,1-.376-.273l-.69-2.141a.392.392,0,0,1,.066-.366l.649-.817a.4.4,0,0,1,.618.491l-.518.652.626,1.939a.4.4,0,0,1-.255.5.383.383,0,0,1-.121.019"/>
  <path id="Path_8126" data-name="Path 8126" d="M281.8,115.158a.4.4,0,0,1-.376-.273l-.69-2.141a.4.4,0,0,1,.073-.374l.9-1.077a.395.395,0,0,1,.607.5l-.758.911.624,1.934a.4.4,0,0,1-.255.5.382.382,0,0,1-.121.019"/>
  <path id="Path_8127" data-name="Path 8127" d="M275.262,355.887a.379.379,0,0,1-.116-.018l-8.076-2.548a.384.384,0,1,1,.232-.733l8.076,2.547a.385.385,0,0,1-.116.752" fill="#f7b369"/>
  <path id="Path_8128" data-name="Path 8128" d="M275.262,355.887a.379.379,0,0,1-.116-.018l-8.076-2.548a.384.384,0,1,1,.232-.733l8.076,2.547a.385.385,0,0,1-.116.752Z" fill="none" stroke="#000" stroke-width="1"/>
  <path id="Path_8129" data-name="Path 8129" d="M240.641,332.213a.385.385,0,0,1-.33-.581l4.317-7.286a.385.385,0,1,1,.67.38l-.008.013-4.317,7.286a.386.386,0,0,1-.332.188" fill="#f7b369"/>
  <path id="Path_8130" data-name="Path 8130" d="M240.641,332.213a.385.385,0,0,1-.33-.581l4.317-7.286a.385.385,0,1,1,.67.38l-.008.013-4.317,7.286A.386.386,0,0,1,240.641,332.213Z" fill="none" stroke="#000" stroke-width="1"/>
  <path id="Path_8131" data-name="Path 8131" d="M269.846,186.044a.384.384,0,0,1-.241-.051c-.127-.075-12.811-7.568-17.435-8.621a.385.385,0,0,1,.171-.751c4.742,1.08,17.132,8.4,17.657,8.71a.385.385,0,0,1-.152.713" fill="#fff"/>
  <path id="Path_8132" data-name="Path 8132" d="M269.846,186.044a.384.384,0,0,1-.241-.051c-.127-.075-12.811-7.568-17.435-8.621a.385.385,0,0,1,.171-.751c4.742,1.08,17.132,8.4,17.657,8.71a.385.385,0,0,1-.152.713Z" fill="none" stroke="#000" stroke-width="1"/>
  <path id="Path_8133" data-name="Path 8133" d="M256.192,179.015a.383.383,0,0,1-.275-.116c-.458-.468-4.455-4.648-4.013-7.143a1.885,1.885,0,0,1,1.108-1.4,1.623,1.623,0,0,1,1.664.04c2,1.288,1.916,7.539,1.9,8.248a.384.384,0,0,1-.244.35.4.4,0,0,1-.141.026m-2.341-8.1a1.193,1.193,0,0,0-.507.132,1.11,1.11,0,0,0-.683.844c-.267,1.505,1.792,4.224,3.145,5.756-.044-2.183-.365-5.845-1.547-6.608a.733.733,0,0,0-.408-.124" fill="#fff"/>
  <path id="Path_8134" data-name="Path 8134" d="M256.192,179.015a.383.383,0,0,1-.275-.116c-.458-.468-4.455-4.648-4.013-7.143a1.885,1.885,0,0,1,1.108-1.4,1.623,1.623,0,0,1,1.664.04c2,1.288,1.916,7.539,1.9,8.248a.384.384,0,0,1-.244.35A.39.39,0,0,1,256.192,179.015Zm-2.341-8.1a1.194,1.194,0,0,0-.507.132,1.11,1.11,0,0,0-.683.844c-.267,1.5,1.792,4.224,3.145,5.756-.044-2.183-.365-5.845-1.547-6.608a.723.723,0,0,0-.408-.126Z" fill="none" stroke="#000" stroke-width="1"/>
  <path id="Path_8135" data-name="Path 8135" d="M281.275,136.866c-.279,0-.573-.013-.88-.04a18.784,18.784,0,0,1-7.623-2.983.385.385,0,0,1,.436-.634,18.336,18.336,0,0,0,7.256,2.85c3.726.346,4.994-1.736,5.045-1.824a.385.385,0,0,1,.666.385c-.056.1-1.334,2.247-4.9,2.247" fill="#fff"/>
  <path id="Path_8136" data-name="Path 8136" d="M281.275,136.866c-.279,0-.573-.013-.88-.04a18.784,18.784,0,0,1-7.623-2.983.385.385,0,0,1,.436-.634,18.336,18.336,0,0,0,7.256,2.85c3.726.346,4.994-1.736,5.045-1.824a.385.385,0,0,1,.666.385C286.12,134.716,284.842,136.866,281.275,136.866Z" fill="none" stroke="#000" stroke-width="1"/>
  <path id="Path_8137" data-name="Path 8137" d="M318.889,157.59a2.238,2.238,0,0,1-.4-.037,1.9,1.9,0,0,1-1.436-1.068c-1.269-2.641,2.359-9.407,2.515-9.7a.379.379,0,0,1,.391-.2.385.385,0,0,1,.324.3c.187.831,1.768,8.175-.147,10.173a1.682,1.682,0,0,1-1.25.527m.863-9.46c-1.121,2.3-2.785,6.392-2,8.023a1.117,1.117,0,0,0,.88.643.973.973,0,0,0,.953-.265c1.193-1.243.65-5.8.169-8.4" fill="#fff"/>
  <path id="Path_8138" data-name="Path 8138" d="M318.889,157.59a2.238,2.238,0,0,1-.4-.037,1.9,1.9,0,0,1-1.436-1.068c-1.269-2.641,2.359-9.407,2.515-9.7a.38.38,0,0,1,.391-.2.385.385,0,0,1,.324.3c.187.831,1.768,8.175-.147,10.173A1.68,1.68,0,0,1,318.889,157.59Zm.863-9.46c-1.121,2.3-2.785,6.392-2,8.023a1.117,1.117,0,0,0,.88.643.973.973,0,0,0,.953-.265c1.191-1.243.648-5.8.167-8.4Z" fill="none" stroke="#000" stroke-width="1"/>
  <path id="Path_8139" data-name="Path 8139" d="M283.371,122.3c-.487,0-1.725-.194-2.8-1.984a.395.395,0,0,1,.677-.406c1.043,1.744,2.15,1.6,2.2,1.6a.4.4,0,0,1,.45.327.392.392,0,0,1-.318.451,1.352,1.352,0,0,1-.211.014"/>
  <path id="Path_8140" data-name="Path 8140" d="M547.139,49.34H484.25a7.671,7.671,0,0,1-7.663-7.662V13.925a7.672,7.672,0,0,1,7.663-7.663h62.888a7.671,7.671,0,0,1,7.662,7.663V41.677a7.67,7.67,0,0,1-7.662,7.662M484.25,7.351a6.582,6.582,0,0,0-6.575,6.575V41.677a6.58,6.58,0,0,0,6.575,6.574h62.888a6.581,6.581,0,0,0,6.574-6.574V13.925a6.582,6.582,0,0,0-6.574-6.575Z" fill="#40507f"/>
  <path id="Path_8141" data-name="Path 8141" d="M554.256,16.536H477.131a.545.545,0,0,1,0-1.089h77.125a.545.545,0,0,1,0,1.089" fill="#40507f"/>
  <path id="Path_8142" data-name="Path 8142" d="M536.1,11.114a1.573,1.573,0,1,1-1.573-1.572A1.573,1.573,0,0,1,536.1,11.114Z" fill="#40507f"/>
  <path id="Path_8143" data-name="Path 8143" d="M542.089,11.114a1.573,1.573,0,1,1-1.573-1.572A1.573,1.573,0,0,1,542.089,11.114Z" fill="#40507f"/>
  <path id="Path_8144" data-name="Path 8144" d="M548.33,11.114a1.573,1.573,0,1,1-1.572-1.572A1.573,1.573,0,0,1,548.33,11.114Z" fill="#40507f"/>
  <rect id="Rectangle_1465" data-name="Rectangle 1465" width="667" height="386" fill="none"/>
</svg>
