<?xml version="1.0" encoding="UTF-8"?>
<svg id="Layer_2" data-name="Layer 2" xmlns="http://www.w3.org/2000/svg" xmlns:xlink="http://www.w3.org/1999/xlink" viewBox="0 0 240 240">
  <defs>
    <style>
      .cls-1, .cls-2, .cls-3, .cls-4, .cls-5, .cls-6, .cls-7, .cls-8, .cls-9 {
        stroke-width: 0px;
      }

      .cls-1, .cls-10 {
        fill: #f9a826;
      }

      .cls-2 {
        fill: #e4e4e4;
      }

      .cls-11 {
        fill: #3f3d56;
      }

      .cls-11, .cls-10, .cls-12, .cls-13, .cls-14, .cls-15, .cls-16, .cls-17 {
        stroke: #000;
        stroke-miterlimit: 10;
        stroke-width: .5px;
      }

      .cls-12 {
        fill: #4d4d4d;
      }

      .cls-13, .cls-9 {
        fill: #f2f2f2;
      }

      .cls-3 {
        fill: #f0f0f0;
      }

      .cls-4, .cls-6 {
        fill: none;
      }

      .cls-18 {
        clip-path: url(#clippath-1);
      }

      .cls-5 {
        fill: #333;
      }

      .cls-14 {
        fill: #a62973;
      }

      .cls-6 {
        opacity: .5;
      }

      .cls-15 {
        fill: #666;
      }

      .cls-19 {
        clip-path: url(#clippath);
      }

      .cls-20 {
        opacity: .3;
      }

      .cls-7 {
        fill: #ff6584;
      }

      .cls-16 {
        fill: #2f2e41;
      }

      .cls-8 {
        fill: #cacaca;
      }

      .cls-17 {
        fill: #a0616a;
      }
    </style>
    <clipPath id="clippath">
      <rect class="cls-4" x="103.57" y="84.7" width="39.63" height="12.89"/>
    </clipPath>
    <clipPath id="clippath-1">
      <rect class="cls-4" x="21.42" y="71.4" width="13.84" height="23.53"/>
    </clipPath>
  </defs>
  <g id="Layer_2-2" data-name="Layer 2">
    <g>
      <rect class="cls-6" width="240" height="240"/>
      <rect class="cls-6" x="10" y="10" width="220" height="220"/>
      <g>
        <polygon class="cls-17" points="192.23 71.39 191.7 74.31 198.29 75.11 198.44 72.01 192.23 71.39"/>
        <path id="Path_4440" data-name="Path 4440" class="cls-17" d="m212.44,194.42l-4.15,1.09-6.18-15.49,6.13-1.61,4.21,16.01Z"/>
        <path id="Path_4441" data-name="Path 4441" class="cls-14" d="m213.72,198.71l-12.76,3.35-.04-.16c-.72-2.74.92-5.55,3.66-6.28,0,0,0,0,0,0h0l1.87-2.38,4.82.63,1.11-.29,1.35,5.13Z"/>
        <path id="Path_4442" data-name="Path 4442" class="cls-17" d="m191.16,197.52h-4.29l-2.04-16.55h6.33v16.55Z"/>
        <path id="Path_4443" data-name="Path 4443" class="cls-14" d="m191.31,202h-13.2v-.17c0-2.84,2.3-5.14,5.14-5.14h0l2.41-1.83,4.5,1.83h1.15v5.3Z"/>
        <path id="Path_4444" data-name="Path 4444" class="cls-12" d="m201.89,118.31c1.04,1.3.51,5.7.51,5.7,0,0,1.81,14.26,1.04,15.55s.51,2.33,1.3,4.15c.68,2.03,1.2,4.11,1.55,6.22,4.41,3.63,4.15,20.22,4.15,20.22l1.55,14.77c-.51,1.55-7.78,1.81-8.81,1.55-.94-.23-12.38-45.67-13.98-51.4-.04-.14-.25-.11-.25.04.08,5.7,3.59,49.96,3.59,51.36,0,1.55-7,.78-8.55.78s-11.4-63.5-11.4-63.5v-3.63l1.3-1.81s26.96-1.3,27.99,0"/>
        <path id="Path_4413" data-name="Path 4413" class="cls-5" d="m148.62,81.26c-9.47-6.11-22.51-3.74-31.74,2.74-3.01,2.14-5.78,4.61-8.25,7.36-1.44,1.58-2.81,3.24-4.12,4.95-.32.42-.64.85-.96,1.28-.21.29-.43.58-.64.88-2.65,3.68-5.08,7.56-7.45,11.39-5.93,9.58-12.02,19.45-21.06,26.17-1.86,1.39-4.46,2.63-6.37,1.31-1.66-1.15-1.73-3.57-1.35-5.54,1.4-7.34,6.46-13.41,11.83-18.6,5.37-5.19,11.32-9.95,15.37-16.22,4.05-6.27,5.91-14.64,2.36-21.21-3.06-5.66-9.65-8.83-16.09-8.98-6.43-.15-12.68,2.35-18.12,5.79-5.44,3.43-10.23,7.79-15.22,11.85-3.01,2.45-7.21,4.88-10.49,2.8-2.77-1.75-2.98-5.96-1.34-8.79,1.65-2.83,4.6-4.61,7.42-6.27l26.32-15.46c2.69-1.58,5.44-3.21,7.43-5.62,1.99-2.41,3.09-5.79,2-8.71-1.08-2.88-4.1-4.71-7.15-5.09-3.08-.23-6.17.33-8.98,1.61-10.7,4.3-35.88,32.4-42.6,37.21-4.31,3.09-8.85,7-9.28,12.28-.54,6.58,6,12.04,12.58,12.68,6.57.64,12.94-2.22,18.81-5.24,5.87-3.02,11.86-6.35,18.45-6.77s13.98,3.1,15.55,9.52c1.36,5.58-2.09,11.34-6.59,14.92-3.52,2.8-7.66,4.66-11.65,6.75-1.11.58-2.21,1.18-3.28,1.82-2.74,1.64-5.3,3.57-7.64,5.74-2.46,2.28-4.66,4.82-6.58,7.57-1.53,2.19-2.86,4.51-3.99,6.94-.17.37-.34.75-.5,1.13-.15.36-.3.73-.44,1.11-1.83,4.83-2.55,10.24-.21,14.74s7.39,7.15,12.44,7.52c2.92.17,5.85-.21,8.62-1.14,2.04-.66,4.02-1.51,5.9-2.54,8.75-4.69,15.67-12.13,21.99-19.79,6.32-7.65,12.27-15.71,19.78-22.2,7.5-6.49,16.9-11.41,26.83-11.33s20.15,6.12,22.97,15.64c4.11-7.08,6.89-15.15,6.52-23.32-.37-8.18-4.22-16.43-11.1-20.86"/>
        <path id="Path_4414" data-name="Path 4414" class="cls-1" d="m110.12,105.53c-.6,0-1.09.49-1.09,1.09,0,.6.49,1.09,1.09,1.09s1.09-.49,1.09-1.09-.49-1.09-1.09-1.09h0"/>
        <path id="Path_4415" data-name="Path 4415" class="cls-7" d="m151.2,105.9c-.93,0-1.69.75-1.69,1.69,0,.93.75,1.69,1.69,1.69s1.69-.75,1.69-1.69h0c0-.93-.75-1.69-1.69-1.69"/>
        <path id="Path_4416" data-name="Path 4416" class="cls-7" d="m29.37,93.11c-.34,0-.62.28-.62.62s.28.62.62.62.62-.28.62-.62h0c0-.34-.28-.62-.62-.62"/>
        <path id="Path_4417" data-name="Path 4417" class="cls-7" d="m41.97,59.64c-.34,0-.62.28-.62.62,0,.34.28.62.62.62.34,0,.62-.28.62-.62h0c0-.34-.28-.62-.62-.62"/>
        <path id="Path_4418" data-name="Path 4418" class="cls-7" d="m58,121.7c-.18-.51-.42-1-.71-1.45-1.11.58-2.21,1.18-3.28,1.82-2.74,1.64-5.3,3.57-7.64,5.74,2.17,2.96,6.33,3.59,9.29,1.42,2.35-1.73,3.29-4.78,2.34-7.53h0Z"/>
        <path id="Path_4419" data-name="Path 4419" class="cls-3" d="m137.43,100.15c-.35,0-.64.28-.64.64s.29.64.64.64c.35,0,.64-.29.64-.64h0c0-.35-.29-.64-.64-.64"/>
        <path id="Path_4420" data-name="Path 4420" class="cls-3" d="m59.39,53.03c-.35,0-.64.29-.64.64s.29.64.64.64c.35,0,.64-.29.64-.64s-.29-.64-.64-.64h0"/>
        <path id="Path_4421" data-name="Path 4421" class="cls-3" d="m65.12,41.68c-.35,0-.64.29-.64.64s.29.64.64.64c.35,0,.64-.29.64-.64s-.29-.64-.64-.64h0"/>
        <path id="Path_4422" data-name="Path 4422" class="cls-3" d="m20.02,83.97c-.35,0-.64.29-.64.64,0,.35.29.64.64.64s.64-.29.64-.64-.29-.64-.64-.64h0"/>
        <path id="Path_4423" data-name="Path 4423" class="cls-3" d="m53.48,84.89c-.35,0-.64.29-.64.64,0,.35.29.64.64.64s.64-.29.64-.64-.29-.64-.64-.64h0"/>
        <path id="Path_4424" data-name="Path 4424" class="cls-3" d="m71.23,145.65c-.35,0-.64.29-.64.64s.29.64.64.64.64-.29.64-.64h0c0-.35-.29-.64-.64-.64"/>
        <path id="Path_4425" data-name="Path 4425" class="cls-3" d="m91.25,85.89c-.35,0-.64.29-.64.64s.29.64.64.64.64-.29.64-.64-.29-.64-.64-.64h0"/>
        <path id="Path_4426" data-name="Path 4426" class="cls-3" d="m92.14,73.85c-.35,0-.64.29-.64.64s.29.64.64.64c.35,0,.64-.29.64-.64s-.29-.64-.64-.64h0"/>
        <path id="Path_4427" data-name="Path 4427" class="cls-1" d="m57.22,148.99c-1.05-3.04-2.81-5.79-5.13-8.01-.31-.29-.62-.58-.95-.85-3.21-2.71-7.17-4.37-11.36-4.75-1.53,2.19-2.86,4.51-3.99,6.93-.17.37-.34.75-.5,1.13-.15.36-.3.73-.44,1.11-1.83,4.83-2.55,10.24-.21,14.74,2.34,4.51,7.39,7.16,12.44,7.52,2.92.17,5.85-.21,8.62-1.14,1.5-2.67,2.39-5.64,2.59-8.69.02-.38.04-.77.04-1.16.02-2.32-.37-4.63-1.13-6.83"/>
        <path id="Path_4428" data-name="Path 4428" class="cls-2" d="m65.65,144.96c-1.02-2.95-4.85-4.68-10.78-4.89-1.19-.04-2.49.45-3.72.06-5.48-1.95-11.6-.67-15.85,3.31-.15.36-.3.73-.44,1.11.06-.02.12-.04.18-.06,5.49-1.97,11.23-3.15,17.05-3.5.95-.04,2.08-.59,2.75-.01,5.41,4.61,9.07,2.68,9.96,4.28,1.3,2.35-1,6.01-5.17,9.53-.41.35-.84.69-1.29,1.04,0,.39-.02.77-.04,1.16.67-.5,1.31-1,1.91-1.51,4.53-3.83,6.46-7.57,5.43-10.52"/>
        <path id="Path_4429" data-name="Path 4429" class="cls-3" d="m43.23,164.56c-.35,0-.64.29-.64.64,0,.35.29.64.64.64s.64-.29.64-.64h0c0-.35-.29-.64-.64-.64"/>
        <path id="Path_4430" data-name="Path 4430" class="cls-3" d="m54.5,156.37c-.35,0-.64.29-.64.64,0,.35.29.64.64.64s.64-.29.64-.64h0c0-.35-.29-.64-.64-.64"/>
        <path id="Path_4431" data-name="Path 4431" class="cls-3" d="m45.87,146.99c-3.42,0-6.19,2.77-6.19,6.19,0,3.42,2.77,6.19,6.19,6.19s6.19-2.77,6.19-6.19c0-3.42-2.77-6.19-6.19-6.19h0"/>
        <g id="Group_1181" data-name="Group 1181" class="cls-20">
          <g id="Group_1180" data-name="Group 1180">
            <g class="cls-19">
              <g id="Group_1179" data-name="Group 1179">
                <path id="Path_4432" data-name="Path 4432" class="cls-3" d="m143.2,84.7c-2.61.34-5.18.92-7.69,1.72-3.24.93-6.76,2.07-10.23,3.19l-18.24,5.89c-.84.27-1.67.54-2.51.82-.32.42-.64.85-.96,1.28.74-.26,1.48-.51,2.22-.75,3.16-1.03,5.9-1.7,8.97-2.64,4.72-1.44,9.7-3.32,14.52-5.08,4.55-1.74,9.2-3.21,13.92-4.42"/>
              </g>
            </g>
          </g>
        </g>
        <g id="Group_1184" data-name="Group 1184" class="cls-20">
          <g id="Group_1183" data-name="Group 1183">
            <g class="cls-18">
              <g id="Group_1182" data-name="Group 1182">
                <path id="Path_4433" data-name="Path 4433" class="cls-3" d="m35.1,72.23l-13.68,22.7,12.9-23.15c.05-.26.3-.42.56-.37.26.05.42.3.37.56-.02.1-.07.19-.15.26"/>
              </g>
            </g>
          </g>
        </g>
        <path id="Path_4434" data-name="Path 4434" class="cls-3" d="m41.77,137.95c-.35,0-.64.29-.64.64,0,.35.29.64.64.64s.64-.29.64-.64h0c0-.35-.29-.64-.64-.64"/>
        <path id="Path_4435" data-name="Path 4435" class="cls-10" d="m153.49,128.96c-2.26,0-4.08,1.83-4.08,4.08s1.83,4.08,4.08,4.08,4.08-1.83,4.08-4.08h0c0-2.26-1.83-4.08-4.08-4.08"/>
        <path id="Path_4436" data-name="Path 4436" class="cls-17" d="m155.91,130.8c1.56-.43,2.47-2.03,2.05-3.59-.05-.17-.11-.33-.18-.48l7.39-7.28-5.27-1.13-6.21,7.08c-1.42.79-1.92,2.58-1.13,3.99.66,1.19,2.05,1.77,3.36,1.4h0Z"/>
        <path id="Path_4437" data-name="Path 4437" class="cls-14" d="m191.26,74.15l-4.12,2.72-4.83,1.13s-3.83,27.36-5.71,29-.3,1.8-.81,4.06c-.51,2.26-1.69,6.89-1.69,6.89,11.46,7.1,21.7,7.97,30.43,1.17.28-.92-.12-1.92-.96-2.39-1.48-.92,1.73-4.51.51-5.23s.93-6.1.93-6.1l-.37-11.56,1.04-1.77-1.46-11.38-3.77-1.68-1.29-3.83-7.9-1.03Z"/>
        <path class="cls-15" d="m220.87,109.82c-.62-9.28-3.99-18.17-9.66-25.54-.73-2.83-5.03-4.16-5.03-4.16l-.08.07-.3-.26-6.36-4.05-7.44,32.15s-.55,21.27,9.23,22.73c7,1.04,5.81-10.78,4.57-17.58,5.49-.61,10.59-1.65,15.09-3.34Zm-10.47-6.13l-4.99.91,1.54-9.82,3.45,8.92Z"/>
        <path class="cls-15" d="m182.68,77.37s-3.95-.41-6.24,3.62c-.66.65-1.22,1.46-1.34,2.42-.31,2.63-9.3,17.12-9.96,19.96s-.39,1.26-.78,2.97c-.4,1.71-.09,2.98-.86,3.7s-4.37,6.34-4.56,8.4c-.14,1.36-2.42.32-2.9,1.6l6.89,6.38s4.6-5.8,8.35-10.26c-2.72,7.98-3.92,16.42,5.96,11l4.95-19.5,5.1-30.63,2.17-1.91-6.8,2.26Z"/>
        <path id="Path_4446" data-name="Path 4446" class="cls-17" d="m184.01,113.13c1.39.82,3.18.36,4-1.03,0,0,0,0,0,0,.09-.15.16-.3.22-.46l10.37.25-2.86-4.57-9.41.46c-1.55-.47-3.19.4-3.67,1.95-.4,1.31.16,2.72,1.34,3.4"/>
        <path id="Path_4447" data-name="Path 4447" class="cls-17" d="m196.09,55.96c-4.53,0-8.2,3.67-8.2,8.2s3.67,8.2,8.2,8.2c4.53,0,8.2-3.67,8.2-8.2s-3.67-8.2-8.2-8.2h0"/>
        <path id="Path_4448" data-name="Path 4448" class="cls-16" d="m205.39,58.77c-.92-1.47-2.6-2.29-4.32-2.11-.47-3.23-3.47-5.46-6.69-4.99-1.2.17-2.31.71-3.2,1.55-.53-.37-1.21-.44-1.8-.18-.58.26-1.08.66-1.46,1.17-1.96,2.44-2.41,5.76-1.19,8.64-.21-.74.54-1.44,1.29-1.61s1.54,0,2.31-.12c.98-.14,1.86-.71,2.84-.84.83-.05,1.67.05,2.46.32.79.26,1.62.37,2.46.33.82-.1,1.89,3.03,1.87,5.23,0,.42.08.95.49,1.04.5.11.79-.58,1.27-.77.46-.13.94.12,1.09.58.12.45.02.93-.28,1.29-.29.35-.64.65-1.03.9l.2.16c.39.41,1.01.48,1.48.18.45-.31.82-.72,1.06-1.21.92-1.43,1.58-3.01,1.95-4.67.36-1.68.07-3.43-.8-4.9"/>
        <path id="Path_4450" data-name="Path 4450" class="cls-9" d="m215.55,198.39l1.97-3.16.39,1.81c.07.32.14.64.21.96.56-.48,1.15-.92,1.74-1.34,1.78-1.3,3.57-2.59,5.36-3.89l-.56,3.24c-.26,2.01-.78,3.98-1.56,5.86-.09.21-.2.41-.31.61h-8.31c-.07-.18-.11-.38-.14-.57,0-.01,0-.03,0-.04.01-1.26.44-2.47,1.21-3.46"/>
        <path id="Path_4451" data-name="Path 4451" class="cls-9" d="m142.15,194.76l-3.72-5.98-.74,3.42c-.13.6-.26,1.21-.38,1.81-1.06-.9-2.18-1.74-3.28-2.54-3.38-2.45-6.76-4.91-10.13-7.37l1.06,6.13c.49,3.81,1.48,7.53,2.95,11.08.18.39.37.78.58,1.15h15.71c.13-.35.21-.71.26-1.08,0-.02,0-.05,0-.07.25-2.34-1.05-4.55-2.29-6.55"/>
        <path id="Path_4452" data-name="Path 4452" class="cls-13" d="m145.07,202.59h17.09c1.62,0,2.94-1.32,2.94-2.94v-59.97c0-1.62-1.32-2.94-2.94-2.94h-17.09c-1.62,0-2.94,1.32-2.94,2.94v59.97c0,1.62,1.32,2.94,2.94,2.94"/>
        <path id="Path_4453" data-name="Path 4453" class="cls-11" d="m149.11,138.27h8.77c.61,0,1.1-.49,1.1-1.1v-3.15c0-.61-.49-1.1-1.1-1.11h-8.77c-.61,0-1.1.5-1.1,1.11v3.15c0,.61.49,1.1,1.1,1.1"/>
        <path id="Path_4454" data-name="Path 4454" class="cls-8" d="m124.04,202.68l105.6.08c.17-.03.28-.19.25-.36-.02-.13-.12-.23-.25-.25l-105.6-.08c-.17.03-.28.19-.25.36.02.13.12.22.25.25"/>
        <line class="cls-16" x1="196.37" y1="106.24" x2="210.4" y2="103.69"/>
        <path class="cls-16" d="m197.03,113.53s7.64-.26,11.46-.73"/>
      </g>
    </g>
  </g>
</svg>