<?xml version="1.0" encoding="UTF-8"?>
<svg xmlns="http://www.w3.org/2000/svg" viewBox="0 0 240 240">
  <defs>
    <style>
      .cls-1, .cls-2, .cls-3, .cls-4, .cls-5, .cls-6, .cls-7, .cls-8, .cls-9, .cls-10, .cls-11, .cls-12, .cls-13, .cls-14, .cls-15, .cls-16, .cls-17, .cls-18, .cls-19, .cls-20, .cls-21, .cls-22, .cls-23, .cls-24 {
        stroke-width: 0px;
      }

      .cls-1, .cls-25 {
        fill: #672376;
      }

      .cls-26, .cls-27, .cls-25, .cls-28, .cls-29 {
        stroke-miterlimit: 10;
      }

      .cls-26, .cls-27, .cls-25, .cls-28, .cls-29, .cls-30 {
        stroke: #000;
        stroke-width: .5px;
      }

      .cls-26, .cls-9, .cls-19, .cls-21 {
        fill: #273141;
      }

      .cls-2 {
        fill: #384779;
      }

      .cls-3 {
        fill: #ff4949;
      }

      .cls-31, .cls-5, .cls-13, .cls-18 {
        mix-blend-mode: multiply;
      }

      .cls-31, .cls-13 {
        opacity: .7;
      }

      .cls-4 {
        fill: #fb847d;
      }

      .cls-27, .cls-5, .cls-7, .cls-13 {
        fill: #ffa47d;
      }

      .cls-5, .cls-9, .cls-12, .cls-17 {
        opacity: .5;
      }

      .cls-32 {
        isolation: isolate;
      }

      .cls-8 {
        fill: #ff9321;
      }

      .cls-9, .cls-12, .cls-14, .cls-19 {
        mix-blend-mode: overlay;
      }

      .cls-28 {
        fill: #3c0c47;
      }

      .cls-10 {
        fill: #cbddfa;
      }

      .cls-11 {
        fill: #ee5064;
      }

      .cls-12, .cls-14, .cls-15 {
        fill: #fff;
      }

      .cls-14 {
        opacity: .1;
      }

      .cls-29, .cls-20 {
        fill: #a62973;
      }

      .cls-16 {
        fill: #451351;
      }

      .cls-17 {
        fill: none;
      }

      .cls-19 {
        opacity: .4;
      }

      .cls-30 {
        fill: #5e003c;
        stroke-linejoin: bevel;
      }

      .cls-22 {
        fill: #ff9421;
      }

      .cls-23 {
        fill: #ff7a78;
      }

      .cls-24 {
        fill: #ffc63a;
      }
    </style>
  </defs>
  <g class="cls-32">
    <g id="Layer_2" data-name="Layer 2">
      <g id="Layer_2-2" data-name="Layer 2">
        <g>
          <rect class="cls-17" width="240" height="240"/>
          <rect class="cls-17" x="10" y="10" width="220" height="220"/>
          <g>
            <g>
              <g>
                <rect class="cls-15" x="20.75" y="71.36" width="32.4" height="42.31"/>
                <path class="cls-1" d="m51.48,67.84h-29.06c-.92,0-1.67.75-1.67,1.67v1.84h32.4v-1.84c0-.92-.75-1.67-1.67-1.67Z"/>
                <g>
                  <path class="cls-15" d="m23.91,69.6c0,.45-.36.81-.81.81s-.81-.36-.81-.81.36-.81.81-.81.81.36.81.81Z"/>
                  <path class="cls-15" d="m26.41,69.6c0,.45-.36.81-.81.81s-.81-.36-.81-.81.36-.81.81-.81.81.36.81.81Z"/>
                  <path class="cls-15" d="m28.9,69.6c0,.45-.36.81-.81.81s-.81-.36-.81-.81.36-.81.81-.81.81.36.81.81Z"/>
                </g>
              </g>
              <g>
                <g>
                  <rect class="cls-1" x="25.97" y="90.91" width="5.06" height="7.35"/>
                  <rect class="cls-3" x="33.61" y="85.85" width="5.06" height="12.42"/>
                  <rect class="cls-4" x="41.26" y="81.25" width="5.06" height="17.01"/>
                </g>
                <path class="cls-2" d="m43.6,76.23c-.04-.2-.17-.37-.35-.46l-3.65-1.86c-.33-.17-.74-.04-.91.3-.17.33-.04.74.3.91l1.87.95c-11.15,2.65-13.01,12.68-13.03,12.78-.06.37.18.72.55.78.04,0,.08,0,.11,0,.32,0,.61-.23.66-.56.02-.1,1.73-9.31,12.12-11.72l-1.43,1.77c-.23.29-.19.71.1.95.12.1.27.15.42.15.2,0,.39-.09.53-.25l2.57-3.17c.13-.16.18-.37.14-.56Z"/>
              </g>
              <g>
                <rect class="cls-2" x="24.48" y="101.48" width="24.94" height="1.05"/>
                <rect class="cls-2" x="24.48" y="104.21" width="24.94" height="1.05"/>
                <rect class="cls-2" x="27.17" y="106.93" width="19.56" height="1.05"/>
                <rect class="cls-2" x="30.71" y="109.66" width="12.47" height="1.05"/>
              </g>
            </g>
            <g>
              <g>
                <g>
                  <rect class="cls-15" x="57.81" y="41.25" width="98.39" height="108.11"/>
                  <g>
                    <polygon class="cls-2" points="149.39 92.46 64.4 92.46 64.4 46.2 64.97 46.2 64.97 91.89 149.39 91.89 149.39 92.46"/>
                    <g>
                      <rect class="cls-1" x="68.43" y="72.03" width="8.32" height="17.04"/>
                      <rect class="cls-4" x="81.91" y="47.85" width="8.32" height="41.22"/>
                      <rect class="cls-3" x="95.39" y="57.98" width="8.32" height="31.09"/>
                      <rect class="cls-1" x="108.87" y="63.4" width="8.32" height="25.67"/>
                      <rect class="cls-4" x="122.35" y="70.03" width="8.32" height="19.05"/>
                      <rect class="cls-3" x="135.82" y="47.85" width="8.32" height="41.22"/>
                    </g>
                    <g>
                      <rect class="cls-2" x="68.43" y="94.47" width="8.32" height=".93"/>
                      <rect class="cls-2" x="81.91" y="94.47" width="8.32" height=".93"/>
                      <rect class="cls-2" x="95.39" y="94.47" width="8.32" height=".93"/>
                      <rect class="cls-2" x="108.87" y="94.47" width="8.32" height=".93"/>
                      <rect class="cls-2" x="122.35" y="94.47" width="8.32" height=".93"/>
                      <rect class="cls-2" x="135.82" y="94.47" width="8.32" height=".93"/>
                    </g>
                  </g>
                  <g>
                    <g>
                      <path class="cls-10" d="m86.97,103.91c-8.19,0-14.83,6.64-14.83,14.83s6.64,14.83,14.83,14.83,14.83-6.64,14.83-14.83-6.64-14.83-14.83-14.83Z"/>
                      <path class="cls-1" d="m89.77,106.3c-.9-.2-1.83-.31-2.79-.31-5.86,0-10.8,3.96-12.29,9.34-.04.14-.07.27-.1.41-.03.14-.07.28-.09.42,0,0,0,0,0,.01-.02.13-.05.25-.07.38,0,.02,0,.04-.01.07-.02.13-.04.25-.06.38-.02.12-.03.24-.04.37,0,.04,0,.07-.01.11-.01.13-.02.25-.03.38,0,.13-.02.25-.02.38,0,.16-.01.33-.01.5,0,7.04,5.71,12.75,12.75,12.75s12.75-5.71,12.75-12.75c0-6.08-4.26-11.17-9.96-12.44Zm-2.79,21.98c-5.27,0-9.54-4.27-9.54-9.54,0-.12,0-.25,0-.37,0-.11,0-.22.02-.33.02-.26.05-.51.09-.76.02-.11.03-.22.06-.32.01-.08.03-.16.05-.24.02-.11.05-.21.07-.32.04-.17.09-.35.14-.52,1.22-3.87,4.83-6.67,9.1-6.67.62,0,1.23.06,1.82.17.11.02.23.04.34.07.04,0,.07.02.11.03.12.02.23.06.35.09,0,0,.01,0,.02,0,.13.04.26.08.39.12.01,0,.02,0,.04.01.11.04.22.07.33.12.14.05.27.1.4.16.12.05.23.1.34.16,0,0,.02.01.03.01.12.06.24.12.36.18,0,0,.02,0,.02.01.11.06.22.12.33.19.12.07.23.14.34.22.1.07.2.13.3.2.01,0,.02.02.03.02.22.15.43.32.64.5.1.09.2.17.3.27.1.09.2.18.29.28.09.09.18.19.27.29.1.11.2.23.3.35.07.08.13.16.19.24.1.12.19.25.28.38.07.1.14.2.21.31,0,0,0,0,0,.01.07.11.14.23.21.34,0,.01.01.02.02.03.06.11.12.22.18.33.07.12.12.24.18.36.06.11.11.23.15.34,0,.01,0,.02.01.03.06.12.1.25.15.38.05.14.1.28.14.42.04.12.08.25.11.38.03.1.06.21.08.32.01.05.02.1.04.15.02.11.05.23.07.34,0,0,0,.01,0,.01.02.11.04.23.05.34,0,.04.01.09.02.13.01.11.03.22.04.33,0,.01,0,.03,0,.04.03.28.04.56.04.84,0,5.27-4.27,9.54-9.54,9.54Z"/>
                      <path class="cls-3" d="m89.76,106.3l-.97,3.08c.11.02.23.05.34.08.04,0,.08.01.11.02.12.03.24.06.35.09,0,0,.01,0,.02,0,.13.04.27.08.39.12.01,0,.02.01.04.01.11.04.22.08.33.12.14.05.27.11.4.17.12.05.23.11.35.16,0,0,.02.01.02.01.12.06.24.12.37.18,0,0,.01.01.02.01.11.06.22.13.34.19.12.06.23.14.34.21.1.06.2.14.3.21.01,0,.02.02.04.02.22.16.43.32.64.5.1.08.2.18.3.27.1.09.19.18.29.28.09.09.18.19.27.29.11.11.21.22.31.35.06.08.13.16.19.24.1.12.19.25.28.37.07.11.14.21.21.31,0,0,0,0,0,.01.07.11.14.23.21.35,0,.01.01.02.02.03.06.11.12.22.18.33.06.12.12.24.18.36.05.12.11.23.15.35,0,.01,0,.02.01.03.05.12.1.25.15.38.05.14.1.28.14.41.04.13.08.25.11.38.03.11.06.21.08.32.01.05.02.1.04.15.02.11.05.23.07.34v.02c.02.11.04.22.05.34,0,.04.01.09.02.13.02.11.03.22.04.33,0,.01,0,.03,0,.04.02.28.04.56.04.84,0,.21,0,.42-.02.63-.32,4.97-4.46,8.91-9.51,8.91s-9.54-4.27-9.54-9.54c0-.12,0-.25.01-.37,0-.11,0-.22.02-.34.02-.25.05-.51.09-.76.01-.11.03-.21.05-.32.01-.08.03-.16.05-.24.02-.11.05-.21.08-.32.04-.18.09-.35.14-.52l-3.18-.54c-.04.14-.08.28-.11.41-.04.14-.06.28-.09.41,0,0,0,0,0,.01-.02.13-.05.25-.07.38,0,.02,0,.05-.01.07-.02.12-.04.25-.05.38-.02.12-.04.24-.05.37,0,.04,0,.08-.01.12-.01.12-.02.25-.03.38-.01.13-.02.25-.02.38,0,.17-.01.33-.01.5,0,7.04,5.71,12.75,12.75,12.75s12.4-5.37,12.73-12.12c.01-.21.02-.42.02-.63,0-6.08-4.26-11.17-9.96-12.44Z"/>
                      <path class="cls-1" d="m99.7,119.37c-.33,6.75-5.9,12.12-12.73,12.12v-3.21c5.06,0,9.19-3.94,9.51-8.91h3.22Z"/>
                    </g>
                    <g>
                      <rect class="cls-2" x="107.23" y="109.87" width="35.02" height="2.02"/>
                      <rect class="cls-2" x="107.23" y="115.11" width="35.02" height="2.02"/>
                      <rect class="cls-2" x="107.23" y="120.36" width="27.46" height="2.02"/>
                      <rect class="cls-2" x="107.23" y="125.6" width="17.51" height="2.02"/>
                    </g>
                    <g>
                      <rect class="cls-2" x="78.06" y="138.52" width="12.33" height="1.92"/>
                      <circle class="cls-2" cx="73.56" cy="139.48" r="2.43" transform="translate(-77.08 92.87) rotate(-45)"/>
                    </g>
                    <g>
                      <rect class="cls-2" x="102.4" y="138.52" width="12.33" height="1.92"/>
                      <circle class="cls-8" cx="97.9" cy="139.48" r="2.43" transform="translate(-69.95 110.08) rotate(-45)"/>
                    </g>
                    <g>
                      <rect class="cls-2" x="126.74" y="138.52" width="12.33" height="1.92"/>
                      <circle class="cls-3" cx="122.24" cy="139.48" r="2.43" transform="translate(-62.82 127.29) rotate(-45)"/>
                    </g>
                  </g>
                </g>
                <g>
                  <rect class="cls-1" x="54.91" y="148.86" width="103.58" height="5.24"/>
                  <rect class="cls-1" x="54.91" y="35.19" width="103.58" height="5.24"/>
                  <g>
                    <polygon class="cls-1" points="79.42 207.25 73.84 207.25 88.59 151.48 94.18 151.48 79.42 207.25"/>
                    <polygon class="cls-1" points="133.97 207.25 139.55 207.25 124.8 151.48 119.21 151.48 133.97 207.25"/>
                  </g>
                </g>
              </g>
              <g>
                <path class="cls-26" d="m178.35,72.98l6.12.75s6.8,11.41-3.31,15.55c-.24.4-3.3,1.09-5,.84-11.25-1.05-7.89-11.59-6.46-16.29l8.65-.85Z"/>
                <path class="cls-27" d="m165.31,93.47s-4.37,14.97-4.83,15.18l-11.76-14.34-1.29,2.44c-.11-.29-1.8-4.72-1.87-4.84-.07-.12-1.7.35-1.7.35l-2.34,6.15s.68.9,1.79,1.32c.81.25,2.26-.09,3.16-.34,1.53,2.81,10.96,19.93,14.71,19.97,4.09.05,8.13-12.11,8.13-12.11l-4-13.79Z"/>
                <path class="cls-7" d="m165.31,93.47l1.41,13.1h0s0,.03,0,.08c0,.05.01.12.02.21.04.39.12,1.1.18,1.75l.05.44s.01.09.02.13l.03.25c.01.12.02.22.03.31l.02.2s0,.03,0,.04c.04.34.35,3.24.35,3.24l-.68,7.97,10.73,2.42,9.71-2.42v-7.27l.03-.2.03-.17c.16-.94.59-3.56,1.07-6.56h0c.84-5.19,1.84-11.51,1.84-12.19,0,0-.88-.44-2.2-1.06h-.01c-2.96-1.37-8.15-3.57-10.77-3.48-3.8.13-11.87,3.2-11.87,3.2Z"/>
                <path class="cls-29" d="m209.5,113.13c-2.35-2.2-19.34-18.32-19.34-18.32h0s0,0,0,0c0,0-.88-.44-2.2-1.06h-.01c-2.96-1.37-8.15-3.57-10.77-3.48-3.56.13-10.88,2.83-11.77,3.17h0s-.06.02-.09.03c-1.73.67-5.29,13.85-5.29,13.85l-9.49-11.7s-4.28,6.1-5.14,11.69c0,0,12.58,15.33,16.47,15.43,1.25.03,2.42-1.11,3.45-2.73.56-.88,1.08-1.89,1.55-2.94l-.07,2.95-.03,1.17c8.73,3.5,21.27,0,21.27,0l-.81-7.47.03-.17.37-2.43,5.81,4.44-.79,9.55,15.02-1.59c5.47-.71,4.87-7.7,1.84-10.39Z"/>
                <path class="cls-27" d="m217.13,203.06c-2.8-1.65-7.34-6.89-7.34-6.89l-.89-3.49s-.03,0-.06-.01c-3.3-12.18-14.2-52.44-16.45-60.63-.12-.44-.22-.78-.29-1.01-1.52-5.14-4.7-9.54-4.9-9.81,0-.01,0-.01,0-.01h-20.44s-4.59,7.47-4.19,13.36c.04.55.16,1.57.35,2.96,1.69,12.54,8.85,52.56,9.83,58.02l-.16.63s-5.23,5.58-7.68,7.03c-1.53,2.19-.43,2.18-.03,2.77.39.59,5.21.99,6.59.79,3.09-.46,5.35-4.29,7.22-4.69,1.87-.39,2.95-1.38,2.16-6.75-.02-.17-.07-.31-.11-.46l-2.54-54.74-.15-3.39,1.27,3.39,22.16,55.84c-.61,4.8.46,5.73,2.25,6.11,1.87.39,3.63,4.26,6.71,4.72,1.38.2,7.02.13,7.41-.46.39-.59,1.01-1.83-.69-3.26Z"/>
                <path class="cls-29" d="m167.91,200.52s-1.83,1.28-3.37,2.87c-1.54,1.58-2.47,2.98-2.3,3.68.18.7,3.89,2.62,9.91.27,2.99-1.56,9.05-6.4,9.21-6.64.15-.24.12-3.81-.4-4.49,0,0-.26,1.65-1.38,2.32-1.13.66-5.81,3.82-5.81,3.82,0,0-2.57-2.44-5.85-1.82Z"/>
                <polygon class="cls-19" points="189.42 112.61 201.12 113.13 189.06 109.57 189.42 112.61"/>
                <path class="cls-7" d="m147.24,98.77s-2.71.96-3.92.59c-1.11-.43-1.79-1.32-1.79-1.32l2.34-6.15s1.63-.47,1.7-.35c.07.12,2.48,4.26,2.48,4.26l-.8,2.97Z"/>
                <g>
                  <g>
                    <line class="cls-15" x1="145.03" y1="86.29" x2="144.7" y2="89.18"/>
                    <rect class="cls-28" x="143.41" y="87.19" width="2.91" height="1.1" transform="translate(41.13 221.61) rotate(-83.43)"/>
                  </g>
                  <path class="cls-29" d="m145.37,88.36l-.37-.04h0s-.76-.09-.76-.09l-.86.71-.87,7.57c-.05.44.25.84.67.89l.74.08.4.05c.42.05.81-.27.86-.71l.87-7.57-.67-.89Z"/>
                  <ellipse class="cls-10" cx="145.63" cy="80.08" rx="5.69" ry="4.44" transform="translate(52.1 217.46) rotate(-84.56)"/>
                  <path class="cls-25" d="m149.84,76.36c-1.5-2.94-4.62-3.6-6.97-1.47-2.35,2.13-3.04,6.25-1.53,9.2,1.5,2.94,4.62,3.6,6.97,1.47,2.35-2.13,3.04-6.25,1.53-9.2Zm-2.04,8.21c-1.91,1.74-4.46,1.2-5.68-1.19-1.22-2.39-.66-5.75,1.25-7.49,1.91-1.74,4.46-1.2,5.68,1.19,1.22,2.39.66,5.75-1.25,7.49Z"/>
                </g>
                <path class="cls-27" d="m145.68,93.84c-.06.38-.51.48-.7.52h0s0,.02-.01.03c0,.04.06.1.19.23.16.15.32.4.27.79-.04.14-.12.25-.23.32-.2.15-.47.18-.47.18h0c.06.06.56.33.43.91-.13.58-.95.54-.95.55,0,.01.23.12.35.29.09.11.13.26.03.43-.17.29-.71.47-1.03.55-.06.02-.12.03-.2.05-.03,0-.05.01-.05.01h0c-.89.12-2.18.06-2.74-.47-.22-.22-.22-.83-.04-1.17-.73-.56-.59-1.74-.11-1.97-.64-1.01-.26-1.56.26-1.77-.15-.97.45-1.61.84-1.68.44-.03,1.1.13,2.09.52h0s.01,0,.03.02c.13.07.62.24.74.32.89.37,1.36,1.02,1.31,1.34Z"/>
                <path class="cls-27" d="m148.74,94.43s-.87-2.72-2.64-4.13c-.92-.33-4.3,2.35-4.3,2.35.28,1.31,2,1.49,3.22.5,0,0-.91,2.83,2.43,3.65l1.3-2.36Z"/>
                <path class="cls-13" d="m141.79,92.64c.09.3.27.58.51.76.25.18.55.26.85.26.3,0,.6-.08.9-.18.29-.1.57-.23.85-.38l.23-.12-.05.26c-.06.27-.36,1.51.45,2.49.18.23.45.4.7.57-.28-.11-.53-.29-.75-.5-.22-.22-.39-.49-.51-.78-.12-.29-.18-.6-.2-.91-.02-.31,0-.62.08-.93l.18.14c-.29.15-.59.27-.9.37-.31.1-.64.15-.97.14-.33-.02-.67-.12-.91-.35-.25-.22-.4-.53-.45-.84Z"/>
                <path class="cls-18" d="m144.56,97.66l-3.09-.64,2.74.35s.23.12.35.29Z"/>
                <path class="cls-18" d="m145.19,95.73h0c-.2.15-.47.18-.47.18l-3.23-.58,3.69.4Z"/>
                <path class="cls-18" d="m144.84,94.64l-3-.84,2.94.52c0,.09.06.32.06.32Z"/>
                <path class="cls-19" d="m169.18,102.33h0l.14,4.18-.11,4.16-.22,8.07-2.2,1.28.07-2.95"/>
                <path class="cls-25" d="m162.56,134.56l-.02,56.36s3.85,2.18,10.82,2.18,11.11-.6,11.11-.6l-5.38-52.77,11.14,52.66s6-.64,10.7-1.79c4.7-1.14,9.29-4.38,9.29-4.38l-16.74-54.18c-1.8-6.93-6.09-10.67-6.28-10.83,0-.01,0-.01,0-.01h-20.44s-4.59,7.47-4.19,13.36Z"/>
                <g>
                  <g>
                    <path class="cls-27" d="m173.28,91.59c.03.93,0,4.78,1.93,6.63,3.82-1.71,5.34-7.59,5.34-7.59v-.26s.06-4.65.06-4.65c-.08-.95-6.51-1.49-6.51-1.49l-.81,7.37Z"/>
                    <path class="cls-5" d="m173.76,89.25s3.71,1.33,6.83-2.03v-1.5s-1.13-1.04-1.13-1.04l-5.7,4.57Z"/>
                  </g>
                  <g>
                    <path class="cls-27" d="m184.53,79.18c-.73-.08-1.32.47-1.73,1.01,0-.53-.04-1.06-.11-1.61-.21-1.62-.47-1.83-.59-2.42,0,0-.47-2.7-5.75-3.3-2.66-.3-5.3.33-5.97,1.77-.7,1.47-1.17,4.36-1.34,6.67-.02.34-.04.67-.06.98-.04,1.07-.01,1.91.11,2.26.93,2.1,3.3,4.45,4.54,4.63,2.74.56,6.54-2.57,8.06-4.34.25-.29.46-.68.63-1.15,2.82,2.44,3.56-4.35,2.22-4.51Z"/>
                    <g>
                      <path class="cls-13" d="m177.18,83.03s.63.56,1.34.5c.71-.07,1.22-.74,1.22-.74,0,0-.63-.56-1.34-.5-.71.07-1.22.74-1.22.74Z"/>
                      <path class="cls-13" d="m169.04,81.31c-.02.34-.04.67-.06.98.46.05.9-.19.9-.19,0,0-.27-.6-.81-.78-.01,0-.03,0-.04-.01Z"/>
                    </g>
                    <path class="cls-21" d="m174.81,79.95l1,.11c.33.04.54.64.47,1.36-.08.71-.41,1.26-.74,1.23-.33-.04-.54-.64-.47-1.36.03-.3.11-.57.21-.79l-.47-.55Z"/>
                    <path class="cls-21" d="m170.37,79.95l.94.1c.32.03.51.61.44,1.28-.07.68-.39,1.2-.7,1.16-.32-.03-.51-.61-.44-1.28.03-.29.1-.54.2-.74l-.44-.52Z"/>
                    <g>
                      <path class="cls-21" d="m174.37,79.01s2.13-.74,3.59,1.46c0,0-1.37-3.82-3.59-1.46Z"/>
                      <path class="cls-21" d="m172.19,78.86s-1.67-.67-2.87.84c0,0,1.35-2.83,2.87-.84Z"/>
                      <path class="cls-13" d="m173.62,82.33c-.14-.06-.28-.11-.42-.16-.14-.05-.28-.09-.43-.11-.07-.01-.14-.01-.21-.01-.06,0-.13.02-.15.05-.03.03-.06.09-.07.16-.02.06-.02.13-.02.2,0,.28.1.56.28.78.18.22.45.36.75.42-.15.01-.31,0-.46-.06-.07-.03-.14-.06-.21-.1-.07-.04-.13-.09-.19-.15-.23-.23-.35-.55-.35-.88,0-.08,0-.16.03-.25,0-.02.01-.04.02-.06,0-.02.02-.04.03-.06,0-.02.02-.04.04-.06.02-.02.03-.04.05-.06l.03-.02s.02-.01.04-.02c.01,0,.02-.01.03-.02.01,0,.02,0,.03-.01.05-.01.09-.02.13-.02.09,0,.17.01.24.03.15.04.3.1.43.17.14.07.27.15.39.24Z"/>
                      <g class="cls-31">
                        <path class="cls-7" d="m172.94,85.4c.19.06.4.11.62.13.94.09,1.89-.27,2.82-1.09.04-.04.05-.1,0-.14-.04-.04-.1-.05-.14,0-.89.78-1.79,1.13-2.67,1.04-1.27-.12-2.07-1.14-2.08-1.15-.03-.04-.1-.05-.14-.02-.04.03-.05.1-.02.14.03.04.61.77,1.59,1.09Z"/>
                      </g>
                    </g>
                    <g class="cls-31">
                      <path class="cls-6" d="m182.48,82.35s.08-.02.09-.06c0,0,.17-.53.51-.64.16-.05.34,0,.53.15.04.03.09.02.12-.01.03-.04.02-.09-.01-.12-.24-.19-.47-.25-.68-.18-.05.02-.1.04-.15.07.24-.37.56-.6.83-.55.17.03.31.14.4.33.08.15.1.3.1.3,0,.05.05.08.1.07.05,0,.08-.05.07-.1,0-.03-.11-.69-.65-.77-.51-.08-1.13.56-1.34,1.4-.01.04.02.09.06.1,0,0,0,0,.01,0Z"/>
                    </g>
                  </g>
                  <path class="cls-26" d="m169.71,77.94s2.86-.77,4.02-3.44c0,0,2.45,5.41,9.08,5.68h0s.14-2.77,2.83-2.2c0,0-.21-4.59-3.36-6.87-3.16-2.27-7.43-.3-7.43-.3,0,0-.87-1.06-3.21-.15-2.34.91-3.95,7.4-3.95,7.4,0,0,1.27.16,2.02-.13Z"/>
                </g>
                <path class="cls-30" d="m191.81,118.95c0,3.4.83,6.16.83,6.16,0,0,1.45-2.76,1.45-6.16s-1.14-6.16-1.14-6.16c0,0-1.14,2.76-1.14,6.16Z"/>
                <g>
                  <path class="cls-26" d="m173.86,104.45l15.24-1.32c.4.05.71.37.74.77l1.82,23.12c.04.53-.42.97-.95.91l-15.24,1.32c-.4-.05-.71-.37-.74-.77l-1.82-23.12c-.04-.53.42-.97.95-.91Z"/>
                  <path class="cls-12" d="m184.39,112.06c0,1.16-.94,2.1-2.1,2.1s-2.1-.94-2.1-2.1.94-2.1,2.1-2.1,2.1.94,2.1,2.1Z"/>
                  <polygon class="cls-14" points="173.87 105.67 190.37 126.6 188.49 104.51 173.87 105.67"/>
                  <path class="cls-27" d="m191.23,121.51c.93-.3,2.39-.95,2.72-2.13.48-1.76.61-6.66-.34-7.5s-7.66-2.34-7.66-2.34c0,0-.32,1.34.95,1.86,1.27.51,4.56,1.45,4.56,1.45l-6.77-.23s-.11.91.67,1.39,5.25.6,5.25.6l-5.55-.14s-.14,1.35,1.3,1.5,4.79.44,4.79.44l-3.86-.12s.04,1.28,1.37,1.45c1.03.1,2.32.31,2.32.31l.27,3.48Z"/>
                </g>
                <path class="cls-29" d="m214.45,200.52s1.83,1.28,3.37,2.87c1.54,1.58,2.47,2.98,2.3,3.68-.18.7-3.89,2.62-9.91.27-2.99-1.56-9.05-6.4-9.21-6.64-.15-.24-.12-3.81.4-4.49,0,0,.26,1.65,1.38,2.32,1.13.66,5.81,3.82,5.81,3.82,0,0,2.57-2.44,5.85-1.82Z"/>
              </g>
            </g>
            <g>
              <g>
                <rect class="cls-3" x="111.85" y="159.52" width="36.8" height="48.99" transform="translate(33.91 -19.81) rotate(9.99)"/>
                <rect class="cls-15" x="111.85" y="159.52" width="36.8" height="48.99"/>
                <g>
                  <rect class="cls-2" x="114.83" y="179.98" width="31.87" height=".83"/>
                  <rect class="cls-2" x="114.83" y="182.58" width="31.87" height=".83"/>
                  <rect class="cls-2" x="114.83" y="185.18" width="31.87" height=".83"/>
                  <rect class="cls-2" x="114.83" y="187.79" width="18.4" height=".83"/>
                  <rect class="cls-2" x="114.83" y="190.39" width="18.4" height=".83"/>
                </g>
                <g>
                  <circle class="cls-3" cx="120.8" cy="170.48" r="6.1"/>
                  <path class="cls-1" d="m120.8,177.18c-3.69,0-6.7-3-6.7-6.7s3-6.7,6.7-6.7,6.7,3,6.7,6.7c0,.33-.27.6-.6.6s-.6-.27-.6-.6c0-3.03-2.46-5.49-5.49-5.49s-5.49,2.46-5.49,5.49,2.46,5.49,5.49,5.49c.33,0,.6.27.6.6s-.27.6-.6.6Z"/>
                  <circle class="cls-15" cx="120.8" cy="170.48" r="3.84"/>
                  <rect class="cls-2" x="128.97" y="163.78" width="17.73" height=".83"/>
                  <rect class="cls-2" x="128.97" y="166.42" width="17.73" height=".83"/>
                  <rect class="cls-2" x="128.97" y="169.06" width="17.73" height=".83"/>
                  <rect class="cls-2" x="128.97" y="171.7" width="12.75" height=".83"/>
                  <rect class="cls-2" x="128.97" y="174.34" width="12.75" height=".83"/>
                </g>
                <g>
                  <rect class="cls-2" x="121.43" y="194.02" width="6.87" height=".45"/>
                  <rect class="cls-2" x="121.43" y="195.46" width="6.87" height=".45"/>
                  <rect class="cls-2" x="121.43" y="196.9" width="4.94" height=".45"/>
                  <rect class="cls-20" x="114.83" y="194.02" width="4.74" height="4.74"/>
                </g>
                <g>
                  <rect class="cls-2" x="139.83" y="194.02" width="6.87" height=".45"/>
                  <rect class="cls-2" x="139.83" y="195.46" width="6.87" height=".45"/>
                  <rect class="cls-2" x="139.83" y="196.9" width="4.94" height=".45"/>
                  <rect class="cls-23" x="133.23" y="194.02" width="4.74" height="4.74"/>
                </g>
                <g>
                  <rect class="cls-2" x="121.43" y="200.69" width="6.87" height=".45"/>
                  <rect class="cls-2" x="121.43" y="202.13" width="6.87" height=".45"/>
                  <rect class="cls-2" x="121.43" y="203.57" width="4.94" height=".45"/>
                  <rect class="cls-1" x="114.83" y="200.69" width="4.74" height="4.74"/>
                </g>
                <g>
                  <rect class="cls-2" x="139.83" y="200.69" width="6.87" height=".45"/>
                  <rect class="cls-2" x="139.83" y="202.13" width="6.87" height=".45"/>
                  <rect class="cls-2" x="139.83" y="203.57" width="4.94" height=".45"/>
                  <rect class="cls-3" x="133.23" y="200.69" width="4.74" height="4.74"/>
                </g>
              </g>
              <g>
                <path class="cls-22" d="m157.45,166.34h0c-.47-.29-1.09-.14-1.38.34l-1.03,1.69,1.72,1.05,1.03-1.69c.29-.47.14-1.09-.34-1.38Z"/>
                <path class="cls-21" d="m153.05,181.67l3.96-9.48c.03-.08,0-.17-.07-.22l-1.49-.91.4-.66,1.49.91c.4.25.57.74.38,1.18,0,0-3.17,7.57-3.55,8.5-.38.92-1.13.68-1.13.68Z"/>
                <path class="cls-21" d="m147.17,187.91c-.17.25-.32.44-.44.57-1.42,1.53-3.78,3.38-4.95,4.26-.18-.12-.37-.25-.56-.37.25-1.46.8-4.38,1.5-6.33.06-.17.16-.39.3-.66,1.87-3.59,10.36-15.41,12.01-17.7.16-.22.38-.33.51-.25l1.81,1.1c.13.08.14.33.02.57-1.28,2.52-7.88,15.5-10.2,18.8Z"/>
                <path class="cls-22" d="m157.21,170.51l-3.24-1.97c-.11-.07-.27,0-.35.14l-.65,1.08c-.09.14-.07.31.04.38l3.24,1.97c.11.07.27,0,.35-.14l.65-1.08c.09-.14.07-.31-.04-.38Z"/>
                <path class="cls-22" d="m147.17,187.91c-.17.25-.32.44-.44.57-1.42,1.53-3.78,3.38-4.95,4.26-.18-.12-.37-.25-.56-.37.25-1.46.8-4.38,1.5-6.33.06-.17.16-.39.3-.66l4.15,2.52Z"/>
                <path class="cls-21" d="m141.24,192.03l-.09.67c-.03.23.19.36.38.23l.53-.37-.81-.53Z"/>
              </g>
            </g>
            <g>
              <path class="cls-24" d="m72.06,159.66c0-11.14-9.03-20.18-20.18-20.18s-20.18,9.03-20.18,20.18c0,3.93,1.13,7.6,3.07,10.7h-.01s.1.15.28.41c.06.09.11.17.17.26,1.67,2.53,7.5,11.97,7.5,20.39h18.35c0-9.83,7.95-21.05,7.95-21.05h-.02c1.94-3.12,3.07-6.78,3.07-10.71Z"/>
              <g>
                <polygon class="cls-16" points="53.73 189.42 50.54 189.42 42.62 189.42 42.62 198.85 47.69 203.04 50.54 203.04 53.73 203.04 56.58 203.04 61.65 198.85 61.65 189.42 53.73 189.42"/>
                <path class="cls-2" d="m46.95,188.75l-5.34-19.85.52.4s2.9,2.24,5.17,1.96c-1.23-1.98-.68-3.12-.32-3.57.58-.73,1.66-.97,2.43-.53.74.42.95,1.32.54,2.4-.43,1.02-1.07,1.68-1.92,1.99.24.33.51.66.83,1,1.52,1.65,2.96,1.38,3.9.86.84-.46,1.54-1.25,2.03-2.09-.36-.13-.62-.27-.79-.38-1.11-.7-1.73-1.86-1.48-2.76.19-.65.81-1.03,1.73-1.04.84-.03,1.43.38,1.64,1.14.2.74.01,1.78-.47,2.79,2.17.48,4.29-1.15,4.96-1.74l.49-.43-3.96,19.85-.43-.09,3.72-18.61c-2.09,1.63-3.83,1.68-4.97,1.4-.52.95-1.3,1.82-2.24,2.35-1.52.84-3.09.51-4.43-.95-.39-.42-.7-.81-.96-1.18-1.93.36-4.2-.97-5.2-1.65l5.01,18.62-.42.11Zm1.6-21.37c-.45,0-.93.21-1.23.59-.58.74-.41,1.88.44,3.2.79-.24,1.38-.83,1.77-1.77.32-.87.2-1.55-.35-1.85-.19-.11-.41-.16-.64-.16Zm5.75.19s-.04,0-.05,0c-.72,0-1.18.26-1.31.72-.2.7.36,1.67,1.29,2.27.25.16.5.28.76.37.46-.93.65-1.89.47-2.55-.15-.54-.54-.82-1.15-.82Z"/>
                <path class="cls-14" d="m48.76,143.12c1.51,1.51,0,5.49-3.4,8.88s-7.37,4.91-8.88,3.4,0-5.49,3.4-8.88c3.39-3.39,7.37-4.91,8.88-3.4Z"/>
                <path class="cls-9" d="m64.87,147.71s3.54,28.53-26.63,24.87c0,0,5.19,8.05,5.33,15.51h15.92s1.28-7.87,5.5-15.25,7.29-17.02-.13-25.13Z"/>
                <path class="cls-1" d="m62.53,188.09h-20.79c-.72,0-1.31.54-1.31,1.21s.59,1.21,1.31,1.21h20.79c.72,0,1.31-.54,1.31-1.21s-.59-1.21-1.31-1.21Z"/>
                <path class="cls-1" d="m62.53,191.82h-20.79c-.72,0-1.31.54-1.31,1.21s.59,1.21,1.31,1.21h20.79c.72,0,1.31-.54,1.31-1.21s-.59-1.21-1.31-1.21Z"/>
                <path class="cls-1" d="m62.53,195.54h-20.79c-.72,0-1.31.54-1.31,1.21s.59,1.21,1.31,1.21h20.79c.72,0,1.31-.54,1.31-1.21s-.59-1.21-1.31-1.21Z"/>
              </g>
              <path class="cls-1" d="m47.69,203.04v.06c0,2.45,1.99,4.44,4.44,4.44s4.44-1.99,4.44-4.44v-.06h-8.89Z"/>
            </g>
            <g>
              <polygon class="cls-11" points="215.22 75.18 208.21 63.03 201.2 75.18 204.81 75.18 204.81 86.22 211.61 86.22 211.61 75.18 215.22 75.18"/>
              <polygon class="cls-11" points="29.24 146.74 24.55 138.62 19.86 146.74 22.28 146.74 22.28 154.13 26.82 154.13 26.82 146.74 29.24 146.74"/>
            </g>
          </g>
        </g>
      </g>
    </g>
  </g>
</svg>