<?xml version="1.0" encoding="UTF-8"?>
<svg id="Layer_2" data-name="Layer 2" xmlns="http://www.w3.org/2000/svg" xmlns:xlink="http://www.w3.org/1999/xlink" viewBox="0 0 120 120">
  <defs>
    <style>
      .cls-1 {
        fill: none;
      }

      .cls-1, .cls-2 {
        stroke-width: 0px;
      }

      .cls-2 {
        fill: url(#Razorswift_Gradient);
      }
    </style>
    <linearGradient id="Razorswift_Gradient" data-name="Razorswift Gradient" x1="10.06" y1="60.06" x2="109.94" y2="60.06" gradientUnits="userSpaceOnUse">
      <stop offset="0" stop-color="#682376"/>
      <stop offset="1" stop-color="#a52973"/>
    </linearGradient>
  </defs>
  <g id="Layer_2-2" data-name="Layer 2">
    <g>
      <rect class="cls-1" width="120" height="120"/>
      <rect class="cls-1" x="10" y="10" width="100" height="100"/>
      <path class="cls-2" d="m49.33,28.02c.19,1.64,1.86,2.79,3.47,2.4,2.34-.57,4.76-.86,7.2-.86,14.23,0,26.61,9.93,29.74,23.73h-3.29c-.91,0-1.72.54-2.07,1.38-.35.84-.16,1.8.49,2.45l8.73,8.73c.42.42.99.66,1.59.66s1.16-.23,1.59-.66l8.73-8.73c.64-.64.83-1.6.49-2.44-.35-.84-1.16-1.38-2.07-1.38h-3.24c-1.97-11.93-9.04-22.32-19.46-28.59-.69-.42-1.59-.19-2.01.5-.42.69-.19,1.59.5,2.01,9.84,5.92,16.46,15.79,18.17,27.09.17,1.11,1.1,1.92,2.22,1.92h2.18l-7.08,7.08-7.08-7.08h2.48c1.38,0,2.47-1.32,2.2-2.68-3.1-15.59-16.89-26.9-32.79-26.9-2.63,0-5.24.31-7.78.91l-.6-4.87c2.73-.61,5.55-.92,8.38-.92,4.75,0,9.39.86,13.78,2.55.75.29,1.6-.08,1.89-.84s-.08-1.6-.84-1.89c-4.73-1.82-9.72-2.75-14.84-2.75-3.08,0-6.14.34-9.12,1.01-1.42.32-2.36,1.66-2.18,3.11l.63,5.07Zm27.22,45.98v-9.32c1.39-.49,2.38-1.82,2.38-3.37v-8.48c0-1.97-1.61-3.58-3.58-3.58h-5.97v-3.12c0-1.97-1.61-3.58-3.58-3.58h-11.61c-1.97,0-3.58,1.61-3.58,3.58v3.12h-5.97c-1.97,0-3.58,1.61-3.58,3.58v8.48c0,1.55,1,2.88,2.38,3.37v9.32c0,1.98,1.61,3.58,3.58,3.58h6.33c.81,0,1.46-.65,1.46-1.46s-.66-1.46-1.46-1.46h-6.33c-.36,0-.66-.29-.66-.66v-9.11h6.7v.57c0,1.31,1.07,2.38,2.38,2.38h9.08c1.31,0,2.38-1.07,2.38-2.38v-.57h6.7v9.11c0,.36-.29.66-.66.66h-12.79c-.81,0-1.46.65-1.46,1.46s.66,1.46,1.46,1.46h12.79c1.97,0,3.58-1.61,3.58-3.58h0Zm-23.02-27.87c0-.36.29-.66.66-.66h11.61c.36,0,.66.29.66.66v3.12h-12.93v-3.12Zm10.46,18.79h-7.99v-2.98h7.99v2.98Zm11.1-2.95s0,0,0,0,0,0,0,0h-8.16v-.57c0-1.31-1.07-2.38-2.38-2.38h-9.08c-1.31,0-2.38,1.07-2.38,2.38v.57h-8.16s0,0,0,0,0,0,0,0h-.26c-.36,0-.66-.29-.66-.66v-8.48c0-.36.29-.66.66-.66h30.71c.36,0,.66.29.66.66v8.48c0,.36-.29.66-.66.66h-.26Zm17.55,13.45c-9.54,0-17.3,7.76-17.3,17.3s7.86,17.3,17.3,17.3,17.3-7.77,17.3-17.3-7.76-17.3-17.3-17.3h0Zm0,31.67c-3.49,0-6.69-1.25-9.18-3.32.35-2.02,1.36-3.86,2.89-5.26.63-.57,1.32-1.05,2.07-1.43,1.19.85,2.65,1.35,4.22,1.35s3.02-.5,4.22-1.35c2.62,1.33,4.46,3.8,4.96,6.69-2.49,2.07-5.69,3.32-9.18,3.32Zm-4.37-15.97v-1.97c0-2.41,1.96-4.37,4.37-4.37s4.37,1.96,4.37,4.37v1.97c0,2.41-1.96,4.37-4.37,4.37s-4.37-1.96-4.37-4.37Zm15.92,10.15c-.95-2.68-2.81-4.95-5.28-6.41.66-1.09,1.03-2.37,1.03-3.74v-1.97c0-4.03-3.27-7.3-7.3-7.3s-7.3,3.27-7.3,7.3v1.97c0,1.37.38,2.65,1.04,3.74-.71.42-1.38.92-2,1.48-1.49,1.36-2.61,3.06-3.27,4.93-1.78-2.39-2.83-5.35-2.83-8.56,0-7.92,6.45-14.37,14.37-14.37s14.37,6.45,14.37,14.37c0,3.2-1.05,6.16-2.83,8.55Zm-32.72-4.06l-.52-5.1c-.16-1.69-1.86-2.87-3.5-2.45-2.42.61-4.92.92-7.44.92-14.23,0-26.61-9.93-29.74-23.73h3.54c.91,0,1.72-.54,2.07-1.39s.16-1.8-.49-2.44l-8.73-8.73c-.87-.87-2.3-.87-3.17,0l-8.73,8.73c-.64.64-.83,1.6-.49,2.44s1.16,1.39,2.07,1.39h2.99c1.56,9.43,6.4,18.07,13.66,24.38,7.49,6.5,17.08,10.08,27.01,10.08,3.13,0,6.26-.35,9.29-1.05,1.38-.32,2.32-1.63,2.17-3.04h0Zm-11.46,1.17c-9.22,0-18.14-3.33-25.09-9.36-6.89-5.98-11.43-14.21-12.78-23.18-.17-1.11-1.1-1.92-2.22-1.92h-1.93l7.08-7.08,7.08,7.08h-2.73c-.67,0-1.31.3-1.74.82-.43.52-.6,1.2-.47,1.86,3.1,15.59,16.89,26.9,32.79,26.9,2.72,0,5.42-.33,8.04-.98l.5,4.9c-2.78.63-5.66.96-8.54.96h0ZM27.36,44.71c9.44,0,17.3-7.77,17.3-17.3s-7.76-17.3-17.3-17.3-17.3,7.76-17.3,17.3,7.84,17.3,17.3,17.3Zm0-2.93c-3.49,0-6.69-1.25-9.18-3.32.35-2.01,1.36-3.86,2.89-5.26.63-.57,1.32-1.05,2.07-1.43,1.19.85,2.65,1.35,4.22,1.35s3.02-.5,4.22-1.35c2.63,1.33,4.46,3.79,4.96,6.69-2.49,2.07-5.69,3.32-9.18,3.32Zm-4.37-15.97v-1.97c0-2.41,1.96-4.37,4.37-4.37s4.37,1.96,4.37,4.37v1.97c0,2.41-1.97,4.37-4.37,4.37s-4.37-1.96-4.37-4.37Zm4.37-12.77c7.92,0,14.37,6.45,14.37,14.37,0,3.2-1.05,6.16-2.83,8.55-.95-2.68-2.81-4.95-5.28-6.41.66-1.09,1.03-2.37,1.03-3.74v-1.97c0-4.03-3.27-7.3-7.3-7.3s-7.3,3.27-7.3,7.3v1.97c0,1.37.38,2.65,1.04,3.75-.71.42-1.38.92-2,1.48-1.49,1.37-2.61,3.06-3.27,4.93-1.78-2.39-2.83-5.35-2.83-8.56,0-7.92,6.45-14.37,14.37-14.37Z"/>
    </g>
  </g>
</svg>