<?xml version="1.0" encoding="UTF-8"?>
<svg id="Layer_2" data-name="Layer 2" xmlns="http://www.w3.org/2000/svg" xmlns:xlink="http://www.w3.org/1999/xlink" viewBox="0 0 120 120">
  <defs>
    <style>
      .cls-1 {
        fill: none;
      }

      .cls-1, .cls-2 {
        stroke-width: 0px;
      }

      .cls-2 {
        fill: url(#Razorswift_Gradient);
      }
    </style>
    <linearGradient id="Razorswift_Gradient" data-name="Razorswift Gradient" x1="10" y1="60" x2="110" y2="60" gradientUnits="userSpaceOnUse">
      <stop offset="0" stop-color="#682376"/>
      <stop offset="1" stop-color="#a52973"/>
    </linearGradient>
  </defs>
  <g id="Layer_2-2" data-name="Layer 2">
    <g>
      <rect class="cls-1" width="120" height="120"/>
      <rect class="cls-1" x="10" y="10" width="100" height="100"/>
      <path class="cls-2" d="m103.83,72.31s-.02,0-.03-.01l-13.28-5.14v-2.77c2.08-1.66,3.53-4.07,3.96-6.81,2.66-.32,4.57-2.53,4.57-5.11,0-1.2-.42-2.35-1.16-3.25v-4.06c0-2.88-.85-5.55-2.32-7.8v-8.98c0-2.22-1.81-4.03-4.03-4.03h-13.43v-3.98c0-4.92-4-8.91-8.91-8.91h-13.57c-.81,0-1.46.66-1.46,1.46s.66,1.46,1.46,1.46h13.57c3.3,0,5.98,2.68,5.98,5.98v3.98h-1.34v-3.98c0-2.56-2.08-4.64-4.64-4.64h-32.83c-2.56,0-4.64,2.08-4.64,4.64v3.98h-1.34v-3.98c0-3.3,2.68-5.98,5.98-5.98h12.42c.81,0,1.47-.66,1.47-1.46s-.66-1.46-1.47-1.46h-12.42c-4.91,0-8.91,4-8.91,8.91v3.98h-13.43c-2.22,0-4.03,1.81-4.03,4.03v26.59c0,1.89,1.31,3.47,3.06,3.91v37.96c0,2.12,1.72,3.84,3.84,3.84h40.5v4.67c0,1.77,1.44,3.22,3.22,3.22h46.17c1.77,0,3.22-1.44,3.22-3.22v-8.83c0-.81-.66-1.46-1.46-1.46s-1.46.66-1.46,1.46v8.83c0,.16-.13.29-.29.29h-5.73v-21.74c0-.81-.66-1.46-1.46-1.46s-1.46.66-1.46,1.46v21.74h-11.12l3.03-3.33c.45-.5.67-1.21.57-1.9,0-.01,0-.03,0-.04l-3.35-19.8.64-.97c1.57,1.11,3.05.38,3.6-.72h0s3.42-6.86,3.42-6.86l7.81,3.03c.31.13,4.34,1.98,4.34,6.8v7.84c0,.81.66,1.46,1.46,1.46s1.46-.66,1.46-1.46v-7.84c0-6.9-5.91-9.41-6.17-9.51Zm-25.64,4.59l-2.98-5.97,2.63-1.02,3.72,4.59c-1.67,1.18-3.31,2.35-3.37,2.4Zm-3.01-13.9h-5.05c-.61,0-1.1-.49-1.1-1.1v-2.91h3.94c.45,1.5,1.22,2.88,2.2,4.01Zm-3.01-17.85c0-6.28,5.11-11.39,11.39-11.39s11.39,5.13,11.39,11.39v2.28s-.34-.06-.35-.06c-.03-.63-.29-.99-.78-1.56-.46-.53-1.18-1.28-2.86-3.08-.78-.84-2.04-.99-2.99-.36-3.82,2.49-8.53,3.8-12.94,3.49-1.07-.08-2.03.57-2.38,1.54-.06,0-.45.09-.48.1v-2.34Zm-1.16,7.31c0-.81.56-1.62,1.51-2v4.09c-.93-.31-1.51-1.15-1.51-2.09Zm16.58,13.6v1.57l-3.9,4.82-3.91-4.83v-1.5c2.37.83,5.23.92,7.82-.06Zm-3.88-2.22c-4.85,0-8.26-3.73-8.26-7.98v-7.06c4.77.2,9.71-1.23,13.71-3.72,1.36,1.46,2.19,2.33,2.52,2.71,0,8.6,0,8.27,0,8.27-.11,4.34-3.68,7.78-7.98,7.78Zm10.91-9.3v-4.18c.96.33,1.51,1.19,1.51,2.09s-.59,1.78-1.51,2.09ZM34.66,20.37c0-.94.77-1.71,1.71-1.71h32.83c.94,0,1.71.77,1.71,1.71v3.98h-36.26v-3.98Zm-21.73,8.01c0-.61.49-1.1,1.1-1.1h77.53c.61,0,1.1.49,1.1,1.1v5.7c-2.55-2.09-5.77-3.25-9.07-3.25h0c-7.9,0-14.32,6.42-14.32,14.32v4.16c-.79.94-1.16,2.05-1.16,3.15,0,1.34.53,2.65,1.47,3.6H14.03c-.61,0-1.1-.49-1.1-1.1v-26.59Zm12.65,30.62h10.95v2.91c0,.61-.49,1.1-1.1,1.1h-8.76c-.61,0-1.1-.49-1.1-1.1v-2.91Zm-8.69,38.74c-.49,0-.91-.42-.91-.91v-37.83h6.66v2.91c0,2.22,1.81,4.03,4.03,4.03h8.76c2.22,0,4.03-1.81,4.03-4.03v-2.91h26.64v2.91c0,2.22,1.81,4.03,4.03,4.03h6.71v1.22l-13.26,5.14h-.03c-.25.11-6.17,2.63-6.17,9.52v15.92H16.9Zm52.37,7.88v-21.74c0-.81-.66-1.46-1.46-1.46s-1.47.66-1.47,1.46v21.74h-5.73c-.16,0-.29-.13-.29-.29v-23.51c0-3.23,2.07-5.81,4.34-6.8l7.81-3.03,3.42,6.86c.56,1.12,2.05,1.82,3.6.72l.64.97-3.35,19.8s0,.03,0,.04c-.09.69.12,1.4.57,1.9l3.03,3.33h-11.11Zm14.42-.72l-3.97-4.36,3.19-18.86h1.55l3.19,18.86-3.97,4.36Zm1.23-26.15h-2.45l-.58-.87,1.81-1.28,1.81,1.28-.58.87Zm7.25-7.82l-2.98,5.97s-1.07-.76-3.38-2.4l3.72-4.59,2.64,1.02Z"/>
    </g>
  </g>
</svg>