<?xml version="1.0" encoding="UTF-8"?>
<svg id="Layer_2" data-name="Layer 2" xmlns="http://www.w3.org/2000/svg" viewBox="0 0 240 240">
  <defs>
    <style>
      .cls-1 {
        fill: #c15957;
      }

      .cls-1, .cls-2, .cls-3, .cls-4, .cls-5, .cls-6, .cls-7, .cls-8, .cls-9, .cls-10, .cls-11, .cls-12, .cls-13, .cls-14, .cls-15, .cls-16, .cls-17, .cls-18, .cls-19, .cls-20, .cls-21, .cls-22, .cls-23, .cls-24, .cls-25 {
        stroke-width: 0px;
      }

      .cls-2, .cls-8, .cls-26 {
        fill: #672376;
      }

      .cls-3 {
        fill: #ef6a80;
      }

      .cls-3, .cls-5, .cls-6, .cls-8, .cls-10, .cls-13, .cls-23 {
        fill-rule: evenodd;
      }

      .cls-4 {
        fill: #fb847d;
      }

      .cls-27, .cls-28, .cls-29, .cls-26, .cls-30, .cls-31, .cls-32, .cls-33, .cls-34, .cls-35 {
        stroke: #000;
        stroke-width: .5px;
      }

      .cls-27, .cls-28, .cls-26, .cls-30, .cls-31, .cls-32, .cls-33, .cls-34, .cls-35 {
        stroke-miterlimit: 10;
      }

      .cls-27, .cls-29, .cls-36, .cls-15 {
        fill: #fff;
      }

      .cls-5, .cls-12 {
        fill: #ee5064;
      }

      .cls-28 {
        fill: #4d4d4d;
      }

      .cls-6, .cls-7 {
        fill: #310b3a;
      }

      .cls-29 {
        stroke-linejoin: round;
      }

      .cls-9 {
        fill: #82195c;
      }

      .cls-10 {
        fill: #5c93bc;
      }

      .cls-36 {
        font-family: Montserrat-Bold, Montserrat;
        font-size: 12.14px;
        font-weight: 700;
      }

      .cls-11 {
        fill: #703123;
      }

      .cls-30, .cls-24 {
        fill: #363435;
      }

      .cls-13 {
        fill: #c1536b;
      }

      .cls-14, .cls-23 {
        fill: #c63952;
      }

      .cls-16 {
        fill: #451351;
      }

      .cls-31 {
        fill: #a36d4f;
      }

      .cls-17 {
        opacity: .5;
      }

      .cls-17, .cls-34 {
        fill: none;
      }

      .cls-18 {
        fill: #ffa1dd;
      }

      .cls-19 {
        fill: #ef8496;
      }

      .cls-20 {
        fill: #754725;
      }

      .cls-32 {
        fill: #353535;
      }

      .cls-21 {
        fill: #965b2f;
      }

      .cls-22 {
        fill: #a62973;
      }

      .cls-33 {
        fill: #ffb0ae;
      }

      .cls-35 {
        fill: #a66534;
      }

      .cls-25 {
        fill: #c64b66;
      }
    </style>
  </defs>
  <g id="Layer_2-2" data-name="Layer 2">
    <g>
      <rect class="cls-17" width="240" height="240"/>
      <rect class="cls-17" x="10" y="10" width="220" height="220"/>
      <ellipse class="cls-19" cx="120.8" cy="204.02" rx="106.28" ry="12.57"/>
      <g>
        <g>
          <g>
            <rect class="cls-15" x="21.01" y="137.83" width="69.7" height="42.59" rx="3.19" ry="3.19"/>
            <path class="cls-9" d="m24.2,137.83h63.32c1.76,0,3.19,1.43,3.19,3.19v1.19H21.01v-1.19c0-1.76,1.43-3.19,3.19-3.19Z"/>
          </g>
          <g>
            <path class="cls-25" d="m50.04,152.69v.46s0,7.75,0,7.75c0,.11.09.19.19.19l9.12-.04v-7.62c0-.18-.15-.32-.32-.32h-3.14s-3.58.03-3.58.03l-.14-.25-.17-.32c-.04-.07-.12-.12-.2-.12h-1.53c-.13,0-.23.11-.23.24Z"/>
            <polygon class="cls-15" points="60.59 154.25 50.91 154.25 50.24 160.8 59.92 160.8 60.59 154.25"/>
            <path class="cls-25" d="m50.36,161.2l9.82.04c.13,0,.24-.08.26-.21l.96-4.72.22-1.1c.04-.2-.13-.4-.34-.4h-.24s-9.59-.04-9.59-.04c-.13,0-.24.08-.26.21l-1.12,5.5-.03.14-.04.18c-.04.2.13.4.34.4Z"/>
          </g>
          <g>
            <path class="cls-4" d="m69.31,152.69v.46s0,7.75,0,7.75c0,.11.09.19.19.19l9.12-.04v-7.62c0-.18-.15-.32-.32-.32h-3.14s-3.58.03-3.58.03l-.14-.25-.17-.32c-.04-.07-.12-.12-.2-.12h-1.53c-.13,0-.23.11-.23.24Z"/>
            <polygon class="cls-15" points="79.87 154.25 70.18 154.25 69.51 160.8 79.2 160.8 79.87 154.25"/>
            <path class="cls-4" d="m69.64,161.2l9.82.04c.13,0,.24-.08.26-.21l.96-4.72.22-1.1c.04-.2-.13-.4-.34-.4h-.24s-9.59-.04-9.59-.04c-.13,0-.24.08-.26.21l-1.12,5.5-.03.14-.04.18c-.04.2.13.4.34.4Z"/>
          </g>
          <g>
            <path class="cls-14" d="m50.04,166.01v.46s0,7.75,0,7.75c0,.11.09.19.19.19l9.12-.04v-7.62c0-.18-.15-.32-.32-.32h-3.14s-3.58.03-3.58.03l-.14-.25-.17-.32c-.04-.07-.12-.12-.2-.12h-1.53c-.13,0-.23.11-.23.24Z"/>
            <polygon class="cls-15" points="60.59 167.57 50.91 167.57 50.24 174.13 59.92 174.13 60.59 167.57"/>
            <path class="cls-14" d="m50.36,174.53l9.82.04c.13,0,.24-.08.26-.21l.96-4.72.22-1.1c.04-.2-.13-.4-.34-.4h-.24s-9.59-.04-9.59-.04c-.13,0-.24.08-.26.21l-1.12,5.5-.03.14-.04.18c-.04.2.13.4.34.4Z"/>
          </g>
          <g>
            <path class="cls-4" d="m69.31,166.01v.46s0,7.75,0,7.75c0,.11.09.19.19.19l9.12-.04v-7.62c0-.18-.15-.32-.32-.32h-3.14s-3.58.03-3.58.03l-.14-.25-.17-.32c-.04-.07-.12-.12-.2-.12h-1.53c-.13,0-.23.11-.23.24Z"/>
            <polygon class="cls-15" points="79.87 167.57 70.18 167.57 69.51 174.13 79.2 174.13 79.87 167.57"/>
            <path class="cls-4" d="m69.64,174.53l9.82.04c.13,0,.24-.08.26-.21l.96-4.72.22-1.1c.04-.2-.13-.4-.34-.4h-.24s-9.59-.04-9.59-.04c-.13,0-.24.08-.26.21l-1.12,5.5-.03.14-.04.18c-.04.2.13.4.34.4Z"/>
          </g>
          <g>
            <path class="cls-19" d="m39.5,148.11h-13.37c-.48,0-.87-.39-.87-.87h0c0-.48.39-.87.87-.87h13.37c.48,0,.87.39.87.87h0c0,.48-.39.87-.87.87Z"/>
            <path class="cls-19" d="m39.5,154.38h-13.37c-.48,0-.87-.39-.87-.87h0c0-.48.39-.87.87-.87h13.37c.48,0,.87.39.87.87h0c0,.48-.39.87-.87.87Z"/>
            <path class="cls-19" d="m39.5,160.65h-13.37c-.48,0-.87-.39-.87-.87h0c0-.48.39-.87.87-.87h13.37c.48,0,.87.39.87.87h0c0,.48-.39.87-.87.87Z"/>
            <path class="cls-19" d="m39.5,166.92h-13.37c-.48,0-.87-.39-.87-.87h0c0-.48.39-.87.87-.87h13.37c.48,0,.87.39.87.87h0c0,.48-.39.87-.87.87Z"/>
            <path class="cls-19" d="m39.5,173.18h-13.37c-.48,0-.87-.39-.87-.87h0c0-.48.39-.87.87-.87h13.37c.48,0,.87.39.87.87h0c0,.48-.39.87-.87.87Z"/>
          </g>
          <path class="cls-19" d="m81.89,148.11h-35.03c-.48,0-.87-.39-.87-.87h0c0-.48.39-.87.87-.87h35.03c.48,0,.87.39.87.87h0c0,.48-.39.87-.87.87Z"/>
        </g>
        <g>
          <g>
            <path class="cls-4" d="m27.02,136.12l-3.65-3.67-7.19-.02-.05,15.65,10.85.03.03-11.98Z"/>
            <polygon class="cls-15" points="23.36 136.11 27.03 136.12 23.37 132.44 23.36 136.11"/>
          </g>
          <g>
            <circle class="cls-25" cx="21.56" cy="140.79" r="2.82"/>
            <path class="cls-15" d="m20.8,141.92l-.48-1.1c-.04-.09,0-.2.1-.25.09-.04.2,0,.25.1l.3.7,2.15-1.38c.09-.06.2-.03.26.06.06.09.03.2-.06.26l-2.53,1.62Z"/>
          </g>
        </g>
      </g>
      <g>
        <path class="cls-13" d="m50.19,88.38l1.8-1.64.42-1.47c1.5-4.63,4.46-8.72,8.38-11.59l.96-.67-1.8,1.64-.96.67c-4.43,3.25-7.42,7.77-8.8,13.06m40.77-9.25l1.8-1.64.18-10.09-1.8,1.64-.18,10.09Zm10.77-13.59c-.97-.92-1.85-1.76-2.9-2.62-12.97-10.57-31.88-11.65-45.42-1.63,1.13-.63,2.15-1.2,3.33-1.74,13.85-6.4,30.42-3.96,41.76,6.28l1.42,1.35.97.97,1.8-1.64-.97-.97Z"/>
        <path class="cls-6" d="m88.43,111.81l1.8-1.64c-2.4,2.09-5,3.62-8.03,4.63l-.32.11-1.8,1.64c3.2-1.05,5.81-2.52,8.35-4.73m57.33-36.09l1.8-1.64,1.18-9-10.45-2.54-1.8,1.64,10.45,2.54-1.18,9Z"/>
        <polygon class="cls-10" points="136.5 64.18 138.3 62.54 138.19 62.63 138.08 62.72 137.97 62.8 137.86 62.89 137.75 62.98 137.64 63.07 137.54 63.16 137.43 63.25 137.32 63.34 137.21 63.43 137.11 63.52 135.31 65.16 135.41 65.07 135.52 64.98 135.63 64.89 135.74 64.8 135.85 64.71 135.95 64.62 136.06 64.53 136.17 64.44 136.28 64.35 136.39 64.27 136.5 64.18"/>
        <path class="cls-13" d="m145.73,109.53l-9.11.83-1.8,1.64,9.11-.83c1.25,1.14,2.22,1.95,3.67,2.87,10.14,6.41,23.76,4.13,31.15-5.46l.26-.34,1.8-1.64c-3.76,4.98-9.08,8.22-15.27,9.15-6.77,1.02-13.75-.93-18.93-5.43l-.87-.8Zm46.12,6.17c3.54-3.22,5.4-7.67,6.77-12.2l-8.83,3.49-4.93-9.37-1.8,1.64,4.93,9.37,8.83-3.49-.53,1.66c-1.12,3.25-2.54,6.04-4.44,8.91Z"/>
        <path class="cls-23" d="m197.49,102.54l1.8-1.64.44-2.33c2.45-15.68-4.93-31.31-18.76-39.19-12.04-6.86-27.14-6.64-38.97.59l-1.41.9-1.8,1.64c1.51-.97,2.69-1.7,4.32-2.51,14.07-6.98,31.24-4.65,42.88,5.98,9.81,8.96,14.2,22.36,11.75,35.4l-.24,1.16Z"/>
        <path class="cls-13" d="m141.94,109.18l1.8-1.64-15.03-15.02-1.71,1.71,14.95,14.95Zm-9.42,11.5l1.8-1.64.19-10.66-1.8,1.64-.19,10.66Zm-27.82-52.18l-9.63.88-1.8,1.64,9.63-.88,13.63,13.63,1.72-1.72-13.55-13.55Z"/>
        <path class="cls-23" d="m86.84,129.84l1.8-1.64,1.48-8.72-12.76-3.62c-4.22.42-8.18-.1-12.09-1.79-9.47-4.11-15.01-13.92-13.86-24.14l.08-.66-8.27,3.27-5.37-10.2-1.8,1.64,5.37,10.2,8.27-3.27c-.07.14-.21,2.33-.22,2.67-.39,14.08,11.42,25.19,25.44,24l.65-.06,12.76,3.62-1.48,8.72Z"/>
        <path class="cls-3" d="m56.29,77.64c9.11-9.11,24.08-9.11,33.18,0l1.49,1.49.18-10.09,9.77-.89-.97-.97c-14.88-14.88-39.23-14.88-54.11,0-4.06,4.06-7.01,8.82-8.85,13.9l5.46,10.37,7.76-3.07c1-3.95,3.03-7.67,6.1-10.74"/>
        <path class="cls-5" d="m56.29,110.83c-5.39-5.39-7.59-12.85-6.6-19.92l-8.27,3.27-5.37-10.2c-3.55,12.87-.29,27.26,9.77,37.32,11.04,11.04,27.29,13.89,41.02,8.55l1.48-8.72-12.76-3.62c-6.88.78-14.04-1.45-19.27-6.68"/>
        <polygon class="cls-3" points="116.53 104.7 132.51 120.68 132.7 110.03 141.94 109.18 126.99 94.24 116.53 104.7"/>
        <polygon class="cls-3" points="116.53 83.77 102.9 70.14 93.27 71.02 93.09 81.26 106.07 94.24 116.53 83.77"/>
        <path class="cls-5" d="m148.16,74.09c9-5.34,20.91-4.15,28.61,3.55,4.89,4.89,7.15,11.47,6.79,17.92l5.44,10.33,8.49-3.36c2.72-12.35-.7-25.81-10.26-35.36-13.12-13.12-33.59-14.67-48.45-4.67l10.55,2.57-1.18,9.01Z"/>
        <path class="cls-3" d="m176.77,110.83c-8.99,8.99-23.7,9.1-32.84.34l-9.11.83-.19,10.73c14.97,13.43,38.21,12.95,52.6-1.44,4.65-4.65,7.85-10.23,9.59-16.16l-8.83,3.49-4.93-9.37c-.92,4.25-3.02,8.29-6.29,11.57"/>
        <path class="cls-8" d="m99.94,121.29l16.59-16.59,10.46-10.47,16.59-16.59c.69-.69,1.42-1.34,2.18-1.92l1.18-9-10.45-2.54c-1.17.92-2.3,1.92-3.38,3l-16.59,16.59-10.46,10.47-16.59,16.59c-2.71,2.71-5.95,4.62-9.39,5.71l10.69,3.03-1.57,9.26c3.89-1.82,7.53-4.34,10.73-7.54"/>
      </g>
      <g>
        <ellipse class="cls-25" cx="112.32" cy="207.45" rx="46.39" ry="5.58"/>
        <g>
          <g>
            <path class="cls-15" d="m114.94,180.71l7.59,6.86,6.17-4.42,3.73,4.42c7.64-1.94,13.07-4.37,17.49-7.03l-4.82-2.97-15.95-1.77-14.2,4.9Z"/>
            <path class="cls-26" d="m104.57,155.41c3.09.29,6.19.58,9.28.87l2.57-9.53.46,16.2-1.56,17.13c.8,5.95,34.18,3.8,34.58.46.77-6.41-.02-11.62,0-13.68,2.2-.21,7.81-1.92,7.64-6.42-.36-9.7-2.88-29.11-9.43-33.04-3.23-1.86-10.44-3.5-10.44-3.5l-11.75-.08c-3.2.45-8.21,1.71-11.54,5.79-1.74,2.13-2.37,4.23-2.78,5.59-1.46,4.75-3.61,11.21-7.04,20.22Z"/>
            <path class="cls-29" d="m130.39,130.4l-2.7,3.38c-2.61-3.18-2.71-6.69-2.7-9.55l1.16-1.92.23,1.57c.69,2.78,4,6.52,4,6.52Z"/>
            <polygon class="cls-16" points="149.67 166.53 130.51 168.54 124.98 171.44 149.91 170.89 149.67 166.53"/>
            <path class="cls-31" d="m122.07,161.7c1.25-.41,2.11.85,3.15.58,1.04-.27,2.72-.85,3.31-.58,1.05.49,1.8,5.78,0,6.47-1.8.7-6.86.81-6.86.81,0,0-2.83-1.87-2.66-2.12s3.06-5.16,3.06-5.16Z"/>
            <path class="cls-29" d="m131.47,130.23l2.7,3.38c2.61-3.18,2.71-6.69,2.7-9.55l-1.16-1.92-.23,1.57c-.69,2.78-4,6.52-4,6.52Z"/>
            <path class="cls-34" d="m143.23,138.05v16.91l-14.7,6.75s3.32,8.88.6,14.1"/>
            <g>
              <path class="cls-30" d="m124.46,110.57s-1.91-1.72-1.16-2.77c5.55-7.76,20.13-1.88,11.86,10.45-3.01,3.35-8.62-6.69-10.7-7.67Z"/>
              <path class="cls-35" d="m124.41,108.81s-.55,6.16.03,8.68c.54,2.34,2.21,3.66,2.8,3.74l-.85,5.01s3.67,3.48,4.68,3.67,4.3-4.36,4.3-4.36l-.57-8.88c.38-.26,3.1-.81,2.69-2.88-.28-1.38-2.03-1.05-2.9-.46.05-.7-.87-1.09-1.27-3.37-.4-2.29-5.31-1.16-8.92-1.16Z"/>
              <path class="cls-21" d="m127.53,121.04s4.47,1.92,6.98-2.7c0,0-.38,5.71-7.26,4.46l.28-1.76Z"/>
              <path class="cls-20" d="m135.04,115.13c-.06,0-.12-.04-.15-.1-.03-.08,0-.17.09-.2l1.76-.72c.08-.03.17,0,.2.09.03.08,0,.17-.09.2l-1.76.72s-.04.01-.06.01Z"/>
              <path class="cls-20" d="m128.27,116.02c-.44,0-1.26-.06-1.33-.54-.07-.49.8-2.46.98-2.85.04-.08.13-.11.21-.08.08.04.11.13.08.21-.39.87-1,2.36-.96,2.68.03.2.68.3,1.24.27.09,0,.16.06.17.15,0,.09-.06.16-.15.17-.05,0-.13,0-.23,0Z"/>
              <path class="cls-24" d="m125.62,113.26c-.01.28.19.52.44.53.25,0,.47-.21.48-.49s-.19-.52-.44-.53c-.25,0-.47.21-.48.49Z"/>
              <path class="cls-20" d="m131.32,111.74c-.05,0-.1-.03-.13-.08-.12-.21-.29-.33-.49-.38-.51-.12-1.11.26-1.12.26-.07.05-.17.03-.22-.05-.05-.07-.03-.17.05-.22.03-.02.72-.45,1.36-.3.29.07.52.24.69.52.04.07.02.17-.05.22-.03.02-.05.02-.08.02Z"/>
              <path class="cls-20" d="m126.68,111.41s-.07-.01-.1-.04h0s-.34-.3-.67-.27c-.14.01-.25.09-.35.22-.05.07-.15.08-.22.03-.07-.05-.08-.15-.03-.22.15-.21.35-.32.57-.35.46-.05.89.33.91.34.06.06.07.16.01.22-.03.03-.07.05-.12.05Z"/>
              <path class="cls-11" d="m129.99,116.95c-2.32.55-3.44.1-3.44.1,0,0,.16,1.55,1.59,1.69,2.05.2,1.85-1.79,1.85-1.79Z"/>
              <path class="cls-15" d="m126.63,117.08s.11.29.14.35c.03.06.29.23,1.29.29.84.05,1.67-.19,1.9-.27.04-.28.02-.5.02-.5-.14.03-.27.06-.39.09-1.69.34-2.67.13-2.95.04h0Z"/>
              <path class="cls-24" d="m129.49,113.56c-.01.29.19.53.46.54s.48-.22.49-.51c.01-.29-.19-.53-.46-.54-.26,0-.48.22-.49.51Z"/>
            </g>
          </g>
          <g>
            <path class="cls-33" d="m94.15,180.03l-10.18-26.18c-.9-2.25.72-4.72,3.09-4.72h31.72c1.43,0,2.7.93,3.16,2.32l8.75,26.4,10.21.05c.83,0,1.5,1.25,1.5,2.1h0l-11.24-.13-37.01.16Z"/>
            <path class="cls-15" d="m109.2,164.17c.19,1.91-1.37,3.44-3.49,3.49-2.14.06-4.19-1.41-4.55-3.35-.38-2.03,1.2-3.76,3.54-3.78,2.31-.02,4.32,1.65,4.51,3.64Z"/>
          </g>
          <g>
            <polygon class="cls-32" points="117.48 197.49 123.9 202.94 117.06 203.91 110.02 200.46 117.48 197.49"/>
            <g>
              <path class="cls-32" d="m76.26,168.51s-4.86,1.74-4.88,7.19c-.04,10.45,21.11,21.96,21.11,21.96l28.14-18.65,1.76-.71s-37.99-14.27-46.13-9.79Z"/>
              <path class="cls-26" d="m97.61,199.15s-13.25-2.83-17.48-.78c-4.23,2.05-10.44,4.43-8.34,5.95,2.1,1.53,9.83,3.6,14.3,3.19,1.59-.14,3.84-.39,6.07-.73.13.02.25.02.35.02.09,0,.17-.04.24-.12,3.81-.63,7.41-1.57,7.47-2.88.1-2.14-2.6-4.66-2.6-4.66Z"/>
              <path class="cls-28" d="m89.82,198.93s39.76-26.08,41.39-26.62c1.63-.54,5.56-3.12,9.5-2.04,3.93,1.09,7.46,4.61,9.23,9.77,1.01,2.95,1.48,7.97,1.71,11.74.27,4.51-1.13,9-4.08,12.42-1.34,1.56-3,2.91-4.96,3.52-.41.13-.84.24-1.28.34-7.52,1.63-15.24-1.74-19.47-8.17l-.93-1.41s-26.01,9.56-26.42,9.42l-4.69-8.96Z"/>
            </g>
            <g>
              <path class="cls-27" d="m119.63,200.62s-11.81-4.08-14.74-3.13c-2.94.95,2.02,7.97,10.86,8.53,8.84.56,13.39-1.52,12.78-4.26-.61-2.74-8.9-1.14-8.9-1.14Z"/>
              <path class="cls-26" d="m119.49,202.12s-11.81-4.08-14.74-3.13,2.02,7.97,10.86,8.53c8.84.56,13.39-1.52,12.78-4.26-.61-2.74-8.9-1.14-8.9-1.14Z"/>
            </g>
          </g>
        </g>
      </g>
      <g>
        <ellipse class="cls-25" cx="173.13" cy="201.11" rx="16.25" ry="3.82"/>
        <g>
          <g>
            <path class="cls-15" d="m186.76,124.52c-.02-.16-.21-.28-.36-.27-3.53.06-7.96.07-10.95,2.25-2.79,2.03-3.21,5.63-3.14,8.83,0,.34.39.44.6.29.01,0,.02.01.03.02,7.43,2.78,14.88-3.32,13.83-11.11Z"/>
            <path class="cls-15" d="m169.65,138.97c.03-2.46-.54-4.95-2.43-6.65-2.17-1.96-5.3-3.07-7.86-4.4-.26-.13-.68.1-.55.42,1.16,2.95,1,6.55,3.04,9.1,1.74,2.18,4.68,2.91,7.29,2.11.13-.04.2-.13.24-.23.15-.04.27-.15.27-.34Z"/>
            <path class="cls-15" d="m192.49,146.98c-1.74-1.35-3.98-1.21-6.08-1.12-2.33.1-4.68.46-6.8,1.47-3.7,1.76-6.3,5.64-4.96,9.76-.03.17.03.37.25.44,3.53,1.12,5.23-1.24,7.35-3.58,2.72-3,6.21-5.14,10.07-6.33.24-.07.4-.44.16-.63Z"/>
            <path class="cls-15" d="m200.93,155.77s-.09-.04-.13-.06c-1.5-.64-2.84-1.86-4.2-3.04,0,0,0,0-.02-.02-1.49-1.29-3.01-2.51-4.78-2.83-.02,0-.03,0-.04,0-.82-.15-1.68-.1-2.64.22-3.77,1.26-6.09,5.19-6.47,8.97,0,.09.02.16.06.22,0,.02-.01.04-.02.06-.06.21.05.49.34.52,3.23.38,6.41,0,9.58-.66,2.81-.59,5.98-1.07,8.42-2.69.28-.19.21-.56-.09-.68Z"/>
            <path class="cls-15" d="m195.31,163.01c-4.13-.83-12.66-2.93-13.24,3.65-.02.21.12.32.28.35,3.75,4.4,11.03.91,13.19-3.45.1-.2.03-.5-.22-.55Z"/>
            <path class="cls-15" d="m169.14,149.77c-1.1-2.42-3.64-4.93-6.14-5.84-.23-.08-.48.13-.47.36.04,4.78-1.13,12.3,4.07,14.94.04.02.07.02.11.03.14.21.47.29.63,0,1.6-2.87,3.29-6.22,1.81-9.49Z"/>
            <path class="cls-15" d="m155.61,152.81c-2.54-2.07-6.55-2.52-9.5-1.03-4.09,2.08-3.36,7.01-3.98,10.81-.06.37.33.62.63.36,4.05-3.55,9.69-4.94,12.78-9.59h0c.2-.12.3-.38.08-.56Z"/>
            <path class="cls-15" d="m155.64,156.57c-.12-.18-.31-.2-.46-.14-.1-.13-.28-.21-.47-.1-2.03,1.11-4.41,2.67-4.81,5.12-.48,2.92,1.17,5.78,1.35,8.66.03.4.65.54.74.1.52-2.77,3.39-4.03,4.44-6.52.87-2.05.41-5.28-.8-7.12Z"/>
            <path class="cls-15" d="m168.15,173.56c-2.38-3.35-4.83-6.21-8.97-7.25-.3-.08-.61.27-.42.55.93,1.4.91,2.99,1.69,4.4.46.84,1.22,1.46,2.02,1.97,1.76,1.12,4.04,2.13,6.01,1,.4-.23.07-.82-.32-.66Z"/>
            <path class="cls-15" d="m173.52,169.61s-.02-.07-.04-.11c-1.64-2.61-1.71-5.94-3.97-8.19-.18-.17-.46-.13-.59.08-1.11,1.78-1.64,3.91-.76,5.9.95,2.15,2.96,2.74,5.14,2.97.38.04.45-.43.22-.64Z"/>
            <path class="cls-15" d="m178.12,140.39c-.47-.39-1.09,0-1.55.19-.87.37-1.71.79-2.47,1.36-1.42,1.06-2.39,2.55-2.48,4.32-.01.04-.01.09,0,.14,0,.05,0,.1,0,.15,0,.43.59.47.72.15,1.81-.4,3.25-1.57,4.43-2.97.55-.64,2.45-2.43,1.36-3.34Z"/>
            <path class="cls-15" d="m178.94,169.91c-.06-.05-.1-.12-.16-.17.47-3.19.66-6.89-2.48-8.77-.2-.12-.49,0-.55.22-.86,3.38.13,6.85,2.66,9.25.35.33.88-.2.53-.53Z"/>
            <path class="cls-18" d="m200.6,155.4c-1.38-.61-2.69-1.68-4.01-2.72,0,0,0,0-.02-.02-1.52-1.2-3.06-2.39-4.78-2.83-.02,0-.03,0-.04,0-.82-.15-1.68-.1-2.64.22-3.77,1.26-6.09,5.19-6.47,8.97,0,.09.02.16.06.22,0,.02-.01.04-.02.06.13,0,.25-.07.32-.18.08-.01.14-.04.2-.1,1.23-1.31,2.54-2.53,3.83-3.78.62-.6,1.23-1.36,1.93-1.86,1.5-1.07,2.78-.87,4.36-.41,1.88.55,3.59,1.52,5.3,2.46.64.36,1.26.97,1.98.64.13-.05.19-.19.19-.33s-.07-.26-.19-.31Z"/>
            <path class="cls-2" d="m167.45,168c-.36-1.45-.76-2.92-1.25-4.36,0-.01.01-.02.02-.03.67-2.3.93-4.64.79-6.97.13-.02.24-.1.29-.25.43-1.38.61-2.78.55-4.22-.02-.48-.77-.48-.75,0,.05,1-.03,1.97-.24,2.93-.15-1.11-.38-2.21-.72-3.31-.14-.46-.86-.26-.72.2,1.06,3.44,1.16,6.95.33,10.41-.7-1.79-1.58-3.49-2.76-5-2.77-3.55-7.82-5.71-11.81-4.03,0-.14-.09-.26-.27-.31-1.55-.37-3.1-.14-4.47.68-.41.25-.04.9.38.65,1.11-.67,2.35-.89,3.61-.66-.92.52-1.78,1.27-2.51,2.29-.28.39.37.77.65.38,1.91-2.66,5.39-3.49,8.44-2.5.89.29,1.7.71,2.46,1.21-3.19-.07-5.61,2.07-7.79,4.2-.35.34.18.87.53.53.43-.42.88-.85,1.33-1.25-.12.75-.15,1.51-.07,2.28.05.47.8.48.75,0-.1-.98-.04-1.94.21-2.9.01-.05.01-.1,0-.14,1.54-1.22,3.27-2.11,5.38-1.95.2.01.31-.1.34-.25,1.7,1.34,3.03,3.16,4,5.09,1.93,3.83,3.02,8.2,3.65,12.58-1.55-.4-2.9-1.21-3.98-2.4-.33-.36-.85.17-.53.53.55.6,1.16,1.11,1.83,1.53-.43,0-.86-.02-1.29-.09-.47-.07-.67.65-.2.72.72.11,1.43.15,2.16.11.16-.01.26-.1.31-.21.55.25,1.13.46,1.74.6.03,0,.05,0,.07,0,.27,2.12.44,4.24.54,6.29.02.48.77.48.75,0-.2-4.17-.76-8.31-1.76-12.36Z"/>
            <path class="cls-2" d="m179.88,152.61c-.67.49-1.32,1.01-1.93,1.56.36-1.33.93-2.56,1.73-3.7.28-.4-.37-.77-.65-.38-.98,1.39-1.65,2.93-1.99,4.6-.02.11,0,.21.05.28-1.67,1.63-3.09,3.48-4.24,5.55-.2-2.58-.37-5.16-.5-7.75-.09-1.84-.23-3.89-.28-6.01.87-1.17,1.78-2.32,3.13-2.95.44-.2.06-.85-.38-.65-1.14.54-2,1.42-2.77,2.39,0-.99.01-1.99.07-2.99.06-.1.07-.22.02-.34.38-5.29,1.96-10.28,7.02-12.61.44-.2.06-.85-.38-.65-1.28.59-2.35,1.35-3.23,2.23-.04-.73.08-1.44.34-2.13.18-.45-.55-.64-.72-.2-.38.97-.47,1.98-.3,3.01,0,.02.01.03.02.04-2.15,2.57-3.04,6-3.37,9.56-1.08-1.26-2.17-2.52-3.25-3.78.11-.05.18-.15.17-.31-.07-1.05-.4-2.04-1.01-2.9-.27-.39-.92-.02-.65.38.45.64.73,1.34.85,2.1-.4-.47-.81-.94-1.21-1.4-.31-.37-.84.17-.53.53,1.85,2.15,3.7,4.29,5.55,6.44-.08,1.31-.09,2.62-.07,3.91-.02.02-.03.04-.05.07-.13.17-.07.33.06.44.03,1.26.08,2.49.12,3.65.24,5.97.7,11.93,1.35,17.86-1.35-.74-2.09-2.15-2.76-3.49-.22-.43-.86-.05-.65.38.77,1.54,1.65,3.16,3.29,3.91.07.03.14.04.2.03.43,3.81.94,7.62,1.54,11.41.07.47.8.27.72-.2-.97-6.23-1.72-12.48-2.25-18.76.07-.03.13-.07.17-.16,1.71-3.31,4.11-6.12,7.13-8.3.39-.28.01-.93-.38-.65Z"/>
            <path class="cls-2" d="m192.26,153.2c-1.57-.03-3.01.35-4.31,1,.55-.59,1.15-1.14,1.8-1.64.38-.29,0-.94-.38-.65-1.26.96-2.35,2.07-3.27,3.36-.04.05-.06.1-.06.15-2.53,1.99-4.41,5.02-5.57,7.92-.71,1.76-1.23,3.58-1.64,5.43-.42-.7-.65-1.49-.91-2.26-.21-.62-.4-1.18-.97-1.54-.41-.26-.79.39-.38.65.61.38.75,1.48.96,2.11.21.61.45,1.19.82,1.72.08.11.18.15.29.16-.91,4.52-1.16,9.23-1.59,13.76-.05.48.7.48.75,0,.4-4.22.67-8.53,1.43-12.73.05-.02.11-.05.16-.1,1.41-1.56,2.88-3.13,4.66-4.22.54.5,1.16.88,1.86,1.12.46.16.65-.57.2-.72-.51-.17-.97-.44-1.37-.77.5-.25,1.01-.48,1.56-.64.46-.14.26-.86-.2-.72-.73.22-1.4.52-2.04.87-.11,0-.22.08-.29.17-1.62.96-2.99,2.29-4.29,3.7.25-1.18.53-2.35.89-3.5.72-2.33,1.87-4.92,3.46-7.08.01,0,.03,0,.04,0,.85-.28,1.72-.49,2.61-.61.48-.06.27-.79-.2-.72-.56.08-1.11.19-1.65.33,1.95-2.26,4.48-3.84,7.62-3.78.48,0,.48-.74,0-.75Z"/>
          </g>
          <g>
            <polygon class="cls-22" points="186.02 176.53 185.42 180.24 184.36 186.88 182.03 201.37 165 201.37 162.67 186.88 161.6 180.24 161.01 176.53 186.02 176.53"/>
            <polygon class="cls-9" points="168.12 180.24 167.52 176.53 161.01 176.53 161.6 180.24 162.67 186.88 165 201.37 171.51 201.37 169.19 186.88 168.12 180.24"/>
          </g>
        </g>
      </g>
      <g>
        <path class="cls-2" d="m216.61,179.4h-1.63v-1.64c0-.35-.29-.64-.64-.64s-.64.28-.64.64v1.64h-1.64c-.35,0-.64.28-.64.63s.29.64.64.64h1.64v1.63c0,.35.28.64.64.64s.64-.29.64-.64v-1.63h1.63c.35,0,.64-.29.64-.64s-.29-.63-.64-.63Z"/>
        <path class="cls-2" d="m16.88,122.1h-1.63v-1.64c0-.35-.29-.64-.64-.64s-.64.28-.64.64v1.64h-1.64c-.35,0-.64.28-.64.63s.29.64.64.64h1.64v1.63c0,.35.28.64.64.64s.64-.29.64-.64v-1.63h1.63c.35,0,.64-.29.64-.64s-.29-.63-.64-.63Z"/>
        <path class="cls-2" d="m199.38,180.03c0,1.57,1.28,2.85,2.85,2.85s2.85-1.28,2.85-2.85-1.28-2.85-2.85-2.85-2.85,1.28-2.85,2.85Zm1.09,0c0-.97.79-1.76,1.76-1.76s1.76.79,1.76,1.76-.79,1.76-1.76,1.76-1.76-.79-1.76-1.76Z"/>
        <path class="cls-2" d="m198.34,133.61c0,1.57,1.28,2.85,2.85,2.85s2.85-1.28,2.85-2.85-1.28-2.85-2.85-2.85-2.85,1.28-2.85,2.85Zm1.09,0c0-.97.79-1.76,1.76-1.76s1.76.79,1.76,1.76-.79,1.76-1.76,1.76-1.76-.79-1.76-1.76Z"/>
        <path class="cls-2" d="m20.44,111.1c0,1.57,1.28,2.85,2.85,2.85s2.85-1.28,2.85-2.85-1.28-2.85-2.85-2.85-2.85,1.28-2.85,2.85Zm1.09,0c0-.97.79-1.76,1.76-1.76s1.76.79,1.76,1.76-.79,1.76-1.76,1.76-1.76-.79-1.76-1.76Z"/>
        <path class="cls-2" d="m23.53,122.02c-.4,0-.72.33-.72.72s.32.72.72.72h7.19c.4,0,.72-.32.72-.72s-.32-.72-.72-.72h-7.19Z"/>
        <path class="cls-2" d="m33.81,122.02c-.4,0-.72.33-.72.72s.32.72.72.72h1.32c.4,0,.72-.32.72-.72s-.32-.72-.72-.72h-1.32Z"/>
        <g>
          <path class="cls-2" d="m199.11,167.79c-.4,0-.72.33-.72.72s.32.72.72.72h7.19c.4,0,.72-.32.72-.72s-.32-.72-.72-.72h-7.19Z"/>
          <path class="cls-2" d="m209.39,167.79c-.4,0-.72.33-.72.72s.32.72.72.72h1.32c.4,0,.72-.32.72-.72s-.32-.72-.72-.72h-1.32Z"/>
        </g>
        <g>
          <path class="cls-2" d="m63.92,101.66c-.4,0-.72.33-.72.72s.32.72.72.72h7.19c.4,0,.72-.32.72-.72s-.32-.72-.72-.72h-7.19Z"/>
          <path class="cls-2" d="m74.2,101.66c-.4,0-.72.33-.72.72s.32.72.72.72h1.32c.4,0,.72-.32.72-.72s-.32-.72-.72-.72h-1.32Z"/>
        </g>
      </g>
      <g>
        <g>
          <path class="cls-7" d="m124.09,51.31l.28-.84-1.95-1.31-1.45.94c-.63-.52-1.33-.91-2.08-1.18l.07-1.72-2.42-1.18-.28.84-.36,1.69c-.79.07-1.57.28-2.31.63l-1.17-1.27-1.87.83-.28.84.94,1.45c-.52.63-.91,1.33-1.18,2.08l-1.44-.91-.28.84-.34,2.7,1.69.36c.07.79.28,1.57.63,2.31l-.99.33-.28.84,1.67,2.15,1.45-.94c.63.52,1.33.91,2.08,1.18l-.07,1.72,2.7.34.28-.84.08-.85c.79-.07,1.57-.28,2.31-.63l1.17,1.27,2.15-1.67.28-.84-1.22-.61c.52-.63.91-1.33,1.18-2.08l1.72.07.28-.84.06-1.86-1.69-.36c-.07-.79-.28-1.57-.63-2.3l1.27-1.17Zm-4.9,7.53c-1.87,1.46-4.58,1.12-6.03-.76-1.46-1.87-1.12-4.58.76-6.03,1.88-1.46,4.58-1.12,6.03.76,1.46,1.87,1.12,4.58-.76,6.03Z"/>
          <path class="cls-2" d="m124.37,50.47l-1.67-2.15-1.45.94c-.63-.52-1.33-.91-2.08-1.18l.07-1.72-2.7-.34-.36,1.69c-.79.07-1.57.28-2.31.63l-1.17-1.27-2.15,1.67.94,1.45c-.52.63-.91,1.33-1.18,2.08l-1.72-.07-.34,2.7,1.69.36c.07.79.28,1.57.63,2.3l-1.27,1.17,1.67,2.15,1.45-.94c.63.52,1.33.92,2.08,1.18l-.07,1.72,2.7.34.36-1.69c.79-.07,1.57-.28,2.31-.63l1.17,1.27,2.15-1.67-.94-1.45c.52-.63.91-1.33,1.18-2.08l1.72.07.34-2.7-1.69-.36c-.07-.79-.28-1.57-.63-2.3l1.27-1.17Zm-4.9,7.53c-1.87,1.46-4.58,1.12-6.03-.76-1.46-1.87-1.12-4.58.76-6.03,1.88-1.46,4.58-1.12,6.03.76,1.46,1.87,1.12,4.58-.76,6.03Z"/>
        </g>
        <g>
          <path class="cls-1" d="m124.42,34.03l.21-.86-1.42-1.59-1.61.63c-.51-.64-1.12-1.17-1.8-1.58l.42-1.68-2.59-.88-.7,1.58c-.79-.09-1.6-.04-2.39.15l-.89-1.48-2.24.34-.21.86.63,1.61c-.64.51-1.17,1.12-1.58,1.8l-1.68-.42-.67,1.72-.21.86,1.58.7c-.09.79-.04,1.6.15,2.39l-1.27.03-.21.86,1.21,2.45,1.61-.63c.51.64,1.12,1.17,1.8,1.58l-.42,1.68,2.59.88.7-1.58c.79.09,1.6.04,2.39-.15l.89,1.48,2.46-1.21.21-.86-.84-.75c.64-.51,1.17-1.12,1.58-1.8l1.68.42.88-2.59.21-.86-1.79.17c.09-.79.04-1.6-.15-2.39l1.48-.89Zm-6.35,6.4c-2.14,1.05-4.72.17-5.77-1.97-1.05-2.14-.17-4.72,1.97-5.77,2.14-1.05,4.72-.17,5.77,1.97,1.05,2.14.17,4.72-1.97,5.77Z"/>
          <path class="cls-4" d="m124.63,33.16l-1.21-2.45-1.61.63c-.51-.64-1.12-1.17-1.8-1.58l.42-1.68-2.59-.88-.7,1.58c-.79-.09-1.6-.04-2.39.15l-.89-1.48-2.45,1.21.63,1.61c-.64.51-1.17,1.12-1.58,1.8l-1.68-.42-.88,2.59,1.58.7c-.09.79-.04,1.6.15,2.39l-1.48.89,1.2,2.45,1.61-.63c.51.64,1.12,1.17,1.8,1.58l-.42,1.68,2.59.88.7-1.58c.79.09,1.6.04,2.39-.15l.89,1.48,2.46-1.21-.63-1.61c.64-.51,1.17-1.12,1.58-1.8l1.68.42.88-2.59-1.58-.7c.09-.79.04-1.6-.15-2.39l1.48-.89Zm-6.35,6.4c-2.14,1.05-4.72.17-5.77-1.97-1.05-2.14-.17-4.72,1.97-5.77,2.14-1.05,4.72-.17,5.77,1.97,1.05,2.14.17,4.72-1.97,5.77Z"/>
        </g>
        <g>
          <path class="cls-14" d="m142.15,38.2l.34-1.02-2.98-.96-1.39,1.56c-.9-.41-1.85-.64-2.81-.71l-.48-2.03-2.93-.55-.34,1.02.12,2.09c-.9.34-1.74.83-2.49,1.48l-1.78-1.1-1.64,1.63-.34,1.02,1.56,1.39c-.4.9-.64,1.85-.71,2.81l-1.7-.54-.34,1.02.47,3.26,2.09-.12c.34.9.83,1.74,1.48,2.49l-.76.76-.34,1.02,2.64,1.98,1.39-1.56c.9.4,1.85.64,2.81.71l.48,2.03,3.26-.47.34-1.02-.46-1.07c.9-.34,1.74-.84,2.49-1.48l1.78,1.1,1.98-2.64.34-1.02-1.9-.37c.41-.9.64-1.85.71-2.81l2.03-.48.34-1.02-.81-2.25-2.09.12c-.34-.9-.84-1.74-1.48-2.49l1.1-1.78Zm-3.3,10.37c-1.72,2.3-4.98,2.78-7.29,1.06-2.3-1.72-2.78-4.98-1.06-7.29,1.72-2.3,4.98-2.78,7.29-1.06,2.3,1.72,2.78,4.98,1.06,7.29Z"/>
          <path class="cls-12" d="m142.49,37.18l-2.64-1.97-1.39,1.56c-.9-.41-1.85-.64-2.81-.71l-.48-2.03-3.26.47.12,2.09c-.9.34-1.74.83-2.49,1.48l-1.78-1.1-1.97,2.65,1.56,1.39c-.4.9-.64,1.85-.71,2.81l-2.03.48.47,3.26,2.09-.12c.34.9.83,1.74,1.48,2.49l-1.1,1.78,2.64,1.98,1.39-1.56c.9.4,1.85.64,2.81.71l.48,2.03,3.26-.47-.12-2.09c.9-.34,1.74-.84,2.49-1.48l1.78,1.1,1.98-2.64-1.56-1.39c.41-.9.64-1.85.71-2.81l2.03-.48-.47-3.26-2.09.12c-.34-.9-.84-1.74-1.48-2.49l1.1-1.78Zm-3.3,10.37c-1.72,2.3-4.98,2.78-7.29,1.06-2.3-1.72-2.78-4.98-1.06-7.29,1.72-2.3,4.98-2.78,7.29-1.06,2.3,1.72,2.78,4.98,1.06,7.29Z"/>
        </g>
      </g>
      <g>
        <g>
          <path class="cls-9" d="m42.24,44.6h34.24c.87,0,1.58.71,1.58,1.58v16.59c0,.87-.71,1.58-1.58,1.58h-34.24c-.87,0-1.58-.71-1.58-1.58v-16.59c0-.87.71-1.58,1.58-1.58Z"/>
          <path class="cls-22" d="m40.65,49.26v16.28c0,.87.71,1.58,1.58,1.58h34.24c.87,0,1.58-.71,1.58-1.58v-16.28h-37.41Z"/>
        </g>
        <path class="cls-22" d="m46.44,47.02c0,.67-.54,1.21-1.21,1.21s-1.22-.54-1.22-1.21.54-1.22,1.22-1.22,1.21.54,1.21,1.22Z"/>
        <path class="cls-22" d="m51.06,47.02c0,.67-.54,1.21-1.21,1.21s-1.22-.54-1.22-1.21.54-1.22,1.22-1.22,1.21.54,1.21,1.22Z"/>
      </g>
      <text class="cls-36" transform="translate(49.85 61.3)"><tspan x="0" y="0">{...}</tspan></text>
    </g>
  </g>
</svg>