<?xml version="1.0" encoding="UTF-8"?>
<svg id="Layer_2" data-name="Layer 2" xmlns="http://www.w3.org/2000/svg" xmlns:xlink="http://www.w3.org/1999/xlink" viewBox="0 0 120 120">
  <defs>
    <style>
      .cls-1 {
        fill: url(#Razorswift_Gradient-2);
      }

      .cls-1, .cls-2, .cls-3, .cls-4, .cls-5, .cls-6, .cls-7, .cls-8, .cls-9, .cls-10, .cls-11, .cls-12, .cls-13 {
        stroke-width: 0px;
      }

      .cls-2 {
        fill: url(#Razorswift_Gradient-5);
      }

      .cls-3 {
        fill: url(#Razorswift_Gradient-7);
      }

      .cls-4 {
        fill: url(#Razorswift_Gradient-9);
      }

      .cls-5 {
        fill: url(#Razorswift_Gradient-8);
      }

      .cls-6 {
        fill: none;
      }

      .cls-7 {
        fill: url(#Razorswift_Gradient-12);
      }

      .cls-8 {
        fill: url(#Razorswift_Gradient);
      }

      .cls-9 {
        fill: url(#Razorswift_Gradient-6);
      }

      .cls-10 {
        fill: url(#Razorswift_Gradient-11);
      }

      .cls-11 {
        fill: url(#Razorswift_Gradient-10);
      }

      .cls-12 {
        fill: url(#Razorswift_Gradient-4);
      }

      .cls-13 {
        fill: url(#Razorswift_Gradient-3);
      }
    </style>
    <linearGradient id="Razorswift_Gradient" data-name="Razorswift Gradient" x1="54.39" y1="17.8" x2="102.28" y2="17.8" gradientUnits="userSpaceOnUse">
      <stop offset="0" stop-color="#682376"/>
      <stop offset="1" stop-color="#a52973"/>
    </linearGradient>
    <linearGradient id="Razorswift_Gradient-2" data-name="Razorswift Gradient" y1="25.05" y2="25.05" xlink:href="#Razorswift_Gradient"/>
    <linearGradient id="Razorswift_Gradient-3" data-name="Razorswift Gradient" x1="54.39" y1="32.31" x2="87.82" y2="32.31" xlink:href="#Razorswift_Gradient"/>
    <linearGradient id="Razorswift_Gradient-4" data-name="Razorswift Gradient" y1="52.74" y2="52.74" xlink:href="#Razorswift_Gradient"/>
    <linearGradient id="Razorswift_Gradient-5" data-name="Razorswift Gradient" y1="60" y2="60" xlink:href="#Razorswift_Gradient"/>
    <linearGradient id="Razorswift_Gradient-6" data-name="Razorswift Gradient" x1="54.39" y1="67.26" x2="87.82" y2="67.26" xlink:href="#Razorswift_Gradient"/>
    <linearGradient id="Razorswift_Gradient-7" data-name="Razorswift Gradient" x1="17.73" y1="94.95" x2="50.22" y2="94.95" xlink:href="#Razorswift_Gradient"/>
    <linearGradient id="Razorswift_Gradient-8" data-name="Razorswift Gradient" y1="87.69" y2="87.69" xlink:href="#Razorswift_Gradient"/>
    <linearGradient id="Razorswift_Gradient-9" data-name="Razorswift Gradient" y1="94.95" y2="94.95" xlink:href="#Razorswift_Gradient"/>
    <linearGradient id="Razorswift_Gradient-10" data-name="Razorswift Gradient" x1="54.39" y1="102.2" x2="87.82" y2="102.2" xlink:href="#Razorswift_Gradient"/>
    <linearGradient id="Razorswift_Gradient-11" data-name="Razorswift Gradient" x1="17.72" y1="25.05" x2="50.22" y2="25.05" xlink:href="#Razorswift_Gradient"/>
    <linearGradient id="Razorswift_Gradient-12" data-name="Razorswift Gradient" x1="17.73" y1="60" x2="50.22" y2="60" xlink:href="#Razorswift_Gradient"/>
  </defs>
  <g id="Layer_2-2" data-name="Layer 2">
    <g>
      <rect class="cls-6" width="120" height="120"/>
      <rect class="cls-6" x="10" y="10" width="100" height="100"/>
      <g>
        <path class="cls-8" d="m55.85,19.26h44.96c.81,0,1.46-.65,1.46-1.46s-.65-1.46-1.46-1.46h-44.96c-.81,0-1.46.65-1.46,1.46s.66,1.46,1.46,1.46h0Z"/>
        <path class="cls-1" d="m100.81,23.59h-44.96c-.81,0-1.46.65-1.46,1.46s.66,1.46,1.46,1.46h44.96c.81,0,1.46-.65,1.46-1.46s-.65-1.46-1.46-1.46Z"/>
        <path class="cls-13" d="m55.85,33.77h30.51c.81,0,1.46-.65,1.46-1.46s-.65-1.46-1.46-1.46h-30.51c-.81,0-1.46.65-1.46,1.46s.66,1.46,1.46,1.46Z"/>
        <path class="cls-12" d="m100.81,51.28h-44.96c-.81,0-1.46.65-1.46,1.46s.66,1.46,1.46,1.46h44.96c.81,0,1.46-.65,1.46-1.46s-.65-1.46-1.46-1.46Z"/>
        <path class="cls-2" d="m100.81,58.54h-44.96c-.81,0-1.46.65-1.46,1.46s.66,1.46,1.46,1.46h44.96c.81,0,1.46-.65,1.46-1.46s-.65-1.46-1.46-1.46Z"/>
        <path class="cls-9" d="m55.85,68.72h30.51c.81,0,1.46-.65,1.46-1.46s-.65-1.46-1.46-1.46h-30.51c-.81,0-1.46.65-1.46,1.46s.66,1.46,1.46,1.46Z"/>
        <path class="cls-3" d="m48.82,82.06c-.82-.73-1.88-1.08-2.98-1.02-1.1.07-2.1.56-2.82,1.39l-.74.84c-2.59-2.11-5.9-3.39-9.5-3.39-8.3,0-15.05,6.75-15.05,15.05s6.75,15.05,15.05,15.05,15.05-6.75,15.05-15.05c0-1.63-.27-3.21-.75-4.68l2.11-2.4c.73-.82,1.09-1.88,1.02-2.98-.07-1.1-.56-2.1-1.39-2.82h0Zm-16.04,25.01c-6.69,0-12.13-5.44-12.13-12.13s5.44-12.13,12.13-12.13c2.86,0,5.49,1,7.56,2.66l-6.2,7.04-2.22-2.59c-.71-.83-1.71-1.34-2.81-1.42-1.09-.08-2.16.26-2.99.98-1.72,1.48-1.92,4.08-.45,5.8l5.3,6.19c.78.9,1.9,1.43,3.09,1.44.01,0,.02,0,.03,0,1.18,0,2.31-.51,3.09-1.4l7.54-8.58c.11.66.17,1.33.17,2.02,0,6.69-5.44,12.13-12.13,12.13h0Zm14.22-21.14l-12,13.64c-.22.25-.55.4-.88.4,0,0,0,0-.01,0-.34,0-.67-.15-.89-.41l-5.31-6.19c-.43-.5-.37-1.25.13-1.67.22-.19.49-.29.77-.29.03,0,.06,0,.09,0,.32.02.6.17.81.41l3.32,3.87c.28.32.68.51,1.1.51.43,0,.83-.18,1.11-.5l9.98-11.35c.21-.24.5-.38.81-.4.32-.02.62.08.86.29.24.21.38.5.4.81.02.32-.08.62-.29.86Z"/>
        <path class="cls-5" d="m100.81,86.23h-44.96c-.81,0-1.46.65-1.46,1.46s.66,1.46,1.46,1.46h44.96c.81,0,1.46-.65,1.46-1.46s-.65-1.46-1.46-1.46Z"/>
        <path class="cls-4" d="m100.81,93.48h-44.96c-.81,0-1.46.65-1.46,1.46s.66,1.46,1.46,1.46h44.96c.81,0,1.46-.65,1.46-1.46s-.65-1.46-1.46-1.46Z"/>
        <path class="cls-11" d="m86.36,100.74h-30.51c-.81,0-1.46.65-1.46,1.46s.66,1.46,1.46,1.46h30.51c.81,0,1.46-.65,1.46-1.46s-.66-1.46-1.46-1.46Z"/>
        <path class="cls-10" d="m48.82,12.17c-.82-.73-1.88-1.09-2.98-1.02-1.1.07-2.1.56-2.82,1.39l-.74.84c-2.59-2.11-5.9-3.39-9.5-3.39s-7.3,1.37-10.07,3.87c-.6.54-.65,1.47-.11,2.07.54.6,1.47.65,2.07.11,2.23-2.01,5.11-3.11,8.11-3.11s5.49,1,7.56,2.66l-6.2,7.04-2.22-2.59c-.71-.83-1.71-1.34-2.81-1.42-1.09-.08-2.16.26-2.99.98-1.72,1.48-1.92,4.08-.45,5.8l5.3,6.19c.78.9,1.9,1.43,3.09,1.44.01,0,.02,0,.03,0,1.18,0,2.31-.51,3.09-1.4l7.54-8.58c.11.66.17,1.33.17,2.02,0,6.69-5.44,12.13-12.13,12.13s-12.13-5.44-12.13-12.13c0-1.43.25-2.84.74-4.17.28-.76-.11-1.6-.87-1.88-.76-.28-1.6.11-1.88.87-.61,1.66-.91,3.4-.91,5.18,0,8.3,6.75,15.05,15.05,15.05s15.05-6.75,15.05-15.05c0-1.64-.26-3.21-.75-4.68l2.11-2.4c.73-.82,1.09-1.88,1.02-2.98-.07-1.1-.56-2.1-1.39-2.82Zm-1.83,3.87l-12,13.64c-.22.25-.55.4-.88.4,0,0,0,0-.01,0-.34,0-.67-.15-.89-.41l-5.31-6.19c-.43-.5-.37-1.25.13-1.67.22-.19.49-.29.77-.29.03,0,.06,0,.09,0,.32.02.6.17.81.41l3.32,3.87c.28.32.68.51,1.1.51.43,0,.83-.18,1.11-.5l9.98-11.35c.21-.24.5-.38.81-.4.32-.02.62.08.86.29.24.21.38.5.4.81.02.32-.08.62-.29.86Z"/>
        <path class="cls-7" d="m48.82,47.12c-.82-.73-1.88-1.09-2.98-1.02-1.1.07-2.1.56-2.82,1.39l-.74.85c-2.59-2.11-5.9-3.39-9.49-3.39-8.3,0-15.05,6.75-15.05,15.05s6.75,15.05,15.05,15.05,15.05-6.75,15.05-15.05c0-1.63-.27-3.21-.75-4.68l2.11-2.4c.73-.82,1.09-1.88,1.02-2.98-.07-1.1-.56-2.1-1.39-2.82h0Zm-1.83,3.87l-6.22,7.08c-.53.61-.47,1.53.13,2.06.61.53,1.53.47,2.06-.13l1.77-2.01c.11.66.17,1.33.17,2.02,0,6.69-5.44,12.13-12.13,12.13s-12.13-5.44-12.13-12.13,5.44-12.13,12.13-12.13c2.86,0,5.49,1,7.56,2.66l-6.2,7.04-2.22-2.59c-.71-.83-1.71-1.34-2.81-1.42-1.09-.09-2.16.26-2.99.98-1.72,1.48-1.92,4.08-.45,5.8l5.3,6.19c.78.9,1.9,1.43,3.09,1.44.01,0,.02,0,.03,0,1.18,0,2.31-.51,3.09-1.4l1.36-1.54c.53-.61.47-1.53-.13-2.06-.61-.53-1.53-.47-2.06.13l-1.36,1.54c-.22.25-.55.4-.88.4,0,0,0,0-.01,0-.34,0-.67-.15-.89-.41l-5.31-6.19c-.43-.5-.37-1.25.13-1.67.24-.21.55-.31.86-.28.32.02.6.17.81.41l3.32,3.87c.28.32.68.51,1.1.51h0c.42,0,.82-.18,1.1-.5l9.98-11.35c.21-.24.5-.38.81-.4.32-.02.62.08.86.29.24.21.38.5.4.81.02.32-.08.62-.29.86h0Z"/>
      </g>
    </g>
  </g>
</svg>