<svg width="194" height="151" viewBox="0 0 194 151" fill="none" xmlns="http://www.w3.org/2000/svg">
<g clip-path="url(#clip0_1289_14082)">
<path d="M58.2855 148.554C44.5467 148.554 34.1386 144.183 27.0611 135.44C20.3999 126.697 17.0693 115.873 17.0693 102.967C17.0693 85.8974 21.6489 67.3709 30.808 47.3874C40.3835 26.9874 51.8324 10.7507 65.1548 -1.32269L85.7629 13.665C67.0283 36.1466 56.6202 59.0445 54.5385 82.3587C57.8691 81.526 60.1589 81.1097 61.4079 81.1097C70.5671 81.1097 78.2691 84.0239 84.5139 89.8525C90.7588 95.681 93.8813 103.175 93.8813 112.334C93.8813 122.742 90.5507 131.485 83.8895 138.563C77.6446 145.224 69.1099 148.554 58.2855 148.554ZM153.832 148.554C140.093 148.554 129.685 144.183 122.608 135.44C115.946 126.697 112.616 115.873 112.616 102.967C112.616 85.8974 117.195 67.3709 126.355 47.3874C135.93 27.4037 147.379 11.1671 160.701 -1.32269L181.31 13.665C162.575 36.1466 152.167 59.0445 150.085 82.3587C153.416 81.526 155.706 81.1097 156.955 81.1097C166.114 81.1097 173.816 84.0239 180.061 89.8525C186.305 95.681 189.428 103.175 189.428 112.334C189.428 122.742 186.097 131.485 179.436 138.563C173.191 145.224 164.657 148.554 153.832 148.554Z" fill="white" fill-opacity="0.08"/>
</g>
<defs>
<clipPath id="clip0_1289_14082">
<rect width="194" height="150" fill="white" transform="translate(0 0.140625)"/>
</clipPath>
</defs>
</svg>
