<svg width="195" height="153" viewBox="0 0 195 153" fill="none" xmlns="http://www.w3.org/2000/svg">
<path d="M136.261 2.4613C150 2.4613 160.408 6.83271 167.486 15.5755C174.147 24.3183 177.478 35.1428 177.478 48.0489C177.478 65.1182 172.898 83.6447 163.739 103.628C154.163 124.028 142.714 140.265 129.392 152.338L108.784 137.351C127.519 114.869 137.927 91.9712 140.008 68.657C136.678 69.4896 134.388 69.906 133.139 69.906C123.98 69.906 116.278 66.9917 110.033 61.1631C103.788 55.3346 100.666 47.8407 100.666 38.6816C100.666 28.2734 103.996 19.5306 110.657 12.4531C116.902 5.7919 125.437 2.4613 136.261 2.4613ZM40.7148 2.4613C54.4535 2.4613 64.8617 6.83271 71.9392 15.5755C78.6004 24.3183 81.931 35.1428 81.931 48.0489C81.931 65.1182 77.3514 83.6447 68.1923 103.628C58.6168 123.612 47.1678 139.849 33.8454 152.338L13.2373 137.351C31.972 114.869 42.3801 91.9712 44.4617 68.657C41.1311 69.4896 38.8413 69.906 37.5924 69.906C28.4332 69.906 20.7312 66.9917 14.4863 61.1631C8.24144 55.3346 5.119 47.8407 5.119 38.6816C5.119 28.2734 8.4496 19.5306 15.1108 12.4531C21.3557 5.7919 29.8903 2.4613 40.7148 2.4613Z" fill="white" fill-opacity="0.08"/>
</svg>
