<svg width="19" height="19" viewBox="0 0 19 19" fill="none" xmlns="http://www.w3.org/2000/svg">
<path d="M9.29204 6.31934L8.48954 7.71434C8.30954 8.02184 8.45954 8.27684 8.81204 8.27684H9.76454C10.1245 8.27684 10.267 8.53184 10.087 8.83934L9.29204 10.2343" stroke="#6A6A6A" stroke-linecap="round" stroke-linejoin="round"/>
<path d="M6.51652 13.9315V13.0615C4.79152 12.019 3.37402 9.9865 3.37402 7.8265C3.37402 4.114 6.78652 1.204 10.6415 2.044C12.3365 2.419 13.8215 3.544 14.594 5.0965C16.1615 8.2465 14.5115 11.5915 12.089 13.054V13.924C12.089 14.1415 12.1715 14.644 11.369 14.644H7.23652C6.41152 14.6515 6.51652 14.329 6.51652 13.9315Z" stroke="#6A6A6A" stroke-linecap="round" stroke-linejoin="round"/>
<path d="M6.66699 16.9018C8.38449 16.4143 10.1995 16.4143 11.917 16.9018" stroke="#6A6A6A" stroke-linecap="round" stroke-linejoin="round"/>
</svg>
