<svg width="20" height="20" viewBox="0 0 20 20" fill="none" xmlns="http://www.w3.org/2000/svg">
<ellipse cx="9.98964" cy="10.2187" rx="9.59999" ry="9.6" fill="#3286FF"/>
<path d="M14.0575 7.9735C14.4739 7.65508 14.8242 7.25762 15.1096 6.79997V6.79951C14.7286 6.97917 14.3233 7.09864 13.9 7.15653C14.3352 6.8767 14.6676 6.43697 14.8238 5.90719C14.418 6.16772 13.97 6.35151 13.4926 6.45444C13.1073 6.01241 12.5582 5.73901 11.9591 5.73901C10.7969 5.73901 9.8612 6.75494 9.8612 8.00015C9.8612 8.17935 9.87528 8.35166 9.90984 8.51569C8.16477 8.4238 6.62024 7.5232 5.58259 6.15071C5.40168 6.48936 5.29502 6.8767 5.29502 7.29346C5.29502 8.07642 5.6692 8.77025 6.22771 9.1723C5.89021 9.16541 5.55955 9.05973 5.27923 8.89385V8.91866C5.27923 10.0173 6.00669 10.9298 6.96115 11.1403C6.79005 11.1908 6.60403 11.2147 6.41075 11.2147C6.27635 11.2147 6.14067 11.2065 6.01352 11.1761C6.28531 12.0712 7.05757 12.7297 7.97491 12.7512C7.26067 13.3527 6.35357 13.7153 5.37182 13.7153C5.19987 13.7153 5.03475 13.707 4.86963 13.6845C5.79976 14.33 6.90141 14.699 8.09011 14.699C11.7948 14.699 14.2094 11.3705 14.0575 7.9735Z" fill="white"/>
</svg>
