<svg width="16" height="12" viewBox="0 0 16 12" fill="none" xmlns="http://www.w3.org/2000/svg">
<path fill-rule="evenodd" clip-rule="evenodd" d="M15.5743 1.97976C15.5743 1.55212 15.4043 1.14188 15.1022 0.839304C14.7996 0.537147 14.3893 0.367188 13.9617 0.367188H2.35086C1.92322 0.367188 1.51297 0.537158 1.2104 0.839304C0.908242 1.14188 0.738281 1.55212 0.738281 1.97976V9.72028C0.738281 10.1479 0.908253 10.5582 1.2104 10.8607C1.51297 11.1629 1.92322 11.3329 2.35086 11.3329H13.9617C14.3893 11.3329 14.7996 11.1629 15.1022 10.8607C15.4043 10.5582 15.5743 10.1479 15.5743 9.72028V1.97976ZM6.2212 6.30616L1.93376 10.5936C2.0628 10.6551 2.20502 10.6881 2.35081 10.6881H13.9616C14.1074 10.6881 14.2497 10.6551 14.3787 10.5936L10.0913 6.30616L9.29658 7.10116C8.99401 7.40343 8.58376 7.57339 8.15612 7.57339C7.72848 7.57339 7.31823 7.40342 7.01566 7.10116L6.2212 6.30616ZM14.8348 1.56288C14.8963 1.69192 14.9293 1.83414 14.9293 1.97992V9.72045C14.9293 9.86623 14.8963 10.0084 14.8348 10.1375L10.5473 5.85007L14.8348 1.56288ZM1.47789 1.56288L5.76533 5.8503L1.47789 10.1377C1.41634 10.0087 1.3834 9.86645 1.3834 9.72067V1.98015C1.3834 1.83436 1.41634 1.69214 1.47789 1.5631V1.56288ZM14.3789 1.10685C14.2499 1.0453 14.1077 1.01236 13.9619 1.01236H2.35103C2.20525 1.01236 2.06302 1.0453 1.93398 1.10685L7.47235 6.64492C7.65366 6.82655 7.89977 6.92838 8.15645 6.92838C8.41313 6.92838 8.65925 6.82655 8.84055 6.64492L14.3789 1.10685Z" fill="#434343"/>
</svg>
