<svg xmlns="http://www.w3.org/2000/svg" width="64.518" height="64.5" viewBox="0 0 64.518 64.5">
  <g id="Group_766" data-name="Group 766" transform="translate(0.238 -0.88)">
    <path id="Path_2451" data-name="Path 2451" d="M21.335,27.645a1.043,1.043,0,1,0,1.723-1.174A5.9,5.9,0,0,0,14.83,24.8a1.077,1.077,0,0,0,1.163,1.734,3.845,3.845,0,0,1,5.342,1.109Z" transform="translate(-0.161 0.766)" stroke="#000" stroke-width="0.5"/>
    <path id="Path_2452" data-name="Path 2452" d="M17.028,41.944a3.845,3.845,0,0,1-2.984-4.567,1.077,1.077,0,0,0-2.036-.334,5.9,5.9,0,0,0,4.642,7h.2a1.077,1.077,0,0,0,.194-2.068Z" transform="translate(-0.085 1.108)" stroke="#000" stroke-width="0.5"/>
    <path id="Path_2453" data-name="Path 2453" d="M22.154,37.486A1.077,1.077,0,1,0,20.1,37.8a5.9,5.9,0,0,0,5.816,5.138,5.784,5.784,0,0,0,.862-.054,1.045,1.045,0,1,0-.3-2.068,3.856,3.856,0,0,1-4.319-3.328Z" transform="translate(-0.192 1.129)" stroke="#000" stroke-width="0.5"/>
    <path id="Path_2454" data-name="Path 2454" d="M60.35,40.314a3.673,3.673,0,0,0-3.51,2.778H53.49l-5.08-6.043a.985.985,0,0,0-.73-.342H34.15V29.585H47.68a.985.985,0,0,0,.73-.342L53.49,23.2h3.35a3.664,3.664,0,0,0,4.019,2.754,3.815,3.815,0,0,0,0-7.52,3.664,3.664,0,0,0-4.019,2.754H53.05a.985.985,0,0,0-.73.342l-5.08,6.043H34.15V23.8H46.83a.927.927,0,0,0,.73-.352l3.54-4.312a1,1,0,0,0,.23-.653V14.471a3.764,3.764,0,0,0,2.627-4.133,3.615,3.615,0,0,0-7.194,0,3.764,3.764,0,0,0,2.627,4.133v3.67l-3,3.649H34.15V16.98h4.43a.989.989,0,0,0,.82-.435l1.24-2.073a3.629,3.629,0,0,0,1,.166,3.727,3.727,0,0,0,3.68-3.77A3.662,3.662,0,1,0,38,10.812a3.794,3.794,0,0,0,1,2.56l-1,1.6H34.15V7.2a.817.817,0,0,0,0-.218,8.346,8.346,0,0,0-15.69-.674,8.188,8.188,0,0,0-7.5,1.3A8.846,8.846,0,0,0,7.52,14.647a8.576,8.576,0,0,0,.32,2.374A8.6,8.6,0,0,0,2.558,22.13,9.068,9.068,0,0,0,3,29.605,8.113,8.113,0,0,0,.1,36.983a7.932,7.932,0,0,0,4.709,6.3,9.038,9.038,0,0,0-.476,8.466A8.471,8.471,0,0,0,11,56.661a8.02,8.02,0,0,0,3.8,6.568,7.453,7.453,0,0,0,7.383.222,7.479,7.479,0,0,0,4.73,1.679A7.763,7.763,0,0,0,34.1,60h0a1.074,1.074,0,0,0,0-.238.537.537,0,0,0,0-.124V51.343H38l1,1.6a3.794,3.794,0,0,0-1,2.56,3.662,3.662,0,1,0,3.66-3.784,3.629,3.629,0,0,0-1,.166L39.4,49.716a.993.993,0,0,0-.82-.477H34.15V44.533H46.38l3,3.649v3.607A3.815,3.815,0,0,0,46.7,55.976a3.665,3.665,0,0,0,7.295,0,3.815,3.815,0,0,0-2.677-4.187V47.746a1,1,0,0,0-.23-.653L47.55,42.8a.927.927,0,0,0-.73-.352H34.15V38.717H47.24l5.08,6.043a.985.985,0,0,0,.73.342h3.79a3.647,3.647,0,0,0,4.173,2.717,3.763,3.763,0,0,0,2.981-4.067,3.7,3.7,0,0,0-3.644-3.439Zm0-19.934a1.784,1.784,0,1,1-1.72,1.783A1.752,1.752,0,0,1,60.35,20.38Zm-11.7-9.568a1.785,1.785,0,0,1,1.057-1.656,1.676,1.676,0,0,1,1.879.385,1.831,1.831,0,0,1,.371,1.948,1.72,1.72,0,0,1-1.6,1.1,1.752,1.752,0,0,1-1.71-1.773Zm-7-1.783a1.784,1.784,0,1,1-1.72,1.783,1.816,1.816,0,0,1,.507-1.264,1.689,1.689,0,0,1,1.223-.519ZM32.2,15.974v4.717a5.267,5.267,0,0,0-5.43.363,1.061,1.061,0,0,0-.26,1.4.978.978,0,0,0,1.34.27,3.368,3.368,0,0,1,4.35.394v9.557a5.2,5.2,0,0,0-5.43.373,1.066,1.066,0,0,0-.089,1.279.981.981,0,0,0,1.179.39,3.349,3.349,0,0,1,4.34.373V59.4a5.829,5.829,0,0,1-3.536,3.424,5.565,5.565,0,0,1-4.8-.594,5.764,5.764,0,0,0,1.24-6.707,1.016,1.016,0,0,0-.831-.819.99.99,0,0,0-1.027.529,1.067,1.067,0,0,0,.128,1.182,3.814,3.814,0,0,1,.15,2.838,3.646,3.646,0,0,1-1.84,2.107,1.21,1.21,0,0,0-.21.176,5.555,5.555,0,0,1-5.656,0,5.975,5.975,0,0,1-2.9-5.032c1.7-.508,4.91-1.783,5.38-4.292a1.036,1.036,0,0,0-.77-1.182,1,1,0,0,0-1.12.757c-.29,1.493-3.31,2.6-4.51,2.871a6.5,6.5,0,0,1-5.867-4.04A6.929,6.929,0,0,1,7.15,43.413a1.065,1.065,0,0,0,.21-1.037,1.012,1.012,0,0,0-.74-.663,5.865,5.865,0,0,1-4.558-4.828,6.042,6.042,0,0,1,2.718-6.14,3.448,3.448,0,0,1,2.684-.553,3.549,3.549,0,0,1,2.266,1.59.99.99,0,0,0,.8.435.975.975,0,0,0,.55-.176,1.061,1.061,0,0,0,.25-1.4,5.382,5.382,0,0,0-6.75-2.073,6.927,6.927,0,0,1-.242-5.82A6.547,6.547,0,0,1,8.58,18.928a4.271,4.271,0,0,0,3.65,2.146,4.048,4.048,0,0,0,1.47-.27,1.011,1.011,0,0,0,.872-.765,1.056,1.056,0,0,0-.39-1.114.971.971,0,0,0-1.143-.008,2.349,2.349,0,0,1-3-1.493.387.387,0,0,0,0-.093,6.907,6.907,0,0,1,1.414-7.465A6.32,6.32,0,0,1,18.68,8.542h.2c2.77.56,3.59,3.193,3.16,5.546a1.035,1.035,0,0,0,.77,1.171h.18a1.008,1.008,0,0,0,1-.819c.63-3.5-.82-6.448-3.58-7.557a6.388,6.388,0,0,1,11.9.58Zm9.45,37.7a1.721,1.721,0,0,1,1.59,1.1,1.831,1.831,0,0,1-.377,1.944,1.676,1.676,0,0,1-1.878.38,1.786,1.786,0,0,1-1.055-1.655,1.751,1.751,0,0,1,1.73-1.773Zm10.42,1.773A1.786,1.786,0,0,1,51.015,57.1a1.676,1.676,0,0,1-1.878-.38,1.831,1.831,0,0,1-.377-1.944,1.721,1.721,0,0,1,1.59-1.1,1.751,1.751,0,0,1,1.73,1.773Zm8.27-9.568a1.72,1.72,0,0,1-1.6-1.093,1.831,1.831,0,0,1,.366-1.947,1.676,1.676,0,0,1,1.876-.391A1.785,1.785,0,0,1,62.05,44.1a1.753,1.753,0,0,1-1.7,1.783Z" transform="translate(0 0)" stroke="#000" stroke-width="0.5"/>
  </g>
</svg>
