<svg xmlns="http://www.w3.org/2000/svg" width="64" height="64" viewBox="0 0 64 64">
  <g id="Group_767" data-name="Group 767" transform="translate(-0.76 -0.65)">
    <path id="Path_2442" data-name="Path 2442" d="M29.864,44.9l7.4-1.9a1.218,1.218,0,0,0,.655-.343L63.691,16.836a3.673,3.673,0,0,0,0-5.181L61.61,9.564a3.668,3.668,0,0,0-5.18,0l-4.275,4.282V5.774A5.127,5.127,0,0,0,47.012.65H5.875A5.127,5.127,0,0,0,.76,5.774v44.7A5.127,5.127,0,0,0,5.875,55.6H25.411l12.3,8.814A1.247,1.247,0,0,0,39.688,63.4V55.6h7.324a5.127,5.127,0,0,0,5.115-5.124V36.326a1.247,1.247,0,1,0-2.494,0V50.478A2.624,2.624,0,0,1,47.012,53.1H36.439a1.249,1.249,0,0,0,0,2.5h.755v5.374L26.508,53.333A1.231,1.231,0,0,0,25.8,53.1H5.847a2.624,2.624,0,0,1-2.622-2.626V5.774a2.624,2.624,0,0,1,2.65-2.626H47.012a2.624,2.624,0,0,1,2.622,2.626v10.6l-18.973,19a1.25,1.25,0,0,0-.342.657l-1.981,7.329a1.215,1.215,0,0,0,.313,1.213,1.3,1.3,0,0,0,1.211.328ZM56.082,13.446l3.733,3.74-22.8,22.837L33.283,36.29ZM32.236,38.724l2.323,2.327-3.227.878ZM59.017,10.991a1.16,1.16,0,0,1,.826.343l2.08,2.084a1.165,1.165,0,0,1,0,1.649l-.349.35-3.726-3.732.349-.35A1.132,1.132,0,0,1,59.017,10.991Z" transform="translate(0)"/>
    <path id="Path_2443" data-name="Path 2443" d="M16.781,17.373H27.059a1.261,1.261,0,0,0,0-2.523H16.781a1.261,1.261,0,1,0,0,2.523Z" transform="translate(-4.274 -3.966)"/>
    <path id="Path_2444" data-name="Path 2444" d="M46.577,17.373a1.261,1.261,0,1,0,0-2.523H38.721a1.261,1.261,0,1,0,0,2.523Z" transform="translate(-10.611 -3.966)"/>
    <path id="Path_2445" data-name="Path 2445" d="M16.781,32.023h4.85a1.261,1.261,0,1,0,0-2.523h-4.85a1.261,1.261,0,1,0,0,2.523Z" transform="translate(-4.26 -8.269)"/>
    <path id="Path_2446" data-name="Path 2446" d="M35.882,45.441A1.261,1.261,0,0,0,34.62,44.18H30.231a1.261,1.261,0,0,0,0,2.523H34.62A1.261,1.261,0,0,0,35.882,45.441Z" transform="translate(-8.14 -12.477)"/>
    <path id="Path_2447" data-name="Path 2447" d="M16.781,61.363H28.9a1.261,1.261,0,1,0,0-2.523H16.781a1.261,1.261,0,1,0,0,2.523Z" transform="translate(-4.28 -16.679)"/>
    <path id="Path_2448" data-name="Path 2448" d="M58.663,17.373a1.261,1.261,0,0,0,0-2.523H56.241a1.261,1.261,0,0,0,0,2.523Z" transform="translate(-15.628 -3.966)"/>
    <path id="Path_2449" data-name="Path 2449" d="M45.576,30.781a1.261,1.261,0,0,0-1.261-1.261H30.621a1.261,1.261,0,0,0,0,2.523H44.315A1.261,1.261,0,0,0,45.576,30.781Z" transform="translate(-8.303 -8.275)"/>
    <path id="Path_2450" data-name="Path 2450" d="M21.192,44.18H18.511a1.261,1.261,0,0,0,0,2.523h2.717a1.261,1.261,0,1,0,0-2.523Z" transform="translate(-4.754 -12.477)"/>
  </g>
</svg>
