<svg xmlns="http://www.w3.org/2000/svg" width="609.096" height="594.373" viewBox="0 0 609.096 594.373">
  <g id="contact-us-banner" transform="translate(0 -0.001)">
    <path id="Path_3126" data-name="Path 3126" d="M565.917,286.351c20.7-22.191,40.126-52.117,29.551-80.183-10.6-28.139-45.377-38.921-75.876-44.3s-65.1-11.328-81.993-36.438c-17.05-25.343-8.907-60.894-25.662-86.422-17.793-27.108-55.686-32.48-88.8-35.188C272.645-.312,220.651-4.3,172.271,10.265S79.41,62.637,73.905,111.291c-5.6,49.454,28.948,99.605,13.756,147.142C71.893,307.77,7.708,334.986,1.316,386.251c-3.347,26.836,10.631,52.539,24.164,76.2,17.313,30.272,34.626,62.46,51.942,92.732H507.316c-6.179-8.422-.062-20.542,8.565-26.634s19.429-8.928,27.72-15.441c21.955-17.245,17-51.11,4.624-75.69s-30.581-48.611-29.081-75.905c1.639-29.823,26.077-52.971,46.773-75.162" transform="translate(0.342 0)" fill="#bc75a7" opacity="0.28"/>
    <path id="Path_3127" data-name="Path 3127" d="M34.141,257.683C80.517,213.025,76.98,189.26,67.46,129.762c-4.645-29.034-41.565-.58-54.738,43.434C-1.1,219.379,9.465,281.445,34.141,257.683" transform="translate(2.762 49.457)" fill="#cc93bd"/>
    <path id="Path_3128" data-name="Path 3128" d="M188.026,454.9c-6.134,10.908-90.731,34.243-91.361,2.1-.529-27.066,60.981-19.006,83.545-9.507-6.728-6.579-13.176-13.375-19.355-20.13q-8.873-9.707-17.066-19.954c-13.275,8.463-94.771,10.5-88.248-19.832,5.218-24.276,54.46-7.824,77.847,6.192q-12.334-16.8-22.984-34.731c-9.791,8.444-96.622,5.516-87.73-25.215,7.43-25.681,62.473-.7,81.883,15.11q-10.9-19.421-19.963-39.826c-12.376,6.526-95.969-7.726-83.288-36.693,10.488-23.962,59.831,6.108,78.05,24.472q-4.754-11.5-8.934-23.231c-13.038-5.321-56.262-78.071-26.016-87.187,28.576-8.612,36.383,66.9,30.385,84.06q4.7,13.252,10.156,26.207c1.063-24.124,21.074-85.111,45.242-71.641,27.216,15.171-27.165,77.887-41.21,81.033q8.918,20.073,19.675,39.22c-1.436-25.171,10.477-85.237,35.621-75.265,28.58,11.335-15.557,78.927-29.72,85.48A438.339,438.339,0,0,0,142.887,397.5c-4.889-21.17,2.041-90.719,29.511-81.99,30.275,9.624-12.706,84.592-24.957,87.885q8.407,10.606,17.5,20.7c5.446,6.022,11.141,12.066,17.079,17.946-8.749-23.934-14.936-84.029,11.86-81.98,30.635,2.345,8.586,79.9-3,90.433a213.471,213.471,0,0,0,35.5,26.924c2.905,1.712-.227,5.915-3.109,4.217A213,213,0,0,1,188.026,454.9" transform="translate(0 77.887)" fill="#7f4673"/>
    <path id="Path_3129" data-name="Path 3129" d="M225.031,474.859A521.346,521.346,0,0,1,256,360.815a534.15,534.15,0,0,1,24.879-53.776,523.57,523.57,0,0,1,66.682-97.231q2.45-2.827,4.94-5.616c2.17-2.431-1.724-5.651-3.884-3.23a522.964,522.964,0,0,0-37.189,46.826,534.948,534.948,0,0,0-77.042,160.857,522.359,522.359,0,0,0-13.165,58.045q-.615,3.689-1.181,7.387c-.491,3.207,4.5,4.005,4.993.782" transform="translate(92.23 83.887)" fill="#cc93bd"/>
    <path id="Path_3130" data-name="Path 3130" d="M280.385,321.991c-3.708-38.607,6.511-95.8,7.428-133.812,1.012-41.945,6.872-87.042,42.332-111.359,9.249-6.341,21.048-11.073,34.131-9.321,18.383,2.461,34.433,17.489,40.665,32.968s4.59,31.241,1.618,46.012c-14.509,72.136-59.741,135.056-126.174,175.512" transform="translate(117.204 28.142)" fill="#cc93bd"/>
    <path id="Path_3131" data-name="Path 3131" d="M273.088,392.712c-25.457-26.688-51.052-75.346-72.595-104.276-23.77-31.921-45.646-69.012-32.534-107.767,3.419-10.108,9.747-20.491,20.863-26.779,15.613-8.835,36.788-6.924,50.653,1.02s21.823,20.674,28.179,33.433c31.034,62.312,32.983,135.578,5.434,204.369" transform="translate(68.76 62.07)" fill="#cc93bd"/>
    <path id="Path_3132" data-name="Path 3132" d="M227.185,421.579c20.039-36.773,63.283-85.539,86.954-120.086,26.121-38.12,58.323-77.372,103.563-86.8,11.8-2.458,24.828-2.511,35.066,3.852,14.382,8.938,19.188,28.563,15.248,45.033s-14.842,30.333-26.3,42.808A373.426,373.426,0,0,1,227.185,421.579" transform="translate(95.24 89.36)" fill="#cc93bd"/>
    <path id="Path_3133" data-name="Path 3133" d="M217.719,479.184c24.162-6.638,47.6-19.179,69.129-32.873.942.637,2.315,1.513,4.062,2.489a104.232,104.232,0,0,0,14.849,6.865,134.309,134.309,0,0,0,21.112,5.91,159.544,159.544,0,0,0,24.347,2.718,156.207,156.207,0,0,0,24.472-1.111c3.934-.494,7.706-1.143,11.317-1.906,3.588-.756,6.984-1.7,10.152-2.623,3.148-.952,6.023-1.968,8.62-2.982,2.563-1.027,4.8-2.015,6.636-2.922a55.774,55.774,0,0,0,5.837-3.212,53.4,53.4,0,0,0-5.6-3.579c-1.8-1.036-3.975-2.17-6.469-3.356s-5.319-2.357-8.393-3.537c-3.085-1.116-6.418-2.293-9.967-3.264-3.555-.995-7.281-1.9-11.165-2.643a154.12,154.12,0,0,0-24.34-2.678,158.382,158.382,0,0,0-24.47,1.148,131.48,131.48,0,0,0-21.47,4.529c-3.09.932-5.928,1.939-8.466,2.939,1.607-1.094,3.215-2.173,4.813-3.266a505.931,505.931,0,0,0,44.209-34.013c.731.444,1.585.944,2.573,1.507a103.013,103.013,0,0,0,14.862,6.858,133.18,133.18,0,0,0,21.122,5.92,157.708,157.708,0,0,0,24.342,2.718,152.441,152.441,0,0,0,24.457-1.108c3.921-.491,7.709-1.14,11.317-1.91,3.591-.745,7-1.7,10.154-2.621,3.162-.949,6.027-1.967,8.613-2.968,2.55-1.03,4.8-2.024,6.649-2.931a55.382,55.382,0,0,0,5.832-3.21,53.823,53.823,0,0,0-5.59-3.582c-1.812-1.032-3.991-2.176-6.466-3.355-2.5-1.175-5.318-2.366-8.412-3.538-3.073-1.124-6.406-2.281-9.954-3.271s-7.292-1.881-11.166-2.631a155.12,155.12,0,0,0-24.34-2.671,157.83,157.83,0,0,0-24.467,1.125,133.868,133.868,0,0,0-21.474,4.543c-3.3,1-6.306,2.075-8.978,3.112q20.239-18.174,38.642-38.245c.886.219,1.89.468,3.057.718a107.513,107.513,0,0,0,16.249,2.03,131.619,131.619,0,0,0,21.924-.758,156.325,156.325,0,0,0,24.023-4.78,152.473,152.473,0,0,0,22.988-8.456c3.585-1.652,7-3.406,10.194-5.24,3.209-1.8,6.166-3.728,8.893-5.563,2.7-1.885,5.163-3.708,7.3-5.451s3.994-3.371,5.451-4.8a52.391,52.391,0,0,0,4.588-4.827A54.961,54.961,0,0,0,512.9,316.7c-2.02-.429-4.424-.849-7.176-1.222-2.733-.373-5.771-.656-9.066-.847-3.28-.119-6.821-.227-10.489-.088s-7.513.4-11.443.852a157.639,157.639,0,0,0-46.98,13.318A133.013,133.013,0,0,0,409.009,339.3q14.844-17.386,28.458-35.827a106.464,106.464,0,0,0,11.355-8.249,133.976,133.976,0,0,0,15.586-15.441,154.442,154.442,0,0,0,14.412-19.809,152.619,152.619,0,0,0,11.171-21.808c1.509-3.643,2.813-7.252,3.938-10.755s1.981-6.931,2.755-10.129c.727-3.21,1.272-6.228,1.665-8.957s.646-5.163.755-7.228a49.416,49.416,0,0,0,.088-6.655,55.022,55.022,0,0,0-5.88,3.092c-1.787,1.05-3.842,2.369-6.1,3.961s-4.71,3.44-7.234,5.545c-2.512,2.126-5.173,4.436-7.78,7.039-2.613,2.584-5.243,5.389-7.806,8.379a156.217,156.217,0,0,0-14.4,19.831,161.4,161.4,0,0,0-11.117,21.823,133.585,133.585,0,0,0-6.685,20.9,105.571,105.571,0,0,0-2.454,16.182c-.094,1.392-.128,2.583-.142,3.586a620.574,620.574,0,0,1-47.41,56.059,110.959,110.959,0,0,0,4.276-13.6,135.331,135.331,0,0,0,3.386-21.676,159.519,159.519,0,0,0-.169-24.487,153.926,153.926,0,0,0-3.982-24.162c-.965-3.853-2.037-7.537-3.229-11.019-1.172-3.481-2.5-6.75-3.786-9.777-1.344-3.013-2.681-5.756-3.987-8.193-1.323-2.43-2.566-4.539-3.694-6.276a53.025,53.025,0,0,0-3.855-5.392,50.981,50.981,0,0,0-2.9,5.973c-.825,1.9-1.687,4.2-2.579,6.812-.859,2.624-1.72,5.559-2.521,8.748-.734,3.2-1.513,6.65-2.069,10.3-.562,3.623-1.019,7.444-1.31,11.378a154.565,154.565,0,0,0,.209,24.5,158.215,158.215,0,0,0,4.015,24.165,132.181,132.181,0,0,0,7.038,20.787,103.934,103.934,0,0,0,7.638,14.456c.779,1.223,1.492,2.269,2.095,3.077a520.175,520.175,0,0,1-54.9,48.712c.318-.707.67-1.5,1.053-2.389a107.088,107.088,0,0,0,5.043-15.562,134.287,134.287,0,0,0,3.4-21.666,157.836,157.836,0,0,0-.173-24.506A154.452,154.452,0,0,0,327.2,326.86c-.948-3.809-2.034-7.513-3.229-10.986-1.169-3.476-2.509-6.748-3.788-9.78-1.334-3.019-2.669-5.776-3.987-8.195s-2.548-4.537-3.683-6.281a55.172,55.172,0,0,0-3.873-5.392,52.521,52.521,0,0,0-2.9,5.982c-.808,1.893-1.673,4.188-2.563,6.809-.867,2.623-1.734,5.559-2.518,8.761-.766,3.19-1.537,6.649-2.066,10.271-.583,3.637-1.036,7.459-1.318,11.4a158.079,158.079,0,0,0,4.215,48.664,133.035,133.035,0,0,0,7.036,20.767,106.213,106.213,0,0,0,7.644,14.468c1.091,1.716,2.054,3.071,2.732,3.988q-11.215,8.466-22.952,16.246c-9.6,6.348-19.617,12.7-29.96,18.561.427-.883.924-1.954,1.443-3.229a101.04,101.04,0,0,0,5.044-15.559,129.148,129.148,0,0,0,3.4-21.663,158.261,158.261,0,0,0-4.126-48.665c-.954-3.848-2.055-7.54-3.251-11.02-1.16-3.474-2.508-6.754-3.784-9.777-1.324-3-2.672-5.766-3.985-8.193s-2.572-4.536-3.68-6.259a54.141,54.141,0,0,0-3.872-5.406,55.437,55.437,0,0,0-2.918,5.979c-.792,1.9-1.67,4.2-2.547,6.807-.881,2.626-1.723,5.559-2.536,8.758-.744,3.188-1.523,6.665-2.047,10.282-.58,3.636-1.04,7.448-1.324,11.388a157.431,157.431,0,0,0,4.215,48.676,134.359,134.359,0,0,0,7.028,20.76,105.234,105.234,0,0,0,7.665,14.47c1.107,1.76,2.086,3.129,2.78,4.055-15.18,8.441-31.064,15.734-47.419,20.222-3.49.978-1.856,6.375,1.638,5.413" transform="translate(89.773 81.514)" fill="#7f4673"/>
    <path id="Path_3134" data-name="Path 3134" d="M143.39,46.61A12.185,12.185,0,0,1,155.575,58.8a4.063,4.063,0,0,0,8.125,0,20.31,20.31,0,0,0-20.31-20.309,4.062,4.062,0,1,0,0,8.124" transform="translate(58.409 16.134)" fill="#672376"/>
    <path id="Path_3135" data-name="Path 3135" d="M143.39,35.162A28.434,28.434,0,0,1,171.824,63.6a4.062,4.062,0,0,0,8.124,0A36.557,36.557,0,0,0,143.39,27.038a4.062,4.062,0,1,0,0,8.124" transform="translate(58.409 11.335)" fill="#672376"/>
    <path id="Path_3136" data-name="Path 3136" d="M190.931,83.54a4.066,4.066,0,0,0-2.925-2.64l-24.374-5.565a4.057,4.057,0,0,0-3.735,1.056c-.569.528-.609.568-3.25,5.6a40.25,40.25,0,0,1-19.781-19.862c5.157-2.6,5.2-2.6,5.727-3.21a4.071,4.071,0,0,0,1.057-3.737L138.084,31.1a4.067,4.067,0,0,0-2.64-2.925,15.346,15.346,0,0,0-2.925-.731,15.9,15.9,0,0,0-3.127-.406,18.684,18.684,0,0,0-18.685,18.685,62.634,62.634,0,0,0,62.553,62.553,18.684,18.684,0,0,0,18.685-18.684A19.4,19.4,0,0,0,191.7,86.5a17.772,17.772,0,0,0-.771-2.965" transform="translate(46.411 11.335)" fill="#ee5064"/>
    <path id="Path_3137" data-name="Path 3137" d="M327.776,63.351H277.868a18.806,18.806,0,1,1,0-37.612h49.908a18.806,18.806,0,1,1,0,37.612" transform="translate(108.603 10.79)" fill="#672376"/>
    <path id="Path_3138" data-name="Path 3138" d="M313.24,57.54a4.155,4.155,0,1,1-4.155-4.155,4.156,4.156,0,0,1,4.155,4.155" transform="translate(127.832 22.38)" fill="#672376"/>
    <path id="Path_3139" data-name="Path 3139" d="M285.428,40.242a5.453,5.453,0,1,1-5.453-5.453,5.452,5.452,0,0,1,5.453,5.453" transform="translate(115.084 14.584)" fill="#fff"/>
    <path id="Path_3140" data-name="Path 3140" d="M296.959,40.242a5.453,5.453,0,1,1-5.453-5.453,5.452,5.452,0,0,1,5.453,5.453" transform="translate(119.918 14.584)" fill="#fff"/>
    <path id="Path_3141" data-name="Path 3141" d="M308.49,40.242a5.453,5.453,0,1,1-5.453-5.453,5.452,5.452,0,0,1,5.453,5.453" transform="translate(124.752 14.584)" fill="#fff"/>
    <path id="Path_3142" data-name="Path 3142" d="M261.773,94.139h49.908a18.806,18.806,0,1,0,0-37.612H261.773a18.806,18.806,0,0,0,0,37.612" transform="translate(101.856 23.697)" fill="#ea5455"/>
    <path id="Path_3143" data-name="Path 3143" d="M252.911,88.328a4.155,4.155,0,1,0,4.155-4.155,4.156,4.156,0,0,0-4.155,4.155" transform="translate(106.025 35.287)" fill="#ea5455"/>
    <path id="Path_3144" data-name="Path 3144" d="M269.335,71.152a5.453,5.453,0,1,1-5.453-5.453,5.452,5.452,0,0,1,5.453,5.453" transform="translate(108.338 27.542)" fill="#fff"/>
    <path id="Path_3145" data-name="Path 3145" d="M280.865,71.152a5.453,5.453,0,1,1-5.453-5.453,5.452,5.452,0,0,1,5.453,5.453" transform="translate(113.172 27.542)" fill="#fff"/>
    <path id="Path_3146" data-name="Path 3146" d="M292.4,71.152a5.453,5.453,0,1,1-5.453-5.453,5.452,5.452,0,0,1,5.453,5.453" transform="translate(118.006 27.542)" fill="#fff"/>
    <path id="Path_3147" data-name="Path 3147" d="M103.164,211.7,92.032,166.861A5.246,5.246,0,1,0,81.853,169.4l4.136,16.47c-9.263-14-17.832-27.045-22.215-33.723a5.265,5.265,0,0,0-8.866,5.678l1.734,2.806a4.1,4.1,0,0,0-5.843,5.423l.935,1.695a1.838,1.838,0,0,0-1.682,1.743c-.187,8.705,4.61,21.961,10.8,38.984S78.8,256.957,78.8,256.957s22.737-11.242,33.594-31.561c-2.732-4.016-5.874-8.683-9.229-13.693" transform="translate(20.98 62.793)" fill="#ffb8b8"/>
    <path id="Path_3148" data-name="Path 3148" d="M103.164,211.7,92.032,166.861A5.246,5.246,0,1,0,81.853,169.4l4.136,16.47c-9.263-14-17.832-27.045-22.215-33.723a5.265,5.265,0,0,0-8.866,5.678l1.734,2.806a4.1,4.1,0,0,0-5.843,5.423l.935,1.695a1.838,1.838,0,0,0-1.682,1.743c-.187,8.705,4.61,21.961,10.8,38.984S78.8,256.957,78.8,256.957s22.737-11.242,33.594-31.561C109.661,221.38,106.519,216.713,103.164,211.7Z" transform="translate(20.98 62.793)" fill="none" stroke="#000" stroke-miterlimit="10" stroke-width="2"/>
    <path id="Path_3149" data-name="Path 3149" d="M213.871,169.545a22.13,22.13,0,0,1-8.038,10.353c-4.35,2.993-9.55,3.95-14.256,2.129-8.378-3.24-11.973-14.1-8.039-24.239s13.9-15.721,22.279-12.482a.524.524,0,0,1,.139.062c8.285,3.317,11.818,14.1,7.915,24.176" transform="translate(76.274 60.529)" fill="#a6afe2"/>
    <path id="Path_3150" data-name="Path 3150" d="M213.871,169.545a22.13,22.13,0,0,1-8.038,10.353c-4.35,2.993-9.55,3.95-14.256,2.129-8.378-3.24-11.973-14.1-8.039-24.239s13.9-15.721,22.279-12.482a.524.524,0,0,1,.139.062C214.241,148.685,217.774,159.47,213.871,169.545Z" transform="translate(76.274 60.529)" fill="none" stroke="#000" stroke-miterlimit="10" stroke-width="2"/>
    <path id="Path_3151" data-name="Path 3151" d="M65.464,195.773c.268-10.568,9.733-18.92,13.356-21.247l1.26,1.963c-4.635,2.975-12.072,10.86-12.286,19.343Z" transform="translate(27.444 73.165)"/>
    <rect id="Rectangle_646" data-name="Rectangle 646" width="1.166" height="27.135" transform="matrix(0.864, -0.504, 0.504, 0.864, 76.753, 223.984)" fill="#f18b8b"/>
    <path id="Path_3152" data-name="Path 3152" d="M61.435,185.679,50.572,163.045l1.05-.5,10.863,22.634Z" transform="translate(21.2 68.141)"/>
    <path id="Path_3153" data-name="Path 3153" d="M252.2,181.782l.053.89.519,27.279,1.327,69.275-82.932-22.3,39.945-26.283-.4-10.431-1.355-36.234a21.451,21.451,0,0,1,42.843-2.2" transform="translate(71.755 67.761)" fill="#ffb8b8"/>
    <path id="Path_3154" data-name="Path 3154" d="M252.2,181.782l.053.89.519,27.279,1.327,69.275-82.932-22.3,39.945-26.283-.4-10.431-1.355-36.234a21.451,21.451,0,0,1,42.843-2.2Z" transform="translate(71.755 67.761)" fill="none" stroke="#000" stroke-miterlimit="10" stroke-width="2"/>
    <path id="Path_3155" data-name="Path 3155" d="M240.606,181.782l-1.133,1.1.187,27.424a105.349,105.349,0,0,1-11.7,5.721c-7.194,2.887-13.586,4.906-21.361,4.926-2.494,0-3.7.312-6.084-.4l-1.682-36.6c-.484-11.765,7.557-21.694,19.316-22.287a21.463,21.463,0,0,1,22.453,20.122" transform="translate(83.347 67.761)" fill="#f18b8b"/>
    <path id="Path_3156" data-name="Path 3156" d="M264.472,185.441c-6.139,14.879-10.779,20.664-15.823,19.069-14.543,24.909-34.555,34.3-52.407,29.449-14.485-3.893-13.741-25-9.678-44.105.964-4.411,2.079-8.757,3.217-12.732a217.116,217.116,0,0,1,9.344-25.34c-11.47-35.553,22.962-43.347,45.688-17.438a11.238,11.238,0,0,1,3.866-1.906c6-1.7,12.743,2.77,17.791,19.323,10.394,11.395,4.178,18.8-2,33.681" transform="translate(77.145 49.908)" fill="#454975"/>
    <path id="Path_3157" data-name="Path 3157" d="M264.472,185.441c-6.139,14.879-10.779,20.664-15.823,19.069-14.543,24.909-34.555,34.3-52.407,29.449-14.485-3.893-13.741-25-9.678-44.105.964-4.411,2.079-8.757,3.217-12.732a217.116,217.116,0,0,1,9.344-25.34c-11.47-35.553,22.962-43.347,45.688-17.438a11.238,11.238,0,0,1,3.866-1.906c6-1.7,12.743,2.77,17.791,19.323C276.865,163.155,270.649,170.559,264.472,185.441Z" transform="translate(77.145 49.908)" fill="none" stroke="#000" stroke-miterlimit="10" stroke-width="2"/>
    <path id="Path_3158" data-name="Path 3158" d="M238.41,146.849c-1.883-3.5-5.38-7.826-11.554-16.46a11.238,11.238,0,0,1,3.866-1.906c2.978,5.589,7.221,14.3,7.688,18.366" transform="translate(95.102 53.863)" fill="#3b3e63"/>
    <path id="Path_3159" data-name="Path 3159" d="M258.968,183.833c-6.971,14.036-17.769,7.726-18.739,2.092-5.646,8.226-9.313,10.343-11.828,10.606s-9.514-4.154-12.512-5.128c-3.037-1.009-18.176,3.4-30.036-8.246l-.04-.034c.964-4.411,2.079-8.757,3.217-12.732a217.117,217.117,0,0,1,9.344-25.34c6.432-8.163,26.064-23.888,49.031,16.592-1.839,7.813-3.153,13.808-4.811,17.814,11.206-13.546,23.348-9.624,16.373,4.375" transform="translate(77.896 56.639)" fill="#ffb8b8"/>
    <path id="Path_3160" data-name="Path 3160" d="M258.968,183.833c-6.971,14.036-17.769,7.726-18.739,2.092-5.646,8.226-9.313,10.343-11.828,10.606s-9.514-4.154-12.512-5.128c-3.037-1.009-18.176,3.4-30.036-8.246l-.04-.034c.964-4.411,2.079-8.757,3.217-12.732a217.117,217.117,0,0,1,9.344-25.34c6.432-8.163,26.064-23.888,49.031,16.592-1.839,7.813-3.153,13.808-4.811,17.814C253.8,165.911,265.942,169.834,258.968,183.833Z" transform="translate(77.896 56.639)" fill="none" stroke="#000" stroke-miterlimit="10" stroke-width="2"/>
    <path id="Path_3161" data-name="Path 3161" d="M227.038,170.29a11.146,11.146,0,0,1,2.267-3.662,11.63,11.63,0,0,1,3.452-2.7,8.734,8.734,0,0,1,4.408-1.069,4.463,4.463,0,0,1,2.3.68,2.207,2.207,0,0,1,1.1,2,2.148,2.148,0,0,0-1.561-.955,4.621,4.621,0,0,0-1.741.089A14.584,14.584,0,0,0,233.825,166a32.618,32.618,0,0,0-3.331,1.994c-1.123.721-2.191,1.548-3.456,2.295" transform="translate(95.178 68.271)" fill="#f18b8b"/>
    <path id="Path_3162" data-name="Path 3162" d="M228.035,167.42a3.985,3.985,0,0,1,2.14-1.284,5.261,5.261,0,0,1,2.577-.013,3.849,3.849,0,0,1,2.217,1.465,3,3,0,0,1,.44,2.494,3.869,3.869,0,0,0-2.948-2.83,7.531,7.531,0,0,0-2.15-.22,8.179,8.179,0,0,0-2.276.389" transform="translate(95.596 69.577)" fill="#f18b8b"/>
    <path id="Path_3163" data-name="Path 3163" d="M204.3,156.88c-6.958,9.107-15.218,12.959-16.259,15.391s2.563,7.194,11.547,8.828c5.316-3.369,1.015-8.886,4.712-24.219" transform="translate(78.76 65.767)" fill="#f18b8b"/>
    <path id="Path_3164" data-name="Path 3164" d="M213.221,160.59c.128,2.134-1.177,3.951-2.915,4.055s-3.25-1.543-3.379-3.677,1.178-3.951,2.915-4.055,3.251,1.541,3.379,3.677" transform="translate(86.744 65.779)" fill="#454975"/>
    <path id="Path_3165" data-name="Path 3165" d="M197.351,159.327c-.4,2.1-2.115,3.538-3.825,3.212s-2.77-2.3-2.367-4.4,2.115-3.538,3.825-3.21,2.77,2.3,2.367,4.4" transform="translate(80.102 64.93)" fill="#454975"/>
    <path id="Path_3166" data-name="Path 3166" d="M212.557,145.927c6.269.179,9.238,7.593,10.187,11.621.467,1.984-.847,2.522-1.909.668-1.306-2.278-4.837-6.412-8.829-7.994-2.824-1.12-1.883-4.364.551-4.295" transform="translate(88.149 61.175)" fill="#454975"/>
    <path id="Path_3167" data-name="Path 3167" d="M202.94,143.955c-5.288-2.169-9.72,1.591-11.958,4.733-1.182,1.66-.3,3.31,1.487,2.143,2.2-1.435,4.732-3.209,9.006-2.8,3.024.29,3.718-3.151,1.465-4.075" transform="translate(79.837 60.079)" fill="#454975"/>
    <path id="Path_3168" data-name="Path 3168" d="M159.033,428.237c19.019,6.679,38.624,10.717,71.208,7.645,19.029-61.465,22.089-209.106,22.713-217.336-14.923,5.735-33.342,9.074-41.133-9.076-37.32,42.081-53.006,106.375-52.788,218.767" transform="translate(66.669 87.814)" fill="#fff"/>
    <path id="Path_3169" data-name="Path 3169" d="M159.033,428.237c19.019,6.679,38.624,10.717,71.208,7.645,19.029-61.465,22.089-209.106,22.713-217.336-14.923,5.735-33.342,9.074-41.133-9.076C174.5,251.551,158.814,315.845,159.033,428.237Z" transform="translate(66.669 87.814)" fill="none" stroke="#000" stroke-miterlimit="10" stroke-width="2"/>
    <path id="Path_3170" data-name="Path 3170" d="M428.905,383.165c-6.639-4.441-19.605-13.125-33.526-22.513l16.433,4.282a5.246,5.246,0,1,0,2.631-10.157L369.7,343.25c-4.981-3.4-9.619-6.581-13.61-9.35-20.415,10.678-31.856,33.315-31.856,33.315s31.349,12.034,48.317,18.373,30.181,11.254,38.887,11.144a1.837,1.837,0,0,0,1.758-1.666l1.686.951a4.1,4.1,0,0,0,5.475-5.8l2.79,1.76a5.265,5.265,0,0,0,5.756-8.815" transform="translate(135.925 139.977)" fill="#ffb8b8"/>
    <path id="Path_3171" data-name="Path 3171" d="M428.905,383.165c-6.639-4.441-19.605-13.125-33.526-22.513l16.433,4.282a5.246,5.246,0,1,0,2.631-10.157L369.7,343.25c-4.981-3.4-9.619-6.581-13.61-9.35-20.415,10.678-31.856,33.315-31.856,33.315s31.349,12.034,48.317,18.373,30.181,11.254,38.887,11.144a1.837,1.837,0,0,0,1.758-1.666l1.686.951a4.1,4.1,0,0,0,5.475-5.8l2.79,1.76a5.265,5.265,0,0,0,5.756-8.815Z" transform="translate(135.925 139.977)" fill="none" stroke="#000" stroke-miterlimit="10" stroke-width="2"/>
    <path id="Path_3172" data-name="Path 3172" d="M365.692,365.83A19.532,19.532,0,0,1,360,366.8l-.037-2.33c8.486-.14,16.433-7.5,19.449-12.113l1.951,1.276c-1.916,2.931-7.848,9.682-15.677,12.2" transform="translate(150.905 147.713)"/>
    <rect id="Rectangle_647" data-name="Rectangle 647" width="1.165" height="27.135" transform="translate(533.089 516.052) rotate(-59.249)"/>
    <rect id="Rectangle_648" data-name="Rectangle 648" width="1.165" height="25.104" transform="translate(525.623 523.039) rotate(-63.857)"/>
    <path id="Path_3173" data-name="Path 3173" d="M408.669,388.028s-70.393-43.989-79.158-55.2-38.241-64.072-46.086-80.193c-7.188-14.768-14.582-27.151-35.82-43.317q-2.846-2.31-6.181-4.536c-20.163,11.639-32.865,46.986-36.213,100.987s-7.5,103.352-6.127,119.456,6.168,42.121,35.038,44.436,71.449,3.808,71.449,3.808S299.144,434,291.786,388.394c22.4,16.075,79.288,41.139,79.288,41.139Z" transform="translate(83.347 85.849)" fill="#ea5455"/>
    <path id="Path_3174" data-name="Path 3174" d="M408.669,388.028s-70.393-43.989-79.158-55.2-38.241-64.072-46.086-80.193c-7.188-14.768-14.582-27.151-35.82-43.317q-2.846-2.31-6.181-4.536c-20.163,11.639-32.865,46.986-36.213,100.987s-7.5,103.352-6.127,119.456,6.168,42.121,35.038,44.436,71.449,3.808,71.449,3.808S299.144,434,291.786,388.394c22.4,16.075,79.288,41.139,79.288,41.139Z" transform="translate(83.347 85.849)" fill="none" stroke="#000" stroke-miterlimit="10" stroke-width="2"/>
    <path id="Path_3175" data-name="Path 3175" d="M255.881,211.44l.014-.007-.079-1.967h-.01l-.017-.444a41.07,41.07,0,0,0-16.073,2.278c-10.839,2.756-19.448,8.409-29.036,15.5-15.359,11.3-56.1,40.387-56.1,40.387l-48.026-64.5L64.143,236.313s51.844,82.739,60.057,91.462c15.45,16.408,35.866,22.219,63.209.9-5.465,36.514-12.129,94.46-14.164,122.013,12.271,9.161,37.07,9.5,37.247-17.341.3-39.01,3.241-86.142,10.89-130.469,6.731-39.136,18.93-69.634,34.671-86.95Z" transform="translate(26.89 84.967)" fill="#ea5455"/>
    <path id="Path_3176" data-name="Path 3176" d="M255.881,211.44l.014-.007-.079-1.967h-.01l-.017-.444a41.07,41.07,0,0,0-16.073,2.278c-10.839,2.756-19.448,8.409-29.036,15.5-15.359,11.3-56.1,40.387-56.1,40.387l-48.026-64.5L64.143,236.313s51.844,82.739,60.057,91.462c15.45,16.408,35.866,22.219,63.209.9-5.465,36.514-12.129,94.46-14.164,122.013,12.271,9.161,37.07,9.5,37.247-17.341.3-39.01,3.241-86.142,10.89-130.469,6.731-39.136,18.93-69.634,34.671-86.95Z" transform="translate(26.89 84.967)" fill="none" stroke="#000" stroke-miterlimit="10" stroke-width="2"/>
    <rect id="Rectangle_649" data-name="Rectangle 649" width="2.332" height="71.945" transform="translate(330.14 387.321) rotate(-21.292)" fill="#bb4344"/>
    <rect id="Rectangle_650" data-name="Rectangle 650" width="37.687" height="2.331" transform="translate(216.043 394.794) rotate(-72.459)"/>
    <path id="Path_3177" data-name="Path 3177" d="M75.41,183.215,31.874,139.68v37.289A13.061,13.061,0,0,0,44.935,190.03h60.951a13.061,13.061,0,0,0,13.06-13.061V139.68Z" transform="translate(13.362 58.557)" fill="#3e4169"/>
    <path id="Path_3178" data-name="Path 3178" d="M118.947,145.382v-6.246a13.062,13.062,0,0,0-13.063-13.061H44.934a13.061,13.061,0,0,0-13.06,13.061v6.246L75.41,188.918Z" transform="translate(13.362 52.853)" fill="#454975"/>
    <path id="Path_3179" data-name="Path 3179" d="M108.134,136.772a16.043,16.043,0,1,1-16.043-16.043,16.043,16.043,0,0,1,16.043,16.043" transform="translate(31.881 50.612)" fill="#ea5455"/>
    <rect id="Rectangle_651" data-name="Rectangle 651" width="28.59" height="6.384" transform="translate(55.189 219.659)" fill="#a6afe2"/>
    <path id="Path_3180" data-name="Path 3180" d="M205.78,178.768c-.016.077-.011.152-.027.23-1.733,13.768-18.136,15.169-19.348-1.642a22.807,22.807,0,0,1-.084-2.77c4.53.17,15.425,2.943,19.459,4.182" transform="translate(78.105 73.19)" fill="#f18b8b"/>
    <path id="Path_3181" data-name="Path 3181" d="M235.928,173.913c-7.085,7.085-20.992,7.844-31.988,8.023a2.034,2.034,0,1,0,.146,4.065c16.716-.928,27.106-1.984,34.2-9.59Z" transform="translate(84.655 72.908)" fill="#a6afe2"/>
    <path id="Path_3182" data-name="Path 3182" d="M235.928,173.913c-7.085,7.085-20.992,7.844-31.988,8.023a2.034,2.034,0,1,0,.146,4.065c16.716-.928,27.106-1.984,34.2-9.59Z" transform="translate(84.655 72.908)" fill="none" stroke="#000" stroke-miterlimit="10" stroke-width="2"/>
    <path id="Path_3183" data-name="Path 3183" d="M205.78,178.768c-.016.077-.011.152-.027.23a30.592,30.592,0,0,1-6.016.874c-5.382.272-10.24-.735-13.332-2.516a22.807,22.807,0,0,1-.084-2.77c4.53.17,15.425,2.943,19.459,4.182" transform="translate(78.105 73.19)" fill="#f3edff"/>
    <path id="Path_3184" data-name="Path 3184" d="M252.058,178.471a22.119,22.119,0,0,1-8.038,10.352c-4.35,2.995-9.55,3.95-14.256,2.13-8.378-3.24-11.973-14.1-8.038-24.239s13.9-15.721,22.279-12.482a.523.523,0,0,1,.139.062c8.285,3.317,11.818,14.1,7.915,24.176" transform="translate(92.283 64.271)" fill="#a6afe2"/>
    <path id="Path_3185" data-name="Path 3185" d="M252.058,178.471a22.119,22.119,0,0,1-8.038,10.352c-4.35,2.995-9.55,3.95-14.256,2.13-8.378-3.24-11.973-14.1-8.038-24.239s13.9-15.721,22.279-12.482a.523.523,0,0,1,.139.062C252.428,157.611,255.961,168.4,252.058,178.471Z" transform="translate(92.283 64.271)" fill="none" stroke="#000" stroke-miterlimit="10" stroke-width="2"/>
    <path id="Path_3186" data-name="Path 3186" d="M237.205,165.529c6.391-8.985-.856-26.359-9.164-34.5,0,0-3-3.278-4.014-4.079,1.871.03,2.553.355,4.452,1.811s27.167,16.73,17.5,40.155c0,0-8.268-1.355-8.772-3.39" transform="translate(93.917 53.221)" fill="#a6afe2"/>
    <path id="Path_3187" data-name="Path 3187" d="M237.205,165.529c6.391-8.985-.856-26.359-9.164-34.5,0,0-3-3.278-4.014-4.079,1.871.03,2.553.355,4.452,1.811s27.167,16.73,17.5,40.155C245.978,168.919,237.709,167.564,237.205,165.529Z" transform="translate(93.917 53.221)" fill="none" stroke="#000" stroke-miterlimit="10" stroke-width="2"/>
    <path id="Path_3188" data-name="Path 3188" d="M248.251,176.952c-1.729,4.459-4.855,7.3-8.266,9.612-11.71,2.638-19.131-8.5-11.108-22.34a31.664,31.664,0,0,1,2.271-3.4c3.953-5.14,15.272-3.2,15.272-3.2a9.348,9.348,0,0,1,1.267,1.9,25.922,25.922,0,0,1,1.87,5.135,21.1,21.1,0,0,1-1.307,12.292" transform="translate(94.543 65.928)" fill="#bbc3ed"/>
    <path id="Path_3189" data-name="Path 3189" d="M208.963,182.213a4.3,4.3,0,1,1-4.3-4.3,4.3,4.3,0,0,1,4.3,4.3" transform="translate(83.994 74.584)" fill="#ea5455"/>
    <circle id="Ellipse_37" data-name="Ellipse 37" cx="4.303" cy="4.303" r="4.303" transform="translate(283.477 259.995) rotate(-76.718)" fill="none" stroke="#000" stroke-miterlimit="10" stroke-width="2"/>
    <path id="Path_3190" data-name="Path 3190" d="M128.606,84.265A15.876,15.876,0,1,1,112.731,68.39a15.875,15.875,0,0,1,15.875,15.875" transform="translate(40.603 28.67)" fill="#9b5789"/>
    <path id="Path_3191" data-name="Path 3191" d="M229.557,46.312a6.513,6.513,0,1,1-6.513-6.513,6.514,6.514,0,0,1,6.513,6.513" transform="translate(90.774 16.685)" fill="#9b5789"/>
    <path id="Path_3192" data-name="Path 3192" d="M180.709,110.45a4.652,4.652,0,1,1-4.652-4.652,4.653,4.653,0,0,1,4.652,4.652" transform="translate(71.856 44.352)" fill="#9b5789"/>
    <path id="Path_3193" data-name="Path 3193" d="M272.516,214.122A5.117,5.117,0,1,1,267.4,209a5.118,5.118,0,0,1,5.118,5.118" transform="translate(109.953 87.618)" fill="#9b5789"/>
    <path id="Path_3194" data-name="Path 3194" d="M349.777,284.727v98.542A17.629,17.629,0,0,1,332.142,400.9H157.276a17.626,17.626,0,0,1-17.62-17.634V284.727a17.627,17.627,0,0,1,17.62-17.635H332.142a17.63,17.63,0,0,1,17.635,17.635" transform="translate(58.546 111.97)" fill="#a62973"/>
    <path id="Path_3195" data-name="Path 3195" d="M349.777,284.727v98.542A17.629,17.629,0,0,1,332.142,400.9H157.276a17.626,17.626,0,0,1-17.62-17.634V284.727a17.627,17.627,0,0,1,17.62-17.635H332.142A17.63,17.63,0,0,1,349.777,284.727Z" transform="translate(58.546 111.97)" fill="none" stroke="#000" stroke-miterlimit="10" stroke-width="2"/>
    <path id="Path_3196" data-name="Path 3196" d="M265.761,381.845H202.427l-2.486-72.677h39Z" transform="translate(83.818 129.609)" fill="#5b1040"/>
    <path id="Path_3197" data-name="Path 3197" d="M300.934,414.5H267.872L254.208,309.168h-39L201.541,414.5H168.479a4.948,4.948,0,0,0-4.949,4.947v4.865H305.882v-4.865a4.948,4.948,0,0,0-4.947-4.947M248.991,361.96a14.285,14.285,0,0,1-28.57,0V356a14.285,14.285,0,0,1,28.57,0Z" transform="translate(68.555 129.609)" fill="#7f4673"/>
    <path id="Path_3198" data-name="Path 3198" d="M300.934,414.5H267.872L254.208,309.168h-39L201.541,414.5H168.479a4.948,4.948,0,0,0-4.949,4.947v4.865H305.882v-4.865A4.948,4.948,0,0,0,300.934,414.5ZM248.991,361.96a14.285,14.285,0,0,1-28.57,0V356a14.285,14.285,0,0,1,28.57,0Z" transform="translate(68.555 129.609)" fill="none" stroke="#000" stroke-miterlimit="10" stroke-width="2"/>
    <path id="Path_3199" data-name="Path 3199" d="M220.466,344.856c-32.937,0-21.45,40.716-21.45,63.531" transform="translate(82.618 144.57)" fill="none" stroke="#f3edff" stroke-miterlimit="10" stroke-width="2.174"/>
    <path id="Path_3200" data-name="Path 3200" d="M336.233,124.775a82.478,82.478,0,0,0-20.868,2.59,7.324,7.324,0,0,0-5.477,7.078v54.795a7.3,7.3,0,0,0,8.85,7.12,84.266,84.266,0,0,1,17.495-1.788,78.976,78.976,0,0,1,26.365,4.285V129.06a78.976,78.976,0,0,0-26.365-4.285" transform="translate(129.911 52.308)" fill="#454975"/>
    <path id="Path_3201" data-name="Path 3201" d="M373.393,124.775a78.975,78.975,0,0,0-26.365,4.285v69.794a78.975,78.975,0,0,1,26.365-4.285,84.257,84.257,0,0,1,17.495,1.788,7.3,7.3,0,0,0,8.85-7.12V134.443a7.324,7.324,0,0,0-5.477-7.078,82.479,82.479,0,0,0-20.868-2.59" transform="translate(145.481 52.308)" fill="#3e4169"/>
    <path id="Path_3202" data-name="Path 3202" d="M532.562,398.06H31.9a3.427,3.427,0,0,1,0-6.855H532.562a3.427,3.427,0,0,1,0,6.855" transform="translate(11.938 164.001)" fill="#454975"/>
    <path id="Path_3203" data-name="Path 3203" d="M189.073,418.846a.071.071,0,1,0-.071-.071.072.072,0,0,0,.071.071" transform="translate(79.233 175.528)"/>
  </g>
</svg>
