<svg id="join-us-vector" xmlns="http://www.w3.org/2000/svg" width="221.684" height="148.127" viewBox="0 0 221.684 148.127">
  <path id="Path_3381" data-name="Path 3381" d="M202.55,94.6A85.225,85.225,0,1,0,50.111,147H184.536A84.854,84.854,0,0,0,202.55,94.6" transform="translate(3.479 1.002)" fill="#ebb9d7"/>
  <path id="Path_3382" data-name="Path 3382" d="M216.548,102.814H194.53a1.456,1.456,0,0,1,0-2.912h22.018a1.456,1.456,0,0,1,0,2.912" transform="translate(-0.675 10.814)" fill="#e6f5fa"/>
  <path id="Path_3383" data-name="Path 3383" d="M25.631,89.019H1.455a1.456,1.456,0,0,1,0-2.912H25.631a1.456,1.456,0,0,1,0,2.912" transform="translate(0 9.319)" fill="#e6f5fa"/>
  <path id="Path_3384" data-name="Path 3384" d="M217.754,119.035h-.142a2.181,2.181,0,1,1,0-4.363h.142a2.181,2.181,0,1,1,0,4.363" transform="translate(1.748 12.415)" fill="#90d3ed"/>
  <path id="Path_3385" data-name="Path 3385" d="M16.586,109.317H16.4a2.89,2.89,0,1,1,0-5.779h.187a2.89,2.89,0,1,1,0,5.779" transform="translate(1.464 11.208)" fill="#90d3ed"/>
  <path id="Path_3386" data-name="Path 3386" d="M148.918.125h10.468a.978.978,0,0,1,.97.984V6.241a.978.978,0,0,1-.97.984h-5.4l-3.208,2.749v-2.6L148.9,7.317a.979.979,0,0,1-.951-.984V1.109A.978.978,0,0,1,148.918.125Z" transform="translate(16.035)" fill="none" stroke="#fff" stroke-linecap="round" stroke-linejoin="round" stroke-width="0.25"/>
  <path id="Path_3387" data-name="Path 3387" d="M211.989,43.323a3.172,3.172,0,1,1-3.171-3.217A3.194,3.194,0,0,1,211.989,43.323Z" transform="translate(-8.46 -16.166)" fill="none" stroke="#fff" stroke-width="0.25"/>
  <path id="Path_3388" data-name="Path 3388" d="M6.65,67.5A3.2,3.2,0,0,1,3.479,70.72a3.217,3.217,0,0,1,0-6.433A3.194,3.194,0,0,1,6.65,67.5Z" transform="translate(0.033 6.954)" fill="none" stroke="#fff" stroke-width="0.25"/>
  <path id="Path_3389" data-name="Path 3389" d="M63.878,53.11A170.359,170.359,0,0,0,53.51,74.276c-5.311-1.942-7.7-3.255-14.766-6.433l.185-.715L26.182,70.291c2.648,4.6,9.179,2.552,11,1.865a152.532,152.532,0,0,0,16.967,10.4,3.618,3.618,0,0,0,4.121-.655,3.768,3.768,0,0,0,1.014-1.168c6.075-10.962,11.486-19.5,11.486-19.5Z" transform="translate(2.838 5.743)" fill="#d97f48"/>
  <path id="Path_3390" data-name="Path 3390" d="M63.878,53.11A170.359,170.359,0,0,0,53.51,74.276c-5.311-1.942-7.7-3.255-14.766-6.433l.185-.715L26.182,70.291c2.648,4.6,9.179,2.552,11,1.865a152.532,152.532,0,0,0,16.967,10.4,3.618,3.618,0,0,0,4.121-.655,3.768,3.768,0,0,0,1.014-1.168c6.075-10.962,11.486-19.5,11.486-19.5Z" transform="translate(2.838 5.743)" fill="none" stroke="#000" stroke-width="0.25"/>
  <path id="Path_3391" data-name="Path 3391" d="M56.582,68.911H43.462v-2.1h13.12a1.051,1.051,0,0,1,0,2.1" transform="translate(4.711 7.228)" fill="#08101c"/>
  <path id="Path_3392" data-name="Path 3392" d="M51.765,70.684H21.872a1.6,1.6,0,0,1-1.528-1.122l-5.3-17.706a1.137,1.137,0,0,1,1.084-1.477H44.477A1.6,1.6,0,0,1,46,51.5Z" transform="translate(1.625 5.447)" fill="#111d36"/>
  <path id="Path_3393" data-name="Path 3393" d="M33.045,59.087a2.264,2.264,0,1,1-2.63-1.827,2.265,2.265,0,0,1,2.63,1.827" transform="translate(3.095 6.189)" fill="#e6f5fa"/>
  <path id="Path_3394" data-name="Path 3394" d="M84.548,71.132s7.214,26.046,10.157,48.7l4.953-.939s-1.537-33.2-6.533-53.733Z" transform="translate(9.164 7.049)" fill="#d97f48"/>
  <path id="Path_3395" data-name="Path 3395" d="M84.548,71.132s7.214,26.046,10.157,48.7l4.953-.939s-1.537-33.2-6.533-53.733Z" transform="translate(9.164 7.049)" fill="none" stroke="#000" stroke-width="0.25"/>
  <path id="Path_3396" data-name="Path 3396" d="M98.821,112.615s7.454,11.005-1.492,15.952a1.423,1.423,0,0,1-1.769-.32l-.059-.068a1.423,1.423,0,0,1,.1-1.925c1.271-1.288,2.98-3.958.256-7.444,0,0-1.429.365-1.189,3.2a1.175,1.175,0,0,1-1.275,1.276h0a1.172,1.172,0,0,1-1.027-.888c-.469-1.871-1.246-6.512,1.746-9Z" transform="translate(9.962 12.192)" fill="#d97f48"/>
  <path id="Path_3397" data-name="Path 3397" d="M98.729,68.7c-4.92-15.584-9.535-16.929-9.535-16.929a2.451,2.451,0,0,0-.695-.422l-8.563-3.409-8.8.119L62.3,51.3a3.4,3.4,0,0,0-.872.475s-6.04,1.282-11.091,16.192L61.7,74.709l2.222-4.415L66.63,80.968H84.01l2.157-9.631,1.195,4.109Z" transform="translate(5.456 5.183)" fill="#ee5064"/>
  <path id="Path_3398" data-name="Path 3398" d="M98.729,68.7c-4.92-15.584-9.535-16.929-9.535-16.929a2.451,2.451,0,0,0-.695-.422l-8.563-3.409-8.8.119L62.3,51.3a3.4,3.4,0,0,0-.872.475s-6.04,1.282-11.091,16.192L61.7,74.709l2.222-4.415L66.63,80.968H84.01l2.157-9.631,1.195,4.109Z" transform="translate(5.456 5.183)" fill="none" stroke="#000" stroke-width="0.25"/>
  <rect id="Rectangle_661" data-name="Rectangle 661" width="17.379" height="2.781" transform="translate(72.086 86.15)" fill="#111d36"/>
  <rect id="Rectangle_662" data-name="Rectangle 662" width="17.379" height="2.781" transform="translate(72.086 86.15)" fill="none" stroke="#000" stroke-width="0.25"/>
  <path id="Path_3399" data-name="Path 3399" d="M84.01,80.247H66.631s-8.422,2.135-14.057,41.58c-.859,6.012-1.6,11.873-2.24,17.491H66.747L74,102.913l1.586.417,2.677,35.988h15.42L94,119.877s-1.39-31.643-9.993-39.63" transform="translate(5.455 8.684)" fill="#fb847d"/>
  <path id="Path_3400" data-name="Path 3400" d="M84.01,80.247H66.631s-8.422,2.135-14.057,41.58c-.859,6.012-1.6,11.873-2.24,17.491H66.747L74,102.913l1.586.417,2.677,35.988h15.42L94,119.877S92.613,88.234,84.01,80.247Z" transform="translate(5.455 8.684)" fill="none" stroke="#000" stroke-width="0.25"/>
  <line id="Line_45" data-name="Line 45" x1="5.401" y1="2.108" transform="translate(75.639 109.907)" fill="none" stroke="#000" stroke-width="0.25"/>
  <path id="Path_3401" data-name="Path 3401" d="M88.787,36.083c-.769-2.917-1.049-2.4-3.636-8.2-1.545-3.467-2.741-4.86-3.453-5.421a10.737,10.737,0,0,0-14.335-.14c-.678.451-1.952,1.761-3.645,5.561-2.587,5.8-2.866,5.28-3.636,8.2A7.455,7.455,0,0,0,66.3,45.432,4.48,4.48,0,0,1,65.256,43.4S67.773,46.83,71.2,46.62h6.473c3.426.209,5.943-3.215,5.943-3.215a4.48,4.48,0,0,1-1.049,2.027,7.455,7.455,0,0,0,6.221-9.349" transform="translate(6.488 2.116)" fill="#111d36"/>
  <path id="Path_3402" data-name="Path 3402" d="M88.787,36.083c-.769-2.917-1.049-2.4-3.636-8.2-1.545-3.467-2.741-4.86-3.453-5.421a10.737,10.737,0,0,0-14.335-.14c-.678.451-1.952,1.761-3.645,5.561-2.587,5.8-2.866,5.28-3.636,8.2A7.455,7.455,0,0,0,66.3,45.432,4.48,4.48,0,0,1,65.256,43.4S67.773,46.83,71.2,46.62h6.473c3.426.209,5.943-3.215,5.943-3.215a4.48,4.48,0,0,1-1.049,2.027A7.455,7.455,0,0,0,88.787,36.083Z" transform="translate(6.488 2.116)" fill="none" stroke="#000" stroke-width="0.25"/>
  <path id="Path_3403" data-name="Path 3403" d="M81.823,50.282l-3.545-1.411-1.07-9.325a5.488,5.488,0,0,1-2.57,1.4,4.687,4.687,0,0,1-2.9-.6c-.018-.011-1.2-.992-1.2-.992L69.475,48.99l-3.862,1.415s.249,2.509,8.418,2.509,7.792-2.632,7.792-2.632" transform="translate(7.111 4.252)" fill="#d97f48"/>
  <path id="Path_3404" data-name="Path 3404" d="M81.823,50.282l-3.545-1.411-1.07-9.325a5.488,5.488,0,0,1-2.57,1.4,4.687,4.687,0,0,1-2.9-.6c-.018-.011-1.2-.992-1.2-.992L69.475,48.99l-3.862,1.415s.249,2.509,8.418,2.509S81.823,50.282,81.823,50.282Z" transform="translate(7.111 4.252)" fill="none" stroke="#000" stroke-width="0.25"/>
  <path id="Path_3405" data-name="Path 3405" d="M69.449,39.718s2.243,4.333,4.916,3.712c2.789-.648,2.776-4.312,2.776-4.312Z" transform="translate(7.527 4.226)" fill="#111d36"/>
  <path id="Path_3406" data-name="Path 3406" d="M83.482,29.3a9.23,9.23,0,1,1-18.445,0c0-5.306,4.129-8.916,9.222-8.916s9.223,3.61,9.223,8.916" transform="translate(7.049 2.195)" fill="#111d36"/>
  <path id="Path_3407" data-name="Path 3407" d="M81.756,29.672a37.362,37.362,0,0,1-.92,8.189,7.088,7.088,0,0,1-3.5,4.485l-.326.2a6.067,6.067,0,0,1-6.259.07,7.124,7.124,0,0,1-3.713-4.788,54.7,54.7,0,0,1-.842-8.159s-.723-8.351,7.671-8.189,7.893,8.189,7.893,8.189" transform="translate(7.173 2.315)" fill="#d97f48"/>
  <path id="Path_3408" data-name="Path 3408" d="M81.756,29.672a37.362,37.362,0,0,1-.92,8.189,7.088,7.088,0,0,1-3.5,4.485l-.326.2a6.067,6.067,0,0,1-6.259.07,7.124,7.124,0,0,1-3.713-4.788,54.7,54.7,0,0,1-.842-8.159s-.723-8.351,7.671-8.189S81.756,29.672,81.756,29.672Z" transform="translate(7.173 2.315)" fill="none" stroke="#000" stroke-width="0.25"/>
  <path id="Path_3409" data-name="Path 3409" d="M67.363,36.493c-1.48,1.277-4.593-3.78-3.162-5.143s2.445.856,2.445.856l.29,1.6.432,2.15.112.483Z" transform="translate(6.919 3.336)" fill="#d97f48"/>
  <path id="Path_3410" data-name="Path 3410" d="M67.363,36.493c-1.48,1.277-4.593-3.78-3.162-5.143s2.445.856,2.445.856l.29,1.6.432,2.15.112.483Z" transform="translate(6.919 3.336)" fill="none" stroke="#000" stroke-width="0.25"/>
  <path id="Path_3411" data-name="Path 3411" d="M64.746,32.88s.605-1.31,2.013.99" transform="translate(7.018 3.51)" fill="none" stroke="#000" stroke-linecap="round" stroke-linejoin="round" stroke-width="0.25"/>
  <path id="Path_3412" data-name="Path 3412" d="M79.412,36.523c1.5,1.251,4.528-3.857,3.072-5.2s-2.431.9-2.431.9l-.263,1.6-.4,2.158-.1.483Z" transform="translate(8.594 3.336)" fill="#d97f48"/>
  <path id="Path_3413" data-name="Path 3413" d="M79.412,36.523c1.5,1.251,4.528-3.857,3.072-5.2s-2.431.9-2.431.9l-.263,1.6-.4,2.158-.1.483Z" transform="translate(8.594 3.336)" fill="none" stroke="#000" stroke-width="0.25"/>
  <path id="Path_3414" data-name="Path 3414" d="M81.813,32.867s-.627-1.3-2,1.024" transform="translate(8.651 3.51)" fill="none" stroke="#000" stroke-linecap="round" stroke-linejoin="round" stroke-width="0.25"/>
  <path id="Path_3415" data-name="Path 3415" d="M66.362,32.111s3.356-4.537,2.581-9.133A6.612,6.612,0,0,0,65.8,27.467c-.648,3.235.558,4.644.558,4.644" transform="translate(7.112 2.477)" fill="#111d36"/>
  <path id="Path_3416" data-name="Path 3416" d="M80.688,32.23s-4.033-4.935-3.26-9.53a7.672,7.672,0,0,1,3.353,4.8c.648,3.235-.093,4.733-.093,4.733" transform="translate(8.381 2.447)" fill="#111d36"/>
  <path id="Path_3417" data-name="Path 3417" d="M64.043,29.168H84.36s-2.288-8.607-10.858-9.12-9.459,9.12-9.459,9.12" transform="translate(6.941 2.157)" fill="#111d36"/>
  <path id="Path_3418" data-name="Path 3418" d="M64.043,29.168H84.36s-2.288-8.607-10.858-9.12S64.043,29.168,64.043,29.168Z" transform="translate(6.941 2.157)" fill="none" stroke="#000" stroke-width="0.25"/>
  <path id="Path_3419" data-name="Path 3419" d="M70.706,31.873a.774.774,0,1,1-.774-.774.774.774,0,0,1,.774.774" transform="translate(7.496 3.357)" fill="#111d36"/>
  <path id="Path_3420" data-name="Path 3420" d="M77.17,31.873A.774.774,0,1,1,76.4,31.1a.774.774,0,0,1,.774.774" transform="translate(8.196 3.357)" fill="#111d36"/>
  <path id="Path_3421" data-name="Path 3421" d="M72.739,33.318v1.044a.406.406,0,0,0,.483.408l.555-.116" transform="translate(7.884 3.598)" fill="none" stroke="#111d36" stroke-linecap="round" stroke-linejoin="round" stroke-width="0.25"/>
  <path id="Path_3422" data-name="Path 3422" d="M72.39,29.724l-4.69.563a2.481,2.481,0,0,1,2.292-1.456c1.916-.214,2.4.893,2.4.893" transform="translate(7.338 3.108)" fill="#111d36"/>
  <path id="Path_3423" data-name="Path 3423" d="M74.371,29.724l4.69.563a2.481,2.481,0,0,0-2.292-1.456c-1.916-.214-2.4.893-2.4.893" transform="translate(8.061 3.108)" fill="#111d36"/>
  <circle id="Ellipse_38" data-name="Ellipse 38" cx="3.2" cy="3.2" r="3.2" transform="translate(73.467 32.007)" fill="none" stroke="#6fc7bf" stroke-width="0.25"/>
  <circle id="Ellipse_39" data-name="Ellipse 39" cx="3.2" cy="3.2" r="3.2" transform="translate(82.529 32.007)" fill="none" stroke="#6fc7bf" stroke-width="0.25"/>
  <path id="Path_3424" data-name="Path 3424" d="M72.057,32.091s1.129-1.737,2.663,0" transform="translate(7.81 3.381)" fill="none" stroke="#6fc7bf" stroke-width="0.25"/>
  <path id="Path_3425" data-name="Path 3425" d="M70.956,35.949h5.105a3.26,3.26,0,0,1-5.105,0" transform="translate(7.691 3.883)" fill="#fff"/>
  <path id="Path_3426" data-name="Path 3426" d="M194.78,39.148a.675.675,0,0,0-1.006.029l-3.018,4.251.78-6.83a.715.715,0,0,0-1.4-.25l-1.52,6.224L188.974,35a.642.642,0,0,0-1.275-.132l-1.109,6.978-.191-5.968a.764.764,0,0,0-.889-.684c-.457.019-.694.522-.71.88l-.2,8.417-.832-2.532a.941.941,0,0,0-1.827.358c.326,6.065,1.973,8.185,1.973,8.185l-5.832,16.663-6.472-5.6L164.841,70.5l11.546,9.357a5.34,5.34,0,0,0,4.943.952,4.884,4.884,0,0,0,3.642-4l.024-.141c.029-.161.066-.318.081-.48l4.192-24.793a10.863,10.863,0,0,0,3.06-6.287l2.538-5.144a.674.674,0,0,0-.089-.809" transform="translate(17.866 3.707)" fill="#f7a771"/>
  <path id="Path_3427" data-name="Path 3427" d="M194.78,39.148a.675.675,0,0,0-1.006.029l-3.018,4.251.78-6.83a.715.715,0,0,0-1.4-.25l-1.52,6.224L188.974,35a.642.642,0,0,0-1.275-.132l-1.109,6.978-.191-5.968a.764.764,0,0,0-.889-.684c-.457.019-.694.522-.71.88l-.2,8.417-.832-2.532a.941.941,0,0,0-1.827.358c.326,6.065,1.973,8.185,1.973,8.185l-5.832,16.663-6.472-5.6L164.841,70.5l11.546,9.357a5.34,5.34,0,0,0,4.943.952,4.884,4.884,0,0,0,3.642-4l.024-.141c.029-.161.066-.318.081-.48l4.192-24.793a10.863,10.863,0,0,0,3.06-6.287l2.538-5.144A.674.674,0,0,0,194.78,39.148Z" transform="translate(17.866 3.707)" fill="none" stroke="#000" stroke-linejoin="round" stroke-width="0.25"/>
  <path id="Path_3428" data-name="Path 3428" d="M182.665,43.495s3.173.013,3.232,2.863" transform="translate(19.798 4.701)" fill="none" stroke="#000" stroke-linecap="round" stroke-linejoin="round" stroke-width="0.25"/>
  <line id="Line_46" data-name="Line 46" y1="7.239" x2="0.585" transform="translate(180.798 65.833)" fill="none" stroke="#00678d" stroke-width="0.25"/>
  <path id="Path_3429" data-name="Path 3429" d="M178.5,60.015s-7.636-6.967-15.373-9.3l-3.263-1.237L148.057,48.6l-8.563,3.409a2.45,2.45,0,0,0-.695.426v0s-5.632,1.344-10.552,16.929l10.792,5.877.878,17.062h25L166.9,67.817l3.909,3.2Z" transform="translate(13.9 5.254)" fill="#ee5064"/>
  <path id="Path_3430" data-name="Path 3430" d="M178.5,60.015s-7.636-6.967-15.373-9.3l-3.263-1.237L148.057,48.6l-8.563,3.409a2.45,2.45,0,0,0-.695.426v0s-5.632,1.344-10.552,16.929l10.792,5.877.878,17.062h25L166.9,67.817l3.909,3.2Z" transform="translate(13.9 5.254)" fill="none" stroke="#000" stroke-width="0.25"/>
  <path id="Path_3431" data-name="Path 3431" d="M138.882,72.449s-6.793,26.4-8.492,49.185l-5-.666s.734-33.232,4.6-54.011Z" transform="translate(13.591 7.244)" fill="#f7a771"/>
  <path id="Path_3432" data-name="Path 3432" d="M155.325,49.515l-.49-8.987a9.91,9.91,0,0,1-3.169,1.44,4.812,4.812,0,0,1-2.988-.613l-1.756-1.021-.529,9.164h-.016l-2.641,1.051s1.659,2.825,7.192,2.538,7.256-2.713,7.256-2.713Z" transform="translate(15.579 4.358)" fill="#f7a771"/>
  <path id="Path_3433" data-name="Path 3433" d="M155.325,49.515l-.49-8.987a9.91,9.91,0,0,1-3.169,1.44,4.812,4.812,0,0,1-2.988-.613l-1.756-1.021-.529,9.164h-.016l-2.641,1.051s1.659,2.825,7.192,2.538,7.256-2.713,7.256-2.713Z" transform="translate(15.579 4.358)" fill="none" stroke="#000" stroke-width="0.25"/>
  <path id="Path_3434" data-name="Path 3434" d="M146.288,40.717s2.444,4.46,5.354,3.821c3.038-.666,3.152-4.554,3.152-4.554Z" transform="translate(15.855 4.32)" fill="#111d36"/>
  <path id="Path_3435" data-name="Path 3435" d="M141.616,33.666s.623-1.348,2.073,1.019" transform="translate(15.349 3.594)" fill="none" stroke="#111d36" stroke-linecap="round" stroke-linejoin="round" stroke-width="0.25"/>
  <path id="Path_3436" data-name="Path 3436" d="M161.6,33.118c-1.184-1.088-2.056.116-2.371.672.1-1.073.16-2.218.16-3.426,0,0,.514-8.262-8.126-8.429s-7.9,8.429-7.9,8.429.033,1.635.233,3.811l-.027-.152s-1.043-2.283-2.517-.88c-1.438,1.368,1.568,6.331,3.131,5.363.016.085.03.172.048.256a7.331,7.331,0,0,0,3.821,4.93,6.248,6.248,0,0,0,6.444-.073l.335-.208a7.305,7.305,0,0,0,3.608-4.618c.02-.092.041-.194.062-.289,1.564,1.1,4.573-4.027,3.1-5.386" transform="translate(15.247 2.364)" fill="#f7a771"/>
  <path id="Path_3437" data-name="Path 3437" d="M161.6,33.118c-1.184-1.088-2.056.116-2.371.672.1-1.073.16-2.218.16-3.426,0,0,.514-8.262-8.126-8.429s-7.9,8.429-7.9,8.429.033,1.635.233,3.811l-.027-.152s-1.043-2.283-2.517-.88c-1.438,1.368,1.568,6.331,3.131,5.363.016.085.03.172.048.256a7.331,7.331,0,0,0,3.821,4.93,6.248,6.248,0,0,0,6.444-.073l.335-.208a7.305,7.305,0,0,0,3.608-4.618c.02-.092.041-.194.062-.289C160.068,39.6,163.077,34.477,161.6,33.118Z" transform="translate(15.247 2.364)" fill="none" stroke="#000" stroke-width="0.25"/>
  <path id="Path_3438" data-name="Path 3438" d="M159.184,33.653s-.646-1.338-2.055,1.054" transform="translate(17.03 3.594)" fill="none" stroke="#111d36" stroke-linecap="round" stroke-linejoin="round" stroke-width="0.25"/>
  <path id="Path_3439" data-name="Path 3439" d="M147.752,32.157a.8.8,0,1,1-.8-.8.8.8,0,0,1,.8.8" transform="translate(15.841 3.385)" fill="#111d36"/>
  <path id="Path_3440" data-name="Path 3440" d="M154.4,32.157a.8.8,0,1,1-.8-.8.8.8,0,0,1,.8.8" transform="translate(16.563 3.385)" fill="#111d36"/>
  <path id="Path_3441" data-name="Path 3441" d="M149.843,33.173v1.6a.419.419,0,0,0,.5.42l.572-.12" transform="translate(16.241 3.582)" fill="none" stroke="#111d36" stroke-linecap="round" stroke-linejoin="round" stroke-width="0.25"/>
  <path id="Path_3442" data-name="Path 3442" d="M151.317,29.511l4.6,1.187s-.208-1.289-2.089-1.758-2.507.571-2.507.571" transform="translate(16.401 3.11)" fill="#111d36"/>
  <path id="Path_3443" data-name="Path 3443" d="M149.189,29.511l-4.6,1.187s.208-1.289,2.089-1.758,2.507.571,2.507.571" transform="translate(15.672 3.11)" fill="#111d36"/>
  <path id="Path_3444" data-name="Path 3444" d="M150.339,37.26a.821.821,0,0,0,.345-.474c.107-.4.154-1.03-.609-1.1-1.121-.105-3,2.051-4.64.815,0,0,1.569,2.915,4.9.76" transform="translate(15.763 3.854)" fill="#111d36"/>
  <path id="Path_3445" data-name="Path 3445" d="M150.463,37.26a.824.824,0,0,1-.344-.474c-.106-.4-.153-1.03.606-1.1,1.116-.105,2.985,2.051,4.62.815,0,0-1.563,2.915-4.882.76" transform="translate(16.264 3.854)" fill="#111d36"/>
  <path id="Path_3446" data-name="Path 3446" d="M159.046,20.435c-2.824-2-8.2-.14-11.176,1.157a2.069,2.069,0,0,0-.5-1.542c-5.11,1.567-4.468,4.477-4.111,5.406-1,1.053-2.377,3.681.235,9.193,0,0,1.459-4.707.838-8.453,2.422,1.1,9,3.72,13.173,2.051a23.071,23.071,0,0,0,1.39,6.4c1.581-4.043,1.359-6.476.73-7.907.72-.86,2.842-3.884-.583-6.307" transform="translate(15.39 2.106)" fill="#111d36"/>
  <path id="Path_3447" data-name="Path 3447" d="M159.046,20.435c-2.824-2-8.2-.14-11.176,1.157a2.069,2.069,0,0,0-.5-1.542c-5.11,1.567-4.468,4.477-4.111,5.406-1,1.053-2.377,3.681.235,9.193,0,0,1.459-4.707.838-8.453,2.422,1.1,9,3.72,13.173,2.051a23.071,23.071,0,0,0,1.39,6.4c1.581-4.043,1.359-6.476.73-7.907C160.349,25.881,162.47,22.858,159.046,20.435Z" transform="translate(15.39 2.106)" fill="none" stroke="#000" stroke-width="0.25"/>
  <path id="Path_3448" data-name="Path 3448" d="M165.069,95.587l-.735-7.557h-25c-9.583,14.341-4.16,39.828-4.16,39.828l1.461,10.617h16.054v-23.9l6.905,23.9H175.66c-5.934-25.359-10.591-42.888-10.591-42.888" transform="translate(14.485 9.528)" fill="#672376"/>
  <path id="Path_3449" data-name="Path 3449" d="M165.069,95.587l-.735-7.557h-25c-9.583,14.341-4.16,39.828-4.16,39.828l1.461,10.617h16.054v-23.9l6.905,23.9H175.66C169.725,113.116,165.069,95.587,165.069,95.587Z" transform="translate(14.485 9.528)" fill="none" stroke="#000" stroke-width="0.25"/>
  <path id="Path_3450" data-name="Path 3450" d="M150.824,113.264v-7.523l3.628-5.62" transform="translate(16.347 10.838)" fill="none" stroke="#000" stroke-width="0.25"/>
  <path id="Path_3451" data-name="Path 3451" d="M108.036,130.641s4.317-21.425,6.858-27.267a.612.612,0,0,1,1.151.1c.612,2.226,1.419,8.786,1.059,28.1l.008,7.892h15.153l2.232-18.994s3.375-26.474-7.619-41.509H104.839a85.1,85.1,0,0,0-12.717,38.919c-.329,5.023-.9,12.694-1.581,21.585h15.613Z" transform="translate(9.813 8.544)" fill="#ee5064"/>
  <path id="Path_3452" data-name="Path 3452" d="M108.036,130.641s4.317-21.425,6.858-27.267a.612.612,0,0,1,1.151.1c.612,2.226,1.419,8.786,1.059,28.1l.008,7.892h15.153l2.232-18.994s3.375-26.474-7.619-41.509H104.839a85.1,85.1,0,0,0-12.717,38.919c-.329,5.023-.9,12.694-1.581,21.585h15.613Z" transform="translate(9.813 8.544)" fill="none" stroke="#000" stroke-width="0.25"/>
  <line id="Line_47" data-name="Line 47" x2="5.224" y2="1.947" transform="translate(120.407 109.711)" fill="none" stroke="#000" stroke-width="0.25"/>
  <rect id="Rectangle_663" data-name="Rectangle 663" width="22.037" height="2.697" transform="translate(114.653 84.802)" fill="#111d36"/>
  <rect id="Rectangle_664" data-name="Rectangle 664" width="22.037" height="2.697" transform="translate(114.653 84.802)" fill="none" stroke="#000" stroke-width="0.25"/>
  <line id="Line_48" data-name="Line 48" y1="7.309" x2="0.882" transform="translate(139.385 56.837)" fill="none" stroke="#eab600" stroke-width="0.25"/>
  <line id="Line_49" data-name="Line 49" x1="0.795" y1="6.609" transform="translate(111.273 56.837)" fill="none" stroke="#eab600" stroke-width="0.25"/>
  <path id="Path_3453" data-name="Path 3453" d="M140.388,55.619c-2.868-8.913-7.019-11.045-8.664-11.55l.006-.044L119.98,41.11l-8.659.16-10.6,2.913S95,44.549,91.346,55.888c-3.878,12.048-4.16,21.534-1.468,23.124a2.539,2.539,0,0,0,1.156.355c3.052.7,8.341.326,13.894-.459l.176,1.452h22.238l.2-1.635a56.235,56.235,0,0,0,13.429.386l-.017-.042a2.575,2.575,0,0,0,.9-.326c2.691-1.591,2.41-11.076-1.469-23.124M99.376,68.371c.121-.326.243-.641.362-.982,1.18-3.342,2.088-6.139,2.779-8.388l1.05,8.669c-1.5.241-2.915.48-4.191.7m30.46-8.669q1.047,3.1,2.563,7.417c.368,1.041.734,2,1.1,2.9l-5.008.843Z" transform="translate(9.549 4.442)" fill="#a62973"/>
  <path id="Path_3454" data-name="Path 3454" d="M140.388,55.619c-2.868-8.913-7.019-11.045-8.664-11.55l.006-.044L119.98,41.11l-8.659.16-10.6,2.913S95,44.549,91.346,55.888c-3.878,12.048-4.16,21.534-1.468,23.124a2.539,2.539,0,0,0,1.156.355c3.052.7,8.341.326,13.894-.459l.176,1.452h22.238l.2-1.635a56.235,56.235,0,0,0,13.429.386l-.017-.042a2.575,2.575,0,0,0,.9-.326C144.547,77.152,144.266,67.667,140.388,55.619ZM99.376,68.371c.121-.326.243-.641.362-.982,1.18-3.342,2.088-6.139,2.779-8.388l1.05,8.669C102.067,67.91,100.652,68.149,99.376,68.371Zm30.46-8.669q1.047,3.1,2.563,7.417c.368,1.041.734,2,1.1,2.9l-5.008.843Z" transform="translate(9.549 4.442)" fill="none" stroke="#000" stroke-width="0.25"/>
  <path id="Path_3455" data-name="Path 3455" d="M103.773,64.964s12.544-1.871,16.857-1.65l.5,1.223" transform="translate(11.247 6.847)" fill="none" stroke="#000" stroke-width="0.25"/>
  <path id="Path_3456" data-name="Path 3456" d="M103.283,76.384l21.067-4.142-3.166-7.826" transform="translate(11.194 6.968)" fill="none" stroke="#000" stroke-width="0.25"/>
  <path id="Path_3457" data-name="Path 3457" d="M105.171,65.439a28.894,28.894,0,0,0-10.907-6.481.885.885,0,0,0-.651,1.643l4.093,1.913-5.372.358A1.541,1.541,0,0,0,90.891,64.6a4.885,4.885,0,0,0,2.124,2.955Z" transform="translate(9.85 6.372)" fill="#f7a771"/>
  <path id="Path_3458" data-name="Path 3458" d="M105.171,65.439a28.894,28.894,0,0,0-10.907-6.481.885.885,0,0,0-.651,1.643l4.093,1.913-5.372.358A1.541,1.541,0,0,0,90.891,64.6a4.885,4.885,0,0,0,2.124,2.955Z" transform="translate(9.85 6.372)" fill="none" stroke="#000" stroke-width="0.25"/>
  <path id="Path_3459" data-name="Path 3459" d="M104.67,27.231l-4.348,5.675s15.638,12.013,28.5-.85l-4.589-5.6Z" transform="translate(10.873 2.854)" fill="#111d36"/>
  <path id="Path_3460" data-name="Path 3460" d="M104.67,27.231l-4.348,5.675s15.638,12.013,28.5-.85l-4.589-5.6Z" transform="translate(10.873 2.854)" fill="none" stroke="#000" stroke-width="0.25"/>
  <path id="Path_3461" data-name="Path 3461" d="M119.9,64.333c2.893-.914,8.634-2.321,12.16-.479l.459,5.847-9.993,1.257" transform="translate(12.996 6.81)" fill="#f7a771"/>
  <path id="Path_3462" data-name="Path 3462" d="M119.9,64.333c2.893-.914,8.634-2.321,12.16-.479l.459,5.847-9.993,1.257" transform="translate(12.996 6.81)" fill="none" stroke="#000" stroke-width="0.25"/>
  <path id="Path_3463" data-name="Path 3463" d="M117.686,41.728l-1.1-8.714a5.626,5.626,0,0,1-2.638,1.435,4.809,4.809,0,0,1-2.979-.611c-.019-.011-1.228-1.019-1.228-1.019l-.664,9.029a2.02,2.02,0,0,1-.028.318l4.762,10.352,3.9-10.511a1.951,1.951,0,0,1-.023-.28" transform="translate(11.82 3.544)" fill="#f7a771"/>
  <path id="Path_3464" data-name="Path 3464" d="M117.686,41.728l-1.1-8.714a5.626,5.626,0,0,1-2.638,1.435,4.809,4.809,0,0,1-2.979-.611c-.019-.011-1.228-1.019-1.228-1.019l-.664,9.029a2.02,2.02,0,0,1-.028.318l4.762,10.352,3.9-10.511A1.951,1.951,0,0,1,117.686,41.728Z" transform="translate(11.82 3.544)" fill="none" stroke="#000" stroke-width="0.25"/>
  <path id="Path_3465" data-name="Path 3465" d="M109.051,33.19s2.3,4.864,5.045,4.226c2.862-.665,2.849-4.843,2.849-4.843Z" transform="translate(11.82 3.517)" fill="#111d36"/>
  <path id="Path_3466" data-name="Path 3466" d="M123.453,22.495a9.473,9.473,0,1,1-18.93,0c0-5.445,4.237-9.15,9.466-9.15s9.464,3.7,9.464,9.15" transform="translate(11.329 1.433)" fill="#111d36"/>
  <path id="Path_3467" data-name="Path 3467" d="M123.453,22.495a9.473,9.473,0,1,1-18.93,0c0-5.445,4.237-9.15,9.466-9.15S123.453,17.049,123.453,22.495Z" transform="translate(11.329 1.433)" fill="none" stroke="#000" stroke-width="0.25"/>
  <path id="Path_3468" data-name="Path 3468" d="M104.224,26.172s.621-1.344,2.066,1.016" transform="translate(11.296 2.782)" fill="none" stroke="#111d36" stroke-linecap="round" stroke-linejoin="round" stroke-width="0.25"/>
  <path id="Path_3469" data-name="Path 3469" d="M124.148,25.627c-1.18-1.085-2.049.116-2.364.669.1-1.07.16-2.211.16-3.416,0,0,.513-8.236-8.1-8.4s-7.873,8.4-7.873,8.4.032,1.63.232,3.8l-.027-.151s-1.04-2.277-2.509-.878c-1.433,1.364,1.564,6.312,3.121,5.348.017.084.031.171.048.255a7.309,7.309,0,0,0,3.81,4.915,6.23,6.23,0,0,0,6.424-.072l.335-.208a7.278,7.278,0,0,0,3.6-4.6c.021-.091.042-.193.062-.288,1.561,1.1,4.56-4.013,3.087-5.369" transform="translate(11.195 1.555)" fill="#f7a771"/>
  <path id="Path_3470" data-name="Path 3470" d="M124.148,25.627c-1.18-1.085-2.049.116-2.364.669.1-1.07.16-2.211.16-3.416,0,0,.513-8.236-8.1-8.4s-7.873,8.4-7.873,8.4.032,1.63.232,3.8l-.027-.151s-1.04-2.277-2.509-.878c-1.433,1.364,1.564,6.312,3.121,5.348.017.084.031.171.048.255a7.309,7.309,0,0,0,3.81,4.915,6.23,6.23,0,0,0,6.424-.072l.335-.208a7.278,7.278,0,0,0,3.6-4.6c.021-.091.042-.193.062-.288C122.622,32.091,125.621,26.982,124.148,25.627Z" transform="translate(11.195 1.555)" fill="none" stroke="#000" stroke-width="0.25"/>
  <path id="Path_3471" data-name="Path 3471" d="M121.706,26.53s-.644-1.333-2.048,1.051" transform="translate(12.969 2.822)" fill="none" stroke="#000" stroke-linecap="round" stroke-linejoin="round" stroke-width="0.25"/>
  <path id="Path_3472" data-name="Path 3472" d="M122.014,20.3a7.819,7.819,0,0,0-3.068-4.672,6.687,6.687,0,0,0-3.94-1.925s-5.379-1.214-7.606,2.855a6.939,6.939,0,0,0-2.06,3.742c-.666,3.321.572,4.766.572,4.766a16.149,16.149,0,0,0,2.648-6.369c1.629,1.348,4.932,3.035,11.2,2.949a18.942,18.942,0,0,0,2.16,3.51s.761-1.536.1-4.857" transform="translate(11.396 1.453)" fill="#111d36"/>
  <path id="Path_3473" data-name="Path 3473" d="M122.014,20.3a7.819,7.819,0,0,0-3.068-4.672,6.687,6.687,0,0,0-3.94-1.925s-5.379-1.214-7.606,2.855a6.939,6.939,0,0,0-2.06,3.742c-.666,3.321.572,4.766.572,4.766a16.149,16.149,0,0,0,2.648-6.369c1.629,1.348,4.932,3.035,11.2,2.949a18.942,18.942,0,0,0,2.16,3.51S122.68,23.619,122.014,20.3Z" transform="translate(11.396 1.453)" fill="none" stroke="#000" stroke-width="0.25"/>
  <path id="Path_3474" data-name="Path 3474" d="M110.341,25.139a.794.794,0,1,1-.794-.794.794.794,0,0,1,.794.794" transform="translate(11.787 2.625)" fill="#111d36"/>
  <path id="Path_3475" data-name="Path 3475" d="M116.975,25.139a.794.794,0,1,1-.794-.794.794.794,0,0,1,.794.794" transform="translate(12.506 2.625)" fill="#111d36"/>
  <path id="Path_3476" data-name="Path 3476" d="M112.256,26.622v1.072a.418.418,0,0,0,.5.419l.57-.12" transform="translate(12.167 2.872)" fill="none" stroke="#111d36" stroke-linecap="round" stroke-linejoin="round" stroke-width="0.25"/>
  <path id="Path_3477" data-name="Path 3477" d="M116.014,21.748s-2.325-.191-2.349.756c0,0,0,.641,2.031.768s2.556-.022,2.742-.624-1.333-.894-2.424-.9" transform="translate(12.32 2.342)" fill="#111d36"/>
  <path id="Path_3478" data-name="Path 3478" d="M109.749,21.748s2.325-.191,2.349.756c0,0,0,.641-2.031.768s-2.556-.022-2.742-.624,1.333-.894,2.424-.9" transform="translate(11.631 2.342)" fill="#111d36"/>
  <path id="Path_3479" data-name="Path 3479" d="M114.976,28.712a2.816,2.816,0,0,1-2.987.962" transform="translate(12.138 3.098)" fill="none" stroke="#111d36" stroke-linecap="round" stroke-linejoin="round" stroke-width="0.25"/>
  <path id="Path_3480" data-name="Path 3480" d="M119.434,64.58s7.817-3.261,12.682-.719l.458,5.847-10.379,1.38Z" transform="translate(12.945 6.803)" fill="#f7a771"/>
  <path id="Path_3481" data-name="Path 3481" d="M119.434,64.58s7.817-3.261,12.682-.719l.458,5.847-10.379,1.38Z" transform="translate(12.945 6.803)" fill="none" stroke="#000" stroke-width="0.25"/>
  <path id="Path_3482" data-name="Path 3482" d="M104.654,26.53s.644-1.333,2.048,1.051" transform="translate(11.343 2.822)" fill="none" stroke="#000" stroke-linecap="round" stroke-linejoin="round" stroke-width="0.25"/>
</svg>
