<svg xmlns="http://www.w3.org/2000/svg" width="497.733" height="117.109" viewBox="0 0 497.733 117.109">
  <path id="Path_3831" data-name="Path 3831" d="M-155.509,96.7c109.981,56.93,302.572-13.245,298.929,7.7,2.165-12.449,1.33-5.374,2.977-17.081-6.807-1.7-12.276-6.856-16.255-12.635C120,59.949,118.3,39.22,127.749,24.031A43.046,43.046,0,0,1,152.515,5.614a45.912,45.912,0,0,1,30.855,2.43,32.286,32.286,0,0,1,12.377,9.184c6.811,8.7,10.067,18.926,8.925,34.64a41.61,41.61,0,0,1-18.618,31.424c-10.6,6.848-25.388,9.332-36.732,4.95-.591-.464-1.683-.118-2.038-.78a1.328,1.328,0,0,1-.048-.839c.531-3.31,1.062-6.62,1.644-10.2-6.575-2.688-11.3-8.765-13.942-15.358a36.672,36.672,0,0,1,.338-28.618c4.1-8.911,12.518-15.869,22.177-17.572a35.346,35.346,0,0,1,9.574-.259c7.3.715,14.639,3.308,19.793,8.521,4.438,4.488,6.963,10.668,7.475,18.6,1.184,11.278-3.567,23.013-12.142,29.253q-1.707-17.542-3.894-35.033c-8.146,2.1-16.428,3.675-25.6,5.194C126.581,38.453,100.5,35.765,74.3,33.4c-1.6,1.218-3.038,3-2.9,5.008s2.663,3.711,4.254,2.479a3.635,3.635,0,0,0,1.133-2.774,5.3,5.3,0,0,0-.74-3.228,2.831,2.831,0,0,0-2.9-1.274q-2.846-7.382-5.769-14.733a182.887,182.887,0,0,1,22.152,3.579,10.514,10.514,0,0,1,4.279,1.676A8.887,8.887,0,0,1,96,26.935a24.992,24.992,0,0,1,2.828,8.509L74.139,34.019c1.117,1.354,2.163,2.945,2.1,4.7s-1.762,3.506-3.467,3.179C70.589,45.924,67,50.419,64.818,54.445c5.486-.3,11.9.568,17.335-.222a24.871,24.871,0,0,0,8.281-2.275c2.536-1.361,8.442-6.555,8.81-9.409-6.644-.443-16.571.052-23.391.01,24.049.231,48.563.476,72.236,1.353a23.755,23.755,0,0,0-4.724-.432q-.525,3.5-.805,7.041a61.329,61.329,0,0,0,10.477-5.227c1.078-.673,2.285-1.824,1.786-2.992a2.789,2.789,0,0,0-1.425-1.21L142.75,35.621a25.372,25.372,0,0,1,1,5.351c-.491.565-1.283.755-1.881,1.206s-.909,1.494-.268,1.881a21.814,21.814,0,0,0,.47,10.883,16.535,16.535,0,0,0,7.188,8.927,98.756,98.756,0,0,1-.205-16.609,183.555,183.555,0,0,0,1.18,26.437,29.719,29.719,0,0,0,2.831,10.684,86.864,86.864,0,0,0,30.556-6.226c-.439-2.022-.879-4.045-1.232-5.871l-1.081-11.2a6.988,6.988,0,0,1-.024-1.717A8.141,8.141,0,0,1,182.3,56.9c6.593-12.6,4-26.163-7.148-31.318-5.47-2.528-11.707-2.709-17.606-1.476s-11.377,6.4-14.016,11.78a16.746,16.746,0,0,0-.907,3.465q3.974.725,7.982,1.247a1.947,1.947,0,0,0,1.344-.15,2.116,2.116,0,0,0,.637-.933,12.572,12.572,0,0,1,9.538-7.048,11.182,11.182,0,0,1,10.859,4.794,139.363,139.363,0,0,1-19.549,4.12,3.142,3.142,0,0,1-1.5,4.014l1.35,5.827-.753-3.473a2.625,2.625,0,0,1-.084-1.025,1.393,1.393,0,0,1,1.754-1.007,1.451,1.451,0,0,1,.811,1.876,1.514,1.514,0,0,1-1.928.74l4.444,2.294a14.18,14.18,0,0,0-.909-4.287,20.063,20.063,0,0,1,3.235-.871,8.83,8.83,0,0,1-2.853.792,4.359,4.359,0,0,0,.522,2.026,4.745,4.745,0,0,1,2.166-.675l-2.276.733a4.615,4.615,0,0,1,.557,2l3.924-.889c.6-.136,1.292-.353,1.487-.935.3-.885-.951-1.61-1.835-1.312a2.155,2.155,0,0,1-.866.226c-.62-.061-.863-.948-.516-1.466a2.064,2.064,0,0,1,1.644-.739,8.566,8.566,0,0,0,1.859-.134,4.573,4.573,0,0,0,.395,2.945c.555.844,2,1.124,2.529.261.653-1.073-.713-2.386-.492-3.622a10.48,10.48,0,0,0,1.4,3.97,29.2,29.2,0,0,0,.38-4.3,11.6,11.6,0,0,1,1.624,2.5,11.508,11.508,0,0,1,.607-3.838l1.469,4.546,3.286-1.08-2.19.618a12.091,12.091,0,0,0-.836-3.71,4.148,4.148,0,0,1,2.6-.873,9.6,9.6,0,0,0-2.509.5,7.644,7.644,0,0,1,.632,2.6,2.012,2.012,0,0,1,1.762-.7,1.749,1.749,0,0,0-1.565,2.449,5.291,5.291,0,0,1,1.924-.547,1.354,1.354,0,0,1,.064,1.993,3.919,3.919,0,0,1-2.037.943l-7.292,1.772c-.706.172-1.6.656-1.38,1.347.2.616,1.066.606,1.7.471l8.6-1.827a1.448,1.448,0,0,1,1.194.1.988.988,0,0,1-.036,1.4,2.864,2.864,0,0,1-1.414.658l-7.4,1.891a3.2,3.2,0,0,0-1.434.634,1.1,1.1,0,0,0-.23,1.422c.367.46,1.076.379,1.651.254l6.634-1.44c.883-.192,1.991-.3,2.513.435a1.6,1.6,0,0,1-.466,2.058,4.672,4.672,0,0,1-2.159.786l-5.7,1.054a3.966,3.966,0,0,0-1.863.685,1.363,1.363,0,0,0-.364,1.779,17.012,17.012,0,0,0-3.543.437,86,86,0,0,0-.646-11.725l-9.46,1.465A74.906,74.906,0,0,0,152.16,66.1l2.4-.341a5.216,5.216,0,0,1-.628-1.575,1.766,1.766,0,0,1,.444-1.574c.241-.224.559-.35.8-.57a.693.693,0,0,0,.2-.875,1.233,1.233,0,0,1-1.273.213l.334-.957a1.471,1.471,0,0,1-1.849.661c.913-.437.992-1.668,1.141-2.669a4.1,4.1,0,0,1,.857-2.1,2.139,2.139,0,0,1,2.055-.753,3.223,3.223,0,0,1,1.838,1.935,4.215,4.215,0,0,0,1.65,2.144.858.858,0,0,1-1.159-.572,2.282,2.282,0,0,0,1.236,1.337,9.631,9.631,0,0,1-2.654.634,3.033,3.033,0,0,0,1.9.892.887.887,0,0,1,.409.091.777.777,0,0,1,.262.609,8.6,8.6,0,0,1,.064,2.138l-4.385.791a31.8,31.8,0,0,1,5.571-.653,2.689,2.689,0,0,1,.254,1.279l-5.491,1.071c-.556.109-1.223.321-1.336.876a1,1,0,0,0,.708,1.043,2.906,2.906,0,0,0,1.362.033l18.764-2.541a1.258,1.258,0,0,1-.067,1.863,3.64,3.64,0,0,1-1.973.73l-15.54,2.467a4.009,4.009,0,0,0-2.006.7,1.381,1.381,0,0,0-.295,1.9,2.033,2.033,0,0,0,1.763.338l16.4-2c1.071-.131,2.479-.061,2.809.966a1.61,1.61,0,0,1-.776,1.737,4.71,4.71,0,0,1-1.952.558L160.162,77.78a4.514,4.514,0,0,0-2.66.964c-.684.675-.723,2.049-.139,2.214,4.178,2.17,9.2.4,13.682-1.05a5.842,5.842,0,0,1,2.647-.411,2.084,2.084,0,0,1,1.84,1.7l5.54-1.817a2.081,2.081,0,0,1,1.507-.1c.622.292.785,1.086.871,1.768,1.825,14.528.362,7.781,3.015,23.822,20.1,7.022,94.572-27.6,153.84-12.988" transform="translate(156.52 -3.147)" fill="none" stroke="#a62973" stroke-linecap="round" stroke-linejoin="round" stroke-width="1.5"/>
</svg>
