<svg id="aspirants_banner" data-name="aspirants banner" xmlns="http://www.w3.org/2000/svg" xmlns:xlink="http://www.w3.org/1999/xlink" width="667" height="386" viewBox="0 0 667 386">
  <defs>
    <clipPath id="clip-path">
      <rect id="Rectangle_1477" data-name="Rectangle 1477" width="667" height="386" fill="none"/>
    </clipPath>
    <clipPath id="clip-path-2">
      <path id="Path_8155" data-name="Path 8155" d="M393.373,100.144V215a16.994,16.994,0,0,0,16.988,17h188.7a16.994,16.994,0,0,0,16.988-17V100.144Z" transform="translate(-393.373 -100.144)" fill="none"/>
    </clipPath>
    <clipPath id="clip-path-3">
      <rect id="Rectangle_1467" data-name="Rectangle 1467" width="187.341" height="158.072" fill="none"/>
    </clipPath>
    <clipPath id="clip-path-4">
      <rect id="Rectangle_1466" data-name="Rectangle 1466" width="187.34" height="158.07" fill="none"/>
    </clipPath>
    <clipPath id="clip-path-5">
      <rect id="Rectangle_1469" data-name="Rectangle 1469" width="31.377" height="31.2" fill="none"/>
    </clipPath>
    <clipPath id="clip-path-6">
      <rect id="Rectangle_1468" data-name="Rectangle 1468" width="31.374" height="31.199" fill="none"/>
    </clipPath>
    <clipPath id="clip-path-7">
      <rect id="Rectangle_1476" data-name="Rectangle 1476" width="666.735" height="386" fill="none"/>
    </clipPath>
  </defs>
  <g id="Group_1283" data-name="Group 1283" clip-path="url(#clip-path)">
    <g id="Group_1280" data-name="Group 1280" transform="translate(393.217 100.144)">
      <g id="Group_1279" data-name="Group 1279" clip-path="url(#clip-path-2)">
        <path id="Path_8145" data-name="Path 8145" d="M616.048,216.69a16.994,16.994,0,0,1-16.988,17h-188.7a16.993,16.993,0,0,1-16.988-17V101.836H616.048Z" transform="translate(-393.373 -100.144)" fill="#fff"/>
        <path id="Path_8146" data-name="Path 8146" d="M627.709,131.124c-2.6-8.353-10.837-14.753-19.835-15.436a23.362,23.362,0,0,0-22.121,12.273,13.765,13.765,0,0,0-11.831,6.66,12.812,12.812,0,0,0,.412,13.218A18.687,18.687,0,0,0,561,157.622a17.546,17.546,0,0,0,.358,16.17,21.45,21.45,0,0,0-20.319.736,19.993,19.993,0,0,0-9.6,17.337,21.371,21.371,0,0,0-36.718,1.674,33.969,33.969,0,0,0-23.857-21.621,35.384,35.384,0,0,0-31.672,8.027c-12.419,1.944-21.47,15.436-18.236,27.179a25.08,25.08,0,0,0-8.741,23.005,25.637,25.637,0,0,0,15.761,19.158l213.693-.139,18.218-81.562Z" transform="translate(-393.38 -100.144)" fill="#ce5fb2"/>
        <path id="Path_8147" data-name="Path 8147" d="M631.1,158.211a21.821,21.821,0,0,0-40.535-3.2,12.918,12.918,0,0,0-11.017,19.869,17.787,17.787,0,0,0-12.526,25.943,19.716,19.716,0,0,0-28.895,18.049,20.3,20.3,0,0,0-35.476,1.645,32.7,32.7,0,0,0-53.661-13.635c-12,1.933-20.732,15.417-17.6,27.163a25.02,25.02,0,0,0,6.817,42.166l206.464.031L662.214,194.7Z" transform="translate(-393.385 -100.144)" fill="#dd94c6"/>
        <g id="Group_1273" data-name="Group 1273" transform="translate(50.869 5.368)" opacity="0.7">
          <g id="Group_1272" data-name="Group 1272">
            <g id="Group_1271" data-name="Group 1271" clip-path="url(#clip-path-3)">
              <g id="Group_1270" data-name="Group 1270" transform="translate(0 0.002)">
                <g id="Group_1269" data-name="Group 1269" clip-path="url(#clip-path-4)">
                  <path id="Path_8148" data-name="Path 8148" d="M466.973,105.514C528.82,163.7,572.678,179.389,627.931,185l3.672,58.756-58,19.83c-50.657-1.469-99.3-74.831-129.343-137.769l22.711-20.3" transform="translate(-444.262 -105.514)" fill="#fff2e0"/>
                </g>
              </g>
            </g>
          </g>
        </g>
        <path id="Path_8149" data-name="Path 8149" d="M458.263,106.269c10.055,11.9,25.22,23.285,43.106,38.661l-24.405-9.951a166.36,166.36,0,0,0,9.794,14.881c-5.625-2.6-14.675-8.311-17.675-11.341,0,4.231,5.1,11.3,7.311,15.162-13.013-11.145-24.859-24.751-28.685-36.7Z" transform="translate(-393.395 -100.144)" fill="#ffa121"/>
        <g id="Group_1278" data-name="Group 1278" transform="translate(56.015 6.727)" opacity="0.4">
          <g id="Group_1277" data-name="Group 1277">
            <g id="Group_1276" data-name="Group 1276" clip-path="url(#clip-path-5)">
              <g id="Group_1275" data-name="Group 1275">
                <g id="Group_1274" data-name="Group 1274" clip-path="url(#clip-path-6)">
                  <path id="Path_8150" data-name="Path 8150" d="M455.413,106.871c5.948,7.888,14.856,15.491,25.374,25.731l-14.244-6.759c1.785,3.276,4.381,7.863,5.828,9.835a49.853,49.853,0,0,1-10.356-7.6c.045,2.765,3.066,7.444,4.392,9.993-7.656-7.424-14.656-16.446-17-24.3Z" transform="translate(-449.41 -106.871)" fill="#fff"/>
                </g>
              </g>
            </g>
          </g>
        </g>
        <path id="Path_8151" data-name="Path 8151" d="M547.8,147.295c-.079,1.844,0,4.945,1.843,6.008,3.067,1.776,5.48-2.536,6.6-4.7,1.343-2.588,1-5.8-2.037-6.954-4.011-1.525-6.258,2.217-6.406,5.649" transform="translate(-393.434 -100.144)" fill="#dd94c6"/>
        <path id="Path_8152" data-name="Path 8152" d="M402.348,203.143c-.079,1.844,0,4.945,1.843,6.008,3.067,1.777,5.48-2.536,6.6-4.7,1.342-2.588,1-5.8-2.037-6.954-4.011-1.525-6.259,2.217-6.406,5.649" transform="translate(-393.377 -100.144)" fill="#dd94c6"/>
        <path id="Path_8153" data-name="Path 8153" d="M561.536,126.484a2.57,2.57,0,1,0,2.57-2.571,2.57,2.57,0,0,0-2.57,2.571" transform="translate(-393.44 -100.144)" fill="#dd94c6"/>
        <path id="Path_8154" data-name="Path 8154" d="M429.461,194.158a3.912,3.912,0,1,0,3.912-3.914,3.913,3.913,0,0,0-3.912,3.914" transform="translate(-393.387 -100.144)" fill="#dd94c6"/>
      </g>
    </g>
    <g id="Group_1282" data-name="Group 1282">
      <g id="Group_1281" data-name="Group 1281" clip-path="url(#clip-path-7)">
        <path id="Path_8156" data-name="Path 8156" d="M393.006,215.763V100.542H616.414V215.763a17.38,17.38,0,0,1-17.356,17.364h-188.7a17.379,17.379,0,0,1-17.356-17.364m.734-114.487V215.763a16.644,16.644,0,0,0,16.622,16.629h188.7a16.645,16.645,0,0,0,16.622-16.629V101.276Z" transform="translate(-0.156)" fill="#672376"/>
        <path id="Path_8157" data-name="Path 8157" d="M410.362,56.961h188.7a16.992,16.992,0,0,1,16.989,16.993v27.5H393.374v-27.5a16.991,16.991,0,0,1,16.986-17Z" transform="translate(-0.156)" fill="#fff"/>
        <path id="Path_8158" data-name="Path 8158" d="M393.006,73.958A17.379,17.379,0,0,1,410.362,56.6h188.7a17.378,17.378,0,0,1,17.356,17.363v27.87H393.006Zm222.674,0a16.644,16.644,0,0,0-16.622-16.629h-188.7A16.644,16.644,0,0,0,393.74,73.958v27.135H615.68Z" transform="translate(-0.156)" fill="#672376"/>
        <path id="Path_8159" data-name="Path 8159" d="M584.378,79.21a9.314,9.314,0,1,0,9.313-9.317,9.315,9.315,0,0,0-9.313,9.317" transform="translate(-0.232)" fill="#ce5fb2"/>
        <path id="Path_8160" data-name="Path 8160" d="M556.933,100.866a9.314,9.314,0,1,0,9.313-9.317,9.315,9.315,0,0,0-9.313,9.317" transform="translate(-0.221)" fill="#fff"/>
        <path id="Path_8161" data-name="Path 8161" d="M556.565,79.211a9.681,9.681,0,1,1,9.681,9.686,9.683,9.683,0,0,1-9.681-9.686m.734,0a8.947,8.947,0,1,0,8.947-8.951,8.949,8.949,0,0,0-8.947,8.951" transform="translate(-0.221)" fill="#672376"/>
        <path id="Path_8162" data-name="Path 8162" d="M495.319,88.1H532.4a8.9,8.9,0,0,0,0-17.791H495.319a8.9,8.9,0,0,0,0,17.791" transform="translate(-0.193)" fill="#fff"/>
        <path id="Path_8163" data-name="Path 8163" d="M486.061,79.211a9.271,9.271,0,0,1,9.258-9.261H532.4a9.261,9.261,0,0,1,.009,18.521H495.319a9.271,9.271,0,0,1-9.258-9.261m9.258-8.526a8.527,8.527,0,0,0,0,17.053H532.4a8.527,8.527,0,0,0,0-17.053Z" transform="translate(-0.193)" fill="#672376"/>
        <path id="Path_8164" data-name="Path 8164" d="M419.608,36.4c14.87,13.018,40.519,4.046,48.488,14.445L445.324,68.882Z" transform="translate(-0.167)" fill="#672376"/>
        <path id="Path_8165" data-name="Path 8165" d="M468.108,50.841h0A8.807,8.807,0,0,1,466.5,59.73L450.361,78.222l-5.027-9.34Z" transform="translate(-0.177)" fill="#ce5fb2"/>
        <path id="Path_8166" data-name="Path 8166" d="M385.889,63.1c9.262,17.465-5.35,40.384,2.941,50.528L411.6,95.582Z" transform="translate(-0.153)" fill="#672376"/>
        <path id="Path_8167" data-name="Path 8167" d="M388.832,113.625h0a8.8,8.8,0,0,0,9.017.471l21.687-11.476L411.6,95.584Z" transform="translate(-0.154)" fill="#ce5fb2"/>
        <path id="Path_8168" data-name="Path 8168" d="M374.313,14.011l20.278,7.447-17.675,14Z" transform="translate(-0.149)" fill="#390a44"/>
        <path id="Path_8169" data-name="Path 8169" d="M376.914,35.462c2.832,32.1,26.538,62.05,55.331,78.68l26.242-20.763C447.478,58.727,426.974,33.932,394.6,21.457Z" transform="translate(-0.15)" fill="#dd94c6"/>
        <path id="Path_8170" data-name="Path 8170" d="M458.5,93.379l11.385,7.883L437.338,127.05l-5.065-12.909Z" transform="translate(-0.172)" fill="#672376"/>
        <path id="Path_8171" data-name="Path 8171" d="M392.662,56.806a12.179,12.179,0,1,0,1.988-17.113h0a12.186,12.186,0,0,0-1.986,17.113" transform="translate(-0.155)" fill="#fff"/>
        <path id="Path_8172" data-name="Path 8172" d="M399.062,57.336l.266-.684a8,8,0,0,0,2.039.495l-.077.73a8.778,8.778,0,0,1-2.228-.543m4.405-.243a7.9,7.9,0,0,0,2.01-.6l.3.67a8.6,8.6,0,0,1-2.2.657Zm-8.061-2.459.576-.457a8.03,8.03,0,0,0,1.507,1.462l-.434.59a8.7,8.7,0,0,1-1.647-1.6m11.852.746a7.873,7.873,0,0,0,1.432-1.535l.6.426a8.735,8.735,0,0,1-1.564,1.677Zm-13.529-4.285.717-.156a7.955,7.955,0,0,0,.715,1.973l-.651.34a8.662,8.662,0,0,1-.78-2.157m15.941.893a8.009,8.009,0,0,0,.458-2.049l.732.064a8.767,8.767,0,0,1-.5,2.238Zm-16.127-3.179a8.8,8.8,0,0,1,.415-2.256l.7.227a8.085,8.085,0,0,0-.382,2.061Zm15.842-2.965.662-.316a8.579,8.579,0,0,1,.7,2.185l-.723.129a7.9,7.9,0,0,0-.639-2m-14.444-1.357a8.691,8.691,0,0,1,1.5-1.736l.489.549a7.95,7.95,0,0,0-1.373,1.588Zm11.739-1.81.415-.606A8.638,8.638,0,0,1,408.8,43.6l-.558.477a7.93,7.93,0,0,0-1.561-1.4m-8.338-1.209a8.665,8.665,0,0,1,2.169-.741l.142.721a7.915,7.915,0,0,0-1.986.677Zm4.409-.152.052-.733a8.75,8.75,0,0,1,2.246.457l-.24.695a7.976,7.976,0,0,0-2.06-.419" transform="translate(-0.156)" fill="#9192ff"/>
        <path id="Path_8173" data-name="Path 8173" d="M462.523,125.415h0a2.356,2.356,0,0,0,.383-3.3L440.528,93.849a2.345,2.345,0,0,0-3.677,2.912l22.375,28.27a2.352,2.352,0,0,0,3.3.383" transform="translate(-0.173)" fill="#390a44"/>
        <path id="Path_8174" data-name="Path 8174" d="M213.14,237.806h-6.432v-1.072h6.432Zm-12.863,0h-6.432v-1.072h6.428Zm-12.865,0H180.98v-1.072h6.432Zm-12.863,0h-6.432v-1.072h6.432Zm-12.863,0h-6.432v-1.072h6.429Zm-12.863,0h-6.432v-1.072h6.432Zm-12.863,0h-6.432v-1.072h6.432Zm-12.864,0h-6.432v-1.072h6.428Zm-12.864,0H103.8v-1.072h6.432Zm-12.863,0H90.937v-1.072H97.37Zm-12.868,0a20.446,20.446,0,0,1-6.48-1.106l.343-1.013a19.47,19.47,0,0,0,6.144,1.047Zm129.415-.013-.04-1.072a19.434,19.434,0,0,0,6.11-1.221l.377,1a20.5,20.5,0,0,1-6.447,1.291m-141.7-4.2a20.664,20.664,0,0,1-4.523-4.77l.886-.606a19.555,19.555,0,0,0,4.289,4.525Zm153.846-.36-.675-.834a19.547,19.547,0,0,0,4.159-4.643l.9.58a20.648,20.648,0,0,1-4.387,4.9M64.908,222.868a20.557,20.557,0,0,1-.781-5.632v-.877H65.2v.877a19.546,19.546,0,0,0,.739,5.338ZM233.07,222.3l-1.039-.263a19.562,19.562,0,0,0,.6-4.8V215.79H233.7v1.447a20.615,20.615,0,0,1-.629,5.067M65.2,209.924H64.126v-6.435H65.2Zm168.5-.573h-1.072v-6.435H233.7Zm-168.5-12.3H64.127v-6.435H65.2Zm168.5-.572h-1.072v-6.427H233.7ZM65.2,184.187H64.127v-6.435H65.2Zm168.5-.573h-1.072v-6.435H233.7Zm-168.5-12.3H64.127v-6.435H65.2Zm168.5-.572h-1.072v-6.435H233.7Zm-168.5-12.3H64.127v-6.435H65.2Zm168.5-.573h-1.072v-6.435H233.7ZM65.2,145.58H64.127v-4.286a20.731,20.731,0,0,1,.114-2.2l1.067.115a19.907,19.907,0,0,0-.115,2.086Zm168.5-.573h-1.072V141.29a20.023,20.023,0,0,0-.176-2.635l1.061-.142a20.679,20.679,0,0,1,.187,2.779ZM66.954,133.2l-.975-.445a20.572,20.572,0,0,1,3.657-5.468l.786.731a19.475,19.475,0,0,0-3.467,5.182m163.682-.5a19.563,19.563,0,0,0-3.611-5.083l.764-.751a20.563,20.563,0,0,1,3.807,5.361Zm-155.3-8.514-.515-.94a20.388,20.388,0,0,1,6.2-2.192l.19,1.055a19.344,19.344,0,0,0-5.876,2.077M222,123.924a19.336,19.336,0,0,0-5.926-1.906l.158-1.061a20.434,20.434,0,0,1,6.26,2.014ZM209.73,121.8H203.3v-1.072h6.432Zm-12.863,0h-6.43v-1.072h6.431ZM184,121.8h-6.432v-1.072H184Zm-12.864,0h-6.432v-1.072h6.432Zm-12.863,0h-6.432v-1.072h6.432Zm-12.863,0h-6.432v-1.072h6.432Zm-12.864,0h-6.432v-1.072h6.432Zm-12.863,0h-6.432v-1.072h6.432Zm-12.863,0h-6.432v-1.072h6.432Zm-12.864,0H87.526v-1.072h6.432Z" transform="translate(-0.025)" fill="#d85252"/>
        <path id="Path_8175" data-name="Path 8175" d="M204.483,219.218H61.473a12.748,12.748,0,0,1-12.745-12.751v-93.7a12.747,12.747,0,0,1,12.741-12.756H204.483a12.749,12.749,0,0,1,12.746,12.751v93.7a12.749,12.749,0,0,1-12.746,12.751" transform="translate(-0.019)" fill="#ff9b99"/>
        <rect id="Rectangle_1470" data-name="Rectangle 1470" width="18.244" height="37.067" transform="translate(78.006 169.645)" fill="#fff"/>
        <rect id="Rectangle_1471" data-name="Rectangle 1471" width="18.245" height="35.877" transform="translate(108.559 170.834)" fill="#fff"/>
        <rect id="Rectangle_1472" data-name="Rectangle 1472" width="18.244" height="54.618" transform="translate(139.114 152.093)" fill="#fff"/>
        <rect id="Rectangle_1473" data-name="Rectangle 1473" width="18.244" height="70.642" transform="translate(169.668 136.07)" fill="#fff"/>
        <rect id="Rectangle_1474" data-name="Rectangle 1474" width="97.896" height="4.282" transform="translate(84.012 116.802)" fill="#fff"/>
        <path id="Path_8176" data-name="Path 8176" d="M165.837,283.448a2.758,2.758,0,0,1-2.018-.871c-3.064-3.145-1.7-14.479-1.528-15.761a.716.716,0,0,1,1.338-.249c.659,1.215,6.382,11.977,4.481,15.586a2.376,2.376,0,0,1-1.956,1.28,3.046,3.046,0,0,1-.317.016m-2.369-14.065c-.322,4.069-.4,10.373,1.376,12.2a1.334,1.334,0,0,0,1.163.431.963.963,0,0,0,.84-.524c.991-1.879-1.243-7.73-3.378-12.1" transform="translate(-0.064)" fill="#f7b369"/>
        <path id="Path_8177" data-name="Path 8177" d="M214.609,260.427s5.277-11.2,12.768-15.172,15.71-5.778,13.346-1.287-8.462,11.333-8.462,11.333l12.1-.5a101.166,101.166,0,0,1,13.951-2.044c5.733-.238,6.551,4.12,6.551,4.12s5.733-.238,7.734,1.874-.425,5.142-.425,5.142,7.733,1.875,3.489,7.176-21.837,11.888-30.056,13.694-25.507.327-25.507.327-15.808-.054-5.49-24.662" transform="translate(-0.084)" fill="#f48462"/>
        <path id="Path_8178" data-name="Path 8178" d="M214.609,260.427s5.277-11.2,12.768-15.172,15.71-5.778,13.346-1.287-8.462,11.333-8.462,11.333l12.1-.5a101.166,101.166,0,0,1,13.951-2.044c5.733-.238,6.551,4.12,6.551,4.12s5.733-.238,7.734,1.874-.425,5.142-.425,5.142,7.733,1.875,3.489,7.176-21.837,11.888-30.056,13.694-25.507.327-25.507.327S204.291,285.035,214.609,260.427Z" transform="translate(-0.084)" fill="none" stroke="#000" stroke-width="2"/>
        <path id="Path_8179" data-name="Path 8179" d="M255.967,272.377a.7.7,0,0,1-.467-.174l-17.455-15.037a.715.715,0,0,1,.934-1.084l17.455,15.037a.715.715,0,0,1-.467,1.258" transform="translate(-0.094)"/>
        <path id="Path_8180" data-name="Path 8180" d="M87.035,186.038s-27.272-7.7-39,19.214-2.409,100.994-2.409,100.994l60.6-11.69L98.754,234.87Z" transform="translate(-0.017)"/>
        <path id="Path_8181" data-name="Path 8181" d="M87.035,186.038s-27.272-7.7-39,19.214-2.409,100.994-2.409,100.994l60.6-11.69L98.754,234.87Z" transform="translate(-0.017)" fill="none" stroke="#000" stroke-width="2"/>
        <path id="Path_8182" data-name="Path 8182" d="M230.145,296.529l-18.316-39.713s-30.918,10.7-53.74,9.3c-22.691-1.386-46.593-9.288-52.812-11.463-5.586-2.72-10.911-4.415-14.27-4.67-8.047-.608-16.878-.554-16.878-.554s-21.721,5.714-34.14,16.781C24.649,277.224.036,300.744,4.2,336.3c5.45,46.449,58.99,44.652,86.63,39.771,20.519-.333,43.308-1.491,43.308-1.491S136.775,343.7,137.6,326.1c37.023,15.07,92.546-29.574,92.546-29.574" transform="translate(-0.001)" fill="#a62973"/>
        <path id="Path_8183" data-name="Path 8183" d="M230.145,296.529l-18.316-39.713s-30.918,10.7-53.74,9.3c-22.691-1.386-46.593-9.288-52.812-11.463-5.586-2.72-10.911-4.415-14.27-4.67-8.047-.608-16.878-.554-16.878-.554s-21.721,5.714-34.14,16.781C24.649,277.224.036,300.744,4.2,336.3c5.45,46.449,58.99,44.652,86.63,39.771,20.519-.333,43.308-1.491,43.308-1.491S136.775,343.7,137.6,326.1C174.62,341.173,230.145,296.529,230.145,296.529Z" transform="translate(-0.001)" fill="none" stroke="#000" stroke-width="2"/>
        <path id="Path_8184" data-name="Path 8184" d="M68.473,234.775,68.9,254.04s3.6,5.46,14.878,6.127c8.407.5,11.312-1.466,11.312-1.466l-1.385-9.729-1.363-9.487L71.9,235.454Z" transform="translate(-0.027)" fill="#f48462"/>
        <path id="Path_8185" data-name="Path 8185" d="M68.473,234.775,68.9,254.04s3.6,5.46,14.878,6.127c8.407.5,11.312-1.466,11.312-1.466l-1.385-9.729-1.363-9.487L71.9,235.454Z" transform="translate(-0.027)" fill="none" stroke="#000" stroke-width="2"/>
        <path id="Path_8186" data-name="Path 8186" d="M71.9,235.454a6.333,6.333,0,0,0,.6,1.846c4.521,9.526,16.346,11.34,21.2,11.668l-1.363-9.487Z" transform="translate(-0.029)"/>
        <path id="Path_8187" data-name="Path 8187" d="M95.657,195.483s10.638,23.926,6.951,37.436-15.979,11.465-23.342,8.907a24.311,24.311,0,0,1-10.8-7.042A10.354,10.354,0,0,1,56.99,230.8c-4.632-6.353-1.854-13.7,2.052-15.408s8.586,1.094,8.586,1.094l-3.7-6.949S79.06,174,95.661,195.483" transform="translate(-0.022)" fill="#f48462"/>
        <path id="Path_8188" data-name="Path 8188" d="M95.657,195.483s10.638,23.926,6.951,37.436-15.979,11.465-23.342,8.907a24.311,24.311,0,0,1-10.8-7.042A10.354,10.354,0,0,1,56.99,230.8c-4.632-6.353-1.854-13.7,2.052-15.408s8.586,1.094,8.586,1.094l-3.7-6.949S79.056,174,95.657,195.483Z" transform="translate(-0.022)" fill="none" stroke="#000" stroke-width="2"/>
        <path id="Path_8189" data-name="Path 8189" d="M67.628,216.485s10.308,2.113,17.508-9.348,6.555-16.179,6.555-16.179l7.1,11.876s1.62-8.215-1.65-13.465S90.46,185.2,90.46,185.2L67.7,190.811,61.657,209.03Z" transform="translate(-0.024)"/>
        <path id="Path_8190" data-name="Path 8190" d="M67.628,216.485s10.308,2.113,17.508-9.348,6.555-16.179,6.555-16.179l7.1,11.876s1.62-8.215-1.65-13.465S90.46,185.2,90.46,185.2L67.7,190.811,61.657,209.03Z" transform="translate(-0.024)" fill="none" stroke="#000" stroke-width="2"/>
        <path id="Path_8191" data-name="Path 8191" d="M53.2,329.78a.764.764,0,0,1-.083-.005c-5.179-.6-22.125-2.853-22.752-6.524-.244-1.431,1.469-2.268,2.032-2.543,9.172-4.479,20.824,7.352,21.316,7.859a.715.715,0,0,1-.513,1.214m-16.33-8.642a8.644,8.644,0,0,0-3.845.857c-1.079.526-1.268.911-1.251,1.016.283,1.662,9.864,3.83,19.318,5.073-2.762-2.417-8.677-6.945-14.223-6.945" transform="translate(-0.012)"/>
        <path id="Path_8192" data-name="Path 8192" d="M98.228,203.594a.685.685,0,0,1-.169-.021l-2.217-.538a.715.715,0,1,1,.337-1.39l2.216.538a.715.715,0,0,1-.167,1.411" transform="translate(-0.038)"/>
        <path id="Path_8193" data-name="Path 8193" d="M84.933,205.76a.715.715,0,0,1-.277-1.375l5.154-2.166a.715.715,0,0,1,.553,1.319L85.209,205.7a.713.713,0,0,1-.277.056" transform="translate(-0.033)"/>
        <path id="Path_8194" data-name="Path 8194" d="M95.621,224.412A.716.716,0,0,1,95.1,223.2c3.336-3.478-.831-9.812-.874-9.876a.716.716,0,1,1,1.189-.8c.2.3,4.848,7.355.718,11.663a.713.713,0,0,1-.516.22" transform="translate(-0.037)"/>
        <path id="Path_8195" data-name="Path 8195" d="M67.707,227.51a.711.711,0,0,1-.468-.174L59.1,220.3a.716.716,0,0,1,.936-1.083l8.136,7.04a.715.715,0,0,1-.468,1.256" transform="translate(-0.023)"/>
        <path id="Path_8196" data-name="Path 8196" d="M59.015,227.826a.715.715,0,0,1-.3-1.365l5.906-2.726a.716.716,0,0,1,.6,1.3l-5.906,2.726a.705.705,0,0,1-.3.066" transform="translate(-0.023)"/>
        <path id="Path_8197" data-name="Path 8197" d="M68.273,251.422s-2.278.233-2.548,1.663,8.569,25.815,15.464,28S93.476,261.731,93.8,262.1s12.688,9.551,14.015,9.258-4.4-10.872-8-15.026a35.546,35.546,0,0,0-5.879-5.705s.431,5.036.4,6.113-4.307,3.457-11.9,2.231c-10.848-1.753-14.166-7.549-14.166-7.549" transform="translate(-0.026)" fill="#ea5455"/>
        <path id="Path_8198" data-name="Path 8198" d="M68.273,251.422s-2.278.233-2.548,1.663,8.569,25.815,15.464,28S93.476,261.731,93.8,262.1s12.688,9.551,14.015,9.258-4.4-10.872-8-15.026a35.546,35.546,0,0,0-5.879-5.705s.431,5.036.4,6.113-4.307,3.457-11.9,2.231C71.588,257.217,68.273,251.422,68.273,251.422Z" transform="translate(-0.026)" fill="none" stroke="#000" stroke-width="2"/>
        <path id="Path_8199" data-name="Path 8199" d="M86.157,216.142a.716.716,0,0,1-.712-.647l-.47-4.9a.713.713,0,0,1,.266-.629l2.8-2.219a.715.715,0,0,1,.889,1.121l-2.493,1.977.433,4.509a.715.715,0,0,1-.639.782h-.072" transform="translate(-0.034)"/>
        <path id="Path_8200" data-name="Path 8200" d="M98.988,214.68a.715.715,0,0,1-.71-.647l-.472-4.9a.718.718,0,0,1,.25-.615l2.127-1.8a.716.716,0,0,1,.924,1.094l-1.841,1.554.435,4.523a.716.716,0,0,1-.643.781h-.07" transform="translate(-0.039)"/>
        <path id="Path_8201" data-name="Path 8201" d="M136.245,322.232h-.079a.716.716,0,0,1-.634-.79c3.53-32.178-10.752-42.207-10.9-42.3a.717.717,0,0,1,.8-1.19c.62.414,15.156,10.525,11.524,43.65a.716.716,0,0,1-.71.637" transform="translate(-0.049)"/>
        <path id="Path_8202" data-name="Path 8202" d="M86.654,332.433H86.6l-33.445-2.654a.716.716,0,0,1-.657-.77.7.7,0,0,1,.739-.658l.031,0,33.447,2.654a.715.715,0,0,1-.056,1.428" transform="translate(-0.021)"/>
        <path id="Path_8203" data-name="Path 8203" d="M88.993,233.857a4.453,4.453,0,0,1-1.335-.21c-3.466-1.088-3.442-5.2-3.439-5.378a.717.717,0,0,1,.293-.567.726.726,0,0,1,.629-.107l7.977,2.419a.716.716,0,0,1,.4,1.069c-.083.13-1.8,2.774-4.52,2.774m-3.245-4.582a3.643,3.643,0,0,0,2.338,3.006,3.551,3.551,0,0,0,3.6-1.2Z" transform="translate(-0.033)"/>
        <path id="Path_8204" data-name="Path 8204" d="M215.964,270.209a.716.716,0,0,1-.026-1.431c6.349-.224,10.754-1.868,13.095-4.884a8.943,8.943,0,0,0,1.688-6.823.716.716,0,1,1,1.4-.308,10.311,10.311,0,0,1-1.954,8.007c-2.609,3.367-7.377,5.2-14.169,5.438h-.026" transform="translate(-0.085)"/>
        <path id="Path_8205" data-name="Path 8205" d="M222.926,300.861l-22.456-40.19a1.4,1.4,0,0,1,.539-1.9l10.381-5.8a1.4,1.4,0,0,1,1.9.539L235.745,293.7a1.4,1.4,0,0,1-.539,1.9l-10.382,5.8a1.4,1.4,0,0,1-1.9-.539" transform="translate(-0.08)" fill="#ea5455"/>
        <path id="Path_8206" data-name="Path 8206" d="M222.926,300.861l-22.456-40.19a1.4,1.4,0,0,1,.539-1.9l10.381-5.8a1.4,1.4,0,0,1,1.9.539L235.745,293.7a1.4,1.4,0,0,1-.539,1.9l-10.382,5.8A1.4,1.4,0,0,1,222.926,300.861Z" transform="translate(-0.08)" fill="none" stroke="#000" stroke-width="2"/>
        <path id="Path_8207" data-name="Path 8207" d="M300.439,252.325s2.794.7,3.46,1.743.485,5.192.485,5.192,28.543,2.756,57.364,35.353c29.159,32.979,32.926,52.709,23.291,67.089-12.733,18.995-56.556,13.867-56.556,13.867s-10.563,1.552-48.167.977c-34.742-.531-54.12-.977-54.12-.977S166.353,390,171.117,350.359c6.323-52.572,69.372-86.3,81.568-91.1a66.06,66.06,0,0,1,21.062-4.444s.548-2.023,1.149-2.372c3.213-1.867,25.545-.119,25.545-.119" transform="translate(-0.068)" fill="#672376"/>
        <path id="Path_8208" data-name="Path 8208" d="M300.439,252.325s2.794.7,3.46,1.743.485,5.192.485,5.192,28.543,2.756,57.364,35.353c29.159,32.979,32.926,52.709,23.291,67.089-12.733,18.995-56.556,13.867-56.556,13.867s-10.563,1.552-48.167.977c-34.742-.531-54.12-.977-54.12-.977S166.353,390,171.117,350.359c6.323-52.572,69.372-86.3,81.568-91.1a66.06,66.06,0,0,1,21.062-4.444s.548-2.023,1.149-2.372C278.105,250.578,300.439,252.325,300.439,252.325Z" transform="translate(-0.068)" fill="none" stroke="#000" stroke-width="2"/>
        <path id="Path_8209" data-name="Path 8209" d="M619.282,191.013s27.689,30.893,21.88,66.135c-5.244,31.822-52.144,17.99-52.144,17.99L566.6,269.82s-7.751-18.715,3.611-36.744,49.073-42.063,49.073-42.063" transform="translate(-0.224)"/>
        <path id="Path_8210" data-name="Path 8210" d="M619.282,191.013s27.689,30.893,21.88,66.135c-5.244,31.822-52.144,17.99-52.144,17.99L566.6,269.82s-7.751-18.715,3.611-36.744S619.282,191.013,619.282,191.013Z" transform="translate(-0.224)" fill="none" stroke="#000" stroke-width="2"/>
        <path id="Path_8211" data-name="Path 8211" d="M300.457,216.309s13.028-5.564,14.041,4.529c1.176,11.692-12.795,11.8-12.795,11.8Z" transform="translate(-0.119)" fill="#f48462"/>
        <path id="Path_8212" data-name="Path 8212" d="M306.948,226.783a.7.7,0,0,1-.36-.1.716.716,0,0,1-.258-.978l4.348-7.455a.716.716,0,0,1,1.236.721l-4.347,7.455a.718.718,0,0,1-.62.355" transform="translate(-0.122)"/>
        <path id="Path_8213" data-name="Path 8213" d="M363.854,271.634s15.594-28.061,18.613-26.639-37.406,62.372-39.216,61.5,20.6-34.862,20.6-34.862" transform="translate(-0.136)" fill="#465884"/>
        <path id="Path_8214" data-name="Path 8214" d="M312.005,224.547l-3.729-.063a.714.714,0,0,1-.7-.727.706.706,0,0,1,.712-.7h.015l3.717.063a.716.716,0,0,1-.012,1.431" transform="translate(-0.122)"/>
        <path id="Path_8215" data-name="Path 8215" d="M276.961,244.108l-.11,13.685a28.813,28.813,0,0,0,11.883,2.958c8.912.152,11.92-5.138,11.92-5.138l-.067-16.044Z" transform="translate(-0.11)" fill="#f48462"/>
        <path id="Path_8216" data-name="Path 8216" d="M276.961,244.108l-.11,13.685a28.813,28.813,0,0,0,11.883,2.958c8.912.152,11.92-5.138,11.92-5.138l-.067-16.044Z" transform="translate(-0.11)" fill="none" stroke="#000" stroke-width="2"/>
        <path id="Path_8217" data-name="Path 8217" d="M276.961,244.088s4.271,11.078,14.389,9.565c8.156-1.219,10.487-12.788,10.487-12.788Z" transform="translate(-0.11)"/>
        <path id="Path_8218" data-name="Path 8218" d="M304.582,205.115s5.714,25.048-1.457,36.141c-7.692,11.9-20.077,8.345-24.712,4.779a20.931,20.931,0,0,1-7.533-11.482s-8.6,1.712-11.461-5.3c-3.01-7.366,2.342-13.309,6.641-13.66s4.8.432,4.8.432l-1.262-7.866s26.136-29.061,34.986-3.044" transform="translate(-0.103)" fill="#f48462"/>
        <path id="Path_8219" data-name="Path 8219" d="M304.582,205.115s5.714,25.048-1.457,36.141c-7.692,11.9-20.077,8.345-24.712,4.779a20.931,20.931,0,0,1-7.533-11.482s-8.6,1.712-11.461-5.3c-3.01-7.366,2.342-13.309,6.641-13.66s4.8.432,4.8.432l-1.262-7.866S295.733,179.1,304.582,205.115Z" transform="translate(-0.103)" fill="none" stroke="#000" stroke-width="2"/>
        <path id="Path_8220" data-name="Path 8220" d="M269.451,227.318a.717.717,0,0,1-.466-.172l-6.633-5.691a.715.715,0,0,1,.932-1.086l6.633,5.691a.715.715,0,0,1-.466,1.258" transform="translate(-0.104)"/>
        <path id="Path_8221" data-name="Path 8221" d="M263.329,228.366a.715.715,0,0,1-.431-1.287l3.914-2.945a.715.715,0,0,1,.861,1.143l-3.914,2.945a.711.711,0,0,1-.43.144" transform="translate(-0.104)"/>
        <path id="Path_8222" data-name="Path 8222" d="M282.389,220.4a.714.714,0,0,1-.712-.673l-.247-4.214a.715.715,0,0,1,.672-.756h0a.722.722,0,0,1,.755.672l.246,4.214a.715.715,0,0,1-.672.756h-.043" transform="translate(-0.112)"/>
        <path id="Path_8223" data-name="Path 8223" d="M298.52,219.514a.714.714,0,0,1-.713-.673l-.246-4.214a.715.715,0,0,1,.672-.756.737.737,0,0,1,.756.673l.247,4.214a.715.715,0,0,1-.67.757h-.045" transform="translate(-0.118)"/>
        <path id="Path_8224" data-name="Path 8224" d="M291.076,230.693a.728.728,0,0,1-.14-.013.716.716,0,0,1-.563-.84,22.278,22.278,0,0,0-.819-11.427.715.715,0,1,1,1.326-.534,23.408,23.408,0,0,1,.9,12.237.715.715,0,0,1-.7.577" transform="translate(-0.115)"/>
        <path id="Path_8225" data-name="Path 8225" d="M300.641,210.4a.7.7,0,0,1-.4-.124,6.817,6.817,0,0,0-4.089-.706.715.715,0,0,1-.191-1.417c.123-.018,3.106-.4,5.082.94a.715.715,0,0,1-.4,1.307" transform="translate(-0.117)"/>
        <path id="Path_8226" data-name="Path 8226" d="M280.124,212.892a.716.716,0,0,1-.566-1.154c1.464-1.888,4.417-2.446,4.542-2.469a.716.716,0,0,1,.258,1.408,7,7,0,0,0-3.669,1.938.716.716,0,0,1-.566.277" transform="translate(-0.111)"/>
        <path id="Path_8227" data-name="Path 8227" d="M623.539,258.888c-5.393-5.921-36.186-12.155-57.1-1.068a14.755,14.755,0,0,0-3,1.757q-1.081.7-2.115,1.467a15.011,15.011,0,0,0-2.663,2.626c-11.979,11.462-29.67,35.361-38.76,43.032-11.442,9.654-30.651,23.283-30.651,23.283s-11.163,16.692,11.721,29.8c17.273,9.892,39.154-1.24,48.848-7.293,2.357,16.767,9.373,8.56,9.373,8.56l3.245,14.731.228,6.821s97.491,12.947,102.74-31.414c7.575-64.037-41.864-92.3-41.864-92.3" transform="translate(-0.193)" fill="#fb847d"/>
        <path id="Path_8228" data-name="Path 8228" d="M623.539,258.888c-5.393-5.921-36.186-12.155-57.1-1.068a14.755,14.755,0,0,0-3,1.757q-1.081.7-2.115,1.467a15.011,15.011,0,0,0-2.663,2.626c-11.979,11.462-29.67,35.361-38.76,43.032-11.442,9.654-30.651,23.283-30.651,23.283s-11.163,16.692,11.721,29.8c17.273,9.892,39.154-1.24,48.848-7.293,2.357,16.767,9.373,8.56,9.373,8.56l3.245,14.731.228,6.821s97.491,12.947,102.74-31.414C672.978,287.153,623.539,258.888,623.539,258.888Z" transform="translate(-0.193)" fill="none" stroke="#000" stroke-width="2"/>
        <path id="Path_8229" data-name="Path 8229" d="M268.881,216.066s2.7,7.724,3.7,7.408-.684-12.5-3.593-12.988-.11,5.58-.11,5.58" transform="translate(-0.106)"/>
        <path id="Path_8230" data-name="Path 8230" d="M270.1,214.922s8.618-1.153,14.194-5.928a22.331,22.331,0,0,0,6.34-9.539s3.7-.661,9.162,2.342,6.378,13.062,6.378,13.062,8.956-17.566,3.991-23.379-12.358-.416-12.358-.416.8-11.235-14.437-6.151a27.21,27.21,0,0,0-18.112,18.6s-5.3-.2-5.711,4.718a22.366,22.366,0,0,0,1.824,9.793,5.724,5.724,0,0,1,5.779-1.16L270.747,218Z" transform="translate(-0.103)"/>
        <path id="Path_8231" data-name="Path 8231" d="M270.1,214.922s8.618-1.153,14.194-5.928a22.331,22.331,0,0,0,6.34-9.539s3.7-.661,9.162,2.342,6.378,13.062,6.378,13.062,8.956-17.566,3.991-23.379-12.358-.416-12.358-.416.8-11.235-14.437-6.151a27.21,27.21,0,0,0-18.112,18.6s-5.3-.2-5.711,4.718a22.366,22.366,0,0,0,1.824,9.793,5.724,5.724,0,0,1,5.779-1.16L270.747,218Z" transform="translate(-0.103)" fill="none" stroke="#000" stroke-width="2"/>
        <path id="Path_8232" data-name="Path 8232" d="M301.951,251.948s-3.187,3.181-11.159,4.1-15.5-4.061-15.5-4.061l-4.377,8.723L284.27,266.3l21.184-3.555-.779-8.347Z" transform="translate(-0.108)" fill="#a62973"/>
        <path id="Path_8233" data-name="Path 8233" d="M301.951,251.948s-3.187,3.181-11.159,4.1-15.5-4.061-15.5-4.061l-4.377,8.723L284.27,266.3l21.184-3.555-.779-8.347Z" transform="translate(-0.108)" fill="none" stroke="#000" stroke-width="2"/>
        <path id="Path_8234" data-name="Path 8234" d="M247.1,327.593a.7.7,0,0,1-.271-.054c-.284-.115-28.557-11.435-51.849-1.19a.715.715,0,0,1-.575-1.31c23.854-10.493,52.679,1.056,52.966,1.175a.716.716,0,0,1-.271,1.378" transform="translate(-0.077)"/>
        <path id="Path_8235" data-name="Path 8235" d="M225.033,322.017a.712.712,0,0,1-.2-.029c-3.853-1.138-16.458-5.114-16.884-8.489a1.886,1.886,0,0,1,1.124-1.9c5.367-3.215,15.379,7.945,16.5,9.228a.716.716,0,0,1-.537,1.187m-13.732-9.57a2.878,2.878,0,0,0-1.5.382c-.174.1-.461.3-.438.489.187,1.484,6.637,4.334,13.295,6.5-3.1-3.128-8.068-7.369-11.363-7.369" transform="translate(-0.083)"/>
        <path id="Path_8236" data-name="Path 8236" d="M379.325,275.991c-3.43-6.145-26.131-10.776-29.125-4.127-1.308,2.906,2.3,5.317,6.782,7.111-4.329-.061-7.924.868-9,3.247-1.214,2.7,1.805,4.964,5.823,6.711-4.428-.082-8.227.846-9.177,3.239-.628,1.579.321,2.927,2.053,4.058.032,5.218,1.594,14,11.814,13.6,10.74-.414,13.946-11.874,14.889-17.792,2.907-.849,5.508-2.5,3.725-5.693-.806-1.445-2.684-2.8-5.113-3.953,3.458-.423,9.878-1.835,7.326-6.4" transform="translate(-0.137)" fill="#f48462"/>
        <path id="Path_8237" data-name="Path 8237" d="M379.325,275.991c-3.43-6.145-26.131-10.776-29.125-4.127-1.308,2.906,2.3,5.317,6.782,7.111-4.329-.061-7.924.868-9,3.247-1.214,2.7,1.805,4.964,5.823,6.711-4.428-.082-8.227.846-9.177,3.239-.628,1.579.321,2.927,2.053,4.058.032,5.218,1.594,14,11.814,13.6,10.74-.414,13.946-11.874,14.889-17.792,2.907-.849,5.508-2.5,3.725-5.693-.806-1.445-2.684-2.8-5.113-3.953C375.456,281.973,381.876,280.561,379.325,275.991Z" transform="translate(-0.137)" fill="none" stroke="#000" stroke-width="2"/>
        <path id="Path_8238" data-name="Path 8238" d="M373.363,283.154a1.055,1.055,0,0,1-.111-.015l-17.279-3.647a.716.716,0,0,1,.275-1.4l.025.005,17.279,3.647a.716.716,0,0,1-.185,1.415" transform="translate(-0.141)"/>
        <path id="Path_8239" data-name="Path 8239" d="M371.24,292.458a.7.7,0,0,1-.112-.009l-17.448-2.724a.716.716,0,0,1,.173-1.422l.048.008,17.454,2.719a.716.716,0,0,1-.11,1.423" transform="translate(-0.14)"/>
        <path id="Path_8240" data-name="Path 8240" d="M288.2,237.991c-1.483,0-3.8-.59-5.452-3.8a.716.716,0,0,1,1.272-.655c2.01,3.914,5.023,2.949,5.149,2.9a.716.716,0,0,1,.472,1.351,4.85,4.85,0,0,1-1.441.2" transform="translate(-0.112)"/>
        <path id="Path_8241" data-name="Path 8241" d="M574.147,213.834s-5.193-12.11-4.2-17.425S592,175.461,609.639,183.95s18.553,31.841,14.435,41.445c-10.6,24.731-31.873,13.033-31.873,13.033s-33.992-10.814-18.053-24.594" transform="translate(-0.226)"/>
        <path id="Path_8242" data-name="Path 8242" d="M574.147,213.834s-5.193-12.11-4.2-17.425S592,175.461,609.639,183.95s18.553,31.841,14.435,41.445c-10.6,24.731-31.873,13.033-31.873,13.033S558.21,227.614,574.147,213.834Z" transform="translate(-0.226)" fill="none" stroke="#000" stroke-width="2"/>
        <path id="Path_8243" data-name="Path 8243" d="M576.89,241.986l-.023.481-.083,9.1-.093,7.129s-.7,1.622,7.611,1.53c11.136-.166,14.968-4.741,14.968-4.741l1.369-16.652-3.4.461Z" transform="translate(-0.229)" fill="#f48462"/>
        <path id="Path_8244" data-name="Path 8244" d="M576.89,241.986l-.023.481-.083,9.1-.093,7.129s-.7,1.622,7.611,1.53c11.136-.166,14.968-4.741,14.968-4.741l1.369-16.652-3.4.461Z" transform="translate(-0.229)" fill="none" stroke="#000" stroke-width="2"/>
        <path id="Path_8245" data-name="Path 8245" d="M576.867,242.463l-.083,9.1c5.427-.365,15.365-2.172,19.784-10.442a6.9,6.9,0,0,0,.67-1.8l-20.33,3.007Z" transform="translate(-0.229)"/>
        <path id="Path_8246" data-name="Path 8246" d="M575.679,198.849s-11.587,23.07-8.583,36.542,15.2,12.033,22.574,9.857a23.958,23.958,0,0,0,10.965-6.434,10.208,10.208,0,0,0,11.488-3.387c4.856-6.042,2.462-13.408-1.307-15.269s-8.5.678-8.5.678l3.964-6.672s-13.251-35.7-30.6-15.315" transform="translate(-0.225)" fill="#f48462"/>
        <path id="Path_8247" data-name="Path 8247" d="M575.679,198.849s-11.587,23.07-8.583,36.542,15.2,12.033,22.574,9.857a23.958,23.958,0,0,0,10.965-6.434,10.208,10.208,0,0,0,11.488-3.387c4.856-6.042,2.462-13.408-1.307-15.269s-8.5.678-8.5.678l3.964-6.672S593.026,178.459,575.679,198.849Z" transform="translate(-0.225)" fill="none" stroke="#000" stroke-width="2"/>
        <path id="Path_8248" data-name="Path 8248" d="M602.315,220.834s-10.06-5.772-13.441-13.376-3.344-11.336-3.344-11.336-1.739,4.8-5.553,5.77a28.71,28.71,0,0,1-6.157.989l-2.724,6.812,2.338-16.438s10.444-4.965,11.807-4.9,18.421,3.959,19.367,5.042,5.739,14.705,5.739,14.705l.092,6.056Z" transform="translate(-0.227)"/>
        <path id="Path_8249" data-name="Path 8249" d="M602.315,220.834s-10.06-5.772-13.441-13.376-3.344-11.336-3.344-11.336-1.739,4.8-5.553,5.77a28.71,28.71,0,0,1-6.157.989l-2.724,6.812,2.338-16.438s10.444-4.965,11.807-4.9,18.421,3.959,19.367,5.042,5.739,14.705,5.739,14.705l.092,6.056Z" transform="translate(-0.227)" fill="none" stroke="#000" stroke-width="2"/>
        <path id="Path_8250" data-name="Path 8250" d="M574.558,349.264a51.618,51.618,0,0,1-9.644-3.24c-5.365-2.378-27.143-3.085-34.617-3.388s-26.459,7.514-24.44,10.094,19.421.622,19.421.622-14.97,11.2-13.068,13.939,7.428.368,7.428.368-4.7,3.307-.711,5.223c3.309,1.589,15.58-4.719,19.669-6.916a.337.337,0,0,1,.433.494c-2.113,2.933-7.041,10.213-4.879,11.476C536.87,379.525,549,369.96,549,369.96s12.63,11.691,21.7,5.206,11.8-12.139,11.8-12.139Z" transform="translate(-0.201)" fill="#f48462"/>
        <path id="Path_8251" data-name="Path 8251" d="M574.558,349.264a51.618,51.618,0,0,1-9.644-3.24c-5.365-2.378-27.143-3.085-34.617-3.388s-26.459,7.514-24.44,10.094,19.421.622,19.421.622-14.97,11.2-13.068,13.939,7.428.368,7.428.368-4.7,3.307-.711,5.223c3.309,1.589,15.58-4.719,19.669-6.916a.337.337,0,0,1,.433.494c-2.113,2.933-7.041,10.213-4.879,11.476C536.87,379.525,549,369.96,549,369.96s12.63,11.691,21.7,5.206,11.8-12.139,11.8-12.139Z" transform="translate(-0.201)" fill="none" stroke="#000" stroke-width="2"/>
        <path id="Path_8252" data-name="Path 8252" d="M276.961,300.126v-5.92a59.868,59.868,0,0,1,19.092-1.49,42.628,42.628,0,0,1,18.511,6.038,61.215,61.215,0,0,1,21.281-6.228c11.5-.96,18.209,0,18.209,0l-1.252,7.6L312,307.954Z" transform="translate(-0.11)" fill="#fff"/>
        <path id="Path_8253" data-name="Path 8253" d="M276.961,300.126v-5.92a59.868,59.868,0,0,1,19.092-1.49,42.628,42.628,0,0,1,18.511,6.038,61.215,61.215,0,0,1,21.281-6.228c11.5-.96,18.209,0,18.209,0l-1.252,7.6L312,307.954Z" transform="translate(-0.11)" fill="none" stroke="#000" stroke-width="2"/>
        <path id="Path_8254" data-name="Path 8254" d="M121.179,374.579h69.782a7.783,7.783,0,0,0,0-15.565H121.179a.889.889,0,0,0-.89.888h0V373.69a.889.889,0,0,0,.889.889Z" transform="translate(-0.048)" fill="#ce76ae"/>
        <path id="Path_8255" data-name="Path 8255" d="M121.179,374.579h69.782a7.783,7.783,0,0,0,0-15.565H121.179a.889.889,0,0,0-.89.888h0V373.69a.889.889,0,0,0,.889.889Z" transform="translate(-0.048)" fill="none" stroke="#000" stroke-width="2"/>
        <path id="Path_8256" data-name="Path 8256" d="M118.962,374.579h54a7.783,7.783,0,0,0,0-15.565h-54a2.215,2.215,0,0,0-2.215,2.214v11.135a2.215,2.215,0,0,0,2.213,2.216Z" transform="translate(-0.046)" fill="#9e5186"/>
        <path id="Path_8257" data-name="Path 8257" d="M118.962,374.579h54a7.783,7.783,0,0,0,0-15.565h-54a2.215,2.215,0,0,0-2.215,2.214v11.135a2.215,2.215,0,0,0,2.213,2.216Z" transform="translate(-0.046)" fill="none" stroke="#000" stroke-width="2"/>
        <path id="Path_8258" data-name="Path 8258" d="M116.746,371.573H173.2a4.941,4.941,0,0,0,0-9.882H116.746Z" transform="translate(-0.046)" fill="#fff"/>
        <path id="Path_8259" data-name="Path 8259" d="M116.746,371.573H173.2a4.941,4.941,0,0,0,0-9.882H116.746Z" transform="translate(-0.046)" fill="none" stroke="#000" stroke-width="2"/>
        <path id="Path_8260" data-name="Path 8260" d="M354.932,297.6l-11.5,78.942H264.52l11.5-78.942Z" transform="translate(-0.105)" fill="#fb847d"/>
        <path id="Path_8261" data-name="Path 8261" d="M354.932,297.6l-11.5,78.942H264.52l11.5-78.942Z" transform="translate(-0.105)" fill="none" stroke="#000" stroke-width="2"/>
        <path id="Path_8262" data-name="Path 8262" d="M317.82,297.6l-9.743,78.942h-7.656l9.743-78.942Z" transform="translate(-0.119)" fill="#d85a56"/>
        <path id="Path_8263" data-name="Path 8263" d="M317.82,297.6l-9.743,78.942h-7.656l9.743-78.942Z" transform="translate(-0.119)" fill="none" stroke="#000" stroke-width="2"/>
        <path id="Path_8264" data-name="Path 8264" d="M249.648,335.519s11.153-23.879,12.937-25.581,22.573-8.765,25.4-8.626-1.614,6.441-3.838,8.219-5.1,3.7-5.1,3.7,15.563,0,17.008,2.632-2.723,5.057-2.723,5.057,5.569.475,3.572,4.052-17.269,7.575-17.269,7.575-2.915,15.187-13.195,18.786-15.081,2.581-15.081,2.581Z" transform="translate(-0.099)" fill="#f48462"/>
        <path id="Path_8265" data-name="Path 8265" d="M249.648,335.519s11.153-23.879,12.937-25.581,22.573-8.765,25.4-8.626-1.614,6.441-3.838,8.219-5.1,3.7-5.1,3.7,15.563,0,17.008,2.632-2.723,5.057-2.723,5.057,5.569.475,3.572,4.052-17.269,7.575-17.269,7.575-2.915,15.187-13.195,18.786-15.081,2.581-15.081,2.581Z" transform="translate(-0.099)" fill="none" stroke="#000" stroke-width="2"/>
        <path id="Path_8266" data-name="Path 8266" d="M267.159,315.056a.716.716,0,0,1-.065-1.428l11.9-1.11a.716.716,0,1,1,.183,1.42l-.051.005-11.9,1.11h-.068" transform="translate(-0.106)"/>
        <path id="Path_8267" data-name="Path 8267" d="M273.85,322.99a.716.716,0,0,1-.037-1.431l11.433-.6a.743.743,0,0,1,.752.677.716.716,0,0,1-.677.753l-11.433.6h-.038" transform="translate(-0.109)"/>
        <path id="Path_8268" data-name="Path 8268" d="M523.375,322.037a2.521,2.521,0,0,1-1.18-.3c-3.441-1.794-5.16-11.826-5.345-12.964a.716.716,0,0,1,1.138-.685c.917.7,8.939,6.916,8.521,11.091a3.178,3.178,0,0,1-1.993,2.585,2.607,2.607,0,0,1-1.14.272m-4.756-11.6c.739,3.512,2.269,9.007,4.237,10.032a1.064,1.064,0,0,0,1.039.008c.985-.475,1.152-1.049,1.19-1.439.238-2.364-3.76-6.307-6.465-8.6" transform="translate(-0.205)"/>
        <path id="Path_8269" data-name="Path 8269" d="M561.355,343.329a.716.716,0,0,1-.2-1.4l54.728-15.942-.811-14.52a.714.714,0,0,1,.672-.754h0a.725.725,0,0,1,.753.674l.843,15.088a.716.716,0,0,1-.514.726L561.55,343.3a.71.71,0,0,1-.2.029" transform="translate(-0.223)"/>
        <path id="Path_8270" data-name="Path 8270" d="M551.071,339.026a.716.716,0,0,1-.714-.679l-1.21-23.052c-.45-1.05-3.188-7.985-2.452-19.668a51.011,51.011,0,0,1,7.564-22.754.716.716,0,0,1,1.19.794c-.067.1-6.567,9.989-7.327,22.05-.761,12.089,2.351,19.042,2.382,19.111a.76.76,0,0,1,.065.261l1.216,23.183a.718.718,0,0,1-.678.753h-.038" transform="translate(-0.217)"/>
        <path id="Path_8271" data-name="Path 8271" d="M631.118,333.926c-4.188,0-13.055-6.262-14.93-7.621a.715.715,0,0,1,.493-1.291c1.382.141,13.572,1.494,16.218,5.107a2.578,2.578,0,0,1,.5,2.114,1.98,1.98,0,0,1-1.253,1.521,2.857,2.857,0,0,1-1.032.169m-11.685-7.109c4.5,3.006,10.4,6.313,12.2,5.6a.558.558,0,0,0,.369-.477,1.178,1.178,0,0,0-.257-.979c-1.525-2.083-7.936-3.476-12.312-4.15" transform="translate(-0.245)"/>
        <path id="Path_8272" data-name="Path 8272" d="M520.285,367.924a.715.715,0,0,1-.408-1.3l15.727-10.9a.715.715,0,0,1,.815,1.176l-15.733,10.9a.707.707,0,0,1-.4.128" transform="translate(-0.206)"/>
        <path id="Path_8273" data-name="Path 8273" d="M525.285,354.068a.716.716,0,0,1-.364-1.332l6.948-4.091a.715.715,0,0,1,.726,1.233l-6.948,4.09a.709.709,0,0,1-.362.1" transform="translate(-0.208)"/>
        <path id="Path_8274" data-name="Path 8274" d="M422.459,371.877H512A2.6,2.6,0,0,0,514.265,368L483.62,310.226a2.6,2.6,0,0,0-2.264-1.326H391.814a2.6,2.6,0,0,0-2.266,3.876l30.645,57.774a2.6,2.6,0,0,0,2.266,1.325" transform="translate(-0.155)" fill="#672376"/>
        <path id="Path_8275" data-name="Path 8275" d="M422.459,371.877H512A2.6,2.6,0,0,0,514.265,368L483.62,310.226a2.6,2.6,0,0,0-2.264-1.326H391.814a2.6,2.6,0,0,0-2.266,3.876l30.645,57.774A2.6,2.6,0,0,0,422.459,371.877Z" transform="translate(-0.155)" fill="none" stroke="#000" stroke-width="2"/>
        <path id="Path_8276" data-name="Path 8276" d="M420.778,376.292H530.32a1.212,1.212,0,0,0,1.213-1.211v-5.944a1.213,1.213,0,0,0-1.213-1.213H420.778a1.213,1.213,0,0,0-1.213,1.213v5.942a1.213,1.213,0,0,0,1.213,1.213" transform="translate(-0.167)" fill="#491356"/>
        <rect id="Rectangle_1475" data-name="Rectangle 1475" width="111.967" height="8.368" rx="1.648" transform="translate(419.399 367.923)" fill="none" stroke="#000" stroke-width="2"/>
        <path id="Path_8277" data-name="Path 8277" d="M451.332,376.612h-91.2a5.163,5.163,0,0,1-5.162-5.164h0v-5.235a5.163,5.163,0,0,1,5.161-5.165h91.2a1.838,1.838,0,0,1,1.837,1.838v11.888a1.838,1.838,0,0,1-1.837,1.838" transform="translate(-0.141)" fill="#fb847d"/>
        <path id="Path_8278" data-name="Path 8278" d="M451.332,376.612h-91.2a5.163,5.163,0,0,1-5.162-5.164h0v-5.235a5.163,5.163,0,0,1,5.161-5.165h91.2a1.838,1.838,0,0,1,1.837,1.838v11.888a1.838,1.838,0,0,1-1.836,1.839Z" transform="translate(-0.141)" fill="none" stroke="#000" stroke-width="2"/>
        <path id="Path_8279" data-name="Path 8279" d="M463.2,376.777H382.752a4.861,4.861,0,0,1-4.86-4.861v-5.842a4.861,4.861,0,0,1,4.86-4.862H463.2a1.73,1.73,0,0,1,1.729,1.73v12.1a1.73,1.73,0,0,1-1.729,1.73" transform="translate(-0.15)" fill="#d85a56"/>
        <path id="Path_8280" data-name="Path 8280" d="M463.2,376.777H382.752a4.861,4.861,0,0,1-4.86-4.861v-5.842a4.861,4.861,0,0,1,4.86-4.862H463.2a1.73,1.73,0,0,1,1.729,1.73v12.1a1.73,1.73,0,0,1-1.724,1.735Z" transform="translate(-0.15)" fill="none" stroke="#000" stroke-width="2"/>
        <path id="Path_8281" data-name="Path 8281" d="M464.932,373.771H386.381a4.941,4.941,0,0,1-.015-9.882h78.569Z" transform="translate(-0.151)" fill="#f4aaa8"/>
        <path id="Path_8282" data-name="Path 8282" d="M464.932,373.771H386.381a4.941,4.941,0,0,1-.015-9.882h78.569Z" transform="translate(-0.151)" fill="none" stroke="#000" stroke-width="2"/>
        <path id="Path_8283" data-name="Path 8283" d="M362.451,361.336h86.833a7.783,7.783,0,0,0,0-15.565H362.451a.2.2,0,0,0-.2.2v15.157a.2.2,0,0,0,.2.2" transform="translate(-0.144)" fill="#ce76ae"/>
        <path id="Path_8284" data-name="Path 8284" d="M362.451,361.336h86.833a7.783,7.783,0,0,0,0-15.565H362.451a.2.2,0,0,0-.2.2v15.157a.2.2,0,0,0,.192.208Z" transform="translate(-0.144)" fill="none" stroke="#000" stroke-width="2"/>
        <path id="Path_8285" data-name="Path 8285" d="M360.4,361.336h67.13a7.783,7.783,0,0,0,0-15.565H360.4a2.436,2.436,0,0,0-2.436,2.437V358.9a2.436,2.436,0,0,0,2.436,2.437" transform="translate(-0.142)" fill="#9e5186"/>
        <path id="Path_8286" data-name="Path 8286" d="M360.4,361.336h67.13a7.783,7.783,0,0,0,0-15.565H360.4a2.436,2.436,0,0,0-2.436,2.437V358.9A2.436,2.436,0,0,0,360.4,361.336Z" transform="translate(-0.142)" fill="none" stroke="#000" stroke-width="2"/>
        <path id="Path_8287" data-name="Path 8287" d="M357.965,358.329h69.257a4.941,4.941,0,0,0,.015-9.882H357.965Z" transform="translate(-0.142)" fill="#dd94c6"/>
        <path id="Path_8288" data-name="Path 8288" d="M357.965,358.329h69.257a4.941,4.941,0,0,0,.015-9.882H357.965Z" transform="translate(-0.142)" fill="none" stroke="#000" stroke-width="2"/>
        <path id="Path_8289" data-name="Path 8289" d="M369.563,345.895h69.782a7.783,7.783,0,0,0,0-15.565H369.563a.889.889,0,0,0-.889.889v13.787a.889.889,0,0,0,.889.889" transform="translate(-0.146)" fill="#fb847d"/>
        <path id="Path_8290" data-name="Path 8290" d="M369.563,345.895h69.782a7.783,7.783,0,0,0,0-15.565H369.563a.889.889,0,0,0-.889.889v13.787A.889.889,0,0,0,369.563,345.895Z" transform="translate(-0.146)" fill="none" stroke="#000" stroke-width="2"/>
        <path id="Path_8291" data-name="Path 8291" d="M367.348,345.895h54a7.783,7.783,0,0,0,0-15.565h-54a2.216,2.216,0,0,0-2.213,2.217V343.68a2.215,2.215,0,0,0,2.215,2.216" transform="translate(-0.145)" fill="#d85a56"/>
        <path id="Path_8292" data-name="Path 8292" d="M367.348,345.895h54a7.783,7.783,0,0,0,0-15.565h-54a2.216,2.216,0,0,0-2.213,2.217V343.68A2.215,2.215,0,0,0,367.348,345.895Z" transform="translate(-0.145)" fill="none" stroke="#000" stroke-width="2"/>
        <path id="Path_8293" data-name="Path 8293" d="M365.135,342.886h56.451a4.941,4.941,0,0,0,0-9.882H365.135Z" transform="translate(-0.145)" fill="#f4aaa8"/>
        <path id="Path_8294" data-name="Path 8294" d="M365.135,342.886h56.451a4.941,4.941,0,0,0,0-9.882H365.135Z" transform="translate(-0.145)" fill="none" stroke="#000" stroke-width="2"/>
        <path id="Path_8295" data-name="Path 8295" d="M421.736,316.753H391.382a.716.716,0,0,1,0-1.432h30.353a.716.716,0,0,1,0,1.432" transform="translate(-0.155)"/>
        <path id="Path_8296" data-name="Path 8296" d="M578.174,237.349a2.9,2.9,0,0,1-1.763-.577,5.23,5.23,0,0,1-1.686-3.175.715.715,0,0,1,.5-.778l9.6-2.95a.715.715,0,0,1,.809,1.074c-.391.6-3.9,5.874-6.867,6.357a3.678,3.678,0,0,1-.584.049m-1.9-3.357a3.224,3.224,0,0,0,.991,1.633,1.587,1.587,0,0,0,1.26.263c1.427-.233,3.348-2.32,4.675-4.027Z" transform="translate(-0.228)"/>
        <path id="Path_8297" data-name="Path 8297" d="M574.992,228.679a.716.716,0,0,1-.681-.495c-1.874-5.772,2.859-10.255,3.063-10.443a.715.715,0,0,1,.974,1.047c-.043.04-4.263,4.061-2.675,8.954a.715.715,0,0,1-.458.9.731.731,0,0,1-.223.035" transform="translate(-0.228)"/>
        <path id="Path_8298" data-name="Path 8298" d="M573.263,218.98a.716.716,0,0,1-.714-.718.708.708,0,0,1,.014-.138l.825-4.128-1.593-2.249a.716.716,0,0,1,1.168-.828l1.771,2.5a.719.719,0,0,1,.118.553l-.886,4.431a.716.716,0,0,1-.7.575" transform="translate(-0.227)"/>
        <path id="Path_8299" data-name="Path 8299" d="M106.218,338.579s21.96-3.561,30.188-4.428c9.057-.954,14.083,4.072,17.162,7.474,5.236,5.785,5.341,17.333,4.608,19.316-1.113,3.013-6.629-3.155-6.629-3.155s.539,2.407-2.058,4.573a7.233,7.233,0,0,1-5.374,1.718s.433,4.613-1.929,4.892-12.371,2.613-13.36-.216,6.428-6.394,6.428-6.394l-1.537-4.892s-4.142,9.84-13.222,9.943-13.839-9.91-13.839-9.91Z" transform="translate(-0.042)" fill="#f48462"/>
        <path id="Path_8300" data-name="Path 8300" d="M106.218,338.579s21.96-3.561,30.188-4.428c9.057-.954,14.083,4.072,17.162,7.474,5.236,5.785,5.341,17.333,4.608,19.316-1.113,3.013-6.629-3.155-6.629-3.155s.539,2.407-2.058,4.573a7.233,7.233,0,0,1-5.374,1.718s.433,4.613-1.929,4.892-12.371,2.613-13.36-.216,6.428-6.394,6.428-6.394l-1.537-4.892s-4.142,9.84-13.222,9.943-13.839-9.91-13.839-9.91Z" transform="translate(-0.042)" fill="none" stroke="#000" stroke-linejoin="round" stroke-width="2"/>
        <path id="Path_8301" data-name="Path 8301" d="M585.917,220.106a.714.714,0,0,1-.7-.855l.825-4.129-1.593-2.249a.716.716,0,0,1,1.168-.828l1.771,2.5a.715.715,0,0,1,.118.553l-.886,4.431a.716.716,0,0,1-.7.575" transform="translate(-0.232)"/>
        <path id="Path_8302" data-name="Path 8302" d="M144.276,364.942a.717.717,0,0,1-.757-.91c1.327-4.621-2.9-9.721-2.948-9.772a.715.715,0,1,1,1.093-.923c.2.231,4.769,5.729,3.23,11.091a.715.715,0,0,1-.619.514" transform="translate(-0.056)"/>
        <path id="Path_8303" data-name="Path 8303" d="M96.056,375.377V329.334a1.4,1.4,0,0,1,1.4-1.4h11.9a1.4,1.4,0,0,1,1.4,1.4v46.043a1.4,1.4,0,0,1-1.4,1.4h-11.9a1.4,1.4,0,0,1-1.4-1.4" transform="translate(-0.038)" fill="#ea5455"/>
        <path id="Path_8304" data-name="Path 8304" d="M97.955,327.935h10.891a1.9,1.9,0,0,1,1.9,1.9v45.039a1.9,1.9,0,0,1-1.9,1.9H97.955a1.9,1.9,0,0,1-1.9-1.9v-45.04A1.9,1.9,0,0,1,97.955,327.935Z" transform="translate(-0.038)" fill="none" stroke="#000" stroke-width="2"/>
        <path id="Path_8305" data-name="Path 8305" d="M571.727,208.839a.716.716,0,0,1-.564-1.157c1.6-2.044,4.29-1.382,5.489-.745a.715.715,0,0,1-.667,1.265c-.1-.052-2.435-1.247-3.7.363a.717.717,0,0,1-.564.274" transform="translate(-0.227)"/>
        <path id="Path_8306" data-name="Path 8306" d="M590.774,209.851a.7.7,0,0,1-.356-.1c-3.3-1.9-5.589-1.009-5.684-.971a.715.715,0,0,1-.559-1.317c.119-.052,3-1.239,6.956,1.049a.715.715,0,0,1-.358,1.335" transform="translate(-0.232)"/>
        <path id="Path_8307" data-name="Path 8307" d="M603.006,232.255a.715.715,0,0,1-.515-1.211l6.806-7.074a.715.715,0,1,1,1.06.96l-.03.031-6.806,7.075a.715.715,0,0,1-.515.219" transform="translate(-0.239)"/>
        <path id="Path_8308" data-name="Path 8308" d="M610.553,230.59a.73.73,0,0,1-.161-.018l-4.868-1.119a.715.715,0,1,1,.319-1.394l4.868,1.119a.715.715,0,0,1-.159,1.412" transform="translate(-0.24)"/>
        <path id="Path_8309" data-name="Path 8309" d="M151.259,360.711a.669.669,0,0,1-.11-.009.717.717,0,0,1-.6-.817c.859-5.557-4.786-10.149-4.843-10.194a.716.716,0,0,1,.893-1.119c.26.208,6.349,5.148,5.365,11.532a.717.717,0,0,1-.706.606" transform="translate(-0.058)"/>
      </g>
    </g>
  </g>
</svg>
