<?xml version="1.0" encoding="UTF-8"?>
<svg id="Layer_2" data-name="Layer 2" xmlns="http://www.w3.org/2000/svg" xmlns:xlink="http://www.w3.org/1999/xlink" viewBox="0 0 1028 481.42">
  <defs>
    <style>
      .cls-1 {
        fill: #ea5455;
      }

      .cls-1, .cls-2, .cls-3, .cls-4, .cls-5, .cls-6, .cls-7, .cls-8, .cls-9, .cls-10, .cls-11, .cls-12, .cls-13, .cls-14, .cls-15, .cls-16, .cls-17, .cls-18, .cls-19, .cls-20, .cls-21, .cls-22, .cls-23 {
        stroke-width: 0px;
      }

      .cls-2 {
        fill: #672376;
      }

      .cls-3 {
        fill: #ce5fb2;
      }

      .cls-4 {
        fill: #9192ff;
      }

      .cls-5 {
        fill: #fb847d;
      }

      .cls-24 {
        stroke-linejoin: round;
      }

      .cls-24, .cls-7, .cls-25 {
        fill: none;
      }

      .cls-24, .cls-25 {
        stroke: #000;
        stroke-width: 2px;
      }

      .cls-26 {
        clip-path: url(#clippath-2);
      }

      .cls-27 {
        opacity: .7;
      }

      .cls-8 {
        fill: #d85252;
      }

      .cls-28 {
        clip-path: url(#clippath-1);
      }

      .cls-29 {
        clip-path: url(#clippath-4);
      }

      .cls-9 {
        fill: #fff;
      }

      .cls-25 {
        stroke-miterlimit: 10;
      }

      .cls-10 {
        fill: #491356;
      }

      .cls-11 {
        fill: #dd94c6;
      }

      .cls-30 {
        clip-path: url(#clippath);
      }

      .cls-12 {
        fill: #ce76ae;
      }

      .cls-31 {
        clip-path: url(#clippath-3);
      }

      .cls-13 {
        fill: #ff9b99;
      }

      .cls-14 {
        fill: #d85a56;
      }

      .cls-15 {
        fill: #a62973;
      }

      .cls-16 {
        fill: #f48462;
      }

      .cls-17 {
        fill: #465884;
      }

      .cls-18 {
        fill: #fff2e0;
      }

      .cls-19 {
        fill: #f4aaa8;
      }

      .cls-20 {
        fill: #f7b369;
      }

      .cls-21 {
        fill: #390a44;
      }

      .cls-22 {
        fill: #9e5186;
      }

      .cls-32 {
        opacity: .4;
      }

      .cls-23 {
        fill: #ffa121;
      }
    </style>
    <clipPath id="clippath">
      <rect class="cls-7" x="67.38" y="16.42" width="893.24" height="464.99"/>
    </clipPath>
    <clipPath id="clippath-1">
      <path class="cls-7" d="m615.99,124.5v142.43c0,11.64,9.43,21.08,21.08,21.08h234.09c11.64,0,21.08-9.44,21.08-21.08h0V124.5h-276.25Z"/>
    </clipPath>
    <clipPath id="clippath-2">
      <rect class="cls-7" x="679.1" y="129.06" width="232.41" height="196.02"/>
    </clipPath>
    <clipPath id="clippath-3">
      <rect class="cls-7" x="685.48" y="130.74" width="38.92" height="38.69"/>
    </clipPath>
    <clipPath id="clippath-4">
      <rect class="cls-7" x="67.38" y="16.42" width="893.24" height="464.99"/>
    </clipPath>
  </defs>
  <g id="Layer_2-2" data-name="Layer 2">
    <g>
      <rect class="cls-7" width="1028" height="480"/>
      <g class="cls-30">
        <g id="Group_1218" data-name="Group 1218">
          <g id="Group_1215" data-name="Group 1215">
            <g class="cls-28">
              <g id="Group_1214" data-name="Group 1214">
                <path id="Path_4927" data-name="Path 4927" class="cls-9" d="m892.24,266.93c0,11.64-9.44,21.07-21.08,21.08h-234.1c-11.64,0-21.07-9.44-21.08-21.08V124.5h276.25v142.43Z"/>
                <path id="Path_4928" data-name="Path 4928" class="cls-3" d="m906.69,160.82c-3.23-10.35-13.45-18.3-24.61-19.14-11.16-.84-22.55,5.48-27.44,15.22-6-.02-11.58,3.12-14.68,8.26-2.88,5.14-2.68,11.44.51,16.39-7.1,1.25-13.22,5.73-16.55,12.13-3.13,6.36-2.96,13.84.44,20.05-8.02-3.95-17.49-3.61-25.21.91-7.49,4.55-12.03,12.73-11.91,21.5-8.04-12.24-24.49-15.64-36.73-7.59-3.7,2.43-6.74,5.76-8.83,9.67-4.34-12.98-15.91-23.46-29.6-26.81-13.94-3.29-28.6.43-39.29,9.96-15.41,2.41-26.64,19.14-22.62,33.7-8.35,6.96-12.46,17.78-10.84,28.53,2,10.75,9.38,19.73,19.55,23.76l265.1-.17,22.6-101.14-39.9-45.21Z"/>
                <path id="Path_4929" data-name="Path 4929" class="cls-11" d="m910.9,194.41c-4.32-14.31-19.43-22.41-33.75-18.09-7.24,2.19-13.24,7.31-16.54,14.12-8.85-.09-16.09,7.01-16.18,15.86-.03,3.11.84,6.16,2.51,8.78-11.99,2.14-19.97,13.6-17.83,25.59.41,2.3,1.19,4.52,2.3,6.58-11.95-6.3-26.74-1.71-33.04,10.24-1.97,3.74-2.94,7.92-2.81,12.15-7.3-11.84-22.82-15.52-34.66-8.22-4.02,2.48-7.26,6.03-9.35,10.26-6.9-21.32-29.78-33.01-51.1-26.11-5.78,1.87-11.07,5.02-15.47,9.2-14.88,2.4-25.72,19.12-21.83,33.68-13.01,11.14-14.53,30.73-3.39,43.74,3.21,3.75,7.27,6.68,11.84,8.55l256.13.04,21.75-101.12-38.59-45.24Z"/>
                <g id="Group_1210" data-name="Group 1210" class="cls-27">
                  <g id="Group_1209" data-name="Group 1209">
                    <g class="cls-26">
                      <g id="Group_1208" data-name="Group 1208">
                        <path id="Path_4930" data-name="Path 4930" class="cls-18" d="m707.28,129.06c76.73,72.15,131.14,91.61,199.68,98.57l4.55,72.86-71.96,24.59c-62.84-1.82-123.19-92.8-160.46-170.85l28.18-25.17"/>
                      </g>
                    </g>
                  </g>
                </g>
                <path id="Path_4931" data-name="Path 4931" class="cls-23" d="m696.46,130c12.47,14.76,31.29,28.88,53.48,47.94l-30.28-12.34c3.71,6.15,9.12,14.76,12.15,18.45-6.98-3.22-18.21-10.31-21.93-14.06,0,5.24,6.32,14.01,9.07,18.8-16.15-13.82-30.84-30.69-35.59-45.52l13.09-13.28Z"/>
                <g id="Group_1213" data-name="Group 1213" class="cls-32">
                  <g id="Group_1212" data-name="Group 1212">
                    <g class="cls-31">
                      <g id="Group_1211" data-name="Group 1211">
                        <path id="Path_4932" data-name="Path 4932" class="cls-9" d="m692.93,130.74c7.38,9.78,18.42,19.21,31.47,31.91l-17.67-8.38c2.22,4.06,5.43,9.75,7.23,12.2-4.08-2.18-10.66-6.93-12.85-9.43.06,3.43,3.8,9.23,5.45,12.39-9.5-9.21-18.18-20.39-21.08-30.14l7.45-8.55Z"/>
                      </g>
                    </g>
                  </g>
                </g>
                <path id="Path_4933" data-name="Path 4933" class="cls-11" d="m807.5,180.87c-.1,2.28,0,6.13,2.28,7.45,3.8,2.2,6.8-3.14,8.19-5.83,1.67-3.21,1.24-7.19-2.53-8.62-4.98-1.89-7.76,2.75-7.95,7"/>
                <path id="Path_4934" data-name="Path 4934" class="cls-11" d="m627.12,250.13c-.1,2.28,0,6.13,2.28,7.45,3.8,2.2,6.8-3.14,8.19-5.83,1.67-3.21,1.24-7.19-2.53-8.62-4.98-1.89-7.76,2.75-7.95,7"/>
                <path id="Path_4935" data-name="Path 4935" class="cls-11" d="m824.53,155.07c0,1.76,1.43,3.19,3.19,3.19,1.76,0,3.19-1.43,3.19-3.19s-1.43-3.19-3.19-3.19h0c-1.76,0-3.19,1.43-3.19,3.19"/>
                <path id="Path_4936" data-name="Path 4936" class="cls-11" d="m660.74,212.6c0,2.68,2.17,4.85,4.85,4.85,2.68,0,4.85-2.17,4.85-4.85s-2.17-4.85-4.85-4.85-4.85,2.17-4.85,4.85h0"/>
              </g>
            </g>
          </g>
          <g id="Group_1217" data-name="Group 1217">
            <g class="cls-29">
              <g id="Group_1216" data-name="Group 1216">
                <path id="Path_4938" data-name="Path 4938" class="cls-2" d="m615.54,266.93V124.04h277.16v142.89c-.01,11.89-9.65,21.52-21.53,21.53h-234.09c-11.89-.01-21.52-9.65-21.53-21.53m.91-141.98v141.98c.01,11.38,9.24,20.61,20.62,20.62h234.09c11.38-.01,20.61-9.24,20.62-20.62V124.96h-275.33Z"/>
                <path id="Path_4939" data-name="Path 4939" class="cls-9" d="m637.07,69.32h234.09c11.64,0,21.08,9.43,21.08,21.07h0v34.11h-276.25v-34.1c0-11.64,9.43-21.07,21.07-21.08h0"/>
                <path id="Path_4940" data-name="Path 4940" class="cls-2" d="m615.54,90.39c.01-11.89,9.65-21.52,21.53-21.53h234.09c11.89.01,21.52,9.65,21.53,21.53v34.56h-277.16v-34.56Zm276.25,0c-.02-11.38-9.24-20.6-20.62-20.62h-234.09c-11.38.01-20.61,9.23-20.62,20.62v33.65h275.34v-33.65Z"/>
                <path id="Path_4941" data-name="Path 4941" class="cls-3" d="m852.85,96.91c0,6.38,5.17,11.56,11.55,11.56s11.55-5.17,11.55-11.56-5.17-11.56-11.55-11.56h0c-6.38,0-11.55,5.17-11.55,11.56"/>
                <path id="Path_4942" data-name="Path 4942" class="cls-9" d="m818.82,96.91c0,6.38,5.17,11.56,11.55,11.56s11.55-5.17,11.55-11.56-5.17-11.56-11.55-11.56h0c-6.38,0-11.55,5.17-11.55,11.56"/>
                <path id="Path_4943" data-name="Path 4943" class="cls-2" d="m818.36,96.91c0-6.63,5.38-12.01,12.01-12.01,6.63,0,12.01,5.38,12.01,12.01s-5.38,12.01-12.01,12.01c-6.63,0-12-5.38-12.01-12.01m.91,0c0,6.13,4.97,11.1,11.1,11.1,6.13,0,11.1-4.97,11.1-11.1s-4.97-11.1-11.1-11.1h0c-6.13,0-11.09,4.97-11.1,11.1"/>
                <path id="Path_4944" data-name="Path 4944" class="cls-9" d="m742.42,107.94h46.01c6.09,0,11.03-4.93,11.03-11.02,0-6.09-4.93-11.03-11.02-11.03h-46.02c-6.09,0-11.03,4.93-11.03,11.02,0,6.09,4.93,11.03,11.02,11.03h0"/>
                <path id="Path_4945" data-name="Path 4945" class="cls-2" d="m730.93,96.91c0-6.34,5.14-11.48,11.49-11.49h46.01c6.34-.06,11.53,5.03,11.59,11.38.06,6.34-5.03,11.53-11.38,11.59-.07,0-.14,0-.21,0h-46.01c-6.34,0-11.48-5.15-11.48-11.49m11.48-10.57c-5.84,0-10.57,4.73-10.57,10.57s4.73,10.57,10.57,10.57h46.01c5.84,0,10.57-4.73,10.57-10.57s-4.73-10.57-10.57-10.57h-46.01Z"/>
                <path id="Path_4946" data-name="Path 4946" class="cls-2" d="m648.53,44.18c18.45,16.15,50.27,5.02,60.15,17.91l-28.25,22.37-31.9-40.29Z"/>
                <path id="Path_4947" data-name="Path 4947" class="cls-3" d="m708.68,62.09h0c1.41,3.76.64,8-2,11.02l-20.02,22.93-6.24-11.58,28.25-22.37Z"/>
                <path id="Path_4948" data-name="Path 4948" class="cls-2" d="m606.71,77.29c11.49,21.66-6.64,50.08,3.65,62.66l28.25-22.37-31.9-40.29Z"/>
                <path id="Path_4949" data-name="Path 4949" class="cls-3" d="m610.36,139.95h0c3.34,2.24,7.64,2.46,11.19.58l26.91-14.23-9.84-8.73-28.25,22.37Z"/>
                <path id="Path_4950" data-name="Path 4950" class="cls-21" d="m592.36,16.42l25.15,9.23-21.93,17.37-3.23-26.6Z"/>
                <path id="Path_4951" data-name="Path 4951" class="cls-11" d="m595.58,43.02c3.51,39.8,32.92,76.94,68.64,97.57l32.55-25.75c-13.66-42.97-39.09-73.72-79.26-89.19l-21.93,17.37Z"/>
                <path id="Path_4952" data-name="Path 4952" class="cls-2" d="m696.77,114.85l14.12,9.78-40.39,31.98-6.28-16.01,32.55-25.75Z"/>
                <path id="Path_4953" data-name="Path 4953" class="cls-9" d="m615.11,69.49c5.18,6.54,14.68,7.64,21.22,2.46,6.54-5.18,7.64-14.68,2.46-21.22-5.18-6.54-14.68-7.64-21.22-2.46-6.54,5.18-7.64,14.68-2.47,21.22,0,0,0,0,0,0"/>
                <path id="Path_4954" data-name="Path 4954" class="cls-4" d="m623.05,70.15l.33-.85c.81.32,1.66.52,2.53.61l-.1.91c-.95-.1-1.88-.33-2.76-.67m5.47-.3c.86-.14,1.7-.39,2.49-.74l.38.83c-.87.39-1.78.67-2.73.82l-.14-.9Zm-10-3.05l.71-.57c.54.68,1.17,1.29,1.87,1.81l-.54.73c-.76-.57-1.45-1.23-2.04-1.98m14.7.93c.67-.55,1.27-1.19,1.78-1.9l.74.53c-.55.78-1.2,1.48-1.94,2.08l-.58-.71Zm-16.78-5.31l.89-.19c.19.85.48,1.67.89,2.45l-.81.42c-.44-.84-.77-1.74-.97-2.67m19.77,1.11c.3-.82.49-1.67.57-2.54l.91.08c-.08.95-.29,1.88-.62,2.78l-.86-.31Zm-20.01-3.94c.05-.95.22-1.89.52-2.8l.87.28c-.27.83-.43,1.69-.47,2.56l-.91-.04Zm19.67-3.68l.82-.39c.41.86.7,1.77.87,2.71l-.9.16c-.15-.86-.42-1.69-.79-2.48m-17.92-1.68c.52-.8,1.15-1.52,1.86-2.15l.6.68c-.65.58-1.22,1.24-1.7,1.97l-.76-.5Zm14.57-2.24l.51-.75c.79.54,1.5,1.18,2.12,1.9l-.69.59c-.57-.66-1.22-1.25-1.94-1.74m-10.35-1.5c.85-.42,1.76-.73,2.69-.92l.18.89c-.85.17-1.68.45-2.46.84l-.41-.81Zm5.47-.19l.06-.91c.95.07,1.89.26,2.79.57l-.3.86c-.82-.28-1.68-.46-2.55-.52"/>
                <path id="Path_4955" data-name="Path 4955" class="cls-21" d="m701.76,154.57h0c1.26-1,1.47-2.83.47-4.09l-27.76-35.06c-1-1.26-2.83-1.47-4.09-.48-1.26,1-1.47,2.83-.47,4.09h0l27.76,35.06c1,1.26,2.83,1.47,4.09.48"/>
                <path id="Path_4956" data-name="Path 4956" class="cls-8" d="m322.03,283.27h-7.56v-1.26h7.56v1.26Zm-15.11,0h-7.56v-1.26h7.56v1.26Zm-15.11,0h-7.56v-1.26h7.56v1.26Zm-15.11,0h-7.56v-1.26h7.56v1.26Zm-15.11,0h-7.56v-1.26h7.56v1.26Zm-15.11,0h-7.56v-1.26h7.55v1.26Zm-15.11,0h-7.56v-1.26h7.56v1.26Zm-15.11,0h-7.56v-1.26h7.56v1.26Zm-15.11,0h-7.55v-1.26h7.56v1.26Zm-15.11,0h-7.55v-1.26h7.56v1.26Zm-15.12,0c-2.59-.02-5.16-.46-7.61-1.3l.41-1.19c2.32.79,4.76,1.21,7.22,1.23v1.26Zm152.04-.02l-.05-1.26c2.45-.09,4.88-.57,7.18-1.43l.44,1.18c-2.43.91-4.98,1.42-7.57,1.52m-166.46-4.93c-2.06-1.57-3.85-3.46-5.31-5.6l1.04-.71c1.38,2.03,3.09,3.82,5.04,5.31l-.76,1Zm180.73-.42l-.79-.98c1.91-1.54,3.56-3.39,4.89-5.45l1.06.68c-1.4,2.18-3.14,4.12-5.15,5.75m-189.32-12.17c-.61-2.15-.92-4.38-.92-6.61v-1.03h1.26v1.03c0,2.12.29,4.23.87,6.27l-1.21.35Zm197.55-.66l-1.22-.31c.47-1.84.7-3.74.7-5.64v-1.7h1.26v1.7c0,2.01-.25,4.01-.74,5.95m-197.21-14.54h-1.26v-7.56h1.26v7.56Zm197.95-.67h-1.26v-7.55h1.26v7.55Zm-197.95-14.44h-1.26v-7.56h1.26v7.56Zm197.95-.67h-1.26v-7.56h1.26v7.56Zm-197.95-14.44h-1.26v-7.56h1.26v7.56Zm197.95-.67h-1.26v-7.56h1.26v7.56Zm-197.95-14.45h-1.26v-7.56h1.26v7.56Zm197.95-.67h-1.26v-7.56h1.26v7.56Zm-197.95-14.45h-1.26v-7.56h1.26v7.56Zm197.95-.67h-1.26v-7.56h1.26v7.56Zm-197.95-14.44h-1.26v-5.03c0-.86.05-1.73.14-2.58l1.25.13c-.09.81-.13,1.63-.13,2.45v5.03Zm197.95-.67h-1.26v-4.37c0-1.04-.07-2.07-.21-3.1l1.25-.17c.15,1.08.22,2.17.22,3.26v4.37Zm-195.89-13.88l-1.14-.52c1.08-2.36,2.53-4.53,4.3-6.42l.92.86c-1.68,1.8-3.05,3.85-4.07,6.09m192.29-.59c-1.09-2.2-2.52-4.22-4.24-5.97l.9-.88c1.82,1.85,3.33,3.97,4.47,6.3l-1.13.55Zm-182.44-10l-.6-1.1c2.27-1.25,4.73-2.12,7.28-2.57l.22,1.24c-2.42.43-4.75,1.26-6.9,2.44m172.3-.3c-2.19-1.12-4.54-1.88-6.97-2.24l.19-1.24c2.56.39,5.05,1.19,7.35,2.37l-.57,1.12Zm-14.42-2.5h-7.57v-1.26h7.56v1.26Zm-15.11,0h-7.56v-1.26h7.56v1.26Zm-15.11,0h-7.57v-1.26h7.56v1.26Zm-15.11,0h-7.56v-1.26h7.56v1.26Zm-15.11,0h-7.56v-1.26h7.56v1.26Zm-15.11,0h-7.56v-1.26h7.55v1.26Zm-15.11,0h-7.56v-1.26h7.56v1.26Zm-15.11,0h-7.56v-1.26h7.56v1.26Zm-15.11,0h-7.56v-1.26h7.56v1.26Zm-15.11,0h-7.56v-1.26h7.56v1.26Z"/>
                <path id="Path_4957" data-name="Path 4957" class="cls-13" d="m311.87,261.44h-168c-8.27,0-14.98-6.7-14.98-14.97h0v-110.04c0-8.27,6.7-14.98,14.97-14.98h168c8.27,0,14.97,6.7,14.97,14.97v110.04c0,8.27-6.7,14.97-14.97,14.97"/>
                <rect id="Rectangle_1415" data-name="Rectangle 1415" class="cls-9" x="163.31" y="203.23" width="21.43" height="43.53"/>
                <rect id="Rectangle_1416" data-name="Rectangle 1416" class="cls-9" x="199.21" y="204.62" width="21.43" height="42.13"/>
                <rect id="Rectangle_1417" data-name="Rectangle 1417" class="cls-9" x="235.1" y="182.62" width="21.43" height="64.14"/>
                <rect id="Rectangle_1418" data-name="Rectangle 1418" class="cls-9" x="271" y="163.8" width="21.43" height="82.96"/>
                <rect id="Rectangle_1419" data-name="Rectangle 1419" class="cls-9" x="170.37" y="141.17" width="115.01" height="5.03"/>
                <path id="Path_4958" data-name="Path 4958" class="cls-20" d="m286.44,344.67c-1.03,0-2.01-.42-2.71-1.17-4.12-4.23-2.28-19.48-2.06-21.2.07-.53.55-.9,1.08-.83.3.04.57.22.72.49.89,1.63,8.59,16.11,6.03,20.97-.52,1-1.51,1.65-2.63,1.72-.14.01-.28.02-.43.02m-3.19-18.92c-.43,5.47-.54,13.95,1.85,16.41.4.44.98.65,1.56.58.48,0,.91-.28,1.13-.7,1.33-2.53-1.67-10.4-4.55-16.28"/>
                <path id="Path_4959" data-name="Path 4959" class="cls-16" d="m352.05,313.7s7.1-15.07,17.18-20.41c10.08-5.34,21.14-7.77,17.96-1.73-3.18,6.04-11.39,15.24-11.39,15.24l16.29-.68s11.06-2.43,18.78-2.75c7.71-.32,8.82,5.54,8.82,5.54,0,0,7.71-.32,10.41,2.52,2.69,2.84-.57,6.92-.57,6.92,0,0,10.41,2.52,4.69,9.65-5.71,7.13-29.39,15.99-40.45,18.42s-34.33.44-34.33.44c0,0-21.27-.07-7.39-33.18"/>
                <path id="Path_4960" data-name="Path 4960" class="cls-25" d="m352.05,313.7s7.1-15.07,17.18-20.41c10.08-5.34,21.14-7.77,17.96-1.73-3.18,6.04-11.39,15.24-11.39,15.24l16.29-.68s11.06-2.43,18.78-2.75c7.71-.32,8.82,5.54,8.82,5.54,0,0,7.71-.32,10.41,2.52,2.69,2.84-.57,6.92-.57,6.92,0,0,10.41,2.52,4.69,9.65-5.71,7.13-29.39,15.99-40.45,18.42s-34.33.44-34.33.44c0,0-21.27-.07-7.39-33.18Z"/>
                <path id="Path_4961" data-name="Path 4961" class="cls-6" d="m407.69,329.78c-.23,0-.45-.08-.63-.23l-23.49-20.23c-.4-.35-.45-.95-.1-1.36.35-.4.95-.45,1.36-.1l23.49,20.23c.4.35.45.95.1,1.36-.18.21-.45.34-.73.34"/>
                <path id="Path_4962" data-name="Path 4962" class="cls-6" d="m180.45,213.63s-36.7-10.35-52.49,25.85c-15.79,36.2-3.24,135.86-3.24,135.86l81.56-15.73-10.05-80.29-15.77-65.69Z"/>
                <path id="Path_4963" data-name="Path 4963" class="cls-25" d="m180.45,213.63s-36.7-10.35-52.49,25.85c-15.79,36.2-3.24,135.86-3.24,135.86l81.56-15.73-10.05-80.29-15.77-65.69Z"/>
                <path id="Path_4964" data-name="Path 4964" class="cls-15" d="m373.07,362.27l-24.65-53.42s-41.61,14.39-72.32,12.52c-30.54-1.86-62.71-12.5-71.07-15.42-7.52-3.66-14.68-5.94-19.21-6.28-10.83-.82-22.71-.74-22.71-.74,0,0-29.24,7.69-45.95,22.57-20.64,14.81-53.77,46.45-48.15,94.28,7.33,62.49,79.39,60.07,116.58,53.5,27.61-.45,58.28-2.01,58.28-2.01,0,0,3.54-41.55,4.65-65.21,49.82,20.28,124.55-39.78,124.55-39.78"/>
                <path id="Path_4965" data-name="Path 4965" class="cls-25" d="m373.07,362.27l-24.65-53.42s-41.61,14.39-72.32,12.52c-30.54-1.86-62.71-12.5-71.07-15.42-7.52-3.66-14.68-5.94-19.21-6.28-10.83-.82-22.71-.74-22.71-.74,0,0-29.24,7.69-45.95,22.57-20.64,14.81-53.77,46.45-48.15,94.28,7.33,62.49,79.39,60.07,116.58,53.5,27.61-.45,58.28-2.01,58.28-2.01,0,0,3.54-41.55,4.65-65.21,49.82,20.28,124.55-39.78,124.55-39.78Z"/>
                <path id="Path_4966" data-name="Path 4966" class="cls-16" d="m155.46,279.19l.57,25.91s4.84,7.35,20.02,8.24c11.31.67,15.22-1.97,15.22-1.97l-1.86-13.09-1.83-12.76-27.5-5.42-4.62-.91Z"/>
                <path id="Path_4967" data-name="Path 4967" class="cls-25" d="m155.46,279.19l.57,25.91s4.84,7.35,20.02,8.24c11.31.67,15.22-1.97,15.22-1.97l-1.86-13.09-1.83-12.76-27.5-5.42-4.62-.91Z"/>
                <path id="Path_4968" data-name="Path 4968" class="cls-6" d="m160.07,280.11c.14.86.41,1.7.81,2.48,6.08,12.82,22,15.26,28.53,15.7l-1.83-12.76-27.5-5.42Z"/>
                <path id="Path_4969" data-name="Path 4969" class="cls-16" d="m192.05,226.33s14.32,32.19,9.35,50.35c-4.96,18.17-21.5,15.42-31.41,11.98-9.91-3.44-14.54-9.47-14.54-9.47-5.76,1.74-11.99-.42-15.45-5.36-6.23-8.55-2.5-18.43,2.76-20.73,5.26-2.29,11.56,1.47,11.56,1.47l-4.98-9.35s20.36-47.81,42.7-18.9"/>
                <path id="Path_4970" data-name="Path 4970" class="cls-25" d="m192.05,226.33s14.32,32.19,9.35,50.35c-4.96,18.17-21.5,15.42-31.41,11.98-9.91-3.44-14.54-9.47-14.54-9.47-5.76,1.74-11.99-.42-15.45-5.36-6.23-8.55-2.5-18.43,2.76-20.73,5.26-2.29,11.56,1.47,11.56,1.47l-4.98-9.35s20.36-47.81,42.7-18.9Z"/>
                <path id="Path_4971" data-name="Path 4971" class="cls-6" d="m154.32,254.59s13.87,2.84,23.56-12.58c9.69-15.42,8.82-21.76,8.82-21.76l9.56,15.98s2.18-11.05-2.22-18.11c-4.4-7.06-9-5.62-9-5.62l-30.63,7.55-8.13,24.51,8.04,10.03Z"/>
                <path id="Path_4972" data-name="Path 4972" class="cls-25" d="m154.32,254.59s13.87,2.84,23.56-12.58c9.69-15.42,8.82-21.76,8.82-21.76l9.56,15.98s2.18-11.05-2.22-18.11c-4.4-7.06-9-5.62-9-5.62l-30.63,7.55-8.13,24.51,8.04,10.03Z"/>
                <path id="Path_4973" data-name="Path 4973" class="cls-6" d="m134.92,407s-.07,0-.11,0c-6.97-.81-29.78-3.84-30.62-8.78-.33-1.92,1.98-3.05,2.74-3.42,12.34-6.02,28.02,9.89,28.69,10.57.37.38.36.99-.02,1.36-.18.17-.42.27-.67.27m-21.97-11.63c-1.79-.02-3.56.38-5.17,1.15-1.45.71-1.71,1.23-1.68,1.37.38,2.24,13.27,5.15,26,6.82-3.72-3.25-11.68-9.34-19.14-9.34"/>
                <path id="Path_4974" data-name="Path 4974" class="cls-6" d="m195.49,237.25c-.08,0-.15,0-.23-.03l-2.98-.72c-.52-.13-.83-.65-.71-1.16s.65-.83,1.16-.71l2.98.72c.52.12.84.63.72,1.15-.1.44-.5.75-.95.75"/>
                <path id="Path_4975" data-name="Path 4975" class="cls-6" d="m177.6,240.16c-.53,0-.96-.43-.96-.96,0-.39.23-.74.59-.89l6.94-2.91c.49-.21,1.05.03,1.26.52.21.49-.03,1.05-.52,1.26l-6.94,2.91c-.12.05-.24.08-.37.07"/>
                <path id="Path_4976" data-name="Path 4976" class="cls-6" d="m191.98,265.25c-.53,0-.96-.43-.97-.96,0-.25.09-.49.27-.67,4.49-4.68-1.12-13.2-1.18-13.29-.28-.45-.15-1.04.3-1.33.43-.27,1.01-.16,1.3.26.27.4,6.53,9.89.97,15.69-.18.19-.43.3-.69.3"/>
                <path id="Path_4977" data-name="Path 4977" class="cls-6" d="m154.43,269.42c-.23,0-.46-.08-.63-.24l-10.95-9.47c-.39-.36-.41-.97-.05-1.36.34-.37.92-.41,1.31-.1l10.95,9.47c.4.35.45.95.1,1.36-.18.21-.45.33-.73.33"/>
                <path id="Path_4978" data-name="Path 4978" class="cls-6" d="m142.73,269.84c-.53,0-.96-.43-.96-.96,0-.38.22-.72.56-.87l7.95-3.67c.48-.23,1.05-.02,1.28.46.23.48.02,1.05-.46,1.28,0,0,0,0-.01,0l-7.95,3.67c-.13.06-.26.09-.4.09"/>
                <path id="Path_4979" data-name="Path 4979" class="cls-1" d="m155.19,301.59s-3.07.31-3.43,2.24c-.36,1.92,11.53,34.73,20.81,37.67,9.28,2.94,16.54-26.04,16.98-25.54s17.08,12.85,18.86,12.45-5.92-14.63-10.77-20.21c-2.33-2.85-4.99-5.43-7.91-7.67,0,0,.58,6.77.53,8.22-.05,1.45-5.8,4.65-16.01,3-14.6-2.36-19.07-10.15-19.07-10.15"/>
                <path id="Path_4980" data-name="Path 4980" class="cls-25" d="m155.19,301.59s-3.07.31-3.43,2.24c-.36,1.92,11.53,34.73,20.81,37.67,9.28,2.94,16.54-26.04,16.98-25.54s17.08,12.85,18.86,12.45-5.92-14.63-10.77-20.21c-2.33-2.85-4.99-5.43-7.91-7.67,0,0,.58,6.77.53,8.22-.05,1.45-5.8,4.65-16.01,3-14.6-2.36-19.06-10.15-19.06-10.15Z"/>
                <path id="Path_4981" data-name="Path 4981" class="cls-6" d="m179.25,254.13c-.5,0-.91-.38-.96-.87l-.63-6.59c-.03-.32.1-.64.36-.85l3.77-2.99c.42-.33,1.02-.26,1.35.15.33.42.26,1.02-.15,1.35l-3.36,2.66.58,6.07c.05.53-.33,1-.86,1.05,0,0,0,0,0,0h-.09"/>
                <path id="Path_4982" data-name="Path 4982" class="cls-6" d="m196.51,252.16c-.49,0-.91-.38-.96-.87l-.63-6.59c-.03-.31.1-.62.34-.83l2.86-2.42c.42-.33,1.02-.26,1.35.15.32.4.27.98-.11,1.32l-2.48,2.09.59,6.08c.05.53-.34,1-.87,1.05h-.09"/>
                <path id="Path_4983" data-name="Path 4983" class="cls-6" d="m246.63,396.84s-.07,0-.11,0c-.53-.06-.91-.53-.85-1.06,4.75-43.29-14.47-56.78-14.66-56.91-.43-.31-.53-.91-.22-1.34.3-.41.86-.52,1.29-.26.84.56,20.4,14.16,15.51,58.72-.05.49-.46.86-.96.86"/>
                <path id="Path_4984" data-name="Path 4984" class="cls-6" d="m179.93,410.57s-.05,0-.08,0l-45.01-3.57c-.53-.04-.93-.51-.88-1.04h0c.03-.52.47-.91.99-.89.02,0,.03,0,.05,0l45.01,3.57c.53.03.93.49.9,1.02-.03.51-.46.91-.97.9"/>
                <path id="Path_4985" data-name="Path 4985" class="cls-6" d="m183.06,277.96c-.61,0-1.22-.1-1.8-.28-4.66-1.46-4.63-7-4.63-7.23,0-.3.15-.58.39-.76.24-.18.56-.23.85-.14l10.74,3.25c.51.15.8.69.64,1.2-.03.08-.06.16-.11.24-.11.17-2.43,3.73-6.08,3.73m-4.37-6.16c.2,1.83,1.42,3.4,3.15,4.04,1.79.44,3.68-.19,4.85-1.62l-7.99-2.42Z"/>
                <path id="Path_4986" data-name="Path 4986" class="cls-6" d="m353.87,326.87c-.53-.01-.95-.45-.94-.99.01-.5.41-.91.91-.94,8.55-.3,14.47-2.51,17.62-6.57,1.98-2.62,2.8-5.94,2.27-9.18-.11-.52.21-1.03.73-1.15s1.03.21,1.15.73c.66,3.8-.29,7.7-2.63,10.77-3.51,4.53-9.93,6.99-19.07,7.32h-.04"/>
                <path id="Path_4987" data-name="Path 4987" class="cls-1" d="m363.25,368.09l-30.22-54.07c-.51-.91-.18-2.05.73-2.56l13.97-7.81c.91-.51,2.05-.18,2.56.73l30.22,54.07c.51.91.18,2.05-.73,2.56l-13.97,7.81c-.91.51-2.05.18-2.56-.72,0,0,0,0,0,0"/>
                <path id="Path_4988" data-name="Path 4988" class="cls-25" d="m363.25,368.09l-30.22-54.07c-.51-.91-.18-2.05.73-2.56l13.97-7.81c.91-.51,2.05-.18,2.56.73l30.22,54.07c.51.91.18,2.05-.73,2.56l-13.97,7.81c-.91.51-2.05.18-2.56-.72,0,0,0,0,0,0Z"/>
                <path id="Path_4989" data-name="Path 4989" class="cls-2" d="m467.58,302.8s3.76.94,4.66,2.35.65,6.98.65,6.98c0,0,38.41,3.71,77.2,47.56,39.24,44.36,44.31,70.91,31.34,90.25-17.14,25.55-76.11,18.65-76.11,18.65,0,0-14.21,2.09-64.82,1.31-46.76-.71-72.83-1.31-72.83-1.31,0,0-80.53,19.41-74.12-33.91,8.51-70.72,93.37-116.09,109.77-122.55,9.06-3.53,18.63-5.55,28.35-5.98,0,0,.74-2.72,1.55-3.19,4.32-2.51,34.38-.16,34.38-.16"/>
                <path id="Path_4990" data-name="Path 4990" class="cls-25" d="m467.58,302.8s3.76.94,4.66,2.35.65,6.98.65,6.98c0,0,38.41,3.71,77.2,47.56,39.24,44.36,44.31,70.91,31.34,90.25-17.14,25.55-76.11,18.65-76.11,18.65,0,0-14.21,2.09-64.82,1.31-46.76-.71-72.83-1.31-72.83-1.31,0,0-80.53,19.41-74.12-33.91,8.51-70.72,93.37-116.09,109.77-122.55,9.06-3.53,18.63-5.55,28.35-5.98,0,0,.74-2.72,1.55-3.19,4.32-2.51,34.38-.16,34.38-.16Z"/>
                <path id="Path_4991" data-name="Path 4991" class="cls-6" d="m896.46,220.32s37.27,41.56,29.45,88.97c-7.06,42.81-70.17,24.2-70.17,24.2l-30.17-7.15s-10.43-25.18,4.86-49.43c15.29-24.25,66.04-56.58,66.04-56.58"/>
                <path id="Path_4992" data-name="Path 4992" class="cls-25" d="m896.46,220.32s37.27,41.56,29.45,88.97c-7.06,42.81-70.17,24.2-70.17,24.2l-30.17-7.15s-10.43-25.18,4.86-49.43c15.29-24.25,66.04-56.58,66.04-56.58Z"/>
                <path id="Path_4993" data-name="Path 4993" class="cls-16" d="m467.53,254.35s17.53-7.49,18.9,6.09c1.58,15.73-17.22,15.87-17.22,15.87l-1.68-21.96Z"/>
                <path id="Path_4994" data-name="Path 4994" class="cls-6" d="m476.26,268.44c-.17,0-.34-.05-.48-.13-.46-.27-.61-.86-.35-1.32l5.85-10.03c.28-.45.87-.59,1.33-.31.43.27.58.83.34,1.28l-5.85,10.03c-.17.3-.49.48-.83.48"/>
                <path id="Path_4995" data-name="Path 4995" class="cls-17" d="m552.83,328.78s20.98-37.75,25.05-35.84c4.07,1.91-50.34,83.9-52.78,82.73-2.44-1.17,27.73-46.9,27.73-46.9"/>
                <path id="Path_4996" data-name="Path 4996" class="cls-6" d="m483.07,265.43l-5.02-.08c-.53,0-.95-.45-.95-.98,0,0,0,0,0,0,0-.52.43-.95.95-.95,0,0,.02,0,.02,0l5,.08c.53,0,.96.44.95.97,0,.53-.44.96-.97.95"/>
                <path id="Path_4997" data-name="Path 4997" class="cls-16" d="m435.92,291.75l-.15,18.41c4.98,2.46,10.44,3.81,15.99,3.98,11.99.2,16.04-6.91,16.04-6.91l-.09-21.58-31.8,6.11Z"/>
                <path id="Path_4998" data-name="Path 4998" class="cls-25" d="m435.92,291.75l-.15,18.41c4.98,2.46,10.44,3.81,15.99,3.98,11.99.2,16.04-6.91,16.04-6.91l-.09-21.58-31.8,6.11Z"/>
                <path id="Path_4999" data-name="Path 4999" class="cls-6" d="m435.92,291.72s5.75,14.9,19.36,12.87c10.98-1.64,14.11-17.2,14.11-17.2l-33.48,4.33Z"/>
                <path id="Path_5000" data-name="Path 5000" class="cls-16" d="m473.11,239.29s7.69,33.7-1.96,48.62c-10.35,16-27.02,11.23-33.26,6.43-5.02-3.86-8.59-9.3-10.14-15.45,0,0-11.57,2.3-15.42-7.13-4.05-9.91,3.15-17.9,8.94-18.38,5.79-.48,6.46.58,6.46.58l-1.7-10.58s35.17-39.09,47.08-4.09"/>
                <path id="Path_5001" data-name="Path 5001" class="cls-25" d="m473.11,239.29s7.69,33.7-1.96,48.62c-10.35,16-27.02,11.23-33.26,6.43-5.02-3.86-8.59-9.3-10.14-15.45,0,0-11.57,2.3-15.42-7.13-4.05-9.91,3.15-17.9,8.94-18.38,5.79-.48,6.46.58,6.46.58l-1.7-10.58s35.18-39.09,47.08-4.09Z"/>
                <path id="Path_5002" data-name="Path 5002" class="cls-6" d="m425.83,269.16c-.23,0-.45-.08-.63-.23l-8.93-7.66c-.42-.33-.48-.94-.15-1.35.33-.42.94-.48,1.35-.15.02.01.04.03.05.05l8.93,7.66c.4.35.45.95.11,1.36-.18.21-.45.34-.73.34"/>
                <path id="Path_5003" data-name="Path 5003" class="cls-6" d="m417.58,270.57c-.53,0-.96-.43-.96-.96,0-.3.14-.59.38-.77l5.27-3.96c.42-.32,1.03-.23,1.35.19.32.42.23,1.03-.19,1.35l-5.27,3.96c-.17.13-.37.19-.58.19"/>
                <path id="Path_5004" data-name="Path 5004" class="cls-6" d="m443.23,259.85c-.51,0-.93-.4-.96-.91l-.33-5.67c-.03-.53.37-.98.9-1.02.53-.03.98.37,1.02.9l.33,5.67c.03.53-.37.98-.9,1.02h-.06"/>
                <path id="Path_5005" data-name="Path 5005" class="cls-6" d="m464.93,258.66c-.51,0-.93-.4-.96-.91l-.33-5.67c-.03-.53.37-.98.9-1.02.52-.02.97.38,1.02.9l.33,5.67c.03.53-.37.98-.9,1.02h-.06"/>
                <path id="Path_5006" data-name="Path 5006" class="cls-6" d="m454.91,273.7c-.06,0-.13,0-.19-.02-.52-.1-.86-.61-.76-1.13.98-5.13.6-10.43-1.1-15.37-.2-.49.04-1.05.53-1.25.49-.2,1.05.04,1.25.53,0,0,0,0,0,0,1.86,5.28,2.27,10.97,1.2,16.46-.09.45-.48.78-.94.78"/>
                <path id="Path_5007" data-name="Path 5007" class="cls-6" d="m467.78,246.41c-.19,0-.38-.06-.54-.17-1.71-1.16-4.55-1.08-5.5-.95-.53.07-1.01-.3-1.08-.83-.07-.53.3-1.01.83-1.08.17-.02,4.18-.54,6.84,1.26.44.3.55.9.26,1.34-.18.26-.48.42-.8.42"/>
                <path id="Path_5008" data-name="Path 5008" class="cls-6" d="m440.18,249.75c-.53,0-.96-.43-.96-.96,0-.21.07-.42.2-.59,1.97-2.54,5.95-3.29,6.11-3.32.53-.08,1.02.28,1.1.8.08.51-.25.99-.75,1.09-.03,0-3.42.65-4.94,2.61-.18.23-.46.37-.76.37"/>
                <path id="Path_5009" data-name="Path 5009" class="cls-5" d="m902.23,311.63c-7.26-7.96-48.69-16.35-76.85-1.44-1.43.63-2.79,1.42-4.03,2.36-.97.63-1.92,1.28-2.85,1.97-1.34,1.02-2.54,2.21-3.58,3.53-16.12,15.42-39.93,47.57-52.16,57.89-15.4,12.99-41.25,31.32-41.25,31.32,0,0-15.02,22.46,15.78,40.09,23.25,13.31,52.69-1.67,65.74-9.81,3.17,22.56,12.61,11.52,12.61,11.52l4.37,19.82.31,9.18s131.2,17.42,138.27-42.26c10.2-86.15-56.34-124.17-56.34-124.17"/>
                <path id="Path_5010" data-name="Path 5010" class="cls-25" d="m902.23,311.63c-7.26-7.96-48.69-16.35-76.85-1.44-1.43.63-2.79,1.42-4.03,2.36-.97.63-1.92,1.28-2.85,1.97-1.34,1.02-2.54,2.21-3.58,3.53-16.12,15.42-39.93,47.57-52.16,57.89-15.4,12.99-41.25,31.32-41.25,31.32,0,0-15.02,22.46,15.78,40.09,23.25,13.31,52.69-1.67,65.74-9.81,3.17,22.56,12.61,11.52,12.61,11.52l4.37,19.82.31,9.18s131.2,17.42,138.27-42.26c10.19-86.14-56.34-124.17-56.34-124.17Z"/>
                <path id="Path_5011" data-name="Path 5011" class="cls-6" d="m425.05,254.02s3.64,10.39,4.98,9.97c1.35-.43-.92-16.81-4.83-17.47-3.91-.66-.15,7.51-.15,7.51"/>
                <path id="Path_5012" data-name="Path 5012" class="cls-6" d="m426.7,252.49s11.6-1.55,19.11-7.98c3.91-3.46,6.85-7.89,8.53-12.83,0,0,4.98-.89,12.33,3.15,7.35,4.04,8.58,17.57,8.58,17.57,0,0,12.05-23.63,5.37-31.45s-16.63-.56-16.63-.56c0,0,1.08-15.11-19.43-8.27-20.51,6.84-24.38,25.03-24.38,25.03,0,0-7.13-.27-7.68,6.35s2.45,13.17,2.45,13.17c2.11-1.92,5.1-2.52,7.78-1.56l4.83,1.52-.87-4.14Z"/>
                <path id="Path_5013" data-name="Path 5013" class="cls-25" d="m426.7,252.49s11.6-1.55,19.11-7.98c3.91-3.46,6.85-7.89,8.53-12.83,0,0,4.98-.89,12.33,3.15,7.35,4.04,8.58,17.57,8.58,17.57,0,0,12.05-23.63,5.37-31.45s-16.63-.56-16.63-.56c0,0,1.08-15.11-19.43-8.27-20.51,6.84-24.38,25.03-24.38,25.03,0,0-7.13-.27-7.68,6.35s2.45,13.17,2.45,13.17c2.11-1.92,5.1-2.52,7.78-1.56l4.83,1.52-.87-4.14Z"/>
                <path id="Path_5014" data-name="Path 5014" class="cls-15" d="m469.56,302.3s-4.29,4.28-15.02,5.52-20.86-5.46-20.86-5.46l-5.89,11.73,17.98,7.52,28.51-4.78-1.05-11.23-3.67-3.3Z"/>
                <path id="Path_5015" data-name="Path 5015" class="cls-25" d="m469.56,302.3s-4.29,4.28-15.02,5.52-20.86-5.46-20.86-5.46l-5.89,11.73,17.98,7.52,28.51-4.78-1.05-11.23-3.67-3.3Z"/>
                <path id="Path_5016" data-name="Path 5016" class="cls-6" d="m395.78,404.06c-.12,0-.25-.02-.36-.07-.38-.15-38.43-15.38-69.78-1.6-.49.21-1.05,0-1.27-.49-.21-.49,0-1.05.49-1.27,32.1-14.12,70.89,1.42,71.28,1.58.49.2.73.76.53,1.26-.15.36-.5.6-.89.6"/>
                <path id="Path_5017" data-name="Path 5017" class="cls-6" d="m366.08,396.55c-.09,0-.18-.01-.27-.04-5.18-1.53-22.15-6.88-22.72-11.42-.1-1.09.51-2.11,1.51-2.55,7.22-4.33,20.7,10.69,22.21,12.41.35.4.31,1.01-.09,1.36-.18.16-.4.24-.64.24m-18.48-12.87c-.71-.02-1.4.16-2.02.51-.23.14-.62.41-.59.66.25,2,8.93,5.83,17.9,8.74-4.17-4.21-10.86-9.91-15.29-9.91"/>
                <path id="Path_5018" data-name="Path 5018" class="cls-16" d="m573.65,334.64c-4.61-8.27-35.17-14.5-39.2-5.55-1.76,3.91,3.1,7.15,9.13,9.57-5.83-.08-10.66,1.17-12.11,4.37-1.63,3.62,2.43,6.68,7.84,9.03-5.96-.11-11.07,1.14-12.35,4.36-.84,2.12.43,3.94,2.76,5.46.04,7.02,2.14,18.83,15.9,18.3,14.45-.56,18.77-15.97,20.04-23.93,3.91-1.14,7.41-3.36,5.01-7.66-1.08-1.94-3.61-3.77-6.88-5.32,4.65-.57,13.29-2.47,9.86-8.62"/>
                <path id="Path_5019" data-name="Path 5019" class="cls-25" d="m573.65,334.64c-4.61-8.27-35.17-14.5-39.2-5.55-1.76,3.91,3.1,7.15,9.13,9.57-5.83-.08-10.66,1.17-12.11,4.37-1.63,3.62,2.43,6.68,7.84,9.03-5.96-.11-11.07,1.14-12.35,4.36-.84,2.12.43,3.94,2.76,5.46.04,7.02,2.14,18.83,15.9,18.3,14.45-.56,18.77-15.97,20.04-23.93,3.91-1.14,7.41-3.36,5.01-7.66-1.08-1.94-3.61-3.77-6.88-5.32,4.66-.57,13.3-2.47,9.86-8.62Z"/>
                <path id="Path_5020" data-name="Path 5020" class="cls-6" d="m565.62,344.27c-.05,0-.1-.01-.15-.02l-23.25-4.91c-.52-.11-.85-.62-.74-1.14.11-.52.62-.85,1.14-.74,0,0,0,0,0,0l23.25,4.91c.52.12.84.64.72,1.16-.1.44-.51.75-.96.74"/>
                <path id="Path_5021" data-name="Path 5021" class="cls-6" d="m562.76,356.79c-.05,0-.1,0-.15-.01l-23.48-3.67c-.53-.06-.91-.53-.86-1.06s.53-.91,1.06-.86c.03,0,.06,0,.1.02l23.48,3.67c.53.08.89.57.81,1.1-.07.47-.48.82-.95.82"/>
                <path id="Path_5022" data-name="Path 5022" class="cls-6" d="m451.04,283.52c-2,0-5.12-.79-7.34-5.11-.23-.48-.03-1.05.45-1.29.46-.22,1.02-.05,1.26.41,2.7,5.27,6.76,3.97,6.93,3.91.5-.18,1.05.09,1.23.59s-.09,1.05-.59,1.23c-.63.19-1.28.28-1.94.27"/>
                <path id="Path_5023" data-name="Path 5023" class="cls-6" d="m835.72,251.02s-6.99-16.29-5.65-23.44c1.34-7.15,29.67-28.18,53.41-16.76,23.74,11.42,24.97,42.83,19.43,55.75-14.27,33.27-42.9,17.53-42.9,17.53,0,0-45.74-14.55-24.3-33.08"/>
                <path id="Path_5024" data-name="Path 5024" class="cls-25" d="m835.72,251.02s-6.99-16.29-5.65-23.44c1.34-7.15,29.67-28.18,53.41-16.76,23.74,11.42,24.97,42.83,19.43,55.75-14.27,33.27-42.9,17.53-42.9,17.53,0,0-45.74-14.55-24.29-33.08Z"/>
                <path id="Path_5025" data-name="Path 5025" class="cls-16" d="m839.4,288.89l-.03.65-.11,12.24-.13,9.59s-.94,2.18,10.24,2.06c14.99-.22,20.14-6.38,20.14-6.38l1.84-22.4-4.57.62-27.39,3.62Z"/>
                <path id="Path_5026" data-name="Path 5026" class="cls-25" d="m839.4,288.89l-.03.65-.11,12.24-.13,9.59s-.94,2.18,10.24,2.06c14.99-.22,20.14-6.38,20.14-6.38l1.84-22.4-4.57.62-27.39,3.62Z"/>
                <path id="Path_5027" data-name="Path 5027" class="cls-6" d="m839.37,289.53l-.11,12.23c7.3-.49,20.68-2.92,26.62-14.05.41-.76.71-1.57.9-2.42l-27.36,4.05-.05.18Z"/>
                <path id="Path_5028" data-name="Path 5028" class="cls-16" d="m837.78,230.86s-15.59,31.03-11.55,49.16c4.04,18.12,20.46,16.19,30.38,13.26,9.92-2.93,14.76-8.65,14.76-8.65,5.6,1.98,11.83.14,15.46-4.56,6.54-8.13,3.31-18.04-1.76-20.54-5.07-2.5-11.45.91-11.45.91l5.34-8.98s-17.83-48.03-41.18-20.6"/>
                <path id="Path_5029" data-name="Path 5029" class="cls-25" d="m837.78,230.86s-15.59,31.03-11.55,49.16c4.04,18.12,20.46,16.19,30.38,13.26,9.92-2.93,14.76-8.65,14.76-8.65,5.6,1.98,11.83.14,15.46-4.56,6.54-8.13,3.31-18.04-1.76-20.54-5.07-2.5-11.45.91-11.45.91l5.34-8.98s-17.83-48.03-41.18-20.6Z"/>
                <path id="Path_5030" data-name="Path 5030" class="cls-6" d="m873.62,260.44s-13.54-7.76-18.09-17.99c-4.55-10.23-4.5-15.25-4.5-15.25,0,0-2.34,6.46-7.47,7.76-2.71.74-5.48,1.19-8.28,1.33l-3.67,9.16,3.15-22.11s14.05-6.68,15.89-6.59,24.79,5.33,26.07,6.78,7.72,19.78,7.72,19.78l.12,8.15-10.94,8.98Z"/>
                <path id="Path_5031" data-name="Path 5031" class="cls-25" d="m873.62,260.44s-13.54-7.76-18.09-17.99c-4.55-10.23-4.5-15.25-4.5-15.25,0,0-2.34,6.46-7.47,7.76-2.71.74-5.48,1.19-8.28,1.33l-3.67,9.16,3.15-22.11s14.05-6.68,15.89-6.59,24.79,5.33,26.07,6.78,7.72,19.78,7.72,19.78l.12,8.15-10.94,8.98Z"/>
                <path id="Path_5032" data-name="Path 5032" class="cls-16" d="m836.3,433.21c-4.46-1.02-8.81-2.48-12.98-4.36-7.22-3.2-36.53-4.15-46.59-4.56-10.06-.41-35.61,10.11-32.89,13.58,2.72,3.47,26.14.84,26.14.84,0,0-20.15,15.06-17.59,18.75,2.56,3.69,10,.49,10,.49,0,0-6.32,4.45-.96,7.03,4.45,2.14,20.97-6.35,26.47-9.3.22-.12.49-.04.61.18.08.15.07.34-.03.48-2.84,3.95-9.48,13.74-6.57,15.44,3.66,2.14,19.99-10.73,19.99-10.73,0,0,17,15.73,29.21,7,12.21-8.73,15.87-16.33,15.87-16.33l-10.69-18.51Z"/>
                <path id="Path_5033" data-name="Path 5033" class="cls-25" d="m836.3,433.21c-4.46-1.02-8.81-2.48-12.98-4.36-7.22-3.2-36.53-4.15-46.59-4.56-10.06-.41-35.61,10.11-32.89,13.58,2.72,3.47,26.14.84,26.14.84,0,0-20.15,15.06-17.59,18.75,2.56,3.69,10,.49,10,.49,0,0-6.32,4.45-.96,7.03,4.45,2.14,20.97-6.35,26.47-9.3.22-.12.49-.04.61.18.08.15.07.34-.03.48-2.84,3.95-9.48,13.74-6.57,15.44,3.66,2.14,19.99-10.73,19.99-10.73,0,0,17,15.73,29.21,7,12.21-8.73,15.87-16.33,15.87-16.33l-10.69-18.51Z"/>
                <path id="Path_5034" data-name="Path 5034" class="cls-9" d="m435.92,367.11v-7.96c8.4-2.04,17.07-2.72,25.69-2,8.82.75,17.34,3.53,24.91,8.12,8.96-4.51,18.66-7.35,28.64-8.38,15.47-1.29,24.5,0,24.5,0l-1.68,10.22-54.92,10.53-47.14-10.54Z"/>
                <path id="Path_5035" data-name="Path 5035" class="cls-25" d="m435.92,367.11v-7.96c8.4-2.04,17.07-2.72,25.69-2,8.82.75,17.34,3.53,24.91,8.12,8.96-4.51,18.66-7.35,28.64-8.38,15.47-1.29,24.5,0,24.5,0l-1.68,10.22-54.92,10.53-47.14-10.54Z"/>
                <path id="Path_5036" data-name="Path 5036" class="cls-12" d="m226.36,467.26h93.91c5.78,0,10.47-4.69,10.47-10.47s-4.69-10.47-10.47-10.47h-93.91c-.66,0-1.2.54-1.2,1.2h0v18.54c0,.66.54,1.2,1.2,1.2h0"/>
                <path id="Path_5037" data-name="Path 5037" class="cls-25" d="m226.36,467.26h93.91c5.78,0,10.47-4.69,10.47-10.47s-4.69-10.47-10.47-10.47h-93.91c-.66,0-1.2.54-1.2,1.2h0v18.54c0,.66.54,1.2,1.2,1.2h0Z"/>
                <path id="Path_5038" data-name="Path 5038" class="cls-22" d="m223.38,467.26h72.67c5.78,0,10.47-4.69,10.47-10.47s-4.69-10.47-10.47-10.47h-72.67c-1.65,0-2.98,1.33-2.98,2.98h0v14.98c0,1.65,1.33,2.98,2.98,2.98h0"/>
                <path id="Path_5039" data-name="Path 5039" class="cls-25" d="m223.38,467.26h72.67c5.78,0,10.47-4.69,10.47-10.47s-4.69-10.47-10.47-10.47h-72.67c-1.65,0-2.98,1.33-2.98,2.98h0v14.98c0,1.65,1.33,2.98,2.98,2.98h0Z"/>
                <path id="Path_5040" data-name="Path 5040" class="cls-9" d="m220.4,463.22h75.97c3.67,0,6.65-2.98,6.65-6.65s-2.98-6.65-6.65-6.65h-75.97v13.29Z"/>
                <path id="Path_5041" data-name="Path 5041" class="cls-25" d="m220.4,463.22h75.97c3.67,0,6.65-2.98,6.65-6.65s-2.98-6.65-6.65-6.65h-75.97v13.29Z"/>
                <path id="Path_5042" data-name="Path 5042" class="cls-5" d="m540.86,363.71l-15.48,106.2h-106.2l15.48-106.2h106.2Z"/>
                <path id="Path_5043" data-name="Path 5043" class="cls-25" d="m540.86,363.71l-15.48,106.2h-106.2l15.48-106.2h106.2Z"/>
                <path id="Path_5044" data-name="Path 5044" class="cls-14" d="m490.9,363.71l-13.11,106.2h-10.3l13.11-106.2h10.3Z"/>
                <path id="Path_5045" data-name="Path 5045" class="cls-25" d="m490.9,363.71l-13.11,106.2h-10.3l13.11-106.2h10.3Z"/>
                <path id="Path_5046" data-name="Path 5046" class="cls-16" d="m399.18,414.72s15.01-32.12,17.41-34.41c2.4-2.29,30.38-11.79,34.18-11.6s-2.17,8.67-5.17,11.06c-2.99,2.39-6.86,4.98-6.86,4.98,0,0,20.94,0,22.89,3.54,1.95,3.54-3.66,6.8-3.66,6.8,0,0,7.49.64,4.81,5.45-2.69,4.81-23.24,10.19-23.24,10.19,0,0-3.93,20.43-17.75,25.27s-20.3,3.47-20.3,3.47l-2.31-24.74Z"/>
                <path id="Path_5047" data-name="Path 5047" class="cls-25" d="m399.18,414.72s15.01-32.12,17.41-34.41c2.4-2.29,30.38-11.79,34.18-11.6s-2.17,8.67-5.17,11.06c-2.99,2.39-6.86,4.98-6.86,4.98,0,0,20.94,0,22.89,3.54,1.95,3.54-3.66,6.8-3.66,6.8,0,0,7.49.64,4.81,5.45-2.69,4.81-23.24,10.19-23.24,10.19,0,0-3.93,20.43-17.75,25.27s-20.3,3.47-20.3,3.47l-2.31-24.74Z"/>
                <path id="Path_5048" data-name="Path 5048" class="cls-6" d="m422.74,387.19c-.53,0-.96-.43-.96-.96,0-.5.38-.91.88-.96l16.01-1.49c.53-.05,1,.34,1.05.87s-.34,1-.87,1.05l-16.01,1.49h-.09"/>
                <path id="Path_5049" data-name="Path 5049" class="cls-6" d="m431.74,397.86c-.53,0-.96-.44-.95-.97,0-.5.4-.92.9-.95l15.39-.81c.52,0,.97.39,1.01.91.03.53-.38.98-.91,1.01l-15.39.81h-.05"/>
                <path id="Path_5050" data-name="Path 5050" class="cls-6" d="m767.42,396.58c-.55,0-1.1-.14-1.59-.4-4.63-2.41-6.95-15.91-7.19-17.44-.08-.53.27-1.02.8-1.1.26-.04.52.02.73.18,1.23.94,12.03,9.3,11.47,14.92-.18,1.57-1.22,2.9-2.68,3.48-.48.24-1,.36-1.53.37m-6.4-15.61c.99,4.72,3.05,12.12,5.7,13.5.43.25.96.25,1.4.01,1.33-.64,1.55-1.41,1.6-1.94.32-3.18-5.06-8.48-8.7-11.57"/>
                <path id="Path_5051" data-name="Path 5051" class="cls-6" d="m818.5,425.22c-.53,0-.96-.43-.96-.97,0-.43.28-.8.69-.92l73.65-21.45-1.09-19.53c-.03-.53.37-.98.9-1.01,0,0,0,0,0,0,.53-.02.98.38,1.01.91l1.14,20.3c.02.45-.26.85-.69.98l-74.39,21.66c-.09.03-.18.04-.27.04"/>
                <path id="Path_5052" data-name="Path 5052" class="cls-6" d="m804.67,419.44c-.51,0-.93-.4-.96-.91l-1.63-31.01c-.6-1.41-4.29-10.74-3.3-26.46,1.06-16.76,9.81-30.05,10.18-30.61.32-.43.92-.52,1.35-.2.4.29.51.84.25,1.27-.09.13-8.84,13.44-9.86,29.66-1.02,16.26,3.16,25.62,3.21,25.71.05.11.08.23.09.35l1.64,31.19c.03.53-.38.98-.91,1.01h-.05"/>
                <path id="Path_5053" data-name="Path 5053" class="cls-6" d="m912.36,412.57c-5.64,0-17.57-8.42-20.09-10.25-.43-.31-.53-.91-.21-1.34.2-.28.54-.43.88-.39,1.86.19,18.26,2.01,21.83,6.87.63.8.88,1.84.68,2.84-.16.93-.8,1.71-1.69,2.05-.44.16-.92.24-1.39.23m-15.73-9.56c6.06,4.04,13.98,8.49,16.42,7.54.28-.1.47-.35.5-.64.09-.47-.04-.95-.35-1.32-2.05-2.8-10.68-4.68-16.57-5.58"/>
                <path id="Path_5054" data-name="Path 5054" class="cls-6" d="m763.25,458.31c-.53,0-.96-.43-.96-.96,0-.32.15-.61.42-.79l21.17-14.66c.44-.3,1.04-.2,1.34.24.3.44.2,1.04-.24,1.34l-21.17,14.66c-.16.11-.35.17-.54.17"/>
                <path id="Path_5055" data-name="Path 5055" class="cls-6" d="m769.98,439.67c-.53,0-.96-.43-.96-.96,0-.34.18-.66.47-.83l9.35-5.5c.46-.27,1.05-.11,1.31.35.26.45.11,1.04-.34,1.31l-9.35,5.5c-.15.09-.32.13-.49.14"/>
                <path id="Path_5056" data-name="Path 5056" class="cls-2" d="m631.67,463.63h120.5c1.93,0,3.5-1.57,3.5-3.5,0-.6-.15-1.19-.45-1.71l-41.24-77.72c-.62-1.1-1.79-1.78-3.05-1.78h-120.5c-1.93,0-3.5,1.57-3.5,3.5,0,.6.15,1.19.45,1.71l41.24,77.72c.62,1.1,1.79,1.78,3.05,1.78"/>
                <path id="Path_5057" data-name="Path 5057" class="cls-25" d="m631.67,463.63h120.5c1.93,0,3.5-1.57,3.5-3.5,0-.6-.15-1.19-.45-1.71l-41.24-77.72c-.62-1.1-1.79-1.78-3.05-1.78h-120.5c-1.93,0-3.5,1.57-3.5,3.5,0,.6.15,1.19.45,1.71l41.24,77.72c.62,1.1,1.79,1.78,3.05,1.78Z"/>
                <path id="Path_5058" data-name="Path 5058" class="cls-10" d="m629.4,469.57h147.42c.9,0,1.63-.73,1.63-1.63v-7.99c0-.9-.73-1.63-1.63-1.63h-147.42c-.9,0-1.63.73-1.63,1.63h0v8c0,.9.73,1.63,1.63,1.63"/>
                <rect id="Rectangle_1420" data-name="Rectangle 1420" class="cls-25" x="627.76" y="458.31" width="150.68" height="11.26" rx="1.65" ry="1.65"/>
                <path id="Path_5059" data-name="Path 5059" class="cls-5" d="m670.55,470h-122.74c-3.84,0-6.95-3.11-6.95-6.95h0v-7.04c0-3.84,3.11-6.95,6.95-6.95h122.74c1.37,0,2.47,1.11,2.47,2.47h0v15.99c0,1.37-1.11,2.47-2.47,2.47h0"/>
                <path id="Path_5060" data-name="Path 5060" class="cls-25" d="m670.55,470h-122.74c-3.84,0-6.95-3.11-6.95-6.95h0v-7.04c0-3.84,3.11-6.95,6.95-6.95h122.74c1.37,0,2.47,1.11,2.47,2.47h0v15.99c0,1.37-1.11,2.47-2.47,2.47h0Z"/>
                <path id="Path_5061" data-name="Path 5061" class="cls-14" d="m686.51,470.22h-108.26c-3.61,0-6.54-2.93-6.54-6.54h0v-7.86c0-3.61,2.93-6.54,6.54-6.54h108.26c1.29,0,2.33,1.04,2.33,2.33h0v16.28c0,1.29-1.04,2.33-2.33,2.33h0"/>
                <path id="Path_5062" data-name="Path 5062" class="cls-25" d="m686.51,470.22h-108.26c-3.61,0-6.54-2.93-6.54-6.54h0v-7.86c0-3.61,2.93-6.54,6.54-6.54h108.26c1.29,0,2.33,1.04,2.33,2.33h0v16.28c0,1.29-1.04,2.33-2.33,2.33h0Z"/>
                <path id="Path_5063" data-name="Path 5063" class="cls-19" d="m688.84,466.18h-105.72c-3.67,0-6.65-2.98-6.65-6.65s2.98-6.65,6.65-6.65h105.72v13.29Z"/>
                <path id="Path_5064" data-name="Path 5064" class="cls-25" d="m688.84,466.18h-105.72c-3.67,0-6.65-2.98-6.65-6.65s2.98-6.65,6.65-6.65h105.72v13.29Z"/>
                <path id="Path_5065" data-name="Path 5065" class="cls-12" d="m550.93,449.44h116.86c5.78,0,10.47-4.69,10.47-10.47s-4.69-10.47-10.47-10.47h-116.86c-.15,0-.27.12-.27.27v20.39c0,.15.12.27.27.27"/>
                <path id="Path_5066" data-name="Path 5066" class="cls-25" d="m550.93,449.44h116.86c5.78,0,10.47-4.69,10.47-10.47s-4.69-10.47-10.47-10.47h-116.86c-.15,0-.27.12-.27.27v20.39c0,.15.12.27.27.28h0Z"/>
                <path id="Path_5067" data-name="Path 5067" class="cls-22" d="m548.17,449.44h90.34c5.78,0,10.47-4.69,10.47-10.47s-4.69-10.47-10.47-10.47h-90.34c-1.81,0-3.28,1.47-3.28,3.28h0v14.38c0,1.81,1.47,3.28,3.28,3.28h0"/>
                <path id="Path_5068" data-name="Path 5068" class="cls-25" d="m548.17,449.44h90.34c5.78,0,10.47-4.69,10.47-10.47s-4.69-10.47-10.47-10.47h-90.34c-1.81,0-3.28,1.47-3.28,3.28h0v14.38c0,1.81,1.47,3.28,3.28,3.28Z"/>
                <path id="Path_5069" data-name="Path 5069" class="cls-11" d="m544.89,445.41h93.21c3.67,0,6.65-2.98,6.65-6.65s-2.98-6.65-6.65-6.65h-93.21v13.29Z"/>
                <path id="Path_5070" data-name="Path 5070" class="cls-25" d="m544.89,445.41h93.21c3.67,0,6.65-2.98,6.65-6.65s-2.98-6.65-6.65-6.65h-93.21v13.29Z"/>
                <path id="Path_5071" data-name="Path 5071" class="cls-5" d="m560.5,428.68h93.91c5.78,0,10.47-4.69,10.47-10.47s-4.69-10.47-10.47-10.47h-93.91c-.66,0-1.2.54-1.2,1.2h0v18.55c0,.66.54,1.2,1.2,1.2h0"/>
                <path id="Path_5072" data-name="Path 5072" class="cls-25" d="m560.5,428.68h93.91c5.78,0,10.47-4.69,10.47-10.47s-4.69-10.47-10.47-10.47h-93.91c-.66,0-1.2.54-1.2,1.2h0v18.55c0,.66.54,1.19,1.2,1.19Z"/>
                <path id="Path_5073" data-name="Path 5073" class="cls-14" d="m557.52,428.68h72.67c5.78,0,10.47-4.69,10.47-10.47s-4.69-10.47-10.47-10.47h-72.67c-1.65,0-2.98,1.33-2.98,2.98v14.98c0,1.65,1.33,2.98,2.98,2.98"/>
                <path id="Path_5074" data-name="Path 5074" class="cls-25" d="m557.52,428.68h72.67c5.78,0,10.47-4.69,10.47-10.47s-4.69-10.47-10.47-10.47h-72.67c-1.65,0-2.98,1.33-2.98,2.98v14.98c0,1.65,1.33,2.98,2.98,2.98h0Z"/>
                <path id="Path_5075" data-name="Path 5075" class="cls-19" d="m554.54,424.63h75.97c3.67,0,6.65-2.98,6.65-6.65s-2.98-6.65-6.65-6.65h-75.97v13.29Z"/>
                <path id="Path_5076" data-name="Path 5076" class="cls-25" d="m554.54,424.63h75.97c3.67,0,6.65-2.98,6.65-6.65s-2.98-6.65-6.65-6.65h-75.97v13.29Z"/>
                <path id="Path_5077" data-name="Path 5077" class="cls-6" d="m630.7,389.47h-40.85c-.53,0-.96-.43-.96-.97,0-.53.43-.96.96-.96h40.85c.53,0,.96.43.97.96,0,.53-.43.96-.96.97h0"/>
                <path id="Path_5078" data-name="Path 5078" class="cls-6" d="m841.13,282.66c-.85,0-1.69-.26-2.37-.78-1.24-1.11-2.04-2.62-2.27-4.27-.06-.47.22-.91.67-1.05l12.91-3.97c.51-.16,1.05.13,1.2.64.08.27.04.57-.11.81-.53.81-5.25,7.9-9.24,8.55-.26.04-.52.06-.78.07m-2.55-4.52c.21.85.68,1.62,1.33,2.2.49.35,1.11.48,1.7.35,1.92-.31,4.51-3.12,6.29-5.42l-9.32,2.86Z"/>
                <path id="Path_5079" data-name="Path 5079" class="cls-6" d="m836.85,270.99c-.42,0-.79-.27-.92-.67-2.52-7.76,3.85-13.8,4.12-14.05.39-.36,1-.33,1.36.06.35.39.33.98-.05,1.35-.06.05-5.74,5.46-3.6,12.04.16.51-.11,1.05-.62,1.21-.1.03-.2.05-.3.05"/>
                <path id="Path_5080" data-name="Path 5080" class="cls-6" d="m834.52,257.94c-.53,0-.96-.43-.96-.96,0-.06,0-.13.02-.19l1.11-5.55-2.14-3.02c-.3-.44-.19-1.04.24-1.34.43-.3,1.02-.2,1.33.23l2.38,3.37c.15.22.21.48.16.74l-1.19,5.96c-.09.45-.48.77-.94.77"/>
                <path id="Path_5081" data-name="Path 5081" class="cls-16" d="m206.23,418.84s29.55-4.79,40.63-5.96c12.19-1.28,18.95,5.48,23.1,10.05,7.05,7.78,7.19,23.32,6.2,25.98-1.5,4.05-8.92-4.24-8.92-4.24,0,0,.73,3.24-2.77,6.15-2,1.72-4.61,2.55-7.23,2.31,0,0,.58,6.2-2.6,6.58-3.18.38-16.65,3.52-17.98-.29-1.33-3.81,8.65-8.6,8.65-8.6l-2.07-6.58s-5.57,13.24-17.79,13.38c-12.22.14-18.62-13.33-18.62-13.33l-.59-25.45Z"/>
                <path id="Path_5082" data-name="Path 5082" class="cls-24" d="m206.23,418.84s29.55-4.79,40.63-5.96c12.19-1.28,18.95,5.48,23.1,10.05,7.05,7.78,7.19,23.32,6.2,25.98-1.5,4.05-8.92-4.24-8.92-4.24,0,0,.73,3.24-2.77,6.15-2,1.72-4.61,2.55-7.23,2.31,0,0,.58,6.2-2.6,6.58-3.18.38-16.65,3.52-17.98-.29-1.33-3.81,8.65-8.6,8.65-8.6l-2.07-6.58s-5.57,13.24-17.79,13.38c-12.22.14-18.62-13.33-18.62-13.33l-.59-25.45Z"/>
                <path id="Path_5083" data-name="Path 5083" class="cls-6" d="m851.55,259.46c-.53,0-.96-.43-.96-.96,0-.06,0-.13.02-.19l1.11-5.55-2.14-3.02c-.3-.44-.19-1.04.24-1.34.43-.3,1.02-.2,1.33.23l2.38,3.37c.15.22.21.48.16.74l-1.19,5.96c-.09.45-.48.77-.94.77"/>
                <path id="Path_5084" data-name="Path 5084" class="cls-6" d="m257.43,454.3c-.53.05-1-.34-1.05-.87-.01-.12,0-.24.03-.36,1.79-6.22-3.91-13.08-3.97-13.15-.35-.4-.31-1.01.09-1.36.4-.35,1.01-.31,1.36.09,0,0,.01.01.02.02.26.31,6.42,7.71,4.35,14.92-.11.38-.44.65-.83.69"/>
                <path id="Path_5085" data-name="Path 5085" class="cls-1" d="m192.56,468.34v-61.94c0-1.04.84-1.88,1.88-1.88h16c1.04,0,1.88.84,1.88,1.88v61.94c0,1.04-.84,1.88-1.88,1.88h-16c-1.04,0-1.88-.84-1.88-1.88"/>
                <path id="Rectangle_1421" data-name="Rectangle 1421" class="cls-25" d="m194.46,404.52h15.97c1.05,0,1.9.85,1.9,1.9v61.9c0,1.05-.85,1.9-1.9,1.9h-15.97c-1.05,0-1.9-.85-1.9-1.9v-61.9c0-1.05.85-1.9,1.9-1.9h0Z"/>
                <path id="Path_5086" data-name="Path 5086" class="cls-6" d="m832.46,244.3c-.53,0-.96-.43-.96-.96,0-.21.07-.42.2-.59,2.15-2.75,5.77-1.86,7.39-1,.46.26.63.84.37,1.31-.25.45-.81.62-1.27.39-.14-.07-3.28-1.68-4.97.49-.18.23-.46.37-.76.37"/>
                <path id="Path_5087" data-name="Path 5087" class="cls-6" d="m858.09,245.66c-.17,0-.33-.04-.48-.13-4.44-2.56-7.52-1.36-7.65-1.31-.49.2-1.05-.04-1.25-.53-.19-.48.03-1.03.5-1.24.16-.07,4.03-1.67,9.36,1.41.46.26.63.85.37,1.31-.17.31-.5.49-.85.49"/>
                <path id="Path_5088" data-name="Path 5088" class="cls-6" d="m874.54,275.8c-.53,0-.96-.43-.96-.96,0-.25.1-.49.27-.67l9.16-9.52c.36-.39.96-.43,1.36-.07.39.36.43.96.07,1.36-.01.02-.03.03-.04.05l-9.16,9.52c-.18.19-.43.3-.69.3"/>
                <path id="Path_5089" data-name="Path 5089" class="cls-6" d="m884.69,273.56c-.07,0-.15,0-.22-.02l-6.55-1.5c-.52-.11-.85-.62-.74-1.14s.62-.85,1.14-.74c.01,0,.02,0,.03,0l6.55,1.5c.52.12.84.63.72,1.15-.1.44-.49.75-.94.75"/>
                <path id="Path_5090" data-name="Path 5090" class="cls-6" d="m266.83,448.61s-.1,0-.15-.01c-.52-.08-.88-.58-.8-1.1,1.15-7.48-6.44-13.65-6.52-13.71-.39-.36-.41-.97-.05-1.36.32-.35.86-.41,1.25-.14.35.28,8.54,6.92,7.22,15.51-.07.47-.48.81-.95.82"/>
              </g>
            </g>
          </g>
        </g>
      </g>
    </g>
  </g>
</svg>