<svg xmlns="http://www.w3.org/2000/svg" xmlns:xlink="http://www.w3.org/1999/xlink" width="1245" height="504" viewBox="0 0 1245 504">
  <defs>
    <clipPath id="clip-path">
      <rect id="Rectangle_413" data-name="Rectangle 413" width="1245" height="504" transform="translate(504.038 520.099)" fill="#fff" stroke="#707070" stroke-width="1"/>
    </clipPath>
  </defs>
  <g id="Mask_Group_16" data-name="Mask Group 16" transform="translate(-504.038 -520.099)" clip-path="url(#clip-path)">
    <g id="Group_388" data-name="Group 388" transform="translate(545.225 547.894)">
      <path id="Path_2291" data-name="Path 2291" d="M181.989,139.951s-27.628-21.746-38.552,14.5c.638-2.2-15.57-4.866-17.4-4.888-10.526-.132-20.063,6.39-25.582,15.306-7.107,11.482-15.919,35.162-1.671,45.018,1.612,1.115,14.108,2.865,13.81,2.03,0,0,12.851,35.984,53.333,9,0,0,41.048,1.585,36.267-24.268,0,0,19.636-48.985-20.2-56.7" transform="translate(-37.137 -54.372)" fill="#ff5c5c"/>
      <path id="Path_2292" data-name="Path 2292" d="M181.989,139.951s-27.628-21.746-38.552,14.5c.638-2.2-15.57-4.866-17.4-4.888-10.526-.132-20.063,6.39-25.582,15.306-7.107,11.482-15.919,35.162-1.671,45.018,1.612,1.115,14.108,2.865,13.81,2.03,0,0,12.851,35.984,53.333,9,0,0,41.048,1.585,36.267-24.268,0,0,19.636-48.985-20.2-56.7" transform="translate(-37.137 -54.372)" fill="#242424" stroke="#000" stroke-width="2"/>
      <path id="Path_2293" data-name="Path 2293" d="M238.553,484.946l20.221,93.519v.006l29.963,138.556,2.712,12.529,1.806,8.354,2.7,12.53,2.352,10.865h50.7q-.7-5.377-1.413-10.865-.81-6.207-1.62-12.53-.53-4.156-1.073-8.354-.8-6.225-1.6-12.529c-6.3-49.246-12.935-101.416-19.759-145.522-7.229-46.714-14.67-84.369-22.143-99.906l-39.1,8.3H262.3Z" transform="translate(-97.177 -192.109)" fill="#a62973"/>
      <path id="Path_2294" data-name="Path 2294" d="M159.876,563.518c.238,5.609,2.641,11.631,2.878,16.655l6.561,142.534.578,12.53.379,8.353.578,12.53.5,10.865h46.226l.54-10.865.623-12.53.411-8.353.623-12.53,6.876-138.556v-.006l4.9-98.6-1.362.039h-.013c-8.18.238-50.159,1.446-50.782,1.465-1.568.045-6.059,9.864-6.727,11.136a112.671,112.671,0,0,0-7.255,17.208c-5.089,15.563-6.213,31.852-5.532,48.128" transform="translate(-65.054 -197.789)" fill="#a62973"/>
      <path id="Path_2295" data-name="Path 2295" d="M335.695,352.876l3.389,2.119a48.037,48.037,0,0,0,25.466,7.305h0a48.037,48.037,0,0,0,29.4-10.051l67.26-52.064-17.992-25.31L387.64,307.9H340.225Z" transform="translate(-136.749 -111.971)" fill="#ffbfaa" stroke="#000" stroke-width="2"/>
      <path id="Path_2296" data-name="Path 2296" d="M305.868,175.508q2.729-.245,5.469-.289c13.791-.218,30.225,2.739,38.775,14.693,5.105,7.136,6.41,17.818,1.519,25.417-5.343,8.3-16.54,10.443-25.681,10.98a74.656,74.656,0,0,1-58.36-22.87c-1.335-1.394-4.618-4.029-5.113-5.965-1.1-4.292,7.24-8.818,10.89-11.11a73.823,73.823,0,0,1,32.5-10.856" transform="translate(-106.883 -71.37)" fill="#242424" stroke="#000" stroke-width="2"/>
      <path id="Path_2297" data-name="Path 2297" d="M178.734,383.219l92.744-10.459L287.35,310.05l5.175-6.407a57.717,57.717,0,0,0,12.817-36.267v-6.133a68.207,68.207,0,0,0-6.31-28.652,23.143,23.143,0,0,0-21-13.421H184.981A23.143,23.143,0,0,0,162,245.034Z" transform="translate(-65.926 -89.278)" fill="#672376"/>
      <path id="Path_2298" data-name="Path 2298" d="M253.971,200.412l43.817,36.446-9.516-36.446V147.984h-34.3Z" transform="translate(-103.458 -60.28)" fill="#fff" stroke="#000" stroke-width="2"/>
      <rect id="Rectangle_410" data-name="Rectangle 410" width="34.301" height="62.058" transform="translate(150.513 61.202)" fill="#ffbfaa" stroke="#000" stroke-width="2"/>
      <path id="Path_2299" data-name="Path 2299" d="M287.253,236.908h-34.3a1.482,1.482,0,0,1,0-2.963h34.3a1.482,1.482,0,0,1,0,2.963" transform="translate(-102.44 -95.297)"/>
      <path id="Path_2300" data-name="Path 2300" d="M245.558,87.021v13.536a39.783,39.783,0,0,0,39.783,39.783,27.525,27.525,0,0,0,27.525-27.525V92.432A31.581,31.581,0,0,0,281.285,60.85H271.73a26.172,26.172,0,0,0-26.172,26.172" transform="translate(-100.031 -24.785)" fill="#ffbfaa" stroke="#000" stroke-width="2"/>
      <path id="Path_2301" data-name="Path 2301" d="M253.063,47.158c0,11,39.839,11,39.839,0a19.919,19.919,0,0,0-39.839,0" transform="translate(-103.088 -11.093)" fill="#242424" stroke="#000" stroke-width="2"/>
      <path id="Path_2302" data-name="Path 2302" d="M343.339,285.643h47.415c-.324-7.414-1.006-14.9-1.047-22.289-.059-10.489-.122-22.329-6.63-31.1a32.079,32.079,0,0,0-25.261-13l-7.788-.09Z" transform="translate(-139.863 -89.278)" fill="#672376"/>
      <path id="Path_2303" data-name="Path 2303" d="M192.64,816.981a1.482,1.482,0,0,1-1.479-1.4l-4.979-95.84a1.482,1.482,0,0,1,2.96-.154l4.978,95.84a1.482,1.482,0,0,1-1.4,1.557l-.078,0" transform="translate(-75.843 -292.555)" fill="#2a0055"/>
      <path id="Path_2304" data-name="Path 2304" d="M235.142,83.951V111.03c26.34-9.738,41.5-22.866,46.932-38.943,5.794,12.114,17.4,18.906,32.722,22.3v-4.03c0-15.772-10.148-28.379-24.512-34.032-13.947-5.488-33.768-5.815-45.337,5.017a31.131,31.131,0,0,0-9.8,22.6" transform="translate(-95.788 -21.42)" fill="#242424" stroke="#000" stroke-width="2"/>
      <path id="Path_2305" data-name="Path 2305" d="M317.626,165.222c-2.569-.217-6.307-1.207-7.968-4.93,0,0-4.624,9.806,6.49,8.839,2.35-.2,3.932-3.7,1.478-3.909" transform="translate(-125.755 -65.294)" fill="#fff"/>
      <path id="Path_2306" data-name="Path 2306" d="M328.607,153.927h-4.765a1.482,1.482,0,1,1,0-2.963h4.765a.073.073,0,0,0,.069-.037.074.074,0,0,0,.009-.078l-2.31-5.834a1.482,1.482,0,0,1,2.755-1.09l2.31,5.834a3.046,3.046,0,0,1-2.833,4.168" transform="translate(-131.317 -58.245)"/>
      <path id="Path_2307" data-name="Path 2307" d="M329.225,142.879a1.482,1.482,0,0,1-1.378-.937l-1.77-4.47a1.481,1.481,0,0,1,2.755-1.09l1.77,4.47a1.483,1.483,0,0,1-1.377,2.027" transform="translate(-132.789 -55.172)"/>
      <path id="Path_2308" data-name="Path 2308" d="M252.042,61.07a1.482,1.482,0,0,1-.97-2.6c11.46-9.9,28.711-9.707,41.034-6.223A1.482,1.482,0,0,1,291.3,55.1c-11.051-3.125-27.711-3.53-38.29,5.614a1.478,1.478,0,0,1-.968.36" transform="translate(-102.069 -20.394)"/>
      <path id="Path_2309" data-name="Path 2309" d="M326.277,340.194a40.836,40.836,0,0,0-46.444,5.37l-18.115-60.53-192,57.459,57.46,192,60.53-18.115a40.806,40.806,0,1,1,70.937-21.229l60.53-18.115L301.063,416.5a40.809,40.809,0,0,0,25.214-76.307" transform="translate(-28.402 -116.109)" fill="#ee5064" stroke="#000" stroke-width="2"/>
      <path id="Path_2310" data-name="Path 2310" d="M165.659,647.3a1.482,1.482,0,0,1-.424-2.9l58.37-17.469a42.3,42.3,0,0,1,46.014-66.587,42.383,42.383,0,0,1,19.412,12.978,1.482,1.482,0,0,1-2.262,1.914,39.33,39.33,0,0,0-67.709,36.672,38.993,38.993,0,0,0,8.238,14.813,1.483,1.483,0,0,1-.683,2.4l-60.53,18.116a1.5,1.5,0,0,1-.425.062" transform="translate(-66.88 -227.439)"/>
      <path id="Path_2311" data-name="Path 2311" d="M126.3,232.951a1.482,1.482,0,0,1-.379-2.914c.329-.088,7.672-2.148,8.22-9a1.482,1.482,0,1,1,2.954.236c-.718,8.976-10.021,11.528-10.417,11.632a1.489,1.489,0,0,1-.378.049" transform="translate(-50.847 -89.482)"/>
      <path id="Path_2312" data-name="Path 2312" d="M224.077,482.313l10.958-.74a5.378,5.378,0,0,1,1.63,10.593L218.314,496.6Z" transform="translate(-88.932 -196.166)" fill="#ffbfaa" stroke="#000" stroke-width="2"/>
      <path id="Path_2313" data-name="Path 2313" d="M339.049,135.008a2.249,2.249,0,1,0,2.249-2.249,2.249,2.249,0,0,0-2.249,2.249" transform="translate(-138.116 -54.078)"/>
      <path id="Path_2314" data-name="Path 2314" d="M309.173,135.008a2.249,2.249,0,1,0,2.249-2.249,2.249,2.249,0,0,0-2.249,2.249" transform="translate(-125.945 -54.078)"/>
      <path id="Path_2315" data-name="Path 2315" d="M343.362,125.2a1.475,1.475,0,0,1-.836-.26c-.189-.128-4.573-3.047-8.036-.095a1.482,1.482,0,0,1-1.923-2.254c4.167-3.553,9.435-1.613,11.638-.092a1.482,1.482,0,0,1-.843,2.7" transform="translate(-135.263 -49.12)"/>
      <path id="Path_2316" data-name="Path 2316" d="M313.485,125.2a1.475,1.475,0,0,1-.836-.26c-.189-.129-4.574-3.047-8.036-.095a1.482,1.482,0,1,1-1.923-2.254c4.166-3.553,9.435-1.613,11.638-.092a1.482,1.482,0,0,1-.843,2.7" transform="translate(-123.092 -49.12)"/>
      <path id="Path_2317" data-name="Path 2317" d="M112.889,367.766,152.1,443.042H183.8L157.007,358.68l5.552-28.086h-45.4l-5.912,22.592a20.388,20.388,0,0,0,1.639,14.58" transform="translate(-45.048 -134.668)" fill="#ffbfaa" stroke="#000" stroke-width="2"/>
      <path id="Path_2318" data-name="Path 2318" d="M121.683,285.2h45.4l13.056-66.037-16.237.488A32.451,32.451,0,0,0,132.5,243.9Z" transform="translate(-49.569 -89.276)" fill="#672376" stroke="#000" stroke-width="2"/>
      <path id="Path_2319" data-name="Path 2319" d="M211.319,520.8H179.626a1.482,1.482,0,0,1,0-2.963h31.694a1.482,1.482,0,0,1,0,2.963" transform="translate(-72.569 -210.944)" fill="#fff"/>
      <path id="Path_2320" data-name="Path 2320" d="M169.023,484.582c-4.662,2.9,4.124,21.448,5.444,24.821,2.852,7.288,6.612,24.738,15.4,25.681a9.675,9.675,0,0,0,5.095-.839l3.028-1.4a5.776,5.776,0,0,0,5.787,3.324l3.143-.3a14.478,14.478,0,0,0,10.609-6.277l1.862,1.4a4.32,4.32,0,0,0,6.748-2.283,34.817,34.817,0,0,0-.013-18.968l-2.169-7.643a20.9,20.9,0,0,0-6.5-10.161l-8.5-7.283L195.576,468.26l-26.554,16.322" transform="translate(-68.302 -190.748)" fill="#ffbfaa" stroke="#000" stroke-width="2"/>
      <path id="Path_2321" data-name="Path 2321" d="M238.836,142.752h0A12.051,12.051,0,0,0,250.888,130.7v-4.285a12.051,12.051,0,0,0-24.1,0V130.7a12.051,12.051,0,0,0,12.051,12.051" transform="translate(-92.384 -46.585)" fill="#ffbfaa" stroke="#000" stroke-width="2"/>
      <path id="Path_2322" data-name="Path 2322" d="M247.2,139.638a1.477,1.477,0,0,1-1.108-.5l-6.987-7.861a1.481,1.481,0,1,1,2.215-1.968l6.988,7.861a1.482,1.482,0,0,1-1.107,2.466" transform="translate(-97.248 -52.47)"/>
      <path id="Path_2323" data-name="Path 2323" d="M186.115,176.76a1.481,1.481,0,0,1-1.482-1.482c0-3.713-3.907-6.838-7.184-8.807a1.481,1.481,0,1,1,1.525-2.54c5.64,3.387,8.622,7.311,8.622,11.347a1.481,1.481,0,0,1-1.482,1.482" transform="translate(-71.993 -66.69)"/>
      <path id="Path_2324" data-name="Path 2324" d="M312.834,772.378a1.483,1.483,0,0,1-1.439-1.133L272.41,610.516a1.482,1.482,0,1,1,2.88-.7l38.985,160.73a1.483,1.483,0,0,1-1.441,1.831" transform="translate(-110.953 -247.952)" fill="#2a0055"/>
      <path id="Path_2325" data-name="Path 2325" d="M504.663,248.491V212.833a2.152,2.152,0,0,1,3.333-1.8,20.044,20.044,0,0,1,8.979,15.115l.484,5.887,21.573-34.353a3.408,3.408,0,0,1,5.22-.672l21.09,19.808a7.458,7.458,0,0,1,.913,9.84L547,252.983a69.758,69.758,0,0,1-23.983,20.632l-.358.187Z" transform="translate(-205.58 -79.874)" fill="#ffbfaa" stroke="#000" stroke-width="2"/>
      <path id="Path_2326" data-name="Path 2326" d="M572.58,255.672a1.482,1.482,0,0,1-1.194-2.357l17.135-23.4a1.482,1.482,0,0,1,2.391,1.751l-17.135,23.4a1.479,1.479,0,0,1-1.2.606" transform="translate(-232.644 -93.409)" fill="#2a0055"/>
      <path id="Path_2327" data-name="Path 2327" d="M563.183,241.055a1.482,1.482,0,0,1-1.192-2.359L578.9,215.72a1.481,1.481,0,0,1,2.386,1.756l-16.9,22.975a1.481,1.481,0,0,1-1.195.6" transform="translate(-228.817 -87.627)" fill="#2a0055"/>
      <path id="Path_2328" data-name="Path 2328" d="M547.282,233.959a1.481,1.481,0,0,1-1.223-2.315l17.876-26.265a1.482,1.482,0,0,1,2.45,1.667l-17.877,26.265a1.478,1.478,0,0,1-1.226.648" transform="translate(-222.339 -83.397)" fill="#2a0055"/>
      <path id="Path_2329" data-name="Path 2329" d="M550.377,284.71a1.478,1.478,0,0,1-1.185-.591c-.055-.072-3.567-4.631-8.444-5.1-2.7-.262-5.4.794-8.017,3.137a1.481,1.481,0,0,1-1.978-2.206c3.265-2.926,6.733-4.231,10.3-3.878,6.2.612,10.331,6.04,10.5,6.271a1.482,1.482,0,0,1-1.185,2.37" transform="translate(-216.008 -112.434)" fill="#2a0055"/>
      <path id="Path_2330" data-name="Path 2330" d="M530.434,262.35a1.456,1.456,0,0,1-.256-.022,1.481,1.481,0,0,1-1.206-1.713c.16-.919-2.141-2.615-4.306-3.518a1.482,1.482,0,0,1,1.137-2.736c1.131.469,6.741,3,6.088,6.763a1.482,1.482,0,0,1-1.458,1.228" transform="translate(-213.358 -103.567)" fill="#2a0055"/>
      <path id="Path_2331" data-name="Path 2331" d="M181.151,378.449h-9.817a1.482,1.482,0,0,1,0-2.963h9.817a1.482,1.482,0,1,1,0,2.963" transform="translate(-69.191 -152.955)"/>
      <path id="Path_2332" data-name="Path 2332" d="M390.511,277.344a1.463,1.463,0,0,1-.242-.02,1.481,1.481,0,0,1-1.221-1.7c3.4-20.65-.087-45.979-15.771-52.787a1.482,1.482,0,0,1,1.181-2.718c8.2,3.561,14.028,11.721,16.844,23.6,2.252,9.494,2.5,21.3.671,32.391a1.483,1.483,0,0,1-1.46,1.241" transform="translate(-151.695 -89.614)" fill="#fff"/>
      <path id="Path_2333" data-name="Path 2333" d="M249.588,554.8a1.483,1.483,0,0,1-1.442-1.15l-2.177-9.458-3.424-17.666a1.482,1.482,0,0,1,2.909-.564l3.414,17.615,2.166,9.408a1.483,1.483,0,0,1-1.445,1.815" transform="translate(-98.792 -213.764)"/>
      <path id="Path_2334" data-name="Path 2334" d="M208.844,565.486a1.48,1.48,0,0,1-1.251-.686l-5.551-8.754-4.105-9.383a1.482,1.482,0,0,1,2.715-1.188l4.059,9.278,5.382,8.455a1.482,1.482,0,0,1-1.248,2.278" transform="translate(-80.581 -221.841)"/>
      <path id="Path_2335" data-name="Path 2335" d="M231.256,565.086a1.482,1.482,0,0,1-1.41-1.031l-4.681-14.627-3.5-8.747a1.481,1.481,0,1,1,2.751-1.1l3.554,8.9,4.7,14.676a1.483,1.483,0,0,1-1.411,1.934" transform="translate(-90.255 -219.422)"/>
      <path id="Path_2336" data-name="Path 2336" d="M1463.463,338.062h0a9.221,9.221,0,0,1-1.774-10.507,24.922,24.922,0,0,1,9.9-10.66l6.785,4.593.675,2.3Z" transform="translate(-595.063 -129.088)" fill="#ffbfaa"/>
      <path id="Path_2337" data-name="Path 2337" d="M1602.9,387.475a27.449,27.449,0,0,1-11.977,2.659l-79.032-30.488,22.1-24.8,28.354.2,4.15-49.119,49.371,18.735,2.667,56.743a27.444,27.444,0,0,1-15.63,26.074" transform="translate(-615.886 -116.471)" fill="#ffbfaa" stroke="#000" stroke-width="2"/>
      <path id="Path_2338" data-name="Path 2338" d="M1632.061,69.083a3.009,3.009,0,0,1,.714.175Z" transform="translate(-664.839 -28.139)" fill="#2a0055"/>
      <path id="Path_2339" data-name="Path 2339" d="M1700.055,196.189c-23.882,3.689-49.01,9.518-73.639,10.149a148.67,148.67,0,0,1-16.939-.478c-6.218-.549-12.97-1.723-18.541-4.835a22.571,22.571,0,0,1-6.334-5.116c-9.935-11.7-8.837-30.847-1.773-43.653,8.936-16.192,25.688-26.726,30.612-45.316,2.278-8.623,8.431-29.612-1.262-36.594a7.235,7.235,0,0,0-1.7-.966l90.38,21.906s-25.1,38.785,16.022,47.078,56.969,46.425-16.829,57.825" transform="translate(-642.548 -28.26)" fill="#262626" stroke="#000" stroke-width="2"/>
      <path id="Path_2340" data-name="Path 2340" d="M1728.1,62.424l-3.689,120.305h-37.2l1.273-12.081v-.005l3.184-30.15,8.233-78.068Z" transform="translate(-687.303 -25.426)" fill="#ffbfaa" stroke="#000" stroke-width="2"/>
      <path id="Path_2341" data-name="Path 2341" d="M1675.729,138.963h-.859a19.078,19.078,0,0,1-19.078-19.078V78.941h52.693v27.266a32.757,32.757,0,0,1-32.756,32.757" transform="translate(-674.507 -32.155)" fill="#ffbfaa" stroke="#000" stroke-width="2"/>
      <path id="Path_2342" data-name="Path 2342" d="M1726.077,425.022c19.559,25.31,58.337,49.5,54.183,85.3a64.2,64.2,0,0,0-.728,7.058c-.038,8,51.692,234.226,52.83,234.226h-47.08l-108.061-246.9,48.855-79.693" transform="translate(-683.236 -173.134)" fill="#ff5c5c"/>
      <path id="Path_2343" data-name="Path 2343" d="M1644.6,449.406c-3.156,27.649-3.093,58.731-.513,92.857,4.781,63.232,6.193,137.325,11.8,219.28h41.381l37.261-309.886Z" transform="translate(-668.966 -183.067)" fill="#ff5c5c"/>
      <path id="Path_2344" data-name="Path 2344" d="M1631.028,296.827v57.589l-42.368-17.131,6.888-45.772c5.571,3.113,12.323,4.287,18.541,4.836a148.69,148.69,0,0,0,16.939.478" transform="translate(-647.159 -118.748)" fill="#ee5064" stroke="#000" stroke-width="2"/>
      <path id="Path_2345" data-name="Path 2345" d="M1806.967,272.125l-7.183,5.536L1754.8,312.307l-7.395,5.7-14.5-11.981-8.749,35.572-.939,3.806-4.48,18.2-88.479.686-3.653-11.8-.827-2.674-11.265-36.451-3.783-12.239-6.4-20.718c-.105-.417-.2-.833-.287-1.249a37.816,37.816,0,0,1,8.937-33.109c.6-.68,1.237-1.343,1.894-1.982.891-.862,1.818-1.688,2.8-2.474l11.5-9.242,2.293-1.841,6.31-5.072,2.744-2.205,15.763-12.666-1.859,16.01,41.5-19.2,9.365,5.46,2.375,1.384,11.828,6.9,2.381,1.384,24.788,14.461,2.662,1.554,2.439,1.419,10.263,5.982,3.412,1.994Z" transform="translate(-653.089 -84.473)" fill="#ee5064" stroke="#000" stroke-width="2"/>
      <path id="Path_2346" data-name="Path 2346" d="M1624.639,356.115a9.6,9.6,0,0,0-8.722,5.6l3.782,12.24a9.514,9.514,0,0,0,4.94,1.373,9.605,9.605,0,0,0,0-19.211m0,16.466a6.861,6.861,0,1,1,6.861-6.861,6.871,6.871,0,0,1-6.861,6.861" transform="translate(-658.263 -145.065)" fill="#16f4d3"/>
      <path id="Path_2347" data-name="Path 2347" d="M1612.616,345.241a1.483,1.483,0,0,1-1.415-1.044l-9.3-30.1c-.008-.025-.014-.05-.021-.075q-.163-.646-.3-1.3a38.544,38.544,0,0,1,2.034-22.793,1.482,1.482,0,0,1,2.745,1.118,35.6,35.6,0,0,0-1.883,21.046q.127.582.272,1.164l9.291,30.058a1.483,1.483,0,0,1-1.416,1.92" transform="translate(-652.065 -117.73)"/>
      <path id="Path_2348" data-name="Path 2348" d="M1689.21,194.154l-3.184,30.15-4.841-22.318Z" transform="translate(-684.851 -79.088)" fill="#fff" stroke="#000" stroke-width="2"/>
      <path id="Path_2349" data-name="Path 2349" d="M1685.631,143.865h-4.765a3.046,3.046,0,0,1-2.832-4.168l2.309-5.834a1.481,1.481,0,0,1,2.755,1.09l-2.309,5.834a.084.084,0,0,0,.078.114h4.765a1.482,1.482,0,0,1,0,2.963" transform="translate(-683.479 -54.146)"/>
      <path id="Path_2350" data-name="Path 2350" d="M1683.383,132.817a1.482,1.482,0,0,1-1.377-2.027l1.77-4.47a1.482,1.482,0,0,1,2.755,1.091l-1.77,4.47a1.481,1.481,0,0,1-1.378.936" transform="translate(-685.142 -51.074)"/>
      <path id="Path_2351" data-name="Path 2351" d="M1673.72,124.946a2.249,2.249,0,1,1-2.249-2.249,2.249,2.249,0,0,1,2.249,2.249" transform="translate(-679.977 -49.979)"/>
      <path id="Path_2352" data-name="Path 2352" d="M1703.6,124.946a2.249,2.249,0,1,1-2.249-2.249,2.249,2.249,0,0,1,2.249,2.249" transform="translate(-692.148 -49.979)"/>
      <path id="Path_2353" data-name="Path 2353" d="M1663.7,115.142a1.482,1.482,0,0,1-.844-2.7c2.2-1.522,7.474-3.462,11.638.092a1.481,1.481,0,1,1-1.922,2.254c-3.5-2.98-7.987.06-8.031.092a1.474,1.474,0,0,1-.841.263" transform="translate(-677.125 -45.02)"/>
      <path id="Path_2354" data-name="Path 2354" d="M1693.579,115.143a1.482,1.482,0,0,1-.844-2.7c2.2-1.522,7.472-3.46,11.639.092a1.481,1.481,0,0,1-1.923,2.254c-3.5-2.98-7.988.06-8.032.092a1.474,1.474,0,0,1-.841.263" transform="translate(-689.295 -45.021)"/>
      <path id="Path_2355" data-name="Path 2355" d="M1668.161,73.673c7.951-.856,15.529-3.466,18-9.93,0,0-2.631,18.686,13.562,25.673,5.166,2.229,12.579,3.22,17.4-.308,7.627-5.59,5.622-16.986,3.661-24.825-8.816-35.257-49.49-41.763-78.1-26.764-10.457,5.482-17.045,16.5-7.229,26.18,8.192,8.081,21.535,11.177,32.71,9.975" transform="translate(-664.258 -12.199)" fill="#262626" stroke="#000" stroke-width="2"/>
      <path id="Path_2356" data-name="Path 2356" d="M1748.615,125.643h0a10,10,0,0,1-10-10v-3.557a10,10,0,0,1,20.008,0v3.557a10,10,0,0,1-10,10" transform="translate(-708.243 -41.58)" fill="#ffbfaa"/>
      <path id="Path_2357" data-name="Path 2357" d="M1755.492,123.024a1.477,1.477,0,0,1-.984-.374l-6.526-5.8a1.481,1.481,0,0,1,1.968-2.215l6.526,5.8a1.482,1.482,0,0,1-.985,2.589" transform="translate(-711.859 -46.542)"/>
      <path id="Path_2358" data-name="Path 2358" d="M1694.051,179.233a1.482,1.482,0,0,1-.174-2.953,31.2,31.2,0,0,0,14.856-5.912,1.482,1.482,0,0,1,1.765,2.381,34.18,34.18,0,0,1-16.27,6.474,1.507,1.507,0,0,1-.178.011" transform="translate(-689.489 -69.279)"/>
      <path id="Path_2359" data-name="Path 2359" d="M1689.358,218.8l37.168-26.484,7.181,16.97-44.35,16.833Z" transform="translate(-688.18 -78.34)" fill="#fff" stroke="#000" stroke-width="2"/>
      <path id="Path_2360" data-name="Path 2360" d="M1484.349,350.984h41.165l-18.936-56.83h-42.665Z" transform="translate(-596.342 -119.824)" fill="#2a0055"/>
      <path id="Path_2361" data-name="Path 2361" d="M1467.2,350.984h41.165l-18.936-56.83h-42.665Z" transform="translate(-589.356 -119.824)" fill="#aa5fff"/>
      <path id="Path_2362" data-name="Path 2362" d="M1502.748,335.069l-29.57-.316a9.381,9.381,0,0,0-9.17,11.775l5.419,20.52a15.3,15.3,0,0,0,14.311,11.384l26.527.829,2,.021a5.1,5.1,0,0,0,4.965-6.492l-9.622-34.007a5.1,5.1,0,0,0-4.856-3.714" transform="translate(-596.252 -136.362)" fill="#ffbfaa" stroke="#000" stroke-width="2"/>
      <path id="Path_2363" data-name="Path 2363" d="M1526.578,355.222h-.016l-20.325-.217a1.482,1.482,0,0,1,.015-2.963h.016l20.325.217a1.482,1.482,0,0,1-.015,2.963" transform="translate(-612.986 -143.406)" fill="#2a0055"/>
      <path id="Path_2364" data-name="Path 2364" d="M1532.792,373.011h-.016l-20.325-.217a1.482,1.482,0,0,1,.015-2.963h.016l20.325.217a1.482,1.482,0,0,1-.015,2.963" transform="translate(-615.517 -150.652)" fill="#2a0055"/>
      <path id="Path_2365" data-name="Path 2365" d="M1539.007,390.8h-.016l-20.324-.217a1.482,1.482,0,0,1,.014-2.963h.017l20.324.217a1.482,1.482,0,0,1-.015,2.963" transform="translate(-618.049 -157.899)" fill="#2a0055"/>
      <path id="Path_2366" data-name="Path 2366" d="M1673.6,393.637a6.422,6.422,0,0,1-3.665-1.678c-1.076-.813-1.769-1.29-2.294-1.053a1.372,1.372,0,0,1-1.125-2.5c2.049-.921,3.8.4,5.074,1.367,1.076.814,1.768,1.29,2.295,1.053s.63-1.071.737-2.416c.126-1.6.3-3.782,2.348-4.7s3.8.4,5.074,1.367c1.077.814,1.766,1.29,2.295,1.053s.631-1.071.739-2.417c.126-1.6.3-3.782,2.348-4.7s3.8.4,5.075,1.365c1.078.814,1.771,1.29,2.3,1.053a1.372,1.372,0,0,1,1.126,2.5c-2.051.921-3.8-.4-5.077-1.366-1.077-.814-1.769-1.288-2.3-1.053s-.631,1.071-.739,2.417c-.126,1.6-.3,3.782-2.349,4.7s-3.8-.4-5.074-1.367c-1.075-.812-1.766-1.291-2.295-1.053s-.631,1.071-.737,2.416c-.127,1.6-.3,3.782-2.348,4.7a3.406,3.406,0,0,1-1.409.311" transform="translate(-678.544 -154.263)" fill="#16f4d3"/>
      <path id="Path_2367" data-name="Path 2367" d="M1794.588,426.381l-.939,3.81a3.9,3.9,0,0,1-3.8.258c-1.992-1.01-2.08-3.167-2.146-4.742-.055-1.444-.143-2.152-.648-2.4s-1.125.088-2.327.895c-1.307.872-3.1,2.069-5.094,1.054s-2.08-3.167-2.146-4.742c-.055-1.444-.137-2.152-.642-2.41a1.37,1.37,0,1,1,1.24-2.442c2,1.015,2.08,3.167,2.146,4.742.06,1.444.143,2.151.648,2.41s1.125-.094,2.327-.895c1.307-.878,3.1-2.075,5.094-1.059s2.08,3.172,2.147,4.742c.049,1.323.12,2.141.641,2.41.505.258,1.131-.094,2.333-.895.357-.236.747-.5,1.169-.73" transform="translate(-723.512 -169.258)" fill="#16f4d3"/>
      <path id="Path_2368" data-name="Path 2368" d="M1745.91,281.141a6.421,6.421,0,0,1-3.665-1.678c-1.076-.814-1.768-1.291-2.3-1.053a1.372,1.372,0,1,1-1.124-2.5c2.047-.919,3.8.4,5.073,1.367,1.076.814,1.767,1.289,2.294,1.053s.631-1.071.738-2.416c.126-1.6.3-3.782,2.348-4.7s3.8.4,5.074,1.367c1.077.813,1.77,1.289,2.3,1.052s.631-1.071.738-2.416c.126-1.6.3-3.782,2.348-4.7s3.8.4,5.076,1.365c1.077.813,1.768,1.29,2.3,1.053a1.372,1.372,0,1,1,1.125,2.5c-2.046.92-3.8-.4-5.076-1.366-1.077-.813-1.767-1.29-2.3-1.053s-.631,1.072-.738,2.417c-.126,1.6-.3,3.782-2.348,4.7s-3.8-.4-5.075-1.367c-1.077-.814-1.77-1.291-2.3-1.053s-.63,1.071-.737,2.416c-.126,1.6-.3,3.782-2.348,4.7a3.4,3.4,0,0,1-1.409.311" transform="translate(-708.001 -108.436)" fill="#16f4d3"/>
      <path id="Path_2369" data-name="Path 2369" d="M1637.347,287.672a1.384,1.384,0,0,1-.949.379,1.353,1.353,0,0,1-.994-.423c-1.488-1.553-1.114-3.381-.845-4.72.252-1.252.313-1.812-.137-2.278s-1.01-.434-2.272-.23c-1.345.214-3.189.511-4.682-1.043s-1.114-3.386-.846-4.72c.253-1.251.313-1.811-.137-2.277s-1-.434-2.267-.231c-1.3.209-3.057.488-4.512-.878.6-.681,1.235-1.339,1.893-1.982.439.379,1,.341,2.185.148,1.345-.214,3.195-.51,4.682,1.043s1.12,3.381.846,4.72c-.253,1.252-.313,1.806.137,2.278s1.01.434,2.272.23c1.345-.214,3.189-.51,4.682,1.043s1.12,3.386.845,4.72c-.252,1.251-.313,1.811.138,2.278a1.377,1.377,0,0,1-.039,1.943" transform="translate(-659.806 -109.676)" fill="#16f4d3"/>
      <path id="Path_2370" data-name="Path 2370" d="M1664.241,452.986a1.377,1.377,0,0,1-1.323,1,1.278,1.278,0,0,1-.373-.055c-2.179-.615-2.64-2.849-2.975-4.479-.275-1.345-.5-2.234-1.032-2.388s-1.2.489-2.141,1.488c-1.141,1.213-2.705,2.871-4.885,2.251s-2.636-2.849-2.969-4.479c-.275-1.345-.5-2.24-1.033-2.393s-1.2.494-2.14,1.493a6.931,6.931,0,0,1-3.238,2.3l-.83-2.673c.527.077,1.169-.554,2.075-1.509,1.136-1.207,2.706-2.865,4.88-2.245s2.641,2.849,2.975,4.474c.274,1.345.493,2.239,1.031,2.393s1.2-.494,2.135-1.493c1.142-1.208,2.706-2.865,4.886-2.245s2.64,2.848,2.975,4.479c.274,1.345.5,2.24,1.037,2.388a1.376,1.376,0,0,1,.944,1.7" transform="translate(-668.604 -179.709)" fill="#16f4d3"/>
      <path id="Path_2371" data-name="Path 2371" d="M1760.62,377.243l-9.517-16.489a1.375,1.375,0,0,0-1.191-.686,1.358,1.358,0,0,0-1.186.686l-9.523,16.489a1.372,1.372,0,0,0,1.186,2.058h19.046a1.372,1.372,0,0,0,1.185-2.058m-17.855-.686,7.146-12.372,7.147,12.372Z" transform="translate(-708.409 -146.675)" fill="#16f4d3"/>
      <path id="Path_2372" data-name="Path 2372" d="M1700.992,290.587l-9.523-16.494a1.373,1.373,0,0,0-2.377,0l-9.523,16.494a1.372,1.372,0,0,0,1.191,2.058H1699.8a1.372,1.372,0,0,0,1.191-2.058m-17.855-.686,7.147-12.377,7.141,12.377Z" transform="translate(-684.119 -111.373)" fill="#16f4d3"/>
      <path id="Path_2373" data-name="Path 2373" d="M21.6,17.18,12.081.686A1.373,1.373,0,0,0,9.7.686L.181,17.18a1.372,1.372,0,0,0,1.191,2.058H20.414A1.372,1.372,0,0,0,21.6,17.18M3.749,16.494,10.9,4.116l7.141,12.377Z" transform="matrix(-0.087, 0.996, -0.996, -0.087, 989.36, 184.121)" fill="#16f4d3"/>
      <path id="Path_2374" data-name="Path 2374" d="M1655.625,236.334v8.717l-6.312-3.645-2.294,1.844,9.292,5.368a1.392,1.392,0,0,0,.686.181,1.366,1.366,0,0,0,1.373-1.373v-13.3Z" transform="translate(-670.933 -95.372)" fill="#16f4d3"/>
      <path id="Path_2375" data-name="Path 2375" d="M1890.933,324.3a1.367,1.367,0,0,0-1.087-.84l-18.865-2.58a1.372,1.372,0,0,0-1.455,1.883l7.2,17.625a1.368,1.368,0,0,0,1.081.84,1.1,1.1,0,0,0,.187.017,1.386,1.386,0,0,0,1.087-.532l11.664-15.056a1.358,1.358,0,0,0,.187-1.356m-12.564,12.85-5.406-13.228,14.156,1.932Z" transform="translate(-761.532 -130.707)" fill="#16f4d3"/>
      <path id="Path_2376" data-name="Path 2376" d="M1819.232,352.14a1.365,1.365,0,0,0-1.088-.837l-18.866-2.581a1.377,1.377,0,0,0-1.453,1.883l2.157,5.279,4,2.535-2.721-6.657,14.156,1.942-6.22,8.029,2.325,1.477,7.523-9.7a1.389,1.389,0,0,0,.186-1.366" transform="translate(-732.323 -142.048)" fill="#16f4d3"/>
      <path id="Path_2377" data-name="Path 2377" d="M1860,267.326l-12.932,3.15,2.673-9.133-2.443-1.422-3.529,12.07a1.362,1.362,0,0,0,.324,1.329,1.376,1.376,0,0,0,.994.428,1.683,1.683,0,0,0,.324-.039l18-4.391Z" transform="translate(-751.057 -105.879)" fill="#16f4d3"/>
      <path id="Path_2378" data-name="Path 2378" d="M1728.523,426.6a9.605,9.605,0,1,0,9.606,9.605,9.616,9.616,0,0,0-9.606-9.605m0,16.466a6.861,6.861,0,1,1,6.861-6.861,6.867,6.867,0,0,1-6.861,6.861" transform="translate(-700.221 -173.776)" fill="#16f4d3"/>
      <path id="Path_2379" data-name="Path 2379" d="M1827.66,294.95a9.605,9.605,0,1,0,9.606,9.605,9.62,9.62,0,0,0-9.606-9.605m0,16.466a6.861,6.861,0,1,1,6.861-6.861,6.871,6.871,0,0,1-6.861,6.861" transform="translate(-740.606 -120.148)" fill="#16f4d3"/>
      <path id="Path_2380" data-name="Path 2380" d="M1788.877,224.874a6.857,6.857,0,0,1-12.608-3.738,6.772,6.772,0,0,1,.78-3.167l-2.377-1.383a9.6,9.6,0,0,0,16.581,9.671Z" transform="translate(-722.466 -88.226)" fill="#16f4d3"/>
      <path id="Path_2381" data-name="Path 2381" d="M1633.627,338.137a40.8,40.8,0,1,1-63.353,38.332l-54.057,32.707,32.708,54.058a40.805,40.805,0,1,0,38.331,63.352l32.708,54.057L1791.431,476.9,1687.684,305.429Z" transform="translate(-616.165 -124.417)" fill="#aa5fff" stroke="#000" stroke-width="2"/>
      <path id="Path_2382" data-name="Path 2382" d="M1713.013,407.381a1.482,1.482,0,0,1-.768-2.749,39.344,39.344,0,0,0,1.6-66.284,1.482,1.482,0,0,1,.06-2.5l54.057-32.708a1.482,1.482,0,0,1,2.034.5l28.83,47.649a1.481,1.481,0,1,1-2.535,1.534l-28.063-46.381-50.861,30.774a42.3,42.3,0,0,1-3.591,69.948,1.472,1.472,0,0,1-.766.214" transform="translate(-697.212 -123.399)" fill="#2a0055"/>
      <path id="Path_2383" data-name="Path 2383" d="M1897.283,376.336l-75.354,84.907-27.075-17.106,42.081-80.392-4.064-3.126,44.978-34.645,14.8,11.382a27.443,27.443,0,0,1,4.633,38.979" transform="translate(-731.155 -132.786)" fill="#ffbfaa" stroke="#000" stroke-width="2"/>
      <path id="Path_2384" data-name="Path 2384" d="M1781.286,521.074l-15.585,6.77a24.551,24.551,0,0,0-8.3,18.4.381.381,0,0,0,.381.381h.318a29.658,29.658,0,0,0,17.668-5.837.38.38,0,0,1,.547.1l13.415,21.043a26.558,26.558,0,0,0,11.821,10.1c9.943,4.31,18.432,4.49,25.1-.522a.389.389,0,0,0,.156-.31c.022-11-3.321-23.648-12.333-39.077a.384.384,0,0,0-.232-.178l-32.6-10.956a.38.38,0,0,0-.351.082" transform="translate(-715.898 -212.224)" fill="#ffbfaa" stroke="#000" stroke-width="2"/>
      <path id="Path_2385" data-name="Path 2385" d="M1825.151,593.737a1.482,1.482,0,0,1-1.387-.962l-8.559-22.842a1.481,1.481,0,1,1,2.774-1.04l8.559,22.842a1.483,1.483,0,0,1-1.387,2" transform="translate(-739.406 -231.351)"/>
      <path id="Path_2386" data-name="Path 2386" d="M1844.9,595.979a1.482,1.482,0,0,1-1.387-.962l-8.559-22.842a1.481,1.481,0,1,1,2.774-1.039l8.56,22.842a1.483,1.483,0,0,1-1.388,2" transform="translate(-747.452 -232.264)"/>
      <path id="Path_2387" data-name="Path 2387" d="M1862.555,595.564a1.483,1.483,0,0,1-1.411-1.03l-6.466-20.185a1.482,1.482,0,0,1,2.822-.9l6.466,20.184a1.483,1.483,0,0,1-1.412,1.934" transform="translate(-755.496 -233.177)"/>
      <path id="Path_2388" data-name="Path 2388" d="M1375.746,539.557l-10.7,39.407h-36.355l2.922-39.407Z" transform="translate(-541.259 -219.791)" fill="#ffbfaa" stroke="#000" stroke-width="2"/>
      <path id="Path_2389" data-name="Path 2389" d="M1352.53,347.667l12.82,111.454h-38.3L1303.172,342.1Z" transform="translate(-530.863 -139.355)" fill="#ffbfaa" stroke="#000" stroke-width="2"/>
      <path id="Path_2390" data-name="Path 2390" d="M1398.964,539.557V550.44a6.233,6.233,0,0,1-12.377,1.048l-.9-5.265Z" transform="translate(-564.477 -219.791)" fill="#ffbfaa"/>
      <path id="Path_2391" data-name="Path 2391" d="M1391.712,557.136a7.7,7.7,0,0,1-7.6-6.417l-.9-5.265a1.482,1.482,0,1,1,2.921-.5l.9,5.264a4.751,4.751,0,0,0,9.434-.8V538.539a1.482,1.482,0,0,1,2.963,0v10.883a7.723,7.723,0,0,1-7.714,7.715" transform="translate(-563.458 -218.774)" fill="#2a0055"/>
      <path id="Path_2392" data-name="Path 2392" d="M1294.257,768.9h-66.586l-1.1-287.775h76Z" transform="translate(-499.657 -195.99)" fill="#2a0055"/>
      <path id="Path_2393" data-name="Path 2393" d="M1195.975,768.9h-66.586l-8.309-287.775h76Z" transform="translate(-456.685 -195.99)" fill="#2a0055"/>
      <path id="Path_2394" data-name="Path 2394" d="M1250.636,366.183H1112.121l-12.952-149.071a21.5,21.5,0,0,1,15.419-22.509l66.79-19.42,66.809,19.426a21.476,21.476,0,0,1,15.4,22.483Z" transform="translate(-447.726 -71.359)" fill="#aa5fff" stroke="#000" stroke-width="2"/>
      <path id="Path_2395" data-name="Path 2395" d="M1245.16,153.483h0a28.543,28.543,0,0,1-43.21,3l-2.964-3V98.95h46.174Z" transform="translate(-488.421 -40.305)" fill="#ffbfaa" stroke="#000" stroke-width="2"/>
      <path id="Path_2396" data-name="Path 2396" d="M1221.238,202.928a29.987,29.987,0,0,1-21.362-8.936l-2.964-3a1.482,1.482,0,0,1,2.109-2.081l2.964,3a27.061,27.061,0,0,0,40.967-2.848,1.481,1.481,0,1,1,2.376,1.77,29.988,29.988,0,0,1-22,12.022c-.7.049-1.4.073-2.091.073" transform="translate(-487.402 -76.771)"/>
      <path id="Path_2397" data-name="Path 2397" d="M1245.808,115.547h-43.954V56.636H1253.2v51.517a7.394,7.394,0,0,1-7.395,7.394" transform="translate(-489.59 -23.068)" fill="#ffbfaa" stroke="#000" stroke-width="2"/>
      <path id="Path_2398" data-name="Path 2398" d="M1188.922,68.735s-18.31-12.965-3.583-19.135c0,0-13.932-10.947,1.394-13.533,0,0-6.149-18.509,10.459-13.733,0,0,15.414-17.315,26.161.6,0,0,10.548-19.107,21.3-1.393,0,0,19.106,2.787,13.932,18.31,0,0,2.786,21.209-10.747,14.386,0,0,6.369,12.283-4.379,6.312,0,0-2.236-7.961,1-12.14,0,0-15.723,8.757-23.286,1.791,0,0-4.179,4.976-12.936.2,0,0-3.583,9.553-9.951,6.17,0,0-.553,22.2-9.354,12.169" transform="translate(-480.5 -5.704)" fill="#242424" stroke="#000" stroke-width="2"/>
      <path id="Path_2399" data-name="Path 2399" d="M1264.174,156.5h-15.754a1.482,1.482,0,1,1,0-2.963h15.754a1.482,1.482,0,0,1,0,2.963" transform="translate(-507.956 -62.544)"/>
      <path id="Path_2400" data-name="Path 2400" d="M1257.28,178.845l-7.448-3.328a1.482,1.482,0,0,1,1.208-2.706l5.916,2.643,3.576-2.5a1.482,1.482,0,1,1,1.7,2.427Z" transform="translate(-508.776 -70.341)"/>
      <path id="Path_2401" data-name="Path 2401" d="M1232.917,108.557a13.742,13.742,0,0,1-12.444-7.967,5.768,5.768,0,0,1,5.238-8.182h14.411a5.767,5.767,0,0,1,5.238,8.182,13.742,13.742,0,0,1-12.444,7.967m-7.205-13.186a2.8,2.8,0,0,0-2.547,3.978,10.739,10.739,0,0,0,19.506,0,2.8,2.8,0,0,0-2.547-3.978Z" transform="translate(-496.957 -37.64)" fill="#fff"/>
      <path id="Path_2402" data-name="Path 2402" d="M1279.4,108.557a13.744,13.744,0,0,1-12.444-7.967,5.768,5.768,0,0,1,5.239-8.182h14.41a5.768,5.768,0,0,1,5.239,8.182,13.742,13.742,0,0,1-12.444,7.967M1272.2,95.371a2.8,2.8,0,0,0-2.548,3.978,10.739,10.739,0,0,0,19.506,0,2.8,2.8,0,0,0-2.548-3.978Z" transform="translate(-515.893 -37.64)" fill="#fff"/>
      <path id="Path_2403" data-name="Path 2403" d="M1216.559,101.6h-7.192a1.482,1.482,0,0,1,0-2.963h7.192a1.482,1.482,0,1,1,0,2.963" transform="translate(-492.047 -40.179)" fill="#fff"/>
      <path id="Path_2404" data-name="Path 2404" d="M1190.217,110.022h0a10,10,0,0,1-10-10V96.462a10,10,0,0,1,20.007,0v3.557a10,10,0,0,1-10,10" transform="translate(-480.774 -35.217)" fill="#ffbfaa" stroke="#000" stroke-width="2"/>
      <path id="Path_2405" data-name="Path 2405" d="M1197.094,107.4a1.474,1.474,0,0,1-.984-.374l-6.525-5.8a1.482,1.482,0,1,1,1.969-2.215l6.526,5.8a1.482,1.482,0,0,1-.985,2.589" transform="translate(-484.389 -40.178)"/>
      <path id="Path_2406" data-name="Path 2406" d="M1264.824,101.6h-4.605a1.482,1.482,0,1,1,0-2.963h4.605a1.482,1.482,0,1,1,0,2.963" transform="translate(-512.761 -40.179)" fill="#fff"/>
      <path id="Path_2407" data-name="Path 2407" d="M1245.079,103.467a1.979,1.979,0,1,1-1.979-1.979,1.979,1.979,0,0,1,1.979,1.979" transform="translate(-505.585 -41.339)"/>
      <path id="Path_2408" data-name="Path 2408" d="M1286.4,103.467a1.979,1.979,0,1,1-1.979-1.979,1.979,1.979,0,0,1,1.979,1.979" transform="translate(-522.42 -41.339)"/>
      <path id="Path_2409" data-name="Path 2409" d="M1269.165,118.584h-6.652a1.482,1.482,0,1,1,0-2.963h4.373l-4.309-9.7a1.482,1.482,0,0,1,2.708-1.2l5.234,11.783a1.482,1.482,0,0,1-1.354,2.083" transform="translate(-513.696 -42.297)"/>
      <path id="Path_2410" data-name="Path 2410" d="M1350.5,231.035l19.7,75.368h-41.793l-13.325-72.445Z" transform="translate(-535.714 -94.112)" fill="#aa5fff" stroke="#000" stroke-width="2"/>
      <path id="Path_2411" data-name="Path 2411" d="M1365.887,323.4c-.042,0-.086,0-.13-.005a1.481,1.481,0,0,1-1.347-1.6l4.458-51.313a1.482,1.482,0,1,1,2.952.257l-4.459,51.312a1.48,1.48,0,0,1-1.474,1.354" transform="translate(-555.806 -109.629)"/>
      <path id="Path_2412" data-name="Path 2412" d="M1116.2,352.352a40.817,40.817,0,0,0,15.916-77.087c-.489-.251-.988-.5-1.488-.724l50.364-39.475,38.975,49.727a40.813,40.813,0,1,1,45.676,58.276l38.975,49.727-49.726,38.976a40.807,40.807,0,1,0-58.276,45.676l-49.727,38.976-123.628-157.73L1073.5,319.32c.1.54.221,1.083.348,1.618a40.84,40.84,0,0,0,42.355,31.413" transform="translate(-416.838 -95.754)" fill="#ff5c5c" stroke="#000" stroke-width="2"/>
      <path id="Path_2413" data-name="Path 2413" d="M1471.553,318.676a1.483,1.483,0,0,1-1.443-1.148,39.5,39.5,0,0,0-15.516-23.189,1.481,1.481,0,1,1,1.719-2.413A42.462,42.462,0,0,1,1473,316.861a1.483,1.483,0,0,1-1.111,1.777,1.5,1.5,0,0,1-.334.038" transform="translate(-592.292 -118.804)" fill="#fff"/>
      <path id="Path_2414" data-name="Path 2414" d="M1225.942,316.582a1.439,1.439,0,0,1-.18-.011,1.481,1.481,0,0,1-1.292-1.649,39.337,39.337,0,0,0-21.167-39.765c-.476-.244-.953-.479-1.433-.7l-2.215-1.012,53.446-41.891,38.5,49.118a42.433,42.433,0,0,1,22.869-18.785,1.482,1.482,0,0,1,.961,2.8,39.433,39.433,0,0,0-22.284,19.342l-1.054,2.069L1252.6,235.717l-47.348,37.111a42.3,42.3,0,0,1,22.162,42.451,1.482,1.482,0,0,1-1.469,1.3" transform="translate(-488.693 -94.324)" fill="#2a0055"/>
      <path id="Path_2415" data-name="Path 2415" d="M1086.484,342.1l-12.569,39.63a20.128,20.128,0,0,0,20.722,26.154l105.921-10.858-.587-31.08-53.448-5.934-7.589-6.375Z" transform="translate(-437.081 -139.356)" fill="#ffbfaa" stroke="#000" stroke-width="2"/>
      <path id="Path_2416" data-name="Path 2416" d="M1090.73,230.875l-15.1,75.464,71.981,8.364,1.257-35.7Z" transform="translate(-438.172 -94.046)" fill="#aa5fff" stroke="#000" stroke-width="2"/>
      <path id="Path_2417" data-name="Path 2417" d="M1196.076,352.875a1.482,1.482,0,0,1-1.448-1.8l6.338-28.969a1.482,1.482,0,0,1,2.895.633l-6.338,28.969a1.482,1.482,0,0,1-1.446,1.165" transform="translate(-486.632 -130.737)"/>
      <path id="Path_2418" data-name="Path 2418" d="M1201.875,132.549a10.513,10.513,0,0,1-4.626-1.249,1.482,1.482,0,0,1,1.433-2.594c.668.365,2.716,1.21,4.169.74a1.482,1.482,0,1,1,.911,2.82,6.13,6.13,0,0,1-1.888.283" transform="translate(-487.403 -52.352)"/>
      <path id="Path_2419" data-name="Path 2419" d="M1377.725,590.729l1.791-22.291Z" transform="translate(-561.233 -231.557)" fill="#f9aea6"/>
      <path id="Path_2420" data-name="Path 2420" d="M1376.708,591.193c-.04,0-.08,0-.12,0a1.481,1.481,0,0,1-1.358-1.6l1.791-22.291a1.482,1.482,0,0,1,2.954.238l-1.792,22.291a1.481,1.481,0,0,1-1.475,1.363" transform="translate(-560.214 -230.539)" fill="#2a0055"/>
      <path id="Path_2421" data-name="Path 2421" d="M1363.26,590.729l-1.99-22.291Z" transform="translate(-554.529 -231.557)" fill="#f9aea6"/>
      <path id="Path_2422" data-name="Path 2422" d="M1362.24,591.192a1.482,1.482,0,0,1-1.474-1.35l-1.99-22.291a1.482,1.482,0,0,1,2.952-.264l1.99,22.291a1.482,1.482,0,0,1-1.344,1.608c-.046,0-.09.006-.134.006" transform="translate(-553.51 -230.538)" fill="#2a0055"/>
      <path id="Path_2423" data-name="Path 2423" d="M1354.805,534.359s11.594-1.194,10.8-7.563Z" transform="translate(-551.896 -214.594)" fill="#f9aea6"/>
      <path id="Path_2424" data-name="Path 2424" d="M1353.784,534.821a1.481,1.481,0,0,1-.151-2.955c1.815-.191,6.935-1.2,8.818-3.574a2.948,2.948,0,0,0,.662-2.332,1.482,1.482,0,0,1,2.94-.368,5.89,5.89,0,0,1-1.286,4.548c-3.046,3.83-10.513,4.64-10.83,4.673a1.514,1.514,0,0,1-.153.008" transform="translate(-550.877 -213.574)" fill="#2a0055"/>
      <path id="Path_2425" data-name="Path 2425" d="M1239.451,375.521s-7.97,2.2-9.647,7.521Z" transform="translate(-500.975 -152.97)" fill="#f9aea6"/>
      <path id="Path_2426" data-name="Path 2426" d="M1228.783,383.5a1.482,1.482,0,0,1-1.414-1.927c1.9-6.022,10.311-8.4,10.668-8.5a1.481,1.481,0,0,1,.789,2.856c-.072.02-7.217,2.056-8.63,6.538a1.483,1.483,0,0,1-1.413,1.037" transform="translate(-499.955 -151.951)"/>
      <path id="Path_2427" data-name="Path 2427" d="M1214.333,375.521s-7.97,2.2-9.647,7.521Z" transform="translate(-490.743 -152.97)" fill="#f9aea6"/>
      <path id="Path_2428" data-name="Path 2428" d="M1203.667,383.5a1.483,1.483,0,0,1-1.414-1.927c1.9-6.022,10.311-8.4,10.668-8.5a1.481,1.481,0,0,1,.789,2.856c-.072.02-7.218,2.056-8.629,6.538a1.483,1.483,0,0,1-1.413,1.037" transform="translate(-489.724 -151.951)"/>
      <path id="Path_2429" data-name="Path 2429" d="M1238.082,857.656h-.055a1.481,1.481,0,0,1-1.427-1.534l5.738-159.327a1.481,1.481,0,1,1,2.961.107l-5.737,159.327a1.481,1.481,0,0,1-1.479,1.428" transform="translate(-503.743 -283.262)" fill="#fff"/>
      <path id="Path_2430" data-name="Path 2430" d="M1338.334,541.553h-.019c-10.058-.124-15.081-4.746-17.523-8.6a1.482,1.482,0,1,1,2.5-1.585c2.981,4.707,8.047,7.137,15.056,7.224a1.482,1.482,0,0,1-.017,2.963" transform="translate(-537.946 -216.174)" fill="#fff"/>
      <path id="Path_2431" data-name="Path 2431" d="M1100.086,221.925a1.483,1.483,0,0,1-1.4-1.979c.152-.424,3.829-10.43,13.964-13.682,8.228-2.64,18.109-.014,29.37,7.8a1.482,1.482,0,0,1-1.69,2.435c-10.449-7.254-19.445-9.752-26.745-7.426-8.737,2.785-12.075,11.779-12.108,11.869a1.485,1.485,0,0,1-1.4.98" transform="translate(-447.53 -83.616)"/>
      <path id="Path_2432" data-name="Path 2432" d="M1287.841,368.231l4.644-9.953a5.378,5.378,0,0,1,10.063,3.688l-4.978,18.211Z" transform="translate(-524.617 -144.681)" fill="#ffbfaa" stroke="#000" stroke-width="2"/>
      <path id="Path_2433" data-name="Path 2433" d="M1126.782,734.7a1.482,1.482,0,1,1,0-2.963,37.411,37.411,0,0,0,37.366-35.448l.8-15.1h-41.455a1.482,1.482,0,1,1,0-2.963h44.578l-.96,18.223a40.373,40.373,0,0,1-40.324,38.255" transform="translate(-457.063 -276.277)" fill="#00c9b9"/>
      <path id="Path_2434" data-name="Path 2434" d="M1151.5,708.421a7.373,7.373,0,1,1,7.372-7.373,7.381,7.381,0,0,1-7.372,7.373m0-11.782a4.409,4.409,0,1,0,4.409,4.409,4.414,4.414,0,0,0-4.409-4.409" transform="translate(-466.073 -282.574)" fill="#00c9b9"/>
      <path id="Path_2435" data-name="Path 2435" d="M1282.957,402.349l3.035.507a47.982,47.982,0,0,0,18.781-.593l5.732-1.333,16.414,2.962a9.671,9.671,0,0,0,11.326-10.628l-.383-3.315a5.776,5.776,0,0,0,4.969-4.455l.7-3.078a14.48,14.48,0,0,0-2.64-12.041l1.908-1.331a4.32,4.32,0,0,0-.055-7.124,34.827,34.827,0,0,0-18.018-5.926l-7.938-.332a20.893,20.893,0,0,0-11.686,3l-9.578,5.79-19.755,7.574Z" transform="translate(-519.7 -144.872)" fill="#ffbfaa" stroke="#000" stroke-width="2"/>
      <path id="Path_2436" data-name="Path 2436" d="M1368.853,380.638a1.476,1.476,0,0,1-.606-.13l-8.741-3.921-13.863,1.6a1.482,1.482,0,1,1-.34-2.944l14.673-1.7,9.484,4.254a1.482,1.482,0,0,1-.607,2.834" transform="translate(-547.49 -152.167)"/>
      <path id="Path_2437" data-name="Path 2437" d="M1366.685,420.207a1.482,1.482,0,0,1-.677-.164l-7.78-4-10.333-.906a1.482,1.482,0,0,1,.259-2.952l10.913.957,8.3,4.266a1.482,1.482,0,0,1-.679,2.8" transform="translate(-548.53 -167.902)"/>
      <path id="Path_2438" data-name="Path 2438" d="M1371.655,404.048a1.478,1.478,0,0,1-.748-.2l-10.3-6.038-11.916.407h-.052a1.481,1.481,0,0,1-.049-2.962l12.773-.437,11.045,6.472a1.482,1.482,0,0,1-.75,2.761" transform="translate(-548.779 -160.83)"/>
      <path id="Path_2439" data-name="Path 2439" d="M986.567,137.874h0a1.482,1.482,0,0,1-1.3-.771l-5.052-9.237-9.238-5.052a1.482,1.482,0,0,1,0-2.6l9.238-5.052,5.052-9.237a1.482,1.482,0,0,1,2.6,0l5.052,9.237,9.237,5.052a1.481,1.481,0,0,1,0,2.6l-9.237,5.052-5.052,9.237a1.482,1.482,0,0,1-1.3.771m-11.791-16.36,7.242,3.961a1.479,1.479,0,0,1,.588.588l3.961,7.242,3.961-7.242a1.481,1.481,0,0,1,.589-.588l7.241-3.961-7.241-3.96a1.482,1.482,0,0,1-.589-.589l-3.961-7.241-3.961,7.241a1.481,1.481,0,0,1-.588.589Z" transform="translate(-395.226 -42.833)" fill="#a62973" opacity="0.24"/>
      <path id="Path_2440" data-name="Path 2440" d="M17.052,116.723a1.48,1.48,0,0,1-1.3-.77L10.7,106.715l-9.237-5.052a1.481,1.481,0,0,1,0-2.6L10.7,94.011l5.052-9.237a1.481,1.481,0,0,1,2.6,0L23.4,94.011l9.237,5.052a1.481,1.481,0,0,1,0,2.6L23.4,106.715l-5.052,9.237a1.48,1.48,0,0,1-1.3.77M5.261,100.363l7.241,3.96a1.481,1.481,0,0,1,.588.589l3.961,7.241,3.961-7.241a1.481,1.481,0,0,1,.588-.589l7.241-3.96L21.6,96.4a1.48,1.48,0,0,1-.588-.588l-3.961-7.241-3.961,7.241a1.48,1.48,0,0,1-.588.588Z" transform="translate(-0.282 -9.198)" fill="#a62973" opacity="0.24"/>
      <path id="Path_2441" data-name="Path 2441" d="M502.48,37.277a18.641,18.641,0,1,1,18.641-18.641A18.662,18.662,0,0,1,502.48,37.277m0-34.318a15.678,15.678,0,1,0,15.678,15.678A15.7,15.7,0,0,0,502.48,2.958" transform="translate(-197.097 0.005)" fill="#a62973" opacity="0.24"/>
      <path id="Path_2442" data-name="Path 2442" d="M1021.2,713.641A18.641,18.641,0,1,1,1039.843,695a18.662,18.662,0,0,1-18.641,18.641m0-34.318A15.677,15.677,0,1,0,1036.88,695a15.7,15.7,0,0,0-15.678-15.677" transform="translate(-408.405 -275.52)" fill="#a62973" opacity="0.24"/>
      <path id="Path_2443" data-name="Path 2443" d="M2012.108,149.643A18.641,18.641,0,1,1,2030.748,131a18.662,18.662,0,0,1-18.64,18.641m0-34.318A15.678,15.678,0,1,0,2027.785,131a15.7,15.7,0,0,0-15.677-15.678" transform="translate(-812.063 -45.768)" fill="#eacbdd"/>
      <path id="Path_2444" data-name="Path 2444" d="M2022.672,720.548h-11.155a1.482,1.482,0,0,1,0-2.963h11.155a1.482,1.482,0,1,1,0,2.963" transform="translate(-818.812 -292.313)" fill="#f0e6ff"/>
      <path id="Path_2445" data-name="Path 2445" d="M1478.727,97.088a1.481,1.481,0,0,1-1.482-1.482V84.451a1.482,1.482,0,0,1,2.963,0V95.606a1.482,1.482,0,0,1-1.482,1.482" transform="translate(-601.773 -33.795)" fill="#eacbdd"/>
      <path id="Path_2446" data-name="Path 2446" d="M1478.727,141.64a1.481,1.481,0,0,1-1.482-1.482V129a1.482,1.482,0,0,1,2.963,0v11.156a1.482,1.482,0,0,1-1.482,1.482" transform="translate(-601.773 -51.944)" fill="#eacbdd"/>
      <path id="Path_2447" data-name="Path 2447" d="M1502.747,117.62h-11.156a1.482,1.482,0,0,1,0-2.963h11.156a1.482,1.482,0,0,1,0,2.963" transform="translate(-607.013 -46.704)" fill="#eacbdd"/>
      <path id="Path_2448" data-name="Path 2448" d="M1458.193,117.62h-11.156a1.482,1.482,0,0,1,0-2.963h11.156a1.482,1.482,0,1,1,0,2.963" transform="translate(-588.864 -46.704)" fill="#eacbdd"/>
      <path id="Path_2449" data-name="Path 2449" d="M488.467,687.745a1.482,1.482,0,0,1-1.482-1.482V675.108a1.482,1.482,0,1,1,2.963,0v11.155a1.482,1.482,0,0,1-1.482,1.482" transform="translate(-198.379 -274.406)" fill="#eacbdd"/>
      <path id="Path_2450" data-name="Path 2450" d="M488.467,732.3a1.481,1.481,0,0,1-1.482-1.482V719.66a1.482,1.482,0,0,1,2.963,0v11.156a1.481,1.481,0,0,1-1.482,1.482" transform="translate(-198.379 -292.555)" fill="#eacbdd"/>
      <path id="Path_2451" data-name="Path 2451" d="M512.486,708.276H501.331a1.482,1.482,0,1,1,0-2.963h11.156a1.482,1.482,0,1,1,0,2.963" transform="translate(-203.62 -287.315)" fill="#eacbdd"/>
      <path id="Path_2452" data-name="Path 2452" d="M467.934,708.276H456.779a1.482,1.482,0,1,1,0-2.963h11.156a1.482,1.482,0,0,1,0,2.963" transform="translate(-185.471 -287.315)" fill="#eacbdd"/>
      <path id="Path_2453" data-name="Path 2453" d="M33.17,663.244a1.481,1.481,0,0,1-1.482-1.481V650.607a1.482,1.482,0,0,1,2.963,0v11.156a1.481,1.481,0,0,1-1.482,1.481" transform="translate(-12.908 -264.425)" fill="#eacbdd"/>
      <path id="Path_2454" data-name="Path 2454" d="M33.17,707.8a1.481,1.481,0,0,1-1.482-1.482V695.159a1.482,1.482,0,0,1,2.963,0v11.156A1.481,1.481,0,0,1,33.17,707.8" transform="translate(-12.908 -282.574)" fill="#eacbdd"/>
      <path id="Path_2455" data-name="Path 2455" d="M57.189,683.775H46.034a1.482,1.482,0,1,1,0-2.963H57.189a1.482,1.482,0,1,1,0,2.963" transform="translate(-18.149 -277.334)" fill="#eacbdd"/>
      <path id="Path_2456" data-name="Path 2456" d="M12.637,683.775H1.482a1.482,1.482,0,1,1,0-2.963H12.637a1.482,1.482,0,1,1,0,2.963" transform="translate(0 -277.334)" fill="#eacbdd"/>
      <path id="Path_2457" data-name="Path 2457" d="M563.7,502.518l-.987,2.914a47.994,47.994,0,0,0-2.427,18.633l.4,5.872-5.556,15.727a9.671,9.671,0,0,0,8.675,12.883l3.334.154a5.775,5.775,0,0,0,3.6,5.619l2.926,1.185a14.481,14.481,0,0,0,12.308-.675l1.008,2.1a4.32,4.32,0,0,0,7.041,1.088l6.752-7.181,3.588-17.436a20.9,20.9,0,0,0-1.083-12.015L599.1,521l-4.309-20.713Z" transform="translate(-225.911 -203.794)" fill="#ffbfaa" stroke="#000" stroke-width="2"/>
      <path id="Path_2458" data-name="Path 2458" d="M548.48,520.205l-5.87,9.282a5.378,5.378,0,0,0,8.537,6.479l12.64-14.023Z" transform="translate(-220.698 -211.908)" fill="#ffbfaa"/>
      <path id="Path_2459" data-name="Path 2459" d="M546.121,538.2a6.766,6.766,0,0,1-1.239-.114,6.86,6.86,0,0,1-4.541-10.411l5.87-9.283a1.481,1.481,0,1,1,2.5,1.584l-5.869,9.282a3.9,3.9,0,0,0,2.579,5.914,3.913,3.913,0,0,0,3.607-1.22l2.311-2.564a1.482,1.482,0,0,1,2.2,1.984l-2.312,2.566a6.914,6.914,0,0,1-5.111,2.262" transform="translate(-219.682 -210.89)"/>
      <path id="Path_2460" data-name="Path 2460" d="M644.553,193.342l-51.159,7.286a19.258,19.258,0,0,0-16.038,17l-7.421,70.752L538.68,388.834h58.882l27.218-100.458Z" transform="translate(-219.438 -78.757)" fill="#ee5064" stroke="#000" stroke-width="2"/>
      <path id="Path_2461" data-name="Path 2461" d="M604.005,593.946a1.482,1.482,0,0,1-1.236-2.3l5.272-8,.641-13.941a1.482,1.482,0,0,1,2.96.136l-.679,14.754-5.72,8.68a1.481,1.481,0,0,1-1.239.666" transform="translate(-245.445 -231.499)"/>
      <path id="Path_2462" data-name="Path 2462" d="M565.178,585.647a1.482,1.482,0,0,1-1.191-2.362l5.2-7.038,2.552-10.054a1.482,1.482,0,0,1,2.872.729l-2.695,10.618-5.542,7.506a1.48,1.48,0,0,1-1.193.6" transform="translate(-229.629 -230.187)"/>
      <path id="Path_2463" data-name="Path 2463" d="M579.034,593.1a1.481,1.481,0,0,1-1.141-2.426l7.612-9.2,1.509-11.826a1.482,1.482,0,0,1,2.939.375l-1.618,12.678-8.159,9.864a1.48,1.48,0,0,1-1.143.537" transform="translate(-235.273 -231.52)"/>
      <path id="Path_2464" data-name="Path 2464" d="M574.784,543.256a22.435,22.435,0,0,1-4.526-.446,1.482,1.482,0,0,1,.648-2.892c.117.026,6.9,1.473,10.843-1.512,1.751-1.327,2.677-3.318,2.832-6.088a1.482,1.482,0,1,1,2.958.165c-.2,3.645-1.553,6.435-4.011,8.292a14.576,14.576,0,0,1-8.745,2.481" transform="translate(-231.83 -216.273)"/>
      <path id="Path_2465" data-name="Path 2465" d="M603.805,497.49H545.352a1.482,1.482,0,1,1,0-2.963h58.454a1.482,1.482,0,1,1,0,2.963" transform="translate(-221.552 -201.448)" stroke="#000" stroke-width="1"/>
      <path id="Path_2466" data-name="Path 2466" d="M597.242,355.655a15.53,15.53,0,0,1-7.608-1.707,1.481,1.481,0,0,1,1.524-2.541c.227.132,5.169,2.916,13.493-.12a1.482,1.482,0,0,1,1.015,2.784,24.531,24.531,0,0,1-8.424,1.583" transform="translate(-239.902 -143.061)"/>
      <path id="Path_2467" data-name="Path 2467" d="M821.851,748.481l-15.572-.175-42.253-.483-.961-10.342-3.184-34.327-5.088-54.894-3.54-38.165v-.005l-4.259-45.953-8.8-94.909-.142-1.515,78.842-4.089,2.047,117.539.73,42,1.663,95.731Z" transform="translate(-300.655 -188.86)" fill="#a62973"/>
      <path id="Path_2468" data-name="Path 2468" d="M845.312,761.935a1.482,1.482,0,0,1-1.482-1.472l-1.315-215.99a1.482,1.482,0,0,1,1.473-1.491H844a1.481,1.481,0,0,1,1.481,1.472l1.315,215.99a1.482,1.482,0,0,1-1.472,1.491Z" transform="translate(-343.208 -221.187)" fill="#00c9b9"/>
      <path id="Path_2469" data-name="Path 2469" d="M862.071,763.921a1.482,1.482,0,0,1-1.482-1.468l-2-213.1a1.482,1.482,0,0,1,1.468-1.5,1.5,1.5,0,0,1,1.5,1.468l2,213.1a1.481,1.481,0,0,1-1.467,1.5Z" transform="translate(-349.755 -223.174)" fill="#00c9b9"/>
      <path id="Path_2470" data-name="Path 2470" d="M705.864,470.066l-14.222,88.091-6.066,37.566-13.255,78.787-6.57,39.042-4.759,28.29-34.5.384-24.316.274,2.464-26.983,6.125-67.036L614.556,607l1.8-19.655,7.355-55.987,5.472-41.661,5.357-40.755,48.308,14.3Z" transform="translate(-245.302 -182.88)" fill="#a62973"/>
      <rect id="Rectangle_411" data-name="Rectangle 411" width="86.548" height="62.673" transform="translate(394.08 281.288)" fill="#2a0055"/>
      <path id="Path_2471" data-name="Path 2471" d="M752.223,190.566c-21.29,30.135-29.292,62.919-31.949,96.337-12.68-42.088-9.58-77.423-4.76-96.181l18.862-2.947Z" transform="translate(-289.763 -76.489)" fill="#fff"/>
      <path id="Path_2472" data-name="Path 2472" d="M773.221,199.827V370.246H629.968l11.288-171.717,41.321-6.92.156-.026c-4.82,18.757-7.92,54.092,4.76,96.18,2.656-33.418,10.659-66.2,31.949-96.337l.407.063Z" transform="translate(-256.625 -77.976)" fill="#ee5064" stroke="#000" stroke-width="2"/>
      <path id="Path_2473" data-name="Path 2473" d="M755.183,147.725l-34.893,30.34-1.853-30.34.933-65.284h35.813Z" transform="translate(-292.664 -33.58)" fill="#ffbfaa" stroke="#000" stroke-width="2"/>
      <path id="Path_2474" data-name="Path 2474" d="M720.014,143.621h-18.28a16.974,16.974,0,0,1-16.974-16.974V82.44h52.228v44.207a16.974,16.974,0,0,1-16.974,16.974" transform="translate(-278.945 -33.58)" fill="#ffbfaa" stroke="#000" stroke-width="2"/>
      <path id="Path_2475" data-name="Path 2475" d="M736.3,66.539A52.4,52.4,0,0,1,713.836,76.56a169.7,169.7,0,0,1-19.566,2.571c-5.539.387-11.308.789-16.76-.522-3.709-.891-7.162-2.762-7.923-6.846-.845-4.534,2.868-9.111,6.669-11.123,0,0-13.459-4.382-3.444-12.834.29-.245-1.088-6.68-1.125-7.365-.506-9.338,7.019-15.928,16.2-13.884,17.587,3.915,26.282,24.372,44.71,26.256,15.495,1.585,10.784,8.22,3.7,13.724" transform="translate(-272.568 -10.664)" fill="#2a0055" stroke="#000" stroke-width="2"/>
      <path id="Path_2476" data-name="Path 2476" d="M724.418,47.526s35.44-14.922,44.393,2.611-7.088,49.616-11.938,54.093-14.549-31.336-14.549-31.336Z" transform="translate(-295.1 -16.945)" fill="#2a0055" stroke="#000" stroke-width="2"/>
      <path id="Path_2477" data-name="Path 2477" d="M767.664,140.681h0a10.294,10.294,0,0,1-10.294-10.294v-3.66a10.294,10.294,0,1,1,20.588,0v3.66a10.294,10.294,0,0,1-10.294,10.294" transform="translate(-308.524 -47.427)" fill="#ffbfaa" stroke="#000" stroke-width="2"/>
      <path id="Path_2478" data-name="Path 2478" d="M768.685,138.088a1.482,1.482,0,0,1-1.107-2.466l5.969-6.715a1.482,1.482,0,0,1,2.215,1.969l-5.969,6.715a1.48,1.48,0,0,1-1.108.5" transform="translate(-312.529 -52.306)"/>
      <path id="Path_2479" data-name="Path 2479" d="M714.375,146.261h-1.949a3.607,3.607,0,0,1-3.468-4.6l1.91-9.844a1.481,1.481,0,1,1,2.909.564l-1.966,10.081a.644.644,0,0,0,.615.839h1.949a1.482,1.482,0,0,1,0,2.963" transform="translate(-288.744 -53.204)"/>
      <path id="Path_2480" data-name="Path 2480" d="M725.316,162.385a10,10,0,0,1-2.941-.464,1.481,1.481,0,0,1,.933-2.812c.6.195,2.538.6,3.6-.038a1.81,1.81,0,0,0,.819-1.41,1.482,1.482,0,0,1,2.923.488,4.759,4.759,0,0,1-2.218,3.464,6.013,6.013,0,0,1-3.112.773" transform="translate(-293.855 -63.718)"/>
      <path id="Path_2481" data-name="Path 2481" d="M698.1,129.057a2.238,2.238,0,1,1-2.238-2.238,2.238,2.238,0,0,1,2.238,2.238" transform="translate(-282.557 -51.658)"/>
      <path id="Path_2482" data-name="Path 2482" d="M697.682,292.618a1.478,1.478,0,0,1-1.228-.651c-10.079-14.879-25.253-46.431-30.477-66.386a1.483,1.483,0,0,1,.531-1.551l14.033-10.77-10.851-2.315a1.482,1.482,0,0,1-.487-2.7l15.444-9.848a1.482,1.482,0,0,1,1.593,2.5l-12.4,7.9,10.454,2.231a1.481,1.481,0,0,1,.593,2.624L669.1,225.779c5.372,19.712,20.024,50.079,29.809,64.526a1.482,1.482,0,0,1-1.225,2.312" transform="translate(-271.274 -80.722)"/>
      <path id="Path_2483" data-name="Path 2483" d="M738.429,280.765a1.482,1.482,0,0,1-1.29-2.209c10.611-18.854,23.234-39.9,36.878-54.175l-11.879-5.116a1.482,1.482,0,0,1,.206-2.793l11.97-3.18L762.129,192.65a1.527,1.527,0,0,1-.308-.164,1.482,1.482,0,0,1-.374-2.062l.2-.29a1.481,1.481,0,0,1,2.495.1l.205.351,13.509,22.885a1.481,1.481,0,0,1-.9,2.185l-9.722,2.583,9.927,4.275a1.481,1.481,0,0,1,.463,2.407c-13.972,14.016-27,35.714-37.91,55.09a1.481,1.481,0,0,1-1.293.756" transform="translate(-300.205 -77.191)"/>
      <path id="Path_2484" data-name="Path 2484" d="M730.522,129.371a2.238,2.238,0,1,1-2.238-2.238,2.238,2.238,0,0,1,2.238,2.238" transform="translate(-295.763 -51.786)"/>
      <path id="Path_2485" data-name="Path 2485" d="M686.59,133.777A11.181,11.181,0,1,1,697.771,122.6a11.194,11.194,0,0,1-11.181,11.181m0-19.4a8.218,8.218,0,1,0,8.218,8.218,8.227,8.227,0,0,0-8.218-8.218" transform="translate(-275.136 -45.383)" fill="#fff"/>
      <path id="Path_2486" data-name="Path 2486" d="M727.192,134.091a11.181,11.181,0,1,1,11.181-11.181,11.193,11.193,0,0,1-11.181,11.181m0-19.4a8.218,8.218,0,1,0,8.218,8.218,8.227,8.227,0,0,0-8.218-8.218" transform="translate(-291.675 -45.511)" fill="#fff"/>
      <path id="Path_2487" data-name="Path 2487" d="M714.286,132.638h-4.776a1.482,1.482,0,0,1,0-2.963h4.776a1.482,1.482,0,0,1,0,2.963" transform="translate(-288.424 -52.822)" fill="#fff"/>
      <path id="Path_2488" data-name="Path 2488" d="M678.005,795.986a1.481,1.481,0,0,1-1.469-1.69l23.69-166.451a1.482,1.482,0,0,1,2.934.418L679.47,794.714a1.482,1.482,0,0,1-1.465,1.272" transform="translate(-275.589 -255.238)" fill="#00c9b9"/>
      <path id="Path_2489" data-name="Path 2489" d="M693.364,797.686a1.534,1.534,0,0,1-.213-.015,1.483,1.483,0,0,1-1.256-1.678l23.618-163.979a1.482,1.482,0,1,1,2.933.423L694.829,796.416a1.482,1.482,0,0,1-1.465,1.27" transform="translate(-281.846 -256.938)" fill="#00c9b9"/>
      <path id="Path_2490" data-name="Path 2490" d="M839.84,408.976a40.847,40.847,0,0,0-34.862-40.647l26.211-55.508L649.965,227.249l-26.978,57.133a40.805,40.805,0,1,1-31.617,66.957l-26.978,57.133,57.133,26.978a40.806,40.806,0,1,0,66.956,31.617l57.133,26.978,26.013-55.09a40.825,40.825,0,0,0,68.211-29.978" transform="translate(-229.912 -92.569)" fill="#fb847d" stroke="#000" stroke-width="2"/>
      <path id="Path_2491" data-name="Path 2491" d="M569.434,434.234a1.482,1.482,0,0,1-1.339-2.115l23.387-49.527a1.481,1.481,0,0,1,2.478-.316,39.324,39.324,0,1,0,30.469-64.526,1.482,1.482,0,0,1-1.331-2.115l4.374-9.264a1.482,1.482,0,0,1,2.68,1.265l-3.412,7.225A42.287,42.287,0,1,1,593.2,385.9l-22.424,47.489a1.481,1.481,0,0,1-1.34.85" transform="translate(-231.362 -124.455)"/>
      <path id="Path_2492" data-name="Path 2492" d="M669.625,275.582a1.482,1.482,0,0,1-1.339-2.115l22.6-47.87a1.481,1.481,0,0,1,1.972-.707l83.728,39.536a1.482,1.482,0,0,1-1.265,2.68l-82.389-38.9-21.971,46.53a1.481,1.481,0,0,1-1.341.849" transform="translate(-272.176 -91.551)" fill="#2a0055"/>
      <path id="Path_2493" data-name="Path 2493" d="M719.931,182.7c-1.482,0-2.452-.058-2.606-.068a1.482,1.482,0,0,1,.189-2.957c.148.01,14.906.879,20.665-4.685a1.481,1.481,0,1,1,2.059,2.131c-5.132,4.959-15.457,5.58-20.306,5.58" transform="translate(-291.646 -71.111)"/>
      <path id="Path_2494" data-name="Path 2494" d="M721.21,209.989l-3.688-2.534a1.481,1.481,0,1,1,1.677-2.442l2.285,1.569,5.946-2.807a1.481,1.481,0,1,1,1.264,2.679Z" transform="translate(-292.029 -82.949)"/>
      <path id="Path_2495" data-name="Path 2495" d="M814.722,432.154l-12.945-6.77-9.717-12.24a2.533,2.533,0,0,0-4.489,1.192l-.955,6.238-6.289-2.064a33.21,33.21,0,0,0-16.158-1.144l-7.628,1.354a4.859,4.859,0,0,0,1.151,9.634l8.664-.539,15.1,5.184-10.246,1.64a35.5,35.5,0,0,0-10.742,3.543l-5.892,3.056a5.707,5.707,0,0,0,1.764,10.707l1.122.172-.308.48a5.214,5.214,0,0,0,6.84,7.416l5.827-3.1a19.266,19.266,0,0,1,9.62-2.253l8.81.257L780.424,465.7a4.415,4.415,0,0,0,6.409,5.978l10.554-8.849,13.2-1.626,12.5-6.159,9.042,3.526,6.657-28.476Z" transform="translate(-306.132 -167.905)" fill="#ffbfaa" stroke="#000" stroke-width="2"/>
      <path id="Path_2496" data-name="Path 2496" d="M842.571,204.469l10.214,1.386a47.257,47.257,0,0,1,31.925,22.611l35.284,54.868a17.685,17.685,0,0,1-.5,19.861l-43.42,60.639a24.585,24.585,0,0,1-10.469,8.354l-14.155,5.945-7.218-36.325,24.056-50.62-44.278-52.934Z" transform="translate(-335.672 -83.29)" fill="#ee5064" stroke="#000" stroke-width="2"/>
      <path id="Path_2497" data-name="Path 2497" d="M644.912,364.336a1.482,1.482,0,0,1-1.471-1.318L638.7,320.384a158.017,158.017,0,0,1,1.954-47.767l1.709-8.758a1.481,1.481,0,0,1,2.908.567l-1.708,8.758a155.065,155.065,0,0,0-1.918,46.873l4.743,42.634a1.483,1.483,0,0,1-1.309,1.636,1.556,1.556,0,0,1-.165.009" transform="translate(-259.786 -106.995)"/>
      <path id="Path_2498" data-name="Path 2498" d="M812.5,482.21a1.481,1.481,0,0,1-1.09-2.484l3.842-4.177h6.684a1.482,1.482,0,0,1,0,2.963h-5.384l-2.962,3.22a1.473,1.473,0,0,1-1.09.479" transform="translate(-330.379 -193.717)"/>
      <path id="Path_2499" data-name="Path 2499" d="M760.548,474.733a1.481,1.481,0,0,1-.8-2.728l5.846-3.748a26.486,26.486,0,0,1,14.321-4.2h8.576a1.482,1.482,0,0,1,0,2.963h-8.576a23.535,23.535,0,0,0-12.722,3.727l-5.846,3.748a1.475,1.475,0,0,1-.8.235" transform="translate(-309.214 -189.037)"/>
      <path id="Path_2500" data-name="Path 2500" d="M817.594,429.749a1.461,1.461,0,0,1-.519-.095l-7.857-2.943a1.482,1.482,0,0,1,1.039-2.775l7.857,2.944a1.482,1.482,0,0,1-.52,2.87" transform="translate(-329.252 -172.654)"/>
      <path id="Path_2501" data-name="Path 2501" d="M886.034,459.182a1.483,1.483,0,0,1-1.415-1.045l-11.5-37.2a1.481,1.481,0,1,1,2.831-.875l11.5,37.2a1.483,1.483,0,0,1-1.417,1.92" transform="translate(-355.649 -170.689)"/>
      <path id="Path_2502" data-name="Path 2502" d="M901.484,350.271a20.007,20.007,0,0,1-4.1-.439,1.482,1.482,0,0,1,.648-2.891c1.7.377,6.862.941,8.232-1.344a1.481,1.481,0,1,1,2.541,1.524c-1.531,2.553-4.7,3.15-7.321,3.15" transform="translate(-365.088 -140.487)"/>
      <path id="Path_2503" data-name="Path 2503" d="M1694.81,153.007a4.352,4.352,0,0,0,3.988-4.124s5.6,5.136.573,7.287c-2.653,1.134-4.342.222-5.347-.895a1.371,1.371,0,0,1,.786-2.268" transform="translate(-689.937 -60.646)" fill="#fff"/>
      <path id="Path_2504" data-name="Path 2504" d="M1251.884,134.438a5.814,5.814,0,0,1-5.9-4.843,1.481,1.481,0,0,1,2.923-.484,2.846,2.846,0,0,0,2.973,2.363,1.482,1.482,0,1,1,0,2.963" transform="translate(-507.561 -52.089)"/>
      <path id="Path_2505" data-name="Path 2505" d="M1676.343,726.934a1.5,1.5,0,0,1-.357-.043,1.484,1.484,0,0,1-.913-.675l-23.433-38.979a1.482,1.482,0,0,1,2.54-1.527l22.668,37.707,103.006-62.161a1.482,1.482,0,1,1,1.531,2.537l-104.277,62.929a1.486,1.486,0,0,1-.766.213" transform="translate(-672.728 -269.28)" fill="#2a0055"/>
      <rect id="Rectangle_412" data-name="Rectangle 412" width="1231.746" height="629.474" transform="translate(0 0)" fill="none"/>
      <path id="Path_2506" data-name="Path 2506" d="M2043.2,700.015a1.481,1.481,0,0,1-1.482-1.482V687.377a1.482,1.482,0,0,1,2.963,0v11.156a1.481,1.481,0,0,1-1.481,1.482" transform="translate(-831.72 -279.405)" fill="#f0e6ff"/>
      <path id="Path_2507" data-name="Path 2507" d="M2043.2,744.568a1.481,1.481,0,0,1-1.482-1.482V731.93a1.482,1.482,0,0,1,2.963,0v11.156a1.481,1.481,0,0,1-1.481,1.482" transform="translate(-831.72 -297.554)" fill="#f0e6ff"/>
      <path id="Path_2508" data-name="Path 2508" d="M2067.225,720.548h-11.156a1.482,1.482,0,0,1,0-2.963h11.156a1.482,1.482,0,0,1,0,2.963" transform="translate(-836.96 -292.313)" fill="#f0e6ff"/>
    </g>
  </g>
</svg>
