<?xml version="1.0" encoding="UTF-8"?>
<svg id="Layer_2" data-name="Layer 2" xmlns="http://www.w3.org/2000/svg" xmlns:xlink="http://www.w3.org/1999/xlink" viewBox="0 0 120 120">
  <defs>
    <style>
      .cls-1 {
        fill: url(#linear-gradient);
      }

      .cls-1, .cls-2, .cls-3, .cls-4, .cls-5, .cls-6, .cls-7, .cls-8 {
        stroke-width: 0px;
      }

      .cls-2 {
        fill: url(#linear-gradient-6);
      }

      .cls-9 {
        clip-path: url(#clippath-2);
      }

      .cls-10 {
        clip-path: url(#clippath-6);
      }

      .cls-3 {
        fill: url(#linear-gradient-5);
      }

      .cls-4 {
        fill: none;
      }

      .cls-11 {
        clip-path: url(#clippath-1);
      }

      .cls-12 {
        clip-path: url(#clippath-4);
      }

      .cls-5 {
        fill: url(#linear-gradient-2);
      }

      .cls-6 {
        fill: url(#linear-gradient-7);
      }

      .cls-7 {
        fill: url(#linear-gradient-3);
      }

      .cls-13 {
        clip-path: url(#clippath);
      }

      .cls-14 {
        clip-path: url(#clippath-3);
      }

      .cls-15 {
        clip-path: url(#clippath-5);
      }

      .cls-8 {
        fill: url(#linear-gradient-4);
      }
    </style>
    <clipPath id="clippath">
      <path class="cls-4" d="m53.38,48.67c1.06-.63,2.21-1.11,3.41-1.41.65-.17,1.1-.75,1.1-1.42v-1.43h4.22v1.43c0,.67.45,1.25,1.1,1.42,1.2.31,2.34.78,3.41,1.41.58.34,1.31.25,1.78-.23l1.01-1.01,3,3-1.01,1.01c-.47.47-.56,1.21-.22,1.78.63,1.06,1.11,2.21,1.41,3.4.16.65.75,1.1,1.42,1.1h1.42v4.25h-1.43c-.67,0-1.25.45-1.42,1.1-.3,1.2-.78,2.34-1.41,3.4-.34.58-.25,1.31.22,1.78l1.01,1.01-3,3-1.01-1.01c-.47-.47-1.21-.57-1.78-.23-1.06.63-2.21,1.1-3.41,1.41-.65.17-1.1.75-1.1,1.42v1.42h-4.22v-1.42c0-.67-.45-1.25-1.1-1.42-1.2-.31-2.35-.78-3.41-1.41-.58-.34-1.31-.25-1.78.23l-1.01,1.01-3-3,1.01-1.01c.47-.47.57-1.21.22-1.78-.63-1.06-1.1-2.21-1.41-3.41-.17-.65-.75-1.1-1.42-1.1h-1.43v-4.24h1.43c.67,0,1.25-.45,1.42-1.1.3-1.2.78-2.34,1.41-3.41.34-.58.25-1.31-.22-1.78l-1.01-1.01,3-3,1.01,1.01c.47.47,1.21.57,1.78.23m4.39-7.19c-1.55,0-2.81,1.25-2.81,2.8v.46c-.71.24-1.4.52-2.07.86l-.32-.32c-1.1-1.09-2.87-1.09-3.97,0l-3.17,3.17c-1.09,1.1-1.09,2.87,0,3.97l.32.32c-.33.67-.62,1.36-.86,2.07h-.45c-1.55,0-2.81,1.26-2.81,2.81v4.49c0,1.55,1.26,2.81,2.81,2.82h.45c.24.71.52,1.4.86,2.07l-.32.32c-1.09,1.1-1.09,2.87,0,3.97l3.18,3.18c1.1,1.09,2.87,1.08,3.97,0l.32-.32c.67.33,1.36.62,2.07.86v.45c0,1.55,1.26,2.81,2.81,2.82h4.47c1.55,0,2.8-1.27,2.8-2.82v-.45c.71-.24,1.4-.52,2.07-.86l.32.32c1.1,1.09,2.87,1.09,3.97,0l3.17-3.17c1.1-1.09,1.1-2.87,0-3.97,0,0,0,0,0,0l-.32-.32c.33-.67.62-1.36.86-2.07h.45c1.55,0,2.81-1.26,2.81-2.82h0v-4.48c0-1.55-1.25-2.81-2.8-2.81h-.45c-.24-.71-.52-1.4-.86-2.07l.32-.32c1.1-1.09,1.11-2.87.01-3.97,0,0,0,0,0,0l-3.18-3.17c-1.1-1.09-2.87-1.09-3.97,0l-.32.32c-.67-.33-1.36-.62-2.07-.86v-.46c0-1.55-1.26-2.8-2.8-2.8h-4.46Z"/>
    </clipPath>
    <linearGradient id="linear-gradient" x1="-416.14" y1="2516.58" x2="-417.9" y2="2514.72" gradientTransform="translate(16397.36 98548.23) scale(39.13 -39.16)" gradientUnits="userSpaceOnUse">
      <stop offset="0" stop-color="#682376"/>
      <stop offset="1" stop-color="#a52973"/>
    </linearGradient>
    <clipPath id="clippath-1">
      <path class="cls-4" d="m53.26,59.85c0-3.73,3.03-6.75,6.76-6.75,3.73,0,6.75,3.03,6.75,6.76,0,3.73-3.03,6.75-6.76,6.75-3.73,0-6.75-3.03-6.75-6.76m-2.93,0c0,5.35,4.34,9.68,9.68,9.68,5.35,0,9.68-4.34,9.68-9.68,0-5.35-4.34-9.68-9.68-9.68h0c-5.34,0-9.67,4.34-9.68,9.68"/>
    </clipPath>
    <linearGradient id="linear-gradient-2" x1="-406.15" y1="2553.85" x2="-407.91" y2="2552" gradientTransform="translate(8466.84 52721.5) scale(20.63 -20.63)" xlink:href="#linear-gradient"/>
    <clipPath id="clippath-2">
      <path class="cls-4" d="m79.78,23.49c0-1.29,1.05-2.34,2.35-2.34,1.29,0,2.34,1.05,2.34,2.35,0,1.29-1.05,2.33-2.34,2.34-1.3,0-2.35-1.05-2.35-2.35m-2.93,0c0,2.91,2.36,5.27,5.27,5.27,2.91,0,5.27-2.36,5.27-5.27,0-2.91-2.36-5.27-5.27-5.27-2.91,0-5.27,2.36-5.27,5.27"/>
    </clipPath>
    <linearGradient id="linear-gradient-3" x1="-388.6" y1="2619.6" x2="-390.36" y2="2617.74" gradientTransform="translate(4461.68 29425.58) scale(11.23 -11.23)" xlink:href="#linear-gradient"/>
    <clipPath id="clippath-3">
      <path class="cls-4" d="m64.93,23.49c0-1.29,1.05-2.34,2.35-2.34s2.34,1.05,2.34,2.35c0,1.29-1.05,2.33-2.34,2.34-1.3,0-2.35-1.05-2.35-2.35m-2.93,0c0,2.91,2.36,5.27,5.27,5.27,2.91,0,5.27-2.36,5.27-5.27,0-2.91-2.36-5.27-5.27-5.27h0c-2.91,0-5.27,2.36-5.27,5.27"/>
    </clipPath>
    <linearGradient id="linear-gradient-4" x1="-388.51" y1="2619.6" x2="-390.27" y2="2617.74" gradientTransform="translate(4445.43 29425.58) scale(11.23 -11.23)" xlink:href="#linear-gradient"/>
    <clipPath id="clippath-4">
      <path class="cls-4" d="m20.69,23.49c0-1.29,1.05-2.34,2.35-2.34h25.37c1.29,0,2.34,1.05,2.34,2.34s-1.05,2.34-2.34,2.34h-25.38c-1.3,0-2.35-1.05-2.35-2.35m2.35-5.27c-2.91-.04-5.3,2.29-5.34,5.2-.04,2.91,2.29,5.3,5.2,5.34.05,0,.09,0,.14,0h25.38c2.91.04,5.3-2.29,5.34-5.2.04-2.91-2.29-5.3-5.2-5.34-.05,0-.09,0-.14,0h-25.38Z"/>
    </clipPath>
    <linearGradient id="linear-gradient-5" x1="-415.85" y1="2619.58" x2="-417.61" y2="2617.73" gradientTransform="translate(16002.01 29428.06) scale(38.27 -11.23)" xlink:href="#linear-gradient"/>
    <clipPath id="clippath-5">
      <path class="cls-4" d="m58.76,96.76h2.49l3.35,10.31h-9.18l3.35-10.31Zm-2.31-5.67l3.55-2.87,3.55,2.86-1.4,2.63s-.04.08-.06.11h-4.18l-1.45-2.74Zm-23.65,6.12c0-1.49.19-2.97.58-4.41,0-.03.02-.06.02-.09.7-3.07,2.96-5.55,5.96-6.52l5.09-1.57,6.36,9.01c.47.66,1.38.82,2.04.35.03-.02.05-.04.08-.06l1.19-.96,1.29,2.44c.13.24.29.46.48.64l-3.57,11.01h-8.44v-8.77c.02-.81-.62-1.48-1.43-1.5s-1.48.62-1.5,1.43c0,.02,0,.05,0,.07v8.77h-8.16v-9.86Zm35.38-2.97c.4-.05.76-.27,1-.6l6.37-9.01,5.09,1.57c3,.96,5.26,3.44,5.96,6.51,0,.04.02.07.03.1.39,1.44.58,2.92.58,4.41v9.86h-8.15v-8.78c0-.81-.66-1.46-1.46-1.46s-1.46.66-1.46,1.46v8.77h-8.44l-3.57-11c.22-.25.4-.53.55-.83.02-.04.05-.09.07-.14l1.14-2.13,1.2.97c.26.21.59.33.92.33.07,0,.14,0,.2-.02m-21.22-11.13l1.59-1.49c.08-.08.17-.15.26-.22.08.03.16.07.24.12l8.39,5-5.13,4.15-5.34-7.56Zm15.58,3.42l8.38-5c.08-.05.16-.09.24-.12.09.06.17.14.25.21l1.6,1.5-5.34,7.56-5.13-4.15ZM15.42,10c-2.99,0-5.42,2.43-5.42,5.42v42.07c0,.81.66,1.46,1.46,1.46s1.46-.66,1.46-1.46v-20.5h43.69c.81-.02,1.45-.69,1.43-1.5-.02-.78-.65-1.41-1.43-1.43H12.93V15.42c0-1.37,1.12-2.49,2.49-2.49h89.16c1.37,0,2.49,1.11,2.49,2.49v18.64h-43.69c-.81-.02-1.48.62-1.5,1.43-.02.81.62,1.48,1.43,1.5.02,0,.05,0,.07,0h43.68v51.41c0,1.37-1.12,2.49-2.49,2.49h-15.49c-1.18-3.57-4-6.36-7.58-7.49l-5.78-1.78-2.28-2.14c-1.02-1.15-2.74-1.35-4-.47l-9.44,5.63-9.44-5.63c-1.26-.89-2.98-.69-4,.47l-2.27,2.14-5.78,1.78c-3.59,1.13-6.41,3.92-7.58,7.49h-15.5c-1.37,0-2.49-1.11-2.49-2.49v-24.14c-.02-.81-.69-1.45-1.5-1.43-.78.02-1.41.65-1.43,1.43v24.14c0,2.99,2.43,5.42,5.42,5.42h14.73c-.19,1.12-.28,2.26-.28,3.4v10.43c0,1.3,1.05,2.35,2.35,2.36h55.56c1.3,0,2.35-1.06,2.35-2.36v-10.43c0-1.14-.09-2.28-.28-3.4h14.73c2.99,0,5.42-2.43,5.42-5.42V15.42c0-2.99-2.43-5.41-5.42-5.42H15.42Z"/>
    </clipPath>
    <linearGradient id="linear-gradient-6" x1="-423.19" y1="2490.32" x2="-424.95" y2="2488.47" gradientTransform="translate(45284.54 265197.71) scale(106.53 -106.53)" xlink:href="#linear-gradient"/>
    <clipPath id="clippath-6">
      <path class="cls-4" d="m94.63,23.49c0-1.29,1.05-2.34,2.35-2.34,1.29,0,2.34,1.05,2.34,2.35,0,1.29-1.05,2.33-2.34,2.34-1.3,0-2.35-1.05-2.35-2.35m-2.93,0c0,2.91,2.36,5.27,5.27,5.27,2.91,0,5.27-2.36,5.27-5.27,0-2.91-2.36-5.27-5.27-5.27-2.91,0-5.27,2.36-5.27,5.27"/>
    </clipPath>
    <linearGradient id="linear-gradient-7" x1="-388.68" y1="2619.6" x2="-390.44" y2="2617.74" gradientTransform="translate(4477.07 29425.58) scale(11.23 -11.23)" xlink:href="#linear-gradient"/>
  </defs>
  <g id="Layer_2-2" data-name="Layer 2">
    <g>
      <rect class="cls-4" width="120" height="120"/>
      <rect class="cls-4" x="10" y="10" width="100" height="100"/>
      <g>
        <g id="Group_866" data-name="Group 866">
          <g class="cls-13">
            <g id="Group_865" data-name="Group 865">
              <rect id="Rectangle_826" data-name="Rectangle 826" class="cls-1" x="41.63" y="41.48" width="36.73" height="36.76"/>
            </g>
          </g>
        </g>
        <g id="Group_868" data-name="Group 868">
          <g class="cls-11">
            <g id="Group_867" data-name="Group 867">
              <rect id="Rectangle_827" data-name="Rectangle 827" class="cls-5" x="50.33" y="50.16" width="19.37" height="19.37"/>
            </g>
          </g>
        </g>
        <g id="Group_870" data-name="Group 870">
          <g class="cls-9">
            <g id="Group_869" data-name="Group 869">
              <rect id="Rectangle_828" data-name="Rectangle 828" class="cls-7" x="76.85" y="18.22" width="10.54" height="10.54"/>
            </g>
          </g>
        </g>
        <g id="Group_872" data-name="Group 872">
          <g class="cls-14">
            <g id="Group_871" data-name="Group 871">
              <rect id="Rectangle_829" data-name="Rectangle 829" class="cls-8" x="62" y="18.22" width="10.54" height="10.54"/>
            </g>
          </g>
        </g>
        <g id="Group_874" data-name="Group 874">
          <g class="cls-12">
            <g id="Group_873" data-name="Group 873">
              <rect id="Rectangle_830" data-name="Rectangle 830" class="cls-3" x="17.76" y="18.22" width="35.92" height="10.54"/>
            </g>
          </g>
        </g>
        <g id="Group_876" data-name="Group 876">
          <g class="cls-15">
            <g id="Group_875" data-name="Group 875">
              <rect id="Rectangle_831" data-name="Rectangle 831" class="cls-2" x="10" y="10" width="100" height="100"/>
            </g>
          </g>
        </g>
        <g id="Group_878" data-name="Group 878">
          <g class="cls-10">
            <g id="Group_877" data-name="Group 877">
              <rect id="Rectangle_832" data-name="Rectangle 832" class="cls-6" x="91.7" y="18.22" width="10.54" height="10.54"/>
            </g>
          </g>
        </g>
      </g>
    </g>
  </g>
</svg>