<?xml version="1.0" encoding="UTF-8"?>
<svg id="Layer_2" data-name="Layer 2" xmlns="http://www.w3.org/2000/svg" xmlns:xlink="http://www.w3.org/1999/xlink" viewBox="0 0 120 120">
  <defs>
    <style>
      .cls-1 {
        fill: url(#linear-gradient);
      }

      .cls-1, .cls-2, .cls-3, .cls-4, .cls-5, .cls-6, .cls-7 {
        stroke-width: 0px;
      }

      .cls-2 {
        fill: url(#linear-gradient-6);
      }

      .cls-8 {
        clip-path: url(#clippath-2);
      }

      .cls-3 {
        fill: url(#linear-gradient-5);
      }

      .cls-4 {
        fill: none;
      }

      .cls-9 {
        clip-path: url(#clippath-1);
      }

      .cls-10 {
        clip-path: url(#clippath-4);
      }

      .cls-5 {
        fill: url(#linear-gradient-2);
      }

      .cls-6 {
        fill: url(#linear-gradient-3);
      }

      .cls-11 {
        clip-path: url(#clippath);
      }

      .cls-12 {
        clip-path: url(#clippath-3);
      }

      .cls-13 {
        clip-path: url(#clippath-5);
      }

      .cls-7 {
        fill: url(#linear-gradient-4);
      }
    </style>
    <clipPath id="clippath">
      <path class="cls-4" d="m36.04,103.83c1.95,0,3.54,1.56,3.57,3.51h-7.14c.03-1.95,1.62-3.51,3.57-3.51m10.09,0c1.95,0,3.54,1.56,3.57,3.51h-7.14c.03-1.95,1.62-3.51,3.57-3.51m-16.92-58.09v19.96c0,1.06-.86,1.92-1.92,1.93-.52,0-1.01-.19-1.38-.56-.37-.36-.57-.86-.57-1.37v-13.76c-.02-.81-.7-1.46-1.51-1.44-.78.02-1.42.65-1.44,1.44v13.76c0,2.69,2.18,4.87,4.87,4.87h.04c.65,0,1.3-.14,1.89-.4.01,9.41.81,18.8,2.39,28.07l.66,3.85c-1.72,1.22-2.74,3.2-2.74,5.31v1.41c0,.81.66,1.47,1.47,1.47h20.17c.81,0,1.47-.66,1.47-1.47h0v-1.41c0-2.11-1.02-4.09-2.74-5.31l.66-3.85c.92-5.4,1.59-10.91,1.97-16.37.06-.81-.55-1.52-1.37-1.57-.81-.06-1.52.55-1.57,1.37-.38,5.36-1.03,10.77-1.94,16.08l-.55,3.21c-1.59-.24-3.21.11-4.55,1v-35.76c0-.81-.66-1.47-1.47-1.47s-1.47.66-1.47,1.47h0v35.76c-1.34-.88-2.96-1.24-4.55-1l-.54-3.21c-1.56-9.18-2.35-18.48-2.35-27.79v-24.21c-.02-.81-.7-1.46-1.51-1.44-.78.02-1.42.65-1.44,1.44"/>
    </clipPath>
    <linearGradient id="linear-gradient" x1="-274.52" y1="2497.89" x2="-276.45" y2="2496.6" gradientTransform="translate(8949.09 175908.12) scale(32.26 -70.42)" gradientUnits="userSpaceOnUse">
      <stop offset="0" stop-color="#682376"/>
      <stop offset="1" stop-color="#a52973"/>
    </linearGradient>
    <clipPath id="clippath-1">
      <path class="cls-4" d="m38.3,33.1l.24-2.23c1.62.73,3.47.73,5.09,0l.24,2.22c-.76,1.54-2.63,2.17-4.17,1.4-.61-.3-1.1-.8-1.4-1.4m2.78-23.38c-5.06,0-9.16,4.11-9.16,9.18,0,.3.02.61.05.91l.21,2.08c.27,2.75,1.55,5.3,3.6,7.16l-.33,3.03-5.45.98c-4.4.79-7.61,4.62-7.6,9.1v2.91c-.02.81.62,1.49,1.44,1.51.81.02,1.49-.62,1.51-1.44,0-.02,0-.05,0-.07v-2.91c0-3.05,2.18-5.66,5.18-6.19l5.44-.98c1.8,2.82,5.55,3.66,8.37,1.86.75-.48,1.38-1.11,1.86-1.86l5.44.98c3,.54,5.18,3.15,5.18,6.19v23.82c0,1.07-.86,1.93-1.93,1.93-1.09-.01-1.96-.9-1.95-1.99,0-.07,0-.15.01-.22v-19.95c0-.81-.66-1.47-1.47-1.47s-1.47.66-1.47,1.47h0v24.21c0,1.67-.02,3.32-.07,4.9-.02.81.61,1.49,1.43,1.52,0,0,0,0,0,0h.05c.8,0,1.45-.63,1.47-1.43.05-1.45.07-2.97.07-4.5,2.47,1.07,5.33-.06,6.41-2.52.27-.62.41-1.28.4-1.95v-4.49h4.72v30.42c0,2.1,1.71,3.8,3.81,3.81h3.96c.81,0,1.47-.66,1.47-1.47s-.66-1.47-1.47-1.47h-3.96c-.47,0-.86-.38-.86-.86v-17.94h4.82c.81,0,1.47-.66,1.47-1.48,0-.81-.66-1.47-1.47-1.47h-4.82v-21.04h4.82c.81,0,1.47-.66,1.47-1.47s-.66-1.47-1.47-1.47h-4.82v-18.92c0-.47.39-.86.86-.86h3.96c.81.02,1.49-.62,1.51-1.44.02-.81-.62-1.49-1.44-1.51-.02,0-.05,0-.07,0h-3.96c-2.1,0-3.8,1.71-3.8,3.81v30.42h-4.73v-16.38c0-4.47-3.2-8.3-7.6-9.09l-5.44-.98-.33-3.03c1.37-1.24,2.41-2.8,3.03-4.54.28-.76-.1-1.61-.86-1.9-.76-.28-1.61.1-1.9.86,0,.02-.01.04-.02.05-.71,2.02-2.18,3.68-4.1,4.62-.92.45-1.99.45-2.91,0-2.55-1.24-4.27-3.72-4.54-6.55l-.21-2.08c-.17-1.75.4-3.5,1.58-4.8,1.17-1.31,2.85-2.06,4.61-2.05,2.9-.01,5.42,1.98,6.08,4.8.18.79.97,1.29,1.76,1.11.79-.18,1.29-.97,1.11-1.76,0,0,0-.02,0-.03-.97-4.15-4.68-7.09-8.94-7.08Z"/>
    </clipPath>
    <linearGradient id="linear-gradient-2" x1="-278.45" y1="2492.51" x2="-280.38" y2="2491.21" gradientTransform="translate(15385.65 228568.02) scale(54.75 -91.72)" xlink:href="#linear-gradient"/>
    <clipPath id="clippath-2">
      <path class="cls-4" d="m79.31,17.54h13.17l-5.23,7.19-2.03-1.82c-.62-.52-1.55-.44-2.08.19-.49.59-.45,1.47.11,2l3.24,2.92c.27.24.62.38.99.37.05,0,.1,0,.15,0,.41-.04.79-.26,1.04-.6l4.57-6.28v9.97h-13.94v-13.94Zm15.58-3.32l-.41.56c-.31-.12-.64-.19-.98-.19h-14.47c-1.48,0-2.68,1.2-2.68,2.68v14.47c0,1.48,1.2,2.68,2.68,2.68h14.47c1.48,0,2.68-1.2,2.68-2.68v-14.29l1.09-1.5c.5-.64.39-1.57-.25-2.07-.64-.5-1.57-.39-2.07.25-.02.03-.04.06-.06.09"/>
    </clipPath>
    <linearGradient id="linear-gradient-3" x1="-270.72" y1="2547.93" x2="-272.65" y2="2546.64" gradientTransform="translate(6304.35 56549.97) scale(22.82 -22.19)" xlink:href="#linear-gradient"/>
    <clipPath id="clippath-3">
      <path class="cls-4" d="m79.31,41.53h13.17l-5.23,7.19-2.03-1.82c-.61-.54-1.54-.49-2.08.12-.54.6-.49,1.53.11,2.07l3.24,2.92c.27.24.62.38.99.37.05,0,.1,0,.15,0,.41-.04.79-.26,1.04-.6l4.57-6.28v9.97h-13.93v-13.93Zm15.58-3.31l-.41.56c-.31-.12-.64-.19-.98-.19h-14.47c-1.48,0-2.68,1.2-2.68,2.68v14.46c0,1.48,1.2,2.68,2.68,2.68h14.47c1.48,0,2.68-1.2,2.68-2.68v-14.29l1.09-1.5c.51-.63.41-1.56-.23-2.07-.63-.51-1.56-.41-2.07.23-.03.04-.06.08-.09.12"/>
    </clipPath>
    <linearGradient id="linear-gradient-4" x1="-270.72" y1="2548" x2="-272.65" y2="2546.71" gradientTransform="translate(6304.35 56575.55) scale(22.82 -22.19)" xlink:href="#linear-gradient"/>
    <clipPath id="clippath-4">
      <path class="cls-4" d="m79.31,65.52h13.17l-5.23,7.19-2.02-1.82c-.62-.52-1.55-.44-2.08.19-.49.59-.45,1.47.11,2l3.24,2.92c.27.24.62.38.99.37.05,0,.1,0,.15,0,.41-.04.79-.26,1.04-.6l4.57-6.28v9.97h-13.93v-13.94Zm15.59-3.32l-.41.56c-.31-.12-.64-.19-.98-.19h-14.47c-1.48,0-2.68,1.2-2.68,2.68v14.47c0,1.48,1.2,2.68,2.68,2.68h14.47c1.48,0,2.68-1.2,2.68-2.68v-14.29l1.09-1.5c.48-.66.33-1.58-.33-2.06-.66-.48-1.58-.33-2.06.33"/>
    </clipPath>
    <linearGradient id="linear-gradient-5" x1="-270.72" y1="2548.07" x2="-272.65" y2="2546.78" gradientTransform="translate(6304.35 56603.61) scale(22.82 -22.2)" xlink:href="#linear-gradient"/>
    <clipPath id="clippath-5">
      <path class="cls-4" d="m94.89,86.18l-.41.56c-.31-.12-.64-.19-.98-.19h-14.47c-1.48,0-2.68,1.2-2.68,2.68v2.77c0,.81.66,1.47,1.47,1.47s1.47-.66,1.47-1.47v-2.51h13.17l-5.23,7.19-2.02-1.82c-.62-.52-1.55-.44-2.08.19-.49.59-.45,1.47.11,2l3.24,2.92c.27.24.62.38.99.37.05,0,.1,0,.15,0,.41-.04.79-.26,1.04-.6l4.57-6.28v9.97h-13.94v-4.56c.02-.81-.62-1.49-1.44-1.51s-1.49.62-1.51,1.44c0,.02,0,.05,0,.07v4.82c0,1.48,1.2,2.68,2.68,2.68h14.47c1.48,0,2.68-1.2,2.68-2.68v-14.29l1.09-1.5c.47-.67.31-1.59-.36-2.05-.65-.46-1.55-.31-2.02.32"/>
    </clipPath>
    <linearGradient id="linear-gradient-6" x1="-270.72" y1="2548.14" x2="-272.65" y2="2546.85" gradientTransform="translate(6304.64 56631.68) scale(22.82 -22.2)" xlink:href="#linear-gradient"/>
  </defs>
  <g id="Layer_2-2" data-name="Layer 2">
    <g>
      <rect class="cls-4" width="120" height="120"/>
      <rect class="cls-4" x="10" y="10" width="100" height="100"/>
      <g>
        <g id="Group_834" data-name="Group 834">
          <g class="cls-11">
            <g id="Group_833" data-name="Group 833">
              <rect id="Rectangle_811" data-name="Rectangle 811" class="cls-1" x="22.4" y="44.27" width="30.24" height="66.02"/>
            </g>
          </g>
        </g>
        <g id="Group_836" data-name="Group 836">
          <g class="cls-9">
            <g id="Group_835" data-name="Group 835">
              <rect id="Rectangle_812" data-name="Rectangle 812" class="cls-5" x="22.4" y="9.71" width="51.32" height="85.99"/>
            </g>
          </g>
        </g>
        <g id="Group_838" data-name="Group 838">
          <g class="cls-8">
            <g id="Group_837" data-name="Group 837">
              <rect id="Rectangle_813" data-name="Rectangle 813" class="cls-6" x="76.36" y="13.62" width="21.39" height="20.81"/>
            </g>
          </g>
        </g>
        <g id="Group_840" data-name="Group 840">
          <g class="cls-12">
            <g id="Group_839" data-name="Group 839">
              <rect id="Rectangle_814" data-name="Rectangle 814" class="cls-7" x="76.36" y="37.6" width="21.39" height="20.81"/>
            </g>
          </g>
        </g>
        <g id="Group_842" data-name="Group 842">
          <g class="cls-10">
            <g id="Group_841" data-name="Group 841">
              <rect id="Rectangle_815" data-name="Rectangle 815" class="cls-3" x="76.36" y="61.59" width="21.39" height="20.81"/>
            </g>
          </g>
        </g>
        <g id="Group_844" data-name="Group 844">
          <g class="cls-13">
            <g id="Group_843" data-name="Group 843">
              <rect id="Rectangle_816" data-name="Rectangle 816" class="cls-2" x="76.36" y="85.58" width="21.4" height="20.81"/>
            </g>
          </g>
        </g>
      </g>
    </g>
  </g>
</svg>