<svg xmlns="http://www.w3.org/2000/svg" xmlns:xlink="http://www.w3.org/1999/xlink" width="664" height="644" viewBox="0 0 664 644">
  <defs>
    <clipPath id="clip-path">
      <rect id="Rectangle_1412" data-name="Rectangle 1412" width="664" height="644" rx="29" transform="translate(3665 3357)" fill="#fff"/>
    </clipPath>
  </defs>
  <g id="career-management" transform="translate(-3665 -3357)" clip-path="url(#clip-path)">
    <g id="Group_1207" data-name="Group 1207" transform="translate(3701.176 3449.319)">
      <path id="Path_4839" data-name="Path 4839" d="M349.207,161.427a234.055,234.055,0,0,0-1.052-33.885c-1.252-10.967-3.162-22.7-8.209-32.717-9.5-18.841-32.438-25.481-52.742-23.854a114.673,114.673,0,0,0-19.993,3.563c-6.547,1.725-13.221,3.914-20.043,3.028,1.487-8.848,5.222-17.386,9.458-25.294a54.764,54.764,0,0,1,18.121-20.363c16.268-10.713,37.275-12.82,56.408-10.247C340.366,22.9,349.5,25.606,357.043,31A49.621,49.621,0,0,1,372.5,49.691c8.25,16.869,7.085,36.064,1.963,53.622-5.923,20.3-16.831,38.75-25.256,58.114" fill="#402525"/>
      <path id="Path_4840" data-name="Path 4840" d="M266.525,83.207c-.313-6.841-3.444-18.516-12.558-17.561-5.585.583-11.145,4.637-15.572,7.771-4.981,3.522-9.991,9.837-16.747,8.134a.481.481,0,0,0-.57.319,1.782,1.782,0,0,0,.451,2.16c-1.108,7.539,5.053,13.886,12.58,14.709a23.3,23.3,0,0,0,3.584.016,4.344,4.344,0,0,1,3.942,1.387,39.3,39.3,0,0,0,4.9,4.774c3.369,2.395,7.886,3.588,11.79,1.741,8.1-3.832,8.541-15.864,8.2-23.45" fill="#402525"/>
      <path id="Path_4841" data-name="Path 4841" d="M266.525,83.207c-.313-6.841-3.444-18.516-12.558-17.561-5.585.583-11.145,4.637-15.572,7.771-4.981,3.522-9.991,9.837-16.747,8.134a.481.481,0,0,0-.57.319,1.782,1.782,0,0,0,.451,2.16c-1.108,7.539,5.053,13.886,12.58,14.709a23.3,23.3,0,0,0,3.584.016,4.344,4.344,0,0,1,3.942,1.387,39.3,39.3,0,0,0,4.9,4.774c3.369,2.395,7.886,3.588,11.79,1.741C266.428,102.825,266.869,90.793,266.525,83.207Z" fill="none" stroke="#000" stroke-miterlimit="10" stroke-width="2"/>
      <path id="Path_4842" data-name="Path 4842" d="M589.572,463.782c-3.287-28.218-13.606-55.077-26.092-80.4-11.464-23.257-32.632-92.294-65.164-128.052a39.434,39.434,0,0,0-7.176-7.6c-1.339-1.09-2.789-2.143-4.328-3.162-.788-.61-1.579-1.206-2.379-1.772-.64-.454-.884-.49-.856-.232-10.431-6.148-23.779-10.9-34.158-14.342-15.345-5.091-43.462-11-55.56-13.616-.592-.129-.833-.11-.98.028a468.656,468.656,0,0,0-68.22-11.6l-50.1,15.329c-5.054,1.534-24.869,7.31-29.311,8.866-6.785,2.073-13.55,4.183-20.269,6.393a178.7,178.7,0,0,0-24.56,9.9c-11.506,4.57-22.776,9.878-32.775,17.237-11.615,8.551-20.945,19.759-28.853,31.731-8,12.1-14.737,25.009-21.434,37.858q-11.11,21.307-21.38,43.036c-13.716,29.035-26.431,58.609-37.689,88.687a169.178,169.178,0,0,0-7.013,22.479c-1.662,7.473-2.749,15.923,1.152,22.914,3.3,5.918,9.411,9.593,15.541,12.023a104.865,104.865,0,0,0,21.137,5.485,224.011,224.011,0,0,0,23.748,2.557c1.07.2,2.15.375,3.23.542,36.771,5.683,74.225,4.6,111.291,2.749,3.813-.184,8.506,13.538,12.32,13.334-.436,1.187-.9,2.361-1.372,3.529-.228.554.733.795.965.25.516-1.268,1-2.545,1.471-3.832l1.61-.084a.464.464,0,1,0,0-.927c-.426.019-.852.047-1.278.066.185-.517.372-1.037.548-1.563q13.634,5.012,27.717,8.82H430.314c.322-4.749.959-10.448,1.835-16.811,4.842-.725,17.306-3.183,30.951-3.2.307,0,.611,0,.927.009,2,.009,4.026.082,6.061.213,22.294,1.5,21.75,5.319,45.118,6.478,7.674.379,22.351-1.509,29.968-2.517,6.516-.871,13.143-1.741,19.261-4.277,10.66-4.424,18.24-13.986,22.194-24.618,4.922-13.29,4.553-28.042,2.943-41.909m-141.715-13.07c5.064-22.9,10.006-43.11,12.977-53.594,9.841,17.728,18.8,33.72,21.981,38.8-9.789,5.028-22.368,9.823-34.958,14.8" fill="#662d91"/>
      <path id="Path_4843" data-name="Path 4843" d="M589.572,463.782c-3.287-28.218-13.606-55.077-26.092-80.4-11.464-23.257-32.632-92.294-65.164-128.052a39.434,39.434,0,0,0-7.176-7.6c-1.339-1.09-2.789-2.143-4.328-3.162-.788-.61-1.579-1.206-2.379-1.772-.64-.454-.884-.49-.856-.232-10.431-6.148-23.779-10.9-34.158-14.342-15.345-5.091-43.462-11-55.56-13.616-.592-.129-.833-.11-.98.028a468.656,468.656,0,0,0-68.22-11.6l-50.1,15.329c-5.054,1.534-24.869,7.31-29.311,8.866-6.785,2.073-13.55,4.183-20.269,6.393a178.7,178.7,0,0,0-24.56,9.9c-11.506,4.57-22.776,9.878-32.775,17.237-11.615,8.551-20.945,19.759-28.853,31.731-8,12.1-14.737,25.009-21.434,37.858q-11.11,21.307-21.38,43.036c-13.716,29.035-26.431,58.609-37.689,88.687a169.178,169.178,0,0,0-7.013,22.479c-1.662,7.473-2.749,15.923,1.152,22.914,3.3,5.918,9.411,9.593,15.541,12.023a104.865,104.865,0,0,0,21.137,5.485,224.011,224.011,0,0,0,23.748,2.557c1.07.2,2.15.375,3.23.542,36.771,5.683,74.225,4.6,111.291,2.749,3.813-.184,8.506,13.538,12.32,13.334-.436,1.187-.9,2.361-1.372,3.529-.228.554.733.795.965.25.516-1.268,1-2.545,1.471-3.832l1.61-.084a.464.464,0,1,0,0-.927c-.426.019-.852.047-1.278.066.185-.517.372-1.037.548-1.563q13.634,5.012,27.717,8.82H430.314c.322-4.749.959-10.448,1.835-16.811,4.842-.725,17.306-3.183,30.951-3.2.307,0,.611,0,.927.009,2,.009,4.026.082,6.061.213,22.294,1.5,21.75,5.319,45.118,6.478,7.674.379,22.351-1.509,29.968-2.517,6.516-.871,13.143-1.741,19.261-4.277,10.66-4.424,18.24-13.986,22.194-24.618C591.551,492.4,591.182,477.649,589.572,463.782Zm-141.715-13.07c5.064-22.9,10.006-43.11,12.977-53.594,9.841,17.728,18.8,33.72,21.981,38.8C473.026,440.943,460.447,445.738,447.857,450.712Z" fill="none" stroke="#000" stroke-miterlimit="10" stroke-width="2"/>
      <path id="Path_4844" data-name="Path 4844" d="M386.868,60.928c-.213-6.612-3.409-9.765-6.5-14.843a1.56,1.56,0,0,1-.178-.451c-3.4-3.538-6.349-7.223-6.738-12.11-1.233-15.532-8.13-20.043-12.492-21.866a24.954,24.954,0,0,0-6.84-1.759c-3.41-.385-6.741.391-10.135.207-3.51-.195-5.952-2.22-8.741-4.042a31.183,31.183,0,0,0-40.262,5.284c-.129-.388-.852-.325-.911.185-.038.326-.054.651-.079.977-.247.3-.5.589-.742.9-.325.426.295.83.68.567a22.694,22.694,0,0,0,2.244,10.2c.182.372.376.748.58,1.123a4.01,4.01,0,0,0-.4.4c-2.555,2.93-1.324,7.323.855,10.059,2.98,3.742,7.614,5.354,12.016,6.838a75.532,75.532,0,0,1,14.4,6.443c18.5,10.924,32.291,27.777,36.355,48.45a133.834,133.834,0,0,1,2.16,28.283c-3.823,5.586-8.272,12.358-9.624,18.986-1.268,6.224-2.492,12.6-3.172,19-.141.535-.282,1.073-.422,1.609a.467.467,0,0,0,.773.451c6-4.941,8.56-12.189,17.892-36.869,2.9-7.658,6.412-18.816,7.5-26.928.827-6.146,1.14-12.589,2.555-18.7.441-.579.889-1.155,1.355-1.728,4.24-5.251,8.087-13.773,7.865-20.67" fill="#402525"/>
      <path id="Path_4845" data-name="Path 4845" d="M386.868,60.928c-.213-6.612-3.409-9.765-6.5-14.843a1.56,1.56,0,0,1-.178-.451c-3.4-3.538-6.349-7.223-6.738-12.11-1.233-15.532-8.13-20.043-12.492-21.866a24.954,24.954,0,0,0-6.84-1.759c-3.41-.385-6.741.391-10.135.207-3.51-.195-5.952-2.22-8.741-4.042a31.183,31.183,0,0,0-40.262,5.284c-.129-.388-.852-.325-.911.185-.038.326-.054.651-.079.977-.247.3-.5.589-.742.9-.325.426.295.83.68.567a22.694,22.694,0,0,0,2.244,10.2c.182.372.376.748.58,1.123a4.01,4.01,0,0,0-.4.4c-2.555,2.93-1.324,7.323.855,10.059,2.98,3.742,7.614,5.354,12.016,6.838a75.532,75.532,0,0,1,14.4,6.443c18.5,10.924,32.291,27.777,36.355,48.45a133.834,133.834,0,0,1,2.16,28.283c-3.823,5.586-8.272,12.358-9.624,18.986-1.268,6.224-2.492,12.6-3.172,19-.141.535-.282,1.073-.422,1.609a.467.467,0,0,0,.773.451c6-4.941,8.56-12.189,17.892-36.869,2.9-7.658,6.412-18.816,7.5-26.928.827-6.146,1.14-12.589,2.555-18.7.441-.579.889-1.155,1.355-1.728C383.243,76.347,387.09,67.825,386.868,60.928Z" fill="none" stroke="#000" stroke-miterlimit="10" stroke-width="2"/>
      <path id="Path_4846" data-name="Path 4846" d="M357.259,191.6q-.249-24.862-1.046-49.727-.249-8.646-.6-17.279a.456.456,0,0,0-.9-.119c-.733,2.934-3.165,4.646-5.582,6.137-2.536,1.553-5.11,3.043-7.689,4.533q-7.806,4.514-15.789,8.719-13.483,7.105-27.4,13.31-.08-.681-.166-1.362c-.075-.583-.989-.592-.914,0s.147,1.167.219,1.75c-1.406.629-2.811,1.268-4.23,1.878-.535.232-.072,1.037.454.805,1.306-.564,2.6-1.165,3.9-1.741q1.761,13.911,3.147,27.858.972,9.693,1.759,19.417.456,5.457.842,10.9a2.028,2.028,0,0,0,.119,3.071.393.393,0,0,1,.1.066.662.662,0,0,1,.009.128.471.471,0,0,0,.852.251c1.775.482,18.947.488,20.5.3l13.391-3.989c6.052-.7,12.576-2.173,18.584-.573a.463.463,0,0,0,.573-.454q-.014-11.937-.147-23.888" fill="#faa882"/>
      <path id="Path_4847" data-name="Path 4847" d="M357.259,191.6q-.249-24.862-1.046-49.727-.249-8.646-.6-17.279a.456.456,0,0,0-.9-.119c-.733,2.934-3.165,4.646-5.582,6.137-2.536,1.553-5.11,3.043-7.689,4.533q-7.806,4.514-15.789,8.719-13.483,7.105-27.4,13.31-.08-.681-.166-1.362c-.075-.583-.989-.592-.914,0s.147,1.167.219,1.75c-1.406.629-2.811,1.268-4.23,1.878-.535.232-.072,1.037.454.805,1.306-.564,2.6-1.165,3.9-1.741q1.761,13.911,3.147,27.858.972,9.693,1.759,19.417.456,5.457.842,10.9a2.028,2.028,0,0,0,.119,3.071.393.393,0,0,1,.1.066.662.662,0,0,1,.009.128.471.471,0,0,0,.852.251c1.775.482,18.947.488,20.5.3l13.391-3.989c6.052-.7,12.576-2.173,18.584-.573a.463.463,0,0,0,.573-.454Q357.393,203.55,357.259,191.6Z" fill="none" stroke="#000" stroke-miterlimit="10" stroke-width="2"/>
      <path id="Path_4848" data-name="Path 4848" d="M306.165,203c4.443-.626,8.818-2.379,13.108-3.55,6.084-1.663,12.071-3.676,18.118-5.46,6.183-1.829,12.5-3.206,18.705-4.944q-.258-23.585-.991-47.172c-12.826,9.245-24.037,20.629-35.875,31.108-5.649,5.006-11.7,10.134-18.557,13.381q.8,8.157,1.466,16.343a10.623,10.623,0,0,1,4.026.294" fill="#e28b69"/>
      <path id="Path_4849" data-name="Path 4849" d="M438.113,520.221c-.038-1.415-.15-2.843-.326-4.258a64.61,64.61,0,0,0-1.841-9.374c-.344-1.315-.732-2.62-1.139-3.9a77.045,77.045,0,0,0-7.22-16.1,80.061,80.061,0,0,0-4.812-7.377,37.166,37.166,0,0,0-2.47-3,27.4,27.4,0,0,0-3.61-3.331c-4.092-3.071-10.291-3.9-13.66.657a11.858,11.858,0,0,0-2.176,7.305c-.065.591-.109,1.183-.147,1.775-.047.851-.075,1.7-.056,2.545.075,8.616,3.065,17.066,6.59,25.018.436.99.889,1.979,1.34,2.959,1.112,2.389,2.186,4.8,3.444,7.063a25.975,25.975,0,0,0,6.666,8.266c2.248,1.75,3.838,3.534,6.412,4.736,2.072.974,5.369,1.344,7.517.289,4.627-2.267,5.616-8.7,5.488-13.272" fill="#402525"/>
      <path id="Path_4850" data-name="Path 4850" d="M438.113,520.221c-.038-1.415-.15-2.843-.326-4.258a64.61,64.61,0,0,0-1.841-9.374c-.344-1.315-.732-2.62-1.139-3.9a77.045,77.045,0,0,0-7.22-16.1,80.061,80.061,0,0,0-4.812-7.377,37.166,37.166,0,0,0-2.47-3,27.4,27.4,0,0,0-3.61-3.331c-4.092-3.071-10.291-3.9-13.66.657a11.858,11.858,0,0,0-2.176,7.305c-.065.591-.109,1.183-.147,1.775-.047.851-.075,1.7-.056,2.545.075,8.616,3.065,17.066,6.59,25.018.436.99.889,1.979,1.34,2.959,1.112,2.389,2.186,4.8,3.444,7.063a25.975,25.975,0,0,0,6.666,8.266c2.248,1.75,3.838,3.534,6.412,4.736,2.072.974,5.369,1.344,7.517.289C437.252,531.226,438.241,524.792,438.113,520.221Z" fill="none" stroke="#000" stroke-miterlimit="10" stroke-width="2"/>
      <path id="Path_4851" data-name="Path 4851" d="M366.107,100.216a12.391,12.391,0,0,0-7.076-5.736,83.11,83.11,0,0,0-2.185-14.57c-3.553-13.475-6.024-26.352-19.414-32.141-7.63-3.3-11.058-6.237-19.239-7.571a95.368,95.368,0,0,0-26.114-.986c-13.838,1.581-27.37,7.461-36.512,18.109a39.027,39.027,0,0,0-8.963,19.21.366.366,0,0,0-.247.411c.024.225.049.453.075.679-.767,5.876,4.968,41.674,6.646,53.556,1.209,8.544,4.186,16.142,7.455,24.191a73.937,73.937,0,0,0,11.032,18.472c4.722,5.864,10.755,13.832,17.2,17.893,7.671,4.831,12.764,5.244,17.74,5.36,8.2.191,14.113-.348,24.758-9.023,12.965-10.57,24.01-36.2,25.45-44.542.907-5.248,1.684-12.008,2.181-19.3a27.106,27.106,0,0,0,7.5-7.35c3.055-4.765,2.445-11.875-.282-16.662" fill="#faa882"/>
      <path id="Path_4852" data-name="Path 4852" d="M366.107,100.216a12.391,12.391,0,0,0-7.076-5.736,83.11,83.11,0,0,0-2.185-14.57c-3.553-13.475-6.024-26.352-19.414-32.141-7.63-3.3-11.058-6.237-19.239-7.571a95.368,95.368,0,0,0-26.114-.986c-13.838,1.581-27.37,7.461-36.512,18.109a39.027,39.027,0,0,0-8.963,19.21.366.366,0,0,0-.247.411c.024.225.049.453.075.679-.767,5.876,4.968,41.674,6.646,53.556,1.209,8.544,4.186,16.142,7.455,24.191a73.937,73.937,0,0,0,11.032,18.472c4.722,5.864,10.755,13.832,17.2,17.893,7.671,4.831,12.764,5.244,17.74,5.36,8.2.191,14.113-.348,24.758-9.023,12.965-10.57,24.01-36.2,25.45-44.542.907-5.248,1.684-12.008,2.181-19.3a27.106,27.106,0,0,0,7.5-7.35C369.444,112.113,368.834,105,366.107,100.216Z" fill="none" stroke="#000" stroke-miterlimit="10" stroke-width="2"/>
      <path id="Path_4853" data-name="Path 4853" d="M281.293,118.71c.817,5.238-1.03,9.878-4.123,10.36s-6.265-3.375-7.079-8.616,1.03-9.878,4.123-10.36,6.262,3.375,7.079,8.616" fill="#402525"/>
      <path id="Path_4854" data-name="Path 4854" d="M321.13,116.666c.814,5.241-1.033,9.878-4.126,10.36s-6.262-3.375-7.079-8.616,1.033-9.878,4.126-10.36,6.262,3.375,7.079,8.616" fill="#402525"/>
      <path id="Path_4855" data-name="Path 4855" d="M307.993,138.428a8.717,8.717,0,0,0-6.581-2.918.462.462,0,0,0,0,.924,7.79,7.79,0,0,1,5.927,2.648c.4.445,1.048-.213.654-.654" fill="#b35630"/>
      <path id="Path_4856" data-name="Path 4856" d="M281.516,104.543a85.791,85.791,0,0,1-8.735.351c-2.486.056-5.169.663-7.636.864-3.062.244-4.969-.439-5.783-3.588a7.066,7.066,0,0,1,.479-4.559c.648-1.568,5.974-7.867,18.983-5.654,2.623.448,5.338,1.384,6.712,4.039,2.323,4.48-.435,8.049-4.02,8.547" fill="#402525"/>
      <path id="Path_4857" data-name="Path 4857" d="M321.427,101.3a85.792,85.792,0,0,1-8.735.351c-2.483.056-5.166.667-7.636.864-3.059.247-4.969-.435-5.783-3.588a7.051,7.051,0,0,1,.479-4.555c.652-1.572,5.977-7.871,18.982-5.655,2.624.445,5.339,1.384,6.716,4.036,2.32,4.48-.438,8.049-4.023,8.547" fill="#402525"/>
      <path id="Path_4858" data-name="Path 4858" d="M306.766,163.052c-8.3,1.894-14.684-4.618-18.544-11.23a266.132,266.132,0,0,0,29.978-3.385c-1.14,6.563-4.437,13.018-11.434,14.615" fill="#fff"/>
      <path id="Path_4859" data-name="Path 4859" d="M365.312,94.763c-1.068,2.023-2.545,2.805-5.066,2.151a20.386,20.386,0,0,0-3.65-.98c-3.623-.282-7.32,1.781-9.919-1.628-1.834-2.4-2.557-5.733-3.34-8.519-.827-2.952-1.713-11.525-2.474-14.493-2.357-9.176-7.25-10.582-12.457-8.822.091-.3-3.807-10.1-3.82-10.46-.065-1.822-1.315-2.95-2.8-4.017-1.271-.917-2.8-1.744-3.328-3.234-.707-2.013.63-4.145,2.436-5.273,2.733-1.706,6.578-1.706,9.743-1.368,13.626,1.444,22.93,11.785,28.832,22.06,5.739,9.99,11.672,23.55,5.842,34.583" fill="#402525"/>
      <path id="Path_4860" data-name="Path 4860" d="M365.312,94.763c-1.068,2.023-2.545,2.805-5.066,2.151a20.386,20.386,0,0,0-3.65-.98c-3.623-.282-7.32,1.781-9.919-1.628-1.834-2.4-2.557-5.733-3.34-8.519-.827-2.952-1.713-11.525-2.474-14.493-2.357-9.176-7.25-10.582-12.457-8.822.091-.3-3.807-10.1-3.82-10.46-.065-1.822-1.315-2.95-2.8-4.017-1.271-.917-2.8-1.744-3.328-3.234-.707-2.013.63-4.145,2.436-5.273,2.733-1.706,6.578-1.706,9.743-1.368,13.626,1.444,22.93,11.785,28.832,22.06C365.209,70.17,371.142,83.73,365.312,94.763Z" fill="none" stroke="#000" stroke-miterlimit="10" stroke-width="2"/>
      <path id="Path_4861" data-name="Path 4861" d="M359.639,100.279c-3.973-.451-6.5,2.592-8.61,5.516-.25.348.16.768.52.68,5.022-1.218,8.757,6.96,3.867,9.4-.533.263-.063,1.064.469.8,5.451-2.718,1.985-11.356-3.447-11.237,1.788-2.379,3.929-4.6,7.2-4.229.592.065.585-.858,0-.927" fill="#b35630"/>
      <path id="Path_4862" data-name="Path 4862" d="M343.64,44.848c-.708-2.508-2.833-4.233-4.1-6.424-2.111-3.645.5-6.112,1.568-9.49,1.86-5.9-3.913-9.583-8.65-11.261A54.518,54.518,0,0,0,310.7,14.78c-.592.037-.6.964,0,.923a54.335,54.335,0,0,1,18.694,1.96c2.983.864,6.352,1.86,8.663,4.042,2.952,2.786,2.783,5.942,1.089,9.339-.826,1.66-1.656,3.357-1.393,5.266a9.769,9.769,0,0,0,2.264,4.4c2.035,2.671,3.985,5.363,2.1,8.782-1.643,2.974-4.984,4.333-7.965,5.545-.544.219-.306,1.114.245.892,4.439-1.8,10.92-5.138,9.245-11.083"/>
      <path id="Path_4863" data-name="Path 4863" d="M343.64,44.848c-.708-2.508-2.833-4.233-4.1-6.424-2.111-3.645.5-6.112,1.568-9.49,1.86-5.9-3.913-9.583-8.65-11.261A54.518,54.518,0,0,0,310.7,14.78c-.592.037-.6.964,0,.923a54.335,54.335,0,0,1,18.694,1.96c2.983.864,6.352,1.86,8.663,4.042,2.952,2.786,2.783,5.942,1.089,9.339-.826,1.66-1.656,3.357-1.393,5.266a9.769,9.769,0,0,0,2.264,4.4c2.035,2.671,3.985,5.363,2.1,8.782-1.643,2.974-4.984,4.333-7.965,5.545-.544.219-.306,1.114.245.892C338.834,54.128,345.315,50.793,343.64,44.848Z" fill="none" stroke="#000" stroke-miterlimit="10" stroke-width="1"/>
      <path id="Path_4864" data-name="Path 4864" d="M242.315,84.944a16.511,16.511,0,0,1-6.647,2.9c-2.27.323-5.967.708-7.874-.8-.463-.363-1.124.288-.654.654,2.029,1.6,4.918,1.362,7.364,1.2a16.859,16.859,0,0,0,8.277-3.156c.5-.322.038-1.124-.466-.8"/>
      <path id="Path_4865" data-name="Path 4865" d="M242.315,84.944a16.511,16.511,0,0,1-6.647,2.9c-2.27.323-5.967.708-7.874-.8-.463-.363-1.124.288-.654.654,2.029,1.6,4.918,1.362,7.364,1.2a16.859,16.859,0,0,0,8.277-3.156C243.282,85.42,242.819,84.618,242.315,84.944Z" fill="none" stroke="#000" stroke-miterlimit="10" stroke-width="1"/>
      <path id="Path_4866" data-name="Path 4866" d="M370.481,75.621c-.207-.554-1.1-.313-.892.244,1.249,3.328,2.445,6.841,1.672,10.429a12.493,12.493,0,0,1-5.473,7.814c-.5.326-.035,1.128.466.8A13.491,13.491,0,0,0,371.99,87.2c1.09-3.967-.11-7.849-1.509-11.575"/>
      <path id="Path_4867" data-name="Path 4867" d="M370.481,75.621c-.207-.554-1.1-.313-.892.244,1.249,3.328,2.445,6.841,1.672,10.429a12.493,12.493,0,0,1-5.473,7.814c-.5.326-.035,1.128.466.8A13.491,13.491,0,0,0,371.99,87.2C373.08,83.229,371.88,79.347,370.481,75.621Z" fill="none" stroke="#000" stroke-miterlimit="10" stroke-width="1"/>
      <path id="Path_4868" data-name="Path 4868" d="M366.448,209.369c-.939-3.081-2.9-5.77-4.6-8.6-1.265-2.111-1.9-4.471-3.1-6.594-.535-.952-1.118-1.612-2.276-1.44-2.238.335-4.727,1.8-6.881,2.539q-3.823,1.3-7.718,2.37a46.035,46.035,0,0,0-7.673,2.367c-.057.016-.113.025-.17.038a11.27,11.27,0,0,0-2.1.713,5.469,5.469,0,0,0-2.489,2.508,23.166,23.166,0,0,0-1.538,4.618q-1.7,6.067-3.387,12.154c-.705-2.3-1.415-4.6-2.148-6.888q-1.5-4.635-3.1-9.245c-.63-1.813-.833-3.341-2.906-3.648-3.193-.469-6.7-.175-9.921-.247-1.666-.037-3.344-.075-5.01-.122-.989-.019-2.5-.426-3.406.028-.877.445-1.183,1.6-1.321,2.805a.39.39,0,0,0-.113.2l-4.051,18.24a.477.477,0,0,0,.119.454q5.109,4.307,10.209,8.607c2.561,2.166,5.248,5.028,8.588,5.942a3.6,3.6,0,0,0,2.489-.047,4.9,4.9,0,0,0,2.934-1.684c2.971-3.257,5.36-8.209,7.711-11.976,2.433,3.2,5,10.357,9.346,13.281a7.392,7.392,0,0,0,4.574.723l15.845-11.959c4.07-3.172,8.569-6.124,12.344-9.634,1.547-1.431.824-3.563-.25-5.507" fill="#49206d"/>
      <path id="Path_4869" data-name="Path 4869" d="M366.448,209.369c-.939-3.081-2.9-5.77-4.6-8.6-1.265-2.111-1.9-4.471-3.1-6.594-.535-.952-1.118-1.612-2.276-1.44-2.238.335-4.727,1.8-6.881,2.539q-3.823,1.3-7.718,2.37a46.035,46.035,0,0,0-7.673,2.367c-.057.016-.113.025-.17.038a11.27,11.27,0,0,0-2.1.713,5.469,5.469,0,0,0-2.489,2.508,23.166,23.166,0,0,0-1.538,4.618q-1.7,6.067-3.387,12.154c-.705-2.3-1.415-4.6-2.148-6.888q-1.5-4.635-3.1-9.245c-.63-1.813-.833-3.341-2.906-3.648-3.193-.469-6.7-.175-9.921-.247-1.666-.037-3.344-.075-5.01-.122-.989-.019-2.5-.426-3.406.028-.877.445-1.183,1.6-1.321,2.805a.39.39,0,0,0-.113.2l-4.051,18.24a.477.477,0,0,0,.119.454q5.109,4.307,10.209,8.607c2.561,2.166,5.248,5.028,8.588,5.942a3.6,3.6,0,0,0,2.489-.047,4.9,4.9,0,0,0,2.934-1.684c2.971-3.257,5.36-8.209,7.711-11.976,2.433,3.2,5,10.357,9.346,13.281a7.392,7.392,0,0,0,4.574.723l15.845-11.959c4.07-3.172,8.569-6.124,12.344-9.634C368.245,213.445,367.522,211.313,366.448,209.369Z" fill="none" stroke="#000" stroke-miterlimit="10" stroke-width="2"/>
      <path id="Path_4870" data-name="Path 4870" d="M333.728,222.121c-1.65,1.446-4.875,5.028-6.957,5.98a14.935,14.935,0,0,1-3.8,1.584c-2.125.272-3.334-.867-4.677-2.226a44.419,44.419,0,0,1-4.687-5.585,8.169,8.169,0,0,1-1.462-7.749c.42-1.459.8-2.915,1.121-4.386a2.091,2.091,0,0,1,1.866-1.657c4.158-.328,14.126-.526,18.472-.313a2.1,2.1,0,0,1,1.988,1.891,47.361,47.361,0,0,1,.379,6.6c-.022,2.812-.019,3.917-2.239,5.861" fill="#fff"/>
      <path id="Path_4871" data-name="Path 4871" d="M333.728,222.121c-1.65,1.446-4.875,5.028-6.957,5.98a14.935,14.935,0,0,1-3.8,1.584c-2.125.272-3.334-.867-4.677-2.226a44.419,44.419,0,0,1-4.687-5.585,8.169,8.169,0,0,1-1.462-7.749c.42-1.459.8-2.915,1.121-4.386a2.091,2.091,0,0,1,1.866-1.657c4.158-.328,14.126-.526,18.472-.313a2.1,2.1,0,0,1,1.988,1.891,47.361,47.361,0,0,1,.379,6.6C335.945,219.072,335.948,220.177,333.728,222.121Z" fill="none" stroke="#000" stroke-miterlimit="10" stroke-width="2"/>
      <path id="Path_4872" data-name="Path 4872" d="M319.092,204.51a3.583,3.583,0,0,0-.348-.316,6.3,6.3,0,0,0-1.252-3.438c-.36-.463-1.164,0-.8.467a5.443,5.443,0,0,1,1.02,2.288,4.567,4.567,0,0,0-4.408.511c-2.379,1.621-3.563,4.768-4.339,7.423a36.806,36.806,0,0,0-1.193,11.383c.085,3.116,0,6.857,1.775,9.571.67,1.027,2.057,2.765,3.1,1.3.945-1.333,1.283-3.537,1.687-5.1.542-2.1,1.027-4.214,1.494-6.333q1.319-6.034,2.3-12.138a37.427,37.427,0,0,0,.651-4.819.485.485,0,0,0,.316-.8" fill="#240c3d"/>
      <path id="Path_4873" data-name="Path 4873" d="M319.092,204.51a3.583,3.583,0,0,0-.348-.316,6.3,6.3,0,0,0-1.252-3.438c-.36-.463-1.164,0-.8.467a5.443,5.443,0,0,1,1.02,2.288,4.567,4.567,0,0,0-4.408.511c-2.379,1.621-3.563,4.768-4.339,7.423a36.806,36.806,0,0,0-1.193,11.383c.085,3.116,0,6.857,1.775,9.571.67,1.027,2.057,2.765,3.1,1.3.945-1.333,1.283-3.537,1.687-5.1.542-2.1,1.027-4.214,1.494-6.333q1.319-6.034,2.3-12.138a37.427,37.427,0,0,0,.651-4.819A.485.485,0,0,0,319.092,204.51Z" fill="none" stroke="#000" stroke-miterlimit="10" stroke-width="2"/>
      <path id="Path_4874" data-name="Path 4874" d="M339.129,207.9c-.78-2.655-1.963-5.8-4.342-7.423a5.3,5.3,0,0,0-.758-.426,11.355,11.355,0,0,0-2.1.714,5.465,5.465,0,0,0-2.489,2.508c.138,1.12.36,2.251.536,3.3q.972,6.109,2.294,12.144c.464,2.12.946,4.23,1.491,6.331.407,1.565.742,3.766,1.684,5.1,1.046,1.471,2.436-.27,3.1-1.3,1.787-2.712,1.693-6.459,1.778-9.571a36.531,36.531,0,0,0-1.193-11.384" fill="#240c3d"/>
      <path id="Path_4875" data-name="Path 4875" d="M339.129,207.9c-.78-2.655-1.963-5.8-4.342-7.423a5.3,5.3,0,0,0-.758-.426,11.355,11.355,0,0,0-2.1.714,5.465,5.465,0,0,0-2.489,2.508c.138,1.12.36,2.251.536,3.3q.972,6.109,2.294,12.144c.464,2.12.946,4.23,1.491,6.331.407,1.565.742,3.766,1.684,5.1,1.046,1.471,2.436-.27,3.1-1.3,1.787-2.712,1.693-6.459,1.778-9.571A36.531,36.531,0,0,0,339.129,207.9Z" fill="none" stroke="#000" stroke-miterlimit="10" stroke-width="2"/>
      <path id="Path_4876" data-name="Path 4876" d="M332.573,400.436c-1.3-39.179-2.21-156.215-4.9-178.187a.466.466,0,0,0-.861-.232c-.876,1.365-5.454,2.733-6.33,4.1-.113-.435-.777-.56-.88-.05-10.554,51.662-12.9,83.988-16.647,123.467-3.528,37.153-4.42,69.429-1.13,106.736,1.788,20.309,5.789,40.431,13.043,59.523a.468.468,0,0,0,.893,0q4.968-13.6,9.934-27.2a266.73,266.73,0,0,0,8.741-26.94c4.565-18.322-1.24-42.473-1.863-61.217" fill="#fff"/>
      <path id="Path_4877" data-name="Path 4877" d="M332.573,400.436c-1.3-39.179-2.21-156.215-4.9-178.187a.466.466,0,0,0-.861-.232c-.876,1.365-5.454,2.733-6.33,4.1-.113-.435-.777-.56-.88-.05-10.554,51.662-12.9,83.988-16.647,123.467-3.528,37.153-4.42,69.429-1.13,106.736,1.788,20.309,5.789,40.431,13.043,59.523a.468.468,0,0,0,.893,0q4.968-13.6,9.934-27.2a266.73,266.73,0,0,0,8.741-26.94C339,443.331,333.2,419.18,332.573,400.436Z" fill="none" stroke="#000" stroke-miterlimit="10" stroke-width="2"/>
      <path id="Path_4878" data-name="Path 4878" d="M459.888,397.822A213.339,213.339,0,0,1,453.9,312.01c.078-.583-.814-.833-.892-.245a214.5,214.5,0,0,0,5.986,86.3.464.464,0,0,0,.893-.247"/>
      <path id="Path_4879" data-name="Path 4879" d="M459.888,397.822A213.339,213.339,0,0,1,453.9,312.01c.078-.583-.814-.833-.892-.245a214.5,214.5,0,0,0,5.986,86.3A.464.464,0,0,0,459.888,397.822Z" fill="none" stroke="#000" stroke-miterlimit="10" stroke-width="2"/>
      <path id="Path_4880" data-name="Path 4880" d="M475.182,319.142a170.043,170.043,0,0,0-10.6,49.216c-.037.6.886.592.924,0a169.294,169.294,0,0,1,10.563-48.972c.21-.557-.685-.8-.892-.244"/>
      <path id="Path_4881" data-name="Path 4881" d="M475.182,319.142a170.043,170.043,0,0,0-10.6,49.216c-.037.6.886.592.924,0a169.294,169.294,0,0,1,10.563-48.972C476.284,318.829,475.389,318.588,475.182,319.142Z" fill="none" stroke="#000" stroke-miterlimit="10" stroke-width="2"/>
      <path id="Path_4882" data-name="Path 4882" d="M560.343,443.489c-21.549-17.147-52.46-20.641-77.29-8.719-.539.256-.069,1.055.466.8,24.42-11.725,54.968-8.293,76.17,8.575.463.37,1.12-.281.654-.654"/>
      <path id="Path_4883" data-name="Path 4883" d="M560.343,443.489c-21.549-17.147-52.46-20.641-77.29-8.719-.539.256-.069,1.055.466.8,24.42-11.725,54.968-8.293,76.17,8.575C560.152,444.513,560.809,443.862,560.343,443.489Z" fill="none" stroke="#000" stroke-miterlimit="10" stroke-width="2"/>
      <path id="Path_4884" data-name="Path 4884" d="M204.532,387.105a224.145,224.145,0,0,1-15.858-82.766.463.463,0,0,0-.926,0,224.8,224.8,0,0,0,15.892,83.013c.219.545,1.114.307.892-.247"/>
      <path id="Path_4885" data-name="Path 4885" d="M204.532,387.105a224.145,224.145,0,0,1-15.858-82.766.463.463,0,0,0-.926,0,224.8,224.8,0,0,0,15.892,83.013C203.859,387.9,204.754,387.659,204.532,387.105Z" fill="none" stroke="#000" stroke-miterlimit="10" stroke-width="2"/>
      <path id="Path_4886" data-name="Path 4886" d="M464.026,530.412c-.316-.009-.62-.009-.927-.009.057-.4.113-.789.157-1.187,1.935-15.344.814-31.374-4.812-45.876a60.408,60.408,0,0,0-10.811-18.2,45.049,45.049,0,0,0-7.6-6.894,41.245,41.245,0,0,0-4.174-2.7c.36-.156.723-.3,1.083-.451,1.259.73,2.452,1.563,3.554,2.339a46.664,46.664,0,0,1,8.256,7.574c9.718,11.327,14.43,26.3,15.845,40.96a105.445,105.445,0,0,1-.573,24.436"/>
      <path id="Path_4887" data-name="Path 4887" d="M464.026,530.412c-.316-.009-.62-.009-.927-.009.057-.4.113-.789.157-1.187,1.935-15.344.814-31.374-4.812-45.876a60.408,60.408,0,0,0-10.811-18.2,45.049,45.049,0,0,0-7.6-6.894,41.245,41.245,0,0,0-4.174-2.7c.36-.156.723-.3,1.083-.451,1.259.73,2.452,1.563,3.554,2.339a46.664,46.664,0,0,1,8.256,7.574c9.718,11.327,14.43,26.3,15.845,40.96A105.445,105.445,0,0,1,464.026,530.412Z" fill="none" stroke="#000" stroke-miterlimit="10" stroke-width="2"/>
      <path id="Path_4888" data-name="Path 4888" d="M449.957,502.395c-4.762,0-4.771,7.4,0,7.4s4.774-7.4,0-7.4" fill="#cc9172"/>
      <path id="Path_4889" data-name="Path 4889" d="M379.9,231.686l-34.567,11.055c-.567.181-.326,1.077.244.892l34.567-11.055c.567-.181.326-1.074-.244-.892"/>
      <path id="Path_4890" data-name="Path 4890" d="M379.9,231.686l-34.567,11.055c-.567.181-.326,1.077.244.892l34.567-11.055C380.716,232.4,380.475,231.5,379.9,231.686Z" fill="none" stroke="#000" stroke-miterlimit="10" stroke-width="2"/>
      <path id="Path_4891" data-name="Path 4891" d="M335.638,35.108A20.171,20.171,0,0,0,332,26.135c-2.32-2.915-5.839-4.38-9.126-5.905q-7.017-3.249-14.133-6.28-3.1-1.324-6.227-2.6a.458.458,0,0,1-.056-.025l0-.006c-4.618-5.088-11.362-7.48-18-8.572A41.01,41.01,0,0,0,264.3,4.216C252.8,8.264,243.8,19.282,244.6,31.793c-10.447-2.461-22.817-2.361-30.375,6.433-5.457,6.35-5.591,16.663,1.293,21.972-8.3,5.9-8.146,18.792,1.068,23.923,10.2,5.679,19.223.191,27.9-5.5a13.508,13.508,0,0,0,5.181,12.5c5.554,4.167,15.676,3.7,21.659,1.5,6.926-2.554,13.059-4.264,18.046-9.718,7.392-8.084,8.488-11.906,7.984-15.156,2.533,4.912,12.745,3.92,17.482,2.464,6.544-2.01,14.393-5.661,18.244-11.609,2.028-3.134,2.667-7.057,3.052-10.7a44.3,44.3,0,0,0-.5-12.8" fill="#402525"/>
      <path id="Path_4892" data-name="Path 4892" d="M335.638,35.108A20.171,20.171,0,0,0,332,26.135c-2.32-2.915-5.839-4.38-9.126-5.905q-7.017-3.249-14.133-6.28-3.1-1.324-6.227-2.6a.458.458,0,0,1-.056-.025l0-.006c-4.618-5.088-11.362-7.48-18-8.572A41.01,41.01,0,0,0,264.3,4.216C252.8,8.264,243.8,19.282,244.6,31.793c-10.447-2.461-22.817-2.361-30.375,6.433-5.457,6.35-5.591,16.663,1.293,21.972-8.3,5.9-8.146,18.792,1.068,23.923,10.2,5.679,19.223.191,27.9-5.5a13.508,13.508,0,0,0,5.181,12.5c5.554,4.167,15.676,3.7,21.659,1.5,6.926-2.554,13.059-4.264,18.046-9.718,7.392-8.084,8.488-11.906,7.984-15.156,2.533,4.912,12.745,3.92,17.482,2.464,6.544-2.01,14.393-5.661,18.244-11.609,2.028-3.134,2.667-7.057,3.052-10.7A44.3,44.3,0,0,0,335.638,35.108Z" fill="none" stroke="#000" stroke-miterlimit="10" stroke-width="2"/>
      <path id="Path_4893" data-name="Path 4893" d="M266.625,49.917c-6.243,2.436-12.276,5.9-16.427,11.287-4.13,5.363-5.971,12.429-3.948,18.991.175.567,1.07.326.892-.247-4.3-13.935,8.106-24.6,19.73-29.139.548-.213.31-1.108-.247-.892"/>
      <path id="Path_4894" data-name="Path 4894" d="M266.625,49.917c-6.243,2.436-12.276,5.9-16.427,11.287-4.13,5.363-5.971,12.429-3.948,18.991.175.567,1.07.326.892-.247-4.3-13.935,8.106-24.6,19.73-29.139C267.42,50.6,267.182,49.7,266.625,49.917Z" fill="none" stroke="#000" stroke-miterlimit="10" stroke-width="1"/>
      <path id="Path_4895" data-name="Path 4895" d="M435.946,506.59c-.344-1.315-.732-2.62-1.14-3.9a77.012,77.012,0,0,0-7.219-16.1,80.184,80.184,0,0,0-4.812-7.376c-7.311,2.073-15.492,4.267-22.12,5.952-6.117,1.556-10.91,2.683-12.476,2.886-4.857.645-24.785,9.418-42.236,18.492-6.244,1.963-12.667,3.3-19.037,4.77a118.272,118.272,0,0,0-18.325,5.41c-6.555,2.687-12.116,6.635-17.516,11.155-2.865,2.4-5.739,4.791-8.453,7.358-1.175,1.111-2.336,2.245-3.422,3.444-1.294,1.424-1.012.926-.426,3.4.648,2.733.494,2.495,2.933,2.3,6.813-.545,12.539-5.3,17.57-9.49,4.831-4.023,9.609-7.767,15.623-9.84,6.794-2.342,14.02-3.66,21.011-5.275.288-.067.577-.131.865-.2q.672,1.244,1.352,2.482a60.139,60.139,0,0,0-15,5.583c-2.107,1.183-13.629,8.287-8.663,10.8a17.711,17.711,0,0,0,4.627,1.18q3.273.62,6.575,1.08,6,.841,12.057,1.168c3.967.212,11.465,1.346,15.265-1.544,8.564-.561,17.114-1.322,25.623-2.473,10.031-1.368,21.036-2.961,28.588-10.382a21.682,21.682,0,0,0,3.832-5.009c.4-.711.638-1.534,1.008-2.257.056-.119.122-.232.185-.341.61-1.021.576-.908,1.8-1.168a24.359,24.359,0,0,1,2.731-.295q3.264-.346,6.524-.732,6.275-.695,12.539-1.453c.658-.084,1.325-.156,1.982-.25a64.583,64.583,0,0,0-1.841-9.374" fill="#faa882"/>
      <path id="Path_4896" data-name="Path 4896" d="M435.946,506.59c-.344-1.315-.732-2.62-1.14-3.9a77.012,77.012,0,0,0-7.219-16.1,80.184,80.184,0,0,0-4.812-7.376c-7.311,2.073-15.492,4.267-22.12,5.952-6.117,1.556-10.91,2.683-12.476,2.886-4.857.645-24.785,9.418-42.236,18.492-6.244,1.963-12.667,3.3-19.037,4.77a118.272,118.272,0,0,0-18.325,5.41c-6.555,2.687-12.116,6.635-17.516,11.155-2.865,2.4-5.739,4.791-8.453,7.358-1.175,1.111-2.336,2.245-3.422,3.444-1.294,1.424-1.012.926-.426,3.4.648,2.733.494,2.495,2.933,2.3,6.813-.545,12.539-5.3,17.57-9.49,4.831-4.023,9.609-7.767,15.623-9.84,6.794-2.342,14.02-3.66,21.011-5.275.288-.067.577-.131.865-.2q.672,1.244,1.352,2.482a60.139,60.139,0,0,0-15,5.583c-2.107,1.183-13.629,8.287-8.663,10.8a17.711,17.711,0,0,0,4.627,1.18q3.273.62,6.575,1.08,6,.841,12.057,1.168c3.967.212,11.465,1.346,15.265-1.544,8.564-.561,17.114-1.322,25.623-2.473,10.031-1.368,21.036-2.961,28.588-10.382a21.682,21.682,0,0,0,3.832-5.009c.4-.711.638-1.534,1.008-2.257.056-.119.122-.232.185-.341.61-1.021.576-.908,1.8-1.168a24.359,24.359,0,0,1,2.731-.295q3.264-.346,6.524-.732,6.275-.695,12.539-1.453c.658-.084,1.325-.156,1.982-.25A64.583,64.583,0,0,0,435.946,506.59Z" fill="none" stroke="#000" stroke-miterlimit="10" stroke-width="2"/>
      <path id="Path_4897" data-name="Path 4897" d="M388.527,550.521H144.809l-4.28-15.425H376.78a9.824,9.824,0,0,1,9.465,7.2Z" fill="#680c1b"/>
      <path id="Path_4898" data-name="Path 4898" d="M388.527,550.521H144.809l-4.28-15.425H376.78a9.824,9.824,0,0,1,9.465,7.2Z" fill="none" stroke="#000" stroke-miterlimit="10" stroke-width="2"/>
      <path id="Path_4899" data-name="Path 4899" d="M300.488,550.681H65.483A11.517,11.517,0,0,1,54.4,542.3L12.876,395.565a3.205,3.205,0,0,1,3.081-4.073H253.028a3.2,3.2,0,0,1,3.081,2.323Z" fill="#680c1b"/>
      <path id="Path_4900" data-name="Path 4900" d="M300.488,550.681H65.483A11.517,11.517,0,0,1,54.4,542.3L12.876,395.565a3.205,3.205,0,0,1,3.081-4.073H253.028a3.2,3.2,0,0,1,3.081,2.323Z" fill="none" stroke="#000" stroke-miterlimit="10" stroke-width="2"/>
      <path id="Path_4901" data-name="Path 4901" d="M156.571,468.923c1.108,6.9-3.519,12.495-10.335,12.495s-13.237-5.6-14.345-12.495,3.519-12.495,10.335-12.495,13.237,5.6,14.345,12.495" fill="#fbb03b"/>
      <path id="Path_4902" data-name="Path 4902" d="M291.465,550.681H290.5L244.456,391.492h.955Z" fill="#664141"/>
      <path id="Path_4903" data-name="Path 4903" d="M291.465,550.681H290.5L244.456,391.492h.955Z" fill="none" stroke="#000" stroke-miterlimit="10" stroke-width="1"/>
      <path id="Path_4904" data-name="Path 4904" d="M351.276,514.132a14.1,14.1,0,0,0-8.259,2.786c-.473.348-.013,1.153.466.8a13.241,13.241,0,0,1,7.793-2.658.464.464,0,0,0,0-.927"/>
      <path id="Path_4905" data-name="Path 4905" d="M351.276,514.132a14.1,14.1,0,0,0-8.259,2.786c-.473.348-.013,1.153.466.8a13.241,13.241,0,0,1,7.793-2.658A.464.464,0,0,0,351.276,514.132Z" fill="none" stroke="#000" stroke-miterlimit="10" stroke-width="1"/>
      <path id="Path_4906" data-name="Path 4906" d="M361.912,523.894c-7.949-.028-15.213,3.121-22.295,6.406a.464.464,0,0,0,.382.845c6.913-3.209,14.055-6.359,21.819-6.331.589,0,.689-.92.094-.92"/>
      <path id="Path_4907" data-name="Path 4907" d="M361.912,523.894c-7.949-.028-15.213,3.121-22.295,6.406a.464.464,0,0,0,.382.845c6.913-3.209,14.055-6.359,21.819-6.331C362.407,524.818,362.507,523.894,361.912,523.894Z" fill="none" stroke="#000" stroke-miterlimit="10" stroke-width="1"/>
      <path id="Path_4908" data-name="Path 4908" d="M303.356,307.877a143.834,143.834,0,0,0-29.117-48.111c-.4-.439-1.055.216-.654.654a142.648,142.648,0,0,1,28.879,47.7c.2.557,1.1.316.892-.244"/>
      <path id="Path_4909" data-name="Path 4909" d="M303.356,307.877a143.834,143.834,0,0,0-29.117-48.111c-.4-.439-1.055.216-.654.654a142.648,142.648,0,0,1,28.879,47.7C302.664,308.678,303.559,308.437,303.356,307.877Z" fill="none" stroke="#000" stroke-miterlimit="10" stroke-width="2"/>
      <path id="Path_4910" data-name="Path 4910" d="M413.605,298.143a77.861,77.861,0,0,0-7.952-11.2,68.694,68.694,0,0,0-6.356-6.59c-1.731-1.566-3.788-3.128-6.24-3.118-2.128.009-3.888,1.258-5.375,2.654-2.38,2.22-4.546,4.7-6.684,7.136q-4.9,5.583-9.255,11.587c-.232.316-.473.638-.705.964.132,0,.27,0,.4-.009q3.456-.156,6.894-.279c9.339-.351,18.685-.592,28.034-.435,2.451.037,4.906.113,7.348.213.131,0,.269.009.416.009-.166-.313-.351-.629-.526-.936" fill="#f06e3e"/>
      <path id="Path_4911" data-name="Path 4911" d="M423.035,301.421c-.952-3.794-5.858-3.128-8.857-3.259-.194-.009-.379-.019-.573-.019-11.136-.46-22.3-.238-33.431.16-2.758.091-5.516.2-8.275.313a.9.9,0,0,1-.156,0c-2.007.075-4.5-.2-6.4.567a3.064,3.064,0,0,0-1.932,2.423c-.316,1.434-.464,8.459-.038,10.144.952,3.794,5.858,3.137,8.867,3.268,11.327.479,22.673.257,34-.141,2.749-.1,5.5-.213,8.263-.322,2.038-.085,4.611.222,6.552-.567A3.049,3.049,0,0,0,423,311.565a46.229,46.229,0,0,0,.038-10.144m-1.362,10.457c-.664,1.446-1.581,1.462-3.024,1.575-1.221.091-2.455.1-3.676.156-2.295.094-4.6.185-6.894.27-9.339.35-18.688.591-28.033.435-2.455-.038-4.9-.1-7.348-.2s-6.656.426-8.072-1.9c-.851-1.39-.6-9.4.11-10.92.676-1.447,1.594-1.465,3.028-1.575,1.092-.085,2.185-.1,3.274-.138.132,0,.27,0,.4-.009q3.456-.156,6.894-.279c9.339-.35,18.685-.592,28.033-.435,2.452.038,4.906.113,7.348.213.132,0,.27.009.417.009,2.5.047,6.312-.313,7.655,1.879.851,1.39.6,9.4-.113,10.92"/>
      <path id="Path_4912" data-name="Path 4912" d="M423.035,301.421c-.952-3.794-5.858-3.128-8.857-3.259-.194-.009-.379-.019-.573-.019-11.136-.46-22.3-.238-33.431.16-2.758.091-5.516.2-8.275.313a.9.9,0,0,1-.156,0c-2.007.075-4.5-.2-6.4.567a3.064,3.064,0,0,0-1.932,2.423c-.316,1.434-.464,8.459-.038,10.144.952,3.794,5.858,3.137,8.867,3.268,11.327.479,22.673.257,34-.141,2.749-.1,5.5-.213,8.263-.322,2.038-.085,4.611.222,6.552-.567A3.049,3.049,0,0,0,423,311.565,46.229,46.229,0,0,0,423.035,301.421Zm-1.362,10.457c-.664,1.446-1.581,1.462-3.024,1.575-1.221.091-2.455.1-3.676.156-2.295.094-4.6.185-6.894.27-9.339.35-18.688.591-28.033.435-2.455-.038-4.9-.1-7.348-.2s-6.656.426-8.072-1.9c-.851-1.39-.6-9.4.11-10.92.676-1.447,1.594-1.465,3.028-1.575,1.092-.085,2.185-.1,3.274-.138.132,0,.27,0,.4-.009q3.456-.156,6.894-.279c9.339-.35,18.685-.592,28.033-.435,2.452.038,4.906.113,7.348.213.132,0,.27.009.417.009,2.5.047,6.312-.313,7.655,1.879C422.637,302.348,422.387,310.363,421.673,311.878Z" fill="none" stroke="#000" stroke-miterlimit="10" stroke-width="2"/>
      <path id="Path_4913" data-name="Path 4913" d="M375.715,80.95a12.8,12.8,0,0,0-9.733-1.466c-3.67.961-6.728,3.529-9.662,5.814a171.326,171.326,0,0,0-19.4,17.7c-.185-.219-.36-.448-.564-.655-2.968-2.958-7.868-3.872-11.894-4.185a33.118,33.118,0,0,0-15.911,2.5c-2.457,1.1-5.294,2.386-7,4.508a6.36,6.36,0,0,0-1.221,2.793,18.6,18.6,0,0,0-12.639,1.143,10.99,10.99,0,0,0-1.776-2.364c-2.964-2.958-7.867-3.87-11.893-4.183a33.081,33.081,0,0,0-15.911,2.5c-2.458,1.105-5.294,2.385-7,4.511a6.392,6.392,0,0,0-1.246,2.909c-.084.479-.138.845-.138.845-1.909,7.912-.976,18,5.292,23.772,6.49,5.974,16.248,7.48,23.813,2.762,7.232-4.512,11.026-13.347,10.97-21.687a19.741,19.741,0,0,0-1.7-8.244,17.589,17.589,0,0,1,12.072-1.049l-.006.05c-1.91,7.912-.977,18.006,5.291,23.773,6.49,5.973,16.246,7.479,23.813,2.761,7.232-4.511,11.027-13.347,10.97-21.687-.022-3.4-.723-7.192-2.739-10.041a172.074,172.074,0,0,1,16.205-15.175c6.1-4.993,13.359-11.568,21.537-6.809a.462.462,0,0,0,.466-.8m-86.839,36.771c.2,7.414-2.837,15.472-8.773,20.122-6.681,5.234-15.015,4.868-22,.425-7.8-4.959-9.474-15.478-7.623-24.01a11.944,11.944,0,0,1,.579-2.911c1.431-2.875,5.078-4.4,7.849-5.627a32.179,32.179,0,0,1,13-2.326c3.885.032,8.559.648,11.891,2.827,3.741,2.449,4.962,7.276,5.081,11.5m41.668,15.726c-6.681,5.235-15.015,4.868-22.007.426-7.8-4.959-9.473-15.479-7.62-24.01a12,12,0,0,1,.579-2.912c1.431-2.877,5.079-4.4,7.849-5.626a32.144,32.144,0,0,1,13-2.326c3.886.031,8.56.645,11.891,2.824,3.742,2.448,4.963,7.279,5.078,11.5.207,7.414-2.833,15.473-8.769,20.122" fill="#f5ece4"/>
      <path id="Path_4914" data-name="Path 4914" d="M268.989,143.56a21.644,21.644,0,0,1-14.593-5.783c-6.953-6.4-7.344-17.282-5.566-24.658,0,0,.05-.36.128-.8a7.334,7.334,0,0,1,1.437-3.331c1.854-2.307,4.9-3.676,7.342-4.771a34.135,34.135,0,0,1,16.362-2.58c5.848.454,9.927,1.91,12.476,4.452a11.534,11.534,0,0,1,1.49,1.847,19.576,19.576,0,0,1,11.594-1.08,6.761,6.761,0,0,1,1.177-2.264c1.853-2.307,4.9-3.675,7.342-4.774a34.215,34.215,0,0,1,16.361-2.577c5.8.451,9.859,1.885,12.411,4.39a172.049,172.049,0,0,1,18.8-17.06l.714-.561c2.812-2.2,5.723-4.486,9.28-5.419a13.724,13.724,0,0,1,10.435,1.562,1.344,1.344,0,0,1,.683,1.174,1.445,1.445,0,0,1-.721,1.237,1.357,1.357,0,0,1-1.361-.012c-7.22-4.205-13.785,1.2-19.577,5.979l-.908.745a171.045,171.045,0,0,0-15.614,14.559,19.469,19.469,0,0,1,2.489,9.934c.063,9.292-4.414,18.118-11.408,22.479-7.655,4.775-17.906,3.594-24.928-2.868-6.694-6.158-7.307-16.468-5.758-23.813a16.713,16.713,0,0,0-9.752.842,21.623,21.623,0,0,1,1.406,7.755c.062,9.293-4.415,18.119-11.406,22.48a19.5,19.5,0,0,1-10.338,2.918m2.552-39.242a30.824,30.824,0,0,0-12.26,2.248l-.267.116c-2.626,1.155-5.9,2.592-7.128,5.075a10.7,10.7,0,0,0-.489,2.58l-.016.119c-1.753,8.068-.2,18.318,7.214,23.03,7.076,4.5,14.9,4.358,20.939-.37,5.322-4.17,8.625-11.775,8.415-19.37-.081-2.93-.8-8.221-4.661-10.751-3.3-2.16-8.018-2.646-11.39-2.674l-.357,0m50.44-4.4a30.871,30.871,0,0,0-12.263,2.248l-.263.116c-2.627,1.155-5.895,2.592-7.132,5.075a10.894,10.894,0,0,0-.485,2.58l-.016.116c-1.753,8.071-.2,18.321,7.213,23.033,7.076,4.5,14.9,4.358,20.939-.372,5.323-4.167,8.626-11.772,8.416-19.368-.081-2.93-.8-8.221-4.662-10.751-3.3-2.16-8.018-2.648-11.393-2.673-.116,0-.235,0-.354,0m53.268-18.174v0Z" fill="#f5ece4"/>
      <path id="Path_4915" data-name="Path 4915" d="M301.421,141.246c-2.808-1.093-5.679-2.088-8.434-3.309a6.615,6.615,0,0,1-3.638-3.056c-.8-1.678-.476-3.578-.123-5.329a140.4,140.4,0,0,1,5.16-17.839c.194-.564-.7-.805-.892-.244q-2.043,5.907-3.685,11.941c-.811,3.015-2.1,6.449-1.866,9.63a6.217,6.217,0,0,0,3.437,5.157c3.022,1.693,6.575,2.689,9.794,3.941.557.216.8-.679.247-.892" fill="#b35630"/>
      <path id="Path_4916" data-name="Path 4916" d="M236,469.324c-3.059-11.368-7.624-22.52-11.944-33.456a.478.478,0,0,0-.454-.307l-52.119-.291.151.323a.367.367,0,0,0-.191.5c3.732,9.449,7.238,18.989,10.45,28.629,2.724,8.168,5.507,21.527-5.1,25.491a.235.235,0,0,1-.028.018h-.692c-.523,0-.523.924,0,.924h52.482a.413.413,0,0,0,.206-.025c8.92-3.334,9.349-13.967,7.242-21.8" fill="#e8a14d"/>
      <path id="Path_4917" data-name="Path 4917" d="M123.3,522.36c-3.059-11.371-7.62-22.52-11.941-33.459a.479.479,0,0,0-.454-.307l-52.119-.288.148.323a.364.364,0,0,0-.191.494c3.732,9.449,7.241,18.992,10.453,28.632,2.721,8.168,5.5,21.524-5.1,25.491-.012,0-.019.012-.028.015h-.695c-.523,0-.523.927,0,.927h52.485a.46.46,0,0,0,.207-.025c8.916-3.334,9.345-13.97,7.238-21.8" fill="#e8a14d"/>
      <path id="Path_4918" data-name="Path 4918" d="M361.229,106.278c-4.039-4.361-12.1-1.1-11.1,4.9-.028.5-.047.986-.072,1.409a34.828,34.828,0,0,1-3.321,12.6.382.382,0,0,0,.056.448c1.3,1.011,2.633,1.966,4.014,2.871a.37.37,0,0,0,.538-.222,32.948,32.948,0,0,1,3.488-8.35c1.011-1.5,2.3-1.763,3.807-2.442a3.957,3.957,0,0,0,1.077-.68,7.2,7.2,0,0,0,2.22-2.363c1.337-2.37,1.161-6.155-.711-8.178" fill="#fff"/>
      <path id="Path_4919" data-name="Path 4919" d="M86.276,275.964H84.642a55.208,55.208,0,0,1-55.208-55.208v0a55.214,55.214,0,0,1,55.213-55.214h1.629a55.213,55.213,0,0,1,0,110.427" fill="#e94257"/>
      <path id="Path_4920" data-name="Path 4920" d="M39.679,146.776H10.9A10.9,10.9,0,0,0,0,157.678v26.265a10.9,10.9,0,0,0,10.9,10.9H39.679a10.9,10.9,0,0,0,10.9-10.9V157.678a10.9,10.9,0,0,0-10.9-10.9" fill="#672376"/>
      <path id="Path_4921" data-name="Path 4921" d="M43.666,182.136a10.13,10.13,0,0,1-5.311-2.154c-1.6-1.453-1.853-3.337-1.88-5.421-.04-3.4.124-6.813-.564-10.17-.972-4.739-3.952-9.268-8.8-10.22a1.137,1.137,0,0,0-1.082-1.527c-.778-.08-1.794.461-1.453,1.383a.427.427,0,0,0,.077.12c-5.057.8-8.156,5.428-9.152,10.274-.688,3.357-.524,6.77-.564,10.173-.027,2.085-.281,3.965-1.884,5.421a9.819,9.819,0,0,1-5.06,2.108H7.875a.36.36,0,0,0-.137.026.3.3,0,0,0-.093.057l-.01.007a.111.111,0,0,1-.034.02.405.405,0,0,0,.351.691c.03,0,.06-.01.09-.016H22.955a3.7,3.7,0,0,0,.11,2.875,2.683,2.683,0,0,0,2.589,1.871,3.329,3.329,0,0,0,2.889-4.746H43.486a.4.4,0,0,0,.093-.017c.4-.05.541-.682.087-.755" fill="#e8a14d"/>
      <rect id="Rectangle_1410" data-name="Rectangle 1410" width="61.789" height="68.12" transform="translate(54.674 185.336)" fill="#672376"/>
      <path id="Path_4922" data-name="Path 4922" d="M65.5,199.635v4.352a2,2,0,0,0,2,2h36.446a2,2,0,0,0,2-2v-4.352a2,2,0,0,0-2-2H67.5a2,2,0,0,0-2,2" fill="#f5ece4"/>
      <path id="Path_4923" data-name="Path 4923" d="M67.5,224.683h36.446a2,2,0,0,0,2-2v-4.352a2.006,2.006,0,0,0-2-2.007H67.5a2.006,2.006,0,0,0-2,2.007v4.352a2,2,0,0,0,2,2" fill="#f5ece4"/>
      <path id="Path_4924" data-name="Path 4924" d="M67.38,242.757h36.443a2.006,2.006,0,0,0,2.007-2V236.4a2.006,2.006,0,0,0-2.007-2H67.38a2.006,2.006,0,0,0-2.007,2v4.352a2.006,2.006,0,0,0,2.007,2" fill="#f5ece4"/>
      <path id="Path_4925" data-name="Path 4925" d="M490.366,88.833c0,18.713-15.61,33.885-34.868,33.885s-34.865-15.172-34.865-33.885S436.244,54.948,455.5,54.948s34.868,15.169,34.868,33.885" fill="#e94257"/>
      <path id="Path_4926" data-name="Path 4926" d="M470.489,109.327l-12.636-6.872a4.531,4.531,0,0,0-4.211-.06l-12.824,6.516,2.63-14.139a4.52,4.52,0,0,0-1.246-4.023L432.046,80.564l14.261-1.869a4.51,4.51,0,0,0,3.44-2.426l6.547-12.8,6.183,12.983a4.521,4.521,0,0,0,3.372,2.524l14.2,2.266-10.438,9.894a4.529,4.529,0,0,0-1.355,3.988Z" fill="#e8a14d"/>
      <line id="Line_91" data-name="Line 91" y1="21.6" x2="44.242" transform="translate(404.743 450.266)" fill="#402525"/>
      <line id="Line_92" data-name="Line 92" y1="21.6" x2="44.242" transform="translate(404.743 450.266)" fill="none" stroke="#000" stroke-miterlimit="10" stroke-width="2"/>
      <rect id="Rectangle_1411" data-name="Rectangle 1411" width="591.649" height="551.681" fill="none"/>
    </g>
  </g>
</svg>
