<svg id="Group_845" data-name="Group 845" xmlns="http://www.w3.org/2000/svg" xmlns:xlink="http://www.w3.org/1999/xlink" width="80.167" height="107.281" viewBox="0 0 80.167 107.281">
  <defs>
    <linearGradient id="linear-gradient" x1="2.404" y1="-0.59" x2="0.351" y2="0.79" gradientUnits="objectBoundingBox">
      <stop offset="0" stop-color="#682376"/>
      <stop offset="1" stop-color="#a52973"/>
    </linearGradient>
    <clipPath id="clip-path">
      <path id="Path_3415" data-name="Path 3415" d="M14.549,100.392a3.812,3.812,0,0,1,3.808,3.746H10.741a3.812,3.812,0,0,1,3.808-3.746m10.762,0a3.813,3.813,0,0,1,3.808,3.746H21.5a3.812,3.812,0,0,1,3.809-3.746M7.265,38.428V59.717a2.061,2.061,0,0,1-2.045,2.054,2.015,2.015,0,0,1-1.467-.6,2.049,2.049,0,0,1-.609-1.462V45.035a1.572,1.572,0,0,0-3.143,0V59.711a5.2,5.2,0,0,0,5.2,5.2h.045a5.22,5.22,0,0,0,2.021-.423A179.661,179.661,0,0,0,9.821,94.43l.7,4.109A6.947,6.947,0,0,0,7.6,104.2v1.509a1.572,1.572,0,0,0,1.571,1.571H30.691a1.571,1.571,0,0,0,1.571-1.571V104.2a6.945,6.945,0,0,0-2.924-5.661l.7-4.109c.983-5.759,1.691-11.633,2.1-17.457a1.571,1.571,0,1,0-3.135-.222c-.406,5.721-1.1,11.491-2.067,17.15l-.584,3.426A6.938,6.938,0,0,0,21.5,98.39V60.248a1.571,1.571,0,1,0-3.143,0V98.39A6.933,6.933,0,0,0,13.5,97.328L12.919,93.9a176.78,176.78,0,0,1-2.511-29.645V38.428a1.572,1.572,0,0,0-3.143,0" fill="url(#linear-gradient)"/>
    </clipPath>
    <clipPath id="clip-path-2">
      <path id="Path_3416" data-name="Path 3416" d="M16.958,24.943l.257-2.381a6.663,6.663,0,0,0,5.431.009l.255,2.373a3.317,3.317,0,0,1-5.943,0M19.92,0A9.779,9.779,0,0,0,10.2,10.761l.222,2.215a11.838,11.838,0,0,0,3.845,7.636l-.349,3.232L8.109,24.892A9.85,9.85,0,0,0,0,34.594V37.7a1.572,1.572,0,1,0,3.143,0V34.594a6.708,6.708,0,0,1,5.524-6.608l5.808-1.049a6.468,6.468,0,0,0,10.91,0l5.808,1.049a6.708,6.708,0,0,1,5.523,6.608V60.006a2.061,2.061,0,0,1-2.057,2.06,2.1,2.1,0,0,1-2.065-2.355V38.428a1.571,1.571,0,1,0-3.142,0V64.257c0,1.781-.026,3.539-.079,5.224A1.572,1.572,0,0,0,30.9,71.1h.05a1.571,1.571,0,0,0,1.569-1.523c.049-1.551.074-3.165.079-4.8a5.194,5.194,0,0,0,7.266-4.772V55.212H44.9V87.664a4.064,4.064,0,0,0,4.06,4.059h4.22a1.571,1.571,0,0,0,0-3.143h-4.22a.917.917,0,0,1-.917-.916V68.528h5.137a1.572,1.572,0,0,0,0-3.144H48.038V42.94h5.137a1.571,1.571,0,0,0,0-3.143H48.038V19.617a.918.918,0,0,1,.917-.916h4.22a1.572,1.572,0,1,0,0-3.143h-4.22A4.063,4.063,0,0,0,44.9,19.617V52.069H39.859V34.594a9.849,9.849,0,0,0-8.108-9.7l-5.807-1.047-.349-3.237a11.712,11.712,0,0,0,3.227-4.844,1.572,1.572,0,1,0-2.965-1.044,8.7,8.7,0,0,1-4.375,4.929,3.519,3.519,0,0,1-3.1-.005,8.7,8.7,0,0,1-4.84-6.982l-.223-2.215a6.656,6.656,0,0,1,1.683-5.122,6.549,6.549,0,0,1,4.916-2.182A6.63,6.63,0,0,1,26.4,8.268a1.571,1.571,0,1,0,3.058-.721A9.761,9.761,0,0,0,19.92,0Z" fill="url(#linear-gradient)"/>
    </clipPath>
    <clipPath id="clip-path-3">
      <path id="Path_3417" data-name="Path 3417" d="M60.7,8.349H74.75l-5.578,7.67-2.161-1.944a1.572,1.572,0,0,0-2.1,2.337l3.457,3.111a1.571,1.571,0,0,0,1.051.4,1.52,1.52,0,0,0,.165-.009,1.565,1.565,0,0,0,1.106-.638l4.876-6.7v10.64H60.7ZM77.324,4.81l-.433.6a2.842,2.842,0,0,0-1.043-.2H60.413a2.86,2.86,0,0,0-2.858,2.857V23.5a2.86,2.86,0,0,0,2.858,2.857H75.848A2.861,2.861,0,0,0,78.707,23.5V8.253l1.159-1.6A1.571,1.571,0,1,0,77.324,4.81" fill="url(#linear-gradient)"/>
    </clipPath>
    <clipPath id="clip-path-4">
      <path id="Path_3418" data-name="Path 3418" d="M60.7,33.936H74.75l-5.578,7.671-2.161-1.945A1.572,1.572,0,0,0,64.909,42l3.457,3.111a1.571,1.571,0,0,0,1.051.4,1.521,1.521,0,0,0,.165-.009,1.565,1.565,0,0,0,1.106-.638l4.876-6.7V48.8H60.7ZM77.324,30.4l-.433.6a2.843,2.843,0,0,0-1.043-.2H60.413a2.861,2.861,0,0,0-2.858,2.858V49.087a2.86,2.86,0,0,0,2.858,2.857H75.848a2.861,2.861,0,0,0,2.859-2.857V33.84l1.159-1.6A1.571,1.571,0,1,0,77.324,30.4" fill="url(#linear-gradient)"/>
    </clipPath>
    <clipPath id="clip-path-5">
      <path id="Path_3419" data-name="Path 3419" d="M60.7,59.523H74.75l-5.579,7.671-2.16-1.945a1.572,1.572,0,0,0-2.1,2.337L68.366,70.7a1.571,1.571,0,0,0,1.051.4c.055,0,.11,0,.165-.008a1.574,1.574,0,0,0,1.106-.639l4.876-6.7v10.64H60.7Zm16.626-3.539-.433.595a2.863,2.863,0,0,0-1.043-.2H60.413a2.861,2.861,0,0,0-2.858,2.858V74.674a2.861,2.861,0,0,0,2.858,2.858H75.848a2.862,2.862,0,0,0,2.859-2.858V59.427l1.159-1.595a1.571,1.571,0,1,0-2.542-1.848" fill="url(#linear-gradient)"/>
    </clipPath>
    <clipPath id="clip-path-6">
      <path id="Path_3420" data-name="Path 3420" d="M77.324,81.571l-.434.6a2.845,2.845,0,0,0-1.042-.2H60.413a2.861,2.861,0,0,0-2.859,2.857v2.957a1.571,1.571,0,0,0,3.143,0V85.11H74.75l-5.579,7.671-2.16-1.945a1.572,1.572,0,0,0-2.1,2.337l3.457,3.111a1.571,1.571,0,0,0,1.051.4c.055,0,.11,0,.165-.008a1.574,1.574,0,0,0,1.106-.639l4.876-6.7V99.977H60.7V95.116a1.572,1.572,0,1,0-3.143,0v5.146a2.861,2.861,0,0,0,2.858,2.858H75.849a2.861,2.861,0,0,0,2.858-2.858V85.014l1.16-1.6a1.572,1.572,0,0,0-2.543-1.848" fill="url(#linear-gradient)"/>
    </clipPath>
  </defs>
  <g id="Group_834" data-name="Group 834">
    <g id="Group_833" data-name="Group 833" clip-path="url(#clip-path)">
      <rect id="Rectangle_811" data-name="Rectangle 811" width="32.262" height="70.424" transform="translate(0 36.857)" fill="url(#linear-gradient)"/>
    </g>
  </g>
  <g id="Group_836" data-name="Group 836">
    <g id="Group_835" data-name="Group 835" clip-path="url(#clip-path-2)">
      <rect id="Rectangle_812" data-name="Rectangle 812" width="54.747" height="91.723" transform="translate(0 0)" fill="url(#linear-gradient)"/>
    </g>
  </g>
  <g id="Group_838" data-name="Group 838">
    <g id="Group_837" data-name="Group 837" clip-path="url(#clip-path-3)">
      <rect id="Rectangle_813" data-name="Rectangle 813" width="22.822" height="22.195" transform="translate(57.555 4.162)" fill="url(#linear-gradient)"/>
    </g>
  </g>
  <g id="Group_840" data-name="Group 840">
    <g id="Group_839" data-name="Group 839" clip-path="url(#clip-path-4)">
      <rect id="Rectangle_814" data-name="Rectangle 814" width="22.822" height="22.195" transform="translate(57.555 29.749)" fill="url(#linear-gradient)"/>
    </g>
  </g>
  <g id="Group_842" data-name="Group 842">
    <g id="Group_841" data-name="Group 841" clip-path="url(#clip-path-5)">
      <rect id="Rectangle_815" data-name="Rectangle 815" width="22.822" height="22.196" transform="translate(57.555 55.336)" fill="url(#linear-gradient)"/>
    </g>
  </g>
  <g id="Group_844" data-name="Group 844">
    <g id="Group_843" data-name="Group 843" clip-path="url(#clip-path-6)">
      <rect id="Rectangle_816" data-name="Rectangle 816" width="22.823" height="22.197" transform="translate(57.554 80.923)" fill="url(#linear-gradient)"/>
    </g>
  </g>
</svg>
