<svg id="Group_879" data-name="Group 879" xmlns="http://www.w3.org/2000/svg" xmlns:xlink="http://www.w3.org/1999/xlink" width="106.525" height="106.528" viewBox="0 0 106.525 106.528">
  <defs>
    <linearGradient id="linear-gradient" x1="1.875" y1="-1.078" x2="0" y2="0.896" gradientUnits="objectBoundingBox">
      <stop offset="0" stop-color="#682376"/>
      <stop offset="1" stop-color="#a52973"/>
    </linearGradient>
    <clipPath id="clip-path">
      <path id="Path_3430" data-name="Path 3430" d="M46.206,41.193a13.788,13.788,0,0,1,3.631-1.506,1.561,1.561,0,0,0,1.174-1.512V36.656h4.5v1.519a1.56,1.56,0,0,0,1.176,1.512,13.766,13.766,0,0,1,3.629,1.506,1.563,1.563,0,0,0,1.9-.24l1.077-1.075,3.195,3.2-1.076,1.075a1.561,1.561,0,0,0-.236,1.9,13.607,13.607,0,0,1,1.5,3.624,1.56,1.56,0,0,0,1.513,1.176h1.518v4.523H68.188a1.56,1.56,0,0,0-1.512,1.175,13.671,13.671,0,0,1-1.5,3.625,1.561,1.561,0,0,0,.236,1.9l1.076,1.075-3.2,3.2-1.076-1.075a1.56,1.56,0,0,0-1.9-.24,13.729,13.729,0,0,1-3.628,1.5,1.561,1.561,0,0,0-1.176,1.513v1.518h-4.5V68.053a1.559,1.559,0,0,0-1.174-1.512,13.827,13.827,0,0,1-3.631-1.506,1.561,1.561,0,0,0-1.9.24L43.232,66.35l-3.2-3.2,1.076-1.075a1.56,1.56,0,0,0,.238-1.9,13.88,13.88,0,0,1-1.5-3.63,1.56,1.56,0,0,0-1.511-1.175H36.815V50.852h1.519a1.561,1.561,0,0,0,1.512-1.176,13.813,13.813,0,0,1,1.5-3.629,1.56,1.56,0,0,0-.238-1.9l-1.076-1.075,3.2-3.2,1.075,1.075a1.563,1.563,0,0,0,1.9.24m4.677-7.658a2.994,2.994,0,0,0-2.993,2.987v.486a16.872,16.872,0,0,0-2.2.913l-.343-.343a3,3,0,0,0-4.229,0l-3.381,3.38a3,3,0,0,0,0,4.23l.343.343a16.785,16.785,0,0,0-.914,2.2h-.478a3,3,0,0,0-2.994,2.994V55.5A3,3,0,0,0,36.688,58.5h.479a16.791,16.791,0,0,0,.913,2.2l-.343.343a3,3,0,0,0,0,4.229l3.385,3.386a3,3,0,0,0,4.224-.006l.343-.343a17.012,17.012,0,0,0,2.2.913V69.7a3,3,0,0,0,2.993,3h4.76a3,3,0,0,0,2.988-3V69.22a17.033,17.033,0,0,0,2.2-.913l.343.343a3,3,0,0,0,4.23,0l3.379-3.379a2.989,2.989,0,0,0,0-4.23l-.342-.342a16.571,16.571,0,0,0,.913-2.2h.484A2.994,2.994,0,0,0,72.826,55.5V50.725a2.994,2.994,0,0,0-2.988-2.994h-.483a16.555,16.555,0,0,0-.914-2.2l.336-.336a2.988,2.988,0,0,0,.006-4.235L65.4,37.578a3,3,0,0,0-4.23,0l-.343.343a17.1,17.1,0,0,0-2.2-.914v-.485a2.991,2.991,0,0,0-2.988-2.987Z" fill="url(#linear-gradient)"/>
    </clipPath>
    <clipPath id="clip-path-2">
      <path id="Path_3431" data-name="Path 3431" d="M46.08,53.1a7.195,7.195,0,1,1,7.192,7.2,7.2,7.2,0,0,1-7.192-7.2m-3.12,0A10.315,10.315,0,1,0,53.272,42.783,10.327,10.327,0,0,0,42.96,53.1" fill="url(#linear-gradient)"/>
    </clipPath>
    <clipPath id="clip-path-3">
      <path id="Path_3432" data-name="Path 3432" d="M74.33,14.371a2.495,2.495,0,1,1,2.5,2.5,2.5,2.5,0,0,1-2.5-2.5m-3.121,0a5.616,5.616,0,1,0,5.619-5.613,5.625,5.625,0,0,0-5.619,5.613" fill="url(#linear-gradient)"/>
    </clipPath>
    <clipPath id="clip-path-4">
      <path id="Path_3433" data-name="Path 3433" d="M58.507,14.371a2.494,2.494,0,1,1,2.5,2.5,2.5,2.5,0,0,1-2.5-2.5m-3.121,0A5.615,5.615,0,1,0,61,8.758a5.624,5.624,0,0,0-5.618,5.613" fill="url(#linear-gradient)"/>
    </clipPath>
    <clipPath id="clip-path-5">
      <path id="Path_3434" data-name="Path 3434" d="M11.379,14.371a2.5,2.5,0,0,1,2.5-2.491H40.91a2.494,2.494,0,1,1,0,4.988H13.875a2.5,2.5,0,0,1-2.5-2.5m2.5-5.613a5.616,5.616,0,1,0,0,11.231H40.91a5.616,5.616,0,1,0,0-11.231Z" fill="url(#linear-gradient)"/>
    </clipPath>
    <clipPath id="clip-path-6">
      <path id="Path_3435" data-name="Path 3435" d="M51.935,92.421h2.651l3.568,10.987H48.371Zm-2.456-6.037L53.26,83.33l3.777,3.051-1.494,2.8c-.022.04-.044.082-.065.122H51.021ZM24.288,92.906a17.992,17.992,0,0,1,.614-4.7c.01-.03.018-.061.026-.092a9.494,9.494,0,0,1,6.351-6.942L36.7,79.5l6.779,9.6a1.558,1.558,0,0,0,2.254.314l1.27-1.026,1.377,2.6a2.821,2.821,0,0,0,.513.687L45.09,103.408H36.1V94.063a1.561,1.561,0,1,0-3.121,0v9.345H24.288Zm37.691-3.167a1.556,1.556,0,0,0,1.06-.644l6.784-9.6,5.418,1.672A9.485,9.485,0,0,1,81.589,88.1c.009.038.018.075.03.111a18.007,18.007,0,0,1,.613,4.7v10.5H73.546V94.062a1.56,1.56,0,0,0-3.121,0v9.346H61.436L57.629,91.687a3.97,3.97,0,0,0,.586-.886c.025-.047.05-.1.078-.149l1.215-2.274,1.276,1.03a1.564,1.564,0,0,0,.98.347,1.414,1.414,0,0,0,.215-.016m-22.6-11.86,1.692-1.59a2.4,2.4,0,0,1,.275-.23,1.566,1.566,0,0,1,.255.128l8.935,5.329L45.07,85.934Zm16.6,3.638,8.932-5.328a1.576,1.576,0,0,1,.259-.13,2.435,2.435,0,0,1,.27.227l1.7,1.595-5.693,8.054ZM5.772,0A5.777,5.777,0,0,0,0,5.771V50.589a1.56,1.56,0,1,0,3.12,0V28.747H49.663a1.561,1.561,0,0,0,0-3.121H3.121V5.771a2.654,2.654,0,0,1,2.651-2.65h94.977a2.658,2.658,0,0,1,2.657,2.65V25.626H56.864a1.561,1.561,0,1,0,0,3.121H103.4V83.511a2.657,2.657,0,0,1-2.656,2.651H84.241a12.444,12.444,0,0,0-8.08-7.976l-6.154-1.9-2.43-2.281a3.217,3.217,0,0,0-4.258-.5l-10.059,6-10.057-6a3.214,3.214,0,0,0-4.264.5l-2.421,2.276-6.159,1.9a12.449,12.449,0,0,0-8.08,7.975H5.772a2.654,2.654,0,0,1-2.651-2.651V57.791a1.561,1.561,0,0,0-3.121,0v25.72a5.778,5.778,0,0,0,5.772,5.772H21.463a21.694,21.694,0,0,0-.3,3.623v11.112a2.51,2.51,0,0,0,2.5,2.51H82.849a2.509,2.509,0,0,0,2.5-2.51V92.906a21.589,21.589,0,0,0-.3-3.623h15.692a5.78,5.78,0,0,0,5.777-5.772V5.771A5.779,5.779,0,0,0,100.749,0Z" fill="url(#linear-gradient)"/>
    </clipPath>
    <clipPath id="clip-path-7">
      <path id="Path_3436" data-name="Path 3436" d="M90.154,14.371a2.495,2.495,0,1,1,2.5,2.5,2.5,2.5,0,0,1-2.5-2.5m-3.121,0a5.615,5.615,0,1,0,5.618-5.613,5.624,5.624,0,0,0-5.618,5.613" fill="url(#linear-gradient)"/>
    </clipPath>
  </defs>
  <g id="Group_866" data-name="Group 866">
    <g id="Group_865" data-name="Group 865" clip-path="url(#clip-path)">
      <rect id="Rectangle_826" data-name="Rectangle 826" width="39.132" height="39.158" transform="translate(33.694 33.535)" fill="url(#linear-gradient)"/>
    </g>
  </g>
  <g id="Group_868" data-name="Group 868">
    <g id="Group_867" data-name="Group 867" clip-path="url(#clip-path-2)">
      <rect id="Rectangle_827" data-name="Rectangle 827" width="20.63" height="20.632" transform="translate(42.96 42.783)" fill="url(#linear-gradient)"/>
    </g>
  </g>
  <g id="Group_870" data-name="Group 870">
    <g id="Group_869" data-name="Group 869" clip-path="url(#clip-path-3)">
      <rect id="Rectangle_828" data-name="Rectangle 828" width="11.231" height="11.23" transform="translate(71.209 8.758)" fill="url(#linear-gradient)"/>
    </g>
  </g>
  <g id="Group_872" data-name="Group 872">
    <g id="Group_871" data-name="Group 871" clip-path="url(#clip-path-4)">
      <rect id="Rectangle_829" data-name="Rectangle 829" width="11.23" height="11.23" transform="translate(55.386 8.758)" fill="url(#linear-gradient)"/>
    </g>
  </g>
  <g id="Group_874" data-name="Group 874">
    <g id="Group_873" data-name="Group 873" clip-path="url(#clip-path-5)">
      <rect id="Rectangle_830" data-name="Rectangle 830" width="38.27" height="11.231" transform="translate(8.258 8.758)" fill="url(#linear-gradient)"/>
    </g>
  </g>
  <g id="Group_876" data-name="Group 876">
    <g id="Group_875" data-name="Group 875" clip-path="url(#clip-path-6)">
      <rect id="Rectangle_831" data-name="Rectangle 831" width="106.526" height="106.528" transform="translate(0 0)" fill="url(#linear-gradient)"/>
    </g>
  </g>
  <g id="Group_878" data-name="Group 878">
    <g id="Group_877" data-name="Group 877" clip-path="url(#clip-path-7)">
      <rect id="Rectangle_832" data-name="Rectangle 832" width="11.23" height="11.23" transform="translate(87.033 8.758)" fill="url(#linear-gradient)"/>
    </g>
  </g>
</svg>
