<svg xmlns="http://www.w3.org/2000/svg" xmlns:xlink="http://www.w3.org/1999/xlink" width="98.493" height="101.587" viewBox="0 0 98.493 101.587">
  <defs>
    <linearGradient id="linear-gradient" x1="1" y1="0.073" x2="0.228" y2="0.879" gradientUnits="objectBoundingBox">
      <stop offset="0" stop-color="#682376"/>
      <stop offset="1" stop-color="#a52973"/>
    </linearGradient>
    <clipPath id="clip-path">
      <path id="Path_3821" data-name="Path 3821" d="M2.975,95.343V60.691A1.343,1.343,0,0,1,4.317,59.35h6.83a1.342,1.342,0,0,1,1.342,1.341v8.075a1.488,1.488,0,0,0,2.976,0v-4.2c12.308.1,15.076,6.582,23.508,7.775l.037,0,16.461,1.895a6.355,6.355,0,0,1,5.42,5.6l-.02,2.831H45.52a1.488,1.488,0,0,0,0,2.975H62.348a1.537,1.537,0,0,0,.593-.123L90.01,73.606c1.947-.865,3.721-.989,4.925.779a3.4,3.4,0,0,1-.471,4.37L66.778,96.3A14.881,14.881,0,0,1,58.8,98.612H36.6a14.854,14.854,0,0,1-5.2-.936L15.466,91.744V75.721a1.488,1.488,0,0,0-2.976,0V95.343a1.344,1.344,0,0,1-1.343,1.343H4.317a1.344,1.344,0,0,1-1.342-1.343M45.988,21.884c-2.335-.591-1.659-4.756.851-4.126a29.019,29.019,0,0,0,14.471,0c2.466-.619,3.224,3.526.851,4.126a32.847,32.847,0,0,1-8.086,1.03,32.861,32.861,0,0,1-8.087-1.03M48.5,3.5c2.536-1.659,2.811,1,6.139,1a5.163,5.163,0,0,0,3.132-1,2.4,2.4,0,0,1,3.007,0,5.306,5.306,0,0,0,5.828.267c.307,1.1-.386,4.393-4.8,10.962a14.631,14.631,0,0,0-2.819.483c-2.259.471-5.657.94-11.552-.372-4.4-6.654-5.083-9.975-4.775-11.087l.035.017a6.21,6.21,0,0,0,2.765.74A5.462,5.462,0,0,0,48.5,3.5m7.642-2.49a2.4,2.4,0,0,1-3.006,0,5.348,5.348,0,0,0-6.265,0,2.367,2.367,0,0,1-2.85.1,2.6,2.6,0,0,0-3.573.532c-1.83,2.355-.606,6.834,3.739,13.659a4.77,4.77,0,0,0-.756.506,10.043,10.043,0,0,0-8.653-3.27,10.905,10.905,0,0,1-7.4-1.751,1.488,1.488,0,0,0-1.658,2.472,13.863,13.863,0,0,0,9.39,2.236A7.271,7.271,0,0,1,41.752,18.4c-.018.063-.035.127-.051.191a25.471,25.471,0,0,0-4.718.515c-4.51.938-7.858,3.081-9.682,6.2a1.488,1.488,0,1,0,2.568,1.5c2.713-4.637,9.336-5.2,11.966-5.24.011.033.025.065.037.1C32.485,28.905,25.95,36.98,22.441,45.68a35.3,35.3,0,0,0-2.655,16.245,30.852,30.852,0,0,0-4.32-.335v-.9a4.323,4.323,0,0,0-4.318-4.318H4.317A4.323,4.323,0,0,0,0,60.691V95.342A4.323,4.323,0,0,0,4.317,99.66h6.83a4.323,4.323,0,0,0,4.319-4.318v-.423l14.9,5.545a17.831,17.831,0,0,0,6.237,1.123H58.8a17.847,17.847,0,0,0,9.57-2.777c29.615-18.774,27.817-17.6,27.988-17.757a6.362,6.362,0,0,0,2.134-4.712v-.118a6.334,6.334,0,0,0-1.1-3.512c-1.895-2.784-5.109-3.465-8.6-1.821l-1.85.815A30.611,30.611,0,0,0,88.771,52c-1.669-7.523-5.7-14.81-11.979-21.66A1.488,1.488,0,0,0,74.6,32.352c5.922,6.46,9.712,13.287,11.266,20.293,1.638,7.38.685,14.99-3.492,21.072l-18.52,8.155.015-2.092a1.382,1.382,0,0,0-.008-.158,9.323,9.323,0,0,0-7.991-8.33l-.038,0-16.461-1.9c-6.329-.9-7.959-4.694-16.532-6.857A32.038,32.038,0,0,1,25.2,46.793c3.259-8.078,9.635-15.928,18.473-22.76,3.294,2.337,17.991,2.627,21.28-.386,1.685,1.279,3.293,2.6,4.791,3.933a1.488,1.488,0,0,0,1.98-2.222c-1.643-1.463-3.409-2.906-5.262-4.3a5.294,5.294,0,0,0-1.776-5.279C69.344,8.712,70.7,4.088,68.827,1.664a2.6,2.6,0,0,0-3.567-.548,2.387,2.387,0,0,1-2.854-.1,5.35,5.35,0,0,0-6.265,0" fill="url(#linear-gradient)"/>
    </clipPath>
    <clipPath id="clip-path-2">
      <path id="Path_3822" data-name="Path 3822" d="M55.954,50.092c.29.106.586.212.9.322a4.683,4.683,0,0,1,3.315,5.43,5.794,5.794,0,0,1-4.21,4.665Zm-5.122-5.77a3.355,3.355,0,0,1-.957-3.31,4.254,4.254,0,0,1,2.858-3.348c.083-.026.165-.047.246-.069v8.036a12.454,12.454,0,0,1-2.147-1.309m2.147-12.014v2.236a10.857,10.857,0,0,0-1.1.27,7.194,7.194,0,0,0-4.924,5.647A6.3,6.3,0,0,0,49,46.664a18.021,18.021,0,0,0,3.983,2.25V60.68a7.9,7.9,0,0,1-4.628-1.6,1.488,1.488,0,0,0-1.628,2.491,10.9,10.9,0,0,0,6.256,2.089v2.361a1.487,1.487,0,1,0,2.975,0V63.55A8.716,8.716,0,0,0,63.1,56.338a7.63,7.63,0,0,0-5.257-8.729c-.681-.242-1.308-.472-1.887-.694V37.428A6.107,6.107,0,0,1,58.848,38.7a1.488,1.488,0,0,0,2.009-2.2,9.215,9.215,0,0,0-4.9-2.08V32.308a1.487,1.487,0,1,0-2.975,0" fill="url(#linear-gradient)"/>
    </clipPath>
  </defs>
  <g id="Group_1149" data-name="Group 1149" transform="translate(0 0)">
    <g id="Group_1146" data-name="Group 1146">
      <g id="Group_1145" data-name="Group 1145" clip-path="url(#clip-path)">
        <rect id="Rectangle_955" data-name="Rectangle 955" width="98.493" height="101.947" transform="translate(0 -0.36)" fill="url(#linear-gradient)"/>
      </g>
    </g>
    <g id="Group_1148" data-name="Group 1148">
      <g id="Group_1147" data-name="Group 1147" clip-path="url(#clip-path-2)">
        <rect id="Rectangle_956" data-name="Rectangle 956" width="17.918" height="36.684" transform="translate(45.842 30.82)" fill="url(#linear-gradient)"/>
      </g>
    </g>
  </g>
</svg>
