<svg id="Group_888" data-name="Group 888" xmlns="http://www.w3.org/2000/svg" xmlns:xlink="http://www.w3.org/1999/xlink" width="100.581" height="104.671" viewBox="0 0 100.581 104.671">
  <defs>
    <linearGradient id="linear-gradient" x1="0.932" x2="0.321" y2="0.83" gradientUnits="objectBoundingBox">
      <stop offset="0" stop-color="#682376"/>
      <stop offset="1" stop-color="#a52973"/>
    </linearGradient>
    <clipPath id="clip-path">
      <path id="Path_3437" data-name="Path 3437" d="M69.9,99.883V95.566a2.044,2.044,0,0,0-.08-.567L66.09,82.072c-.667-2.47.077-2.894.622-3.2l.869-.495A2.046,2.046,0,0,0,68.613,76.6V53.59a2.126,2.126,0,0,1,4.251,0V71.755a2.045,2.045,0,0,0,4.089,0V67.5a1.894,1.894,0,0,1,3.787,0v2.642a2.045,2.045,0,0,0,4.089,0,1.895,1.895,0,0,1,3.788,0v2.541a2.044,2.044,0,0,0,4.088,0,1.895,1.895,0,0,1,3.788,0V86.278c0,2.637-.282,3.381-1.325,4.746l-2.523,3.3a2.04,2.04,0,0,0-.42,1.241v4.317a.728.728,0,0,1-.735.7H70.641a.728.728,0,0,1-.736-.7M47.02,0A47.02,47.02,0,0,0,13.772,80.268,47.011,47.011,0,0,0,64.337,90.733l1.479,5.122v4.028a4.812,4.812,0,0,0,4.825,4.788H91.49a4.812,4.812,0,0,0,4.824-4.788V96.258l2.1-2.752c1.853-2.424,2.165-4.189,2.165-7.228V72.684A5.989,5.989,0,0,0,92,67.344a5.994,5.994,0,0,0-1.7-1.952,47.345,47.345,0,0,0,3.743-18.371,46.827,46.827,0,0,0-7.7-25.79,2.045,2.045,0,0,0-3.417,2.247,42.74,42.74,0,0,1,7.029,23.543,43.234,43.234,0,0,1-3.6,17.2,5.983,5.983,0,0,0-2.188.558A5.966,5.966,0,0,0,82.5,62.813,38.839,38.839,0,1,0,13.6,66.82a2.045,2.045,0,0,0,3.516-2.088,34.759,34.759,0,1,1,61.458-3.151,5.973,5.973,0,0,0-1.619.293V53.59a6.214,6.214,0,0,0-12.428,0V75.411a5.447,5.447,0,0,0-2.451,2.931,34.759,34.759,0,0,1-32.765-1.415,2.044,2.044,0,0,0-2.087,3.516,38.82,38.82,0,0,0,34.844,2.38c.028.112.051.222.082.335l.009.032,1.038,3.594A42.93,42.93,0,1,1,47.02,4.089,42.733,42.733,0,0,1,70.564,11.12,2.045,2.045,0,1,0,72.81,7.7,46.809,46.809,0,0,0,47.02,0Z" fill="url(#linear-gradient)"/>
    </clipPath>
    <clipPath id="clip-path-2">
      <path id="Path_3438" data-name="Path 3438" d="M77.378,13.773a2.044,2.044,0,1,0,2.891,0h0a2.044,2.044,0,0,0-2.89,0" fill="url(#linear-gradient)"/>
    </clipPath>
    <clipPath id="clip-path-3">
      <path id="Path_3439" data-name="Path 3439" d="M19.691,71.471a2.044,2.044,0,1,0,2.88.262h0a2.044,2.044,0,0,0-2.879-.261" fill="url(#linear-gradient)"/>
    </clipPath>
    <clipPath id="clip-path-4">
      <path id="Path_3440" data-name="Path 3440" d="M44.816,49.644l13.2-13.2a3.066,3.066,0,0,1,4.336,4.336L45.537,57.594a3.069,3.069,0,0,1-4.335,0l-9.51-9.51a3.066,3.066,0,0,1,4.335-4.337l5.9,5.9a2.045,2.045,0,0,0,2.892,0m10.3-16.088L43.37,45.307l-4.451-4.45A7.154,7.154,0,1,0,28.8,50.974l9.509,9.511a7.157,7.157,0,0,0,10.119,0l16.81-16.811A7.155,7.155,0,0,0,55.121,33.556" fill="url(#linear-gradient)"/>
    </clipPath>
  </defs>
  <g id="Group_881" data-name="Group 881">
    <g id="Group_880" data-name="Group 880" clip-path="url(#clip-path)">
      <rect id="Rectangle_833" data-name="Rectangle 833" width="100.581" height="104.671" transform="translate(0 0)" fill="url(#linear-gradient)"/>
    </g>
  </g>
  <g id="Group_883" data-name="Group 883">
    <g id="Group_882" data-name="Group 882" clip-path="url(#clip-path-2)">
      <rect id="Rectangle_834" data-name="Rectangle 834" width="4.489" height="4.089" transform="translate(76.579 13.174)" fill="url(#linear-gradient)"/>
    </g>
  </g>
  <g id="Group_885" data-name="Group 885">
    <g id="Group_884" data-name="Group 884" clip-path="url(#clip-path-3)">
      <rect id="Rectangle_835" data-name="Rectangle 835" width="4.587" height="4.089" transform="translate(18.707 70.997)" fill="url(#linear-gradient)"/>
    </g>
  </g>
  <g id="Group_887" data-name="Group 887">
    <g id="Group_886" data-name="Group 886" clip-path="url(#clip-path-4)">
      <rect id="Rectangle_836" data-name="Rectangle 836" width="40.629" height="31.116" transform="translate(26.705 31.464)" fill="url(#linear-gradient)"/>
    </g>
  </g>
</svg>
