<?xml version="1.0" encoding="UTF-8"?>
<svg id="Layer_2" data-name="Layer 2" xmlns="http://www.w3.org/2000/svg" xmlns:xlink="http://www.w3.org/1999/xlink" viewBox="0 0 120 120">
  <defs>
    <style>
      .cls-1 {
        fill: url(#linear-gradient);
      }

      .cls-1, .cls-2, .cls-3, .cls-4, .cls-5, .cls-6, .cls-7, .cls-8, .cls-9, .cls-10 {
        stroke-width: 0px;
      }

      .cls-2 {
        fill: url(#linear-gradient-6);
      }

      .cls-11 {
        clip-path: url(#clippath-2);
      }

      .cls-12 {
        clip-path: url(#clippath-6);
      }

      .cls-3 {
        fill: url(#linear-gradient-5);
      }

      .cls-4 {
        fill: none;
      }

      .cls-13 {
        clip-path: url(#clippath-7);
      }

      .cls-14 {
        clip-path: url(#clippath-1);
      }

      .cls-15 {
        clip-path: url(#clippath-4);
      }

      .cls-5 {
        fill: url(#linear-gradient-2);
      }

      .cls-6 {
        fill: url(#linear-gradient-7);
      }

      .cls-7 {
        fill: url(#linear-gradient-3);
      }

      .cls-16 {
        clip-path: url(#clippath);
      }

      .cls-8 {
        fill: url(#linear-gradient-9);
      }

      .cls-17 {
        clip-path: url(#clippath-3);
      }

      .cls-9 {
        fill: url(#linear-gradient-8);
      }

      .cls-18 {
        clip-path: url(#clippath-8);
      }

      .cls-19 {
        clip-path: url(#clippath-5);
      }

      .cls-10 {
        fill: url(#linear-gradient-4);
      }
    </style>
    <clipPath id="clippath">
      <path class="cls-4" d="m44.28,55.33v-4.76c0-.85.69-1.54,1.54-1.54h28.36c.85,0,1.54.69,1.54,1.54h0v4.76h0c0,1.67-1.35,3.02-3.02,3.02h-2.65v-.42c0-.81-.65-1.46-1.46-1.46s-1.46.65-1.46,1.46h0v.42h-14.26v-.42c0-.81-.66-1.46-1.46-1.46-.81,0-1.46.65-1.46,1.46v.42h-2.65c-1.67,0-3.02-1.35-3.02-3.02m11.4-9.7c0-1.42,1.15-2.57,2.57-2.57h3.5c1.42,0,2.57,1.15,2.57,2.57h0v.48h-8.64v-.48Zm2.57-5.49c-3.03,0-5.49,2.46-5.49,5.49v.48h-6.94c-2.46,0-4.46,2-4.46,4.46v12.1c0,.81.66,1.46,1.46,1.46.81,0,1.46-.65,1.46-1.46v-2.22c.91.54,1.96.83,3.02.83h2.65v.68c0,.81.65,1.46,1.46,1.46s1.46-.65,1.46-1.46v-.68h14.26v.68c.02.81.69,1.44,1.5,1.42.78-.02,1.4-.65,1.42-1.42v-.68h2.65c1.06,0,2.11-.28,3.02-.83v10.53c0,.85-.69,1.54-1.54,1.54h-28.36c-.85,0-1.54-.69-1.54-1.54v-1.49c0-.81-.65-1.46-1.46-1.46s-1.46.65-1.46,1.46h0v1.49c0,2.46,2,4.46,4.46,4.46h28.36c2.46,0,4.46-2,4.46-4.46v-20.4c0-2.46-2-4.46-4.46-4.46h-6.93v-.48c0-3.03-2.46-5.49-5.49-5.49h-3.5Z"/>
    </clipPath>
    <linearGradient id="linear-gradient" x1="-137.97" y1="2518.72" x2="-139.56" y2="2516.87" gradientTransform="translate(5502.24 93358.05) scale(39.14 -37.06)" gradientUnits="userSpaceOnUse">
      <stop offset="0" stop-color="#682376"/>
      <stop offset="1" stop-color="#a52973"/>
    </linearGradient>
    <clipPath id="clippath-1">
      <path class="cls-4" d="m60,13.52l5.14,7.04h-.53c-.81,0-1.46.65-1.46,1.46h0v10.1h-6.3v-10.1c0-.81-.65-1.46-1.46-1.46h-.53l5.14-7.04Zm0-3.52c-.66,0-1.27.32-1.66.84l-6.84,9.36c-.67.92-.47,2.21.45,2.88.35.26.78.4,1.21.4h.77v9.49c0,1.14.92,2.06,2.06,2.06h8.02c1.14,0,2.06-.92,2.06-2.06v-9.49h.77c1.14,0,2.06-.92,2.06-2.06,0-.44-.14-.86-.4-1.22l-6.84-9.36c-.39-.53-1.01-.84-1.66-.84Z"/>
    </clipPath>
    <linearGradient id="linear-gradient-2" x1="-133.87" y1="2536.62" x2="-135.46" y2="2534.77" gradientTransform="translate(2618.88 66667.52) scale(18.96 -26.29)" xlink:href="#linear-gradient"/>
    <clipPath id="clippath-2">
      <path class="cls-4" d="m54.86,99.44h.53c.81,0,1.46-.65,1.46-1.46h0v-10.1h6.29v10.1c0,.81.65,1.46,1.46,1.46h.54l-5.14,7.04-5.14-7.04Zm1.13-14.48c-1.14,0-2.06.92-2.06,2.06v9.49h-.77c-1.14,0-2.06.92-2.06,2.06,0,.44.14.86.4,1.21l6.84,9.36c.67.92,1.96,1.12,2.88.45.17-.13.32-.28.45-.45l6.84-9.36c.67-.92.47-2.21-.45-2.88-.35-.26-.78-.4-1.22-.4h-.77v-9.49c0-1.14-.92-2.06-2.06-2.07h-8.02Z"/>
    </clipPath>
    <linearGradient id="linear-gradient-3" x1="-133.87" y1="2536.76" x2="-135.46" y2="2534.91" gradientTransform="translate(2618.88 66746.23) scale(18.96 -26.29)" xlink:href="#linear-gradient"/>
    <clipPath id="clippath-3">
      <path class="cls-4" d="m27.13,27.14l8.61,1.34-.38.38c-.57.57-.57,1.5,0,2.07l7.14,7.14-4.45,4.45-7.14-7.14c-.57-.57-1.5-.57-2.07,0l-.38.38-1.34-8.62Zm-2.49-2.49c-.46.47-.68,1.12-.58,1.77l1.78,11.46c.17,1.13,1.23,1.9,2.35,1.72.43-.07.83-.27,1.14-.58l.54-.54,6.71,6.71c.81.8,2.11.8,2.92,0l5.67-5.67c.8-.81.8-2.11,0-2.92l-6.71-6.71.54-.54c.8-.81.8-2.11,0-2.92-.31-.31-.71-.51-1.14-.58l-11.45-1.78c-.65-.1-1.31.11-1.77.58"/>
    </clipPath>
    <linearGradient id="linear-gradient-4" x1="-135.25" y1="2545.99" x2="-136.83" y2="2544.14" gradientTransform="translate(3186.74 58136.58) scale(23.12 -22.83)" xlink:href="#linear-gradient"/>
    <clipPath id="clippath-4">
      <path class="cls-4" d="m84.25,91.53l.38-.38c.57-.57.57-1.5,0-2.07l-7.14-7.14,4.45-4.45,7.14,7.14c.57.57,1.5.57,2.07,0l.38-.38,1.33,8.61-8.61-1.34Zm-3.76-16.71l-5.67,5.67c-.8.81-.8,2.11,0,2.91l6.72,6.71-.54.54c-.81.81-.8,2.11,0,2.92.31.31.71.51,1.14.58l11.46,1.78c1.12.18,2.18-.59,2.35-1.72.03-.21.03-.42,0-.63l-1.79-11.46c-.17-1.12-1.22-1.9-2.35-1.72-.43.07-.83.27-1.14.58l-.54.54-6.71-6.71c-.81-.8-2.11-.8-2.91,0"/>
    </clipPath>
    <linearGradient id="linear-gradient-5" x1="-135.35" y1="2546.1" x2="-136.94" y2="2544.25" gradientTransform="translate(3239.29 58189.25) scale(23.12 -22.83)" xlink:href="#linear-gradient"/>
    <clipPath id="clippath-5">
      <path class="cls-4" d="m13.52,60l7.04-5.14v.53c0,.81.65,1.46,1.46,1.46h10.1v6.3h-10.1c-.81,0-1.46.65-1.46,1.46v.53l-7.04-5.14Zm6.68-8.5l-9.36,6.84c-.92.67-1.12,1.96-.45,2.88.13.17.28.32.45.45l9.36,6.84c.92.67,2.21.47,2.88-.45.26-.35.4-.78.4-1.21v-.77h9.49c1.14,0,2.06-.92,2.06-2.06v-8.02c0-1.14-.92-2.06-2.06-2.06h-9.49v-.77c0-1.14-.92-2.06-2.06-2.06-.44,0-.87.14-1.22.4"/>
    </clipPath>
    <linearGradient id="linear-gradient-6" x1="-136.01" y1="2561.79" x2="-137.6" y2="2559.94" gradientTransform="translate(3625.76 47926.98) scale(26.29 -18.69)" xlink:href="#linear-gradient"/>
    <clipPath id="clippath-6">
      <path class="cls-4" d="m87.89,56.85h10.1c.8,0,1.46-.66,1.45-1.46v-.53l7.04,5.14-7.04,5.14v-.53c0-.81-.65-1.46-1.45-1.47,0,0,0,0,0,0h-10.1v-6.3Zm9.76-5.53c-.69.35-1.13,1.06-1.13,1.84v.77h-9.49c-1.14,0-2.06.92-2.06,2.06v8.02c0,1.14.92,2.06,2.06,2.06h9.49v.77c0,1.14.92,2.06,2.06,2.06.44,0,.87-.14,1.22-.4l9.36-6.84c.92-.67,1.12-1.96.45-2.88-.12-.17-.28-.32-.45-.45l-9.36-6.84c-.63-.46-1.46-.53-2.15-.17"/>
    </clipPath>
    <linearGradient id="linear-gradient-7" x1="-136.16" y1="2561.79" x2="-137.74" y2="2559.94" gradientTransform="translate(3704.32 47926.98) scale(26.28 -18.69)" xlink:href="#linear-gradient"/>
    <clipPath id="clippath-7">
      <path class="cls-4" d="m30.92,84.63l7.14-7.14,4.45,4.45-7.14,7.14c-.57.57-.57,1.5,0,2.07l.38.38-8.62,1.34,1.34-8.61.38.38c.57.57,1.5.57,2.07,0m5.68-9.81l-6.72,6.71-.54-.54c-.8-.81-2.11-.81-2.92,0-.31.31-.51.71-.58,1.14l-1.78,11.45c-.17,1.13.6,2.18,1.73,2.35.21.03.42.03.62,0l11.45-1.78c1.13-.17,1.9-1.23,1.72-2.35-.07-.43-.27-.83-.58-1.14l-.54-.54,6.71-6.71c.8-.81.8-2.11,0-2.92l-5.67-5.67c-.81-.8-2.11-.8-2.92,0"/>
    </clipPath>
    <linearGradient id="linear-gradient-8" x1="-135.25" y1="2546.1" x2="-136.83" y2="2544.25" gradientTransform="translate(3186.88 58186.77) scale(23.12 -22.83)" xlink:href="#linear-gradient"/>
    <clipPath id="clippath-8">
      <path class="cls-4" d="m93.58,24.07l-11.46,1.78c-1.12.17-1.9,1.23-1.72,2.35.07.43.27.83.58,1.14l.54.54-6.71,6.71c-.8.81-.8,2.11,0,2.92l5.67,5.67c.8.81,2.11.81,2.92,0,0,0,0,0,0,0l1.33-1.33c.56-.58.55-1.51-.03-2.07-.57-.55-1.47-.55-2.03,0l-.72.72-4.45-4.45,7.14-7.14c.57-.57.57-1.5,0-2.07l-.38-.38,8.62-1.34-1.34,8.61-.38-.38c-.57-.57-1.49-.57-2.07,0,0,0,0,0,0,0l-1.7,1.7c-.57.57-.57,1.5,0,2.07.57.57,1.5.57,2.07,0h0l.67-.67.54.54c.81.8,2.11.8,2.92,0,.31-.31.51-.71.58-1.14l1.78-11.46c.18-1.12-.59-2.18-1.72-2.36-.11-.02-.22-.03-.32-.02-.1,0-.21,0-.31.02"/>
    </clipPath>
    <linearGradient id="linear-gradient-9" x1="-135.35" y1="2545.99" x2="-136.94" y2="2544.14" gradientTransform="translate(3239.43 58136.58) scale(23.12 -22.83)" xlink:href="#linear-gradient"/>
  </defs>
  <g id="Layer_2-2" data-name="Layer 2">
    <g>
      <rect class="cls-4" width="120" height="120"/>
      <rect class="cls-4" x="10" y="10" width="100" height="100"/>
      <g>
        <g id="Group_847" data-name="Group 847">
          <g class="cls-16">
            <g id="Group_846" data-name="Group 846">
              <rect id="Rectangle_817" data-name="Rectangle 817" class="cls-1" x="41.36" y="40.13" width="37.28" height="35.3"/>
            </g>
          </g>
        </g>
        <g id="Group_849" data-name="Group 849">
          <g class="cls-14">
            <g id="Group_848" data-name="Group 848">
              <rect id="Rectangle_818" data-name="Rectangle 818" class="cls-5" x="50.97" y="10" width="18.06" height="25.04"/>
            </g>
          </g>
        </g>
        <g id="Group_851" data-name="Group 851">
          <g class="cls-11">
            <g id="Group_850" data-name="Group 850">
              <rect id="Rectangle_819" data-name="Rectangle 819" class="cls-7" x="50.97" y="84.97" width="18.06" height="25.04"/>
            </g>
          </g>
        </g>
        <g id="Group_853" data-name="Group 853">
          <g class="cls-17">
            <g id="Group_852" data-name="Group 852">
              <rect id="Rectangle_820" data-name="Rectangle 820" class="cls-10" x="23.96" y="24.04" width="22.02" height="21.75"/>
            </g>
          </g>
        </g>
        <g id="Group_855" data-name="Group 855">
          <g class="cls-15">
            <g id="Group_854" data-name="Group 854">
              <rect id="Rectangle_821" data-name="Rectangle 821" class="cls-3" x="74.01" y="74.22" width="22.02" height="21.75"/>
            </g>
          </g>
        </g>
        <g id="Group_857" data-name="Group 857">
          <g class="cls-19">
            <g id="Group_856" data-name="Group 856">
              <rect id="Rectangle_822" data-name="Rectangle 822" class="cls-2" x="10" y="51.1" width="25.04" height="17.81"/>
            </g>
          </g>
        </g>
        <g id="Group_859" data-name="Group 859">
          <g class="cls-12">
            <g id="Group_858" data-name="Group 858">
              <rect id="Rectangle_823" data-name="Rectangle 823" class="cls-6" x="84.97" y="51.1" width="25.04" height="17.81"/>
            </g>
          </g>
        </g>
        <g id="Group_861" data-name="Group 861">
          <g class="cls-13">
            <g id="Group_860" data-name="Group 860">
              <rect id="Rectangle_824" data-name="Rectangle 824" class="cls-9" x="23.96" y="74.22" width="22.02" height="21.75"/>
            </g>
          </g>
        </g>
        <g id="Group_863" data-name="Group 863">
          <g class="cls-18">
            <g id="Group_862" data-name="Group 862">
              <rect id="Rectangle_825" data-name="Rectangle 825" class="cls-8" x="74.01" y="24.04" width="22.02" height="21.75"/>
            </g>
          </g>
        </g>
      </g>
    </g>
  </g>
</svg>