<svg xmlns="http://www.w3.org/2000/svg" width="36" height="36" viewBox="0 0 36 36">
  <g id="facebook-logo" transform="translate(-15579 -3191)">
    <rect id="Rectangle_695" data-name="Rectangle 695" width="36" height="36" transform="translate(15579 3191)" fill="#898989" opacity="0"/>
    <rect id="Rectangle_696" data-name="Rectangle 696" width="32" height="32" transform="translate(15581 3193)" fill="#898989" opacity="0"/>
    <path id="Path_2367" data-name="Path 2367" d="M27.654,0H4.746A4.752,4.752,0,0,0,0,4.746V27.654A4.752,4.752,0,0,0,4.746,32.4H14.3V20.946H10.5v-5.7h3.8v-3.86A5.7,5.7,0,0,1,20,5.7h5.759v5.7H20v3.86h5.759l-.949,5.7H20V32.4h7.657A4.752,4.752,0,0,0,32.4,27.654V4.746A4.752,4.752,0,0,0,27.654,0Zm0,0" transform="translate(15580.8 3192.8)" fill="#fff"/>
  </g>
</svg>
