<svg xmlns="http://www.w3.org/2000/svg" width="40.094" height="41.217" viewBox="0 0 40.094 41.217">
  <g id="feather-pen" transform="translate(0)">
    <path id="Path_2365" data-name="Path 2365" d="M40.276,27.987a7.466,7.466,0,0,0-2.789-1.035.615.615,0,0,0-.736.478.626.626,0,0,0,.472.745,6.463,6.463,0,0,1,2.346.839,1.835,1.835,0,0,1,.852,1.725c-.209.962-1.569,1.39-2.361,1.559a39.575,39.575,0,0,1-8.57.546c-1.644-.014-3.344-.029-5.017.074a7.245,7.245,0,0,0-3.6.946A3.328,3.328,0,0,0,19.41,37.59a4.64,4.64,0,0,0,.378.753,1.911,1.911,0,0,1,.331.793,1.009,1.009,0,0,1-.527.792,3.78,3.78,0,0,1-1.342.4,56.231,56.231,0,0,1-15.244.4,19.2,19.2,0,0,1,1.328-4.063,18.938,18.938,0,0,0,3.4-.416A26.626,26.626,0,0,0,18.1,31.535c1.169-.852,2.313-1.748,3.4-2.669a.327.327,0,0,0,.1-.345.323.323,0,0,0-.285-.213,10.76,10.76,0,0,1-4.1-.965,17.646,17.646,0,0,0,7.59-1.466.235.235,0,0,0,.08-.056,58.563,58.563,0,0,0,5.245-5.77.31.31,0,0,0,.037-.326.306.306,0,0,0-.272-.182,10.735,10.735,0,0,1-4.621-1.115,26.13,26.13,0,0,0,6.971-1.3.282.282,0,0,0,.136-.106,50.957,50.957,0,0,0,5.1-9.253.331.331,0,0,0-.012-.276.327.327,0,0,0-.216-.157,14.233,14.233,0,0,0-2.963-.207,9.3,9.3,0,0,1,3.643-1,.316.316,0,0,0,.266-.207A25.443,25.443,0,0,0,39.33,2.185a.31.31,0,0,0-.186-.351c-.173-.069-4.305-1.7-10.75.157a.276.276,0,0,0-.148.1A17.329,17.329,0,0,0,25.6,6.833a12.808,12.808,0,0,1,.315-3.464.307.307,0,0,0-.414-.357,33.347,33.347,0,0,0-6.934,4.022.337.337,0,0,0-.087.1,15.638,15.638,0,0,0-1.5,6.2,12.8,12.8,0,0,1-.761-3.759.31.31,0,0,0-.513-.219,55.431,55.431,0,0,0-4.07,4.016.224.224,0,0,0-.043.063,15.553,15.553,0,0,0-1.5,6.221,12.585,12.585,0,0,1-.687-2.857.3.3,0,0,0-.216-.263.32.32,0,0,0-.328.1c-1.528,1.911-3.049,4.009-4.522,6.258A16.286,16.286,0,0,0,1.7,29.731a10.134,10.134,0,0,0,.575,5.381C10.6,16.863,24.973,11.469,25.116,11.419a.615.615,0,0,1,.792.376.627.627,0,0,1-.371.8c-.142.05-14.072,5.3-22.157,23.092-.111.251-.216.5-.309.739l.01.011a18.7,18.7,0,0,0-1.4,4.741.625.625,0,0,0,.527.707h0a52,52,0,0,0,6.854.434,58.1,58.1,0,0,0,9.387-.755A4.834,4.834,0,0,0,20.232,41a2.211,2.211,0,0,0,1.122-1.9,2.909,2.909,0,0,0-.5-1.389,3.639,3.639,0,0,1-.283-.551,2.077,2.077,0,0,1,.976-2.24,6.178,6.178,0,0,1,3-.747c1.63-.1,3.308-.086,4.932-.072a40.48,40.48,0,0,0,8.836-.573c1.9-.406,3.044-1.276,3.314-2.516a3.065,3.065,0,0,0-1.354-3.022Z" transform="translate(-1.59 -1.104)" fill="#672476"/>
  </g>
</svg>
