<svg xmlns="http://www.w3.org/2000/svg" xmlns:xlink="http://www.w3.org/1999/xlink" width="664" height="643" viewBox="0 0 664 643">
  <defs>
    <clipPath id="clip-path">
      <rect id="Rectangle_988" data-name="Rectangle 988" width="664" height="643" transform="translate(3665 1926)" fill="#fff"/>
    </clipPath>
  </defs>
  <g id="enrich-your-profile" transform="translate(-3665 -1926)" clip-path="url(#clip-path)">
    <g id="Group_1175" data-name="Group 1175" transform="translate(3706.632 1958.41)">
      <path id="Path_4537" data-name="Path 4537" d="M165.045,597.708h53.395s-10.2-49.033-33.552-78.086-42.324-56.109-45.837-111.433S95.693,277.542,71.354,273.05s-37.688,40.041-7.478,72.223,57.99,52.146,59.908,96.261,6.835,108.48,41.261,156.174" transform="translate(2.359 13.857)" fill="#672376"/>
      <path id="Path_4538" data-name="Path 4538" d="M310.812,597.269h54.379s20.374-30.064,25.995-78.086,36.2-82.251,49.363-105.535,23.808-91.553,15.975-112.509c-15.975-42.744-51.99-9.911-52.692,39.306s-8.748,94.983-33.53,121.631-54.854,99.713-59.49,135.192" transform="translate(15.791 14.296)" fill="#672376"/>
      <path id="Path_4539" data-name="Path 4539" d="M220.167,497.865S176.041,363.892,136,303.823s-20.023-131.951,8.431-137.109,13.5,44.019,20.978,78.445,32.5,112.98,54.763,149.053,46.365,85.6,46.365,85.6Z" transform="translate(5.765 8.451)" fill="#672376"/>
      <path id="Path_4540" data-name="Path 4540" d="M287.3,418.3s8.262-61.446,24.7-135.139,29.087-88.176,34.356-134.154-6.307-69.216,16.045-75.019c18.03-4.681,28.688,44.256,24.237,81.436s-51.092,104.55-54.118,143.054S343.2,413.924,343.2,413.924Z" transform="translate(14.597 3.743)" fill="#672376"/>
      <path id="Path_4541" data-name="Path 4541" d="M527.633,291.917A262.053,262.053,0,0,1,121.618,511.035a264.115,264.115,0,0,1-58.194-52.177A260.827,260.827,0,0,1,4.177,312.237,264.321,264.321,0,0,1,10.858,229.6,261.973,261.973,0,0,1,235.373,31.506a265.036,265.036,0,0,1,82.686,3.56A262.092,262.092,0,0,1,524.536,251.433a265.183,265.183,0,0,1,3.1,40.483,1.7,1.7,0,0,0,3.4,0A265.514,265.514,0,0,0,.8,271.231,267.347,267.347,0,0,0,7.493,354.8,265.368,265.368,0,0,0,234.649,555.647a267.71,267.71,0,0,0,83.963-3.526A265.414,265.414,0,0,0,527.928,332.59a271.27,271.27,0,0,0,3.107-40.674,1.7,1.7,0,0,0-3.4,0" transform="translate(0 1.341)" fill="#ee5064"/>
      <path id="Path_4542" data-name="Path 4542" d="M211.6,58.1A58.1,58.1,0,1,1,153.5,0a58.1,58.1,0,0,1,58.1,58.1" transform="translate(4.847)" fill="#63b771"/>
      <path id="Path_4543" data-name="Path 4543" d="M558.276,331.984a58.1,58.1,0,1,1-58.1-58.1,58.1,58.1,0,0,1,58.1,58.1" transform="translate(22.46 13.915)" fill="#63b771"/>
      <path id="Path_4544" data-name="Path 4544" d="M139.887,447.388a58.1,58.1,0,1,1-58.1-58.1,58.1,58.1,0,0,1,58.1,58.1" transform="translate(1.203 19.778)" fill="#63b771"/>
      <path id="Path_4545" data-name="Path 4545" d="M187.577,32.584c-1.935-1.776-5.331-2.136-7.219,0L168.22,46.316l-19.356,21.9-.562.637L134.682,50.891l-2.527-3.332a5.6,5.6,0,0,0-3.05-2.345,5.214,5.214,0,0,0-3.933.514c-2.1,1.351-3.557,4.709-1.832,6.985l17.743,23.4,2.527,3.332a5.327,5.327,0,0,0,3.729,2.437,4.874,4.874,0,0,0,4.287-1.4l12.138-13.732,19.356-21.9,4.456-5.042c1.767-2,2.117-5.276,0-7.219" transform="translate(6.228 1.581)" fill="#fff"/>
      <path id="Path_4546" data-name="Path 4546" d="M534.422,306.466c-1.935-1.776-5.332-2.136-7.22,0L515.064,320.2l-19.355,21.9-.563.637-13.62-17.959q-1.264-1.666-2.527-3.332a5.6,5.6,0,0,0-3.051-2.345,5.215,5.215,0,0,0-3.932.514c-2.1,1.351-3.558,4.709-1.833,6.985l17.744,23.4q1.264,1.666,2.527,3.332a5.323,5.323,0,0,0,3.728,2.437,4.873,4.873,0,0,0,4.287-1.4l12.138-13.732,19.356-21.9,4.458-5.042c1.766-2,2.116-5.276,0-7.219" transform="translate(23.85 15.496)" fill="#fff"/>
      <path id="Path_4547" data-name="Path 4547" d="M112.354,421.87c-1.935-1.776-5.331-2.136-7.219,0L93,435.6,73.641,457.5l-.562.637L59.459,440.177l-2.527-3.332a5.6,5.6,0,0,0-3.05-2.345,5.219,5.219,0,0,0-3.933.514c-2.1,1.351-3.557,4.709-1.832,6.985L65.86,465.4l2.527,3.332a5.327,5.327,0,0,0,3.729,2.437,4.874,4.874,0,0,0,4.287-1.4l12.138-13.732,19.356-21.9,4.456-5.042c1.767-2,2.117-5.276,0-7.219" transform="translate(2.406 21.359)" fill="#fff"/>
      <path id="Path_4548" data-name="Path 4548" d="M189.744,406.241v25.6s-1.575,20.325-4.978,39.78-16.613,119.33-16.613,119.33h94.4l8.886-61.332,13,61.332H375.1S357.689,471,348.912,435.326l-3.384-20.174Z" transform="translate(8.543 20.64)" fill="#493932" stroke="#000" stroke-width="2"/>
      <path id="Path_4549" data-name="Path 4549" d="M256.448,171.639s-76.675,13.8-92.92,25.344S110,324.117,112.309,347.466s13.285,41.854,79.019,25.4c0,0,2.538,17.754.236,29.367s-3.966,24.111,1.023,26.708S344,447.312,351.755,429.7s-.442-82.393,2.137-109.981,28.926-46.079,28.926-46.079S367,203.364,345.929,194.351s-89.481-22.712-89.481-22.712" transform="translate(5.701 8.72)" fill="#a62973"/>
      <path id="Path_4550" data-name="Path 4550" d="M256.448,171.639s-76.675,13.8-92.92,25.344S110,324.117,112.309,347.466s13.285,41.854,79.019,25.4c0,0,2.538,17.754.236,29.367s-3.966,24.111,1.023,26.708S344,447.312,351.755,429.7s-.442-82.393,2.137-109.981,28.926-46.079,28.926-46.079S367,203.364,345.929,194.351,256.448,171.639,256.448,171.639Z" transform="translate(5.701 8.72)" fill="none" stroke="#000" stroke-miterlimit="10" stroke-width="2"/>
      <path id="Path_4551" data-name="Path 4551" d="M251.384,145.318s-2.837-17.46-8.393-41.063c-2.143-9.1,1.845-18.429,11.163-18.166,4.951.14,8.662,4.262,14.595-2.477,6.181-7.019,19.93-5.757,25.633,2.592,7.693,11.26,14.275.343,24.078,9.745,6.471,6.207,7.551,30.045-26.2,32.237s-40.878,17.132-40.878,17.132" transform="translate(12.317 4.016)" fill="#3c424f"/>
      <path id="Path_4552" data-name="Path 4552" d="M251.384,145.318s-2.837-17.46-8.393-41.063c-2.143-9.1,1.845-18.429,11.163-18.166,4.951.14,8.662,4.262,14.595-2.477,6.181-7.019,19.93-5.757,25.633,2.592,7.693,11.26,14.275.343,24.078,9.745,6.471,6.207,7.551,30.045-26.2,32.237S251.384,145.318,251.384,145.318Z" transform="translate(12.317 4.016)" fill="none" stroke="#000" stroke-miterlimit="10" stroke-width="2"/>
      <path id="Path_4553" data-name="Path 4553" d="M298.77,116.59s-2.075,42.819-16.356,44.282c0,0-3.339,21.059-2.528,23.511,0,0-.3,11.519-10.539,9.837C252.825,191.5,247,182.672,243.705,179.114c0,0,7.094-29.157,7.59-48.538,0,0-4.889-2.151-3.8-9.409s8.9-6.6,9.387-4.308,11.28.99,14.285-9.4c0,0,18.758,16.688,27.606,9.126" transform="translate(12.382 5.46)" fill="#f29f72"/>
      <path id="Path_4554" data-name="Path 4554" d="M298.77,116.59s-2.075,42.819-16.356,44.282c0,0-3.339,21.059-2.528,23.511,0,0-.3,11.519-10.539,9.837C252.825,191.5,247,182.672,243.705,179.114c0,0,7.094-29.157,7.59-48.538,0,0-4.889-2.151-3.8-9.409s8.9-6.6,9.387-4.308,11.28.99,14.285-9.4C271.165,107.464,289.923,124.152,298.77,116.59Z" transform="translate(12.382 5.46)" fill="none" stroke="#000" stroke-miterlimit="10" stroke-width="2"/>
      <path id="Path_4555" data-name="Path 4555" d="M257.266,112.686c-5.585,13.716-8.69,35.437-7.083,42.981,1.167,5.48.955,6.638,15.107,11.564s17.491,5.675,21.164-1,8.73-15.492,7.817-18.966-20.758-6.074-28.5-2.166c-7.034,3.549-7.645,2.7-7.645,2.7s-3.61-8.824,5.753-35.39c4.537-12.876-6.611.278-6.611.278" transform="translate(12.689 5.424)" fill="#3c424f"/>
      <path id="Path_4556" data-name="Path 4556" d="M257.266,112.686c-5.585,13.716-8.69,35.437-7.083,42.981,1.167,5.48.955,6.638,15.107,11.564s17.491,5.675,21.164-1,8.73-15.492,7.817-18.966-20.758-6.074-28.5-2.166c-7.034,3.549-7.645,2.7-7.645,2.7s-3.61-8.824,5.753-35.39C268.414,99.532,257.266,112.686,257.266,112.686Z" transform="translate(12.689 5.424)" fill="none" stroke="#000" stroke-miterlimit="10" stroke-width="2"/>
      <path id="Path_4557" data-name="Path 4557" d="M276.324,149.3l8.143,2.271s-1.237,4.489-4.688,3.658c-3.821-.918-3.455-5.929-3.455-5.929" transform="translate(14.039 7.585)" fill="#fff"/>
      <path id="Path_4558" data-name="Path 4558" d="M300.267,127.164a6.326,6.326,0,0,0-2.635-3.028,5.083,5.083,0,0,0-3.767-.447,7.255,7.255,0,0,0-4.731,4.873,2.807,2.807,0,0,0-2.421-.28,7.956,7.956,0,0,0-.806-3.534,6.756,6.756,0,0,0-2.868-3.022,5.885,5.885,0,0,0-4.142-.469,6.818,6.818,0,0,0-3.857,2.709c-.711-.36-1.447-.68-2.166-1.02l-4.753-2.249-5.492-2.6-4.559-2.156-1.886-.892a.613.613,0,0,0-.514,1.113l.033.016c.76.4,1.553.735,2.327,1.1l4.753,2.248,5.492,2.6,4.559,2.157,1.555.736a8.83,8.83,0,0,0-.868,2.579,9.5,9.5,0,0,0-.111,1.256,7.282,7.282,0,0,0,4.124,6.984,6.421,6.421,0,0,0,7.5-2.375,8.634,8.634,0,0,0,1.551-3.662.619.619,0,0,0,.216-.158c.008-.009.042-.041.056-.057.045-.035.094-.062.139-.095l.083-.036c.059-.024.122-.039.181-.061.03-.005.06-.012.09-.016.069-.01.14-.018.21-.022.036,0,.071,0,.106,0,.065.006.13.009.194.018s.154.026.231.044l.029.009c-.005,0,.005,0,.041.01a.226.226,0,0,0,.034.008l-.02,0c.067.024.132.051.2.082l.095.048-.014-.012a.38.38,0,0,0,.03.023l.012.009c.042.03.087.059.126.091s.048.042.071.064a.72.72,0,0,0,.088.116c-.016.081-.035.162-.048.243-.485,3.043.531,6.811,3.579,8.158,2.6,1.15,5.423-.187,6.971-2.387a9.171,9.171,0,0,0,.981-8.713M283.478,133.4a4.964,4.964,0,0,1-6.183.942,6.5,6.5,0,0,1-2.566-6.547c.455-2.668,2.443-5.272,5.287-5.489a5.188,5.188,0,0,1,5.135,3.83,7.354,7.354,0,0,1-1.673,7.264m14.346,2.345a5.043,5.043,0,0,1-2.708,1.647,3.845,3.845,0,0,1-2.921-.592c-2.033-1.415-2.622-4.161-2.25-6.5.431-2.526,2.194-5.313,4.927-5.558a3.873,3.873,0,0,1,2.839.924,5.754,5.754,0,0,1,1.746,2.874,7.923,7.923,0,0,1-1.634,7.2" transform="translate(12.972 5.842)" fill="#fff"/>
      <path id="Path_4559" data-name="Path 4559" d="M286.867,128.866h0c.075.069.062.046.028.02l-.012-.009-.017-.011" transform="translate(14.575 6.547)" fill="#fff"/>
      <path id="Path_4560" data-name="Path 4560" d="M286.58,128.738c-.014,0-.027-.006-.041-.012a.2.2,0,0,0,.055.016h0l-.013,0" transform="translate(14.558 6.54)" fill="#fff"/>
      <path id="Path_4561" data-name="Path 4561" d="M278.024,129.068a1.37,1.37,0,1,0,1.593-1.379,1.5,1.5,0,0,0-1.593,1.379" transform="translate(14.124 6.487)" fill="#354159"/>
      <path id="Path_4562" data-name="Path 4562" d="M290.158,131.068a1.37,1.37,0,1,0,1.593-1.379,1.5,1.5,0,0,0-1.593,1.379" transform="translate(14.741 6.588)" fill="#354159"/>
      <path id="Path_4563" data-name="Path 4563" d="M286.933,130.525q.649,3.5,1.3,7a5.449,5.449,0,0,1-.018,3.191,2.424,2.424,0,0,1-2.449,1.446c-.634-.019-1.274-.082-1.9-.148-.663-.07-1.223-.659-.77-1.3a.62.62,0,0,1,.864-.081.626.626,0,0,1,.081.864c-.011.015-.021.03-.033.045.045-.1.089-.194.133-.291l0,.047c-.01-.106-.021-.212-.033-.318a.306.306,0,0,0-.161-.184l.242.021.483.041c.307.026.614.057.92.079a1.57,1.57,0,0,0,1.188-.247c.747-.666.45-1.895.294-2.736q-.676-3.65-1.353-7.3a.619.619,0,0,1,.545-.675.627.627,0,0,1,.675.545" transform="translate(14.374 6.604)"/>
      <path id="Path_4564" data-name="Path 4564" d="M252.163,117.258a3.351,3.351,0,0,1,.663,2.374.972.972,0,0,1-.836.925,7.893,7.893,0,0,1-1.424-.067l.709-.67a8.861,8.861,0,0,1-.624,5.194.614.614,0,0,1-1.114-.514,7.685,7.685,0,0,0,.518-4.55c-.079-.429.347-.692.71-.67.316.02.634.043.951.059.122.014.158.016.106,0-.186.271-.256.316-.211.138a1.71,1.71,0,0,1,.01-.263,2.177,2.177,0,0,0-.455-1.244c-.478-.63.519-1.344,1-.715" transform="translate(12.675 5.945)" fill="#c47e69"/>
      <path id="Path_4565" data-name="Path 4565" d="M344.278,250.7l76.033,14.271a5.134,5.134,0,0,1,4.027,6.321L396.507,379.906a5.134,5.134,0,0,1-5.9,3.777L314.82,369.841a5.134,5.134,0,0,1-4.055-6.311l27.589-109.04a5.134,5.134,0,0,1,5.924-3.787" transform="translate(15.781 12.733)" fill="#594740"/>
      <path id="Path_4566" data-name="Path 4566" d="M344.278,250.7l76.033,14.271a5.134,5.134,0,0,1,4.027,6.321L396.507,379.906a5.134,5.134,0,0,1-5.9,3.777L314.82,369.841a5.134,5.134,0,0,1-4.055-6.311l27.589-109.04A5.134,5.134,0,0,1,344.278,250.7Z" transform="translate(15.781 12.733)" fill="none" stroke="#000" stroke-miterlimit="10" stroke-width="2"/>
      <path id="Path_4567" data-name="Path 4567" d="M415.945,289.643l-.786,3.094a2.34,2.34,0,0,1-2.662,1.735c-6.4-1.086-25.189-4.248-27.638-4.384-1.848-.1-3.5,2.206-3.156,4.4a2.3,2.3,0,0,1-2.043,2.587,2.688,2.688,0,0,0-2.586,1.649c-.751,2.419-.423,4.124,1.939,5.57a2.385,2.385,0,0,1,.674,3.333c-.835,1.3-1.327,2.942.206,4.166a20.883,20.883,0,0,0,5.929,3.326s-4.614-1.635-5.233,1.978,3.268,6.228,7.707,8.353,14.809,4.42,22.386,5.524a23.927,23.927,0,0,0,15.513-2.543c2.574-1.5,7.827-14.72,6.541-23.607-.926-6.4-8.78-13.177-13.108-16.472a2.341,2.341,0,0,0-3.683,1.3" transform="translate(19.139 14.626)" fill="#f29f72"/>
      <path id="Path_4568" data-name="Path 4568" d="M415.945,289.643l-.786,3.094a2.34,2.34,0,0,1-2.662,1.735c-6.4-1.086-25.189-4.248-27.638-4.384-1.848-.1-3.5,2.206-3.156,4.4a2.3,2.3,0,0,1-2.043,2.587,2.688,2.688,0,0,0-2.586,1.649c-.751,2.419-.423,4.124,1.939,5.57a2.385,2.385,0,0,1,.674,3.333c-.835,1.3-1.327,2.942.206,4.166a20.883,20.883,0,0,0,5.929,3.326s-4.614-1.635-5.233,1.978,3.268,6.228,7.707,8.353,14.809,4.42,22.386,5.524a23.927,23.927,0,0,0,15.513-2.543c2.574-1.5,7.827-14.72,6.541-23.607-.926-6.4-8.78-13.177-13.108-16.472A2.341,2.341,0,0,0,415.945,289.643Z" transform="translate(19.139 14.626)" fill="none" stroke="#000" stroke-miterlimit="10" stroke-width="2"/>
      <path id="Path_4569" data-name="Path 4569" d="M229.649,298.621s-.556,1.5-.645,7.465.5,21.129,4.723,29.31c5.792,11.23,6.481,2.654,6.63-.507,0,0-3.1-34.718-10.708-36.269" transform="translate(11.634 15.172)" fill="#e29f3d"/>
      <path id="Path_4570" data-name="Path 4570" d="M229.649,298.621s-.556,1.5-.645,7.465.5,21.129,4.723,29.31c5.792,11.23,6.481,2.654,6.63-.507C240.356,334.89,237.259,300.172,229.649,298.621Z" transform="translate(11.634 15.172)" fill="none" stroke="#000" stroke-miterlimit="10" stroke-width="2"/>
      <path id="Path_4571" data-name="Path 4571" d="M288.4,338.076l.483,8.336a.583.583,0,0,1-1.063.364l-4.731-6.88-23.428-68.358,5.311-1.82Z" transform="translate(13.193 13.703)" fill="#352d29"/>
      <path id="Path_4572" data-name="Path 4572" d="M288.4,338.076l.483,8.336a.583.583,0,0,1-1.063.364l-4.731-6.88-23.428-68.358,5.311-1.82Z" transform="translate(13.193 13.703)" fill="none" stroke="#000" stroke-miterlimit="10" stroke-width="2"/>
      <path id="Path_4573" data-name="Path 4573" d="M230.171,306.814s10.363-10.637,24.414-9.27,33.7,16.5,33.642,20.008-1.493,7.075-8.786,4.228c0,0,3.773,5.935-2.374,7.691,0,0,3.061,5.479-3.037,6.867,0,0-.476,4.079-8.029,3.612s-16.1-5.745-17.092-6.882c0,0-7.011,3.251-12.874,3.34s-6.214-21.691-5.863-29.595" transform="translate(11.689 15.111)" fill="#f29f72"/>
      <path id="Path_4574" data-name="Path 4574" d="M230.171,306.814s10.363-10.637,24.414-9.27,33.7,16.5,33.642,20.008-1.493,7.075-8.786,4.228c0,0,3.773,5.935-2.374,7.691,0,0,3.061,5.479-3.037,6.867,0,0-.476,4.079-8.029,3.612s-16.1-5.745-17.092-6.882c0,0-7.011,3.251-12.874,3.34S229.82,314.718,230.171,306.814Z" transform="translate(11.689 15.111)" fill="none" stroke="#000" stroke-miterlimit="10" stroke-width="2"/>
      <path id="Path_4575" data-name="Path 4575" d="M273.245,426.409q.583,19.643-.4,39.291-.985,19.528-3.524,38.937-1.431,10.934-3.359,21.8c-.126.714.967,1.019,1.094.3q1.713-9.675,3.042-19.413,1.322-9.714,2.261-19.476.944-9.829,1.491-19.692.544-9.81.695-19.637t-.094-19.65q-.03-1.228-.067-2.456c-.021-.728-1.156-.731-1.134,0" transform="translate(13.512 21.636)" fill="#281e1b"/>
      <path id="Path_4576" data-name="Path 4576" d="M190.027,431.671q15.069,2.82,30.3,4.624t30.543,2.574q15.385.776,30.8.51T312.43,437.8q7.675-.656,15.323-1.572a103.465,103.465,0,0,0,14.615-2.48q1.764-.474,3.487-1.082c.684-.241.39-1.337-.3-1.094A70.836,70.836,0,0,1,331,434.694q-7.537.974-15.11,1.666-15.187,1.415-30.447,1.8t-30.5-.242q-15.316-.635-30.565-2.3t-30.338-4.364q-1.858-.333-3.714-.68c-.714-.133-1.019.959-.3,1.094" transform="translate(9.634 21.876)" fill="#281e1b"/>
      <path id="Path_4577" data-name="Path 4577" d="M286.448,438.359q.2,6.682.17,13.366-.038,6.715-.319,13.424-.279,6.678-.8,13.343c-.084,1.076-.158,2.154-.278,3.226a10.042,10.042,0,0,1-.677,2.857,14.905,14.905,0,0,1-3.674,4.443q-4.569,4.432-9.493,8.475c-.415.339-.829.677-1.246,1.012a.57.57,0,0,0,0,.8.581.581,0,0,0,.8,0q5.027-4.043,9.706-8.494a30.051,30.051,0,0,0,4.176-4.413,11.6,11.6,0,0,0,1.649-5.819q.571-6.715.884-13.447.322-6.767.393-13.542t-.107-13.548q-.022-.843-.049-1.685c-.022-.728-1.156-.731-1.133,0" transform="translate(13.716 22.244)" fill="#281e1b"/>
      <path id="Path_4578" data-name="Path 4578" d="M231.906,422.721a82.7,82.7,0,0,1-.734,11.353q-.219,1.617-.5,3.223a.582.582,0,0,0,.4.7.572.572,0,0,0,.7-.4,84.362,84.362,0,0,0,1.225-11.6q.058-1.639.052-3.282a.567.567,0,0,0-1.134,0" transform="translate(11.719 21.449)" fill="#281e1b"/>
      <path id="Path_4579" data-name="Path 4579" d="M237.654,423.059a80.976,80.976,0,0,1-1.627,13.515.58.58,0,0,0,.4.7.572.572,0,0,0,.7-.4,82.678,82.678,0,0,0,1.667-13.817c.026-.73-1.108-.729-1.134,0" transform="translate(11.991 21.466)" fill="#281e1b"/>
      <path id="Path_4580" data-name="Path 4580" d="M198.906,433.082a80.925,80.925,0,0,1-1.136,15.31c-.757,5.09-1.564,10.175-2.358,15.26q-2.367,15.147-4.818,30.28-4.9,30.268-10.138,60.478-2.962,17.089-6.031,34.16c-.128.714.965,1.02,1.094.3Q181,558.39,186.139,527.847q5.113-30.389,9.888-60.833,1.341-8.556,2.655-17.114a87.4,87.4,0,0,0,1.358-16.817c-.03-.727-1.164-.731-1.134,0" transform="translate(8.861 21.976)" fill="#281e1b"/>
      <path id="Path_4581" data-name="Path 4581" d="M214.454,434.406q-2.251,5.258-4.5,10.518t-4.5,10.516l-4.5,10.518q-2.26,5.285-4.523,10.569-2.251,5.258-4.5,10.518-.279.651-.557,1.3a.586.586,0,0,0,.2.776.571.571,0,0,0,.777-.2l4.5-10.517q2.251-5.258,4.5-10.517t4.5-10.518l4.524-10.569,4.5-10.516.557-1.3a.586.586,0,0,0-.2-.777.571.571,0,0,0-.775.2" transform="translate(9.72 22.057)" fill="#281e1b"/>
      <path id="Path_4582" data-name="Path 4582" d="M238.824,178.5a20.749,20.749,0,0,1,3.87,4.356,31.25,31.25,0,0,0,3.841,4.568,27.393,27.393,0,0,0,9.93,5.673,41.187,41.187,0,0,0,5.6,1.45,44.356,44.356,0,0,0,6.184.759c4.038.185,8.422-.4,11.722-2.923,2.808-2.145,4.94-5.632,4.587-9.27a8.728,8.728,0,0,0-.236-1.356.568.568,0,0,0-1.094.3c.86,3.327-.827,6.716-3.3,8.9-2.938,2.6-7.029,3.31-10.834,3.242a41.455,41.455,0,0,1-11.431-1.9,27.193,27.193,0,0,1-9.7-5.114,24.59,24.59,0,0,1-3.737-4.142,34.092,34.092,0,0,0-3.7-4.555,14.161,14.161,0,0,0-1.135-.964.571.571,0,0,0-.777.2.581.581,0,0,0,.2.775" transform="translate(12.119 9.015)" fill="#281e1b"/>
      <path id="Path_4583" data-name="Path 4583" d="M241.329,338.4q-5.066,2.5-10.148,4.97T221,348.272q-5.072,2.424-10.16,4.815-5.113,2.4-10.241,4.773t-10.272,4.708l-1.274.578a.571.571,0,0,0-.2.776.581.581,0,0,0,.777.2q5.145-2.333,10.275-4.7t10.245-4.764q5.09-2.388,10.163-4.807,5.1-2.43,10.183-4.9T240.647,340l1.255-.619c.655-.323.08-1.3-.573-.979" transform="translate(9.591 17.189)"/>
      <path id="Path_4584" data-name="Path 4584" d="M241.329,338.4q-5.066,2.5-10.148,4.97T221,348.272q-5.072,2.424-10.16,4.815-5.113,2.4-10.241,4.773t-10.272,4.708l-1.274.578a.571.571,0,0,0-.2.776.581.581,0,0,0,.777.2q5.145-2.333,10.275-4.7t10.245-4.764q5.09-2.388,10.163-4.807,5.1-2.43,10.183-4.9T240.647,340l1.255-.619C242.556,339.054,241.981,338.075,241.329,338.4Z" transform="translate(9.591 17.189)" fill="none" stroke="#000" stroke-miterlimit="10" stroke-width="1"/>
      <path id="Path_4585" data-name="Path 4585" d="M150.72,313.239c5.42-.343,10.822-.919,16.2-1.656s10.743-1.639,16.085-2.632,10.688-2.08,16.017-3.186,10.667-2.233,16.008-3.308,10.686-2.1,16.056-3q1.015-.172,2.032-.335c.719-.117.414-1.209-.3-1.094-5.348.866-10.674,1.86-15.988,2.914-5.344,1.061-10.676,2.182-16.011,3.293-5.3,1.1-10.612,2.2-15.934,3.211s-10.643,1.943-15.994,2.722-10.725,1.4-16.117,1.8q-1.026.076-2.054.141c-.725.045-.73,1.18,0,1.134" transform="translate(7.63 15.141)"/>
      <path id="Path_4586" data-name="Path 4586" d="M150.72,313.239c5.42-.343,10.822-.919,16.2-1.656s10.743-1.639,16.085-2.632,10.688-2.08,16.017-3.186,10.667-2.233,16.008-3.308,10.686-2.1,16.056-3q1.015-.172,2.032-.335c.719-.117.414-1.209-.3-1.094-5.348.866-10.674,1.86-15.988,2.914-5.344,1.061-10.676,2.182-16.011,3.293-5.3,1.1-10.612,2.2-15.934,3.211s-10.643,1.943-15.994,2.722-10.725,1.4-16.117,1.8q-1.026.076-2.054.141C150,312.15,149.99,313.285,150.72,313.239Z" transform="translate(7.63 15.141)" fill="none" stroke="#000" stroke-miterlimit="10" stroke-width="1"/>
      <path id="Path_4587" data-name="Path 4587" d="M189.751,248.882l-3.446,12.309q-1.723,6.161-3.448,12.322-1.729,6.176-3.456,12.35l-3.457,12.35q-1.728,6.176-3.456,12.35l-.426,1.521a.568.568,0,0,0,1.094.3q1.728-6.174,3.456-12.35t3.456-12.349q1.729-6.176,3.457-12.35t3.45-12.327q1.723-6.155,3.445-12.309.213-.758.425-1.516a.568.568,0,0,0-1.094-.3" transform="translate(8.741 12.624)"/>
      <path id="Path_4588" data-name="Path 4588" d="M189.751,248.882l-3.446,12.309q-1.723,6.161-3.448,12.322-1.729,6.176-3.456,12.35l-3.457,12.35q-1.728,6.176-3.456,12.35l-.426,1.521a.568.568,0,0,0,1.094.3q1.728-6.174,3.456-12.35t3.456-12.349q1.729-6.176,3.457-12.35t3.45-12.327q1.723-6.155,3.445-12.309.213-.758.425-1.516A.568.568,0,0,0,189.751,248.882Z" transform="translate(8.741 12.624)" fill="none" stroke="#000" stroke-miterlimit="10" stroke-width="1"/>
      <path id="Path_4589" data-name="Path 4589" d="M331.13,249.536a67.241,67.241,0,0,1,1.285,14.224q-.033,2.043-.189,4.08a.571.571,0,0,0,.566.566.577.577,0,0,0,.567-.566,68.675,68.675,0,0,0-.456-14.579q-.279-2.022-.68-4.027a.567.567,0,0,0-1.094.3" transform="translate(16.823 12.642)" fill="#281e1b"/>
      <path id="Path_4590" data-name="Path 4590" d="M434.065,287.359c5.652,16.738,3.326,34.646-.723,51.462-2.03,8.433-4.485,16.761-6.879,25.1-2.333,8.118-4.712,16.227-7.26,24.281-5.148,16.278-10.994,32.384-18.528,47.724a220.556,220.556,0,0,1-12.534,22.15c-4.773,7.418-9.546,14.766-13.188,22.826-6.921,15.318-10.62,31.814-13.9,48.224q-.613,3.064-1.213,6.13c-.141.712.952,1.018,1.094.3,3.28-16.676,6.6-33.5,12.972-49.325a137.537,137.537,0,0,1,12.383-23.2c4.753-7.36,9.352-14.76,13.367-22.553,7.732-15,13.758-30.825,19-46.851,5.342-16.342,10.21-32.921,14.544-49.559,4.291-16.474,7.549-34.024,3.693-50.916a62.754,62.754,0,0,0-1.729-6.093c-.232-.688-1.328-.393-1.094.3" transform="translate(18.281 14.564)" fill="#281e1b"/>
      <path id="Path_4591" data-name="Path 4591" d="M58.953,278.752c5.658,7.587,10.05,16,14.176,24.486,4.157,8.551,8.086,17.23,12.9,25.442,5.155,8.794,11.169,17.057,16.191,25.933A184.028,184.028,0,0,1,114.5,381.679c3.431,9.307,6.346,18.794,9.2,28.292q.534,1.78,1.067,3.559a.568.568,0,0,0,1.094-.3c-2.855-9.54-5.716-19.085-9.044-28.475A201.759,201.759,0,0,0,105.1,357.51c-4.765-8.981-10.656-17.269-15.988-25.909-5.076-8.226-9.23-16.923-13.408-25.626-4.1-8.547-8.312-17.1-13.707-24.918q-1.007-1.458-2.067-2.878c-.431-.578-1.416-.014-.979.573" transform="translate(2.99 14.121)" fill="#281e1b"/>
      <path id="Path_4592" data-name="Path 4592" d="M136.575,460.479c1.3,5.736,2.6,11.472,3.973,17.189s2.829,11.437,4.424,17.106c1.59,5.649,3.322,11.259,5.267,16.8,1.935,5.508,4.081,10.944,6.5,16.259a151.754,151.754,0,0,0,8.114,15.5q.56.93,1.134,1.849c.385.619,1.367.049.979-.573a148.73,148.73,0,0,1-8.311-15.326c-2.476-5.259-4.669-10.648-6.644-16.114-1.993-5.516-3.766-11.11-5.389-16.746s-3.093-11.313-4.483-17.009-2.7-11.4-3.99-17.118l-.479-2.118c-.161-.711-1.255-.411-1.094.3" transform="translate(6.938 23.359)" fill="#281e1b"/>
      <path id="Path_4593" data-name="Path 4593" d="M145.8,169.24q-2.093,6.182-3.661,12.525-1.557,6.3-2.583,12.727-1.031,6.458-1.529,12.988-.49,6.477-.44,12.98.052,6.526.655,13.031.074.8.157,1.593a.583.583,0,0,0,.566.567.571.571,0,0,0,.567-.567q-.665-6.461-.789-12.963t.3-12.983q.419-6.437,1.37-12.824.961-6.423,2.457-12.753t3.516-12.5q.249-.76.506-1.518c.234-.692-.861-.991-1.094-.3" transform="translate(6.99 8.579)" fill="#281e1b"/>
      <path id="Path_4594" data-name="Path 4594" d="M360.153,79.505a174.144,174.144,0,0,1,4.4,24.994,180.686,180.686,0,0,1-8.2,74.863,174.321,174.321,0,0,1-9.646,23.362q-.709,1.415-1.446,2.819c-.337.645.64,1.22.979.572a176.017,176.017,0,0,0,10.15-23.35,179.98,179.98,0,0,0,6.725-24.633,183.22,183.22,0,0,0,3.2-25.273,180.255,180.255,0,0,0-.354-25.423A176.6,176.6,0,0,0,362,82.281q-.362-1.542-.75-3.078a.567.567,0,0,0-1.093.3" transform="translate(17.538 4.004)" fill="#281e1b"/>
      <path id="Path_4595" data-name="Path 4595" d="M264.706,313.858a34.127,34.127,0,0,1,5.4,2.753l5.6,3.261a.568.568,0,0,0,.573-.979l-5.694-3.317a35.046,35.046,0,0,0-5.572-2.811.572.572,0,0,0-.7.4.578.578,0,0,0,.4.7" transform="translate(13.428 15.889)"/>
      <path id="Path_4596" data-name="Path 4596" d="M263.19,322.67c.968.387,1.938.766,2.9,1.159a12.641,12.641,0,0,1,2.452,1.387c.8.556,1.622,1.075,2.474,1.55q.638.356,1.295.681.3.151.613.294c.11.052.221.1.332.151.056.025.235.11.232.107l-.145-.25.02.057v-.3l-.01.046c.048-.083.1-.167.146-.25l-.036.034.25-.146-.045.016h.3l-.04-.007.338.261c-.006-.012-.014-.023-.021-.035a.568.568,0,0,0-.979.573.655.655,0,0,0,1.18-.143c.163-.57-.342-.812-.761-1q-1.236-.564-2.415-1.243c-.8-.458-1.568-.959-2.322-1.485a12.436,12.436,0,0,0-2.364-1.307c-1.026-.426-2.063-.826-3.095-1.238a.571.571,0,0,0-.7.4.581.581,0,0,0,.4.7" transform="translate(13.351 16.337)"/>
      <path id="Path_4597" data-name="Path 4597" d="M261.3,329.543a70.205,70.205,0,0,1,9.915,5.011.568.568,0,0,0,.573-.979,72.005,72.005,0,0,0-10.187-5.126.571.571,0,0,0-.7.4.582.582,0,0,0,.4.7" transform="translate(13.254 16.686)"/>
      <path id="Path_4598" data-name="Path 4598" d="M384.456,314.051a49.629,49.629,0,0,0,15.388,5.02q2.29.347,4.6.486c.729.043.726-1.092,0-1.134a48.685,48.685,0,0,1-15.348-3.47c-1.387-.561-2.744-1.193-4.071-1.881-.647-.336-1.222.643-.573.979" transform="translate(19.518 15.902)"/>
      <path id="Path_4599" data-name="Path 4599" d="M384.456,314.051a49.629,49.629,0,0,0,15.388,5.02q2.29.347,4.6.486c.729.043.726-1.092,0-1.134a48.685,48.685,0,0,1-15.348-3.47c-1.387-.561-2.744-1.193-4.071-1.881C384.381,312.735,383.806,313.714,384.456,314.051Z" transform="translate(19.518 15.902)" fill="none" stroke="#000" stroke-miterlimit="10" stroke-width="1"/>
      <path id="Path_4600" data-name="Path 4600" d="M386.509,306.406a58.474,58.474,0,0,0,13.777,3.785q2.018.3,4.052.457a.573.573,0,0,0,.567-.567.579.579,0,0,0-.567-.567,57.793,57.793,0,0,1-13.75-2.794q-1.912-.638-3.778-1.407a.571.571,0,0,0-.7.4.581.581,0,0,0,.4.7" transform="translate(19.616 15.51)"/>
      <path id="Path_4601" data-name="Path 4601" d="M386.509,306.406a58.474,58.474,0,0,0,13.777,3.785q2.018.3,4.052.457a.573.573,0,0,0,.567-.567.579.579,0,0,0-.567-.567,57.793,57.793,0,0,1-13.75-2.794q-1.912-.638-3.778-1.407a.571.571,0,0,0-.7.4A.581.581,0,0,0,386.509,306.406Z" transform="translate(19.616 15.51)" fill="none" stroke="#000" stroke-miterlimit="10" stroke-width="1"/>
      <path id="Path_4602" data-name="Path 4602" d="M388.315,299.285a54.821,54.821,0,0,0,15.625,3.847c1.514.189,3.031.355,4.547.521a.571.571,0,0,0,.567-.567.581.581,0,0,0-.567-.567,83.658,83.658,0,0,1-15.476-2.685,35.936,35.936,0,0,1-4.123-1.528.585.585,0,0,0-.777.2.571.571,0,0,0,.2.776" transform="translate(19.715 15.152)"/>
      <path id="Path_4603" data-name="Path 4603" d="M388.315,299.285a54.821,54.821,0,0,0,15.625,3.847c1.514.189,3.031.355,4.547.521a.571.571,0,0,0,.567-.567.581.581,0,0,0-.567-.567,83.658,83.658,0,0,1-15.476-2.685,35.936,35.936,0,0,1-4.123-1.528.585.585,0,0,0-.777.2A.571.571,0,0,0,388.315,299.285Z" transform="translate(19.715 15.152)" fill="none" stroke="#000" stroke-miterlimit="10" stroke-width="1"/>
    </g>
  </g>
</svg>
