<?xml version="1.0" encoding="UTF-8"?>
<svg id="Layer_2" data-name="Layer 2" xmlns="http://www.w3.org/2000/svg" xmlns:xlink="http://www.w3.org/1999/xlink" viewBox="0 0 120 120">
  <defs>
    <style>
      .cls-1 {
        fill: url(#linear-gradient);
      }

      .cls-1, .cls-2, .cls-3, .cls-4, .cls-5 {
        stroke-width: 0px;
      }

      .cls-6 {
        clip-path: url(#clippath-2);
      }

      .cls-2 {
        fill: none;
      }

      .cls-7 {
        clip-path: url(#clippath-1);
      }

      .cls-3 {
        fill: url(#linear-gradient-2);
      }

      .cls-4 {
        fill: url(#linear-gradient-3);
      }

      .cls-8 {
        clip-path: url(#clippath);
      }

      .cls-9 {
        clip-path: url(#clippath-3);
      }

      .cls-5 {
        fill: url(#linear-gradient-4);
      }
    </style>
    <clipPath id="clippath">
      <path class="cls-2" d="m78.61,103.66v-4.06c0-.18-.03-.36-.08-.53l-3.51-12.17c-.63-2.33.07-2.72.59-3.01l.82-.47c.6-.34.97-.98.97-1.67v-21.66c.02-1.11.94-1.98,2.04-1.96,1.07.02,1.93.89,1.96,1.96v17.1c.02,1.06.9,1.91,1.97,1.88,1.03-.02,1.86-.85,1.88-1.88v-4.01c.02-.98.84-1.76,1.82-1.74.95.02,1.72.79,1.74,1.74v2.49c.02,1.06.9,1.91,1.97,1.88,1.03-.02,1.86-.85,1.88-1.88.03-.98.86-1.76,1.84-1.73.94.03,1.69.79,1.73,1.73v2.39c0,1.06.86,1.92,1.93,1.92,1.06,0,1.92-.86,1.92-1.92.03-.98.86-1.76,1.84-1.73.94.03,1.69.79,1.73,1.73v12.8c0,2.48-.27,3.18-1.25,4.47l-2.38,3.11c-.26.34-.4.75-.4,1.17v4.06c-.01.37-.32.66-.69.66h-19.63c-.37,0-.68-.29-.69-.66M57.07,9.62c-24.45,0-44.27,19.82-44.27,44.27,0,11.74,4.66,23,12.97,31.3,12.48,12.48,31.19,16.36,47.6,9.85l1.39,4.82v3.79c.01,2.5,2.04,4.51,4.54,4.51h19.63c2.5,0,4.53-2.01,4.54-4.51v-3.41l1.98-2.59c1.74-2.28,2.04-3.94,2.04-6.8v-12.8c-.03-3.11-2.58-5.61-5.69-5.58-.83,0-1.64.2-2.38.55-.39-.72-.94-1.35-1.6-1.84,2.32-5.47,3.51-11.35,3.52-17.3.01-8.63-2.51-17.07-7.25-24.28-.6-.88-1.79-1.11-2.67-.51-.86.58-1.1,1.75-.54,2.63,4.33,6.58,6.63,14.29,6.62,22.16,0,5.57-1.16,11.08-3.39,16.19-.71.04-1.41.22-2.06.53-.38-.72-.92-1.36-1.57-1.85,8.21-18.45-.09-40.06-18.54-48.27-18.45-8.21-40.06.09-48.27,18.54-4.82,10.82-4.09,23.31,1.95,33.5.56.9,1.75,1.18,2.65.62.88-.55,1.17-1.69.66-2.59-9.22-15.55-4.08-35.62,11.46-44.84,15.55-9.22,35.62-4.08,44.84,11.46,5.49,9.26,6.07,20.63,1.56,30.4-.52.02-1.03.11-1.52.28v-7.8c0-3.23-2.62-5.85-5.85-5.85s-5.85,2.62-5.85,5.85v20.54c-1.08.61-1.9,1.59-2.31,2.76-9.86,4.74-21.43,4.24-30.85-1.33-.91-.54-2.09-.24-2.64.67-.54.91-.24,2.09.67,2.64,9.96,5.9,22.13,6.73,32.8,2.24.03.11.05.21.08.32v.03s.99,3.38.99,3.38c-20.68,8.41-44.26-1.53-52.67-22.21-8.41-20.68,1.53-44.26,22.21-52.67,4.84-1.97,10.01-2.98,15.23-2.98,7.88-.01,15.58,2.29,22.17,6.62.89.58,2.08.34,2.67-.55.58-.89.34-2.08-.55-2.67h0c-7.21-4.74-15.65-7.26-24.28-7.25Z"/>
    </clipPath>
    <linearGradient id="linear-gradient" x1="-563.76" y1="2489.8" x2="-564.33" y2="2489.02" gradientTransform="translate(56800.3 260616.66) scale(100.58 -104.67)" gradientUnits="userSpaceOnUse">
      <stop offset="0" stop-color="#682376"/>
      <stop offset="1" stop-color="#a52973"/>
    </linearGradient>
    <clipPath id="clippath-1">
      <path class="cls-2" d="m85.65,22.59c-.75.75-.75,1.97,0,2.72.75.75,1.97.75,2.72,0,.75-.75.75-1.97,0-2.72h0c-.75-.75-1.97-.75-2.72,0"/>
    </clipPath>
    <linearGradient id="linear-gradient-2" x1="-440.64" y1="2871.33" x2="-441.22" y2="2870.55" gradientTransform="translate(2066.71 11762.79) scale(4.49 -4.09)" xlink:href="#linear-gradient"/>
    <clipPath id="clippath-2">
      <path class="cls-2" d="m31.34,76.91c-.82.68-.93,1.89-.25,2.71.68.82,1.89.93,2.71.25.82-.68.93-1.89.25-2.71h0c-.68-.82-1.89-.93-2.71-.25,0,0,0,0,0,0"/>
    </clipPath>
    <linearGradient id="linear-gradient-3" x1="-442.66" y1="2872.16" x2="-443.23" y2="2871.38" gradientTransform="translate(2064.73 11820.61) scale(4.59 -4.09)" xlink:href="#linear-gradient"/>
    <clipPath id="clippath-3">
      <path class="cls-2" d="m54.99,56.36l12.43-12.43c1.13-1.13,2.95-1.13,4.08,0s1.13,2.95,0,4.08l-15.83,15.83c-1.13,1.13-2.95,1.13-4.08,0l-8.95-8.95c-1.13-1.13-1.13-2.95,0-4.08,1.13-1.13,2.95-1.13,4.08,0l5.55,5.55c.75.75,1.97.75,2.72,0m9.7-15.15l-11.06,11.06-4.19-4.19c-2.63-2.63-6.89-2.63-9.53,0s-2.63,6.89,0,9.53l8.95,8.95c2.63,2.63,6.9,2.63,9.53,0l15.83-15.83c2.59-2.67,2.52-6.94-.15-9.53-2.61-2.53-6.77-2.53-9.38,0"/>
    </clipPath>
    <linearGradient id="linear-gradient-4" x1="-555.24" y1="2526.51" x2="-555.81" y2="2525.73" gradientTransform="translate(22630.82 78653.18) scale(40.63 -31.12)" xlink:href="#linear-gradient"/>
  </defs>
  <g id="Layer_2-2" data-name="Layer 2">
    <g>
      <rect class="cls-2" width="120" height="120"/>
      <rect class="cls-2" x="10.14" y="8.9" width="100" height="100"/>
      <g>
        <g id="Group_881" data-name="Group 881">
          <g class="cls-8">
            <g id="Group_880" data-name="Group 880">
              <rect id="Rectangle_833" data-name="Rectangle 833" class="cls-1" x="12.8" y="9.62" width="94.69" height="98.54"/>
            </g>
          </g>
        </g>
        <g id="Group_883" data-name="Group 883">
          <g class="cls-7">
            <g id="Group_882" data-name="Group 882">
              <rect id="Rectangle_834" data-name="Rectangle 834" class="cls-3" x="84.89" y="22.03" width="4.23" height="3.85"/>
            </g>
          </g>
        </g>
        <g id="Group_885" data-name="Group 885">
          <g class="cls-6">
            <g id="Group_884" data-name="Group 884">
              <rect id="Rectangle_835" data-name="Rectangle 835" class="cls-4" x="30.41" y="76.46" width="4.32" height="3.85"/>
            </g>
          </g>
        </g>
        <g id="Group_887" data-name="Group 887">
          <g class="cls-9">
            <g id="Group_886" data-name="Group 886">
              <rect id="Rectangle_836" data-name="Rectangle 836" class="cls-5" x="37.94" y="39.25" width="38.25" height="29.29"/>
            </g>
          </g>
        </g>
      </g>
    </g>
  </g>
</svg>