<svg xmlns="http://www.w3.org/2000/svg" width="36" height="36" viewBox="0 0 36 36">
  <g id="insta-logo" transform="translate(-15579 -3191)">
    <rect id="Rectangle_695" data-name="Rectangle 695" width="36" height="36" transform="translate(15579 3191)" fill="#898989" opacity="0"/>
    <rect id="Rectangle_696" data-name="Rectangle 696" width="32" height="32" transform="translate(15581 3193)" fill="#898989" opacity="0"/>
    <path id="Path_2370" data-name="Path 2370" d="M109.035,91H93.848A2.851,2.851,0,0,0,91,93.848v15.188a2.851,2.851,0,0,0,2.848,2.848h15.188a2.851,2.851,0,0,0,2.848-2.848V93.848A2.851,2.851,0,0,0,109.035,91Zm-7.594,17.086a6.645,6.645,0,1,1,6.645-6.645A6.653,6.653,0,0,1,101.441,108.086ZM108.086,96.7a1.9,1.9,0,1,1,1.9-1.9A1.9,1.9,0,0,1,108.086,96.7Zm0,0" transform="translate(15495.559 3107.559)" fill="#fff"/>
    <path id="Path_2371" data-name="Path 2371" d="M185.746,181a4.746,4.746,0,1,0,4.746,4.746A4.752,4.752,0,0,0,185.746,181Zm0,0" transform="translate(15411.254 3023.254)" fill="#fff"/>
    <path id="Path_2372" data-name="Path 2372" d="M27.591,0H4.809A4.861,4.861,0,0,0,0,4.809V27.591A4.861,4.861,0,0,0,4.809,32.4H27.591A4.861,4.861,0,0,0,32.4,27.591V4.809A4.861,4.861,0,0,0,27.591,0Zm.949,23.794a4.752,4.752,0,0,1-4.746,4.746H8.606A4.752,4.752,0,0,1,3.86,23.794V8.606A4.752,4.752,0,0,1,8.606,3.86H23.794A4.752,4.752,0,0,1,28.54,8.606Zm0,0" transform="translate(15580.8 3192.8)" fill="#fff"/>
  </g>
</svg>
