<svg xmlns="http://www.w3.org/2000/svg" width="36" height="36" viewBox="0 0 36 36">
  <g id="linkedin-logo" transform="translate(-15578.75 -3190.75)">
    <rect id="Rectangle_695" data-name="Rectangle 695" width="36" height="36" transform="translate(15578.75 3190.75)" fill="#898989" opacity="0.005"/>
    <rect id="Rectangle_696" data-name="Rectangle 696" width="32" height="32" transform="translate(15580.75 3192.75)" fill="#898989" opacity="0.005"/>
    <path id="icon" d="M27.593,0H4.357A4.357,4.357,0,0,0,0,4.357V27.593A4.357,4.357,0,0,0,4.357,31.95H27.593a4.357,4.357,0,0,0,4.357-4.357V4.357A4.357,4.357,0,0,0,27.593,0Zm-16.7,25.284a.673.673,0,0,1-.673.675H7.348a.673.673,0,0,1-.675-.675V13.252a.675.675,0,0,1,.675-.675h2.87a.675.675,0,0,1,.673.675ZM8.783,11.437a2.723,2.723,0,1,1,2.723-2.723,2.723,2.723,0,0,1-2.723,2.723ZM25.894,25.331a.619.619,0,0,1-.621.621H22.187a.619.619,0,0,1-.621-.621V19.695c0-.842.247-3.689-2.2-3.689-1.9,0-2.284,1.948-2.36,2.823v6.51a.621.621,0,0,1-.612.621H13.412a.619.619,0,0,1-.619-.621V13.2a.619.619,0,0,1,.619-.621h2.981a.621.621,0,0,1,.621.621v1.049a4.222,4.222,0,0,1,3.976-1.872c4.934,0,4.9,4.607,4.9,7.138Z" transform="translate(15580.775 3192.775)" fill="#fff"/>
  </g>
</svg>
