<svg id="Group_346" data-name="Group 346" xmlns="http://www.w3.org/2000/svg" xmlns:xlink="http://www.w3.org/1999/xlink" width="446.289" height="278.238" viewBox="0 0 446.289 278.238">
  <defs>
    <clipPath id="clip-path">
      <rect id="Rectangle_180" data-name="Rectangle 180" width="446.289" height="278.238" fill="none"/>
    </clipPath>
    <clipPath id="clip-path-2">
      <rect id="Rectangle_179" data-name="Rectangle 179" width="446.288" height="278.239" fill="none"/>
    </clipPath>
    <clipPath id="clip-path-3">
      <rect id="Rectangle_174" data-name="Rectangle 174" width="446.289" height="10.844" fill="#ebc8dd"/>
    </clipPath>
    <clipPath id="clip-path-4">
      <rect id="Rectangle_175" data-name="Rectangle 175" width="7.124" height="6.902" fill="none"/>
    </clipPath>
    <clipPath id="clip-path-5">
      <rect id="Rectangle_176" data-name="Rectangle 176" width="29.35" height="15.382" fill="none"/>
    </clipPath>
    <clipPath id="clip-path-6">
      <rect id="Rectangle_177" data-name="Rectangle 177" width="61.311" height="26.092" fill="none"/>
    </clipPath>
    <clipPath id="clip-path-7">
      <rect id="Rectangle_178" data-name="Rectangle 178" width="27.996" height="11.941" fill="none"/>
    </clipPath>
  </defs>
  <g id="Group_345" data-name="Group 345" clip-path="url(#clip-path)">
    <g id="Group_344" data-name="Group 344" transform="translate(0 -0.001)">
      <g id="Group_343" data-name="Group 343" clip-path="url(#clip-path-2)">
        <path id="Path_1447" data-name="Path 1447" d="M762.314,339.973c.706,6.4,1.28,10.493-1.191,7.567-2.691-3.186-1.275,4.989-6.115,1.886-2.472-1.585-3.374-1.639-2.726-3.347,1.082-2.848,3.372-5.773,4.411-7.571s5.621,1.465,5.621,1.465" transform="translate(-605.65 -272.164)" fill="#efaea6"/>
        <path id="Path_1448" data-name="Path 1448" d="M762.314,339.973c.706,6.4,1.28,10.493-1.191,7.567-2.691-3.186-1.275,4.989-6.115,1.886-2.472-1.585-3.374-1.639-2.726-3.347,1.082-2.848,3.372-5.773,4.411-7.571S762.314,339.973,762.314,339.973Z" transform="translate(-605.65 -272.164)" fill="none" stroke="#000" stroke-width="1.5"/>
        <path id="Path_1449" data-name="Path 1449" d="M741.793,374.068l-6.442-2.77c-.994-.427-2.312.34-2.946,1.711l-1.772,3.839,1.267.545,1.253-2.715c.474-1.026,1.46-1.6,2.2-1.28l4.816,2.07c.743.319.961,1.41.487,2.436l-1.254,2.715,1.267.545,1.773-3.839c.633-1.371.342-2.83-.652-3.258" transform="translate(-588.38 -298.911)" fill="#211b2d"/>
        <path id="Path_1450" data-name="Path 1450" d="M741.793,374.068l-6.442-2.77c-.994-.427-2.312.34-2.946,1.711l-1.772,3.839,1.267.545,1.253-2.715c.474-1.026,1.46-1.6,2.2-1.28l4.816,2.07c.743.319.961,1.41.487,2.436l-1.254,2.715,1.267.545,1.773-3.839C743.078,375.954,742.787,374.495,741.793,374.068Z" transform="translate(-588.38 -298.911)" fill="none" stroke="#000" stroke-width="1.5"/>
        <path id="Path_1451" data-name="Path 1451" d="M735.39,371.224c-.995-.427-2.313.34-2.946,1.711l-1.772,3.839,1.266.545,1.253-2.715c.474-1.026,1.46-1.6,2.2-1.28l1.333-1.507Z" transform="translate(-588.411 -298.851)" fill="#211b2d"/>
        <path id="Path_1452" data-name="Path 1452" d="M735.39,371.224c-.995-.427-2.313.34-2.946,1.711l-1.772,3.839,1.266.545,1.253-2.715c.474-1.026,1.46-1.6,2.2-1.28l1.333-1.507Z" transform="translate(-588.411 -298.851)" fill="none" stroke="#000" stroke-width="1.5"/>
        <path id="Path_1453" data-name="Path 1453" d="M631.076,371.483l-8.27,17.65a2.041,2.041,0,0,0,1.058,2.743l.059.025,32.116,14.5c3.645,1.591,4.8-.926,5.285-1.971L669.636,388a4.531,4.531,0,0,0-2.451-5.6l-28.737-12.562-1.078-.473a4.728,4.728,0,0,0-6.293,2.111" transform="translate(-501.391 -297.093)" fill="#66383d"/>
        <path id="Path_1454" data-name="Path 1454" d="M631.076,371.483l-8.27,17.65a2.041,2.041,0,0,0,1.058,2.743l.059.025,32.116,14.5c3.645,1.591,4.8-.926,5.285-1.971L669.636,388a4.531,4.531,0,0,0-2.451-5.6l-28.737-12.562-1.078-.473A4.728,4.728,0,0,0,631.076,371.483Z" transform="translate(-501.391 -297.093)" fill="none" stroke="#000" stroke-width="1.5"/>
        <path id="Path_1455" data-name="Path 1455" d="M631.076,371.483l-8.27,17.65a2.041,2.041,0,0,0,1.058,2.743l.059.025a15.111,15.111,0,0,0,2.917-5.11c2.523-6.487,7.728-12.816,11.607-16.948l-1.078-.473a4.728,4.728,0,0,0-6.293,2.111" transform="translate(-501.391 -297.093)" fill="#7e4f54"/>
        <path id="Path_1456" data-name="Path 1456" d="M631.076,371.483l-8.27,17.65a2.041,2.041,0,0,0,1.058,2.743l.059.025a15.111,15.111,0,0,0,2.917-5.11c2.523-6.487,7.728-12.816,11.607-16.948l-1.078-.473A4.728,4.728,0,0,0,631.076,371.483Z" transform="translate(-501.391 -297.093)" fill="none" stroke="#000" stroke-width="1.5"/>
        <path id="Path_1457" data-name="Path 1457" d="M750.942,374.806c-.274.643,4.074,3.713,5.378,3.346.742-.209,1.436-1.318,1.8-2.027s-.683-2.106-3.048-3.149c-1.161-.512-1.555-.623-2.256-.178a7.443,7.443,0,0,0-1.876,2.009" transform="translate(-604.724 -299.989)" fill="#efaea6"/>
        <path id="Path_1458" data-name="Path 1458" d="M750.942,374.806c-.274.643,4.074,3.713,5.378,3.346.742-.209,1.436-1.318,1.8-2.027s-.683-2.106-3.048-3.149c-1.161-.512-1.555-.623-2.256-.178A7.443,7.443,0,0,0,750.942,374.806Z" transform="translate(-604.724 -299.989)" fill="none" stroke="#000" stroke-width="1.5"/>
        <path id="Path_1459" data-name="Path 1459" d="M1369.708,140.448c3.352-2.888,4.987-10,6.19-8.742s-.549,3.465,1.85,2.445,5.593-7.6,7.456-5,2.669,5.777.526,8.28c-1.107,1.294-8.866,4.606-10.79,8.11s-5.233-5.094-5.233-5.094" transform="translate(-1103.028 -103.52)" fill="#efaea6"/>
        <path id="Path_1460" data-name="Path 1460" d="M830.628,127.367c-12.575,2.178-33.688,6.625-40.065,9.647-9.429,4.467-16.024,25.364-17.943,30.5,0,0,6.885,7.666,8.828,4.247,3.905-6.873,10.729-22.3,14.446-23.529,5.192-1.715,36.906-8.718,41.325-10.8,2.324-1.1,3.625-11.835-6.591-10.066" transform="translate(-622.192 -102.41)" fill="#0267a4"/>
        <path id="Path_1461" data-name="Path 1461" d="M830.628,127.367c-12.575,2.178-33.688,6.625-40.065,9.647-9.429,4.467-16.024,25.364-17.943,30.5,0,0,6.885,7.666,8.828,4.247,3.905-6.873,10.729-22.3,14.446-23.529,5.192-1.715,36.906-8.718,41.325-10.8,2.324-1.1,3.625-11.835-6.591-10.066" transform="translate(-622.192 -102.41)" fill="#561766"/>
        <path id="Path_1462" data-name="Path 1462" d="M830.628,127.367c-12.575,2.178-33.688,6.625-40.065,9.647-9.429,4.467-16.024,25.364-17.943,30.5,0,0,6.885,7.666,8.828,4.247,3.905-6.873,10.729-22.3,14.446-23.529,5.192-1.715,36.906-8.718,41.325-10.8C839.543,136.337,840.844,125.6,830.628,127.367Z" transform="translate(-622.192 -102.41)" fill="none" stroke="#000" stroke-width="1.5"/>
        <g id="Group_330" data-name="Group 330" transform="translate(0 267.396)" opacity="0.76">
          <g id="Group_329" data-name="Group 329">
            <g id="Group_328" data-name="Group 328" clip-path="url(#clip-path-3)">
              <path id="Path_1463" data-name="Path 1463" d="M0,1377.749c0,2.995,105.294,6.471,226.616,6.471s219.672-2.427,219.672-5.422-98.351-5.422-219.672-5.422S0,1374.754,0,1377.749" transform="translate(0 -1373.376)" fill="#ebc8dd"/>
            </g>
          </g>
        </g>
        <path id="Path_1464" data-name="Path 1464" d="M263.341,579.2c3.378,2.086,12.49,6.245,12.49,6.245L280.8,576.2l-13.742-6.122-7.347,4.113Z" transform="translate(-209.142 -459.084)" fill="#efaea6"/>
        <path id="Path_1465" data-name="Path 1465" d="M263.341,579.2c3.378,2.086,12.49,6.245,12.49,6.245L280.8,576.2l-13.742-6.122-7.347,4.113Z" transform="translate(-209.142 -459.084)" fill="none" stroke="#000" stroke-width="1.5"/>
        <path id="Path_1466" data-name="Path 1466" d="M205.959,561.734c-.295,1.091-1,.187-2.648-.248-3.781-1-10.477,11.092-11.774,12.759-.669.86-6.4-.284-3.825-4.976,2.229-4.057,9.321-17.078,11.789-21.5a2.329,2.329,0,0,1,2.615-1.128c3.659.952,8.54,3.893,7.971,5.192-.421,2.2-2.9,5.356-4.128,9.9" transform="translate(-150.631 -440.148)" fill="#1f1f39"/>
        <path id="Path_1467" data-name="Path 1467" d="M205.959,561.734c-.295,1.091-1,.187-2.648-.248-3.781-1-10.477,11.092-11.774,12.759-.669.86-6.4-.284-3.825-4.976,2.229-4.057,9.321-17.078,11.789-21.5a2.329,2.329,0,0,1,2.615-1.128c3.659.952,8.54,3.893,7.971,5.192C209.666,554.035,207.186,557.187,205.959,561.734Z" transform="translate(-150.631 -440.148)" fill="none" stroke="#000" stroke-width="1.5"/>
        <path id="Path_1468" data-name="Path 1468" d="M1578.521,535.2c-3.828-1.049-13.744-2.471-13.744-2.471L1562.62,543l14.911,2,5.889-6.017Z" transform="translate(-1258.38 -429.007)" fill="#efaea6"/>
        <path id="Path_1469" data-name="Path 1469" d="M1578.521,535.2c-3.828-1.049-13.744-2.471-13.744-2.471L1562.62,543l14.911,2,5.889-6.017Z" transform="translate(-1258.38 -429.007)" fill="none" stroke="#000" stroke-width="1.5"/>
        <path id="Path_1470" data-name="Path 1470" d="M1631.675,470.628c-.025-1.13.9-.461,2.611-.508,3.909-.109,6.926-13.6,7.7-15.56.4-1.014,6.224-1.532,5.073,3.7-1,4.521-4.129,19.013-5.25,23.953a2.329,2.329,0,0,1-2.191,1.819c-3.779.118-9.292-1.327-9.112-2.734-.218-2.233,1.273-5.957,1.169-10.665" transform="translate(-1313.031 -365.527)" fill="#1f1f39"/>
        <path id="Path_1471" data-name="Path 1471" d="M1631.675,470.628c-.025-1.13.9-.461,2.611-.508,3.909-.109,6.926-13.6,7.7-15.56.4-1.014,6.224-1.532,5.073,3.7-1,4.521-4.129,19.013-5.25,23.953a2.329,2.329,0,0,1-2.191,1.819c-3.779.118-9.292-1.327-9.112-2.734C1630.288,479.06,1631.779,475.336,1631.675,470.628Z" transform="translate(-1313.031 -365.527)" fill="none" stroke="#000" stroke-width="1.5"/>
        <path id="Path_1472" data-name="Path 1472" d="M1067.032,96.154l-8.006-3.489c.437-3.842-.624-13.1.439-16.453,1.166-3.673,1.474-3.426,1.474-3.426l5.306,4.246,2.5,2a10.11,10.11,0,0,0-.236,4.127,20.977,20.977,0,0,0,2.272,7.158c1.1,2.16-3.745,5.838-3.745,5.838" transform="translate(-852.793 -58.611)" fill="#efaea6"/>
        <path id="Path_1473" data-name="Path 1473" d="M1067.032,96.154l-8.006-3.489c.437-3.842-.624-13.1.439-16.453,1.166-3.673,1.474-3.426,1.474-3.426l5.306,4.246,2.5,2a10.11,10.11,0,0,0-.236,4.127,20.977,20.977,0,0,0,2.272,7.158C1071.874,92.476,1067.032,96.154,1067.032,96.154Z" transform="translate(-852.793 -58.611)" fill="none" stroke="#000" stroke-width="1.5"/>
        <g id="Group_333" data-name="Group 333" transform="translate(208.824 18.421)" opacity="0.14">
          <g id="Group_332" data-name="Group 332">
            <g id="Group_331" data-name="Group 331" clip-path="url(#clip-path-4)">
              <path id="Path_1474" data-name="Path 1474" d="M1079.673,96.61a14.008,14.008,0,0,0-.186,4.528c-5.488,1.67-8.013-2.691-6.511-3.982a38.077,38.077,0,0,1,4.2-2.545Z" transform="translate(-1072.548 -94.611)" fill="#1f1f39"/>
            </g>
          </g>
        </g>
        <path id="Path_1475" data-name="Path 1475" d="M552.394,504.259c-4.044,2.4-51.853-3.589-59.241-3.7-2.145-.033-12.976.888-25.919,1.905-4.084.32-9.633.726-15.272,1.129-11.8.843-24,1.671-24,1.671-12.408,5.1-46.384,26.268-59.522,29.125-9.117,1.984-67.862-22.99-67.862-22.99a17,17,0,0,1,4.135-11.818c4.814-5.791,57.934,16.325,62.031,14.893,8.862-3.1,44.119-28.045,46.2-31.2,0,0-1.1-1.328,3.819-1.132,11.26.45,31.437-1.538,33.933-1.141,3.586.571,36.82.9,43.392,1.323s56.572,6.228,62.683,7.523c2.941.623-2.257,13.159-4.375,14.417" transform="translate(-242.026 -387.304)" fill="#ee5064"/>
        <path id="Path_1476" data-name="Path 1476" d="M552.394,504.259c-4.044,2.4-51.853-3.589-59.241-3.7-2.145-.033-12.976.888-25.919,1.905-4.084.32-9.633.726-15.272,1.129-11.8.843-24,1.671-24,1.671-12.408,5.1-46.384,26.268-59.522,29.125-9.117,1.984-67.862-22.99-67.862-22.99a17,17,0,0,1,4.135-11.818c4.814-5.791,57.934,16.325,62.031,14.893,8.862-3.1,44.119-28.045,46.2-31.2,0,0-1.1-1.328,3.819-1.132,11.26.45,31.437-1.538,33.933-1.141,3.586.571,36.82.9,43.392,1.323s56.572,6.228,62.683,7.523C559.71,490.465,554.512,503,552.394,504.259Z" transform="translate(-242.026 -387.304)" fill="none" stroke="#000" stroke-width="1.5"/>
        <path id="Path_1477" data-name="Path 1477" d="M1050.668,29.7c1.265,2.688,6.246,6.878,4.369,7.57s2.679,5.676.709,6.484c-4.774,1.958-11.473.971-12.969-1.129s-3.588-8.739-3.588-8.739Z" transform="translate(-836.86 -23.915)" fill="#efaea6"/>
        <path id="Path_1478" data-name="Path 1478" d="M1050.668,29.7c1.265,2.688,6.246,6.878,4.369,7.57s2.679,5.676.709,6.484c-4.774,1.958-11.473.971-12.969-1.129s-3.588-8.739-3.588-8.739Z" transform="translate(-836.86 -23.915)" fill="none" stroke="#000" stroke-width="1.5"/>
        <path id="Path_1479" data-name="Path 1479" d="M1030.091,10.9c1.59-.388,1.772-.046,2.647-.96s-1.52-1.7.349-2.769,4.01-2.006,3.368-4.361c-.929-3.408-3.659-1.807-5.323-.753-1.071.678-2.3-1.739-4.582-.766-1.79.763-1.18,1.747-2.747,2.5-.946.454-3.463-.447-4.552,1.3-2.02,3.243,1.349,5.05-.139,8.263-1.736,3.747,6.807,7.185,7.284,6.208.557-1.14-1.768-3.49-1.142-4.476.943-1.487,1.526-.428,3.016.2,1.592.671,3.792-.072,1.6-1.694s-1.216-2.339.224-2.69" transform="translate(-820.269 -0.599)" fill="#1f1f39"/>
        <path id="Path_1480" data-name="Path 1480" d="M1030.091,10.9c1.59-.388,1.772-.046,2.647-.96s-1.52-1.7.349-2.769,4.01-2.006,3.368-4.361c-.929-3.408-3.659-1.807-5.323-.753-1.071.678-2.3-1.739-4.582-.766-1.79.763-1.18,1.747-2.747,2.5-.946.454-3.463-.447-4.552,1.3-2.02,3.243,1.349,5.05-.139,8.263-1.736,3.747,6.807,7.185,7.284,6.208.557-1.14-1.768-3.49-1.142-4.476.943-1.487,1.526-.428,3.016.2,1.592.671,3.792-.072,1.6-1.694S1028.651,11.251,1030.091,10.9Z" transform="translate(-820.269 -0.599)" fill="none" stroke="#000" stroke-width="1.5"/>
        <path id="Path_1481" data-name="Path 1481" d="M909.648,129.528c3.827-.89,5.67,2.76,8.8,2.8,1.9.025,1.771-1.3,2.605-2.052,0,0,.575,8.947.722,10.454.844,8.665-10.375,58.7-10.375,58.7s-8.843,3.531-16.849,3.644-19.357-3.212-19.164-5.392,26.958-64.771,26.958-64.771a23.586,23.586,0,0,1,7.3-3.388" transform="translate(-704.952 -104.195)" fill="#fff"/>
        <path id="Path_1482" data-name="Path 1482" d="M909.648,129.528c3.827-.89,5.67,2.76,8.8,2.8,1.9.025,1.771-1.3,2.605-2.052,0,0,.575,8.947.722,10.454.844,8.665-10.375,58.7-10.375,58.7s-8.843,3.531-16.849,3.644-19.357-3.212-19.164-5.392,26.958-64.771,26.958-64.771A23.586,23.586,0,0,1,909.648,129.528Z" transform="translate(-704.952 -104.195)" fill="none" stroke="#000" stroke-width="1.5"/>
        <path id="Path_1483" data-name="Path 1483" d="M832.561,127.361a96.962,96.962,0,0,1-2.744,19.31,183.182,183.182,0,0,1-9.549,29.462c-1.06,2.5-2.16,4.91-3.291,7.2-3.476,7.04-7.237,12.889-10.949,16.38-2.111,1.991-4.21,3.217-6.228,3.46-31.028,3.736-22.838-7.881-6.936-17.139,10.356-6.027,8.155-19.382,12.349-28.814s7.44-20.545,15.253-25.486c2.8-1.773,12.126-6.428,12.1-4.369" transform="translate(-627.112 -102.148)" fill="#561766"/>
        <path id="Path_1484" data-name="Path 1484" d="M832.561,127.361a96.962,96.962,0,0,1-2.744,19.31,183.182,183.182,0,0,1-9.549,29.462c-1.06,2.5-2.16,4.91-3.291,7.2-3.476,7.04-7.237,12.889-10.949,16.38-2.111,1.991-4.21,3.217-6.228,3.46-31.028,3.736-22.838-7.881-6.936-17.139,10.356-6.027,8.155-19.382,12.349-28.814s7.44-20.545,15.253-25.486C823.267,129.957,832.592,125.3,832.561,127.361Z" transform="translate(-627.112 -102.148)" fill="none" stroke="#000" stroke-width="1.5"/>
        <path id="Path_1485" data-name="Path 1485" d="M998.63,205.957a183.186,183.186,0,0,1-9.549,29.462c-2.084-2.875,2.7-24.169,1.422-34.982Z" transform="translate(-796.079 -161.411)" fill="#672376"/>
        <path id="Path_1486" data-name="Path 1486" d="M1038.088,167.74a68.676,68.676,0,0,1-1.509,7.051c-1.206,4.742-2.918,10.594-4.52,15.825-1.765,5.758-3.4,10.765-4.088,12.722-1.7,4.822-14.489,6.686-12.015,3.665s16.122-54.94,18.045-73.051c12.723,12.867,5.516,23.011,4.087,33.787" transform="translate(-817.896 -107.872)" fill="#0267a4"/>
        <path id="Path_1487" data-name="Path 1487" d="M1038.088,167.74a68.676,68.676,0,0,1-1.509,7.051c-1.206,4.742-2.918,10.594-4.52,15.825-1.765,5.758-3.4,10.765-4.088,12.722-1.7,4.822-14.489,6.686-12.015,3.665s16.122-54.94,18.045-73.051c12.723,12.867,5.516,23.011,4.087,33.787" transform="translate(-817.896 -107.872)" fill="#672376"/>
        <path id="Path_1488" data-name="Path 1488" d="M1038.088,167.74a68.676,68.676,0,0,1-1.509,7.051c-1.206,4.742-2.918,10.594-4.52,15.825-1.765,5.758-3.4,10.765-4.088,12.722-1.7,4.822-14.489,6.686-12.015,3.665s16.122-54.94,18.045-73.051C1046.724,146.82,1039.517,156.964,1038.088,167.74Z" transform="translate(-817.896 -107.872)" fill="none" stroke="#000" stroke-width="1.5"/>
        <path id="Path_1489" data-name="Path 1489" d="M993.616,145.665c10.05,8.968,29.914,19.851,38.048,23.747s35.355-16.517,39.57-21.255c1.619-1.819-4.3-10.9-6.836-8.723-15.443,13.275-27.55,16.625-31.306,15.316-5.7-1.987-27.052-22.071-29.616-23.286s-18.4,6.581-9.86,14.2" transform="translate(-798.144 -105.766)" fill="#561766"/>
        <path id="Path_1490" data-name="Path 1490" d="M993.616,145.665c10.05,8.968,29.914,19.851,38.048,23.747s35.355-16.517,39.57-21.255c1.619-1.819-4.3-10.9-6.836-8.723-15.443,13.275-27.55,16.625-31.306,15.316-5.7-1.987-27.052-22.071-29.616-23.286S985.077,138.045,993.616,145.665Z" transform="translate(-798.144 -105.766)" fill="none" stroke="#000" stroke-width="1.5"/>
        <g id="Group_336" data-name="Group 336" transform="translate(42.303 131.811)" opacity="0.76">
          <g id="Group_335" data-name="Group 335">
            <g id="Group_334" data-name="Group 334" clip-path="url(#clip-path-5)">
              <path id="Path_1491" data-name="Path 1491" d="M280.892,692.147a.638.638,0,0,1-.513.311,25.718,25.718,0,0,0-19.312,9.625.638.638,0,1,1-.981-.816,26.934,26.934,0,0,1,20.223-10.084.638.638,0,0,1,.584.963" transform="translate(-251.631 -688.421)" fill="#603a3e"/>
              <path id="Path_1492" data-name="Path 1492" d="M235.46,677.961a.636.636,0,0,1-.342.277,29.5,29.5,0,0,0-9.726,5.264,31.3,31.3,0,0,0-6.927,8.558l0,.006a.638.638,0,0,1-1.1-.648c4.361-7.5,9.388-11.666,17.343-14.388a.638.638,0,0,1,.755.931" transform="translate(-217.275 -676.995)" fill="#603a3e"/>
            </g>
          </g>
        </g>
        <g id="Group_339" data-name="Group 339" transform="translate(85.961 53.348)" opacity="0.87">
          <g id="Group_338" data-name="Group 338">
            <g id="Group_337" data-name="Group 337" clip-path="url(#clip-path-6)">
              <line id="Line_54" data-name="Line 54" y1="19.695" x2="58.223" transform="translate(0.662 5.789)" fill="#603a3e"/>
              <line id="Line_55" data-name="Line 55" y1="19.695" x2="58.223" transform="translate(0.662 5.789)" fill="none" stroke="#6d4747" stroke-width="1"/>
              <path id="Path_1493" data-name="Path 1493" d="M501.3,301.305a.392.392,0,0,1,.048.122.624.624,0,0,1-.454.664l-58.223,19.695a.473.473,0,0,1-.658-.288.624.624,0,0,1,.454-.663l58.223-19.695a.506.506,0,0,1,.609.166" transform="translate(-441.91 -295.827)" fill="#603a3e"/>
              <path id="Path_1494" data-name="Path 1494" d="M501.3,301.305a.392.392,0,0,1,.048.122.624.624,0,0,1-.454.664l-58.223,19.695a.473.473,0,0,1-.658-.288.624.624,0,0,1,.454-.663l58.223-19.695A.506.506,0,0,1,501.3,301.305Z" transform="translate(-441.91 -295.827)" fill="none" stroke="#6d4747" stroke-width="1"/>
              <line id="Line_56" data-name="Line 56" y1="8.185" x2="23.125" transform="translate(24.811 13.009)" fill="#603a3e"/>
              <line id="Line_57" data-name="Line 57" y1="8.185" x2="23.125" transform="translate(24.811 13.009)" fill="none" stroke="#6d4747" stroke-width="1"/>
              <path id="Path_1495" data-name="Path 1495" d="M590.139,338.314a.37.37,0,0,1,.047.123.683.683,0,0,1-.5.69l-23.125,8.185c-.326.115-.631-.007-.682-.273a.683.683,0,0,1,.5-.69l23.125-8.184a.52.52,0,0,1,.635.15" transform="translate(-541.66 -325.637)" fill="#603a3e"/>
              <path id="Path_1496" data-name="Path 1496" d="M590.139,338.314a.37.37,0,0,1,.047.123.683.683,0,0,1-.5.69l-23.125,8.185c-.326.115-.631-.007-.682-.273a.683.683,0,0,1,.5-.69l23.125-8.184A.52.52,0,0,1,590.139,338.314Z" transform="translate(-541.66 -325.637)" fill="none" stroke="#6d4747" stroke-width="1"/>
              <line id="Line_58" data-name="Line 58" y1="8.185" x2="23.125" transform="translate(37.492 0.622)" fill="#603a3e"/>
              <line id="Line_59" data-name="Line 59" y1="8.185" x2="23.125" transform="translate(37.492 0.622)" fill="none" stroke="#6d4747" stroke-width="1"/>
              <path id="Path_1497" data-name="Path 1497" d="M655.27,274.694a.371.371,0,0,1,.047.123.683.683,0,0,1-.5.69l-23.125,8.185c-.326.115-.631-.007-.682-.273a.683.683,0,0,1,.5-.69l23.125-8.185a.521.521,0,0,1,.635.15" transform="translate(-594.11 -274.404)" fill="#603a3e"/>
              <path id="Path_1498" data-name="Path 1498" d="M655.27,274.694a.371.371,0,0,1,.047.123.683.683,0,0,1-.5.69l-23.125,8.185c-.326.115-.631-.007-.682-.273a.683.683,0,0,1,.5-.69l23.125-8.185A.521.521,0,0,1,655.27,274.694Z" transform="translate(-594.11 -274.404)" fill="none" stroke="#6d4747" stroke-width="1"/>
            </g>
          </g>
        </g>
        <g id="Group_342" data-name="Group 342" transform="translate(185.803 27.411)" opacity="0.26">
          <g id="Group_341" data-name="Group 341">
            <g id="Group_340" data-name="Group 340" clip-path="url(#clip-path-7)">
              <path id="Path_1499" data-name="Path 1499" d="M981.99,143.616c-.344-.263-4.409,6.616-9.447,8.653a11.532,11.532,0,0,1-4.391.912c-4.445-.028-7.1-.556-12.626-1.61,2.173-3.487,1.989-4.309,4.42-5.727,3.957,1.529,5.667,2.946,8,2.838a16.786,16.786,0,0,0,4.921-1.018,27.946,27.946,0,0,0,7.341-4.185c.978-.749,1.193-1.97,2.31-1.944,1.482.032-.082,2.419-.525,2.082" transform="translate(-955.289 -141.386)" fill="#fb847d"/>
              <path id="Path_1500" data-name="Path 1500" d="M981.99,143.616c-.344-.263-4.409,6.616-9.447,8.653a11.532,11.532,0,0,1-4.391.912c-4.445-.028-7.1-.556-12.626-1.61,2.173-3.487,1.989-4.309,4.42-5.727,3.957,1.529,5.667,2.946,8,2.838a16.786,16.786,0,0,0,4.921-1.018,27.946,27.946,0,0,0,7.341-4.185c.978-.749,1.193-1.97,2.31-1.944C984,141.566,982.433,143.952,981.99,143.616Z" transform="translate(-955.289 -141.386)" fill="none" stroke="#000" stroke-width="1.5"/>
            </g>
          </g>
        </g>
        <path id="Path_1501" data-name="Path 1501" d="M730.144,137.628a1.844,1.844,0,0,0-1.905-1.9c-1.116-.025-1.235.422-2.214,1.171-2.94,2.251-7.29,4.972-12.262,5.2s-15.839-6.951-23.245-5.816-10.035,7.55-20.687,8.578-21.72-4.131-24.865-3.789-5.072.907-5.07,2.144,1.425,3.372,3.558,4.382,21.31,3.509,26.437,3.14c8.37-.6,15.971-7.652,21.348-7.8s16.443,3.617,22.734,3.656c7.016.043,13.211-7.748,13.652-7.411a1.9,1.9,0,0,0,1.761.492c.626-.117.759-1.353.758-2.056" transform="translate(-515.308 -109.301)" fill="#fb847d"/>
        <path id="Path_1502" data-name="Path 1502" d="M730.144,137.628a1.844,1.844,0,0,0-1.905-1.9c-1.116-.025-1.235.422-2.214,1.171-2.94,2.251-7.29,4.972-12.262,5.2s-15.839-6.951-23.245-5.816-10.035,7.55-20.687,8.578-21.72-4.131-24.865-3.789-5.072.907-5.07,2.144,1.425,3.372,3.558,4.382,21.31,3.509,26.437,3.14c8.37-.6,15.971-7.652,21.348-7.8s16.443,3.617,22.734,3.656c7.016.043,13.211-7.748,13.652-7.411a1.9,1.9,0,0,0,1.761.492C730.012,139.567,730.145,138.331,730.144,137.628Z" transform="translate(-515.308 -109.301)" fill="none" stroke="#000" stroke-width="1.5"/>
        <path id="Path_1503" data-name="Path 1503" d="M978.979,587.2c-11.8.843-24,1.671-24,1.671l4.546-4.1s11.512.951,19.458,2.429" transform="translate(-769.042 -470.916)" fill="#b72e45"/>
        <path id="Path_1504" data-name="Path 1504" d="M966.18,1022.794a2.96,2.96,0,0,0,0-2.561V942.91h-4.534c-.629,36.752-1.259,65.267-1.5,75.756l-58.8-1.736V935.872h-4.916c-.677,39.663-1.354,70.507-1.619,82.136-3.006,1.87-3.532,3.138-9.3,3.606-6.94.562-5.141,4.812-5.141,4.812H897.3l66.764-2.177a2.429,2.429,0,0,0,1.987-1.219h.127Z" transform="translate(-708.793 -753.658)" fill="#3b3b4c"/>
        <path id="Path_1505" data-name="Path 1505" d="M966.18,1022.794a2.96,2.96,0,0,0,0-2.561V942.91h-4.534c-.629,36.752-1.259,65.267-1.5,75.756l-58.8-1.736V935.872h-4.916c-.677,39.663-1.354,70.507-1.619,82.136-3.006,1.87-3.532,3.138-9.3,3.606-6.94.562-5.141,4.812-5.141,4.812H897.3l66.764-2.177a2.429,2.429,0,0,0,1.987-1.219h.127Z" transform="translate(-708.793 -753.658)" fill="none" stroke="#000" stroke-width="1.5"/>
        <path id="Path_1506" data-name="Path 1506" d="M1016.27,882.4v10.664l-3.507-.345-4.634-.454-12.848-1.262-11.947-1.172-13.3-1.3L954.4,887h0l-6.47-.635-5.027-.493-4.9-.481v-19.62l25.714,5.465,13.524,2.876,13.67,2.9,10.276,2.185Z" transform="translate(-755.377 -697.204)" fill="#fb847d"/>
        <path id="Path_1507" data-name="Path 1507" d="M1016.27,882.4v10.664l-3.507-.345-4.634-.454-12.848-1.262-11.947-1.172-13.3-1.3L954.4,887h0l-6.47-.635-5.027-.493-4.9-.481v-19.62l25.714,5.465,13.524,2.876,13.67,2.9,10.276,2.185Z" transform="translate(-755.377 -697.204)" fill="none" stroke="#000" stroke-width="1.5"/>
        <path id="Path_1508" data-name="Path 1508" d="M1045.073,896.715l-7.212,14.421-15.627-1.534,9.314-15.763Z" transform="translate(-823.207 -719.809)" fill="#672376"/>
        <path id="Path_1509" data-name="Path 1509" d="M1045.073,896.715l-7.212,14.421-15.627-1.534,9.314-15.763Z" transform="translate(-823.207 -719.809)" fill="none" stroke="#000" stroke-width="1.5"/>
        <path id="Path_1510" data-name="Path 1510" d="M1188.679,925.714l-5.907,11.809-11.947-1.172,7.578-12.821Z" transform="translate(-942.867 -743.718)" fill="#672376"/>
        <path id="Path_1511" data-name="Path 1511" d="M1188.679,925.714l-5.907,11.809-11.947-1.172,7.578-12.821Z" transform="translate(-942.867 -743.718)" fill="none" stroke="#000" stroke-width="1.5"/>
        <path id="Path_1512" data-name="Path 1512" d="M1716.506,1029.683a2.962,2.962,0,0,0,0-2.561V949.8h-4.534c-.629,36.752-1.259,65.267-1.5,75.756l-58.8-1.736V942.761h-4.916c-.677,39.663-1.354,70.507-1.619,82.136-3.006,1.869-3.532,3.138-9.305,3.606-6.94.562-5.14,4.812-5.14,4.812h16.934l66.764-2.177a2.43,2.43,0,0,0,1.987-1.219h.127Z" transform="translate(-1313.031 -759.206)" fill="#3b3b4c"/>
        <path id="Path_1513" data-name="Path 1513" d="M1716.506,1029.683a2.962,2.962,0,0,0,0-2.561V949.8h-4.534c-.629,36.752-1.259,65.267-1.5,75.756l-58.8-1.736V942.761h-4.916c-.677,39.663-1.354,70.507-1.619,82.136-3.006,1.869-3.532,3.138-9.305,3.606-6.94.562-5.14,4.812-5.14,4.812h16.934l66.764-2.177a2.43,2.43,0,0,0,1.987-1.219h.127Z" transform="translate(-1313.031 -759.206)" fill="none" stroke="#000" stroke-width="1.5"/>
        <path id="Path_1514" data-name="Path 1514" d="M1766.6,889.293v10.664l-3.507-.345-4.634-.454-12.848-1.262-11.947-1.172-13.3-1.3-15.626-1.534h0l-6.47-.635-5.027-.493-4.9-.481v-19.62l25.714,5.465L1727.568,881l13.67,2.9,10.276,2.184Z" transform="translate(-1359.615 -702.752)" fill="#fb847d"/>
        <path id="Path_1515" data-name="Path 1515" d="M1766.6,889.293v10.664l-3.507-.345-4.634-.454-12.848-1.262-11.947-1.172-13.3-1.3-15.626-1.534h0l-6.47-.635-5.027-.493-4.9-.481v-19.62l25.714,5.465L1727.568,881l13.67,2.9,10.276,2.184Z" transform="translate(-1359.615 -702.752)" fill="none" stroke="#000" stroke-width="1.5"/>
        <path id="Path_1516" data-name="Path 1516" d="M1795.4,903.6l-7.212,14.421-15.627-1.534,9.314-15.763Z" transform="translate(-1427.445 -725.357)" fill="#672376"/>
        <path id="Path_1517" data-name="Path 1517" d="M1795.4,903.6l-7.212,14.421-15.627-1.534,9.314-15.763Z" transform="translate(-1427.445 -725.357)" fill="none" stroke="#000" stroke-width="1.5"/>
        <path id="Path_1518" data-name="Path 1518" d="M1939,932.6l-5.907,11.809-11.947-1.172,7.578-12.821Z" transform="translate(-1547.105 -749.266)" fill="#672376"/>
        <path id="Path_1519" data-name="Path 1519" d="M1939,932.6l-5.907,11.809-11.947-1.172,7.578-12.821Z" transform="translate(-1547.105 -749.266)" fill="none" stroke="#000" stroke-width="1.5"/>
        <path id="Path_1520" data-name="Path 1520" d="M198.442,1022.794a2.962,2.962,0,0,0,0-2.561V942.91h-4.534c-.629,36.752-1.259,65.267-1.5,75.756l-58.8-1.736V935.872h-4.916c-.677,39.663-1.354,70.507-1.619,82.136-3.005,1.87-3.532,3.138-9.3,3.606-6.94.562-5.141,4.812-5.141,4.812h16.934l66.764-2.177a2.429,2.429,0,0,0,1.987-1.219h.128Z" transform="translate(-90.532 -753.658)" fill="#3b3b4c"/>
        <path id="Path_1521" data-name="Path 1521" d="M198.442,1022.794a2.962,2.962,0,0,0,0-2.561V942.91h-4.534c-.629,36.752-1.259,65.267-1.5,75.756l-58.8-1.736V935.872h-4.916c-.677,39.663-1.354,70.507-1.619,82.136-3.005,1.87-3.532,3.138-9.3,3.606-6.94.562-5.141,4.812-5.141,4.812h16.934l66.764-2.177a2.429,2.429,0,0,0,1.987-1.219h.128Z" transform="translate(-90.532 -753.658)" fill="none" stroke="#000" stroke-width="1.5"/>
        <path id="Path_1522" data-name="Path 1522" d="M248.531,882.4v10.664l-3.507-.345-4.634-.454-12.848-1.262L215.6,889.836l-13.3-1.3L186.666,887h0l-6.47-.635-5.027-.493-4.9-.481v-19.62l25.714,5.465L209.5,874.11l13.67,2.9L233.45,879.2Z" transform="translate(-137.115 -697.204)" fill="#fb847d"/>
        <path id="Path_1523" data-name="Path 1523" d="M248.531,882.4v10.664l-3.507-.345-4.634-.454-12.848-1.262L215.6,889.836l-13.3-1.3L186.666,887h0l-6.47-.635-5.027-.493-4.9-.481v-19.62l25.714,5.465L209.5,874.11l13.67,2.9L233.45,879.2Z" transform="translate(-137.115 -697.204)" fill="none" stroke="#000" stroke-width="1.5"/>
        <path id="Path_1524" data-name="Path 1524" d="M277.334,896.715l-7.212,14.421L254.5,909.6l9.314-15.763Z" transform="translate(-204.946 -719.809)" fill="#672376"/>
        <path id="Path_1525" data-name="Path 1525" d="M277.334,896.715l-7.212,14.421L254.5,909.6l9.314-15.763Z" transform="translate(-204.946 -719.809)" fill="none" stroke="#000" stroke-width="1.5"/>
        <path id="Path_1526" data-name="Path 1526" d="M420.94,925.714l-5.907,11.809-11.947-1.172,7.578-12.821Z" transform="translate(-324.606 -743.718)" fill="#672376"/>
        <path id="Path_1527" data-name="Path 1527" d="M420.94,925.714l-5.907,11.809-11.947-1.172,7.578-12.821Z" transform="translate(-324.606 -743.718)" fill="none" stroke="#000" stroke-width="1.5"/>
      </g>
    </g>
  </g>
</svg>
