<svg xmlns="http://www.w3.org/2000/svg" xmlns:xlink="http://www.w3.org/1999/xlink" width="664" height="644" viewBox="0 0 664 644">
  <defs>
    <clipPath id="clip-path">
      <rect id="Rectangle_1409" data-name="Rectangle 1409" width="664" height="644" rx="29" transform="translate(3665 2649)" fill="#fff"/>
    </clipPath>
    <clipPath id="clip-path-2">
      <rect id="Rectangle_1399" data-name="Rectangle 1399" width="233.517" height="96.063" fill="none"/>
    </clipPath>
    <clipPath id="clip-path-3">
      <rect id="Rectangle_1400" data-name="Rectangle 1400" width="169.47" height="82.481" fill="none"/>
    </clipPath>
    <clipPath id="clip-path-4">
      <rect id="Rectangle_1401" data-name="Rectangle 1401" width="55.626" height="47.972" fill="none"/>
    </clipPath>
    <clipPath id="clip-path-5">
      <rect id="Rectangle_1403" data-name="Rectangle 1403" width="87.692" height="30.934" fill="none"/>
    </clipPath>
    <clipPath id="clip-path-6">
      <rect id="Rectangle_1406" data-name="Rectangle 1406" width="10.899" height="113.422" fill="none"/>
    </clipPath>
  </defs>
  <g id="specialise-with-pathways" transform="translate(-3665 -2649)" clip-path="url(#clip-path)">
    <path id="Path_4715" data-name="Path 4715" d="M279.64,202.165c-.673-25.617-4.358-145.674-4.408-145.673C132.107,61.777,23.482,87.573,23.482,118.6c0,24.286,67.721,111.318,164.12,93V208.51c28.352-3.066,59.325-5.237,92.037-6.345" transform="translate(3668.284 2718.109)" fill="#b5a392" stroke="#000" stroke-width="2"/>
    <g id="Group_1194" data-name="Group 1194" transform="translate(3712.605 2836.155)" opacity="0.15">
      <g id="Group_1193" data-name="Group 1193">
        <g id="Group_1192" data-name="Group 1192" clip-path="url(#clip-path-2)">
          <path id="Path_4716" data-name="Path 4716" d="M182.279,195.871v-3.086c27.826-3.009,58.191-5.149,90.235-6.275-1.218-40.35-2.576-84.188-2.606-84.188C164.087,106.229,77.138,121.35,39,141.507c27.128,31.717,78.782,66.622,143.282,54.363" transform="translate(-38.997 -102.322)" fill="#2d2d30"/>
        </g>
      </g>
    </g>
    <path id="Path_4717" data-name="Path 4717" d="M204.787,140.154H122.21a3.368,3.368,0,0,1-3.367-3.368V33.548a3.368,3.368,0,0,1,3.367-3.368h82.577a3.369,3.369,0,0,1,3.368,3.368V136.785a3.369,3.369,0,0,1-3.368,3.368" transform="translate(3701.003 2709.081)" fill="#111"/>
    <path id="Path_4718" data-name="Path 4718" d="M170.76,56.659V39.7a16.963,16.963,0,1,0,16.963,16.963Z" transform="translate(3712.996 2712.346)" fill="#f6eee3"/>
    <path id="Path_4719" data-name="Path 4719" d="M183.313,52.638a14.5,14.5,0,0,0-14.495-14.495V52.638Z" transform="translate(3718.15 2711.813)" fill="#eb8d2e"/>
    <path id="Path_4720" data-name="Path 4720" d="M154.581,43.426H127.354a.672.672,0,1,1,0-1.343h27.227a.672.672,0,0,1,0,1.343" transform="translate(3703.693 2713.165)" fill="#f6eee3"/>
    <path id="Path_4721" data-name="Path 4721" d="M175.449,100.36H152.728a.672.672,0,0,1,0-1.343h22.721a.672.672,0,1,1,0,1.343" transform="translate(3712.399 2732.699)" fill="#f6eee3"/>
    <path id="Path_4722" data-name="Path 4722" d="M151.771,55.822H127.354a.672.672,0,1,1,0-1.343h24.418a.672.672,0,0,1,0,1.343" transform="translate(3703.693 2717.418)" fill="#f6eee3"/>
    <path id="Path_4723" data-name="Path 4723" d="M158.562,65.8H127.354a.672.672,0,1,1,0-1.343h31.208a.672.672,0,1,1,0,1.343" transform="translate(3703.693 2720.841)" fill="#f6eee3"/>
    <path id="Path_4724" data-name="Path 4724" d="M184.155,75.875h-56.8a.672.672,0,1,1,0-1.343h56.8a.672.672,0,1,1,0,1.343" transform="translate(3703.693 2724.298)" fill="#f6eee3"/>
    <path id="Path_4725" data-name="Path 4725" d="M184.155,86.766h-56.8a.672.672,0,1,1,0-1.343h56.8a.672.672,0,1,1,0,1.343" transform="translate(3703.693 2728.035)" fill="#f6eee3"/>
    <path id="Path_4726" data-name="Path 4726" d="M84.643,194.095a2.015,2.015,0,0,1-1.394-3.469l63.822-61.169a2.574,2.574,0,0,1,3.9.392l13.383,19.369L214,85.459a2.572,2.572,0,0,1,4.438.676l8.394,22.369,47.209-58.015a2.015,2.015,0,1,1,3.125,2.544l-48.811,59.983a2.573,2.573,0,0,1-4.4-.721L215.58,89.987,166.309,153.26a2.639,2.639,0,0,1-2.1.991,2.589,2.589,0,0,1-2.043-1.109l-13.537-19.593L86.037,193.535a2.011,2.011,0,0,1-1.394.56" transform="translate(3688.578 2715.794)" fill="#ee5064"/>
    <path id="Path_4727" data-name="Path 4727" d="M84.643,194.095a2.015,2.015,0,0,1-1.394-3.469l63.822-61.169a2.574,2.574,0,0,1,3.9.392l13.383,19.369L214,85.459a2.572,2.572,0,0,1,4.438.676l8.394,22.369,47.209-58.015a2.015,2.015,0,1,1,3.125,2.544l-48.811,59.983a2.573,2.573,0,0,1-4.4-.721L215.58,89.987,166.309,153.26a2.639,2.639,0,0,1-2.1.991,2.589,2.589,0,0,1-2.043-1.109l-13.537-19.593L86.037,193.535A2.011,2.011,0,0,1,84.643,194.095Z" transform="translate(3688.578 2715.794)" fill="none" stroke="#000" stroke-miterlimit="10" stroke-width="2"/>
    <path id="Path_4728" data-name="Path 4728" d="M231.456,68.471a1.839,1.839,0,0,1-.242-.015,2.012,2.012,0,0,1-1.761-2.239l1.755-14.671-14.219,4.665a2.015,2.015,0,0,1-1.256-3.829l16.391-5.375a2.571,2.571,0,0,1,3.355,2.749l-2.027,16.939a2.013,2.013,0,0,1-2,1.776" transform="translate(3733.771 2714.81)" fill="#ee5064"/>
    <path id="Path_4729" data-name="Path 4729" d="M231.456,68.471a1.839,1.839,0,0,1-.242-.015,2.012,2.012,0,0,1-1.761-2.239l1.755-14.671-14.219,4.665a2.015,2.015,0,0,1-1.256-3.829l16.391-5.375a2.571,2.571,0,0,1,3.355,2.749l-2.027,16.939A2.013,2.013,0,0,1,231.456,68.471Z" transform="translate(3733.771 2714.81)" fill="none" stroke="#000" stroke-miterlimit="10" stroke-width="2"/>
    <path id="Path_4730" data-name="Path 4730" d="M152.2,140.031H97.779a3.708,3.708,0,0,1-3.708-3.71V88.815a3.708,3.708,0,0,1,3.708-3.708H152.2a3.709,3.709,0,0,1,3.71,3.708v47.506a3.71,3.71,0,0,1-3.71,3.71" transform="translate(3692.504 2727.927)" fill="#ee5064"/>
    <path id="Path_4731" data-name="Path 4731" d="M152.367,140.874H97.951a4.386,4.386,0,0,1-4.381-4.38V88.988a4.386,4.386,0,0,1,4.381-4.381h54.416a4.385,4.385,0,0,1,4.38,4.381v47.506a4.385,4.385,0,0,1-4.38,4.38M97.951,85.95a3.042,3.042,0,0,0-3.038,3.038v47.506a3.041,3.041,0,0,0,3.038,3.037h54.416a3.04,3.04,0,0,0,3.037-3.037V88.988a3.041,3.041,0,0,0-3.037-3.038Z" transform="translate(3692.332 2727.755)" fill="#5c69ab"/>
    <path id="Path_4732" data-name="Path 4732" d="M140,122H104.634a2.034,2.034,0,0,1-2.035-2.035V96.112a2.034,2.034,0,0,1,2.035-2.033H140a2.034,2.034,0,0,1,2.033,2.033V119.97A2.034,2.034,0,0,1,140,122" transform="translate(3695.43 2731.005)" fill="#f6eee3"/>
    <path id="Path_4733" data-name="Path 4733" d="M102.772,120.55a.671.671,0,0,1-.431-1.186l19.206-16.076a.67.67,0,0,1,.853-.008l19.717,15.889a.671.671,0,0,1-.843,1.045l-19.287-15.542L103.2,120.393a.661.661,0,0,1-.43.157" transform="translate(3695.259 2734.111)" fill="#5c69ab"/>
    <path id="Path_4734" data-name="Path 4734" d="M102.6,94.584l14.817,11.794a7.418,7.418,0,0,0,9.271-.023l14.836-11.927" transform="translate(3695.43 2731.125)" fill="#f6eee3"/>
    <path id="Path_4735" data-name="Path 4735" d="M122.209,108.849a8.076,8.076,0,0,1-5.039-1.773l-14.817-11.8a.671.671,0,1,1,.837-1.05l14.817,11.794a6.712,6.712,0,0,0,8.432-.02l14.835-11.928a.672.672,0,1,1,.842,1.046L127.281,107.05a8.072,8.072,0,0,1-5.072,1.8" transform="translate(3695.258 2730.953)" fill="#5c69ab"/>
    <path id="Path_4736" data-name="Path 4736" d="M528.63,117.725c0-26.643-80.1-49.43-193.369-58.683-.459-.038-.717,106.505-.688,138.631,33.282,2.692,63.713,6.553,90.125,11.336,63.219-15.921,103.932-72.455,103.932-91.284" transform="translate(3775.02 2718.984)" fill="#b5a392" stroke="#000" stroke-width="2"/>
    <g id="Group_1197" data-name="Group 1197" transform="translate(4109.705 2845.511)" opacity="0.15">
      <g id="Group_1196" data-name="Group 1196">
        <g id="Group_1195" data-name="Group 1195" clip-path="url(#clip-path-3)">
          <path id="Path_4737" data-name="Path 4737" d="M504.127,143.208c-31.994-15.443-93-27.72-168.9-33.92-.265-.023-.462,35.138-.576,71.154,33.239,2.693,63.632,6.55,90.012,11.328,33.9-8.537,61.31-28.746,79.459-48.561" transform="translate(-334.656 -109.288)" fill="#2d2d30"/>
        </g>
      </g>
    </g>
    <path id="Path_4738" data-name="Path 4738" d="M414.782,145.693H366.653a3.368,3.368,0,0,1-3.367-3.368V94.2a3.368,3.368,0,0,1,3.367-3.368h48.129A3.369,3.369,0,0,1,418.15,94.2v48.127a3.369,3.369,0,0,1-3.368,3.368" transform="translate(3784.872 2729.89)" fill="#111"/>
    <path id="Path_4739" data-name="Path 4739" d="M389.985,132a1.282,1.282,0,0,1-.892-.361,1.318,1.318,0,0,1-.4-.946V115.1H373.069a1.285,1.285,0,0,1-.921-.392,1.258,1.258,0,0,1-.357-.923,17.583,17.583,0,1,1,18.245,18.212h-.05m-.623-18.242h.672v16.935a16.449,16.449,0,0,0,11.633-5.665,16.24,16.24,0,1,0-28.533-11.195Z" transform="translate(3787.79 2731.953)" fill="#f6eee3"/>
    <path id="Path_4740" data-name="Path 4740" d="M386.58,131.359h-.055a18.977,18.977,0,0,1-18.086-18.085,1.377,1.377,0,0,1,.388-1.017,1.43,1.43,0,0,1,1.022-.436h16.728a1.4,1.4,0,0,1,1.4,1.4v16.73a1.422,1.422,0,0,1-.435,1.019,1.383,1.383,0,0,1-.963.391m-16.731-18.2-.067.056a17.625,17.625,0,0,0,16.8,16.8l.056-16.8Z" transform="translate(3786.639 2737.092)" fill="#eb8d2e"/>
    <path id="Path_4741" data-name="Path 4741" d="M479.286,119.085H402.177a3.708,3.708,0,0,1-3.708-3.71V45.345a3.709,3.709,0,0,1,3.708-3.71h77.109a3.709,3.709,0,0,1,3.708,3.71v70.031a3.708,3.708,0,0,1-3.708,3.71" transform="translate(3796.944 2713.011)" fill="#ee5064"/>
    <path id="Path_4742" data-name="Path 4742" d="M479.458,119.928H402.349a4.386,4.386,0,0,1-4.381-4.381V45.516a4.386,4.386,0,0,1,4.381-4.381h77.109a4.386,4.386,0,0,1,4.381,4.381v70.031a4.386,4.386,0,0,1-4.381,4.381m-77.109-77.45a3.042,3.042,0,0,0-3.038,3.038v70.031a3.042,3.042,0,0,0,3.038,3.038h77.109a3.042,3.042,0,0,0,3.038-3.038V45.516a3.042,3.042,0,0,0-3.038-3.038Z" transform="translate(3796.772 2712.84)" fill="#5c69ab"/>
    <path id="Path_4743" data-name="Path 4743" d="M460.976,76.784A24.724,24.724,0,1,1,436.252,52.06a24.724,24.724,0,0,1,24.724,24.724" transform="translate(3801.424 2716.588)" fill="#f6eee3"/>
    <path id="Path_4744" data-name="Path 4744" d="M438.609,74.832h-9.173V60.379a.672.672,0,1,1,1.343,0v13.11h7.83a.672.672,0,1,1,0,1.343" transform="translate(3807.568 2719.212)" fill="#5c69ab"/>
    <path id="Path_4745" data-name="Path 4745" d="M363.708,112.6a17.281,17.281,0,1,1-17.28-17.28,17.28,17.28,0,0,1,17.28,17.28" transform="translate(3773.159 2731.431)" fill="#eb8d2e"/>
    <path id="Path_4746" data-name="Path 4746" d="M343.674,116.367a1.635,1.635,0,0,1-1.158-.477l-6.168-6.169a.671.671,0,0,1,.95-.95l6.168,6.168a.3.3,0,0,0,.416,0l16.155-16.154a.671.671,0,0,1,.95.95l-16.155,16.155a1.636,1.636,0,0,1-1.158.478" transform="translate(3775.563 2732.552)" fill="#111"/>
    <path id="Path_4747" data-name="Path 4747" d="M346.746,38.374a4.74,4.74,0,0,0-4.733,4.734V75.522a4.739,4.739,0,0,0,4.733,4.733H355.4a6.771,6.771,0,0,1,6.763,6.763v7.692a2.306,2.306,0,0,0,3.935,1.629l14.1-14.1a6.811,6.811,0,0,1,4.781-1.981h17.349a4.739,4.739,0,0,0,4.736-4.733V43.108a4.74,4.74,0,0,0-4.736-4.734Z" transform="translate(3777.573 2711.893)" fill="#eb8d2e"/>
    <path id="Path_4748" data-name="Path 4748" d="M356.588,60.661a4.55,4.55,0,1,1,4.55-4.55,4.557,4.557,0,0,1-4.55,4.55m0-7.758A3.207,3.207,0,1,0,359.8,56.11a3.212,3.212,0,0,0-3.207-3.207" transform="translate(3781.012 2716.417)" fill="#111"/>
    <path id="Path_4749" data-name="Path 4749" d="M367.338,60.661a4.55,4.55,0,1,1,4.55-4.55,4.557,4.557,0,0,1-4.55,4.55m0-7.758a3.207,3.207,0,1,0,3.207,3.207,3.212,3.212,0,0,0-3.207-3.207" transform="translate(3784.701 2716.417)" fill="#111"/>
    <path id="Path_4750" data-name="Path 4750" d="M377.964,60.661a4.55,4.55,0,1,1,4.552-4.55,4.556,4.556,0,0,1-4.552,4.55m0-7.758a3.207,3.207,0,1,0,3.209,3.207,3.211,3.211,0,0,0-3.209-3.207" transform="translate(3788.347 2716.417)" fill="#111"/>
    <path id="Path_4751" data-name="Path 4751" d="M68.536,61.382a2.749,2.749,0,0,0-2.747,2.745v18.8a2.749,2.749,0,0,0,2.747,2.745H78.6a3.95,3.95,0,0,1,2.774,1.148l8.178,8.178a1.337,1.337,0,0,0,2.282-.944V89.59a3.926,3.926,0,0,1,3.921-3.922h5.016a2.749,2.749,0,0,0,2.745-2.745v-18.8a2.749,2.749,0,0,0-2.745-2.745Z" transform="translate(3682.8 2719.787)" fill="#eb8d2e"/>
    <path id="Path_4752" data-name="Path 4752" d="M86.844,74.66a2.921,2.921,0,1,1,2.921-2.921,2.925,2.925,0,0,1-2.921,2.921m0-4.5a1.578,1.578,0,1,0,1.578,1.578,1.58,1.58,0,0,0-1.578-1.578" transform="translate(3689.022 2722.338)" fill="#111"/>
    <path id="Path_4753" data-name="Path 4753" d="M80.612,74.66a2.921,2.921,0,1,1,2.92-2.921,2.925,2.925,0,0,1-2.92,2.921m0-4.5a1.578,1.578,0,1,0,1.577,1.578,1.58,1.58,0,0,0-1.577-1.578" transform="translate(3686.883 2722.338)" fill="#111"/>
    <path id="Path_4754" data-name="Path 4754" d="M74.447,74.66a2.921,2.921,0,1,1,2.921-2.921,2.925,2.925,0,0,1-2.921,2.921m0-4.5a1.578,1.578,0,1,0,1.578,1.578,1.58,1.58,0,0,0-1.578-1.578" transform="translate(3684.769 2722.338)" fill="#111"/>
    <path id="Path_4755" data-name="Path 4755" d="M433.718,495.982c2.008-30.362-7.916-60.444-28.279-85.7l-10.974-13.615-10.48-13-7.521-9.332-74.484,4.442-74.484-4.442-7.52,9.332-10.482,13-10.976,13.615C183.665,428.7,174.364,449.7,171.2,471.489c-.145.988-1.836,19.813-4.18,42.8H433.2Z" transform="translate(3717.533 2827.16)" fill="#111"/>
    <path id="Path_4756" data-name="Path 4756" d="M194.4,506.791c-.046,0-.091,0-.137-.007a1.344,1.344,0,0,1-1.2-1.473c1.515-14.853,2.748-27.875,3.484-35.655.459-4.85.649-6.831.7-7.2,3.2-22.042,12.746-43.433,27.6-61.863a1.343,1.343,0,1,1,2.091,1.687c-14.554,18.055-23.9,39-27.034,60.562-.047.317-.314,3.148-.686,7.066-.737,7.785-1.969,20.811-3.485,35.677a1.344,1.344,0,0,1-1.335,1.206" transform="translate(3726.464 2835.999)" fill="#f6eee3"/>
    <path id="Path_4757" data-name="Path 4757" d="M397.966,200.628c-1.9-13.148-8.581-24.59-18.349-33.38-2.25-2.354-4.388-4.471-6.357-6.345-6.84-6.5-16.187-13.012-16.662-21.915-1.64-30.689-49.5-54.126-64.957-40.747-.416.36-13.585-6.5-31.86-2.638a29.816,29.816,0,1,0-42.641,34.586c-.432,1.305-.866,2.627-1.355,3.965-5.856,16.031-15.474,27.641-29.653,39.914l-1.925,1.667c-26.169,22.651-24.059,60.644-4,77.21l5.785,4.826q1.342,1.12,2.76,2.137a10.706,10.706,0,0,1,4.743,10.072,51.738,51.738,0,0,0,2.075,22.306c8.969,27.993,40.885,46.3,75.378,43,23.923-2.287,44.122-13.884,56.272-29.865,14.524-19.1,32.2-36.37,50.479-53.044,14.941-13.63,23.057-32.4,20.266-51.748" transform="translate(3716.793 2724.13)" fill="#1e1e1e"/>
    <path id="Path_4758" data-name="Path 4758" d="M397.966,200.628c-1.9-13.148-8.581-24.59-18.349-33.38-2.25-2.354-4.388-4.471-6.357-6.345-6.84-6.5-16.187-13.012-16.662-21.915-1.64-30.689-49.5-54.126-64.957-40.747-.416.36-13.585-6.5-31.86-2.638a29.816,29.816,0,1,0-42.641,34.586c-.432,1.305-.866,2.627-1.355,3.965-5.856,16.031-15.474,27.641-29.653,39.914l-1.925,1.667c-26.169,22.651-24.059,60.644-4,77.21l5.785,4.826q1.342,1.12,2.76,2.137a10.706,10.706,0,0,1,4.743,10.072,51.738,51.738,0,0,0,2.075,22.306c8.969,27.993,40.885,46.3,75.378,43,23.923-2.287,44.122-13.884,56.272-29.865,14.524-19.1,32.2-36.37,50.479-53.044C392.641,238.747,400.757,219.98,397.966,200.628Z" transform="translate(3716.793 2724.13)" fill="none" stroke="#000" stroke-miterlimit="10" stroke-width="2"/>
    <path id="Path_4759" data-name="Path 4759" d="M307.628,267.27c.063-.835.107-1.675.111-2.526l.136-24.239a42.233,42.233,0,0,0,31.837-44.792l-4.841-53.336-23.67-.426-.959-17.47-7.188,16.585-20.844-2.408-4.8-8.26a5.407,5.407,0,0,0-5.19-2.712c-1.633,19.166-10.723,35.941-19.975,37.436L239.754,162.4l.017-.238-3.942.087a18.85,18.85,0,0,0-18.368,19.21l.009.428a18.848,18.848,0,0,0,19.21,18.37l7.666-.171-2.678,67.167-22.775,0,23.189,58.279.638,1.6,75.52-.435.466-1.17,23.007-57.823a.714.714,0,0,1,.637-.435Z" transform="translate(3734.838 2741.436)" fill="#ffa485"/>
    <path id="Path_4760" data-name="Path 4760" d="M307.628,267.27c.063-.835.107-1.675.111-2.526l.136-24.239a42.233,42.233,0,0,0,31.837-44.792l-4.841-53.336-23.67-.426-.959-17.47-7.188,16.585-20.844-2.408-4.8-8.26a5.407,5.407,0,0,0-5.19-2.712c-1.633,19.166-10.723,35.941-19.975,37.436L239.754,162.4l.017-.238-3.942.087a18.85,18.85,0,0,0-18.368,19.21l.009.428a18.848,18.848,0,0,0,19.21,18.37l7.666-.171-2.678,67.167-22.775,0,23.189,58.279.638,1.6,75.52-.435.466-1.17,23.007-57.823a.714.714,0,0,1,.637-.435Z" transform="translate(3734.838 2741.436)" fill="none" stroke="#000" stroke-miterlimit="10" stroke-width="2"/>
    <path id="Path_4761" data-name="Path 4761" d="M230.365,175.161a1.343,1.343,0,0,1-.721-2.477L234.5,169.6l-5.432-6.2a1.343,1.343,0,0,1,2.02-1.77l6.466,7.375a1.342,1.342,0,0,1-.29,2.019l-6.184,3.923a1.332,1.332,0,0,1-.719.21" transform="translate(3738.709 2754.026)" fill="#e06a4b"/>
    <path id="Path_4762" data-name="Path 4762" d="M296.424,215.708s-36.87,1.52-42.97-11.633h0s-1.792,20.01,42.591,30.7Z" transform="translate(3746.258 2766.74)" fill="#e06a4b"/>
    <path id="Path_4763" data-name="Path 4763" d="M231.806,192.731c-.24,0-.484-.009-.725-.027a9.734,9.734,0,1,1,.725.027m-.012-14.1a4.373,4.373,0,1,0,.324.012c-.109-.008-.216-.012-.324-.012" transform="translate(3736.416 2758.172)" fill="#f6eee3"/>
    <path id="Path_4764" data-name="Path 4764" d="M305.478,158.049a3.64,3.64,0,1,1-3.55-3.728,3.64,3.64,0,0,1,3.55,3.728" transform="translate(3762.54 2751.674)" fill="#111"/>
    <path id="Path_4765" data-name="Path 4765" d="M276.808,158.049a3.64,3.64,0,1,1-3.55-3.728,3.64,3.64,0,0,1,3.55,3.728" transform="translate(3752.704 2751.674)" fill="#111"/>
    <path id="Path_4766" data-name="Path 4766" d="M273.681,179.02c-9.555,0-17.369-8.977-17.439-20.063-.04-6.587,8.682-9.59,17.345-9.645s17.427,2.838,17.468,9.425c.07,11.124-7.681,20.222-17.279,20.284Zm.153-25.68h-.222c-7.5.047-13.36,2.5-13.341,5.59.055,8.871,6.065,16.059,13.41,16.059h.07c7.376-.047,13.332-7.327,13.275-16.229h0c-.019-3.058-5.8-5.423-13.192-5.423" transform="translate(3748.145 2749.955)" fill="#fff"/>
    <path id="Path_4767" data-name="Path 4767" d="M305.235,178.4a16.215,16.215,0,0,1-12.362-5.951,21.822,21.822,0,0,1-5.076-14.111c-.04-6.588,8.683-9.591,17.348-9.646a29.548,29.548,0,0,1,11.4,1.976c3.894,1.663,6.049,4.309,6.068,7.452a21.816,21.816,0,0,1-4.9,14.172,16.2,16.2,0,0,1-12.382,6.108Zm.154-25.679h-.219c-7.5.048-13.363,2.5-13.344,5.591a17.792,17.792,0,0,0,4.1,11.51,11.788,11.788,0,0,0,18.695-.117,17.792,17.792,0,0,0,3.957-11.563c-.019-3.057-5.8-5.422-13.192-5.422" transform="translate(3758.972 2749.744)" fill="#fff"/>
    <path id="Path_4768" data-name="Path 4768" d="M285.391,152.332l.239,12.069a2.7,2.7,0,0,0,2.748,2.642l2.679-.054a3.673,3.673,0,0,1,3.746,3.6,9.1,9.1,0,0,1-8.917,9.277l-4.195.082" transform="translate(3756.877 2750.992)" fill="#ffa485"/>
    <path id="Path_4769" data-name="Path 4769" d="M282.034,181.636a1.343,1.343,0,0,1-.027-2.686l4.2-.083a7.756,7.756,0,0,0,7.6-7.907,2.332,2.332,0,0,0-2.376-2.285l-2.681.054a4.038,4.038,0,0,1-4.117-3.959l-.239-12.068a1.343,1.343,0,0,1,1.316-1.369h.027a1.342,1.342,0,0,1,1.343,1.315l.239,12.069a1.339,1.339,0,0,0,.414.948,1.3,1.3,0,0,0,.964.377l2.681-.054a5.018,5.018,0,0,1,5.115,4.917,10.444,10.444,0,0,1-10.233,10.647l-4.2.083Z" transform="translate(3756.533 2750.649)" fill="#e06a4b"/>
    <path id="Path_4770" data-name="Path 4770" d="M265.35,162.359a2.026,2.026,0,0,1-.587-.087l-28.236-8.585a2.015,2.015,0,1,1,1.173-3.855l28.236,8.584a2.015,2.015,0,0,1-.586,3.943" transform="translate(3740.891 2750.104)" fill="#fff"/>
    <path id="Path_4771" data-name="Path 4771" d="M281.036,161.59a2.013,2.013,0,0,1-1.175-3.651c2.63-1.876,9.02-4.294,14.385-.009a2.015,2.015,0,0,1-2.513,3.15c-4.31-3.441-9.327,0-9.54.145a2,2,0,0,1-1.156.365" transform="translate(3755.96 2752.093)" fill="#fff"/>
    <path id="Path_4772" data-name="Path 4772" d="M289.139,197.77a.755.755,0,0,1-.508-.032c-.169-.074-4.212-1.758-7.128,1.445a.758.758,0,0,1-1.123-1.019c3.661-4.019,8.8-1.839,8.855-1.816a.758.758,0,0,1-.1,1.422" transform="translate(3756.36 2765.884)" fill="#e06a4b"/>
    <path id="Path_4773" data-name="Path 4773" d="M262.952,149.125c1.442.293,3.12-.231,4.771-.643,1.653-.451,3.324-.864,4.79-1.17s3.166-.6,4.861-.857c1.679-.285,3.434-.484,4.618-1.327,1.147-.8,1.34-2.431-.545-3.993-1.784-1.532-5.864-2.749-10.723-1.741-4.849,1.03-8.034,3.771-9,5.88-1.038,2.177-.161,3.585,1.226,3.851" transform="translate(3749.87 2746.426)" fill="#111"/>
    <path id="Path_4774" data-name="Path 4774" d="M311.445,148.028a9.118,9.118,0,0,1-3.771-.359c-1.314-.3-2.641-.576-3.8-.772s-2.509-.376-3.849-.522a9.059,9.059,0,0,1-3.672-.9c-.927-.591-1.128-1.87.3-3.156,1.357-1.26,4.526-2.344,8.38-1.7,3.844.659,6.435,2.717,7.257,4.345.882,1.68.236,2.815-.846,3.066" transform="translate(3761.655 2746.907)" fill="#111"/>
    <path id="Path_4775" data-name="Path 4775" d="M285.924,187.031l-.083,0-10.479-.645a7.6,7.6,0,0,1-7.129-7.622l.007-1.43a1.344,1.344,0,0,1,1.343-1.338h.007a1.343,1.343,0,0,1,1.336,1.35l-.007,1.43a4.911,4.911,0,0,0,4.608,4.929l10.479.645a1.343,1.343,0,0,1-.082,2.684" transform="translate(3752.259 2759.11)" fill="#e06a4b"/>
    <g id="Group_1200" data-name="Group 1200" transform="translate(4018.733 3014.655)" opacity="0.46">
      <g id="Group_1199" data-name="Group 1199">
        <g id="Group_1198" data-name="Group 1198" clip-path="url(#clip-path-4)">
          <path id="Path_4776" data-name="Path 4776" d="M320.239,236.173l-25.3,12.374a46.052,46.052,0,0,0-18.947,17.168L266.923,280.4l3,2.8,8.992-14.557a46.048,46.048,0,0,1,18.946-17.168L320.489,240.4l2.06-5.179a20.726,20.726,0,0,0-2.31.95" transform="translate(-266.923 -235.223)" fill="#e06a4b"/>
        </g>
      </g>
    </g>
    <path id="Path_4777" data-name="Path 4777" d="M269.81,359.779a4.358,4.358,0,0,0,8.261,0l33.716-84.735-75.52.436Z" transform="translate(3741.292 2793.095)" fill="#ee5064"/>
    <path id="Path_4778" data-name="Path 4778" d="M269.81,359.779a4.358,4.358,0,0,0,8.261,0l33.716-84.735-75.52.436Z" transform="translate(3741.292 2793.095)" fill="none" stroke="#000" stroke-miterlimit="10" stroke-width="2"/>
    <path id="Path_4779" data-name="Path 4779" d="M482.065,333.073l-61.279-71.538c-17.658-20.113-26.094-30.11-52.419-30.73h-.062c-.133,0-.259-.011-.394-.012-.015,0-.027.011-.04.011a.716.716,0,0,0-.638.435l-23.007,57.823-.466,1.17-10.776,27.084L302.413,288.95a4.373,4.373,0,0,0-5.851-.089l-21.557,18.8-6.764-17-.639-1.606-23.189-58.279h-.007l-.651.011-.156,0c-23.862.415-51.337,10.26-72.26,26.16a72.516,72.516,0,0,0-27.7,66.779,73.55,73.55,0,0,0,3.746,15.3l1.342,3.817q6.749,19.186,15.156,37.734c2.032,4.483,3.633,8,3.661,8.034h0c1.734,4.145,3.476,8.01,5.063,11.016,2.372,4.49,5.793,10.421,9.677,16.93a51.912,51.912,0,0,0,40.942,25.245.668.668,0,0,0,.2.153l30.924,11.387a161.989,161.989,0,0,0,103.123,0l38.387-14.958a.7.7,0,0,0,.427-.823l3.71-5.191a6.071,6.071,0,0,0,6.026,5.223,6.165,6.165,0,0,0,1.073-.094l53.141-9.394a53.374,53.374,0,0,0,28.2-89.291l-6.54-5.945" transform="translate(3709.317 2777.908)" fill="#672376"/>
    <path id="Path_4780" data-name="Path 4780" d="M482.065,333.073l-61.279-71.538c-17.658-20.113-26.094-30.11-52.419-30.73h-.062c-.133,0-.259-.011-.394-.012-.015,0-.027.011-.04.011a.716.716,0,0,0-.638.435l-23.007,57.823-.466,1.17-10.776,27.084L302.413,288.95a4.373,4.373,0,0,0-5.851-.089l-21.557,18.8-6.764-17-.639-1.606-23.189-58.279h-.007l-.651.011-.156,0c-23.862.415-51.337,10.26-72.26,26.16a72.516,72.516,0,0,0-27.7,66.779,73.55,73.55,0,0,0,3.746,15.3l1.342,3.817q6.749,19.186,15.156,37.734c2.032,4.483,3.633,8,3.661,8.034h0c1.734,4.145,3.476,8.01,5.063,11.016,2.372,4.49,5.793,10.421,9.677,16.93a51.912,51.912,0,0,0,40.942,25.245.668.668,0,0,0,.2.153l30.924,11.387a161.989,161.989,0,0,0,103.123,0l38.387-14.958a.7.7,0,0,0,.427-.823l3.71-5.191a6.071,6.071,0,0,0,6.026,5.223,6.165,6.165,0,0,0,1.073-.094l53.141-9.394a53.374,53.374,0,0,0,28.2-89.291l-6.54-5.945" transform="translate(3709.317 2777.908)" fill="none" stroke="#000" stroke-miterlimit="10" stroke-width="2"/>
    <path id="Path_4781" data-name="Path 4781" d="M345.812,426.579H262.471a9.389,9.389,0,0,1-9.388-9.388V305.419a9.389,9.389,0,0,1,9.388-9.388h83.341a9.388,9.388,0,0,1,9.388,9.388V417.191a9.388,9.388,0,0,1-9.388,9.388" transform="translate(3747.061 2800.295)" fill="#231f20"/>
    <path id="Path_4782" data-name="Path 4782" d="M311.439,300h-30.75a4.062,4.062,0,0,1-4.062-4.062v-3.4a4.062,4.062,0,0,1,4.062-4.063h30.75a4.062,4.062,0,0,1,4.062,4.063v3.4A4.062,4.062,0,0,1,311.439,300" transform="translate(3755.139 2797.704)" fill="#f6eee3"/>
    <path id="Path_4783" data-name="Path 4783" d="M311.61,300.844H280.86a4.738,4.738,0,0,1-4.733-4.732v-3.4a4.739,4.739,0,0,1,4.733-4.733h30.75a4.739,4.739,0,0,1,4.733,4.733v3.4a4.738,4.738,0,0,1-4.733,4.732m-30.75-11.521a3.394,3.394,0,0,0-3.39,3.39v3.4a3.393,3.393,0,0,0,3.39,3.389h30.75a3.394,3.394,0,0,0,3.39-3.389v-3.4a3.4,3.4,0,0,0-3.39-3.39Z" transform="translate(3754.968 2797.533)" fill="#231f20"/>
    <path id="Path_4784" data-name="Path 4784" d="M322.723,301.57H272.869a1.29,1.29,0,0,1-1.291-1.291v-2.823a1.291,1.291,0,0,1,1.291-1.292h49.855a1.291,1.291,0,0,1,1.291,1.292v2.823a1.29,1.29,0,0,1-1.291,1.291" transform="translate(3753.407 2800.341)" fill="#f6eee3"/>
    <path id="Path_4785" data-name="Path 4785" d="M322.895,302.412H273.04a1.964,1.964,0,0,1-1.962-1.962v-2.823a1.964,1.964,0,0,1,1.962-1.962h49.855a1.964,1.964,0,0,1,1.962,1.962v2.823a1.964,1.964,0,0,1-1.962,1.962m-49.855-5.4a.62.62,0,0,0-.619.619v2.823a.62.62,0,0,0,.619.619h49.855a.62.62,0,0,0,.619-.619v-2.823a.62.62,0,0,0-.619-.619Z" transform="translate(3753.235 2800.169)" fill="#231f20"/>
    <path id="Path_4786" data-name="Path 4786" d="M334.966,347.521a.672.672,0,0,1-.672-.672V336.8a10.153,10.153,0,0,1,7.49-9.785l44.044-11.89a.671.671,0,0,1,.349,1.3l-44.043,11.891a8.807,8.807,0,0,0-6.5,8.488v10.049a.672.672,0,0,1-.672.672" transform="translate(3774.925 2806.839)" fill="#111"/>
    <path id="Path_4787" data-name="Path 4787" d="M334.966,347.521a.672.672,0,0,1-.672-.672V336.8a10.153,10.153,0,0,1,7.49-9.785l44.044-11.89a.671.671,0,0,1,.349,1.3l-44.043,11.891a8.807,8.807,0,0,0-6.5,8.488v10.049A.672.672,0,0,1,334.966,347.521Z" transform="translate(3774.925 2806.839)" fill="none" stroke="#000" stroke-miterlimit="10" stroke-width="1.5"/>
    <path id="Path_4788" data-name="Path 4788" d="M275.261,360.027c.741-.219,1.428-.407,2.033-.531C276.7,359.676,276.009,359.847,275.261,360.027Z" transform="translate(3754.671 2822.07)" fill="none" stroke="#000" stroke-miterlimit="10" stroke-width="2"/>
    <path id="Path_4789" data-name="Path 4789" d="M270.421,366.435c1.287,5.136,5.99,4.886,10.582,3.724-2.736,1.155-4.765,2.987-3.77,6.382,1.072,6.272,7.041,6.527,12.029,5.133-4.3,2.725,1.17,9.317,7.837,9.22,9.355.34,18.63.641,27.986,1.166,6.6.371,12.859.059,18.692-3.156l7.124.3-1.5-49.274L337.709,342.1c-1.377-.94-2.775-1.84-4.208-2.651,0,0-24.745-11.089-33.756-13.227a8.782,8.782,0,0,0-2.945-.333,3.212,3.212,0,0,0-2.477,1.449,4.272,4.272,0,0,0,.23,3.727c1.589,3.686,2.994,6.879,4.423,9.686-3.495.18-4.452.212-8.546.344-8.605.9-22.98.639-21.147,11.829.968,3.831,4.1,4.432,7.332,4-4.417,1.491-8.392,4.138-6.193,9.512m6.947,5.132c.741-.219,1.428-.407,2.033-.531-.591.18-1.285.351-2.033.531" transform="translate(3752.564 2810.53)" fill="#ffa485"/>
    <path id="Path_4790" data-name="Path 4790" d="M270.421,366.435c1.287,5.136,5.99,4.886,10.582,3.724-2.736,1.155-4.765,2.987-3.77,6.382,1.072,6.272,7.041,6.527,12.029,5.133-4.3,2.725,1.17,9.317,7.837,9.22,9.355.34,18.63.641,27.986,1.166,6.6.371,12.859.059,18.692-3.156l7.124.3-1.5-49.274L337.709,342.1c-1.377-.94-2.775-1.84-4.208-2.651,0,0-24.745-11.089-33.756-13.227a8.782,8.782,0,0,0-2.945-.333,3.212,3.212,0,0,0-2.477,1.449,4.272,4.272,0,0,0,.23,3.727c1.589,3.686,2.994,6.879,4.423,9.686-3.495.18-4.452.212-8.546.344-8.605.9-22.98.639-21.147,11.829.968,3.831,4.1,4.432,7.332,4C272.2,358.414,268.222,361.061,270.421,366.435Zm6.947,5.132c.741-.219,1.428-.407,2.033-.531C278.81,371.216,278.115,371.387,277.367,371.567Z" transform="translate(3752.564 2810.53)" fill="none" stroke="#000" stroke-miterlimit="10" stroke-width="2"/>
    <path id="Path_4791" data-name="Path 4791" d="M330.155,396.354l11.392.024a3.314,3.314,0,0,0,3.322-3.307l.125-59.016a3.313,3.313,0,0,0-3.307-3.32l-11.394-.024a3.313,3.313,0,0,0-3.32,3.307l-.125,59.015a3.314,3.314,0,0,0,3.307,3.321" transform="translate(3772.37 2812.194)" fill="#f2f1ec"/>
    <path id="Rectangle_1402" data-name="Rectangle 1402" d="M2.467,0H63.175a2.468,2.468,0,0,1,2.468,2.468V15.553a2.467,2.467,0,0,1-2.467,2.467H2.467A2.467,2.467,0,0,1,0,15.554V2.467A2.467,2.467,0,0,1,2.467,0Z" transform="matrix(0.002, -1, 1, 0.002, 4099.211, 3208.54)" fill="none" stroke="#000" stroke-miterlimit="10" stroke-width="2"/>
    <line id="Line_83" data-name="Line 83" x1="13.757" y2="2.016" transform="translate(4028.344 3165.519)"/>
    <line id="Line_84" data-name="Line 84" x1="13.757" y2="2.016" transform="translate(4028.344 3165.519)" fill="none" stroke="#000" stroke-miterlimit="10" stroke-width="1"/>
    <path id="Path_4792" data-name="Path 4792" d="M274.249,350.407a.672.672,0,0,1-.1-1.336l13.757-2.016a.682.682,0,0,1,.762.568.671.671,0,0,1-.568.762L274.347,350.4a.8.8,0,0,1-.1.007" transform="translate(3754.093 2817.8)"/>
    <path id="Path_4793" data-name="Path 4793" d="M274.249,350.407a.672.672,0,0,1-.1-1.336l13.757-2.016a.682.682,0,0,1,.762.568.671.671,0,0,1-.568.762L274.347,350.4A.8.8,0,0,1,274.249,350.407Z" transform="translate(3754.093 2817.8)" fill="none" stroke="#000" stroke-miterlimit="10" stroke-width="1"/>
    <line id="Line_85" data-name="Line 85" x1="11.278" y2="2.632" transform="translate(4033.567 3178.058)"/>
    <line id="Line_86" data-name="Line 86" x1="11.278" y2="2.632" transform="translate(4033.567 3178.058)" fill="none" stroke="#000" stroke-miterlimit="10" stroke-width="1"/>
    <path id="Path_4794" data-name="Path 4794" d="M278.139,360.36a.672.672,0,0,1-.152-1.326l11.278-2.632a.672.672,0,1,1,.3,1.308l-11.279,2.632a.658.658,0,0,1-.152.017" transform="translate(3755.427 2821.002)"/>
    <path id="Path_4795" data-name="Path 4795" d="M278.139,360.36a.672.672,0,0,1-.152-1.326l11.278-2.632a.672.672,0,1,1,.3,1.308l-11.279,2.632A.658.658,0,0,1,278.139,360.36Z" transform="translate(3755.427 2821.002)" fill="none" stroke="#000" stroke-miterlimit="10" stroke-width="1"/>
    <line id="Line_87" data-name="Line 87" x1="10.829" y2="2.96" transform="translate(4041.5 3189.045)"/>
    <line id="Line_88" data-name="Line 88" x1="10.829" y2="2.96" transform="translate(4041.5 3189.045)" fill="none" stroke="#000" stroke-miterlimit="10" stroke-width="1"/>
    <path id="Path_4796" data-name="Path 4796" d="M284.046,368.867a.671.671,0,0,1-.177-1.319l10.831-2.96a.671.671,0,1,1,.353,1.295l-10.829,2.96a.679.679,0,0,1-.177.024" transform="translate(3757.454 2823.81)"/>
    <path id="Path_4797" data-name="Path 4797" d="M284.046,368.867a.671.671,0,0,1-.177-1.319l10.831-2.96a.671.671,0,1,1,.353,1.295l-10.829,2.96A.679.679,0,0,1,284.046,368.867Z" transform="translate(3757.454 2823.81)" fill="none" stroke="#000" stroke-miterlimit="10" stroke-width="1"/>
    <path id="Path_4798" data-name="Path 4798" d="M349.823,330.981a.675.675,0,0,1-.58-.33l-16.535-27.982a.671.671,0,1,1,1.155-.682L350.4,329.969a.675.675,0,0,1-.238.92.682.682,0,0,1-.341.093" transform="translate(3774.349 2802.225)" fill="#111"/>
    <path id="Path_4799" data-name="Path 4799" d="M349.823,330.981a.675.675,0,0,1-.58-.33l-16.535-27.982a.671.671,0,1,1,1.155-.682L350.4,329.969a.675.675,0,0,1-.238.92A.682.682,0,0,1,349.823,330.981Z" transform="translate(3774.349 2802.225)" fill="none" stroke="#000" stroke-miterlimit="10" stroke-width="1.5"/>
    <path id="Path_4800" data-name="Path 4800" d="M265.176,292.072l14.338-23.211a46.048,46.048,0,0,1,18.946-17.168l25.3-12.374a20.846,20.846,0,0,1,11.712-1.965l48.763-2.779a1.587,1.587,0,0,1,1.542,2.23c-.012.028-.024.056-.038.085a8.865,8.865,0,0,1-7.062,5.229l-22.913,2.812,1.127.1a8.014,8.014,0,0,1,6.8,5.234l1.887,5.17,1.6,1.7a8.279,8.279,0,0,1,1.678,8.707l-11.371,28.879a3.258,3.258,0,0,1-4.454,1.737,9.3,9.3,0,0,1-4.755-11.343l3.253-9.649-15.7,19.276a25.8,25.8,0,0,1-9.626,7.328l-12.1,5.319-8.529,23.9Z" transform="translate(3751.21 2779.208)" fill="#ffa485"/>
    <path id="Path_4801" data-name="Path 4801" d="M265.176,292.072l14.338-23.211a46.048,46.048,0,0,1,18.946-17.168l25.3-12.374a20.846,20.846,0,0,1,11.712-1.965l48.763-2.779a1.587,1.587,0,0,1,1.542,2.23c-.012.028-.024.056-.038.085a8.865,8.865,0,0,1-7.062,5.229l-22.913,2.812,1.127.1a8.014,8.014,0,0,1,6.8,5.234l1.887,5.17,1.6,1.7a8.279,8.279,0,0,1,1.678,8.707l-11.371,28.879a3.258,3.258,0,0,1-4.454,1.737,9.3,9.3,0,0,1-4.755-11.343l3.253-9.649-15.7,19.276a25.8,25.8,0,0,1-9.626,7.328l-12.1,5.319-8.529,23.9Z" transform="translate(3751.21 2779.208)" fill="none" stroke="#000" stroke-miterlimit="10" stroke-width="2"/>
    <line id="Line_89" data-name="Line 89" y1="0.733" x2="16.669" transform="translate(4090.146 3024.718)" fill="#c0644b"/>
    <path id="Path_4802" data-name="Path 4802" d="M337.335,243.656a.82.82,0,0,1-.326.085l-16.671.733a.817.817,0,1,1-.071-1.633l16.671-.733a.817.817,0,0,1,.4,1.549" transform="translate(3769.844 2781.794)"/>
    <path id="Path_4803" data-name="Path 4803" d="M337.335,243.656a.82.82,0,0,1-.326.085l-16.671.733a.817.817,0,1,1-.071-1.633l16.671-.733a.817.817,0,0,1,.4,1.549Z" transform="translate(3769.844 2781.794)" fill="none" stroke="#000" stroke-miterlimit="10" stroke-width="1"/>
    <line id="Line_90" data-name="Line 90" y1="2.11" x2="20.277" transform="translate(4095.866 3034.722)" fill="#c0644b"/>
    <path id="Path_4804" data-name="Path 4804" d="M345.2,251.1a.826.826,0,0,1-.277.081l-20.277,2.11a.816.816,0,1,1-.171-1.624l20.277-2.11a.816.816,0,0,1,.447,1.543" transform="translate(3771.305 2784.349)"/>
    <path id="Path_4805" data-name="Path 4805" d="M345.2,251.1a.826.826,0,0,1-.277.081l-20.277,2.11a.816.816,0,1,1-.171-1.624l20.277-2.11a.816.816,0,0,1,.447,1.543Z" transform="translate(3771.305 2784.349)" fill="none" stroke="#000" stroke-miterlimit="10" stroke-width="1"/>
    <path id="Path_4806" data-name="Path 4806" d="M330.4,267.3a.816.816,0,0,1-1.12-1.033l2.2-5.554a.816.816,0,0,1,1.518.6l-2.2,5.554a.818.818,0,0,1-.4.431" transform="translate(3773.184 2788)"/>
    <path id="Path_4807" data-name="Path 4807" d="M330.4,267.3a.816.816,0,0,1-1.12-1.033l2.2-5.554a.816.816,0,0,1,1.518.6l-2.2,5.554A.818.818,0,0,1,330.4,267.3Z" transform="translate(3773.184 2788)" fill="none" stroke="#000" stroke-miterlimit="10" stroke-width="1"/>
    <path id="Path_4808" data-name="Path 4808" d="M317.411,317.5l-8.405,9.016a3.315,3.315,0,0,1-4.685.165l-45.656-42.566a3.313,3.313,0,0,1-.164-4.683l8.405-9.016a3.314,3.314,0,0,1,4.685-.164l45.656,42.564a3.313,3.313,0,0,1,.164,4.683" transform="translate(3748.615 2791.146)" fill="#f2f1ec"/>
    <path id="Path_4809" data-name="Path 4809" d="M317.411,317.5l-8.405,9.016a3.315,3.315,0,0,1-4.685.165l-45.656-42.566a3.313,3.313,0,0,1-.164-4.683l8.405-9.016a3.314,3.314,0,0,1,4.685-.164l45.656,42.564A3.313,3.313,0,0,1,317.411,317.5Z" transform="translate(3748.615 2791.146)" fill="none" stroke="#000" stroke-miterlimit="10" stroke-width="2"/>
    <path id="Path_4810" data-name="Path 4810" d="M204.7,398.012q-1.839,0-3.684-.1a.671.671,0,0,1-.633-.708.657.657,0,0,1,.706-.633,67.955,67.955,0,0,0,49.734-18.035l19.878-18.519a.672.672,0,0,1,.916.983L251.743,379.52A69.3,69.3,0,0,1,204.7,398.012" transform="translate(3728.981 2822.188)" fill="#111"/>
    <path id="Path_4811" data-name="Path 4811" d="M204.7,398.012q-1.839,0-3.684-.1a.671.671,0,0,1-.633-.708.657.657,0,0,1,.706-.633,67.955,67.955,0,0,0,49.734-18.035l19.878-18.519a.672.672,0,0,1,.916.983L251.743,379.52A69.3,69.3,0,0,1,204.7,398.012Z" transform="translate(3728.981 2822.188)" fill="none" stroke="#000" stroke-miterlimit="10" stroke-width="1.5"/>
    <path id="Path_4812" data-name="Path 4812" d="M191.315,345.149a.672.672,0,0,1-.435-1.183l67.683-57.6a.672.672,0,0,1,.872,1.023l-67.684,57.6a.668.668,0,0,1-.435.16" transform="translate(3725.638 2796.926)" fill="#111"/>
    <path id="Path_4813" data-name="Path 4813" d="M191.315,345.149a.672.672,0,0,1-.435-1.183l67.683-57.6a.672.672,0,0,1,.872,1.023l-67.684,57.6A.668.668,0,0,1,191.315,345.149Z" transform="translate(3725.638 2796.926)" fill="none" stroke="#000" stroke-miterlimit="10" stroke-width="1.5"/>
    <path id="Path_4814" data-name="Path 4814" d="M211.515,330.809a.671.671,0,0,1-.583-.334l-26.665-46.052a.672.672,0,1,1,1.162-.674L212.094,329.8a.67.67,0,0,1-.579,1.009" transform="translate(3723.419 2795.966)" fill="#111"/>
    <path id="Path_4815" data-name="Path 4815" d="M211.515,330.809a.671.671,0,0,1-.583-.334l-26.665-46.052a.672.672,0,1,1,1.162-.674L212.094,329.8a.67.67,0,0,1-.579,1.009Z" transform="translate(3723.419 2795.966)" fill="none" stroke="#000" stroke-miterlimit="10" stroke-width="1.5"/>
    <path id="Path_4816" data-name="Path 4816" d="M291.272,312.239a3.605,3.605,0,1,1-4.831-1.635,3.606,3.606,0,0,1,4.831,1.635" transform="translate(3757.818 2805.167)" fill="#f2f1ec"/>
    <path id="Path_4817" data-name="Path 4817" d="M23.482,102.734V261.1c0,24.286,66.564,45.363,164.12,55.912V158.646C90.046,148.1,23.482,127.02,23.482,102.734" transform="translate(3668.284 2733.975)" fill="#a62973"/>
    <path id="Path_4818" data-name="Path 4818" d="M23.482,102.734V261.1c0,24.286,66.564,45.363,164.12,55.912V158.646C90.046,148.1,23.482,127.02,23.482,102.734Z" transform="translate(3668.284 2733.975)" fill="none" stroke="#000" stroke-miterlimit="10" stroke-width="2"/>
    <path id="Path_4819" data-name="Path 4819" d="M166.282,181.108a.657.657,0,0,1-.073,0C85.726,172.4,35.728,155.192,35.728,136.19a.672.672,0,1,1,1.343,0c0,17.981,50.746,35.087,129.282,43.58a.671.671,0,0,1-.071,1.339" transform="translate(3672.486 2745.223)" fill="#f6eee3"/>
    <path id="Path_4820" data-name="Path 4820" d="M89.919,183.384a.662.662,0,0,1-.153-.017,248.312,248.312,0,0,1-32.345-9.574.671.671,0,1,1,.482-1.253,247.141,247.141,0,0,0,32.167,9.519.672.672,0,0,1-.152,1.326" transform="translate(3679.781 2757.91)" fill="#f6eee3"/>
    <path id="Path_4821" data-name="Path 4821" d="M145.32,190.991a.656.656,0,0,1-.073,0c-17.176-1.858-33.282-4.143-47.872-6.8a.671.671,0,1,1,.24-1.32c14.558,2.647,30.633,4.929,47.776,6.783a.671.671,0,0,1-.071,1.339" transform="translate(3693.448 2761.465)" fill="#111"/>
    <path id="Path_4822" data-name="Path 4822" d="M39,226.833l18.538,5.938v-26.43L39,199.218Z" transform="translate(3673.608 2767.078)" fill="#111"/>
    <path id="Path_4823" data-name="Path 4823" d="M58.378,238.072,38.5,231.706V186.447l19.881,7.641ZM39.84,230.725l17.194,5.507V195.011L39.84,188.4Z" transform="translate(3673.436 2762.697)" fill="#f6eee3"/>
    <path id="Path_4824" data-name="Path 4824" d="M78.269,239.071,58.388,232.7V207.593l19.881,7.641Zm-18.538-7.347,17.194,5.505V216.157l-17.194-6.608Z" transform="translate(3680.261 2769.952)" fill="#f6eee3"/>
    <path id="Path_4825" data-name="Path 4825" d="M509.2,102.734V261.1c0,20.065-45.433,37.939-116.242,49.495-2.005.328-2.389-157.978-.685-158.255,71.2-11.552,116.927-29.477,116.927-49.606" transform="translate(3794.449 2733.975)" fill="#a62973"/>
    <path id="Path_4826" data-name="Path 4826" d="M509.2,102.734V261.1c0,20.065-45.433,37.939-116.242,49.495-2.005.328-2.389-157.978-.685-158.255C463.476,140.788,509.2,122.863,509.2,102.734Z" transform="translate(3794.449 2733.975)" fill="none" stroke="#000" stroke-miterlimit="10" stroke-width="2"/>
    <path id="Path_4827" data-name="Path 4827" d="M442.523,155.76a.671.671,0,0,1-.154-1.324c16.822-4,29.431-8.548,37.477-13.525a.671.671,0,1,1,.705,1.143c-8.166,5.053-20.908,9.658-37.873,13.688a.609.609,0,0,1-.154.019" transform="translate(3811.829 2747.039)" fill="#111"/>
    <path id="Path_4828" data-name="Path 4828" d="M443.24,171.78a.671.671,0,0,1-.154-1.324c16.39-3.894,28.675-8.327,36.515-13.177a.671.671,0,1,1,.706,1.142c-7.962,4.926-20.38,9.415-36.912,13.341a.608.608,0,0,1-.154.019" transform="translate(3812.074 2752.654)" fill="#f6eee3"/>
    <g id="Group_1203" data-name="Group 1203" transform="translate(3791.319 2980.744)" opacity="0.69">
      <g id="Group_1202" data-name="Group 1202">
        <g id="Group_1201" data-name="Group 1201" clip-path="url(#clip-path-5)">
          <path id="Path_4829" data-name="Path 4829" d="M124.237,240.909,98.171,214.022a2.015,2.015,0,0,1,2.893-2.8l23.307,24.042,26.951-25.284,33.193,25.739a2.015,2.015,0,0,1-2.47,3.184l-30.474-23.633Z" transform="translate(-97.603 -209.975)" fill="#1b1f38"/>
        </g>
      </g>
    </g>
    <path id="Path_4830" data-name="Path 4830" d="M107.589,213.671a6.759,6.759,0,1,1-6.76-6.76,6.759,6.759,0,0,1,6.76,6.76" transform="translate(3692.504 2769.718)" fill="#bcc5f6"/>
    <path id="Path_4831" data-name="Path 4831" d="M146.178,213.671a6.759,6.759,0,1,1-6.76-6.76,6.759,6.759,0,0,1,6.76,6.76" transform="translate(3705.744 2769.718)" fill="#bcc5f6"/>
    <path id="Path_4832" data-name="Path 4832" d="M125.969,232.051a6.759,6.759,0,1,1-6.76-6.76,6.76,6.76,0,0,1,6.76,6.76" transform="translate(3698.81 2776.024)" fill="#5f73d3"/>
    <path id="Path_4833" data-name="Path 4833" d="M169.88,232.051a6.759,6.759,0,1,1-6.76-6.76,6.76,6.76,0,0,1,6.76,6.76" transform="translate(3713.876 2776.024)" fill="#5f73d3"/>
    <rect id="Rectangle_1404" data-name="Rectangle 1404" width="10.898" height="77.498" transform="translate(4140.924 2929.223)" fill="#5c69ab"/>
    <path id="Path_4834" data-name="Path 4834" d="M369.64,249.958H357.4V171.115H369.64Zm-10.9-1.344H368.3V172.458h-9.555Z" transform="translate(3782.852 2757.436)" fill="#5c69ab"/>
    <path id="Path_4835" data-name="Path 4835" d="M385.114,255.319H372.873V155.488h12.241Zm-10.9-1.344h9.555V156.83h-9.555Z" transform="translate(3788.162 2752.075)" fill="#111"/>
    <path id="Path_4836" data-name="Path 4836" d="M417.274,255.319H405.033V155.488h12.241Zm-10.9-1.344h9.555V156.83h-9.555Z" transform="translate(3799.196 2752.075)" fill="#111"/>
    <g id="Group_1206" data-name="Group 1206" transform="translate(4225.082 2893.299)" opacity="0.46">
      <g id="Group_1205" data-name="Group 1205">
        <g id="Group_1204" data-name="Group 1204" clip-path="url(#clip-path-6)">
          <rect id="Rectangle_1405" data-name="Rectangle 1405" width="10.898" height="113.422" transform="translate(0.001)" fill="#fff"/>
        </g>
      </g>
    </g>
    <rect id="Rectangle_1407" data-name="Rectangle 1407" width="10.898" height="74.068" transform="translate(4225.083 2932.653)" fill="#5c69ab"/>
    <path id="Path_4837" data-name="Path 4837" d="M432.3,249.08H420.06V173.669H432.3Zm-10.9-1.343h9.555V175.012H421.4Z" transform="translate(3804.352 2758.313)" fill="#5c69ab"/>
    <rect id="Rectangle_1408" data-name="Rectangle 1408" width="10.898" height="69.426" transform="translate(4183.912 2937.295)" fill="#5c69ab"/>
    <path id="Path_4838" data-name="Path 4838" d="M401.647,247.894H389.406V177.126h12.241Zm-10.9-1.343H400.3V178.469h-9.555Z" transform="translate(3793.834 2759.499)" fill="#5c69ab"/>
  </g>
</svg>
