<svg xmlns="http://www.w3.org/2000/svg" width="36" height="36" viewBox="0 0 36 36">
  <g id="x-logo" transform="translate(-15579 -3191)">
    <rect id="Rectangle_695" data-name="Rectangle 695" width="36" height="36" transform="translate(15579 3191)" fill="#898989" opacity="0"/>
    <rect id="Rectangle_696" data-name="Rectangle 696" width="32" height="32" transform="translate(15581 3193)" fill="#898989" opacity="0"/>
    <path id="Path_2368" data-name="Path 2368" d="M305.195,250.663l7.291,10.429h-2.992l-5.95-8.51h0l-.874-1.249-6.95-9.942h2.992l5.609,8.023Z" transform="translate(15292.889 2957.784)" fill="#fff"/>
    <path id="Path_2369" data-name="Path 2369" d="M28.9,0H3.5A3.5,3.5,0,0,0,0,3.5V28.9a3.5,3.5,0,0,0,3.5,3.5H28.9a3.5,3.5,0,0,0,3.5-3.5V3.5A3.5,3.5,0,0,0,28.9,0ZM20.666,27.476l-6.021-8.763L7.107,27.476H5.159L13.78,17.455,5.159,4.908h6.576l5.7,8.3,7.138-8.3h1.948L18.3,14.464h0l8.941,13.012Z" transform="translate(15580.8 3192.8)" fill="#fff"/>
  </g>
</svg>
