<svg width="21" height="17" viewBox="0 0 21 17" fill="none" xmlns="http://www.w3.org/2000/svg">
<path d="M18.9216 4.31031C19.7349 3.73281 20.4191 3.01198 20.9766 2.18198V2.18115C20.2324 2.50698 19.4407 2.72365 18.6141 2.82865C19.4641 2.32115 20.1132 1.52365 20.4182 0.562812C19.6257 1.03531 18.7507 1.36865 17.8182 1.55531C17.0657 0.753646 15.9932 0.257812 14.8232 0.257812C12.5532 0.257812 10.7257 2.10031 10.7257 4.35865C10.7257 4.68365 10.7532 4.99615 10.8207 5.29365C7.4124 5.12698 4.39573 3.49365 2.36906 1.00448C2.01573 1.61865 1.8074 2.32115 1.8074 3.07698C1.8074 4.49698 2.53823 5.75531 3.62906 6.48448C2.9699 6.47198 2.32406 6.28031 1.77656 5.97948V6.02448C1.77656 8.01698 3.1974 9.67198 5.06156 10.0536C4.7274 10.1453 4.36406 10.1886 3.98656 10.1886C3.72406 10.1886 3.45906 10.1736 3.21073 10.1186C3.74156 11.742 5.2499 12.9361 7.04156 12.9753C5.64656 14.0661 3.8749 14.7236 1.9574 14.7236C1.62156 14.7236 1.29906 14.7086 0.976562 14.6678C2.79323 15.8386 4.9449 16.5078 7.26656 16.5078C14.5024 16.5078 19.2182 10.4711 18.9216 4.31031Z" fill="white"/>
</svg>
