<svg width="21" height="12" viewBox="0 0 21 12" fill="none" xmlns="http://www.w3.org/2000/svg">
<path d="M9.39862 10.4832C9.45195 10.4382 9.50612 10.3915 9.55612 10.3423C6.77195 13.074 2.23195 11.799 1.16779 7.94649V7.94066C-0.259713 2.69899 5.75945 -1.28268 9.55445 2.38399C9.63362 2.46816 14.8761 8.05899 14.5428 7.70316H14.5578C15.3403 8.50982 16.472 8.42149 17.1453 7.71649C17.8695 6.95982 17.8953 5.72482 17.1845 4.95566C16.062 3.66316 13.8578 4.62899 14.0686 6.54482L12.807 5.25982L11.3436 3.86066C11.6453 3.26149 12.0411 2.73732 12.537 2.28399C12.4836 2.32982 12.4295 2.37732 12.3795 2.42482C15.1745 -0.316844 19.7111 0.988156 20.7678 4.82399V4.82899C22.1986 10.0698 16.1728 14.0515 12.3811 10.3848C12.3036 10.3015 7.06445 4.67566 7.39612 5.03232L7.39279 5.01982C7.37945 5.01982 7.37945 5.00732 7.37945 5.00732C6.55779 4.15982 5.44362 4.28732 4.79195 4.98149C4.06695 5.73816 4.04195 6.97316 4.75445 7.73066C5.82779 8.99316 8.07945 8.05732 7.86779 6.10316C7.94945 6.18732 10.7753 9.08816 10.5953 8.90399C10.1378 9.81649 9.62612 10.2357 9.39862 10.4832Z" fill="white"/>
</svg>
