<?xml version="1.0" encoding="UTF-8"?>
<svg id="Layer_2" data-name="Layer 2" xmlns="http://www.w3.org/2000/svg" xmlns:xlink="http://www.w3.org/1999/xlink" viewBox="0 0 120 120">
  <defs>
    <style>
      .cls-1 {
        fill: none;
      }

      .cls-1, .cls-2 {
        stroke-width: 0px;
      }

      .cls-2 {
        fill: url(#Razorswift_Gradient);
      }
    </style>
    <linearGradient id="Razorswift_Gradient" data-name="Razorswift Gradient" x1="10" y1="60" x2="110" y2="60" gradientUnits="userSpaceOnUse">
      <stop offset="0" stop-color="#682376"/>
      <stop offset="1" stop-color="#a52973"/>
    </linearGradient>
  </defs>
  <g id="Layer_2-2" data-name="Layer 2">
    <g>
      <rect class="cls-1" width="120" height="120"/>
      <rect class="cls-1" x="10" y="10" width="100" height="100"/>
      <path class="cls-2" d="m23.94,48.02c.51-1.19,1.09-2.34,1.7-3.45.78-1.42,1.64-2.76,2.56-4.04.47-.65,1.39-.8,2.04-.33.65.48.8,1.39.33,2.04-.87,1.21-1.67,2.45-2.38,3.74-.37.66-.72,1.35-1.05,2.03h5.34c.81,0,1.47.65,1.47,1.46v12.82c0,1.36-.29,2.65-.82,3.81,1.54.64,2.85,1.46,3.85,2.41,1.44,1.35,2.26,2.97,2.26,4.73v7.15c0,.81-.66,1.47-1.47,1.47h-9.1c.48.82,1,1.63,1.54,2.41,1.01,1.46,2.12,2.82,3.32,4.09.55.59.53,1.51-.07,2.07-.59.55-1.51.53-2.07-.06-1.3-1.39-2.5-2.87-3.59-4.42-.91-1.31-1.74-2.67-2.49-4.09h-13.86c-.81,0-1.47-.66-1.47-1.47v-7.15c0-1.75.81-3.36,2.23-4.71,1.01-.96,2.34-1.79,3.89-2.44-.53-1.17-.82-2.46-.82-3.81v-8.42c0-1.62.66-3.08,1.72-4.15,1.06-1.06,2.53-1.72,4.14-1.72h2.77Zm77.84,12.08l-7.73-2.62-5.05,2.48v2.35c0,1.76.72,3.36,1.88,4.51,1.16,1.16,2.76,1.88,4.51,1.88s3.36-.72,4.52-1.88c1.16-1.16,1.88-2.76,1.88-4.51v-2.21Zm-12.78-3.39l4.23-2.07c.35-.2.78-.26,1.2-.12l7.36,2.49v-3.12c0-.81-.33-1.54-.86-2.07-.53-.54-1.26-.86-2.07-.86h-6.92c-.8,0-1.53.33-2.07.86-.53.53-.86,1.26-.86,2.07v2.82h0Zm-70.76-1.76h12.79v-4h-9.85c-.8,0-1.54.33-2.07.86-.53.53-.86,1.26-.86,2.07v1.07h0Zm12.79,2.93h-12.79v4.42c0,1.76.72,3.36,1.88,4.51,1.16,1.16,2.76,1.88,4.51,1.88s3.36-.72,4.51-1.88c1.16-1.16,1.88-2.76,1.88-4.51v-4.42h0Zm35.38,28.97c-2.09.3-5.5.27-8.33-2.23-.99.58-2.56,1.22-4.46,1.06v3.55c0,1.76.72,3.36,1.88,4.52,1.16,1.16,2.76,1.88,4.51,1.88s3.36-.72,4.52-1.88c1.16-1.16,1.88-2.76,1.88-4.52v-2.39Zm-12.79-4.1c2.13.3,3.63-1.1,3.63-1.1h0s.03-.03.03-.03c.61-.53,1.53-.46,2.06.15,2.29,2.64,5.47,2.44,7.06,2.13v-3.09c0-.8-.33-1.54-.86-2.07-.53-.53-1.26-.86-2.07-.86h-6.92c-.8,0-1.54.33-2.07.86-.53.53-.86,1.27-.86,2.07v1.94h0Zm-22.13-14.15c-1.77,1.92-4.24,3.02-6.85,3.02s-5.09-1.1-6.85-3.02c-1.46.54-2.66,1.25-3.52,2.06-.84.8-1.32,1.68-1.32,2.59v5.69h23.39v-5.69c0-.91-.49-1.8-1.34-2.61-.86-.81-2.05-1.51-3.5-2.05h0Zm73.23-6.3c0,1.36-.29,2.65-.82,3.81,1.55.65,2.87,1.48,3.88,2.43,1.42,1.35,2.24,2.96,2.24,4.71v7.15c0,.81-.65,1.47-1.46,1.47h-13.92c-.75,1.37-1.6,2.71-2.52,4.01-1.1,1.54-2.31,3.02-3.61,4.4-.55.59-1.48.61-2.07.06-.59-.55-.61-1.48-.07-2.07,1.22-1.29,2.34-2.66,3.36-4.09.54-.75,1.05-1.52,1.53-2.31h-9.02c-.81,0-1.47-.66-1.47-1.47v-7.15c0-1.76.82-3.37,2.26-4.73,1-.95,2.32-1.77,3.86-2.41-.53-1.17-.82-2.46-.82-3.81v-8.42c0-1.62.66-3.08,1.72-4.15,1.06-1.06,2.53-1.72,4.14-1.72h.96c-.32-.68-.66-1.34-1.02-1.99-.73-1.31-1.54-2.58-2.43-3.8-.48-.65-.34-1.57.32-2.04.65-.48,1.56-.34,2.04.32.95,1.31,1.83,2.68,2.62,4.11.61,1.1,1.17,2.24,1.68,3.41h2.76c1.62,0,3.08.66,4.15,1.72,1.06,1.06,1.72,2.53,1.72,4.15v8.42h0Zm-2.47,6.31c-1.77,1.92-4.24,3.02-6.85,3.02s-5.08-1.1-6.85-3.02c-1.44.54-2.65,1.24-3.5,2.05-.85.8-1.33,1.69-1.33,2.6v5.69h23.38v-5.69c0-.91-.48-1.79-1.32-2.59-.85-.81-2.06-1.52-3.52-2.06h0Zm-32.91,20.63c0,1.36-.29,2.65-.82,3.81,1.55.65,2.87,1.48,3.88,2.44.55.52,1.01,1.08,1.36,1.67,1.17-.5,2.31-1.06,3.43-1.68,1.54-.86,3.02-1.84,4.44-2.92.64-.49,1.56-.37,2.05.27.49.64.37,1.56-.28,2.05-1.52,1.16-3.12,2.21-4.79,3.15-1.29.72-2.62,1.37-3.98,1.93,0,.08,0,.16,0,.24v7.15c0,.81-.65,1.46-1.46,1.46h-26.31c-.81,0-1.47-.65-1.47-1.46v-7.15c0-.08,0-.16,0-.23-1.4-.57-2.75-1.21-4.06-1.93-1.67-.91-3.27-1.94-4.78-3.07-.65-.48-.78-1.4-.29-2.04.48-.64,1.4-.78,2.04-.29,1.4,1.05,2.88,1.99,4.43,2.84,1.14.63,2.32,1.18,3.53,1.69.35-.59.81-1.14,1.35-1.66,1.01-.96,2.34-1.79,3.9-2.45-.53-1.17-.83-2.46-.83-3.82v-8.42c0-1.61.66-3.08,1.72-4.14,1.06-1.06,2.53-1.72,4.14-1.72h6.92c1.62,0,3.08.66,4.14,1.72,1.06,1.06,1.72,2.53,1.72,4.14v8.42h0Zm-2.47,6.31c-1.77,1.92-4.24,3.02-6.85,3.02s-5.09-1.1-6.85-3.02c-1.46.54-2.67,1.26-3.53,2.08-.83.79-1.31,1.68-1.31,2.58v5.68h23.39v-5.68c0-.91-.48-1.8-1.32-2.59-.86-.81-2.07-1.52-3.52-2.07h0Zm-32.11-58.11c-.58.56-1.51.54-2.07-.04-.56-.58-.54-1.51.04-2.07,1.16-1.12,2.38-2.16,3.66-3.12,1.06-.79,2.18-1.54,3.34-2.24.38-5,2.56-9.49,5.9-12.83,3.68-3.68,8.76-5.96,14.38-5.96s10.7,2.28,14.38,5.96c3.32,3.32,5.49,7.78,5.89,12.73,1.15.7,2.25,1.47,3.32,2.28,1.28.97,2.51,2.03,3.67,3.17.58.56.59,1.48.03,2.07-.56.58-1.49.59-2.07.03-1.08-1.05-2.22-2.03-3.41-2.93-.51-.39-1.03-.76-1.55-1.12-.45,5.56-2.94,9.35-5.33,12.97-2.16,3.28-4.23,6.43-4.26,10.65v6.77c0,1.95-.79,3.72-2.08,5-1.28,1.28-3.05,2.08-4.99,2.08h-7.21c-1.95,0-3.72-.8-5-2.08-1.28-1.28-2.08-3.05-2.08-5v-6.77c-.03-4.22-2.1-7.37-4.26-10.65-2.38-3.61-4.86-7.37-5.32-12.9-.55.37-1.09.75-1.61,1.14-1.21.9-2.34,1.86-3.39,2.87h0Zm17.51,24.09h15.5v-2.97h-15.5v2.97Zm15.44,2.93h-15.38c.15.86.56,1.63,1.16,2.22.75.75,1.79,1.22,2.93,1.22h7.21c1.13,0,2.17-.47,2.92-1.22.59-.59,1.01-1.36,1.16-2.22h0Zm-9.1-21.75c-.24-.87-.65-2.07-1.12-3.44-1.32-3.83-3.08-8.92-3.08-12.77s1.41-6.33,5.62-6.33,5.63,2.64,5.63,6.33-1.76,8.94-3.08,12.77c-.48,1.37-.89,2.58-1.13,3.45-.21.78-1.01,1.23-1.79,1.02-.53-.14-.9-.55-1.03-1.04h0Zm-1.28-16.21c0,3.2,1.48,7.66,2.69,11.18,1.22-3.53,2.7-7.98,2.7-11.18,0-1.98-.68-3.4-2.7-3.4-2.02,0-2.69,1.42-2.69,3.4h0Zm1.23,21.38c0-.81.65-1.46,1.46-1.46s1.47.65,1.47,1.46v1.52c0,.81-.66,1.46-1.47,1.46s-1.46-.65-1.46-1.46v-1.52Zm-6.36,7.76h15.65c.39-4.38,2.49-7.58,4.68-10.91,2.4-3.64,4.91-7.46,4.91-13.19,0-4.81-1.95-9.16-5.1-12.31-3.15-3.15-7.5-5.1-12.31-5.1s-9.16,1.95-12.31,5.1c-3.15,3.15-5.1,7.5-5.1,12.31,0,5.74,2.51,9.55,4.91,13.19,2.19,3.33,4.3,6.53,4.68,10.91h0Z"/>
    </g>
  </g>
</svg>