<?xml version="1.0" encoding="UTF-8"?>
<svg id="Layer_2" data-name="Layer 2" xmlns="http://www.w3.org/2000/svg" xmlns:xlink="http://www.w3.org/1999/xlink" viewBox="0 0 120 120">
  <defs>
    <style>
      .cls-1 {
        fill: url(#Razorswift_Gradient-2);
      }

      .cls-1, .cls-2, .cls-3, .cls-4, .cls-5, .cls-6, .cls-7 {
        stroke-width: 0px;
      }

      .cls-2 {
        fill: url(#Razorswift_Gradient-5);
      }

      .cls-3 {
        fill: none;
      }

      .cls-4 {
        fill: url(#Razorswift_Gradient);
      }

      .cls-5 {
        fill: url(#Razorswift_Gradient-6);
      }

      .cls-6 {
        fill: url(#Razorswift_Gradient-4);
      }

      .cls-7 {
        fill: url(#Razorswift_Gradient-3);
      }
    </style>
    <linearGradient id="Razorswift_Gradient" data-name="Razorswift Gradient" x1="51.93" y1="81.89" x2="54.86" y2="81.89" gradientUnits="userSpaceOnUse">
      <stop offset="0" stop-color="#682376"/>
      <stop offset="1" stop-color="#a52973"/>
    </linearGradient>
    <linearGradient id="Razorswift_Gradient-2" data-name="Razorswift Gradient" x1="84.34" y1="60.38" x2="87.27" y2="60.38" xlink:href="#Razorswift_Gradient"/>
    <linearGradient id="Razorswift_Gradient-3" data-name="Razorswift Gradient" x1="23.8" y1="103.02" x2="26.73" y2="103.02" xlink:href="#Razorswift_Gradient"/>
    <linearGradient id="Razorswift_Gradient-4" data-name="Razorswift Gradient" x1="84.46" y1="65.39" x2="96.02" y2="65.39" xlink:href="#Razorswift_Gradient"/>
    <linearGradient id="Razorswift_Gradient-5" data-name="Razorswift Gradient" x1="52.1" y1="86.96" x2="63.67" y2="86.96" xlink:href="#Razorswift_Gradient"/>
    <linearGradient id="Razorswift_Gradient-6" data-name="Razorswift Gradient" x1="10" y1="60" x2="110" y2="60" xlink:href="#Razorswift_Gradient"/>
  </defs>
  <g id="Layer_2-2" data-name="Layer 2">
    <g>
      <rect class="cls-3" width="120" height="120"/>
      <rect class="cls-3" x="10" y="10" width="100" height="100"/>
      <g>
        <circle class="cls-4" cx="53.39" cy="81.89" r="1.46"/>
        <circle class="cls-1" cx="85.8" cy="60.38" r="1.46"/>
        <circle class="cls-7" cx="25.26" cy="103.02" r="1.46"/>
        <path class="cls-6" d="m94.56,63.93h-8.64c-.81,0-1.46.66-1.46,1.46s.66,1.46,1.46,1.46h8.64c.81,0,1.46-.66,1.46-1.46s-.66-1.46-1.46-1.46Z"/>
        <path class="cls-2" d="m53.57,88.43h8.64c.81,0,1.46-.66,1.46-1.46s-.66-1.46-1.46-1.46h-8.64c-.81,0-1.46.66-1.46,1.46s.66,1.46,1.46,1.46h0Z"/>
        <path class="cls-5" d="m99.86,48.71c.43-.55.82-1.14,1.15-1.76l8.64-14.96c.73-1.26.3-2.87-.96-3.6-1.35-.78-2.92-.99-4.43-.59-.63.17-1.22.44-1.74.79v-5.05l2.07,2.07c.44.44,1.07.6,1.66.42.59-.18,1.03-.67,1.15-1.27l2.52-12.78c.11-.55-.06-1.11-.46-1.5-.39-.39-.95-.56-1.5-.46l-11.5,2.27c-.72-1.33-2.13-2.22-3.73-2.22-2.1,0-3.84,1.53-4.18,3.53-.47-.16-.97-.24-1.48-.22-2.14.06-3.91,1.78-4.1,3.91-.42-.14-.86-.21-1.32-.21-2.34,0-4.24,1.9-4.24,4.24v4.37c0,.81.66,1.46,1.46,1.46s1.46-.66,1.46-1.46v-4.37c0-.72.59-1.31,1.31-1.31s1.31.59,1.31,1.31v7.87c0,.52.27.98.68,1.24l-3.29,3.29v-1.19c0-.81-.66-1.46-1.46-1.46s-1.46.66-1.46,1.46v4.12l-7.26,7.26v-4.71c0-2.34-1.9-4.24-4.24-4.24-.48,0-.94.08-1.36.23-.34-2-2.08-3.53-4.18-3.53s-3.84,1.53-4.18,3.53c-.47-.16-.97-.24-1.48-.22-2.14.06-3.91,1.78-4.1,3.91-.42-.14-.86-.21-1.32-.21-2.34,0-4.24,1.9-4.24,4.24v4.67l-9.33,9.33c-.74-.71-1.72-1.15-2.8-1.18-.51-.01-1.01.06-1.48.22-.34-2-2.08-3.53-4.18-3.53s-3.84,1.53-4.18,3.53c-.43-.15-.89-.23-1.36-.23-2.34,0-4.24,1.9-4.24,4.24v10.97c-.53-.35-1.11-.62-1.74-.79-1.51-.4-3.08-.2-4.43.59-1.26.73-1.69,2.34-.96,3.6l2.91,5.04-2.52,2.52c-.64.64-.64,1.69,0,2.34l3.55,3.55c.64.64,1.69.64,2.34,0l.94-.94,1.42,2.46c.33.61.72,1.2,1.15,1.76.69.88,1.06,2,1.06,3.16v1.77s-.98,0-.98,0c-.91,0-1.64.74-1.64,1.64v10.74c0,.91.74,1.64,1.64,1.64h19.07c.91,0,1.64-.74,1.64-1.64v-10.74c0-.91-.74-1.64-1.64-1.64h-.42v-1.77c0-1.16.38-2.29,1.08-3.18,1.72-2.22,2.64-4.88,2.64-7.7v-19.67c0-.54-.1-1.07-.3-1.56l2.76-2.76v3.23c0,2.82.91,5.48,2.64,7.7.7.9,1.08,2.03,1.08,3.18v1.77s-.42,0-.42,0c-.91,0-1.64.74-1.64,1.64v31.5c0,.91.74,1.64,1.64,1.64h19.07c.91,0,1.64-.74,1.64-1.64v-6.18c0-.81-.66-1.46-1.46-1.46s-1.46.66-1.46,1.46v4.89h-16.49v-28.92h16.49v17.2c0,.81.66,1.46,1.46,1.46s1.46-.66,1.46-1.46v-18.48c0-.91-.74-1.64-1.64-1.64h-.98v-1.77c0-1.16.38-2.28,1.06-3.16.43-.55.82-1.14,1.15-1.76l8.64-14.96c.72-1.25.3-2.87-.95-3.59-.1-.06-.21-.12-.31-.17l2.87-2.87c.33.62.71,1.2,1.15,1.76.7.9,1.08,2.03,1.08,3.18v1.77h-.42c-.91,0-1.64.74-1.64,1.64v53.07c0,.91.74,1.64,1.64,1.64h19.07c.91,0,1.64-.74,1.64-1.64v-53.07c0-.91-.74-1.64-1.64-1.64h-.98v-1.77c0-1.16.38-2.28,1.06-3.16h0Zm6.82-35.44l-1.7,8.6-1.41-1.41c-.31-.31-.73-.48-1.17-.48s-.86.17-1.17.48c-4.59,4.59-25.37,25.37-28.81,28.81-1.7.29-3.2,1.32-4.07,2.84-.13.23.54-.94-1.69,2.93l-1.07,1.07c-1.02-.36-2.1-.47-3.12-.36l37.15-37.15c.57-.57.57-1.5,0-2.07l-1.54-1.54,8.6-1.7Zm-15.25,1.04c0-.72.59-1.31,1.31-1.31.51,0,.96.29,1.17.73-.12.42-.07.86.14,1.24v5.05l-2.61,2.61v-8.32h0Zm-5.54,3.37c0-.73.57-1.34,1.27-1.36.36,0,.69.12.95.37.26.25.4.58.4.94v7.94l-2.61,2.61v-10.5Zm-19.96,20.21c.72,0,1.31.59,1.31,1.31v7.64l-2.61,2.61v-10.26c0-.72.59-1.31,1.31-1.31Zm-6.85-2c0-.72.59-1.31,1.31-1.31s1.31.59,1.31,1.31v14.88c0,.44.2.84.51,1.11l-1.25,1.25-1.93-1.93c.04-.14.06-.28.06-.43v-14.88Zm-5.54,3.37c0-.73.57-1.34,1.27-1.36.36,0,.69.12.95.37.26.25.4.58.4.94v9.13l-2.61-2.61v-6.46Zm-5.54,3.65c0-.72.59-1.31,1.31-1.31s1.31.59,1.31,1.31v.17c-.49-.13-1.03,0-1.42.38l-1.2,1.2v-1.74Zm-16.08,16.12c.25-.25.59-.38.95-.37.3,0,.58.13.8.32l-2.15,2.15v-1.16c0-.36.14-.69.4-.94Zm-5.94-2.37c0-.72.59-1.31,1.31-1.31s1.31.59,1.31,1.31v7.4l-2.61,2.61v-10.02Zm-4.24,2c.72,0,1.31.59,1.31,1.31v9.64l-2.61,2.61v-12.25c0-.72.59-1.31,1.31-1.31h0Zm-6.27,26.14l-1.74-1.74,1.06-1.06,1.27,2.21-.6.6Zm22.55,22.28h-16.49v-8.17h16.49v8.17Zm1.66-23.75c0,2.16-.7,4.2-2.02,5.9-1.09,1.41-1.7,3.18-1.7,4.98v1.77h-11.81v-1.77c0-1.81-.6-3.57-1.68-4.97-.34-.44-.65-.91-.91-1.4-.9-1.56-7.2-12.47-8.5-14.71.61-.28,1.29-.33,1.94-.16.75.2,1.38.68,1.77,1.35.88,1.53,2.23,3.86,3.11,5.39.21.36.56.61.97.7.41.09.83,0,1.17-.25.7-.51,1.53-.78,2.4-.78,2.26,0,4.09,1.83,4.09,4.08,0,1.09-.42,2.11-1.2,2.89-.57.57-.57,1.5,0,2.07.57.57,1.5.57,2.07,0,1.32-1.32,2.05-3.08,2.05-4.96,0-2.83-1.69-5.27-4.11-6.38l6.81-6.81v1.25c0,.81.66,1.46,1.46,1.46s1.46-.66,1.46-1.46v-4.18l2.61-2.61v18.6h0Zm26.42-16.21c-.26.48-.56.93-.89,1.36-1.09,1.39-1.68,3.16-1.68,4.97v1.77h-11.81v-1.77c0-1.8-.6-3.57-1.7-4.98-1.32-1.7-2.02-3.74-2.02-5.9v-6.16l2.23-2.23.22.22c.57.57,1.5.57,2.07,0,.57-.57.57-1.5,0-2.07l-1.26-1.26c-.57-.57-1.5-.57-2.07,0-10.61,10.61-14.28,14.28-25.41,25.41-.72.06-1.42.24-2.08.52l-.7-1.22c8.89-8.89,19.89-19.89,29.24-29.24l9.68,9.68c.07.07.15.13.23.19-.76.38-1.44.89-2.02,1.51l-.57-.57c-.57-.57-1.5-.57-2.07,0-.57.57-.57,1.5,0,2.07l1.11,1.11c-.22.68-.34,1.41-.34,2.17,0,1.87.73,3.63,2.05,4.96.57.57,1.5.57,2.07,0,.57-.57.57-1.5,0-2.07-.77-.77-1.2-1.8-1.2-2.89,0-.68.16-1.31.46-1.87.68-1.31,2.05-2.21,3.62-2.21.87,0,1.71.28,2.4.78.34.25.76.34,1.17.25.41-.09.76-.34.97-.7.01-.02,3.15-5.45,3.11-5.39.75-1.29,2.36-1.81,3.71-1.2-8.7,15.07-8.5,14.72-8.52,14.75h0Zm32.41,39.95h-16.49v-50.5h16.49v50.5Zm-14.43-53.43v-1.77c0-1.8-.6-3.57-1.7-4.98-.52-.66-.94-1.39-1.26-2.16l18.49-18.49v6.23l-1.26,2.19c-.85-.36-1.77-.55-2.72-.55-3.87,0-7.01,3.14-7.01,7.01,0,1.87.73,3.63,2.05,4.96.57.57,1.5.57,2.07,0,.57-.57.57-1.5,0-2.07-.77-.77-1.2-1.8-1.2-2.89,0-2.25,1.83-4.08,4.08-4.08.87,0,1.7.27,2.4.78.34.25.76.34,1.17.25.41-.09.76-.34.97-.7.87-1.51,2.21-3.83,3.11-5.39.39-.67,1.02-1.15,1.77-1.35.65-.18,1.33-.12,1.94.16-8.74,15.13-8.5,14.72-8.52,14.75-.26.48-.56.93-.89,1.36-1.09,1.39-1.68,3.16-1.68,4.97v1.77h-11.81Z"/>
      </g>
    </g>
  </g>
</svg>