<svg xmlns="http://www.w3.org/2000/svg" xmlns:xlink="http://www.w3.org/1999/xlink" width="667" height="386" viewBox="0 0 667 386">
  <defs>
    <clipPath id="clip-path">
      <rect id="Rectangle_1264" data-name="Rectangle 1264" width="667" height="386" transform="translate(624.397 305.932)" fill="#fff" stroke="#707070" stroke-width="1"/>
    </clipPath>
    <clipPath id="clip-path-2">
      <rect id="Rectangle_1429" data-name="Rectangle 1429" width="95.392" height="179.728" fill="none"/>
    </clipPath>
    <clipPath id="clip-path-5">
      <rect id="Rectangle_1436" data-name="Rectangle 1436" width="89.918" height="16.622" fill="none"/>
    </clipPath>
    <clipPath id="clip-path-7">
      <rect id="Rectangle_1438" data-name="Rectangle 1438" width="89.917" height="16.622" fill="none"/>
    </clipPath>
    <clipPath id="clip-path-8">
      <rect id="Rectangle_1439" data-name="Rectangle 1439" width="128.735" height="209.659" fill="none"/>
    </clipPath>
    <clipPath id="clip-path-9">
      <rect id="Rectangle_1442" data-name="Rectangle 1442" width="150.224" height="78.147" fill="none"/>
    </clipPath>
    <clipPath id="clip-path-10">
      <rect id="Rectangle_1444" data-name="Rectangle 1444" width="33.966" height="25.468" fill="none"/>
    </clipPath>
    <clipPath id="clip-path-11">
      <rect id="Rectangle_1445" data-name="Rectangle 1445" width="8.304" height="31.795" fill="none"/>
    </clipPath>
  </defs>
  <g id="partners-banner" transform="translate(-624.397 -305.932)" clip-path="url(#clip-path)">
    <g id="Group_1265" data-name="Group 1265" transform="translate(-14610.79 -1134.771)">
      <path id="Path_5091" data-name="Path 5091" d="M292.732,391.8C180.942,247.281,316.294,186.3,336.9,92.426,357.614-1.959,460-2.8,545.582,54.578s168.293,124.784,110.93,220.11c-49.71,82.608-41.525,76.947-34,117.115Z" transform="translate(15097.215 1432)" fill="#dd94c6"/>
      <path id="Path_5092" data-name="Path 5092" d="M585.446,384.467a7.891,7.891,0,1,1-7.891-7.891,7.891,7.891,0,0,1,7.891,7.891" transform="translate(15035.799 1362.874)" fill="#ce5fb2"/>
      <path id="Path_5093" data-name="Path 5093" d="M611.688,384.467a7.891,7.891,0,1,1-7.891-7.891,7.891,7.891,0,0,1,7.891,7.891" transform="translate(15030.771 1362.874)" fill="#ce5fb2"/>
      <path id="Path_5094" data-name="Path 5094" d="M637.929,384.467a7.891,7.891,0,1,1-7.891-7.891,7.891,7.891,0,0,1,7.891,7.891" transform="translate(15025.746 1362.874)" fill="#ce5fb2"/>
      <path id="Path_5095" data-name="Path 5095" d="M664.17,384.467a7.891,7.891,0,1,1-7.891-7.891,7.891,7.891,0,0,1,7.891,7.891" transform="translate(15020.721 1362.874)" fill="#ce5fb2"/>
      <path id="Path_5096" data-name="Path 5096" d="M585.446,412.413a7.891,7.891,0,1,1-7.891-7.891,7.891,7.891,0,0,1,7.891,7.891" transform="translate(15035.799 1357.522)" fill="#ce5fb2"/>
      <path id="Path_5097" data-name="Path 5097" d="M611.688,412.413a7.891,7.891,0,1,1-7.891-7.891,7.891,7.891,0,0,1,7.891,7.891" transform="translate(15030.771 1357.522)" fill="#ce5fb2"/>
      <path id="Path_5098" data-name="Path 5098" d="M637.929,412.413a7.891,7.891,0,1,1-7.891-7.891,7.891,7.891,0,0,1,7.891,7.891" transform="translate(15025.746 1357.522)" fill="#ce5fb2"/>
      <path id="Path_5099" data-name="Path 5099" d="M664.17,412.413a7.891,7.891,0,1,1-7.891-7.891,7.891,7.891,0,0,1,7.891,7.891" transform="translate(15020.721 1357.522)" fill="#ce5fb2"/>
      <path id="Path_5100" data-name="Path 5100" d="M585.446,440.359a7.891,7.891,0,1,1-7.891-7.891,7.891,7.891,0,0,1,7.891,7.891" transform="translate(15035.799 1352.17)" fill="#ce5fb2"/>
      <path id="Path_5101" data-name="Path 5101" d="M611.688,440.359a7.891,7.891,0,1,1-7.891-7.891,7.891,7.891,0,0,1,7.891,7.891" transform="translate(15030.771 1352.17)" fill="#ce5fb2"/>
      <path id="Path_5102" data-name="Path 5102" d="M637.929,440.359a7.891,7.891,0,1,1-7.891-7.891,7.891,7.891,0,0,1,7.891,7.891" transform="translate(15025.746 1352.17)" fill="#ce5fb2"/>
      <path id="Path_5103" data-name="Path 5103" d="M664.17,440.359a7.891,7.891,0,1,1-7.891-7.891,7.891,7.891,0,0,1,7.891,7.891" transform="translate(15020.721 1352.17)" fill="#ce5fb2"/>
      <path id="Path_5104" data-name="Path 5104" d="M479.987,36.846a7.891,7.891,0,1,1-7.891-7.891,7.891,7.891,0,0,1,7.891,7.891" transform="translate(15055.997 1429.453)" fill="#ce5fb2"/>
      <path id="Path_5105" data-name="Path 5105" d="M506.228,36.846a7.891,7.891,0,1,1-7.891-7.891,7.891,7.891,0,0,1,7.891,7.891" transform="translate(15050.97 1429.453)" fill="#ce5fb2"/>
      <path id="Path_5106" data-name="Path 5106" d="M532.47,36.846a7.891,7.891,0,1,1-7.891-7.891,7.891,7.891,0,0,1,7.891,7.891" transform="translate(15045.944 1429.453)" fill="#ce5fb2"/>
      <path id="Path_5107" data-name="Path 5107" d="M453.746,64.792a7.891,7.891,0,1,1-7.891-7.891,7.891,7.891,0,0,1,7.891,7.891" transform="translate(15061.023 1424.101)" fill="#ce5fb2"/>
      <path id="Path_5108" data-name="Path 5108" d="M479.987,64.792A7.891,7.891,0,1,1,472.1,56.9a7.891,7.891,0,0,1,7.891,7.891" transform="translate(15055.997 1424.101)" fill="#ce5fb2"/>
      <path id="Path_5109" data-name="Path 5109" d="M506.228,64.792a7.891,7.891,0,1,1-7.891-7.891,7.891,7.891,0,0,1,7.891,7.891" transform="translate(15050.97 1424.101)" fill="#ce5fb2"/>
      <path id="Path_5110" data-name="Path 5110" d="M532.47,64.792A7.891,7.891,0,1,1,524.58,56.9a7.891,7.891,0,0,1,7.891,7.891" transform="translate(15045.944 1424.101)" fill="#ce5fb2"/>
      <path id="Path_5111" data-name="Path 5111" d="M453.746,92.738a7.891,7.891,0,1,1-7.891-7.891,7.891,7.891,0,0,1,7.891,7.891" transform="translate(15061.023 1418.748)" fill="#ce5fb2"/>
      <path id="Path_5112" data-name="Path 5112" d="M479.987,92.738a7.891,7.891,0,1,1-7.891-7.891,7.891,7.891,0,0,1,7.891,7.891" transform="translate(15055.997 1418.748)" fill="#ce5fb2"/>
      <path id="Path_5113" data-name="Path 5113" d="M506.228,92.738a7.891,7.891,0,1,1-7.891-7.891,7.891,7.891,0,0,1,7.891,7.891" transform="translate(15050.97 1418.748)" fill="#ce5fb2"/>
      <path id="Path_5114" data-name="Path 5114" d="M532.47,92.738a7.891,7.891,0,1,1-7.891-7.891,7.891,7.891,0,0,1,7.891,7.891" transform="translate(15045.944 1418.748)" fill="#ce5fb2"/>
      <path id="Path_5115" data-name="Path 5115" d="M540.23,457.7a27.56,27.56,0,0,1-22.954-27.085,27.9,27.9,0,0,1,.665-6.02l1.39-6.455,6.093-28.284h-99.8l-6.113,28.284-2.562,11.849a27.508,27.508,0,0,0,26.853,33.48H544.8v-5.394a27.5,27.5,0,0,1-4.571-.375m-77.482-48.1a16.937,16.937,0,0,1,16.216-14.174,13.481,13.481,0,0,1,3.05.342c6.139,1.41,10.065,7.068,9.083,13.832a16.319,16.319,0,0,1-4.084,8.537,17.014,17.014,0,0,1-9.011,5.3,14.573,14.573,0,0,1-3.122.343,12,12,0,0,1-10.5-5.638,12.675,12.675,0,0,1-1.633-8.537" transform="translate(15065.174 1360.331)" fill="#c5c8d8"/>
      <path id="Path_5116" data-name="Path 5116" d="M540.23,457.7a27.56,27.56,0,0,1-22.954-27.085,27.9,27.9,0,0,1,.665-6.02l1.39-6.455,6.093-28.284h-99.8l-6.113,28.284-2.562,11.849a27.508,27.508,0,0,0,26.853,33.48H544.8v-5.394A27.5,27.5,0,0,1,540.23,457.7Zm-77.482-48.1a16.937,16.937,0,0,1,16.216-14.174,13.481,13.481,0,0,1,3.05.342c6.139,1.41,10.065,7.068,9.083,13.832a16.319,16.319,0,0,1-4.084,8.537,17.014,17.014,0,0,1-9.011,5.3,14.573,14.573,0,0,1-3.122.343,12,12,0,0,1-10.5-5.638A12.675,12.675,0,0,1,462.747,409.6Z" transform="translate(15065.174 1360.331)" fill="none" stroke="#000" stroke-width="2"/>
      <path id="Path_5117" data-name="Path 5117" d="M544.662,451.785a27.079,27.079,0,0,1-3.834-3.689,27.614,27.614,0,0,1-3.945-6.04c-.316-.665-.613-1.35-.876-2.041a26.375,26.375,0,0,1-1.436-5.263,27.391,27.391,0,0,1,.284-10.532l1.311-6.079,6.086-28.284H433.076l-6.126,28.284-2.859,13.206a22.012,22.012,0,0,0-.158,8.668,19.515,19.515,0,0,0,.487,2.041,21.434,21.434,0,0,0,2.819,6.04,21.741,21.741,0,0,0,3.122,3.689,21.48,21.48,0,0,0,14.873,5.915h116.48a27.293,27.293,0,0,1-17.052-5.915M470.314,409.6a17.057,17.057,0,0,1,13.094-13.832,14.585,14.585,0,0,1,3.122-.342c7.832,0,13.265,6.343,12.133,14.174a16.274,16.274,0,0,1-4.09,8.537,16.568,16.568,0,0,1-12.126,5.638,13.475,13.475,0,0,1-3.05-.343,11.654,11.654,0,0,1-7.449-5.3,12.671,12.671,0,0,1-1.634-8.537" transform="translate(15063.778 1360.331)" fill="#fff"/>
      <path id="Path_5118" data-name="Path 5118" d="M544.662,451.785a27.079,27.079,0,0,1-3.834-3.689,27.614,27.614,0,0,1-3.945-6.04c-.316-.665-.613-1.35-.876-2.041a26.375,26.375,0,0,1-1.436-5.263,27.391,27.391,0,0,1,.284-10.532l1.311-6.079,6.086-28.284H433.076l-6.126,28.284-2.859,13.206a22.012,22.012,0,0,0-.158,8.668,19.515,19.515,0,0,0,.487,2.041,21.434,21.434,0,0,0,2.819,6.04,21.741,21.741,0,0,0,3.122,3.689,21.48,21.48,0,0,0,14.873,5.915h116.48A27.293,27.293,0,0,1,544.662,451.785ZM470.314,409.6a17.057,17.057,0,0,1,13.094-13.832,14.585,14.585,0,0,1,3.122-.342c7.832,0,13.265,6.343,12.133,14.174a16.274,16.274,0,0,1-4.09,8.537,16.568,16.568,0,0,1-12.126,5.638,13.475,13.475,0,0,1-3.05-.343,11.654,11.654,0,0,1-7.449-5.3A12.671,12.671,0,0,1,470.314,409.6Z" transform="translate(15063.778 1360.331)" fill="none" stroke="#000" stroke-width="2"/>
      <rect id="Rectangle_1424" data-name="Rectangle 1424" width="114.581" height="5.769" transform="translate(15530.276 1818.031)" fill="#fff"/>
      <rect id="Rectangle_1425" data-name="Rectangle 1425" width="114.581" height="5.769" transform="translate(15530.276 1818.031)" fill="none" stroke="#000" stroke-width="2"/>
      <path id="Path_5119" data-name="Path 5119" d="M541.908,389.859l-4.871,22.647H491.444a16.517,16.517,0,0,0,.7-2.906c.987-6.763-2.943-12.42-9.084-13.827A17.044,17.044,0,0,0,469.976,409.6a14.224,14.224,0,0,0-.128,2.906h-48.06l4.89-22.647Z" transform="translate(15064.121 1360.33)" fill="#c5c8d8"/>
      <path id="Path_5120" data-name="Path 5120" d="M541.908,389.859l-4.871,22.647H491.444a16.517,16.517,0,0,0,.7-2.906c.987-6.763-2.943-12.42-9.084-13.827A17.044,17.044,0,0,0,469.976,409.6a14.224,14.224,0,0,0-.128,2.906h-48.06l4.89-22.647Z" transform="translate(15064.121 1360.33)" fill="none" stroke="#000" stroke-width="2"/>
      <path id="Path_5121" data-name="Path 5121" d="M632.625,98.4H297.571a14.245,14.245,0,0,0-14.245,14.245v215.6a14.245,14.245,0,0,0,14.245,14.245H632.625a14.246,14.246,0,0,0,14.245-14.245v-215.6A14.246,14.246,0,0,0,632.625,98.4" transform="translate(15090.64 1416.153)" fill="#ba7f7f"/>
      <rect id="Rectangle_1426" data-name="Rectangle 1426" width="363.544" height="244.088" rx="17.62" transform="translate(15373.966 1514.551)" fill="none" stroke="#000" stroke-width="2"/>
      <path id="Path_5122" data-name="Path 5122" d="M656.41,112.96V327.927a14.623,14.623,0,0,1-14.684,14.558H307.551a14.623,14.623,0,0,1-14.684-14.558V112.96A14.618,14.618,0,0,1,307.551,98.4H641.726a14.643,14.643,0,0,1,14.435,11.9,14,14,0,0,1,.25,2.661" transform="translate(15088.813 1416.152)" fill="#efbebd"/>
      <path id="Path_5123" data-name="Path 5123" d="M656.41,112.96V327.927a14.623,14.623,0,0,1-14.684,14.558H307.551a14.623,14.623,0,0,1-14.684-14.558V112.96A14.618,14.618,0,0,1,307.551,98.4H641.726a14.643,14.643,0,0,1,14.435,11.9A14,14,0,0,1,656.41,112.96Z" transform="translate(15088.813 1416.152)" fill="none" stroke="#000" stroke-width="2"/>
      <path id="Path_5124" data-name="Path 5124" d="M639.966,107.758H313.058a10.747,10.747,0,0,0-10.747,10.747v207.46a10.747,10.747,0,0,0,10.747,10.747H639.966a10.748,10.748,0,0,0,10.747-10.747V118.505a10.747,10.747,0,0,0-10.747-10.747" transform="translate(15087.004 1414.36)" fill="#ba7f7f"/>
      <rect id="Rectangle_1427" data-name="Rectangle 1427" width="348.402" height="228.954" rx="13.293" transform="translate(15389.314 1522.119)" fill="none" stroke="#000" stroke-width="2"/>
      <path id="Path_5125" data-name="Path 5125" d="M633.853,113.716h-320.8a10.746,10.746,0,0,0-10.746,10.747V327.106a10.746,10.746,0,0,0,10.746,10.746h320.8A10.747,10.747,0,0,0,644.6,327.106V124.463a10.747,10.747,0,0,0-10.747-10.747" transform="translate(15087.004 1413.219)" fill="#f0f1f5"/>
      <path id="Rectangle_1428" data-name="Rectangle 1428" d="M13.293,0H329a13.292,13.292,0,0,1,13.292,13.292V210.844A13.292,13.292,0,0,1,329,224.136H13.293A13.293,13.293,0,0,1,0,210.843V13.293A13.293,13.293,0,0,1,13.293,0Z" transform="translate(15389.315 1526.935)" fill="none" stroke="#000" stroke-width="2"/>
      <path id="Path_5126" data-name="Path 5126" d="M644.6,124.978v1.855H302.309v-1.855a11.263,11.263,0,0,1,11.263-11.263H633.334A11.263,11.263,0,0,1,644.6,124.978" transform="translate(15087.004 1413.219)" fill="#fb847d"/>
      <path id="Path_5127" data-name="Path 5127" d="M644.6,124.978v1.855H302.309v-1.855a11.263,11.263,0,0,1,11.263-11.263H633.334A11.263,11.263,0,0,1,644.6,124.978Z" transform="translate(15087.004 1413.219)" fill="none" stroke="#000" stroke-width="2"/>
      <path id="Path_5128" data-name="Path 5128" d="M320.268,121.092a3.108,3.108,0,1,1-3.108-3.108,3.108,3.108,0,0,1,3.108,3.108" transform="translate(15084.756 1412.402)" fill="#fff"/>
      <path id="Path_5129" data-name="Path 5129" d="M333.774,121.092a3.108,3.108,0,1,1-3.108-3.108,3.108,3.108,0,0,1,3.108,3.108" transform="translate(15082.169 1412.402)" fill="#fff"/>
      <path id="Path_5130" data-name="Path 5130" d="M347.28,121.092a3.108,3.108,0,1,1-3.108-3.108,3.108,3.108,0,0,1,3.108,3.108" transform="translate(15079.582 1412.402)" fill="#fff"/>
      <g id="Group_1221" data-name="Group 1221" transform="translate(15611.954 1552.338)" opacity="0.3" style="mix-blend-mode: multiply;isolation: isolate">
        <g id="Group_1220" data-name="Group 1220" transform="translate(0)">
          <g id="Group_1219" data-name="Group 1219" clip-path="url(#clip-path-2)">
            <path id="Path_5131" data-name="Path 5131" d="M664.631,145.137H586.147a8.454,8.454,0,0,0-8.454,8.454v162.82a8.454,8.454,0,0,0,8.454,8.454h78.483a8.454,8.454,0,0,0,8.454-8.454V153.591a8.454,8.454,0,0,0-8.454-8.454" transform="translate(-577.693 -145.137)" fill="#c5c8d8"/>
          </g>
        </g>
      </g>
      <path id="Path_5132" data-name="Path 5132" d="M591.216,147.078V310.831a9.9,9.9,0,0,0,9.9,9.9h82.823a9.891,9.891,0,0,0,9.9-9.89V147.072a9.883,9.883,0,0,0-9.886-9.89H601.1a9.888,9.888,0,0,0-9.887,9.9" transform="translate(15031.671 1408.725)" fill="#fbfbfc"/>
      <g id="Group_1224" data-name="Group 1224" transform="translate(15504.761 1552.338)" opacity="0.3" style="mix-blend-mode: multiply;isolation: isolate">
        <g id="Group_1223" data-name="Group 1223" transform="translate(0)">
          <g id="Group_1222" data-name="Group 1222" clip-path="url(#clip-path-2)">
            <path id="Path_5133" data-name="Path 5133" d="M532.044,145.137H453.561a8.454,8.454,0,0,0-8.454,8.454v162.82a8.454,8.454,0,0,0,8.454,8.454h78.483a8.454,8.454,0,0,0,8.454-8.454V153.591a8.454,8.454,0,0,0-8.454-8.454" transform="translate(-445.107 -145.137)" fill="#c5c8d8"/>
          </g>
        </g>
      </g>
      <path id="Path_5134" data-name="Path 5134" d="M457.3,147.078V310.831a9.9,9.9,0,0,0,9.9,9.9H550.02a9.891,9.891,0,0,0,9.9-9.89V147.072a9.882,9.882,0,0,0-9.886-9.89H467.188a9.888,9.888,0,0,0-9.887,9.9" transform="translate(15057.319 1408.725)" fill="#fff"/>
      <g id="Group_1227" data-name="Group 1227" transform="translate(15396.968 1552.338)" opacity="0.3" style="mix-blend-mode: multiply;isolation: isolate">
        <g id="Group_1226" data-name="Group 1226" transform="translate(0)">
          <g id="Group_1225" data-name="Group 1225" clip-path="url(#clip-path-2)">
            <path id="Path_5135" data-name="Path 5135" d="M398.714,145.137H320.231a8.454,8.454,0,0,0-8.454,8.454v162.82a8.454,8.454,0,0,0,8.454,8.454h78.483a8.454,8.454,0,0,0,8.454-8.454V153.591a8.454,8.454,0,0,0-8.454-8.454" transform="translate(-311.777 -145.137)" fill="#c5c8d8"/>
          </g>
        </g>
      </g>
      <path id="Path_5136" data-name="Path 5136" d="M322.636,147.078V310.831a9.9,9.9,0,0,0,9.9,9.9h82.823a9.891,9.891,0,0,0,9.9-9.89V147.072a9.882,9.882,0,0,0-9.886-9.89H332.523a9.888,9.888,0,0,0-9.887,9.9" transform="translate(15083.111 1408.725)" fill="#fbfbfc"/>
      <line id="Line_1" data-name="Line 1" x2="65.582" transform="translate(15533.137 1655.244)" fill="none" stroke="#e1e2ea" stroke-linecap="round" stroke-linejoin="round" stroke-width="5"/>
      <line id="Line_2" data-name="Line 2" x2="65.582" transform="translate(15533.137 1666.059)" fill="none" stroke="#e1e2ea" stroke-linecap="round" stroke-linejoin="round" stroke-width="5"/>
      <line id="Line_3" data-name="Line 3" x2="65.582" transform="translate(15533.137 1676.874)" fill="none" stroke="#e1e2ea" stroke-linecap="round" stroke-linejoin="round" stroke-width="5"/>
      <line id="Line_4" data-name="Line 4" x2="31.973" transform="translate(15549.94 1687.519)" fill="none" stroke="#e1e2ea" stroke-linecap="round" stroke-linejoin="round" stroke-width="5"/>
      <line id="Line_5" data-name="Line 5" x2="65.582" transform="translate(15533.137 1561.432)" fill="none" stroke="#e1e2ea" stroke-linecap="round" stroke-linejoin="round" stroke-width="5"/>
      <line id="Line_6" data-name="Line 6" x2="65.582" transform="translate(15424.263 1655.244)" fill="none" stroke="#e1e2ea" stroke-linecap="round" stroke-linejoin="round" stroke-width="5"/>
      <line id="Line_7" data-name="Line 7" x2="65.582" transform="translate(15424.263 1666.059)" fill="none" stroke="#e1e2ea" stroke-linecap="round" stroke-linejoin="round" stroke-width="5"/>
      <line id="Line_8" data-name="Line 8" x2="65.582" transform="translate(15424.263 1676.874)" fill="none" stroke="#e1e2ea" stroke-linecap="round" stroke-linejoin="round" stroke-width="5"/>
      <line id="Line_9" data-name="Line 9" x2="31.973" transform="translate(15441.067 1687.519)" fill="none" stroke="#e1e2ea" stroke-linecap="round" stroke-linejoin="round" stroke-width="5"/>
      <line id="Line_10" data-name="Line 10" x2="65.582" transform="translate(15424.263 1561.432)" fill="none" stroke="#e1e2ea" stroke-linecap="round" stroke-linejoin="round" stroke-width="5"/>
      <line id="Line_11" data-name="Line 11" x2="65.582" transform="translate(15641.403 1655.244)" fill="none" stroke="#e1e2ea" stroke-linecap="round" stroke-linejoin="round" stroke-width="5"/>
      <line id="Line_12" data-name="Line 12" x2="65.582" transform="translate(15641.403 1666.059)" fill="none" stroke="#e1e2ea" stroke-linecap="round" stroke-linejoin="round" stroke-width="5"/>
      <line id="Line_13" data-name="Line 13" x2="65.582" transform="translate(15641.403 1676.874)" fill="none" stroke="#e1e2ea" stroke-linecap="round" stroke-linejoin="round" stroke-width="5"/>
      <line id="Line_14" data-name="Line 14" x2="31.973" transform="translate(15658.206 1687.519)" fill="none" stroke="#e1e2ea" stroke-linecap="round" stroke-linejoin="round" stroke-width="5"/>
      <line id="Line_15" data-name="Line 15" x2="65.582" transform="translate(15641.403 1561.432)" fill="none" stroke="#e1e2ea" stroke-linecap="round" stroke-linejoin="round" stroke-width="5"/>
      <path id="Path_5137" data-name="Path 5137" d="M411.85,205.2A33.746,33.746,0,1,1,378.1,171.454,33.746,33.746,0,0,1,411.85,205.2" transform="translate(15078.95 1402.161)" fill="#d5d7e3"/>
      <path id="Path_5138" data-name="Path 5138" d="M395.522,231.556l-4.754-1.358v-.006l-5.324-1.674-17.275,1.408-3.911,1.045h0s-10.873.682-11.812,9.15a262.377,262.377,0,0,0-.285,41.553l12.293-4.831c.34-1.45.652-2.851.942-4.213h26.658l.283-4.606,16.82-2.52s-2.634-28.482-13.635-33.947" transform="translate(15077.59 1391.232)" fill="#a62973"/>
      <path id="Path_5139" data-name="Path 5139" d="M395.522,231.556l-4.754-1.358v-.006l-5.324-1.674-17.275,1.408-3.911,1.045h0s-10.873.682-11.812,9.15a262.377,262.377,0,0,0-.285,41.553l12.293-4.831c.34-1.45.652-2.851.942-4.213h26.658l.283-4.606,16.82-2.52s-2.634-28.482-13.635-33.947" transform="translate(15077.59 1391.232)" fill="none" stroke="#000" stroke-width="2"/>
      <path id="Path_5140" data-name="Path 5140" d="M371.129,191.715c9.115-.184,5.635-13.668-2.722-13.05s-8.114,13.269,2.722,13.05" transform="translate(15075.472 1400.784)"/>
      <path id="Path_5141" data-name="Path 5141" d="M371.129,191.715c9.115-.184,5.635-13.668-2.722-13.05S360.293,191.934,371.129,191.715Z" transform="translate(15075.472 1400.784)" fill="none" stroke="#000" stroke-width="2"/>
      <path id="Path_5142" data-name="Path 5142" d="M393.237,221.993h0c-6.334,1.691-11.843.918-11.392-10.686l11.04-.353Z" transform="translate(15071.776 1394.596)" fill="#83442d"/>
      <path id="Path_5143" data-name="Path 5143" d="M397.793,222.189a5.42,5.42,0,1,1,2.607.409,5.427,5.427,0,0,1-2.607-.409m3.793-8.946a4.3,4.3,0,1,0,2.6,3.566,4.278,4.278,0,0,0-2.6-3.566" transform="translate(15069.351 1394.438)" fill="#e89400"/>
      <path id="Path_5144" data-name="Path 5144" d="M389.585,215.224l.067-.006a9.864,9.864,0,0,0,8.934-10.715l-.745-8.22a10.582,10.582,0,0,0-11.494-9.584l-4.287.389a10.582,10.582,0,0,0-9.583,11.495l.158,1.747a3.97,3.97,0,0,0-3.075.325c-3.844,1.948-2.684,10.545,3.608,10.2l.314,9.809-10.162,2.872c9.828,17.167,31.315,13.637,34.474,0l-8.021-2.429Z" transform="translate(15075.319 1399.249)" fill="#a25943"/>
      <path id="Path_5145" data-name="Path 5145" d="M389.585,215.224l.067-.006a9.864,9.864,0,0,0,8.934-10.715l-.745-8.22a10.582,10.582,0,0,0-11.494-9.584l-4.287.389a10.582,10.582,0,0,0-9.583,11.495l.158,1.747a3.97,3.97,0,0,0-3.075.325c-3.844,1.948-2.684,10.545,3.608,10.2l.314,9.809-10.162,2.872c9.828,17.167,31.315,13.637,34.474,0l-8.021-2.429Z" transform="translate(15075.319 1399.249)" fill="none" stroke="#000" stroke-width="2"/>
      <path id="Path_5146" data-name="Path 5146" d="M402.429,204.15c0,.981-.556,1.776-1.242,1.776s-1.241-.795-1.241-1.776.555-1.776,1.241-1.776,1.242.795,1.242,1.776" transform="translate(15068.304 1396.239)"/>
      <path id="Path_5147" data-name="Path 5147" d="M374,204.443s12.437-2.909,13.511-17.571c-19.79-1.834-17.781,13.676-13.511,17.571" transform="translate(15073.814 1399.237)"/>
      <path id="Path_5148" data-name="Path 5148" d="M374,204.443s12.437-2.909,13.511-17.571C367.722,185.039,369.731,200.549,374,204.443Z" transform="translate(15073.814 1399.237)" fill="none" stroke="#000" stroke-width="2"/>
      <path id="Path_5149" data-name="Path 5149" d="M385.016,187.105s12.876-.86,16.748,13.246c.275-11.994-7.478-14.5-16.748-13.246" transform="translate(15071.162 1399.219)"/>
      <path id="Path_5150" data-name="Path 5150" d="M385.016,187.105s12.876-.86,16.748,13.246C402.039,188.357,394.286,185.853,385.016,187.105Z" transform="translate(15071.162 1399.219)" fill="none" stroke="#000" stroke-width="2"/>
      <path id="Path_5151" data-name="Path 5151" d="M400.565,195.862c-2.956-.039-3.088-1.622-.821-1.933,2.438-.335,4.5,1.982.821,1.933" transform="translate(15068.643 1397.863)"/>
      <path id="Path_5152" data-name="Path 5152" d="M387.758,197.024c-2.956-.039-3.088-1.622-.821-1.933,2.438-.335,4.5,1.982.821,1.933" transform="translate(15071.096 1397.64)"/>
      <path id="Path_5153" data-name="Path 5153" d="M395.6,213.29a13.145,13.145,0,0,0-4.278-.078.747.747,0,0,0-.533,1.144c2.246,3.316,4.3,1.408,5.257.112a.743.743,0,0,0-.446-1.177" transform="translate(15070.082 1394.189)" fill="#fdfaf7"/>
      <path id="Path_5154" data-name="Path 5154" d="M397.2,210.282l.137-1.119a2.09,2.09,0,0,0,2.19-1.2,2.06,2.06,0,0,0-.43-2.425,14.391,14.391,0,0,1-3.025-3.992l1-.509a13.358,13.358,0,0,0,2.805,3.692,3.257,3.257,0,0,1-2.682,5.557" transform="translate(15069.046 1396.496)" fill="#74391e"/>
      <rect id="Rectangle_1433" data-name="Rectangle 1433" width="1.129" height="5.245" transform="matrix(0.634, -0.773, 0.773, 0.634, 15445.097, 1603.915)" fill="#83442d"/>
      <path id="Path_5155" data-name="Path 5155" d="M372.158,223.784a5.423,5.423,0,0,1-1.4-9.124l.73.859a4.3,4.3,0,1,0,2.394-1l-.1-1.123a5.423,5.423,0,1,1-1.627,10.393" transform="translate(15074.259 1394.133)" fill="#e89400"/>
      <path id="Path_5156" data-name="Path 5156" d="M391.568,204.953c0,.982-.555,1.776-1.241,1.776s-1.242-.795-1.242-1.776.555-1.776,1.242-1.776,1.241.795,1.241,1.776" transform="translate(15070.385 1396.085)"/>
      <path id="Path_5157" data-name="Path 5157" d="M344.358,205.2A33.746,33.746,0,1,0,378.1,171.453,33.747,33.747,0,0,0,344.358,205.2" transform="translate(15078.95 1402.161)" fill="none"/>
      <path id="Path_5158" data-name="Path 5158" d="M680.429,205.2a33.746,33.746,0,1,1-33.746-33.746A33.746,33.746,0,0,1,680.429,205.2" transform="translate(15027.51 1402.161)" fill="#d5d7e3"/>
      <path id="Path_5159" data-name="Path 5159" d="M646.967,241.426c2,17.012,10.859,26.138,20.4,38.895a8.651,8.651,0,0,0,14.678-9.031L665.1,236.018a9.6,9.6,0,0,0-18.136,5.408" transform="translate(15021.006 1390.815)" fill="#e4786b"/>
      <path id="Path_5160" data-name="Path 5160" d="M646.967,241.426c2,17.012,10.859,26.138,20.4,38.895a8.651,8.651,0,0,0,14.678-9.031L665.1,236.018a9.6,9.6,0,0,0-18.136,5.408Z" transform="translate(15021.006 1390.815)" fill="none" stroke="#000" stroke-width="2"/>
      <path id="Path_5161" data-name="Path 5161" d="M657.115,231.8l1.053-.863a4.865,4.865,0,0,0,.054-7.482l-3.653-3.082-5.135,7.735Z" transform="translate(15020.519 1392.79)" fill="#fff"/>
      <path id="Path_5162" data-name="Path 5162" d="M657.115,231.8l1.053-.863a4.865,4.865,0,0,0,.054-7.482l-3.653-3.082-5.135,7.735Z" transform="translate(15020.519 1392.79)" fill="none" stroke="#000" stroke-width="2"/>
      <path id="Path_5163" data-name="Path 5163" d="M662.793,190.676s1.368-4.13.722-6.093c-.5-1.513-4.059-5.544-4.059-5.544-6.68.6-17.244,3.536-18.143,4.272s-4.472,7.035-6.109,9.444c-2.332,3.432-2.4,4.941,2.823,11.44-1.258,2.725-.551,5.059,2.136,6.241l1.507-14.472Z" transform="translate(15023.537 1400.708)"/>
      <path id="Path_5164" data-name="Path 5164" d="M666.434,197.545c-.385-8.934-10.795-11.016-13.135-10.622a14.32,14.32,0,0,0-6.923,2.732,12.613,12.613,0,0,0-3.436,4.481,12.222,12.222,0,0,0-.971,3.328,11.872,11.872,0,0,0-.142,1.752l-.086.734a3.882,3.882,0,0,0-4.435-.411c-2.714,1.416-2.851,6.584.2,8.975a4.3,4.3,0,0,0,3.093.9l-.017.3-.619,5.235.325,0-.525,9.317,14.206,1.195L656,214.778l.718-.008a9.793,9.793,0,0,0,9.823-9.758l.018-5.712c0-.6-.1-1.183-.125-1.755" transform="translate(15023.238 1399.207)" fill="#e2a183"/>
      <path id="Path_5165" data-name="Path 5165" d="M666.434,197.545c-.385-8.934-10.795-11.016-13.135-10.622a14.32,14.32,0,0,0-6.923,2.732,12.613,12.613,0,0,0-3.436,4.481,12.222,12.222,0,0,0-.971,3.328,11.872,11.872,0,0,0-.142,1.752l-.086.734a3.882,3.882,0,0,0-4.435-.411c-2.714,1.416-2.851,6.584.2,8.975a4.3,4.3,0,0,0,3.093.9l-.017.3-.619,5.235.325,0-.525,9.317,14.206,1.195L656,214.778l.718-.008a9.793,9.793,0,0,0,9.823-9.758l.018-5.712C666.56,198.7,666.459,198.117,666.434,197.545Z" transform="translate(15023.238 1399.207)" fill="none" stroke="#000" stroke-width="2"/>
      <path id="Path_5166" data-name="Path 5166" d="M661.116,214.175a3.2,3.2,0,0,1-1.984-.254,2.838,2.838,0,0,1-1.432-2.726l1.218-.022a1.733,1.733,0,0,0,.771,1.664,2.216,2.216,0,0,0,1.89-.094l.692,1a3.012,3.012,0,0,1-1.155.429" transform="translate(15018.937 1394.554)" fill="#d87456"/>
      <path id="Path_5167" data-name="Path 5167" d="M670,204.087c0,.932-.494,1.689-1.111,1.691s-1.117-.753-1.12-1.685.494-1.689,1.111-1.691,1.116.752,1.12,1.684" transform="translate(15017.009 1396.233)"/>
      <path id="Path_5168" data-name="Path 5168" d="M643.7,204.643c5.987-1.173.6-13.954.6-13.954s-6.428-1.928-4.9,13.341Z" transform="translate(15022.486 1398.492)"/>
      <path id="Path_5169" data-name="Path 5169" d="M665.111,209.627a3.24,3.24,0,0,1-.682-.076l.217-.988a2.077,2.077,0,0,0,2.269-.983,2.041,2.041,0,0,0-.2-2.433,13.988,13.988,0,0,1-2.555-4.12l.943-.373a12.963,12.963,0,0,0,2.383,3.835,3.124,3.124,0,0,1-2.375,5.138" transform="translate(15017.699 1396.568)" fill="#d87456"/>
      <rect id="Rectangle_1435" data-name="Rectangle 1435" width="1.012" height="3.285" transform="matrix(0.703, -0.711, 0.711, 0.703, 15662.117, 1603.555)" fill="#d87456"/>
      <path id="Path_5170" data-name="Path 5170" d="M669.588,197.267c-2.847-.358-2.8-1.9-.582-1.954,2.388-.058,4.124,2.4.582,1.954" transform="translate(15017.081 1397.591)"/>
      <path id="Path_5171" data-name="Path 5171" d="M656.409,197.092c-2.747.828-3.332-.6-1.325-1.55,2.159-1.022,4.743.52,1.325,1.55" transform="translate(15019.667 1397.612)"/>
      <path id="Path_5172" data-name="Path 5172" d="M645.112,198.157a6.692,6.692,0,0,0,4.527-1.716l-.1-6.945-5.87,1.482Z" transform="translate(15021.625 1398.705)"/>
      <path id="Path_5173" data-name="Path 5173" d="M659.133,204.8c0,.932-.494,1.689-1.11,1.691s-1.116-.753-1.12-1.685.494-1.689,1.11-1.691,1.117.752,1.12,1.684" transform="translate(15019.089 1396.097)"/>
      <path id="Path_5174" data-name="Path 5174" d="M647.355,194.7l.109,10.614-2.783.392-1.856-8.371Z" transform="translate(15021.786 1397.708)"/>
      <path id="Path_5175" data-name="Path 5175" d="M646.157,190.6l12.181-2.835c-5.623-4.57-12.118-.719-12.181,2.835" transform="translate(15021.148 1399.436)"/>
      <path id="Path_5176" data-name="Path 5176" d="M655.922,186.854c5.663,5.712,10.969.812,10.969.812-3.3-5.1-10.969-.812-10.969-.812" transform="translate(15019.277 1399.534)"/>
      <path id="Path_5177" data-name="Path 5177" d="M666.9,285.2l-29.179,3.559-.823.226-.418.031-6.867,1.915s-1.446-9.763-4.491-23.913c-1.348-6.311-3.741-12.995-3.282-20.275,1.23-19.147,15.659-22.461,14.918-21.474l18.343,8.25c1.023,2.1,3.065,6,4.937,10.837.146.361.285.742.412,1.116a25.406,25.406,0,0,1,1.011,3.967,9.557,9.557,0,0,1,.146,1.2,15.135,15.135,0,0,1,.122,1.8,16.806,16.806,0,0,1-3.846,10.888l.1.223.017.048Z" transform="translate(15025.817 1391.883)" fill="#e4786b"/>
      <path id="Path_5178" data-name="Path 5178" d="M666.9,285.2l-29.179,3.559-.823.226-.418.031-6.867,1.915s-1.446-9.763-4.491-23.913c-1.348-6.311-3.741-12.995-3.282-20.275,1.23-19.147,15.659-22.461,14.918-21.474l18.343,8.25c1.023,2.1,3.065,6,4.937,10.837.146.361.285.742.412,1.116a25.406,25.406,0,0,1,1.011,3.967,9.557,9.557,0,0,1,.146,1.2,15.135,15.135,0,0,1,.122,1.8,16.806,16.806,0,0,1-3.846,10.888l.1.223.017.048Z" transform="translate(15025.817 1391.883)" fill="none" stroke="#000" stroke-width="2"/>
      <path id="Path_5179" data-name="Path 5179" d="M649.349,229.316l-9.834-4.146,19.423,24.747-3.359-17.7Z" transform="translate(15022.421 1391.873)" fill="#fff"/>
      <path id="Path_5180" data-name="Path 5180" d="M649.349,229.316l-9.834-4.146,19.423,24.747-3.359-17.7Z" transform="translate(15022.421 1391.873)" fill="none" stroke="#000" stroke-linejoin="round" stroke-width="2"/>
      <path id="Path_5181" data-name="Path 5181" d="M668.544,290.245l-12.619,1.63-19.783,2.559c-.226-1.125-.5-2.535-.8-4.149l0-.013c-1.986-10.765-5.215-30.868-4.942-38.814l3.583,2.214v.006l17.436,10.792,10.72-5.788Z" transform="translate(15024.17 1386.838)" fill="#e4786b"/>
      <path id="Path_5182" data-name="Path 5182" d="M652.445,230.957l-1.17.747-2.211,2.4,4.493,2.122-.821,4.565,8.559,10.9-3.065-13.9-2.9-2.214.11-3.171Z" transform="translate(15020.591 1390.764)"/>
      <path id="Path_5183" data-name="Path 5183" d="M647.22,234.229l2.162-3.105a6.9,6.9,0,0,0-3.155-10.452c-.191-.066-.385-.126-.583-.178l-5.777-1.513-2.1,5.44Z" transform="translate(15022.755 1393.058)" fill="#fff"/>
      <path id="Path_5184" data-name="Path 5184" d="M647.22,234.229l2.162-3.105a6.9,6.9,0,0,0-3.155-10.452c-.191-.066-.385-.126-.583-.178l-5.777-1.513-2.1,5.44Z" transform="translate(15022.755 1393.058)" fill="none" stroke="#000" stroke-width="2"/>
      <path id="Path_5185" data-name="Path 5185" d="M612.938,205.2a33.746,33.746,0,1,0,33.746-33.746A33.746,33.746,0,0,0,612.938,205.2" transform="translate(15027.51 1402.161)" fill="none"/>
      <g id="Group_1238" data-name="Group 1238" transform="translate(15518.306 1723.781)" opacity="0.3" style="mix-blend-mode: multiply;isolation: isolate">
        <g id="Group_1237" data-name="Group 1237" transform="translate(0 0)">
          <g id="Group_1236" data-name="Group 1236" clip-path="url(#clip-path-5)">
            <path id="Path_5186" data-name="Path 5186" d="M470.171,373.817h73.3a8.311,8.311,0,0,0,0-16.622h-73.3a8.311,8.311,0,0,0,0,16.622" transform="translate(-461.859 -357.195)" fill="#c5c8d8"/>
          </g>
        </g>
      </g>
      <path id="Path_5187" data-name="Path 5187" d="M478.965,367.285h73.3a8.312,8.312,0,0,0,0-16.623h-73.3a8.312,8.312,0,0,0,0,16.623" transform="translate(15054.762 1367.838)" fill="#fff"/>
      <path id="Path_5188" data-name="Path 5188" d="M478.965,367.285h73.3a8.312,8.312,0,0,0,0-16.623h-73.3a8.312,8.312,0,0,0,0,16.623Z" transform="translate(15054.762 1367.838)" fill="none" stroke="#f0f1f5" stroke-width="1"/>
      <path id="Path_5189" data-name="Path 5189" d="M489.695,354.221l1.49,3.019,3.332.484-2.411,2.35.569,3.319-2.98-1.567-2.98,1.567.569-3.319-2.411-2.35,3.332-.484Z" transform="translate(15052.038 1367.156)" fill="#ffb72f"/>
      <path id="Path_5190" data-name="Path 5190" d="M507.408,354.221l1.49,3.019,3.332.484-2.411,2.35.569,3.319-2.98-1.567-2.98,1.567.569-3.319-2.411-2.35,3.332-.484Z" transform="translate(15048.646 1367.156)" fill="#ffb72f"/>
      <path id="Path_5191" data-name="Path 5191" d="M525.121,354.221l1.49,3.019,3.332.484-2.411,2.35.569,3.319-2.98-1.567-2.98,1.567.569-3.319-2.411-2.35,3.332-.484Z" transform="translate(15045.253 1367.156)" fill="#ffb72f"/>
      <path id="Path_5192" data-name="Path 5192" d="M542.834,354.221l1.49,3.019,3.332.484-2.411,2.35.569,3.319-2.98-1.567-2.98,1.567.569-3.319-2.411-2.35,3.332-.484Z" transform="translate(15041.86 1367.156)" fill="#ffb72f"/>
      <path id="Path_5193" data-name="Path 5193" d="M560.547,354.221l1.49,3.019,3.332.484-2.411,2.35.569,3.319-2.98-1.567-2.98,1.567.569-3.319-2.411-2.35,3.332-.484Z" transform="translate(15038.468 1367.156)" fill="#d5d7e3"/>
      <path id="Path_5194" data-name="Path 5194" d="M560.546,354.219v7.6l-2.978,1.57.568-3.318-2.41-2.35,3.335-.484Z" transform="translate(15038.468 1367.156)" fill="#ffb72f"/>
      <g id="Group_1241" data-name="Group 1241" transform="translate(15408.256 1723.781)" opacity="0.3" style="mix-blend-mode: multiply;isolation: isolate">
        <g id="Group_1240" data-name="Group 1240" transform="translate(0 0)">
          <g id="Group_1239" data-name="Group 1239" clip-path="url(#clip-path-5)">
            <path id="Path_5195" data-name="Path 5195" d="M334.051,373.817h73.3a8.311,8.311,0,0,0,0-16.622h-73.3a8.311,8.311,0,0,0,0,16.622" transform="translate(-325.74 -357.195)" fill="#c5c8d8"/>
          </g>
        </g>
      </g>
      <path id="Path_5196" data-name="Path 5196" d="M342.845,367.285h73.3a8.312,8.312,0,0,0,0-16.623h-73.3a8.312,8.312,0,0,0,0,16.623" transform="translate(15080.831 1367.838)" fill="#fff"/>
      <path id="Path_5197" data-name="Path 5197" d="M342.845,367.285h73.3a8.312,8.312,0,0,0,0-16.623h-73.3a8.312,8.312,0,0,0,0,16.623Z" transform="translate(15080.831 1367.838)" fill="none" stroke="#f0f1f5" stroke-width="1"/>
      <path id="Path_5198" data-name="Path 5198" d="M353.575,354.221l1.49,3.019,3.332.484-2.411,2.35.569,3.319-2.98-1.567-2.98,1.567.569-3.319-2.411-2.35,3.332-.484Z" transform="translate(15078.108 1367.156)" fill="#ffb72f"/>
      <path id="Path_5199" data-name="Path 5199" d="M371.288,354.221l1.49,3.019,3.332.484-2.411,2.35.569,3.319-2.98-1.567-2.98,1.567.569-3.319-2.411-2.35,3.332-.484Z" transform="translate(15074.716 1367.156)" fill="#ffb72f"/>
      <path id="Path_5200" data-name="Path 5200" d="M389,354.221l1.49,3.019,3.332.484-2.411,2.35.569,3.319L389,361.826l-2.98,1.567.569-3.319-2.411-2.35,3.332-.484Z" transform="translate(15071.323 1367.156)" fill="#d5d7e3"/>
      <path id="Path_5201" data-name="Path 5201" d="M406.715,354.221l1.49,3.019,3.332.484-2.411,2.35.569,3.319-2.98-1.567-2.98,1.567.569-3.319-2.411-2.35,3.332-.484Z" transform="translate(15067.931 1367.156)" fill="#d5d7e3"/>
      <path id="Path_5202" data-name="Path 5202" d="M424.428,354.221l1.49,3.019,3.332.484-2.411,2.35.569,3.319-2.98-1.567-2.98,1.567.569-3.319-2.411-2.35,3.332-.484Z" transform="translate(15064.538 1367.156)" fill="#d5d7e3"/>
      <g id="Group_1244" data-name="Group 1244" transform="translate(15626.571 1723.781)" opacity="0.3" style="mix-blend-mode: multiply;isolation: isolate">
        <g id="Group_1243" data-name="Group 1243" transform="translate(0 0)">
          <g id="Group_1242" data-name="Group 1242" clip-path="url(#clip-path-7)">
            <path id="Path_5203" data-name="Path 5203" d="M604.085,373.817h73.3a8.311,8.311,0,0,0,0-16.622h-73.3a8.311,8.311,0,0,0,0,16.622" transform="translate(-595.774 -357.195)" fill="#c5c8d8"/>
          </g>
        </g>
      </g>
      <path id="Path_5204" data-name="Path 5204" d="M612.879,367.285h73.3a8.312,8.312,0,0,0,0-16.623h-73.3a8.312,8.312,0,0,0,0,16.623" transform="translate(15029.112 1367.838)" fill="#fff"/>
      <path id="Path_5205" data-name="Path 5205" d="M612.879,367.285h73.3a8.312,8.312,0,0,0,0-16.623h-73.3a8.312,8.312,0,0,0,0,16.623Z" transform="translate(15029.112 1367.838)" fill="none" stroke="#f0f1f5" stroke-width="1"/>
      <path id="Path_5206" data-name="Path 5206" d="M623.609,354.221l1.49,3.019,3.332.484-2.411,2.35.569,3.319-2.98-1.567-2.98,1.567.569-3.319-2.411-2.35,3.332-.484Z" transform="translate(15026.39 1367.156)" fill="#ffb72f"/>
      <path id="Path_5207" data-name="Path 5207" d="M641.322,354.221l1.49,3.019,3.332.484-2.411,2.35.569,3.319-2.98-1.567-2.98,1.567.569-3.319-2.411-2.35,3.332-.484Z" transform="translate(15022.997 1367.156)" fill="#ffb72f"/>
      <path id="Path_5208" data-name="Path 5208" d="M659.035,354.221l1.49,3.019,3.332.484-2.411,2.35.569,3.319-2.98-1.567-2.98,1.567.569-3.319-2.411-2.35,3.332-.484Z" transform="translate(15019.604 1367.156)" fill="#ffb72f"/>
      <path id="Path_5209" data-name="Path 5209" d="M676.749,354.221l1.49,3.019,3.332.484-2.411,2.35.569,3.319-2.98-1.567-2.98,1.567.569-3.319-2.411-2.35,3.332-.484Z" transform="translate(15016.212 1367.156)" fill="#d5d7e3"/>
      <path id="Path_5210" data-name="Path 5210" d="M694.462,354.221l1.49,3.019,3.332.484-2.411,2.35.569,3.319-2.98-1.567-2.98,1.567.569-3.319-2.411-2.35,3.332-.484Z" transform="translate(15012.818 1367.156)" fill="#d5d7e3"/>
      <path id="Path_5211" data-name="Path 5211" d="M548.5,330.853a9.593,9.593,0,1,1-9.593-9.593,9.592,9.592,0,0,1,9.593,9.593" transform="translate(15043.525 1373.469)" fill="#eaa105"/>
      <path id="Path_5212" data-name="Path 5212" d="M535.732,332.291l3.335,3.526,5.48-7.052" transform="translate(15042.298 1372.031)" fill="none" stroke="#fff" stroke-linecap="round" stroke-linejoin="round" stroke-width="2"/>
      <path id="Path_5213" data-name="Path 5213" d="M505.77,324.07a9.593,9.593,0,1,1-13.566,0,9.592,9.592,0,0,1,13.566,0" transform="translate(15051.173 1373.469)" fill="#c43f00"/>
      <line id="Line_16" data-name="Line 16" x2="6.233" y2="6.233" transform="translate(15547.043 1701.206)" fill="none" stroke="#fff" stroke-linecap="round" stroke-linejoin="round" stroke-width="2"/>
      <line id="Line_17" data-name="Line 17" y1="6.233" x2="6.233" transform="translate(15547.043 1701.206)" fill="none" stroke="#fff" stroke-linecap="round" stroke-linejoin="round" stroke-width="2"/>
      <path id="Path_5214" data-name="Path 5214" d="M413.381,330.853a9.593,9.593,0,1,1-9.593-9.593,9.592,9.592,0,0,1,9.593,9.593" transform="translate(15069.406 1373.469)" fill="#eaa105"/>
      <path id="Path_5215" data-name="Path 5215" d="M400.609,332.291l3.335,3.526,5.481-7.052" transform="translate(15068.177 1372.031)" fill="none" stroke="#fff" stroke-linecap="round" stroke-linejoin="round" stroke-width="2"/>
      <path id="Path_5216" data-name="Path 5216" d="M370.647,324.07a9.593,9.593,0,1,1-13.566,0,9.592,9.592,0,0,1,13.566,0" transform="translate(15077.052 1373.469)" fill="#c43f00"/>
      <line id="Line_18" data-name="Line 18" x2="6.233" y2="6.233" transform="translate(15437.8 1701.206)" fill="none" stroke="#fff" stroke-linecap="round" stroke-linejoin="round" stroke-width="2"/>
      <line id="Line_19" data-name="Line 19" y1="6.233" x2="6.233" transform="translate(15437.8 1701.206)" fill="none" stroke="#fff" stroke-linecap="round" stroke-linejoin="round" stroke-width="2"/>
      <path id="Path_5217" data-name="Path 5217" d="M681.96,330.853a9.593,9.593,0,1,1-9.593-9.593,9.592,9.592,0,0,1,9.593,9.593" transform="translate(15017.965 1373.469)" fill="#eaa105"/>
      <path id="Path_5218" data-name="Path 5218" d="M669.189,332.291l3.335,3.526L678,328.765" transform="translate(15016.735 1372.031)" fill="none" stroke="#fff" stroke-linecap="round" stroke-linejoin="round" stroke-width="2"/>
      <path id="Path_5219" data-name="Path 5219" d="M639.226,324.07a9.593,9.593,0,1,1-13.566,0,9.592,9.592,0,0,1,13.566,0" transform="translate(15025.61 1373.469)" fill="#c43f00"/>
      <line id="Line_20" data-name="Line 20" x2="6.233" y2="6.233" transform="translate(15654.938 1701.206)" fill="none" stroke="#fff" stroke-linecap="round" stroke-linejoin="round" stroke-width="2"/>
      <line id="Line_21" data-name="Line 21" y1="6.233" x2="6.233" transform="translate(15654.938 1701.206)" fill="none" stroke="#fff" stroke-linecap="round" stroke-linejoin="round" stroke-width="2"/>
      <line id="Line_22" data-name="Line 22" y1="74.75" x2="10.605" transform="translate(15399.763 1736.541)" fill="none" stroke="#d36462" stroke-width="1"/>
      <path id="Path_5220" data-name="Path 5220" d="M374.413,358.115,371.971,335.1,325.32,262.047c-20.437,77.014,24.034,68.359,49.093,96.068" transform="translate(15035.233 1384.81)" fill="#dd5c58"/>
      <path id="Path_5221" data-name="Path 5221" d="M368.013,358.115c14.636-33.463-26.881-62.962-49.093-96.068-15.6,58.834,43.978,52.964,49.093,96.068" transform="translate(15041.633 1384.81)" fill="#fb847d"/>
      <path id="Path_5222" data-name="Path 5222" d="M366.872,449.551c0-63.961-15.239-77.42-15.239-77.42" transform="translate(15017.282 1363.726)" fill="none" stroke="#d36462" stroke-width="1"/>
      <path id="Path_5223" data-name="Path 5223" d="M438.76,380.2c-9.859-15.134-75.784,9.414-79.593-69.087C394.379,333,426.731,329.192,438.76,380.2" transform="translate(14939.304 1375.413)" fill="#dd5c58"/>
      <path id="Path_5224" data-name="Path 5224" d="M438.76,380.2c-13.667-30.354-57.7-26.272-79.593-69.087C394.379,333,426.731,329.192,438.76,380.2" transform="translate(14939.304 1375.413)" fill="#fb847d"/>
      <path id="Path_5225" data-name="Path 5225" d="M295.3,409.2v44.614a13.369,13.369,0,0,0,13.376,13.366h41.48a13.37,13.37,0,0,0,13.377-13.366V409.2Z" transform="translate(15066.159 1356.626)" fill="#672376"/>
      <path id="Path_5226" data-name="Path 5226" d="M295.3,409.2v44.614a13.369,13.369,0,0,0,13.376,13.366h41.48a13.37,13.37,0,0,0,13.377-13.366V409.2Z" transform="translate(15066.159 1356.626)" fill="none" stroke="#000" stroke-width="2"/>
      <path id="Path_5227" data-name="Path 5227" d="M313.3,409.725v43.814A13.369,13.369,0,0,0,326.673,466.9h39.952c-15.536-8.327-26.964-29.076-37.582-57.268Z" transform="translate(15048.521 1356.542)" fill="#4e175b"/>
      <g id="Group_1247" data-name="Group 1247" transform="translate(15503.058 1548.068)" opacity="0.3" style="mix-blend-mode: multiply;isolation: isolate">
        <g id="Group_1246" data-name="Group 1246" transform="translate(0 0)">
          <g id="Group_1245" data-name="Group 1245" clip-path="url(#clip-path-8)">
            <path id="Path_5228" data-name="Path 5228" d="M571.395,342.7l-37.38-81.8,1.46-.624a4.394,4.394,0,0,0-1.272-8.418c1.12-.784,2.223-1.6,3.3-2.477a59.71,59.71,0,1,0-72.617-94.418,59.413,59.413,0,0,0-17.177,26.421,58.012,58.012,0,0,0,67.065,79.272,4.391,4.391,0,0,0,5.633,6.066l3.366-1.44,37.493,82.05a3.739,3.739,0,0,0,4.955,1.846l3.328-1.52a3.739,3.739,0,0,0,1.846-4.955" transform="translate(-442.999 -139.855)" fill="#d5d7e3"/>
          </g>
        </g>
      </g>
      <path id="Path_5229" data-name="Path 5229" d="M573.276,185.58a56.553,56.553,0,1,1-56.553-56.553,56.553,56.553,0,0,1,56.553,56.553" transform="translate(15056.77 1410.287)" fill="#d5d7e3"/>
      <path id="Path_5230" data-name="Path 5230" d="M538.352,201.7c8.292.568,19.479-4.324,19.479-4.324s-1.307-29.094-3.687-38.892c-2.512-10.343-29.951-22.581-40.653-5.068Z" transform="translate(15046.558 1407.305)"/>
      <path id="Path_5231" data-name="Path 5231" d="M538.352,201.7c8.292.568,19.479-4.324,19.479-4.324s-1.307-29.094-3.687-38.892c-2.512-10.343-29.951-22.581-40.653-5.068Z" transform="translate(15046.558 1407.305)" fill="none" stroke="#000" stroke-width="2"/>
      <path id="Path_5232" data-name="Path 5232" d="M554.742,237.718l-9.843,23.81-.218,3.562-.391,6.328-.3,4.968-.406,6.672-.469,7.531H495.949l-.047-.422-1.235-14.405-4.062-47.449-.344-3.906,2.391-.64,5-1.328,5.3-1.421,1.093-.3,28.263-2.3,6,1.89,2.7.844v.015l7.781,2.218.094.234Z" transform="translate(15051.006 1393.165)" fill="#ee5064"/>
      <path id="Path_5233" data-name="Path 5233" d="M554.742,237.718l-9.843,23.81-.218,3.562-.391,6.328-.3,4.968-.406,6.672-.469,7.531H495.949l-.047-.422-1.235-14.405-4.062-47.449-.344-3.906,2.391-.64,5-1.328,5.3-1.421,1.093-.3,28.263-2.3,6,1.89,2.7.844v.015l7.781,2.218.094.234Z" transform="translate(15051.006 1393.165)" fill="none" stroke="#000" stroke-width="2"/>
      <path id="Path_5234" data-name="Path 5234" d="M541.882,211.244c-10.363,2.766-19.419-2-18.681-20.984l18.06-.577Z" transform="translate(15044.706 1398.67)" fill="#b54a12"/>
      <path id="Path_5235" data-name="Path 5235" d="M536.171,206.378l-.32-10.019a20.137,20.137,0,0,0,14.376-21.136l-.541-5.963a20.833,20.833,0,0,0-41.495,3.763l1.18,13.012c.019.2.057.391.083.588l-.545.018.607,19-6.174,1.747-9.577,2.718-.516.141-.359.094c.093.125.188.25.265.375a100.765,100.765,0,0,0,10.983,13.109c.859.843-.68,5.574-.68,5.574s32.771-12.294,42.721-2.036c0,0,1.455-9.9,3.111-17.022l-10.5-3.172Z" transform="translate(15050.503 1406.211)" fill="#d77347"/>
      <path id="Path_5236" data-name="Path 5236" d="M536.171,206.378l-.32-10.019a20.137,20.137,0,0,0,14.376-21.136l-.541-5.963a20.833,20.833,0,0,0-41.495,3.763l1.18,13.012c.019.2.057.391.083.588l-.545.018.607,19-6.174,1.747-9.577,2.718-.516.141-.359.094c.093.125.188.25.265.375a100.765,100.765,0,0,0,10.983,13.109c.859.843-.68,5.574-.68,5.574s32.771-12.294,42.721-2.036c0,0,1.455-9.9,3.111-17.022l-10.5-3.172Z" transform="translate(15050.503 1406.211)" fill="none" stroke="#000" stroke-width="2"/>
      <path id="Path_5237" data-name="Path 5237" d="M513.571,186.541l2.148,16.4s-13.027,2.74-20.681-2.822c-.078-13.175,1-33.349,4.967-41.845,1.762-3.774,10.458-8.542,19.786-7.681Z" transform="translate(15050.092 1406.175)"/>
      <path id="Path_5238" data-name="Path 5238" d="M513.571,186.541l2.148,16.4s-13.027,2.74-20.681-2.822c-.078-13.175,1-33.349,4.967-41.845,1.762-3.774,10.458-8.542,19.786-7.681Z" transform="translate(15050.092 1406.175)" fill="none" stroke="#000" stroke-width="2"/>
      <path id="Path_5239" data-name="Path 5239" d="M556.878,178.552c0,1.606-.909,2.906-2.031,2.906s-2.031-1.3-2.031-2.906.909-2.906,2.031-2.906,2.031,1.3,2.031,2.906" transform="translate(15039.025 1401.358)"/>
      <path id="Path_5240" data-name="Path 5240" d="M517.842,186.45c-4.908-9.549-9.453-10.26-13.153-8.385-6.781,3.436-4.082,22.411,11.226,14.923Z" transform="translate(15048.915 1401.053)" fill="#d77347"/>
      <path id="Path_5241" data-name="Path 5241" d="M553.828,164.995c-4.836-.064-5.051-2.653-1.343-3.163,3.989-.547,7.359,3.243,1.343,3.163" transform="translate(15039.578 1404.014)"/>
      <path id="Path_5242" data-name="Path 5242" d="M533.193,166.8c-4.758.868-5.468-1.632-1.927-2.845,3.809-1.3,7.845,1.765,1.927,2.845" transform="translate(15043.579 1403.659)"/>
      <path id="Path_5243" data-name="Path 5243" d="M545.7,193.506a21.489,21.489,0,0,0-7-.129,1.221,1.221,0,0,0-.871,1.872c3.673,5.425,7.033,2.3,8.6.182a1.215,1.215,0,0,0-.73-1.925" transform="translate(15041.934 1398.004)" fill="#fdfaf7"/>
      <path id="Path_5244" data-name="Path 5244" d="M548.327,188.584l.224-1.831a3.418,3.418,0,0,0,3.582-1.968,3.372,3.372,0,0,0-.7-3.969,23.6,23.6,0,0,1-4.949-6.531l1.645-.834a21.837,21.837,0,0,0,4.589,6.04,5.328,5.328,0,0,1-4.387,9.092" transform="translate(15040.238 1401.778)" fill="#b54a12"/>
      <rect id="Rectangle_1441" data-name="Rectangle 1441" width="1.846" height="8.58" transform="translate(15553.96 1585.68) rotate(-50.667)" fill="#b54a12"/>
      <path id="Path_5245" data-name="Path 5245" d="M539.109,179.867c0,1.6-.909,2.906-2.031,2.906s-2.031-1.3-2.031-2.906.909-2.906,2.031-2.906,2.031,1.3,2.031,2.906" transform="translate(15042.429 1401.106)"/>
      <path id="Path_5246" data-name="Path 5246" d="M566.593,269.248l-25.514,2.234-4.734.407-37.169,3.265-7.719.672L473.507,277.4c-.063-17.545.875-33.5,1.594-39.935,1-8.905,8.7-12.561,14.077-14.015l.359-.093.516-.141,9.577-2.719,6.16-1.743L511.5,250.9a29.013,29.013,0,0,1-1.56,15.684l-1.438,3.662,28.529-1.922a29.008,29.008,0,0,0,3.307-25.1l-7.882-23.738,2.622.8,10.5,3.171.094.234.047-.234c12.764,6.343,18.576,31.639,20.873,45.794" transform="translate(15054.215 1393.101)"/>
      <path id="Path_5247" data-name="Path 5247" d="M566.593,269.248l-25.514,2.234-4.734.407-37.169,3.265-7.719.672L473.507,277.4c-.063-17.545.875-33.5,1.594-39.935,1-8.905,8.7-12.561,14.077-14.015l.359-.093.516-.141,9.577-2.719,6.16-1.743L511.5,250.9a29.013,29.013,0,0,1-1.56,15.684l-1.438,3.662,28.529-1.922a29.008,29.008,0,0,0,3.307-25.1l-7.882-23.738,2.622.8,10.5,3.171.094.234.047-.234C558.484,229.8,564.3,255.093,566.593,269.248Z" transform="translate(15054.215 1393.101)" fill="none" stroke="#000" stroke-width="2"/>
      <path id="Path_5248" data-name="Path 5248" d="M515.561,168.346c12.5-.422,13.269-17.719,13.269-17.719S513.2,146.6,515.561,168.346" transform="translate(15046.206 1406.206)"/>
      <path id="Path_5249" data-name="Path 5249" d="M515.561,168.346c12.5-.422,13.269-17.719,13.269-17.719S513.2,146.6,515.561,168.346Z" transform="translate(15046.206 1406.206)" fill="none" stroke="#000" stroke-width="2"/>
      <path id="Path_5250" data-name="Path 5250" d="M532.031,150.195c9.682.95,20.838,9.06,24.923,16.115-1.6-18.988-16.417-20.682-24.923-16.115" transform="translate(15043.007 1406.64)"/>
      <path id="Path_5251" data-name="Path 5251" d="M532.031,150.195c9.682.95,20.838,9.06,24.923,16.115C555.355,147.321,540.537,145.628,532.031,150.195Z" transform="translate(15043.007 1406.64)" fill="none" stroke="#000" stroke-width="2"/>
      <path id="Path_5252" data-name="Path 5252" d="M460.169,185.58a56.553,56.553,0,1,0,56.553-56.553,56.553,56.553,0,0,0-56.553,56.553" transform="translate(15056.77 1410.287)" fill="none"/>
      <path id="Path_5253" data-name="Path 5253" d="M610.3,350.689l-5.455,2.888a2.482,2.482,0,0,1-3.355-1.032l-47.628-89.967a2.483,2.483,0,0,1,1.032-3.355l5.455-2.889a2.482,2.482,0,0,1,3.355,1.032l47.628,89.968a2.482,2.482,0,0,1-1.032,3.355" transform="translate(15038.881 1385.959)"/>
      <path id="Path_5254" data-name="Path 5254" d="M472.63,146.611a58.01,58.01,0,0,0,82.039,82.039c22.66-22.66,25.021-62.478,2.361-85.138s-61.741-19.561-84.4,3.1M555.545,223.7a55.125,55.125,0,1,1,0-77.968,55.129,55.129,0,0,1,0,77.968" transform="translate(15057.637 1410.485)" fill="#9ba0bd"/>
      <path id="Path_5255" data-name="Path 5255" d="M552.9,274.265l17.319-8.634a2.927,2.927,0,0,0,1.314-3.924l-1.323-2.653a2.926,2.926,0,0,0-3.924-1.313l-17.32,8.634a2.927,2.927,0,0,0-1.313,3.924l1.322,2.653a2.928,2.928,0,0,0,3.926,1.314" transform="translate(15040.073 1385.694)" fill="#9ba0bd"/>
      <path id="Path_5256" data-name="Path 5256" d="M557.074,272.582l13.942-6.95a2.927,2.927,0,0,0,1.314-3.925l-1.323-2.652a2.926,2.926,0,0,0-3.925-1.314l-13.942,6.95a2.927,2.927,0,0,0-1.313,3.925l1.322,2.652a2.926,2.926,0,0,0,3.925,1.314" transform="translate(15039.273 1385.694)" fill="#b0b4cb"/>
      <path id="Path_5257" data-name="Path 5257" d="M475.1,139.292a59.712,59.712,0,1,0,84.445,0,59.716,59.716,0,0,0-84.445,0m80.861,80.861a54.636,54.636,0,1,1,0-77.277,54.64,54.64,0,0,1,0,77.277" transform="translate(15057.258 1411.671)" fill="#d5d7e3"/>
      <g id="Group_1254" data-name="Group 1254" transform="translate(15569.933 1470.401)" opacity="0.3" style="mix-blend-mode: multiply;isolation: isolate">
        <g id="Group_1253" data-name="Group 1253" transform="translate(0 0)">
          <g id="Group_1252" data-name="Group 1252" clip-path="url(#clip-path-9)">
            <path id="Path_5258" data-name="Path 5258" d="M669.032,43.789H532.626a6.909,6.909,0,0,0-6.909,6.909v71.238l25.616-16.443h117.7a6.91,6.91,0,0,0,6.909-6.909V50.7a6.909,6.909,0,0,0-6.909-6.909" transform="translate(-525.717 -43.789)" fill="#d5d7e3"/>
          </g>
        </g>
      </g>
      <path id="Path_5259" data-name="Path 5259" d="M676.081,35.559H539.675a6.909,6.909,0,0,0-6.909,6.909v69.559l24.293-14.764H676.081a6.909,6.909,0,0,0,6.909-6.909V42.468a6.909,6.909,0,0,0-6.909-6.909" transform="translate(15042.864 1428.189)" fill="#fff"/>
      <path id="Path_5260" data-name="Path 5260" d="M676.081,35.559H539.675a6.909,6.909,0,0,0-6.909,6.909v69.559l24.293-14.764H676.081a6.909,6.909,0,0,0,6.909-6.909V42.468A6.909,6.909,0,0,0,676.081,35.559Z" transform="translate(15042.864 1428.189)" fill="none" stroke="#000" stroke-width="2"/>
      <path id="Path_5261" data-name="Path 5261" d="M553.32,46.331h-5.348a3.507,3.507,0,0,0-3.506,3.506v5.348a3.507,3.507,0,0,0,3.506,3.506h5.348a3.507,3.507,0,0,0,3.506-3.506V49.837a3.507,3.507,0,0,0-3.506-3.506" transform="translate(15040.624 1426.125)" fill="#f0f1f5"/>
      <path id="Path_5262" data-name="Path 5262" d="M553.32,66.661h-5.348a3.507,3.507,0,0,0-3.506,3.506v5.348a3.507,3.507,0,0,0,3.506,3.506h5.348a3.507,3.507,0,0,0,3.506-3.506V70.167a3.507,3.507,0,0,0-3.506-3.506" transform="translate(15040.624 1422.232)" fill="#f0f1f5"/>
      <path id="Path_5263" data-name="Path 5263" d="M553.32,86.991h-5.348a3.507,3.507,0,0,0-3.506,3.506v5.348a3.507,3.507,0,0,0,3.506,3.506h5.348a3.507,3.507,0,0,0,3.506-3.506V90.5a3.507,3.507,0,0,0-3.506-3.506" transform="translate(15040.624 1418.338)" fill="#f0f1f5"/>
      <line id="Line_23" data-name="Line 23" x2="108.602" transform="translate(15604.979 1478.637)" fill="none" stroke="#e1e2ea" stroke-linecap="round" stroke-linejoin="round" stroke-width="5"/>
      <line id="Line_24" data-name="Line 24" x2="108.602" transform="translate(15604.979 1495.073)" fill="none" stroke="#e1e2ea" stroke-linecap="round" stroke-linejoin="round" stroke-width="5"/>
      <line id="Line_25" data-name="Line 25" x2="108.602" transform="translate(15604.979 1511.509)" fill="none" stroke="#e1e2ea" stroke-linecap="round" stroke-linejoin="round" stroke-width="5"/>
      <path id="Path_5264" data-name="Path 5264" d="M546.641,49.333l4.726,5.225,8.351-10.45" transform="translate(15040.207 1426.551)" fill="none" stroke="#c43f00" stroke-width="2"/>
      <path id="Path_5265" data-name="Path 5265" d="M546.641,69.921l4.726,5.225,8.351-10.45" transform="translate(15040.207 1422.608)" fill="none" stroke="#eaa105" stroke-width="2"/>
      <path id="Path_5266" data-name="Path 5266" d="M546.641,90.839l4.726,5.225,8.351-10.45" transform="translate(15040.207 1418.602)" fill="none" stroke="#659d67" stroke-width="2"/>
      <path id="Path_5267" data-name="Path 5267" d="M374.081,45.671H445.51a4.628,4.628,0,0,1,4.628,4.628v82.315l7.359,10.763H374.081a4.627,4.627,0,0,1-4.628-4.628V50.3a4.628,4.628,0,0,1,4.628-4.628" transform="translate(15074.144 1426.252)" fill="#fff"/>
      <path id="Path_5268" data-name="Path 5268" d="M374.081,45.671H445.51a4.628,4.628,0,0,1,4.628,4.628v82.315l7.359,10.763H374.081a4.627,4.627,0,0,1-4.628-4.628V50.3A4.628,4.628,0,0,1,374.081,45.671Z" transform="translate(15074.144 1426.252)" fill="none" stroke="#000" stroke-width="2"/>
      <line id="Line_26" data-name="Line 26" x1="19.798" transform="translate(15494.169 1491.455)" fill="none" stroke="#e1e2ea" stroke-linecap="round" stroke-linejoin="round" stroke-width="5"/>
      <line id="Line_27" data-name="Line 27" x1="19.798" transform="translate(15494.169 1502.356)" fill="none" stroke="#e1e2ea" stroke-linecap="round" stroke-linejoin="round" stroke-width="5"/>
      <line id="Line_28" data-name="Line 28" x1="59.244" transform="translate(15454.723 1524.768)" fill="none" stroke="#e1e2ea" stroke-linecap="round" stroke-linejoin="round" stroke-width="5"/>
      <line id="Line_29" data-name="Line 29" x1="59.244" transform="translate(15454.723 1536.134)" fill="none" stroke="#e1e2ea" stroke-linecap="round" stroke-linejoin="round" stroke-width="5"/>
      <line id="Line_30" data-name="Line 30" x1="59.244" transform="translate(15454.723 1547.501)" fill="none" stroke="#e1e2ea" stroke-linecap="round" stroke-linejoin="round" stroke-width="5"/>
      <line id="Line_31" data-name="Line 31" x1="25.303" transform="translate(15488.663 1558.867)" fill="none" stroke="#e1e2ea" stroke-linecap="round" stroke-linejoin="round" stroke-width="5"/>
      <path id="Path_5269" data-name="Path 5269" d="M413.265,74.41a17.981,17.981,0,1,1-17.981-17.981A17.982,17.982,0,0,1,413.265,74.41" transform="translate(15072.641 1424.191)" fill="#e1e2ea"/>
      <path id="Path_5270" data-name="Path 5270" d="M402.16,79.536c2.636.18,6.193-1.375,6.193-1.375s-.416-9.25-1.172-12.365c-.8-3.289-9.522-7.179-12.925-1.611Z" transform="translate(15069.394 1423.243)"/>
      <path id="Path_5271" data-name="Path 5271" d="M407.371,90.987l-3.13,7.571-.07,1.133-.124,2.011-.095,1.58-.129,2.121-.149,2.394h-15l-.015-.134-.393-4.58L386.98,88l-.109-1.242.76-.2,1.589-.422,1.684-.452.348-.095,8.986-.73,1.907.6.859.268v0l2.474.706.03.074Z" transform="translate(15070.809 1418.747)" fill="#530046"/>
      <path id="Path_5272" data-name="Path 5272" d="M405.639,86.185c-.526,2.265-.99,5.412-.99,5.412-3.164-3.261-13.583.648-13.583.648s.49-1.5.217-1.773A32,32,0,0,1,387.79,86.3c-.024-.04-.054-.079-.084-.119l.114-.03.164-.044,3.046-.864,5.95-1.684,5.321,1.615Z" transform="translate(15070.648 1418.995)" fill="#fff"/>
      <path id="Path_5273" data-name="Path 5273" d="M402.714,84.992a5.949,5.949,0,0,1-.07,1.121h-8.361L394,77.419l8.457-.272Z" transform="translate(15069.441 1420.223)" fill="#fff"/>
      <path id="Path_5274" data-name="Path 5274" d="M399.716,63.222h0a6.623,6.623,0,0,1,7.195,6l.172,1.9a6.4,6.4,0,0,1-5.8,6.954l-2.684.243a4.151,4.151,0,0,1-4.509-3.759l-.375-4.138a6.623,6.623,0,0,1,6-7.195" transform="translate(15069.503 1422.895)" fill="#fff"/>
      <path id="Path_5275" data-name="Path 5275" d="M394.281,74.715l.683,5.215s-4.142.872-6.575-.9c-.025-4.189.319-10.6,1.579-13.3.56-1.2,3.325-2.716,6.291-2.442Z" transform="translate(15070.519 1422.884)"/>
      <path id="Path_5276" data-name="Path 5276" d="M395.64,74.687c-1.561-3.036-3.007-3.262-4.183-2.666-2.156,1.092-1.3,7.125,3.569,4.744Z" transform="translate(15070.144 1421.255)" fill="#fff"/>
      <path id="Path_5277" data-name="Path 5277" d="M411.139,101.012l-8.112.711-1.5.129L389.7,102.89l-2.454.213-5.708.5c-.019-5.578.278-10.65.507-12.7.318-2.832,2.767-3.994,4.476-4.456l.114-.03.164-.044,3.045-.864,1.958-.555,1.817,10.221a9.225,9.225,0,0,1-.5,4.986l-.457,1.164,9.07-.61a9.225,9.225,0,0,0,1.051-7.981l-2.505-7.547.834.253,3.338,1.008.03.074.015-.074c4.059,2.017,5.907,10.059,6.637,14.56" transform="translate(15071.829 1418.727)"/>
      <path id="Path_5278" data-name="Path 5278" d="M394.915,68.93c3.973-.134,4.219-5.633,4.219-5.633s-4.971-1.281-4.219,5.633" transform="translate(15069.282 1422.894)"/>
      <path id="Path_5279" data-name="Path 5279" d="M400.151,63.159a11.906,11.906,0,0,1,7.924,5.123c-.509-6.037-5.22-6.575-7.924-5.123" transform="translate(15068.265 1423.032)"/>
      <path id="Path_5280" data-name="Path 5280" d="M377.3,74.41a17.981,17.981,0,1,0,17.981-17.981A17.982,17.982,0,0,0,377.3,74.41" transform="translate(15072.641 1424.191)" fill="none"/>
      <path id="Path_5281" data-name="Path 5281" d="M853.479,259.491l-14.945-64.37c-.209-1.681,2.832-5.705,4.306-6.55,4.037-2.312,9.021-2.645,13.576-1.7,14.846,3.084,27.464,62.44,24.986,61.01,0,0-22.281,11.636-29.491,6.9" transform="translate(14984.305 1399.302)" fill="#020f2b"/>
      <path id="Path_5282" data-name="Path 5282" d="M853.479,259.491l-14.945-64.37c-.209-1.681,2.832-5.705,4.306-6.55,4.037-2.312,9.021-2.645,13.576-1.7,14.846,3.084,27.464,62.44,24.986,61.01,0,0-22.281,11.636-29.491,6.9" transform="translate(14984.305 1399.302)" fill="none" stroke="#000" stroke-width="2"/>
      <path id="Path_5283" data-name="Path 5283" d="M853.782,200.331a.393.393,0,0,0,.394.407c.936,0,3.1-.2,3.4,2.246.308,2.476-2.051,3.869-3.471,3.947a3.166,3.166,0,0,0-1.633.408c-.854.929-1.255,2.958-1.912,5.488a7.185,7.185,0,0,0,2.938,8.14s-14.636,7.2-14.5-.018c0,0,1.157-13.269,1.089-13.337-1.142-1.142-5.58-1.633-2.79-11.092,2.585-8.762,9.013-8.139,10.648-7.849,1.378.245,6.166.545,5.834,11.661" transform="translate(14984.713 1398.89)" fill="#f1aba5"/>
      <path id="Path_5284" data-name="Path 5284" d="M853.782,200.331a.393.393,0,0,0,.394.407c.936,0,3.1-.2,3.4,2.246.308,2.476-2.051,3.869-3.471,3.947a3.166,3.166,0,0,0-1.633.408c-.854.929-1.255,2.958-1.912,5.488a7.185,7.185,0,0,0,2.938,8.14s-14.636,7.2-14.5-.018c0,0,1.157-13.269,1.089-13.337-1.142-1.142-5.58-1.633-2.79-11.092,2.585-8.762,9.013-8.139,10.648-7.849C849.326,188.916,854.114,189.216,853.782,200.331Z" transform="translate(14984.713 1398.89)" fill="none" stroke="#000" stroke-width="2"/>
      <path id="Path_5285" data-name="Path 5285" d="M847.184,189.9c2.7,3.5,7.668,9.859,8.8,10.568,0,0,5.352-12.667-7.571-12.984a1.5,1.5,0,0,0-1.225,2.416" transform="translate(14982.705 1399.09)" fill="#020f2b"/>
      <path id="Path_5286" data-name="Path 5286" d="M860.49,207.022s-1.471-3.1-3.339,1.055" transform="translate(14980.736 1395.562)" fill="#ec7165"/>
      <path id="Path_5287" data-name="Path 5287" d="M847.981,203.61a2.2,2.2,0,1,0,2.149,2.248,2.2,2.2,0,0,0-2.149-2.248" transform="translate(14982.924 1396.002)" fill="#f79288"/>
      <path id="Path_5288" data-name="Path 5288" d="M837.174,203.665a2.2,2.2,0,0,0,.735-4.051,10.713,10.713,0,0,0-.735,4.051" transform="translate(14984.569 1396.767)" fill="#f79288"/>
      <path id="Path_5289" data-name="Path 5289" d="M839.47,203.223l3.352,1.669s-1.64,1.193-2.526.541a2.955,2.955,0,0,1-.826-2.21" transform="translate(14984.123 1396.076)" fill="#fff"/>
      <path id="Path_5290" data-name="Path 5290" d="M842.2,200.213l-.53,2.393-1.164-.515a.309.309,0,0,1-.064-.528Z" transform="translate(14983.96 1396.653)" fill="#ec7165"/>
      <path id="Path_5291" data-name="Path 5291" d="M847.555,198.737c.291.407.122-1.011-.356-1.338a.985.985,0,0,0-1.375.157,3.079,3.079,0,0,1,1.731,1.181" transform="translate(14982.906 1397.231)"/>
      <path id="Path_5292" data-name="Path 5292" d="M840.115,195.948c-.481.135.538-.866,1.114-.821a.984.984,0,0,1,.975.983,3.078,3.078,0,0,0-2.089-.162" transform="translate(14984.024 1397.627)"/>
      <path id="Path_5293" data-name="Path 5293" d="M845.381,201.071c-.162.4-.45.662-.644.584s-.221-.467-.059-.867.45-.662.644-.584.221.466.059.867" transform="translate(14983.146 1396.657)"/>
      <path id="Path_5294" data-name="Path 5294" d="M841.55,199.252c-.154.382-.43.632-.615.557s-.211-.445-.057-.829.43-.631.615-.557.211.446.057.829" transform="translate(14983.872 1396.998)"/>
      <path id="Path_5295" data-name="Path 5295" d="M840.572,211.22a35.217,35.217,0,0,0,6.287.662c2.11-.136-8.451,11.992-6.287-.662" transform="translate(14983.968 1394.544)"/>
      <path id="Path_5296" data-name="Path 5296" d="M841.084,450.929l-1.52,10.793s-2.437,7.157-4.7,4.387a22.333,22.333,0,0,0-4.5-4.236l-.744-11.221Z" transform="translate(14986.011 1348.687)" fill="#f1a9a5"/>
      <path id="Path_5297" data-name="Path 5297" d="M841.084,450.929l-1.52,10.793s-2.437,7.157-4.7,4.387a22.333,22.333,0,0,0-4.5-4.236l-.744-11.221Z" transform="translate(14986.011 1348.687)" fill="none" stroke="#000" stroke-width="2"/>
      <path id="Path_5298" data-name="Path 5298" d="M888.421,449.969l3.358,10.766s2.556,2.241,3.479,2.184c1.678-.106,2.559-3,2.559-3l.276-9.948Z" transform="translate(14974.748 1348.818)" fill="#f1a9a5"/>
      <path id="Path_5299" data-name="Path 5299" d="M888.421,449.969l3.358,10.766s2.556,2.241,3.479,2.184c1.678-.106,2.559-3,2.559-3l.276-9.948Z" transform="translate(14974.748 1348.818)" fill="none" stroke="#000" stroke-width="2"/>
      <path id="Path_5300" data-name="Path 5300" d="M827.419,464.039l-9.039,7.327c-.462.343-.132.922.529.926l13.343.108a.777.777,0,0,0,.716-.363l1.007-2.063c.29-.6.87-.644.817-.013l.493,1.991c-.027.314,3.164.229,3.192-.057a56.361,56.361,0,0,0-.512-9.176.665.665,0,0,0-.6-.462h0a.9.9,0,0,0-.745.205c-.9.871-3.78,3.493-5.316,2.962a11.273,11.273,0,0,1-2.776-1.359.946.946,0,0,0-1.109-.027" transform="translate(14988.204 1346.466)" fill="#ee5064"/>
      <path id="Path_5301" data-name="Path 5301" d="M827.419,464.039l-9.039,7.327c-.462.343-.132.922.529.926l13.343.108a.777.777,0,0,0,.716-.363l1.007-2.063c.29-.6.87-.644.817-.013l.493,1.991c-.027.314,3.164.229,3.192-.057a56.361,56.361,0,0,0-.512-9.176.665.665,0,0,0-.6-.462h0a.9.9,0,0,0-.745.205c-.9.871-3.78,3.493-5.316,2.962a11.273,11.273,0,0,1-2.776-1.359A.946.946,0,0,0,827.419,464.039Z" transform="translate(14988.204 1346.466)" fill="none" stroke="#000" stroke-width="2"/>
      <path id="Path_5302" data-name="Path 5302" d="M898.37,461.8l5.133,8.6a1.676,1.676,0,0,1-.748,2.424c-1.6.955-2.916,2.86-3.926,2.889-1.825.05-4.662-1.871-6.314-2.592-1.11-.483-1.979-1.193-1.842-2.12l1.277-8.624c.015-.107.2-.146.3-.061l1.965,1.781c.644.584,2.391.505,2.826-.193.31-.5,1.036-2.107,1.036-2.107a.2.2,0,0,1,.3.006" transform="translate(14974.318 1346.566)" fill="#ee5064"/>
      <path id="Path_5303" data-name="Path 5303" d="M898.37,461.8l5.133,8.6a1.676,1.676,0,0,1-.748,2.424c-1.6.955-2.916,2.86-3.926,2.889-1.825.05-4.662-1.871-6.314-2.592-1.11-.483-1.979-1.193-1.842-2.12l1.277-8.624c.015-.107.2-.146.3-.061l1.965,1.781c.644.584,2.391.505,2.826-.193.31-.5,1.036-2.107,1.036-2.107A.2.2,0,0,1,898.37,461.8Z" transform="translate(14974.318 1346.566)" fill="none" stroke="#000" stroke-width="2"/>
      <path id="Path_5304" data-name="Path 5304" d="M857.916,274.3a79.1,79.1,0,0,1,8.715,22.007c2.762,10.8,32.649,102.172,33.952,121.82-3.4.821-26.009.7-28.16.581-6.843-19.609-24.155-83.294-27.089-95.648-.451-1.9-3.385-1.482-3.156.456,1.665,14.107,10.638,73.527,15.11,95.228-1.785.909-27.7.707-29.764.448-2.243-24.2-14.143-115.8,3.822-145.487,8.214-1.133,18.239.348,26.569.6" transform="translate(14987.55 1382.657)" fill="#672376"/>
      <path id="Path_5305" data-name="Path 5305" d="M857.916,274.3a79.1,79.1,0,0,1,8.715,22.007c2.762,10.8,32.649,102.172,33.952,121.82-3.4.821-26.009.7-28.16.581-6.843-19.609-24.155-83.294-27.089-95.648-.451-1.9-3.385-1.482-3.156.456,1.665,14.107,10.638,73.527,15.11,95.228-1.785.909-27.7.707-29.764.448-2.243-24.2-14.143-115.8,3.822-145.487C839.562,272.574,849.587,274.055,857.916,274.3Z" transform="translate(14987.55 1382.657)" fill="none" stroke="#000" stroke-width="2"/>
      <path id="Path_5306" data-name="Path 5306" d="M833.252,277.786s-7.317,18.107-7.317,43.664,8.377,90.3,8.377,90.3" transform="translate(14986.716 1381.795)" fill="none" stroke="#fff" stroke-width="1.5"/>
      <line id="Line_32" data-name="Line 32" x1="29.223" y1="134.798" transform="translate(15841.413 1658.747)" fill="none" stroke="#fff" stroke-width="1.5"/>
      <path id="Path_5307" data-name="Path 5307" d="M855.176,277.638s.248,23.409,10.755,21.564" transform="translate(14981.116 1381.824)" fill="none" stroke="#fff" stroke-width="1.5"/>
      <g id="Group_1261" data-name="Group 1261" transform="translate(15819.015 1660.057)" opacity="0.21" style="mix-blend-mode: multiply;isolation: isolate">
        <g id="Group_1260" data-name="Group 1260" transform="translate(0)">
          <g id="Group_1259" data-name="Group 1259" clip-path="url(#clip-path-10)">
            <path id="Path_5308" data-name="Path 5308" d="M833.807,278.375l33.822,25.468s1.412-13.744-4.6-25.024Z" transform="translate(-833.807 -278.375)"/>
          </g>
        </g>
      </g>
      <path id="Path_5309" data-name="Path 5309" d="M828.207,300.558c10.507,1.846,8.816-21.445,8.816-21.445" transform="translate(14986.28 1381.541)" fill="none" stroke="#fff" stroke-width="1.5"/>
      <path id="Path_5310" data-name="Path 5310" d="M853.233,225.024s2.143-.619,1.788-.163a8.963,8.963,0,0,1-1.876,1.47Z" transform="translate(14981.504 1391.964)" fill="#c20034"/>
      <line id="Line_33" data-name="Line 33" x1="27.164" y2="0.004" transform="translate(15815.089 1793.683)" fill="none" stroke="#fff" stroke-width="1.5"/>
      <line id="Line_34" data-name="Line 34" x1="27.604" y2="0.257" transform="translate(15858.306 1793.431)" fill="none" stroke="#fff" stroke-width="1.5"/>
      <path id="Path_5311" data-name="Path 5311" d="M878.8,328.363c0-.179.179-2.091.179-2.091l-.867,2.748Z" transform="translate(14976.722 1372.509)" fill="#d15449"/>
      <path id="Path_5312" data-name="Path 5312" d="M872.111,332.221l-.6.471s.627,1.142.9,1.053a1.972,1.972,0,0,1-.291-1.523" transform="translate(14977.988 1371.37)" fill="#d15449"/>
      <path id="Path_5313" data-name="Path 5313" d="M827.85,226.063c-8.489-2.122-11.737,19.219-14.078,29.092-.1.409-16.3-15.371-16.3-15.371s-.187-.247-.5-.658c-.481-1.285-1.655-4.244-2.215-4.132a5.031,5.031,0,0,0-.793.269c-2.412-3.036-5.238-6.421-5.57-6.061-.858.93,2.431,5.935,2.431,5.935a1.686,1.686,0,0,1-.858.858,2.032,2.032,0,0,0-1.216,1.572c-.214.859-1.072,1.359-1.215,1.859s3.05,4.266,4.862,5.577c0,0,22.107,30.657,27.288,27,0,0,5.943-4.2,2.954-21.323-.006-1.664-.014-2.817.045-3.078,0,0,1.285-16.91,4.064-20.412.3-.384,1.226-1.1,1.1-1.129" transform="translate(14994.071 1391.73)" fill="#f1aba5"/>
      <path id="Path_5314" data-name="Path 5314" d="M827.85,226.063c-8.489-2.122-11.737,19.219-14.078,29.092-.1.409-16.3-15.371-16.3-15.371s-.187-.247-.5-.658c-.481-1.285-1.655-4.244-2.215-4.132a5.031,5.031,0,0,0-.793.269c-2.412-3.036-5.238-6.421-5.57-6.061-.858.93,2.431,5.935,2.431,5.935a1.686,1.686,0,0,1-.858.858,2.032,2.032,0,0,0-1.216,1.572c-.214.859-1.072,1.359-1.215,1.859s3.05,4.266,4.862,5.577c0,0,22.107,30.657,27.288,27,0,0,5.943-4.2,2.954-21.323-.006-1.664-.014-2.817.045-3.078,0,0,1.285-16.91,4.064-20.412C827.051,226.808,827.972,226.094,827.85,226.063Z" transform="translate(14994.071 1391.73)" fill="none" stroke="#000" stroke-width="2"/>
      <path id="Path_5315" data-name="Path 5315" d="M793.578,240.5s.072,1.215-.93,1.43a1.2,1.2,0,0,1-1.5,1s.357.572-.428.715c0,0,3.36,3.646,2.86-3.146" transform="translate(14993.46 1388.936)" fill="#f79288"/>
      <path id="Path_5316" data-name="Path 5316" d="M794.3,237.619a16.188,16.188,0,0,1-2.506,2.067c.046-.085-.033-.243-.023-.219a1.575,1.575,0,0,0,.59.282,8.123,8.123,0,0,0,1.209.223.919.919,0,0,1,.568.244.771.771,0,0,1,.043.948,7.685,7.685,0,0,1-.529.992l-.079-.015.189-1.057c.017-.167.109-.383.011-.464-.833-.159-1.787.1-2.573-.582-.658-.765.6-1.267,1.143-1.533l1.923-.96Z" transform="translate(14993.405 1389.502)"/>
      <path id="Path_5317" data-name="Path 5317" d="M791.536,237.087c.568-.188,1.138-.131,1.223.476a.983.983,0,0,1-.178.694,10.355,10.355,0,0,1-1.1-1.116l.06-.054" transform="translate(14993.315 1389.609)"/>
      <path id="Path_5318" data-name="Path 5318" d="M789.741,239.344a5.684,5.684,0,0,1,3.054,1.994.527.527,0,0,0,.465.127l.066.048a.837.837,0,0,1-1.089.1,9.414,9.414,0,0,1-2.556-2.213Z" transform="translate(14993.659 1389.158)"/>
      <path id="Path_5319" data-name="Path 5319" d="M792.366,242.037a1.271,1.271,0,0,1-1.426,1.838,3.263,3.263,0,0,1-2.206-2.821l.063-.05a12.4,12.4,0,0,0,1.8,1.845c.891.706,1.551.192,1.694-.827l.079.015" transform="translate(14993.84 1388.84)"/>
      <path id="Path_5320" data-name="Path 5320" d="M790.841,243.244a1.207,1.207,0,0,1-1.338,1.9c-.444-.138-1.079-.629-.949-1.159l.061-.053a2.093,2.093,0,0,0,1.418.468c.548,0,.668-.726.728-1.155l.081,0" transform="translate(14993.878 1388.411)"/>
      <path id="Path_5321" data-name="Path 5321" d="M859.261,329.222l31.691-20.306L877.8,288.393l-27.377,17.541a5.124,5.124,0,0,0-1.55,7.078Z" transform="translate(14982.477 1379.764)" fill="#dd94c6"/>
      <path id="Path_5322" data-name="Path 5322" d="M859.261,329.222l31.691-20.306L877.8,288.393l-27.377,17.541a5.124,5.124,0,0,0-1.55,7.078Z" transform="translate(14982.477 1379.764)" fill="none" stroke="#000" stroke-width="2"/>
      <g id="Group_1264" data-name="Group 1264" transform="translate(15847.33 1672.194)" opacity="0.6">
        <g id="Group_1263" data-name="Group 1263" transform="translate(0 0)">
          <g id="Group_1262" data-name="Group 1262" clip-path="url(#clip-path-11)">
            <path id="Path_5323" data-name="Path 5323" d="M874.475,293.387s5.109,2.372,1.161,16.856a5.469,5.469,0,0,0-.234,2.418l.887,6.225c.133.666.223,1.561-.342,1.938-.708.471-4.742,4.177-5.232,4.342-1,.331.091-4.588-.072-7.181a24.36,24.36,0,0,0-.2,2.561l-.123,2.024c-1.205-.552-1.181-2.877-1.37-3.659a3.031,3.031,0,0,1,.075-1.976,17.075,17.075,0,0,0,1.763-5.473c.1-1.2-.747-5.676-1.446-14.005Z" transform="translate(-868.83 -293.387)" fill="#4e7a8f"/>
          </g>
        </g>
      </g>
      <path id="Path_5324" data-name="Path 5324" d="M873.26,245.931c9.472,52.9,3.32,62.945,2.7,63.358-.776.517-5.2,4.579-5.734,4.759-1.092.364.1-5.03-.079-7.87a26.747,26.747,0,0,0-.22,2.807l-.134,2.218c-1.322-.6-1.3-3.152-1.5-4.01a3.33,3.33,0,0,1,.083-2.166,18.713,18.713,0,0,0,1.932-6c.106-1.321-8.871-44.282-10.449-50.595-2.144-8.579.555-18.432,3.574-18.765,3.747-.414,9.045,11.882,9.829,16.263" transform="translate(14980.366 1391.013)" fill="#f1aba5"/>
      <path id="Path_5325" data-name="Path 5325" d="M873.26,245.931c9.472,52.9,3.32,62.945,2.7,63.358-.776.517-5.2,4.579-5.734,4.759-1.092.364.1-5.03-.079-7.87a26.747,26.747,0,0,0-.22,2.807l-.134,2.218c-1.322-.6-1.3-3.152-1.5-4.01a3.33,3.33,0,0,1,.083-2.166,18.713,18.713,0,0,0,1.932-6c.106-1.321-8.871-44.282-10.449-50.595-2.144-8.579.555-18.432,3.574-18.765C867.178,229.254,872.476,241.55,873.26,245.931Z" transform="translate(14980.366 1391.013)" fill="none" stroke="#000" stroke-width="2"/>
      <path id="Path_5326" data-name="Path 5326" d="M862.589,242.618c-3.062-8.981-7.462-14.005-11.2-13.645A19.678,19.678,0,0,0,846.4,227.3a33,33,0,0,1-16.952-.025c.014-.475.019-.876.016-1.188,0,0-5.5-.77-7.69,3.711s-7.054,24.5-7.054,24.5l-13.537-12.965-5.243,9.534s19.256,24.309,24.785,22.593c1.709-.53,3.2-4.674,4.447-10.325a11.777,11.777,0,0,1,.777,3.208s3.942,3.1,24.837.253c1.464,10.259,3.134,22.188,4.64,30.03l12.393-1.335c-.382-1.621,1.657-32.481-5.226-52.671" transform="translate(14992.461 1391.707)" fill="#ee5064"/>
      <path id="Path_5327" data-name="Path 5327" d="M862.589,242.618c-3.062-8.981-7.462-14.005-11.2-13.645A19.678,19.678,0,0,0,846.4,227.3a33,33,0,0,1-16.952-.025c.014-.475.019-.876.016-1.188,0,0-5.5-.77-7.69,3.711s-7.054,24.5-7.054,24.5l-13.537-12.965-5.243,9.534s19.256,24.309,24.785,22.593c1.709-.53,3.2-4.674,4.447-10.325a11.777,11.777,0,0,1,.777,3.208s3.942,3.1,24.837.253c1.464,10.259,3.134,22.188,4.64,30.03l12.393-1.335C867.433,293.668,869.471,262.808,862.589,242.618Z" transform="translate(14992.461 1391.707)" fill="none" stroke="#000" stroke-width="2"/>
      <path id="Path_5328" data-name="Path 5328" d="M869.358,171.382l6.308-6.308h23.756a8.755,8.755,0,0,0,8.755-8.756v-1.9a8.755,8.755,0,0,0-8.755-8.755H878.113a8.755,8.755,0,0,0-8.755,8.755Z" transform="translate(14978.399 1407.1)" fill="#ffc557"/>
      <path id="Path_5329" data-name="Path 5329" d="M901.768,156.851a2.184,2.184,0,1,0,2.184-2.184,2.183,2.183,0,0,0-2.184,2.184" transform="translate(14972.191 1405.376)" fill="#fafafa"/>
      <path id="Path_5330" data-name="Path 5330" d="M891.865,156.851a2.184,2.184,0,1,0,2.184-2.184,2.183,2.183,0,0,0-2.184,2.184" transform="translate(14974.089 1405.376)" fill="#fafafa"/>
      <path id="Path_5331" data-name="Path 5331" d="M881.962,156.851a2.184,2.184,0,1,0,2.184-2.184,2.183,2.183,0,0,0-2.184,2.184" transform="translate(14975.984 1405.376)" fill="#fafafa"/>
      <path id="Path_5332" data-name="Path 5332" d="M855.149,226.49l-3.474-4.544a45.465,45.465,0,0,1-10.352,5.113l.107,1.627a4.316,4.316,0,0,0,6.486,3.446c2.888-1.69,5.982-3.793,7.233-5.642" transform="translate(14983.768 1392.49)" fill="#ffebf1"/>
      <path id="Path_5333" data-name="Path 5333" d="M855.149,226.49l-3.474-4.544a45.465,45.465,0,0,1-10.352,5.113l.107,1.627a4.316,4.316,0,0,0,6.486,3.446C850.8,230.442,853.9,228.339,855.149,226.49Z" transform="translate(14983.768 1392.49)" fill="none" stroke="#000" stroke-width="2"/>
      <path id="Path_5334" data-name="Path 5334" d="M839.516,221.639s-1.038,3.936.916,5.439l-.56,1.364a1.849,1.849,0,0,1-3.59-.427,7.527,7.527,0,0,1,.05-2.045Z" transform="translate(14984.742 1392.549)" fill="#ffebf1"/>
      <path id="Path_5335" data-name="Path 5335" d="M839.516,221.639s-1.038,3.936.916,5.439l-.56,1.364a1.849,1.849,0,0,1-3.59-.427,7.527,7.527,0,0,1,.05-2.045Z" transform="translate(14984.742 1392.549)" fill="none" stroke="#000" stroke-width="2"/>
    </g>
  </g>
</svg>
