<?xml version="1.0" encoding="UTF-8"?>
<svg id="Layer_2" data-name="Layer 2" xmlns="http://www.w3.org/2000/svg" xmlns:xlink="http://www.w3.org/1999/xlink" viewBox="0 0 660.37 558.58">
  <defs>
    <style>
      .cls-1, .cls-2, .cls-3, .cls-4, .cls-5, .cls-6, .cls-7, .cls-8, .cls-9, .cls-10, .cls-11, .cls-12, .cls-13, .cls-14, .cls-15, .cls-16, .cls-17, .cls-18, .cls-19, .cls-20 {
        stroke: #000;
      }

      .cls-1, .cls-2, .cls-3, .cls-5, .cls-6, .cls-7, .cls-8, .cls-9, .cls-10, .cls-11, .cls-12, .cls-13, .cls-15, .cls-16, .cls-17, .cls-18, .cls-19, .cls-20 {
        stroke-miterlimit: 10;
      }

      .cls-1, .cls-2, .cls-5, .cls-6, .cls-7, .cls-9, .cls-10, .cls-11, .cls-12, .cls-13, .cls-14, .cls-15, .cls-16, .cls-17, .cls-18, .cls-19, .cls-20 {
        stroke-width: 2px;
      }

      .cls-1, .cls-21 {
        fill: #dd7a5c;
      }

      .cls-2 {
        fill: gray;
      }

      .cls-22 {
        fill: url(#_åçûìßííûé_ãðàäèåíò_40-3);
      }

      .cls-22, .cls-21, .cls-23, .cls-24, .cls-25, .cls-26, .cls-27, .cls-28, .cls-29, .cls-30, .cls-31 {
        stroke-width: 0px;
      }

      .cls-3 {
        stroke-width: .5px;
      }

      .cls-4 {
        stroke-linejoin: bevel;
      }

      .cls-5 {
        fill: #e7e7eb;
      }

      .cls-6, .cls-14, .cls-18, .cls-31 {
        fill: #f59979;
      }

      .cls-7 {
        fill: #a62973;
      }

      .cls-9 {
        fill: #ed8364;
      }

      .cls-10 {
        fill: #666;
      }

      .cls-24 {
        fill: url(#_åçûìßííûé_ãðàäèåíò_40-2);
      }

      .cls-25 {
        fill: #07242b;
      }

      .cls-11 {
        fill: #8a8a8a;
      }

      .cls-12, .cls-26 {
        fill: #3a2b2f;
      }

      .cls-13, .cls-27 {
        fill: #302626;
      }

      .cls-14 {
        stroke-linecap: square;
        stroke-linejoin: round;
      }

      .cls-15 {
        fill: none;
      }

      .cls-16 {
        fill: #ee5064;
      }

      .cls-17 {
        fill: #672376;
      }

      .cls-18 {
        opacity: .99;
      }

      .cls-19 {
        fill: #efd1b4;
      }

      .cls-28 {
        fill: url(#_åçûìßííûé_ãðàäèåíò_40);
      }

      .cls-29 {
        fill: url(#_åçûìßííûé_ãðàäèåíò_40-4);
      }

      .cls-30 {
        fill: url(#_åçûìßííûé_ãðàäèåíò_40-5);
      }

      .cls-20 {
        fill: #ffccc9;
      }
    </style>
    <linearGradient id="_åçûìßííûé_ãðàäèåíò_40" data-name="åçûìßííûé ãðàäèåíò 40" x1="483.74" y1="65.18" x2="511.95" y2="65.18" gradientUnits="userSpaceOnUse">
      <stop offset="0" stop-color="#f4c467"/>
      <stop offset="1" stop-color="#f4b267"/>
    </linearGradient>
    <linearGradient id="_åçûìßííûé_ãðàäèåíò_40-2" data-name="åçûìßííûé ãðàäèåíò 40" x1="289.26" y1="18.3" x2="325.85" y2="18.3" xlink:href="#_åçûìßííûé_ãðàäèåíò_40"/>
    <linearGradient id="_åçûìßííûé_ãðàäèåíò_40-3" data-name="åçûìßííûé ãðàäèåíò 40" x1="54.81" y1="275.93" x2="72.38" y2="275.93" xlink:href="#_åçûìßííûé_ãðàäèåíò_40"/>
    <linearGradient id="_åçûìßííûé_ãðàäèåíò_40-4" data-name="åçûìßííûé ãðàäèåíò 40" x1="359.27" y1="333.83" x2="375.36" y2="333.83" xlink:href="#_åçûìßííûé_ãðàäèåíò_40"/>
    <linearGradient id="_åçûìßííûé_ãðàäèåíò_40-5" data-name="åçûìßííûé ãðàäèåíò 40" x1="601.51" y1="323.13" x2="615.78" y2="323.13" xlink:href="#_åçûìßííûé_ãðàäèåíò_40"/>
  </defs>
  <g id="Layer_2-2" data-name="Layer 2">
    <g>
      <g id="Stars">
        <path class="cls-28" d="m511.95,65.18c-9.02,2.81-11.3,5.09-14.1,14.1-2.81-9.02-5.09-11.3-14.1-14.1,9.02-2.81,11.3-5.09,14.1-14.1,2.81,9.02,5.09,11.3,14.1,14.1Z"/>
        <path class="cls-24" d="m325.85,18.3c-11.7,3.64-14.65,6.6-18.3,18.3-3.64-11.7-6.6-14.65-18.3-18.3,11.7-3.64,14.65-6.6,18.3-18.3,3.64,11.7,6.6,14.65,18.3,18.3Z"/>
        <path class="cls-22" d="m72.38,275.93c-5.62,1.75-7.04,3.17-8.79,8.79-1.75-5.62-3.17-7.04-8.79-8.79,5.62-1.75,7.04-3.17,8.79-8.79,1.75,5.62,3.17,7.04,8.79,8.79Z"/>
        <path class="cls-29" d="m375.36,333.83c-5.14,1.6-6.44,2.9-8.04,8.04-1.6-5.14-2.9-6.44-8.04-8.04,5.14-1.6,6.44-2.9,8.04-8.04,1.6,5.14,2.9,6.44,8.04,8.04Z"/>
        <path class="cls-30" d="m615.78,323.13c-4.56,1.42-5.72,2.57-7.14,7.14-1.42-4.56-2.57-5.72-7.14-7.14,4.56-1.42,5.72-2.57,7.14-7.14,1.42,4.56,2.57,5.72,7.14,7.14Z"/>
      </g>
      <g id="Decor">
        <g>
          <path class="cls-20" d="m187.87,71.4l-20.43-18.62c-1.82-1.66-4.63-1.53-6.29.29l-13,14.26c-1.34,1.48-3.51,1.87-5.29.98-6.47-3.24-13.28-5.54-20.23-6.9-2.02-.4-3.52-2.11-3.61-4.17l-.82-17.6c-.11-2.46-2.2-4.35-4.65-4.24l-27.61,1.28c-2.46.11-4.35,2.2-4.24,4.65l.89,19.12c.09,1.93-1.08,3.71-2.9,4.38-4.75,1.75-9.37,3.97-13.77,6.64-1.69,1.03-3.86.83-5.32-.51l-13.82-12.59c-1.82-1.66-4.63-1.53-6.29.29l-18.62,20.43c-1.66,1.82-1.53,4.63.29,6.29l13.46,12.27c1.49,1.36,1.88,3.54.95,5.34-2.84,5.53-4.99,11.32-6.45,17.23-.47,1.92-2.14,3.3-4.12,3.39l-20.16.94c-2.46.11-4.35,2.2-4.24,4.65l1.28,27.61c.11,2.46,2.2,4.35,4.65,4.24l19.48-.9c2.02-.09,3.85,1.19,4.45,3.12,1.98,6.3,4.76,12.4,8.33,18.12,1.05,1.69.85,3.88-.49,5.35l-11.85,13.01c-1.66,1.82-1.53,4.63.29,6.29l20.43,18.62c1.82,1.66,4.63,1.53,6.29-.29l11.85-13.01c1.35-1.48,3.51-1.87,5.3-.98,5.45,2.73,11.13,4.79,16.94,6.18,1.92.46,3.31,2.14,3.4,4.12l.84,18.07c.11,2.46,2.2,4.35,4.65,4.24l27.61-1.28c2.46-.11,4.35-2.2,4.24-4.65l-.82-17.66c-.09-2.01,1.17-3.83,3.09-4.45,6.41-2.05,12.61-4.93,18.41-8.63,1.69-1.08,3.9-.89,5.39.46l13.46,12.27c1.82,1.66,4.63,1.53,6.29-.29l18.62-20.43c1.66-1.82,1.53-4.63-.29-6.29l-13.82-12.59c-1.46-1.33-1.87-3.46-1-5.24,2.55-5.22,4.49-10.65,5.82-16.2.46-1.93,2.14-3.32,4.12-3.41l16.57-.77c2.46-.11,4.35-2.2,4.24-4.65l-1.28-27.61c-.11-2.46-2.2-4.35-4.65-4.24l-16.16.75c-2.01.09-3.83-1.18-4.45-3.1-1.97-6.15-4.7-12.1-8.19-17.69-1.05-1.69-.86-3.88.49-5.35l13-14.26c1.66-1.82,1.53-4.63-.29-6.29Zm-49.53,96.27c-15.64,17.17-42.24,18.4-59.41,2.76-17.17-15.64-18.4-42.24-2.76-59.41,15.64-17.17,42.24-18.4,59.41-2.76,17.17,15.64,18.4,42.24,2.76,59.41Z"/>
          <g>
            <path class="cls-27" d="m91.77,178.79c0-.43-.28-.81-.67-.97-4.29-1.76-8.35-4.29-11.98-7.59-13.52-12.32-16.88-31.68-9.6-47.46.44-.96-.63-1.91-1.54-1.36l-.03.02c-.18.11-.33.28-.42.47-7.64,16.61-4.1,36.98,10.12,49.94,3.82,3.48,8.11,6.15,12.63,8,.72.29,1.5-.25,1.48-1.02,0,0,0-.02,0-.02Z"/>
            <path class="cls-27" d="m6.97,160.58c-1.85.09-3.43-1.35-3.52-3.21l-1.28-27.61c-.09-1.85,1.35-3.43,3.21-3.52l20.16-.94c2.43-.11,4.54-1.85,5.12-4.22,1.45-5.89,3.59-11.61,6.36-17,1.14-2.23.66-4.95-1.19-6.63l-13.46-12.27c-1.37-1.25-1.47-3.38-.22-4.75l18.62-20.43c1.25-1.37,3.38-1.47,4.75-.22l13.82,12.59c1.8,1.64,4.53,1.9,6.62.63,4.29-2.61,8.86-4.82,13.58-6.55,2.27-.84,3.72-3.02,3.6-5.45l-.89-19.12c-.09-1.85,1.35-3.43,3.21-3.52l13.82-.64c.56-.03,1-.47,1.03-1.03h0c.03-.64-.49-1.17-1.13-1.14l-13.82.64c-3.05.14-5.42,2.74-5.27,5.79l.89,19.12c.07,1.47-.81,2.8-2.19,3.31-4.85,1.78-9.54,4.05-13.96,6.73-1.27.78-2.93.62-4.03-.38l-13.82-12.59c-2.26-2.06-5.76-1.9-7.82.36l-18.62,20.43c-2.06,2.26-1.9,5.76.36,7.82l13.46,12.27c1.12,1.02,1.42,2.68.72,4.04-2.85,5.53-5.04,11.41-6.54,17.47-.36,1.47-1.61,2.5-3.12,2.57l-20.16.94c-3.05.14-5.42,2.74-5.27,5.79l1.28,27.61c.14,3.05,2.74,5.42,5.79,5.27l14.11-.65,1.78-2.25-15.98.74Z"/>
          </g>
        </g>
        <g>
          <path class="cls-20" d="m644.63,156.99l7.21-18.43c.64-1.64-.17-3.49-1.81-4.13l-12.87-5.03c-1.33-.52-2.15-1.86-2.01-3.29.51-5.16.3-10.3-.57-15.3-.25-1.45.51-2.89,1.86-3.48l11.56-5.06c1.61-.71,2.35-2.59,1.64-4.2l-7.94-18.13c-.71-1.61-2.59-2.35-4.2-1.64l-12.56,5.49c-1.27.56-2.76.23-3.67-.81-2.39-2.73-5.05-5.25-7.97-7.5-1.12-.87-1.54-2.37-1.03-3.69l4.88-12.47c.64-1.64-.17-3.49-1.81-4.13l-18.43-7.21c-1.64-.64-3.49.17-4.13,1.81l-4.75,12.15c-.53,1.34-1.89,2.16-3.32,2.01-4.43-.48-8.85-.44-13.18.11-1.4.18-2.76-.59-3.33-1.88l-5.79-13.24c-.71-1.61-2.59-2.35-4.2-1.64l-18.13,7.94c-1.61.71-2.35,2.59-1.64,4.2l5.6,12.8c.58,1.33.19,2.88-.94,3.78-3.71,2.94-7.07,6.36-9.98,10.21-.86,1.14-2.37,1.57-3.7,1.05l-11.74-4.59c-1.64-.64-3.49.17-4.13,1.81l-7.21,18.43c-.64,1.64.17,3.49,1.81,4.13l11.74,4.59c1.33.52,2.15,1.87,2.01,3.29-.43,4.34-.35,8.67.21,12.91.18,1.41-.58,2.76-1.88,3.33l-11.87,5.19c-1.61.71-2.35,2.59-1.64,4.2l7.94,18.13c.71,1.61,2.59,2.35,4.2,1.64l11.6-5.08c1.32-.58,2.86-.2,3.77.93,3.02,3.76,6.53,7.16,10.49,10.1,1.16.86,1.6,2.38,1.07,3.72l-4.75,12.15c-.64,1.64.17,3.49,1.81,4.13l18.43,7.21c1.64.64,3.49-.17,4.13-1.81l4.88-12.47c.52-1.32,1.84-2.14,3.25-2.01,4.14.37,8.27.27,12.32-.26,1.41-.18,2.77.58,3.34,1.88l4.76,10.89c.71,1.61,2.59,2.35,4.2,1.64l18.13-7.94c1.61-.71,2.35-2.59,1.64-4.2l-4.64-10.61c-.58-1.32-.19-2.87.93-3.77,3.61-2.89,6.89-6.25,9.73-10.01.86-1.14,2.37-1.57,3.7-1.05l12.87,5.03c1.64.64,3.49-.17,4.13-1.81Zm-77.08-8.44c-15.49-6.06-23.14-23.53-17.08-39.02,6.06-15.49,23.53-23.13,39.02-17.08,15.49,6.06,23.14,23.53,17.08,39.02-6.06,15.49-23.53,23.14-39.02,17.08Z"/>
          <g>
            <path class="cls-27" d="m548.17,120.26c.28-.12.47-.39.47-.7.08-3.32.73-6.69,2.01-9.96,4.77-12.2,16.86-19.41,29.28-18.59.76.05,1.12-.91.52-1.38l-.02-.02c-.12-.09-.27-.15-.42-.16-13.07-.85-25.78,6.74-30.8,19.57-1.35,3.45-2.03,7-2.11,10.5-.01.55.55.94,1.06.73,0,0,.01,0,.02,0Z"/>
            <path class="cls-27" d="m538.61,58.89c-.53-1.22.02-2.64,1.24-3.18l18.13-7.94c1.22-.53,2.64.02,3.18,1.24l5.79,13.24c.7,1.6,2.4,2.56,4.13,2.34,4.31-.54,8.69-.58,13-.11,1.78.19,3.48-.83,4.13-2.5l4.75-12.15c.48-1.24,1.88-1.85,3.12-1.37l18.44,7.21c1.24.48,1.85,1.88,1.37,3.12l-4.88,12.47c-.64,1.63-.11,3.51,1.27,4.59,2.85,2.2,5.49,4.69,7.86,7.4,1.14,1.3,2.98,1.71,4.57,1.01l12.56-5.49c1.22-.53,2.64.02,3.18,1.24l3.97,9.08c.16.37.57.55.95.43h0c.44-.14.66-.63.47-1.05l-3.97-9.08c-.88-2-3.22-2.92-5.22-2.04l-12.56,5.49c-.97.42-2.08.18-2.77-.61-2.44-2.79-5.16-5.34-8.08-7.61-.85-.65-1.17-1.8-.78-2.79l4.88-12.47c.8-2.04-.21-4.34-2.25-5.13l-18.44-7.21c-2.04-.8-4.34.21-5.13,2.25l-4.75,12.15c-.4,1.01-1.43,1.64-2.52,1.52-4.43-.48-8.93-.45-13.36.11-1.07.13-2.09-.44-2.52-1.42l-5.79-13.24c-.88-2-3.22-2.92-5.22-2.04l-18.13,7.94c-2,.88-2.92,3.22-2.04,5.22l4.05,9.26,1.96.61-4.59-10.5Z"/>
          </g>
        </g>
        <g>
          <path class="cls-20" d="m260.05,340.71l7.98,26.46c.71,2.35,3.19,3.69,5.55,2.98l18.47-5.57c1.91-.58,3.97.19,5.04,1.88,3.89,6.1,8.56,11.57,13.82,16.3,1.53,1.38,1.93,3.61.96,5.43l-8.33,15.53c-1.16,2.17-.35,4.86,1.82,6.03l24.35,13.07c2.17,1.16,4.86.35,6.03-1.82l9.05-16.86c.92-1.71,2.83-2.63,4.73-2.27,4.98.94,10.07,1.4,15.22,1.36,1.98-.02,3.74,1.27,4.31,3.17l5.4,17.9c.71,2.35,3.19,3.69,5.55,2.98l26.46-7.98c2.35-.71,3.69-3.19,2.98-5.55l-5.26-17.44c-.58-1.93.21-4,1.92-5.07,5.28-3.29,10.09-7.15,14.38-11.48,1.39-1.4,3.53-1.73,5.28-.8l17.78,9.54c2.17,1.16,4.86.35,6.03-1.82l13.07-24.35c1.16-2.17.35-4.86-1.82-6.03l-17.19-9.22c-1.78-.96-2.69-2.99-2.22-4.96,1.53-6.42,2.28-13.08,2.15-19.82-.04-1.99,1.26-3.77,3.16-4.34l16.85-5.08c2.35-.71,3.69-3.19,2.98-5.55l-7.98-26.46c-.71-2.35-3.19-3.69-5.55-2.98l-16.85,5.08c-1.91.58-3.97-.19-5.05-1.88-3.27-5.14-7.1-9.82-11.37-14-1.41-1.38-1.74-3.54-.81-5.28l8.55-15.94c1.16-2.17.35-4.86-1.82-6.03l-24.35-13.07c-2.17-1.16-4.86-.35-6.03,1.82l-8.36,15.58c-.95,1.77-2.97,2.69-4.93,2.23-6.56-1.53-13.35-2.23-20.23-2.03-2.01.06-3.81-1.24-4.39-3.16l-5.26-17.44c-.71-2.35-3.19-3.69-5.55-2.98l-26.46,7.98c-2.35.71-3.69,3.19-2.98,5.55l5.4,17.9c.57,1.89-.17,3.93-1.83,5.01-4.86,3.17-9.32,6.84-13.3,10.92-1.39,1.42-3.54,1.75-5.29.81l-14.62-7.84c-2.17-1.16-4.86-.35-6.03,1.82l-13.07,24.35c-1.16,2.17-.35,4.86,1.82,6.03l14.25,7.65c1.78.95,2.69,2.98,2.23,4.94-1.47,6.29-2.17,12.8-2.05,19.39.04,1.99-1.26,3.77-3.16,4.34l-18.47,5.57c-2.35.71-3.69,3.19-2.98,5.55Zm91.92-57.21c22.24-6.71,45.7,5.88,52.4,28.12,6.71,22.24-5.88,45.7-28.12,52.4-22.24,6.71-45.7-5.88-52.4-28.12-6.71-22.24,5.88-45.7,28.12-52.4Z"/>
          <g>
            <path class="cls-27" d="m397.64,297.85c-.21.37-.17.83.08,1.18,2.78,3.72,4.97,7.97,6.38,12.66,5.28,17.51-1.77,35.85-16.12,45.66-.87.6-.44,1.97.62,1.96h.04c.21,0,.42-.07.6-.19,15.09-10.34,22.49-29.64,16.94-48.06-1.49-4.95-3.8-9.43-6.74-13.35-.46-.62-1.41-.55-1.8.12,0,0,0,.01-.01.02Z"/>
            <path class="cls-27" d="m461.07,356.99c1.64.88,2.25,2.92,1.37,4.56l-13.07,24.35c-.88,1.64-2.92,2.25-4.56,1.37l-17.78-9.54c-2.15-1.15-4.84-.74-6.56.99-4.27,4.31-9.04,8.13-14.18,11.33-2.12,1.32-3.1,3.92-2.38,6.3l5.26,17.44c.54,1.78-.47,3.66-2.25,4.19l-26.47,7.98c-1.78.54-3.66-.47-4.19-2.25l-5.4-17.9c-.7-2.34-2.91-3.96-5.36-3.94-5.02.04-10.07-.41-15.02-1.34-2.38-.45-4.74.69-5.89,2.83l-9.05,16.86c-.88,1.64-2.92,2.25-4.56,1.37l-12.19-6.54c-.49-.26-1.1-.11-1.41.35h0c-.36.53-.18,1.26.39,1.56l12.19,6.54c2.69,1.44,6.05.43,7.5-2.26l9.05-16.86c.7-1.3,2.13-1.99,3.58-1.72,5.08.96,10.27,1.42,15.43,1.38,1.49-.01,2.83.97,3.26,2.39l5.4,17.9c.88,2.93,3.97,4.58,6.9,3.7l26.47-7.98c2.93-.88,4.58-3.97,3.7-6.9l-5.26-17.44c-.44-1.45.16-3.03,1.45-3.84,5.28-3.29,10.19-7.21,14.58-11.64,1.06-1.07,2.67-1.32,3.99-.61l17.78,9.54c2.69,1.44,6.05.43,7.5-2.26l13.07-24.35c1.44-2.69.43-6.05-2.26-7.5l-12.44-6.68-2.68,1.02,14.1,7.56Z"/>
          </g>
        </g>
      </g>
      <g id="Puzzle">
        <g id="hand">
          <path class="cls-7" d="m494.36,282.85c-2.08,6.13-5.77,11.27-10.44,15.12-3.57,2.94-6.73,6.31-9.36,10.03-2.28,3.22-.86,7.69,2.87,8.92l77.62,25.52,26.27-77.36c1.27-3.74,5.8-5.19,9.01-2.92,3.6,2.54,6.84,5.59,9.69,9.01,3.83,4.61,8.97,8.24,15.1,10.26,18.69,6.15,39.09-5.1,43.46-24.87,3.24-14.69-3.53-29.33-16.87-36.24-7.75-4.01-16.11-4.72-23.7-2.83-4.29,1.07-8.68,1.59-13.04,1.49-3.95-.09-6.67-3.93-5.41-7.66l26.29-77.44-77.22-25.39c-3.83-1.26-7.74,1.64-7.74,5.66,0,3.98.48,7.97,1.41,11.89,1.38,5.84,1.18,12.13-.9,18.26-6.33,18.65-27.57,28.22-45.98,19.82-13.67-6.24-21.29-20.46-18.77-35.28,1.46-8.62,5.91-15.73,11.99-20.66,3.09-2.51,5.88-5.35,8.27-8.48,2.45-3.21,1.09-7.84-2.74-9.1l-77.3-25.42-26.22,77.23c-1.29,3.81-5.92,5.19-9.14,2.81-3.23-2.39-6.16-5.2-8.73-8.35-4.91-6.01-12.02-10.38-20.66-11.76-14.88-2.38-29.24,5.32-35.62,18.98-8.59,18.39.84,39.44,19.53,45.59,6.14,2.02,12.46,2.16,18.34.74,4.05-.98,8.18-1.5,12.29-1.49,4.03,0,6.89,3.85,5.6,7.66l-26.2,77.15,77.7,25.55c3.73,1.23,7.59-1.5,7.74-5.42.18-4.47-.31-8.96-1.38-13.35-1.84-7.54-1.06-15.86,3.04-23.61,7.05-13.33,21.82-20.2,36.56-17.09,19.84,4.18,30.96,24.38,24.63,43.04Z"/>
        </g>
        <g id="puzzle">
          <path class="cls-16" d="m228.91,316.28c-1.8,3.15-1.97,7-.45,10.32,1.83,3.98,4.18,7.81,7,11.37,4.44,5.62,6.58,12.43,6.17,19.68-.73,12.9-9.83,23.35-22.64,26-1.03.21-2.08.38-3.12.48-16.02,1.61-30.41-10.02-32.07-25.92-.56-5.34.39-10.7,2.75-15.47,2.03-4.11,3.55-8.37,4.53-12.67.81-3.54-.14-7.28-2.54-10.01-2.39-2.72-5.97-4.14-9.57-3.8l-82.73,7.84-7.23-70.9c-.39-3.83,3.17-6.97,7.09-6.31,4.47.75,8.82,2.14,12.94,4.08,7.08,3.33,15.51,4.29,24.11,1.96,14.8-4.01,24.88-16.78,25.07-31.57.25-19.91-17.34-34.77-37.27-32.55-6.54.73-12.47,3.21-17.32,6.9-3.71,2.82-7.75,5.16-12.04,6.92-3.7,1.52-7.83-.76-8.22-4.6l-8.14-79.8,82.62-9.23c3.99-.45,6.43-4.49,4.89-8.05-1.73-3.98-4.03-7.72-6.8-11.16-3.73-4.63-6.19-10.31-6.84-16.62-1.96-19.22,13.73-36.48,34.33-36.58,15.3-.08,28.34,9.45,32.24,23.69,2.26,8.27,1.12,16.44-2.45,23.34-2.02,3.9-3.5,8-4.37,12.21-.79,3.81,2.42,7.22,6.4,6.77l82.71-9.24,8.09,79.39c.4,3.93-3.34,7.09-7.33,6.26-3.95-.82-7.81-2.11-11.49-3.81-5.49-2.53-11.78-3.65-18.32-2.92-19.92,2.23-34.12,20.64-29.87,40.05,3.16,14.42,15.6,24.66,30.87,25.32,8.88.38,16.93-2.43,23.17-7.24,3.18-2.45,6.62-4.54,10.25-6.18.98-.44,1.84-.56,2.84-.56,3.66,0,6.31,2.72,7.28,3.84,2.56,25.16,5.12,50.33,7.69,75.49l-83.66,7.71c-3.6.36-6.82,2.44-8.61,5.57Z"/>
          <path class="cls-25" d="m81.6,181.21c-.37,0-.68-.28-.72-.65l-6.22-61.81c-.04-.39.24-.74.63-.79l38.1-4.71c.4-.05.76.23.81.63.05.4-.23.76-.63.81l-37.4,4.63,6.15,61.1c.04.4-.25.75-.65.79-.02,0-.05,0-.07,0Z"/>
          <path class="cls-25" d="m555.96,342.78c-.07,0-.14,0-.21-.03l-49.25-14.82c-.38-.11-.6-.52-.48-.9.12-.38.52-.6.9-.48l48.56,14.61c1.07-3.41,5.95-19.05,10.9-34.51,3.27-10.23,5.92-18.38,7.89-24.24,1.17-3.48,2.1-6.18,2.78-8.03,1.22-3.32,1.4-3.47,1.91-3.54.29-.04.57.09.73.34.21.33.12.77-.21.99-1.67,3.04-14.5,43.33-22.85,70.1-.1.31-.38.51-.69.51Z"/>
        </g>
      </g>
      <path class="cls-9" d="m343.31,282.65c-4.91-5.09-11.52-7.29-16.35-10.08.39-2.14.1-4.28-.91-6.44-1.29-1.44-4.3-1.74-7.03-1.31-3.22.78-6.71,2.75-9.97,4.31l-10.92-4.78-10.5,14.58,16.17,6.13,5.51,4.52,15.98,6.31,3.44,1.02c2.05.03,3.35-.97,3.01-2.95,2.27.95,4.53-.03,4.67-3.05,2.65.34,3.91-1.81,3.7-4.33,3.45.98,4.69-1.46,3.2-3.93Z"/>
      <path class="cls-14" d="m326.53,296.28l-1.25-.39c.49-.56.71-1.19.62-1.9-.28-1.42-1.29-2.07-2.72-1.67-.03-1.97-1.17-3.01-2.69-2.83-1.01.11-1.88.81-2.3,1.74.14-1.81-1.95-2.68-3.15-2.46-.86.16-2.04,1.06-2.14,2.51l.42-.79c.75-1.43-.42-3.12-2.02-2.9-.11.02-.23.04-.35.06-1.55.54-2.07,1.76-2.15,3.29,0,1.68,2.71,2.7,3.58,1.3-.43,2.74,3.03,3.75,4.85,1.64-.49,2.59,2.22,4.06,4.54,1.25-.82,2.51,1.75,3.87,4.29,1.5l.45-.35Z"/>
      <path class="cls-27" d="m344.62,281.4c-.11,0-.23-.05-.3-.15l-3.07-4.33c-.12-.16-.08-.39.09-.5.16-.12.39-.08.5.09l3.07,4.33c.12.16.08.39-.09.5-.06.04-.14.07-.21.07Z"/>
      <path class="cls-27" d="m342.63,286.98c-.14,0-.28-.08-.34-.22-.08-.18.01-.4.2-.47.8-.33,1.3-1.37,1.08-2.23-.46-1.8-1.83-2.72-3.73-4-.18-.12-.36-.24-.54-.37-1.79-1.22-3.83-2.1-5.8-2.95-1.82-.78-3.7-1.59-5.4-2.67-.76-.48-1.62-.71-2.49-.65l-3.8.23c-.44.03-.83.28-1.03.67l-2.15,4.8c-.56,1.25-1.86,1.97-3.17,1.77-.9-.14-1.63-.65-2-1.4-.18-.36-.25-.79-.22-1.24.13-1.63,1.82-7.31,2.43-8.62.38-.82,1.06-1.47,1.9-1.81l7.06-2.87s.09-.03.13-.03l6.55-.03h0c.2,0,.36.16.36.36,0,.2-.16.36-.36.36l-6.48.03-6.99,2.84c-.67.27-1.21.78-1.51,1.44-.63,1.37-2.25,6.94-2.37,8.38-.03.32.02.61.14.86.36.73,1.07.94,1.46,1,.98.16,1.97-.4,2.4-1.35l2.15-4.81s0-.01,0-.02c.32-.61.95-1.02,1.64-1.07l3.8-.23c1.02-.06,2.03.2,2.92.76,1.66,1.05,3.51,1.85,5.3,2.62,2,.86,4.07,1.76,5.92,3.01.18.13.37.25.54.37,1.95,1.32,3.5,2.35,4.03,4.42.31,1.21-.38,2.62-1.51,3.08-.04.02-.09.03-.14.03Z"/>
      <path class="cls-6" d="m312.76,292.08s-.08,0-.12-.02c-.19-.07-.28-.28-.21-.46l.81-2.21c.07-.19.28-.28.46-.21.19.07.28.28.21.46l-.81,2.21c-.05.15-.19.24-.34.24Z"/>
      <path class="cls-6" d="m317.47,293.6s-.08,0-.12-.02c-.19-.07-.28-.28-.22-.46l.73-2.01c.07-.19.28-.28.46-.22.19.07.28.28.22.46l-.73,2.01c-.05.15-.19.24-.34.24Z"/>
      <path class="cls-6" d="m322.06,295.49s-.09,0-.13-.03c-.19-.07-.28-.28-.2-.47l1.09-2.73c-.07-1.09-.73-1.93-1.69-2.16-.79-.19-1.9.05-2.62,1.31-.08.14-.25.21-.41.17-.16-.04-.27-.19-.26-.36.03-1.1-.48-1.96-1.34-2.28-.91-.34-1.95-.03-2.66.81-.1.12-.28.16-.43.1-.15-.07-.23-.22-.21-.39.13-.83-.34-1.38-.82-1.62-.54-.27-1.44-.3-2.19.49-.51.63-.85,1.52-1.02,2.67-.03.2-.22.33-.41.3-.2-.03-.33-.21-.3-.41.19-1.3.58-2.29,1.18-3.03,0,0,.01-.01.02-.02.84-.89,2.03-1.14,3.04-.65.63.31,1.05.86,1.19,1.52.85-.62,1.9-.8,2.85-.44.89.33,1.49,1.06,1.71,2.01.77-.79,1.81-1.13,2.83-.88,1.3.31,2.18,1.46,2.24,2.91,0,.05,0,.1-.03.15l-1.12,2.81c-.06.14-.19.23-.34.23Z"/>
      <path class="cls-6" d="m326.53,296.64s-.07,0-.11-.02l-1.25-.39c-.19-.06-.29-.26-.24-.44l.58-2.05c.18-.87-.65-1.23-.91-1.32-.52-.18-1.01-.11-1.1.07-.09.18-.31.25-.49.16-.18-.09-.25-.31-.16-.49.32-.63,1.24-.69,1.99-.43,1.04.36,1.58,1.21,1.38,2.16,0,0,0,.02,0,.02l-.49,1.73.91.29c.19.06.3.26.24.45-.05.15-.19.25-.34.25Z"/>
      <path class="cls-8" d="m340.15,286.78c-.09,0-.17-.03-.24-.09-1.38-1.22-2.87-2.33-4.43-3.3-.17-.11-.22-.33-.12-.5.11-.17.33-.22.5-.12,1.6.99,3.12,2.13,4.53,3.38.15.13.16.36.03.51-.07.08-.17.12-.27.12Z"/>
      <path class="cls-8" d="m336.47,291.15c-.09,0-.19-.04-.26-.11-2.11-2.14-4.55-3.89-7.26-5.19-.18-.09-.26-.3-.17-.48.09-.18.3-.26.48-.17,2.79,1.34,5.3,3.14,7.46,5.34.14.14.14.37,0,.51-.07.07-.16.1-.25.1Z"/>
      <path class="cls-8" d="m331.77,294.33c-.07,0-.14-.02-.21-.06-.79-.55-1.49-1.21-2.17-1.85-.81-.77-1.58-1.49-2.5-2.05-.17-.1-.23-.33-.12-.5.1-.17.33-.23.5-.12.98.59,1.81,1.38,2.62,2.14.66.62,1.34,1.27,2.09,1.78.16.11.2.34.09.5-.07.1-.18.16-.3.16Z"/>
      <path class="cls-18" d="m308.1,332.27c-.88-1.4-3.68-5.94-5.79-9.85-.78-1.45-1.64-2.85-2.56-4.21-1.96-2.88-5.63-8.03-9.35-9.14-1.03-3.02-2.09-6.23-3.19-9.6-.37.2-.69.51-.89.93-1.18-.56-1,.56-1.77.8-5.02.97-9.63,3.28-14.54,4.47,2.92,4.63,5.22,8.18,6.28,10.1-1.61,7.24-.47,11.71.69,15,.83,3.33,2.92,8.83,4.32,11.62.36.72,5.87-1.71,6.18-1.81,2.5-1.12,12.03-4.14,13.75-3.78.09,0,.19.01.28.02-1.06-3.54-2.25-6.97-2.9-8.77,0,0,0,0,0,0-.14-.41-.29-.85-.44-1.3.77.59,1.7,1.44,2.83,2.7.84,1.22,5.16,5.67,6.92,4.01.35-.33.42-.84.2-1.2Z"/>
      <path class="cls-23" d="m298.13,327.5s-.02,0-.02,0c-.12,0-2.89-.11-6.01-1.43-4.18-1.77-6.96-4.88-8.04-9-.1-.39.13-.78.52-.88.39-.1.78.13.88.52,2.34,8.9,12.59,9.34,12.7,9.35.4.01.71.35.7.75-.01.39-.33.7-.72.7Z"/>
      <path class="cls-23" d="m282.64,330.82s-.09,0-.13-.01c-.39-.07-.65-.45-.58-.84l1.27-6.96c.07-.39.45-.65.84-.58.39.07.65.45.58.84l-1.27,6.96c-.06.35-.37.59-.71.59Z"/>
      <path class="cls-23" d="m275.16,315.61c-.29,0-.56-.17-.67-.45-.15-.37.03-.79.4-.94l4.3-1.76c.37-.15.79.03.94.4.15.37-.03.79-.4.94l-4.3,1.76c-.09.04-.18.05-.27.05Z"/>
      <path class="cls-17" d="m251.81,195.26c-1.38.68,9.58,2.83,14.97,17.52,2.72,7.42,24.6,91.44,25.4,92.13l-19.95,8.41s-46.79-71.68-43.66-87.28c-.41-.88,10.08-27.79,23.25-30.78Z"/>
      <path class="cls-11" d="m303.49,349.2s-.29-12.1-6.39-11.26c.1-.7-14.82,2.05-14.82,2.05,0,0-5.28-.36-1.85,13.09-.77.11-3.58.49-3.58.49,0,0-5.11-17.01,4.69-18.22.06-.3,14.72-2.06,14.72-2.06,0,0,9.84-3.8,11.3,15.35-.08.11-4.07.56-4.07.56Z"/>
      <g>
        <path class="cls-2" d="m326.43,346.62c-10.79.75-49.21,2.75-73.88,12.99-2.29,1.09-.19,6.95.33,16.52.67,12.41.67,30.96,5.46,52.37,1.24.42,9.49,2.24,9.49,2.24,0,0,40.37-6.15,70.13-15.16.56-.17.94-.67.96-1.26.21-7.76-2.78-51.15-7.68-64.6-.73-1.99-2.69-3.25-4.8-3.11Z"/>
        <path class="cls-10" d="m258.34,428.5c-7.96-35.53-10.71-62.76-6.69-68.11.1-.12.21-.24.32-.36.02-.02.03-.03.05-.05,2.38-1.93,7.04-.2,8.75,7.95.84,5.94,2.15,10.19,7.07,62.81,0,0-1.03-.23-2.42-.54-.05-.01-.09-.02-.14-.03-.58-.13-1.21-.27-1.85-.42-.12-.03-.24-.06-.37-.08-.09-.02-.17-.04-.26-.06-.05-.01-.11-.02-.16-.04-.16-.04-.31-.07-.46-.11-.05-.01-.11-.02-.16-.04-.08-.02-.17-.04-.25-.06-.05-.01-.1-.02-.16-.04-.15-.04-.3-.07-.44-.1-.05-.01-.1-.02-.15-.04-.08-.02-.16-.04-.23-.06-.46-.11-.89-.22-1.26-.31-.05-.01-.1-.03-.15-.04-.18-.05-.34-.09-.48-.13-.03,0-.06-.01-.08-.02-.2-.06-.37-.1-.47-.14,0,0,0,0,0,0Z"/>
      </g>
      <path class="cls-18" d="m301.97,337.66c-1.27-2.7-1.63-4.15-3.08-5.38-1.33-1.12-3.51-.4-3.57,1.2-.06,1.48.65,3.66,2.07,6.74.41.9,1.63,1.73,3.17,1.48,2.13-.36,2.15-2.75,1.41-4.04Z"/>
      <path class="cls-18" d="m297.82,341.45c-.87-3.02-1.99-6.14-3.25-7.69-.71-.87-2.78-.48-3.15.63-.49,1.47-.65,3.99-.32,7.77.08.98.9,1.81,2.21,2.03,2.53.43,4.75-1.31,4.51-2.74Z"/>
      <path class="cls-18" d="m292.18,342.9c-.84-3.21-1.48-6.6-2.8-8.07-.65-.73-2.41-.4-2.82.54-.61,1.42-.87,4.02-.61,8.1.06.98.86,1.82,2.16,2.06,2.51.46,4.29-1.19,4.07-2.63Z"/>
      <path class="cls-18" d="m286.76,343.52c-.68-2.79-1.47-5.39-2.49-6.69-.68-.86-2.66-.57-3.19.5-.55,1.08.05,5.92,1,7.21,1.55,2.09,5.02.37,4.68-1.02Z"/>
      <path class="cls-23" d="m317.6,415.97c-.36,0-.68-.27-.72-.64-.04-.4.24-.76.64-.8,4.37-.49,8.75-1.3,13.02-2.4.98-.25,2.07-.59,2.54-1.36.35-.58.34-1.38.28-2.28l-1.64-28.79c-.02-.4.28-.74.68-.76.4-.03.74.28.76.68l1.64,28.79c.05.89.12,2.1-.49,3.11-.75,1.24-2.15,1.69-3.42,2.01-4.33,1.11-8.77,1.93-13.22,2.43-.03,0-.06,0-.08,0Z"/>
      <path class="cls-23" d="m269.57,384.06c-.32,0-.61-.21-.7-.53-1.54-5.54-2.79-11.22-3.71-16.9-.3-1.83-.51-3.91.71-5.51.93-1.22,2.44-1.74,3.77-2.12,5.48-1.58,11.15-2.47,16.84-2.67.4,0,.73.3.75.7.01.4-.3.73-.7.75-5.58.19-11.13,1.07-16.49,2.61-1.16.33-2.36.73-3.02,1.61-.87,1.14-.68,2.87-.43,4.4.91,5.62,2.15,11.26,3.68,16.74.11.39-.12.78-.5.89-.06.02-.13.03-.19.03Z"/>
      <path class="cls-23" d="m300.31,380.34c-.16,0-.33-.05-.46-.17-.31-.26-.35-.71-.09-1.02,1.28-1.54,2.74-2.92,4.34-4.12.32-.24.77-.17,1.01.15.24.32.17.77-.15,1.01-1.51,1.13-2.89,2.43-4.09,3.88-.14.17-.35.26-.56.26Z"/>
      <path class="cls-23" d="m295.93,390.7c-.17,0-.34-.06-.47-.18-.3-.26-.33-.72-.07-1.02,4.67-5.38,9.9-10.31,15.55-14.64.32-.24.77-.18,1.01.13.24.32.18.77-.13,1.01-5.58,4.27-10.74,9.13-15.34,14.44-.14.16-.34.25-.55.25Z"/>
      <g>
        <path class="cls-31" d="m150.19,511.33s0-.01,0-.02c0,.01,0,.02,0,.02Z"/>
        <path class="cls-31" d="m171.05,515.34c3.83-4.51,11.23-12.67,11.23-12.67l-16.99-10.81-14.93,14.55s.79.96,2.12,2.33c-1.15,1.34-2.22,2.57-2.29,2.59-.58,8.57,20.86,18.08,20.86,18.08-4.73-7.57-.86-13.01,0-14.07Z"/>
      </g>
      <path class="cls-16" d="m141.03,517.51s-.02-.06-.02-.09c-.1-.44.06-.87.23-1.27,1.55-3.61,4.22-6.55,7.05-9.23,2.59-2.45,4.95-4.96,5.81-4.13,1.42,6.16,9.67,9.43,10.28,9.61.89.25,7.71,3.48,6.83,6.87-.13.51-.15,10.14,1.92,13.26,7.55,11.7,6.24,14.61,4.53,16.59-.58.67-1.55.84-2.45.48-4.32-1.75-11.12-8.18-14.33-11.31-.95-.93-1.79-1.97-2.47-3.1-2.27-3.77-4.74-7.46-8.05-10.46-.72.83-1.08.51-1.41.22-2.33-2.08-4.66-4.16-6.99-6.25-.38-.34-.78-.72-.93-1.19Z"/>
      <path class="cls-3" d="m171.16,523.58c-.12,0-.24-.03-.35-.09l-5.67-3.1c-.35-.19-.48-.63-.29-.98.19-.35.63-.48.98-.29l5.67,3.1c.35.19.48.63.29.98-.13.24-.38.38-.64.38Z"/>
      <path class="cls-3" d="m171.4,527.73c-.11,0-.22-.03-.33-.08l-6.24-3.15c-.36-.18-.5-.62-.32-.97.18-.36.62-.5.97-.32l6.24,3.15c.36.18.5.62.32.97-.13.25-.38.4-.65.4Z"/>
      <path class="cls-7" d="m210.22,316.96c-6.64,45.68-9.17,63.91-21.54,103.19-10.98,34.86-35.17,80.13-34.77,80.35-.01.04,4.76,3.88,25.66,16.84,19.88-23.44,40.94-58.69,61.57-104.88,21.09-45.74,26.79-102.21,30.89-148.05,1.86-22.77-60.04,41.38-61.81,52.56Z"/>
      <g>
        <path class="cls-31" d="m231.7,542.69s0,0-.01-.01c0,.02,0,.02.01.01Z"/>
        <path class="cls-31" d="m250.08,532.05c-.05-5.92.19-16.93.19-16.93l-19.92,2.97-1.75,20.77s1.23.21,3.13.37c.01,1.76.01,3.39-.04,3.45,5.18,6.86,27.61-.01,27.61-.01-8.53-2.62-9.18-9.27-9.22-10.63Z"/>
      </g>
      <path class="cls-16" d="m228.83,553.36s-.05-.03-.08-.05c-.37-.27-.53-.7-.66-1.11-1.19-3.74-1.1-7.71-.72-11.59.35-3.55.49-6.98,1.68-6.93,5.11,3.72,13.49.79,14.06.52.84-.39,8.1-2.42,9.66.72.23.47,6.53,7.76,10.14,8.76,13.37,3.89,14.29,6.95,14.29,9.56,0,.88-.62,1.65-1.53,1.97-4.41,1.51-13.77,1.11-18.24.85-1.33-.08-2.64-.32-3.9-.72-4.19-1.36-8.47-2.53-12.94-2.62,0,1.1-.49,1.1-.92,1.09-3.12-.05-6.25-.09-9.37-.14-.51,0-1.06-.03-1.48-.29Z"/>
      <path class="cls-3" d="m248.77,539.75c-.33,0-.63-.23-.71-.57-.08-.39.16-.78.55-.86l6.32-1.37c.39-.08.78.16.86.55.08.39-.16.78-.55.86l-6.32,1.37c-.05.01-.1.02-.15.02Z"/>
      <path class="cls-3" d="m251.22,543.07c-.32,0-.62-.22-.7-.55-.1-.39.14-.78.52-.88l6.77-1.71c.39-.1.78.14.88.52.1.39-.14.78-.52.88l-6.77,1.71c-.06.01-.12.02-.18.02Z"/>
      <polygon class="cls-9" points="263.06 151.47 257.74 178.61 236.96 160.77 243.55 127.64 263.06 151.47"/>
      <path class="cls-6" d="m279.31,133.43c-2.82-3.12-5.25-7.53-6.69-10.44-.15-2.15-.31-4.21-1.03-5.96-.78-1.93-2.32-4.46-2.72-4.56-20.87-5.47-16.75,27.63-16.75,27.63,0,0,.88,10.74,12.12,12.6,6.93,1.15,12.65-2.25,12.6-4.18.05-1.77-.89-7.68-1.64-11.72,0,0,3.34.22,4.35-2.08.19-.43.09-.94-.23-1.29Z"/>
      <path class="cls-26" d="m268.44,127.77c.23.96.02,1.84-.47,1.96-.5.12-1.09-.56-1.32-1.52-.23-.96-.02-1.84.47-1.96s1.09.56,1.32,1.52Z"/>
      <path class="cls-12" d="m268.55,104.54c1.99,1.55,3.45,3.64,3.16,6.35-.13,1.21-.64,2.37-1.48,3.25-2.12,2.24-5.1,1.9-7.81,1.46-1.17-.19-2.41-.38-3.49.11-4.34,1.95-3.38,12.11-2.4,15.57.26.92-.2,1.94-1.12,2.2-.61.17-3-1.9-4.44-3.35-.48-.47-1.28-.26-1.47.38l-2.94,10s-6.04,8.01-7.01,7.19c-2.47-2.08-4.21-5.22-5.54-6.88-.85-1.06-1.68-2.13-2.35-3.31-3.41-5.94-5.37-12.98-4.3-19.78.82-5.2,3.59-10.22,7.88-13.33,4.71-3.43,10.42-4.35,16.17-4.71,4.44-.28,8.07.77,12.27,2.27,1.58.56,3.37,1.41,4.87,2.57Z"/>
      <path class="cls-6" d="m252.95,141.48c-7.54.95-9.79-3.74-10.26-6.79-.22-1.45.1-2.96.94-4.16,3.04-4.36,6.4-1.14,8.04.23,0,0,2.59,3.29,3.94,2.69"/>
      <g>
        <path class="cls-27" d="m251.06,138.47c-.27,0-.52-.15-.65-.4-1.83-3.69-5.33-4.23-5.47-4.25-.39-.06-.67-.42-.61-.82.06-.39.42-.67.81-.62.18.02,4.39.65,6.57,5.04.18.36.03.79-.33.97-.1.05-.21.08-.32.08Z"/>
        <path class="cls-27" d="m246.94,137.27c-.19,0-.39-.08-.53-.23-.27-.29-.26-.75.04-1.02l1.69-1.58c.29-.27.75-.26,1.02.04.27.29.26.75-.04,1.02l-1.69,1.58c-.14.13-.32.19-.49.19Z"/>
      </g>
      <path class="cls-27" d="m264.33,126.13c-.18,0-.35-.06-.49-.19-.29-.27-.31-.73-.04-1.02,2.64-2.85,5.16-2.84,5.27-2.84.4,0,.72.34.71.74,0,.4-.33.71-.73.71-.09,0-2.02.04-4.19,2.37-.14.15-.34.23-.53.23Z"/>
      <path class="cls-5" d="m232.36,162.09l.52-1.13c1.35-2.95,4.85-4.22,7.79-2.84,8.34,3.89,23.08,12.92,21.18,27.49-.2-.29-29.5-23.52-29.5-23.52Z"/>
      <path class="cls-7" d="m204.93,287.55c-.17,8.37-1,13.93,1.24,23.99,2.25,10.06,3.69,20.28,4.12,30.58,3.52,83.7,14.28,188.68,14.28,188.68,0,0,5.72,2.92,30.1,0,3.77-57.37,15.66-171.96,18.43-245.52.64-17.04-67.59-26.55-68.18,2.27Z"/>
      <path class="cls-27" d="m219.12,294.2c-8.33,0-14.18-.07-14.35-.08-.4,0-.72-.33-.71-.73,0-.4.33-.71.72-.71,0,0,0,0,0,0,.49,0,49.6.62,67.14-1.76.4-.05.76.22.81.62.05.4-.22.76-.62.81-11.62,1.58-36.94,1.85-53.01,1.85Z"/>
      <path class="cls-4" d="m235.09,521.21h0c-.4,0-.72-.33-.72-.73l1.79-227.12c0-.4.33-.72.72-.72h0c.4,0,.72.33.72.73l-1.79,227.12c0,.4-.33.72-.72.72Z"/>
      <path class="cls-17" d="m243.91,168.15c-7.28-3.75-12.43-11.24-19.8-.7-3.95,5.65-9.45,14.02-12.29,26.9-1.99,9.02-1.68,18.97-1.29,28.13.5,11.91,3.05,24.59.9,36.41-.41,2.25-1.1,4.43-1.88,6.58-3.78,10.34-5.94,21.27-6.4,32.27l15.58,3.02c5.3,1.03,10.65,2.06,16.04,1.9,3.25-.1,6.46-.62,9.67-1.15,11.14-1.83,28.7-.13,28.7-2.83,5.1-21.59-2.75-90.58-9-109.44,0,0-8.25-14.95-20.23-21.11Z"/>
      <path class="cls-17" d="m242.75,169.86c.67-.15,9.98.55,18.59,13.61,4.35,6.59.55,47.81,1.88,50.99,4.82,11.53,40.08,28.81,41.01,29.3l-9.99,20.41s-46.83-9.24-58.52-32.1c-7.23-14.15-7.98-30.99-8.52-46.89-.6-.76,3.42-29.36,15.55-35.3Z"/>
      <path class="cls-27" d="m272.3,141.61c-.71,0-1.55-.06-2.5-.23-.39-.07-.66-.45-.59-.84.07-.39.45-.66.84-.59,2.51.44,4.17.02,4.18.01.39-.1.78.13.88.51.1.38-.12.78-.51.89-.05.01-.91.24-2.31.24Z"/>
      <path class="cls-23" d="m253.51,238.34c-.07.02-.15.03-.22.03-.31,0-.59-.2-.69-.5-.12-.38.09-.79.47-.91l9.93-3.2c.38-.12.79.09.91.47.12.38-.09.79-.47.91"/>
      <path class="cls-23" d="m218.84,253.52c.07-.39.45-.65.84-.58.39.07.65.45.58.84-.33,1.78-.05,3.58.24,5.49.21,1.34.42,2.73.41,4.13-.02,3.43-1.38,6.62-2.69,9.71-1.37,3.21-2.65,6.25-2.56,9.5.01.4-.3.73-.7.74,0,0-.01,0-.02,0-.39,0-.71-.31-.72-.7-.1-3.57,1.31-6.9,2.68-10.11,1.31-3.09,2.56-6.01,2.58-9.15"/>
      <path class="cls-4" d="m186.83,508.56c-.13,0-.26-.03-.38-.11-.13-.08-13.24-8.16-26.84-19.62-.3-.25-.33-.7-.07-.99.26-.29.71-.33,1.01-.07,13.51,11.39,26.53,19.41,26.66,19.49.34.21.44.64.23.97-.14.21-.37.33-.61.33Z"/>
      <path class="cls-4" d="m224.05,521.94c-.38,0-.69-.31-.7-.7-.01-.4.29-.73.68-.75,11.57-.4,30.77-1.45,30.96-1.46.39-.02.72.28.74.68.02.4-.28.74-.67.76-.19.01-19.41,1.07-30.99,1.47,0,0-.02,0-.02,0Z"/>
      <path class="cls-4" d="m448.32,132.83c-.23,0-.45-.11-.59-.31-6.76-9.62-3.94-16.2-1.65-19.26,3.06-4.11,8.21-6.22,10.76-5.37.38.13.58.54.46.92-.13.38-.54.58-.92.46-1.78-.6-6.39,1.18-9.14,4.86-3.54,4.75-2.95,10.99,1.67,17.57.23.33.15.78-.18,1.01-.13.09-.27.13-.42.13Z"/>
      <g>
        <path class="cls-31" d="m444.86,419.69c1.69,35.18,3.99,69.57,4.69,100.96h0c-.2,4.53-.73,9.7-2.01,13.14-.5,1.35-1.29,6.14-10.42,8.73l32.73-5.36.13-3.92c1.5-22.68,8.7-112.02,8.7-112.02,0,0-35.47-35.72-33.82-1.53Z"/>
        <g>
          <g>
            <path class="cls-31" d="m466.45,543.17s0,0,.01-.01c0,.02,0,.02-.01.01Z"/>
            <path class="cls-7" d="m470.06,553.35c1.35-3.95,1.35-8.17,1.03-12.3-.29-3.78-.06-7.89-1.32-7.85-10.98,6.53-20.91,1.6-21.52-1.74-1.47-.04-11.12,11.06-14.97,12.03-14.29,3.83-15.33,7.06-15.4,9.83-.02.94,52.04.46,52.19.02Z"/>
          </g>
          <path class="cls-19" d="m433.74,556.88c6.06-.03,12.17-.68,18.15-1.69,5.13-.87,10.58-.46,15.78-.35.54,0,1.13,0,1.58-.27.03-.02.06-.03.08-.05.39-.28.58-.73.73-1.16.72-2.1,1.05-4.28,1.16-6.48-1.13.08-2.26.2-3.37.41-1.43.26-2.83.63-4.24.98-13.4,3.25-27.32,3.94-41.08,3.28-1.39-.07-2.81-.16-4.16-.51-.38.8-.47,1.57-.49,2.3-.02.94.62,1.77,1.58,2.12,4.42,1.62,9.66,1.46,14.29,1.43Z"/>
        </g>
      </g>
      <g>
        <path class="cls-31" d="m493.09,419.87c3.06,35.08,6.69,69.36,8.61,100.7h0c-.02,4.54-.35,9.72-1.5,13.21-.45,1.37-1.05,6.19-10.07,9.13l32.5-6.63-.02-3.93c.61-22.73,4.34-112.27,4.34-112.27,0,0-36.83-34.31-33.86-.21Z"/>
        <g>
          <g>
            <path class="cls-31" d="m519.47,542.41s0,0,.01-.01c0,.02,0,.02-.01.01Z"/>
            <path class="cls-7" d="m523.47,552.44c1.2-4,1.03-8.21.55-12.33-.44-3.77-.36-7.88-1.63-7.8-10.71,6.96-20.83,2.42-21.58-.9-1.47.01-10.68,11.49-14.49,12.61-14.13,4.38-15.05,7.65-15.01,10.42.01.94,52.02-1.57,52.15-2.01Z"/>
          </g>
          <path class="cls-19" d="m487.32,557.38c6.05-.27,12.14-1.16,18.07-2.4,5.09-1.06,10.56-.87,15.76-.96.54-.02,1.13-.05,1.56-.33.03-.02.05-.04.08-.06.38-.29.55-.75.68-1.19.64-2.13.88-4.32.9-6.52-1.13.12-2.25.29-3.35.54-1.42.32-2.81.74-4.2,1.14-13.26,3.76-27.14,5-40.93,4.87-1.4-.01-2.82-.05-4.17-.35-.35.82-.41,1.59-.4,2.32.01.94.69,1.74,1.66,2.06,4.48,1.45,9.71,1.08,14.34.87Z"/>
        </g>
      </g>
      <path class="cls-17" d="m474.69,288.85l6.58,70.18s8.49,118.51,14.55,164.95c9.23,3.65,23.31,3.93,31.59-.2,1.53-17.3,3.31-195.44-4.79-230.72-5.88-1.31-47.92-4.21-47.92-4.21Z"/>
      <path class="cls-17" d="m443.32,291.87s-8.23,148.87-1.32,231.85c10.85,4.98,25.75,2.31,31.59-.21,1.1-21.13,10.01-164.88,10.01-164.88,0,0,2.37-31.76,1.52-65.73-20.43-.13-41.8-1.03-41.8-1.03Z"/>
      <path class="cls-4" d="m512.35,519.46c-4.85,0-10.91-.82-17.83-3.48-.37-.14-.56-.56-.42-.93.14-.37.56-.56.93-.42,19.63,7.53,32.24.13,32.37.06.34-.21.79-.1.99.25.21.34.1.79-.25.99-.14.08-3.39,2.02-9.19,3-1.83.31-4.06.54-6.61.54Z"/>
      <path class="cls-4" d="m459.26,519.43c-4.81,0-10.92-.82-18.14-3.45-.38-.14-.57-.55-.43-.93.14-.38.55-.57.93-.43,10.68,3.89,18.84,3.7,23.79,2.86,5.36-.91,8.25-2.77,8.28-2.79.33-.22.78-.13,1,.21.22.33.13.78-.21,1-.12.08-3.1,2.01-8.73,2.99-1.78.31-3.95.53-6.49.53Z"/>
      <path class="cls-4" d="m516.82,315.23c-.36,0-.67-.27-.72-.63-.99-7.52-.93-7.58-.61-7.91.1-.1.21-.16.35-.19,2.25-.53,8.38-2.18,8.45-2.2.39-.1.78.12.89.51s-.12.78-.51.89c-.06.02-5.33,1.43-7.92,2.07.09,1.1.42,3.76.7,5.92,1.38-.19,4.57-.7,7.59-1.59.38-.11.79.11.9.49.11.38-.11.79-.49.9-4.12,1.21-8.37,1.71-8.54,1.73-.03,0-.06,0-.08,0Z"/>
      <path class="cls-6" d="m403.77,232.59c-17.64,9.84-34.97,20.24-49.1,27.58-2.6,1.21-4.48,2.22-6.08,3.05-.15.07-.3.15-.45.22-.05.03-.09.06-.13.08-2.49,1.29-4.38,2.13-7.56,2.62-5.05-.78-10.24-1.16-15.68-.88-2.43.6-4.85,1.71-7.27,3.29-.62.4-1.14.94-1.52,1.56-1.76,2.85-2.37,5.39-2.01,8.58.22,2.07,2.78,2.65,3.73.77l3.18-6.14c1.6.15,3.58-.05,6.09-.77,3.41,2.73,7.24,4.56,11.3,6.31l5.04,3.78c.61-.09,1.09-.39,1.27-1.37,2.93-2.43,16.63-6.47,21.73-7.6.33-.07.66-.14,1-.21,0,0,.01,0,.01,0h0c16.18-3.37,40.81-9.37,50.4-19.69,4.63-4.97-9.39-18.23-13.95-21.19Z"/>
      <path class="cls-16" d="m394.65,235.24c5.55-9.08,15.67-24.22,29.26-41.01,8.92,7.33,54.26,31.12,53.57,32.29-15.71,2.75-26.23,3.29-38.92,15.58-7.46,7.22-19.18,15.93-27.49,17.91-.18.04-15.49-23.54-16.42-24.77Z"/>
      <path class="cls-1" d="m454.65,137.43s-4.07-6.43-8.09-2.9c-1.11.97-1.79,2.37-1.92,3.84-.28,3.12.82,8.29,8.58,9.12-.1.34,1.43-10.05,1.43-10.05Z"/>
      <path class="cls-6" d="m481.31,169.89l-.3-30.68-20.33,9.54.31,23.03c.02,1.57-.84,3.02-2.23,3.75l-9.9,5.22s18.42,21.48,46.61-3.5c-3.63-1.02-8.3-2.48-11.25-3.42-1.72-.55-2.89-2.14-2.9-3.94Z"/>
      <path class="cls-21" d="m479.9,153.52l-.09-10.04c-1.08-.82-2.46-1.06-3.08-2.65l-14.81,7.92.19,16.59c4.99-.38,14.2-3.67,17.78-11.82Z"/>
      <path class="cls-6" d="m483.83,133.02c1.2,14.07-5.83,25.29-15.45,26.97-14.46,2.53-18.59-9.9-19.78-23.97-1.2-14.07,5.72-26.14,15.45-26.97,9.73-.83,18.59,9.9,19.78,23.97Z"/>
      <path class="cls-27" d="m469.81,135.93c.02.95.43,1.71.92,1.7.49-.01.87-.79.85-1.74-.02-.95-.43-1.71-.92-1.7-.49.01-.87.79-.85,1.74Z"/>
      <path class="cls-27" d="m453.33,137.34c.02.95.43,1.71.92,1.7.49-.01.87-.79.85-1.74-.02-.95-.43-1.71-.92-1.7s-.87.79-.85,1.74Z"/>
      <path class="cls-13" d="m448.47,133.14c.5-3.5,1.66-15.84,12.82-16.53,6.63-.41,10.53,1.05,12.51,1.87,1.32.55,1.95-8.77,2.43-11.19-5.76-4.69-17.45-4.86-24.18,0-8.95,6.46-6.65,21.35-3.58,25.85Z"/>
      <path class="cls-13" d="m484.28,135.91c-6.51-2.45-2.93-14.32-10.48-17.43.06-2.09.64-6.14.78-8.24.32-1.61.47-3.02,1.65-2.95,20.35,1.1,14.36,20.92,12.7,23.78-1.22,2.1-2.13,5.82-4.66,4.85Z"/>
      <path class="cls-31" d="m481.22,134.28s1.37-1.38,3.17-2.35c1.96-1.07,4.43-1.66,6.17.52.92,1.16,1.34,2.65,1.21,4.12-.28,3.12-2.27,8.02-10.05,7.46.04.35-.49-9.74-.49-9.74Z"/>
      <g>
        <path class="cls-25" d="m483.64,140.89c-.09,0-.19-.02-.28-.06-.37-.15-.54-.58-.39-.95,1.91-4.54,6.09-5.44,6.27-5.47.39-.08.77.17.85.57.08.39-.17.77-.56.85-.15.03-3.62.8-5.22,4.62-.12.28-.38.44-.67.44Z"/>
        <path class="cls-25" d="m487.71,139.41c-.16,0-.32-.05-.46-.16l-1.8-1.47c-.31-.25-.35-.71-.1-1.02.25-.31.71-.35,1.02-.1l1.8,1.47c.31.25.35.71.1,1.02-.14.17-.35.26-.56.26Z"/>
      </g>
      <path class="cls-25" d="m467.49,132.24c-.2,0-.41-.09-.55-.25-.26-.3-.23-.75.07-1.01.1-.09,2.56-2.17,6.69-.64.37.14.57.55.43.93-.14.37-.56.57-.93.43-3.29-1.21-5.17.31-5.25.38-.14.11-.3.17-.47.17Z"/>
      <path class="cls-25" d="m451.78,133.53c-.25,0-.5-.13-.63-.37-.2-.35-.08-.79.27-.99.13-.08,3.3-1.85,5.92-.84.37.14.56.56.42.94-.14.37-.56.56-.94.42-1.65-.64-3.95.32-4.69.75-.11.06-.24.09-.36.09Z"/>
      <path class="cls-25" d="m461.83,145.82c-.84,0-1.52-.2-2.03-.6-.78-.6-.96-1.52-.94-1.98-.03-5.65.44-9.29.46-9.44.05-.4.41-.67.81-.62.4.05.68.42.62.81,0,.04-.48,3.7-.44,9.26,0,.01,0,.03,0,.04,0,0,0,.49.39.79.33.25,1.2.56,3.35-.13.38-.12.79.09.91.47.12.38-.09.79-.47.91-1.01.33-1.9.49-2.66.49Z"/>
      <path class="cls-25" d="m462.13,152.43c-.67,0-1.4-.08-2.19-.26-.39-.09-.63-.48-.54-.87.09-.39.48-.63.87-.54,4.67,1.09,6.76-2.1,6.84-2.24.21-.34.66-.44,1-.23.34.21.44.65.23.99-.02.04-2.01,3.15-6.22,3.15Z"/>
      <path class="cls-16" d="m524.8,185.56c-3.6-1.94-32.65-9.57-35.6-10.51-9.43,14.29-26.76,9.92-34.34,2.73-4.03,1.02-18.12,4.44-31.05,16.54-.01.24,16.86,23.25,18.63,101.03,5.77,1.67,39.18,17.6,81.29-.32-.19-5.2-7.28-90.4,1.07-109.47Z"/>
      <path class="cls-25" d="m471,185.69c-6.29,0-12.13-2.58-16.67-7.42-.27-.29-.26-.75.03-1.02.29-.27.75-.26,1.02.03,4.88,5.19,11.34,7.61,18.2,6.81,6.4-.75,12.42-4.27,14.99-8.75.2-.35.64-.47.99-.27.35.2.47.64.27.99-2.79,4.86-9.25,8.67-16.08,9.47-.92.11-1.84.16-2.75.16Z"/>
      <path class="cls-25" d="m432.6,222.8c-.4,0-.72-.32-.72-.72v-11.64c0-.4.32-.72.72-.72s.72.32.72.72v11.64c0,.4-.32.72-.72.72Z"/>
      <path class="cls-16" d="m524.65,185.51c6.46,2.72,22.42,21.39,29.09,63.44,1.43,8.98-2.02,12.75-7.45,14.33-11.88,3.47-15.32.55-23.07-9.09-1.16-11.38-12.38-16.03-13.15-27.45-.76-11.42.52-23.41,6.58-33.12,2.16-3.46,4.07-7.02,8-8.11Z"/>
      <rect class="cls-17" x="420.46" y="198.09" width="53.32" height="75.75" rx="11.49" ry="11.49" transform="translate(894.24 471.93) rotate(180)"/>
      <path class="cls-6" d="m487.25,230.39s-15.66-5-22.28-5.28c0,0,.02.05.03.1l-.03-.1s-21.69,3.57-21.48,6.85c.36,1.58,5.61,2.06,18.47.3.18-.02.35.06.45.2,0,0,0,0,0,0,.18.27.03.64-.29.7-5.17,1.08-18.97,4.23-18.8,6.9.17.76.98,1.35,3.43,1.39-1.54.6-2.53,1.25-2.53,1.95.27,1.61,3.34,2.64,18.68.17,0-.04.63-.09,1.43-.14.89-.05,1.43,1.01.83,1.67,0,0-.02.02-.02.03h0c-5.59,2.61-11.96,6.02-11.45,7.81.63,1.35,3.4,1.59,14.64-3.37h0s4.52-.82,4.52-.82h0c3.87.3,6.7,2.13,15.01-2.52,0,0,.06.02.17.04,8.44,1.89,57.43,39.89,65.95,15.21,1.01-7.68-7.57-25.88-66.74-31.1Z"/>
      <path class="cls-4" d="m446.76,242.18c-.33,0-.62-.22-.7-.56-.09-.39.15-.78.54-.87l17.04-4.06c.39-.09.78.15.87.54.09.39-.15.78-.54.87l-17.04,4.06c-.06.01-.11.02-.17.02Z"/>
      <path class="cls-4" d="m487.88,246.96c-.38,0-.7-.3-.72-.69l-.17-3.5c-.02-.4.29-.74.69-.76.4-.02.74.29.76.69l.17,3.5c.02.4-.29.74-.69.76-.01,0-.02,0-.03,0Z"/>
      <path class="cls-4" d="m482.49,133.48c-1.43,0-2.84-.5-3.94-1.43-1.27-1.07-2.16-2.71-2.71-4.99-.16-.67-.29-1.34-.41-2-.21-1.09-.4-2.13-.74-3.13-.35-1.03-1.18-2.86-2.84-3.63-.36-.17-.52-.6-.35-.96.17-.36.6-.52.96-.35,1.6.74,2.87,2.32,3.6,4.48.37,1.1.58,2.23.79,3.32.12.64.24,1.3.4,1.93.48,1.98,1.21,3.36,2.24,4.23,1.04.88,2.52,1.26,3.85,1.01.39-.08.77.18.85.57.08.39-.18.77-.57.85-.37.07-.75.11-1.12.11Z"/>
      <path class="cls-15" d="m484.39,131.93c4.12-2.48,6.17.52,6.17.52,0,0,1.9,1.74.93,5.7s-4.53,5.22-4.53,5.22c0,0-3.51,1.06-5.01.66"/>
    </g>
  </g>
</svg>