<?xml version="1.0" encoding="UTF-8"?>
<svg id="Layer_2" data-name="Layer 2" xmlns="http://www.w3.org/2000/svg" xmlns:xlink="http://www.w3.org/1999/xlink" viewBox="0 0 120 120">
  <defs>
    <style>
      .cls-1 {
        fill: none;
      }

      .cls-1, .cls-2 {
        stroke-width: 0px;
      }

      .cls-2 {
        fill: url(#Razorswift_Gradient);
      }
    </style>
    <linearGradient id="Razorswift_Gradient" data-name="Razorswift Gradient" x1="10" y1="60" x2="110" y2="60" gradientUnits="userSpaceOnUse">
      <stop offset="0" stop-color="#682376"/>
      <stop offset="1" stop-color="#a52973"/>
    </linearGradient>
  </defs>
  <g id="Layer_2-2" data-name="Layer 2">
    <g>
      <rect class="cls-1" width="120" height="120"/>
      <rect class="cls-1" x="10" y="10" width="100" height="100"/>
      <path class="cls-2" d="m109.02,58.17l-13.74-9.12c-.67-.45-1.54-.49-2.25-.11-.71.38-1.16,1.12-1.16,1.93v3.83h-20.6c3.16-5.76,8.01-10.42,13.99-13.34l1.74-.85,1.57,3.44c.34.74,1.05,1.23,1.85,1.28.81.05,1.58-.34,2-1.03l8.69-13.96c.39-.63.44-1.4.13-2.07-.31-.67-.92-1.14-1.65-1.26l-16.24-2.59c-.8-.13-1.6.19-2.09.84-.49.64-.59,1.5-.25,2.24l1.61,3.53-4.31,2.19c-5.28,2.68-9.75,6.64-13.04,11.47v-16.46h3.83c.81,0,1.55-.44,1.93-1.16s.34-1.58-.11-2.25l-9.12-13.74c-.41-.61-1.09-.98-1.83-.98s-1.42.37-1.83.98l-9.12,13.74c-.45.67-.49,1.54-.11,2.25.38.71,1.12,1.16,1.93,1.16h3.83v3.46c0,.81.66,1.46,1.46,1.46s1.46-.66,1.46-1.46v-4.2c0-1.21-.98-2.19-2.19-2.19h-3.2l7.75-11.67,7.75,11.67h-3.2c-1.21,0-2.19.98-2.19,2.19v27.32h-4.72v-16.34c0-.81-.66-1.46-1.46-1.46s-1.46.66-1.46,1.46v6.22c-3.29-4.83-7.76-8.79-13.04-11.47l-4.31-2.19,1.61-3.53c.34-.74.24-1.59-.25-2.24-.49-.64-1.29-.97-2.09-.84l-16.24,2.59c-.73.12-1.34.59-1.65,1.26-.31.67-.26,1.44.13,2.07l8.69,13.96c.43.69,1.19,1.08,2,1.03.81-.05,1.52-.54,1.85-1.28l1.57-3.44,1.74.85c5.98,2.92,10.84,7.58,13.99,13.34h-20.6v-3.83c0-.81-.44-1.55-1.16-1.93-.71-.38-1.58-.34-2.25.11l-13.74,9.12c-.61.41-.98,1.09-.98,1.83s.37,1.42.98,1.83l13.74,9.12c.67.45,1.54.49,2.25.11.71-.38,1.16-1.12,1.16-1.93v-3.83h20.6c-3.16,5.76-8.01,10.42-13.99,13.34l-1.74.85-1.57-3.44c-.34-.74-1.05-1.23-1.85-1.28-.81-.05-1.58.34-2,1.03l-8.69,13.96c-.39.63-.44,1.4-.13,2.07s.92,1.14,1.65,1.26l16.24,2.59c.12.02.23.03.35.03.68,0,1.32-.31,1.74-.86.49-.64.59-1.5.25-2.24l-1.61-3.53,4.31-2.19c5.27-2.67,9.75-6.64,13.04-11.46v16.45h-3.83c-.81,0-1.55.44-1.93,1.16s-.34,1.58.11,2.25l9.12,13.74c.41.61,1.09.98,1.83.98s1.42-.37,1.83-.98l9.12-13.74c.45-.67.49-1.54.11-2.25-.38-.71-1.12-1.16-1.93-1.16h-3.83v-16.46c3.29,4.83,7.76,8.79,13.04,11.46l4.31,2.19-1.61,3.53c-.34.74-.24,1.59.25,2.24.42.55,1.07.86,1.74.86.12,0,.23,0,.35-.03l16.24-2.59c.73-.12,1.34-.59,1.65-1.26.31-.67.26-1.44-.13-2.07l-8.69-13.96c-.43-.69-1.2-1.08-2-1.03-.81.05-1.52.54-1.85,1.28l-1.57,3.44-1.74-.85c-1.05-.51-2.09-1.09-3.08-1.72-.68-.43-1.59-.23-2.02.45-.43.68-.23,1.59.45,2.02,1.08.68,2.21,1.31,3.36,1.88l2.42,1.18c.53.26,1.15.29,1.7.09s1.01-.62,1.26-1.15l1.31-2.88,7.38,11.85-13.79,2.2,1.33-2.92c.49-1.07.05-2.33-1-2.87l-4.94-2.51c-6.28-3.19-11.33-8.37-14.36-14.7v-4.28h2.69c1.78,3.64,4.16,6.91,7.1,9.75.58.56,1.51.54,2.07-.04.56-.58.54-1.51-.04-2.07-2.34-2.26-4.3-4.82-5.84-7.64h20.6v3.83c0,.81.44,1.55,1.16,1.93.33.17.68.26,1.04.26.42,0,.85-.12,1.21-.37l13.74-9.12c.61-.41.98-1.09.98-1.83,0-.74-.37-1.42-.98-1.83h0Zm-43.73-7.74c3.03-6.33,8.08-11.51,14.36-14.7l4.94-2.51c1.05-.53,1.49-1.79,1-2.87l-1.33-2.92,13.79,2.2-7.38,11.85-1.31-2.88c-.24-.54-.7-.96-1.26-1.15-.55-.2-1.17-.16-1.7.09l-2.42,1.18c-7.01,3.42-12.61,9.03-16.01,15.97h-2.69v-4.28Zm-29.27-11.7l-2.42-1.18c-.53-.26-1.15-.29-1.7-.09s-1.01.62-1.26,1.15l-1.31,2.88-7.38-11.85,13.79-2.2-1.33,2.92c-.49,1.07-.05,2.33,1,2.87l4.94,2.51c6.28,3.19,11.33,8.37,14.36,14.7v4.28h-2.69c-3.4-6.94-9-12.55-16.01-15.97h0Zm4.33,45.53l-4.94,2.51c-1.05.53-1.49,1.79-1,2.87l1.33,2.92-13.79-2.2,7.38-11.85,1.31,2.88c.24.54.7.96,1.26,1.15s1.17.16,1.7-.09l2.42-1.18c7.01-3.42,12.6-9.03,16.01-15.97h2.69v4.28c-3.03,6.33-8.08,11.51-14.36,14.7h0Zm27.4,10.54l-7.75,11.67-7.75-11.67h3.2c1.21,0,2.19-.98,2.19-2.19v-27.32h4.72v27.32c0,1.21.98,2.19,2.19,2.19h3.2Zm27.05-27.05v-3.2c0-1.21-.98-2.19-2.19-2.19H27.39c-1.21,0-2.19.98-2.19,2.19v3.2l-11.67-7.75,11.67-7.75v3.2c0,1.21.98,2.19,2.19,2.19h65.22c1.21,0,2.19-.98,2.19-2.19v-3.2l11.67,7.75-11.67,7.75Z"/>
    </g>
  </g>
</svg>