<?xml version="1.0" encoding="UTF-8"?>
<svg id="Layer_2" data-name="Layer 2" xmlns="http://www.w3.org/2000/svg" xmlns:xlink="http://www.w3.org/1999/xlink" viewBox="0 0 391.63 404.43">
  <defs>
    <style>
      .cls-1 {
        clip-path: url(#clippath);
      }

      .cls-2 {
        fill: none;
      }

      .cls-2, .cls-3, .cls-4, .cls-5, .cls-6, .cls-7, .cls-8, .cls-9, .cls-10, .cls-11, .cls-12, .cls-13 {
        stroke-width: 0px;
      }

      .cls-14, .cls-15, .cls-16 {
        stroke-width: 2px;
      }

      .cls-14, .cls-15, .cls-16, .cls-17 {
        stroke: #000;
        stroke-miterlimit: 10;
      }

      .cls-14, .cls-12 {
        fill: #fd9f84;
      }

      .cls-15, .cls-11 {
        fill: #fff;
      }

      .cls-16, .cls-8 {
        fill: #b6d2ef;
      }

      .cls-17, .cls-5 {
        fill: #292929;
      }

      .cls-3 {
        fill-rule: evenodd;
      }

      .cls-3, .cls-13 {
        fill: #e8ded6;
      }

      .cls-4 {
        fill: #f9f9f9;
      }

      .cls-6 {
        fill: #de856a;
      }

      .cls-7 {
        fill: #a62973;
      }

      .cls-9 {
        fill: #f77;
      }

      .cls-10 {
        fill: #736fed;
      }
    </style>
    <clipPath id="clippath">
      <path class="cls-2" d="M62.68,43.83c-5.74.45-11.11,2.08-15.89,4.62l19.21,37.54,10.18-40.97c-4.29-1.13-8.83-1.56-13.5-1.19Z"/>
    </clipPath>
  </defs>
  <g id="Layer_2-2" data-name="Layer 2">
    <g>
      <path class="cls-4" d="M229.9,382.4c-17.28,0-34.29-2.71-50.56-8.06-15.96-5.25-30.97-12.95-44.6-22.89-13.47-9.82-25.31-21.6-35.19-35.03-10-13.59-17.76-28.55-23.08-44.49-5.5-16.48-8.29-33.72-8.29-51.26,0-21.83,4.28-43.01,12.71-62.95,8.15-19.26,19.81-36.55,34.66-51.41,14.85-14.85,32.15-26.51,51.41-34.66,19.94-8.43,41.12-12.71,62.95-12.71s43.01,4.28,62.95,12.71c19.26,8.15,36.55,19.81,51.41,34.66,14.85,14.85,26.51,32.15,34.66,51.41,8.43,19.94,12.71,41.12,12.71,62.95,0,48.29-21.34,93.68-58.55,124.54-4.4,3.65-9.04,7.1-13.79,10.26-3.24,2.15-6.59,4.21-9.96,6.11-11.87,6.7-24.54,11.88-37.69,15.38-13.55,3.61-27.59,5.44-41.74,5.44ZM229.9,59.9c-88.66,0-160.78,72.13-160.78,160.78,0,69.64,44.41,131.03,110.52,152.77,16.17,5.32,33.08,8.01,50.26,8.01,27.69,0,55-7.16,78.96-20.69,3.35-1.89,6.68-3.94,9.9-6.08,4.72-3.14,9.34-6.57,13.71-10.2,36.99-30.68,58.21-75.81,58.21-123.81,0-88.66-72.13-160.78-160.78-160.78Z"/>
      <g>
        <rect class="cls-4" x="240.54" y="8.03" width="3.84" height="19.82" transform="translate(185.47 -218.4) rotate(72.21)"/>
        <rect class="cls-4" x="240.54" y="8.03" width="3.84" height="19.82" transform="translate(478.8 -39.04) rotate(162.21)"/>
      </g>
      <circle class="cls-4" cx="129.52" cy="372.44" r="7.01"/>
      <path class="cls-7" d="M386.93,216.98c0,49.95-22.71,94.6-58.38,124.18-4.39,3.64-8.98,7.06-13.75,10.23-3.23,2.15-6.54,4.18-9.93,6.09-23.39,13.21-50.41,20.75-79.19,20.75-17.6,0-34.55-2.82-50.41-8.04-64.37-21.17-110.84-81.76-110.84-153.21,0-89.06,72.2-161.25,161.25-161.25s161.25,72.2,161.25,161.25Z"/>
      <path class="cls-12" d="M85.93,142.18s-22.86-17.52-20.58-25.33c1.7-5.81,19.67-20.95,19.67-20.95l11.93,9.8s2.36,15.21,8.73,23.08l-19.75,13.4Z"/>
      <g>
        <path class="cls-10" d="M58.4,119.31c-8.47,0-16.58-2.98-23.09-8.54-7.24-6.18-11.64-14.82-12.39-24.31-.49-6.28.68-12.59,3.4-18.23,2.64-5.48,6.66-10.22,11.63-13.73,4.66-3.29,10.13-5.42,15.8-6.17.63-.08,1.27-.15,1.91-.2,9.49-.75,18.71,2.25,25.95,8.43,7.24,6.18,11.64,14.82,12.39,24.31.75,9.49-2.25,18.71-8.43,25.95-6.18,7.24-14.82,11.64-24.31,12.39-.96.08-1.91.11-2.86.11ZM58.48,48.96c-.91,0-1.83.04-2.75.11-.62.05-1.25.12-1.86.2-5.52.73-10.84,2.81-15.38,6.01-9.98,7.03-15.59,18.96-14.63,31.11,1.5,19.08,18.25,33.37,37.32,31.87,19.08-1.5,33.37-18.24,31.87-37.32-1.43-18.15-16.66-31.98-34.57-31.98Z"/>
        <path class="cls-9" d="M100.14,80.38c1.53,19.37-12.94,36.3-32.3,37.83-19.37,1.53-36.3-12.94-37.83-32.3-1.01-12.84,5.01-24.62,14.83-31.54,4.5-3.17,9.8-5.33,15.59-6.09.62-.08,1.25-.15,1.88-.2,19.37-1.53,36.3,12.94,37.83,32.3Z"/>
        <path class="cls-5" d="M66,86l-21.17-31.62c4.5-3.17,9.8-5.33,15.59-6.09l5.57,37.72Z"/>
        <g class="cls-1">
          <path class="cls-10" d="M62.68,43.83c-5.74.45-11.11,2.08-15.89,4.62l19.21,37.54,10.18-40.97c-4.29-1.13-8.83-1.56-13.5-1.19Z"/>
          <rect class="cls-11" x="35.73" y="46.45" width="37.74" height=".94" transform="translate(-17.39 46.95) rotate(-40.7)"/>
          <rect class="cls-11" x="39.66" y="51.16" width="37.74" height=".94" transform="translate(-19.51 50.65) rotate(-40.7)"/>
          <rect class="cls-11" x="43.59" y="55.87" width="37.74" height=".94" transform="translate(-21.64 54.35) rotate(-40.7)"/>
          <rect class="cls-11" x="47.51" y="60.59" width="37.74" height=".94" transform="translate(-23.76 58.05) rotate(-40.7)"/>
          <rect class="cls-11" x="51.44" y="65.3" width="37.74" height=".94" transform="translate(-25.88 61.75) rotate(-40.7)"/>
          <rect class="cls-11" x="55.37" y="70.01" width="37.74" height=".94" transform="translate(-28 65.45) rotate(-40.7)"/>
        </g>
      </g>
      <path class="cls-15" d="M107.54,127.23l-5.11-6.56-24.47,18.36,6.21,9.28s25.9-7.67,23.36-21.09Z"/>
      <path class="cls-5" d="M88.76,152.57c-.17,0-.33-.09-.41-.24-.13-.23-.04-.51.19-.64,11.74-6.47,24.42-17.54,24.54-17.65.2-.17.49-.15.66.04.17.2.15.49-.04.66-.13.11-12.88,11.25-24.71,17.77-.07.04-.15.06-.23.06Z"/>
      <path class="cls-5" d="M314.8,351.38c-3.23,2.15-6.54,4.18-9.93,6.09-23.39,13.21-50.41,20.75-79.19,20.75-17.6,0-34.55-2.82-50.41-8.04,2.4-8.19,6.4-21.46,10.7-34.2,5.63-16.69,11.78-32.49,15.54-34.82,6.97-4.32,86.76,36.44,113.3,50.22Z"/>
      <path class="cls-12" d="M317.6,120.77c-.22,3.4-4.9,42.86-4.92,43.91,0,0-33.7-1.39-35.55-2.32-1.21-.61,2.14-15.68,4.58-25.95,1.27-5.36,2.3-9.42,2.3-9.42,0,0,9.32-2.65,18.14-4.68,7.98-1.84,15.56-3.16,15.46-1.55Z"/>
      <path class="cls-6" d="M302.15,122.32c-4.14,6.06-11.39,14.21-20.44,14.1,1.27-5.36,2.3-9.42,2.3-9.42,0,0,9.32-2.65,18.14-4.68Z"/>
      <path class="cls-12" d="M322.49,76.13c-15.28-10.6-20.5-8.27-33.03,5.47-11.18,12.26-14.15,17.77-17.78,28.58-3.14,9.34,2.4,14.89,11,17.72,8.79,2.89,27.35-1.75,34.26-8.32,6.91-6.57,26.29-28.39,6.3-42.92-.25-.18-.5-.36-.75-.53Z"/>
      <path class="cls-12" d="M285.29,87.53c-.35.55-6.33,2.91-10.84,4.37-1.99.64-1.57,2.97-.9,5.61.58,2.25,2.05,4.73,2.48,4.33l9.26-14.31Z"/>
      <ellipse class="cls-5" cx="288.14" cy="89.14" rx="2.17" ry="1.41" transform="translate(63.95 290.9) rotate(-59.18)"/>
      <path class="cls-5" d="M296.85,89.61c-.19,0-.37-.12-.44-.3-1.49-3.88-6.47-4.9-6.52-4.91-.25-.05-.42-.3-.37-.55.05-.26.3-.42.55-.37.23.04,5.54,1.13,7.22,5.5.09.24-.03.52-.27.61-.06.02-.11.03-.17.03Z"/>
      <path class="cls-5" d="M295.19,72.91s2.22,7.83,16.25,16.75c0,0-11.8,13.3-8.87,22.43,2.93,9.13,12.38,11.08,14.64,11.73,2.26.65,31.45-24.78,19.5-38.23,0,0-24.09-31.47-26.41-32.83-2.32-1.36-18.63,10.38-15.1,20.15Z"/>
      <path class="cls-12" d="M303.27,100.08s8.14-2.68,10.28,4.3c3,9.81-9.1,14.07-13.79,10.24-4.69-3.83,3.51-14.54,3.51-14.54Z"/>
      <path class="cls-5" d="M306.17,114.14c-.21,0-.41-.15-.46-.36-.06-.25.1-.51.35-.57.03,0,3.46-.83,4.86-3.18.63-1.05.76-2.27.4-3.62-1.43-5.3-6.29-4.3-6.5-4.25-.25.06-.51-.11-.56-.36s.1-.5.36-.56c.06-.01,5.94-1.25,7.61,4.93.43,1.61.27,3.07-.5,4.35-1.61,2.69-5.3,3.58-5.45,3.61-.04,0-.07.01-.11.01Z"/>
      <path class="cls-5" d="M311.11,111.07s-.06,0-.08,0l-5.9-1.05c-.26-.05-.43-.29-.38-.55.05-.26.29-.43.55-.38l5.9,1.05c.26.05.43.29.38.55-.04.23-.24.39-.46.39Z"/>
      <path class="cls-5" d="M332.99,90.17s6.05-2.9,7.43-9.06c0,0,2.84,3.85-.65,9.96,0,0,3.46,2.04,3.56,6.1,0,0-8.68-1.19-10.53-.93-1.85.26.18-6.07.18-6.07Z"/>
      <path class="cls-5" d="M281.75,108.25c-2.8,0-4.6-1.61-4.62-1.64-.19-.18-.2-.47-.03-.67.18-.19.47-.2.67-.03.14.12,3.28,2.91,7.78.27.22-.13.51-.06.64.17.13.22.06.51-.17.64-1.58.92-3.03,1.24-4.27,1.24Z"/>
      <path class="cls-16" d="M353.89,185.14c-6.31-9.27-17.58-19.12-26.08-25.34-7.34-5.37-13.59-8.54-13.59-8.54,0,0-30.24,8.08-37.32-9.41,0,0,2.57-.66-5.2.88-9.01,1.79-32.82,4.66-47.65,11.41.02-.24.02-.37.02-.37l-63.95,36.21c-1.65.97-3.76.56-4.91-.97-8.9-11.76-44.31-58.43-47.67-61.79,0,0-17.05,15.75-28.86,20.93,0,0,44.48,82.61,59.76,88.92,14.65,6.04,59.18-11.73,70.59-17.18.67-.32,1.31-.83,1.93-1.51-.59,3.31-1.34,6.7-2.29,10.16-10.56,38.32-21.37,88.12-22.7,107.44-.08,1.12-.12,2.14-.13,3.05,0,0,47.73,22.58,119.04,18.44,3.39-1.91,6.7-3.95,9.93-6.09,4.77-3.17,9.36-6.58,13.75-10.23,12.32-35.94,45.1-126.99,25.34-156.02Z"/>
      <path class="cls-15" d="M320,154.64s-9.99,9.33-30.02,4.08c-14.87-3.9-18.97-15.8-18.97-15.8,7.6-2.25,9.72-2.36,9.72-2.36,7.08,17.49,33.79,7.76,33.79,7.76,0,0,1.89,2.88,5.47,6.32Z"/>
      <path class="cls-17" d="M185.03,334.78s-.05,0-.07,0c-.26-.04-.43-.28-.39-.54.03-.2,3.13-20.13,8.46-48.19,5.33-28.08,24.31-87.21,24.51-87.81.08-.25.35-.38.59-.3.25.08.38.35.3.59-.19.59-19.16,59.67-24.48,87.69-5.33,28.04-8.42,47.96-8.45,48.15-.04.23-.24.4-.47.4Z"/>
      <path class="cls-17" d="M301.93,160.59c-2.52,0-5.37-.18-8.58-.62-9.97-1.36-15.63-5.74-18.62-9.16-3.26-3.73-4.13-7.11-4.17-7.25-.06-.25.09-.51.34-.57.25-.06.51.09.57.34h0s.87,3.33,4,6.9c2.89,3.29,8.35,7.49,18.01,8.81,20.1,2.75,26.09-4.61,26.15-4.69.16-.21.46-.24.66-.08.21.16.24.46.08.66-.06.08-1.62,2.04-5.77,3.64-2.64,1.02-6.75,2.02-12.68,2.02Z"/>
      <path class="cls-17" d="M299.68,166.08c-3.05,0-6.33-.27-9.78-.94-10.5-2.02-16.78-7.43-20.2-11.62-3.71-4.54-4.92-8.56-4.97-8.73-.07-.25.07-.51.32-.58.25-.07.51.07.58.32h0s1.22,4.03,4.82,8.43c3.32,4.05,9.42,9.3,19.62,11.26,10.8,2.08,19.83.25,25.5-1.65,6.16-2.06,9.8-4.65,9.84-4.68.21-.15.51-.1.66.11.15.21.1.51-.11.66-.15.11-3.77,2.68-10.05,4.79-3.97,1.33-9.56,2.63-16.23,2.63Z"/>
      <g>
        <polygon class="cls-10" points="276.63 370.27 205.17 404.43 122.78 239.64 116.22 226.52 100.77 195.62 172.23 161.46 276.63 370.27"/>
        <polygon class="cls-10" points="102 106.36 73.9 246.75 228.89 172.66 102 106.36"/>
        <polygon class="cls-5" points="187.13 192.62 122.78 239.64 116.22 226.52 187.13 192.62"/>
      </g>
      <g>
        <polygon class="cls-8" points="94.26 371.87 64 386.33 29.12 316.56 26.34 311 19.8 297.92 50.06 283.45 94.26 371.87"/>
        <polygon class="cls-8" points="20.32 260.12 8.42 319.57 74.05 288.2 20.32 260.12"/>
        <polygon class="cls-5" points="56.36 296.65 29.12 316.56 26.34 311 56.36 296.65"/>
        <path class="cls-4" d="M53.74,387.77c-.11-.04-.2-.11-.25-.22l-21.13-39.46c-.12-.23-.04-.51.19-.64.23-.12.51-.04.64.19l21.13,39.46c.12.23.04.51-.19.64-.12.07-.26.07-.38.03Z"/>
        <path class="cls-4" d="M37.19,374.56c-.11-.04-.2-.11-.25-.22l-21.13-39.46c-.12-.23-.04-.51.19-.64.23-.12.51-.04.64.19l21.13,39.46c.12.23.04.51-.19.64-.12.07-.26.07-.38.03Z"/>
      </g>
      <path class="cls-14" d="M216.12,332.2l-8.22-24.08s-.17-.07-.45-.2h0s-22.09-18.27-23.67-18.55c-1.58-.27-4.04,2.08.58,8.36,3.28,4.46,5.2,7.51,5.62,9.34-.56,2.25-2.28,4.26-5.99,4.83,0,0-31.57,5.19-36.15,8.4-1.1.77-1.14,2.78,1.15,3.29,2.41.53,8.84.53,15.6.46.02,1.53.25,4.55,1.62,6.6,1.9,2.83,7.13,4.19,7.13,4.19,0,0-.52,5.95,5.43,6.55,0,0,1.05,4.3,5.9,3.31,1.69-.35,7.71-2.77,14.06-5.37l17.5-6.85-.03-.09s.09-.01.11,0c.07.02,0-.05-.18-.18ZM169.67,327.26c-1.11-.03-3.1-1.99-4.23-3.21,5-.05,10.09-.13,13.8-.05-3.16,2.17-8.36,3.3-9.57,3.26Z"/>
      <g>
        <polygon class="cls-9" points="62.53 195.89 40.49 206.42 15.08 155.6 13.05 151.55 8.29 142.02 30.33 131.49 62.53 195.89"/>
        <polygon class="cls-9" points="8.67 114.49 0 157.79 47.8 134.94 8.67 114.49"/>
        <polygon class="cls-5" points="34.92 141.1 15.08 155.6 13.05 151.55 34.92 141.1"/>
        <path class="cls-4" d="M31.61,207.63c-.11-.04-.2-.12-.26-.23l-14.55-28.13c-.12-.23-.03-.52.2-.63.23-.12.52-.03.63.2l14.55,28.13c.12.23.03.52-.2.63-.12.06-.26.07-.38.02Z"/>
        <path class="cls-4" d="M52.06,162.44c-.11-.04-.2-.12-.26-.23l-9.69-18.74c-.12-.23-.03-.52.2-.63.23-.12.52-.03.63.2l9.69,18.74c.12.23.03.52-.2.63-.12.06-.26.07-.38.02Z"/>
        <path class="cls-4" d="M61.35,170.95c-.11-.04-.2-.12-.26-.23l-9.69-18.74c-.12-.23-.03-.52.2-.63.23-.12.52-.03.63.2l9.69,18.74c.12.23.03.52-.2.63-.12.06-.26.07-.38.02Z"/>
      </g>
      <path class="cls-5" d="M181.08,333.1c.08-.09.12-.23.08-.36-.06-.21-.27-.33-.47-.27l-7.45,2c-.21.06-.33.27-.27.47.06.21.27.33.47.27l7.45-2c.07-.02.14-.06.19-.11Z"/>
      <path class="cls-5" d="M186.22,339.67c.08-.09.12-.23.08-.36-.06-.21-.27-.33-.47-.27l-7.45,2c-.21.06-.33.27-.27.47.06.21.27.33.47.27l7.45-2c.07-.02.14-.06.19-.11Z"/>
      <path class="cls-15" d="M214.8,297.49l-12.59,5.49s8.81,26.61,9.81,33.19l10.12-2.7-7.34-35.98Z"/>
      <path class="cls-8" d="M321.92,199.73s-31.48,58.61-41.75,66.98c-10.27,8.37-71.02,33.11-71.02,33.11,0,0,9.46,23.64,10.98,36.82,0,0,76.72-20.99,94.44-37.32,17.71-16.33,39.32-67.63,39.32-67.63l-31.97-31.96Z"/>
      <path class="cls-17" d="M220.13,337.11c-.09,0-.19-.03-.26-.08-.11-.08-.19-.2-.2-.34-1.49-12.97-10.85-36.46-10.95-36.7-.1-.24.02-.51.26-.61.61-.25,60.81-24.81,70.9-33.04,4.2-3.43,12.85-16.28,25.01-37.17,8.88-15.26,16.55-29.53,16.63-29.67.12-.23.41-.32.64-.19.23.12.32.41.19.64-.08.14-7.76,14.42-16.64,29.7-12.39,21.29-20.87,33.88-25.22,37.43-9.86,8.04-64.81,30.59-70.71,33,1.27,3.24,9.2,23.77,10.77,35.96,3.23-.9,20.84-5.85,40.03-12.38,27.93-9.51,46.5-18.05,53.69-24.68,5.17-4.76,11.18-13.01,17.89-24.52,11.54-19.82,21.23-42.72,21.32-42.95.1-.24.38-.35.62-.25.24.1.35.38.25.62-.1.23-9.8,23.18-21.38,43.05-6.75,11.59-12.83,19.91-18.06,24.74-7.4,6.82-25.57,15.19-54.03,24.88-21.16,7.21-40.41,12.49-40.6,12.54-.04.01-.08.02-.12.02Z"/>
      <path class="cls-17" d="M303.99,306.71c-.21,0-.4-.14-.46-.35-.03-.13-.85-3.29-.57-7.41.38-5.48,2.56-10.01,6.31-13.1,4.75-3.92,9.18-4.07,12.05-3.51,3.12.61,5.09,2.13,5.17,2.19.2.16.24.46.08.66-.16.2-.46.24-.66.08-.02-.01-1.9-1.46-4.81-2.02-3.88-.74-7.66.38-11.23,3.32-3.59,2.96-5.6,7.13-5.97,12.41-.28,3.97.53,7.1.53,7.14.07.25-.08.51-.34.58-.04.01-.08.02-.12.02Z"/>
      <path class="cls-17" d="M229.43,326.56c-.22,0-.42-.16-.46-.38-3.15-16.27-10.16-30.15-10.23-30.29-.12-.23-.03-.52.21-.63.23-.12.52-.03.63.21.07.14,7.14,14.13,10.31,30.54.05.26-.12.5-.37.55-.03,0-.06,0-.09,0Z"/>
      <path class="cls-12" d="M84.57,112.43s3.45-5.58,5.49-13.89c1.37-5.59,1.95-11.56,3.62-12.87,1.67-1.32,4.83-.68,4.55,4.23-.28,4.91-1.12,19.86.52,23.73,1.64,3.87-14.18-1.2-14.18-1.2Z"/>
      <path class="cls-4" d="M141,310.97c-.12,0-.24-.04-.33-.13l-32.52-31.32c-.19-.18-.19-.48-.01-.67.18-.19.48-.19.67-.01l32.52,31.32c.19.18.19.48.01.67-.09.1-.22.14-.34.14Z"/>
      <path class="cls-4" d="M114.17,295.7c-.12,0-.24-.04-.33-.13l-19.76-19.03c-.19-.18-.19-.48-.01-.67.18-.19.48-.19.67-.01l19.76,19.03c.19.18.19.48.01.67-.09.1-.22.14-.34.14Z"/>
      <g>
        <rect class="cls-4" x="184.4" y="87.35" width="3.84" height="19.82" transform="translate(222.01 -109.86) rotate(72.21)"/>
        <rect class="cls-4" x="184.4" y="87.35" width="3.84" height="19.82" transform="translate(393.44 132.96) rotate(162.21)"/>
      </g>
      <g>
        <rect class="cls-13" x="193.6" y="31.58" width="3.84" height="19.82" transform="translate(313.25 -120.04) rotate(114.11)"/>
        <rect class="cls-13" x="193.6" y="31.58" width="3.84" height="19.82" transform="translate(357.05 159.22) rotate(-155.89)"/>
      </g>
      <circle class="cls-13" cx="353.89" cy="367.66" r="3.54"/>
      <path class="cls-13" d="M94.08,371c-3.14,0-6.17-1.06-8.65-3.06-2.88-2.32-4.68-5.62-5.07-9.29-.81-7.58,4.69-14.41,12.27-15.22,3.67-.4,7.28.67,10.15,2.98,2.88,2.32,4.68,5.62,5.07,9.29.39,3.67-.67,7.28-2.98,10.15-2.32,2.88-5.62,4.68-9.29,5.07-.5.05-1,.08-1.5.08ZM94.13,344.29c-.46,0-.93.02-1.4.07-7.06.76-12.19,7.12-11.44,14.19.37,3.42,2.04,6.5,4.72,8.66,2.68,2.16,6.04,3.15,9.46,2.78,3.42-.37,6.5-2.04,8.66-4.72,2.16-2.68,3.15-6.04,2.78-9.46-.37-3.42-2.04-6.5-4.72-8.66-2.31-1.86-5.13-2.86-8.06-2.86Z"/>
      <path class="cls-13" d="M366.98,357.83c-3.14,0-6.17-1.06-8.65-3.06-2.88-2.32-4.68-5.62-5.07-9.29-.39-3.67.67-7.28,2.98-10.15,2.32-2.88,5.62-4.68,9.29-5.07,3.67-.39,7.28.67,10.15,2.98,2.88,2.32,4.68,5.62,5.07,9.29.39,3.67-.67,7.28-2.98,10.15-2.32,2.88-5.62,4.68-9.29,5.07-.5.05-1,.08-1.5.08ZM367.03,331.12c-.46,0-.93.02-1.4.07-3.42.37-6.5,2.04-8.66,4.72-2.16,2.68-3.15,6.04-2.78,9.46.37,3.42,2.04,6.5,4.72,8.66,2.68,2.16,6.04,3.15,9.46,2.78,3.42-.37,6.5-2.04,8.66-4.72,2.16-2.68,3.15-6.04,2.78-9.46-.37-3.42-2.04-6.5-4.72-8.66-2.31-1.86-5.13-2.86-8.06-2.86Z"/>
      <g>
        <path class="cls-13" d="M135.48,42.43c-2.37,0-4.65-.8-6.51-2.31-2.16-1.75-3.52-4.23-3.82-6.99-.3-2.76.5-5.48,2.25-7.65,1.75-2.16,4.23-3.52,6.99-3.82,2.76-.3,5.48.5,7.65,2.25,2.16,1.75,3.52,4.23,3.82,6.99.3,2.77-.5,5.48-2.25,7.65-1.75,2.16-4.23,3.52-6.99,3.82-.38.04-.76.06-1.13.06ZM135.51,22.55c-.34,0-.68.02-1.03.06-2.51.27-4.77,1.5-6.36,3.47-1.59,1.97-2.31,4.44-2.04,6.95.27,2.51,1.5,4.77,3.47,6.36,1.97,1.59,4.44,2.31,6.95,2.04,2.51-.27,4.77-1.5,6.36-3.47,1.59-1.97,2.31-4.44,2.04-6.95-.27-2.51-1.5-4.77-3.47-6.36-1.7-1.37-3.77-2.1-5.93-2.1Z"/>
        <path class="cls-3" d="M133.83,6.06l-2.86-6.06c-2.76.42-5.45,1.2-8.01,2.31l.82,6.65c-2.25,1.18-4.32,2.69-6.14,4.48l-6.08-2.8c-1.84,2.1-3.4,4.42-4.64,6.92l4.9,4.57c-.97,2.36-1.58,4.84-1.82,7.38l-6.46,1.76c-.06,2.79.24,5.57.89,8.28l6.68.35c.78,2.42,1.9,4.72,3.35,6.82l-3.82,5.5c1.74,2.17,3.76,4.12,6.01,5.78l5.35-4.03c2.15,1.36,4.49,2.4,6.95,3.07l.61,6.67c2.74.55,5.53.74,8.32.57l1.51-6.53c2.52-.34,4.98-1.05,7.3-2.11l4.75,4.71c2.44-1.34,4.71-2.99,6.73-4.91l-3.04-5.96c1.71-1.89,3.14-4.01,4.23-6.31l6.67.55c1.01-2.6,1.68-5.32,2-8.09l-6.16-2.62c.1-2.54-.17-5.09-.81-7.55l5.47-3.86c-.9-2.64-2.13-5.16-3.67-7.48l-6.4,1.96c-1.56-2.01-3.4-3.79-5.48-5.26l1.71-6.47c-2.39-1.45-4.95-2.58-7.62-3.37l-3.65,5.61c-2.49-.54-5.04-.71-7.58-.52ZM149.83,30.48c.83,7.7-4.75,14.62-12.46,15.45-7.7.83-14.62-4.76-15.45-12.46-.83-7.7,4.76-14.62,12.46-15.45,7.7-.83,14.62,4.75,15.45,12.46Z"/>
      </g>
      <g>
        <path class="cls-13" d="M289.78,39.55c-1.79,0-3.51-.61-4.92-1.74-1.64-1.32-2.66-3.2-2.89-5.29-.22-2.09.38-4.14,1.7-5.78,1.32-1.64,3.2-2.66,5.29-2.89h0c4.32-.46,8.2,2.67,8.66,6.99.22,2.09-.38,4.14-1.7,5.78-1.32,1.64-3.2,2.66-5.29,2.89-.29.03-.57.05-.85.05ZM289.06,24.79c-1.84.2-3.49,1.1-4.65,2.54-1.16,1.44-1.69,3.25-1.5,5.09.2,1.84,1.1,3.49,2.54,4.65,1.44,1.16,3.25,1.69,5.09,1.49,1.84-.2,3.49-1.1,4.65-2.54,1.16-1.44,1.69-3.25,1.5-5.09-.41-3.8-3.83-6.56-7.63-6.15h0Z"/>
        <path class="cls-3" d="M288.56,12.35l-2.13-4.51c-2.05.31-4.06.89-5.96,1.72l.61,4.95c-1.68.88-3.22,2-4.57,3.33l-4.53-2.09c-1.37,1.56-2.53,3.29-3.46,5.15l3.64,3.4c-.72,1.75-1.18,3.6-1.36,5.49l-4.81,1.31c-.05,2.07.18,4.15.66,6.17l4.98.26c.58,1.8,1.42,3.52,2.49,5.08l-2.84,4.09c1.3,1.62,2.8,3.06,4.47,4.3l3.98-3c1.6,1.01,3.34,1.78,5.17,2.29l.45,4.96c2.04.41,4.12.55,6.19.42l1.12-4.86c1.88-.25,3.71-.78,5.43-1.57l3.54,3.51c1.82-1,3.5-2.23,5.01-3.66l-2.26-4.44c1.28-1.4,2.34-2.98,3.15-4.69l4.97.41c.75-1.94,1.25-3.96,1.49-6.02l-4.59-1.95c.07-1.89-.13-3.79-.6-5.62l4.07-2.88c-.67-1.97-1.58-3.84-2.73-5.57l-4.77,1.46c-1.16-1.5-2.53-2.82-4.08-3.92l1.27-4.82c-1.78-1.08-3.68-1.92-5.67-2.51l-2.71,4.18c-1.85-.4-3.75-.53-5.64-.38ZM300.47,30.53c.61,5.73-3.54,10.88-9.27,11.5-5.73.61-10.88-3.54-11.5-9.27-.61-5.73,3.54-10.88,9.27-11.5,5.73-.61,10.88,3.54,11.5,9.27Z"/>
      </g>
      <circle class="cls-4" cx="34.55" cy="220.68" r="5.36"/>
    </g>
  </g>
</svg>