<svg id="coming-soon-banner" xmlns="http://www.w3.org/2000/svg" xmlns:xlink="http://www.w3.org/1999/xlink" width="574.143" height="499.628" viewBox="0 0 574.143 499.628">
  <defs>
    <clipPath id="clip-path">
      <rect id="Rectangle_1288" data-name="Rectangle 1288" width="574.143" height="499.628" fill="none"/>
    </clipPath>
    <clipPath id="clip-path-3">
      <rect id="Rectangle_1265" data-name="Rectangle 1265" width="263.089" height="181.122" fill="#e0a6a6"/>
    </clipPath>
    <clipPath id="clip-path-4">
      <rect id="Rectangle_1266" data-name="Rectangle 1266" width="98.472" height="103.806" fill="#e0a6a6"/>
    </clipPath>
    <clipPath id="clip-path-5">
      <path id="Path_4922" data-name="Path 4922" d="M394.538,308.171s-31.91-21.573-41.347-23.82-23.821-2.7-32.36-1.348-23.819,7.641-28.763,25.168-16.629,62.921-9.438,73.257,40.691,6.49,40.691,6.49l1.07,10.4s52.458-19.209,68.242-26.148a2.331,2.331,0,0,0,.656-3.829c-5.357-5.033-17.519-17.905-21.672-34.535l3.6-5.861a.2.2,0,0,0,.036.045,147,147,0,0,0,10.391,11.38c0,.008.009.008.009.008,3.6,3.47,7.425,6.607,10.238,7.443,6.4,1.914,40.449-55.281,40.449-55.281l-15.316-20.7Z" transform="translate(-280.351 -270.841)" fill="none"/>
    </clipPath>
    <clipPath id="clip-path-7">
      <rect id="Rectangle_1268" data-name="Rectangle 1268" width="11.722" height="35.966" fill="none"/>
    </clipPath>
    <clipPath id="clip-path-8">
      <rect id="Rectangle_1269" data-name="Rectangle 1269" width="18.948" height="38.795" fill="none"/>
    </clipPath>
    <clipPath id="clip-path-9">
      <rect id="Rectangle_1272" data-name="Rectangle 1272" width="48.172" height="22.467" fill="none"/>
    </clipPath>
    <clipPath id="clip-path-10">
      <rect id="Rectangle_1274" data-name="Rectangle 1274" width="7.589" height="1.696" fill="rgba(0,0,0,0)" stroke="#000" stroke-width="2"/>
    </clipPath>
    <clipPath id="clip-path-13">
      <rect id="Rectangle_1277" data-name="Rectangle 1277" width="15.97" height="21.046" fill="none"/>
    </clipPath>
    <clipPath id="clip-path-14">
      <rect id="Rectangle_1278" data-name="Rectangle 1278" width="7.508" height="9.669" fill="none"/>
    </clipPath>
    <clipPath id="clip-path-15">
      <rect id="Rectangle_1279" data-name="Rectangle 1279" width="12.536" height="14.78" fill="none"/>
    </clipPath>
    <clipPath id="clip-path-16">
      <rect id="Rectangle_1280" data-name="Rectangle 1280" width="28.536" height="11.638" fill="none"/>
    </clipPath>
    <clipPath id="clip-path-17">
      <rect id="Rectangle_1281" data-name="Rectangle 1281" width="12.537" height="28.311" fill="none"/>
    </clipPath>
    <clipPath id="clip-path-18">
      <rect id="Rectangle_1286" data-name="Rectangle 1286" width="16.349" height="7.275" fill="none"/>
    </clipPath>
  </defs>
  <g id="Group_1729" data-name="Group 1729" clip-path="url(#clip-path)">
    <g id="Group_1688" data-name="Group 1688">
      <g id="Group_1687" data-name="Group 1687" clip-path="url(#clip-path)">
        <path id="Path_4824" data-name="Path 4824" d="M594.276,310.694C566.6,497.658-18.856,557.973,103.344,172.87c15.484-48.8,53.147-85.154,94.424-112.666,50.246-33.5,108.968-48.835,167.44-55.241,24.155-2.646,49.44-3.672,71.739,6.856,18.848,8.894,34.794,27.88,37.474,50.74,2.549,21.714-6.767,42.232,4.922,62.755,9.463,16.631,27.68,23.854,43.269,33.394,48.049,29.406,80.512,92.23,71.665,151.986" transform="translate(-21.588 -0.796)" fill="#fcd3d1"/>
        <path id="Path_4825" data-name="Path 4825" d="M637.568,154.6c-14.753-9.556-21.66-16.9-24.659-31.428s4.295-30.492,16.186-37.636,27.321-5.665,38.612,2.569,18.395,22.551,19.835,37.361c1.252,12.872-2.182,27.176-11.756,34.718s-16.07,5.665-29.567-.463c-1.763-.8-7.007-4.057-8.651-5.121" transform="translate(-152.637 -20.183)" fill="#fcd3d1"/>
        <path id="Path_4826" data-name="Path 4826" d="M568.084,640.339c0-8.37-126.576-15.155-282.715-15.155S2.655,631.969,2.655,640.339,129.23,655.494,285.37,655.494s282.715-6.785,282.715-15.155" transform="translate(-0.662 -155.865)" fill="#e0a6a6"/>
        <path id="Path_4827" data-name="Path 4827" d="M71.233,503.8l29.308,39.457,122.844-92.022,4.262-3.195,12.6-9.435-29.3-39.455-5.668,4.245-32.447,24.3Z" transform="translate(-17.759 -99.513)" fill="#ee5064"/>
        <path id="Path_4828" data-name="Path 4828" d="M71.233,503.8l29.308,39.457,122.844-92.022,4.262-3.195,12.6-9.435-29.3-39.455-5.668,4.245-32.447,24.3Z" transform="translate(-17.759 -99.513)" fill="none" stroke="#000" stroke-width="2"/>
        <path id="Path_4829" data-name="Path 4829" d="M7.885,585.824l.338.455c9.245,12.446,24.306,16.915,33.64,9.983l107.386-78.5-33.735-47.538L8.049,550.736c-9.335,6.933-9.408,22.642-.164,35.089" transform="translate(-0.249 -117.232)" fill="#672376"/>
        <path id="Path_4830" data-name="Path 4830" d="M7.885,585.824l.338.455c9.245,12.446,24.306,16.915,33.64,9.983l107.386-78.5-33.735-47.538L8.049,550.736C-1.286,557.668-1.359,573.378,7.885,585.824Z" transform="translate(-0.249 -117.232)" fill="none" stroke="#000" stroke-width="2"/>
        <path id="Path_4831" data-name="Path 4831" d="M15.8,568.328a.694.694,0,0,1-.413-1.252L117.37,491.8a.694.694,0,1,1,.824,1.116L16.209,568.192a.693.693,0,0,1-.411.135" transform="translate(-3.765 -122.578)" fill="#fff"/>
        <path id="Path_4832" data-name="Path 4832" d="M207.428,429.013l49.761,21.893.354.155,3.937-3.257,2.823-2.332-21.242-42.44-3.6,2.1Z" transform="translate(-51.714 -100.48)" fill="#ad2a40"/>
        <path id="Path_4833" data-name="Path 4833" d="M237.607,331.263A176.882,176.882,0,1,0,282.827,85.236a176.881,176.881,0,0,0-45.219,246.027m57.305-228.5a155.589,155.589,0,1,1-39.776,216.411,155.589,155.589,0,0,1,39.776-216.411" transform="translate(-51.441 -13.453)" fill="#ad2a40"/>
        <path id="Path_4834" data-name="Path 4834" d="M232.228,332.359a181.537,181.537,0,1,0,46.409-252.5,181.537,181.537,0,0,0-46.409,252.5M291.041,97.847a159.685,159.685,0,1,1-40.823,222.108A159.685,159.685,0,0,1,291.041,97.847" transform="translate(-49.895 -11.907)" fill="#ee5064"/>
        <path id="Path_4835" data-name="Path 4835" d="M232.228,332.359a181.537,181.537,0,1,0,46.409-252.5A181.537,181.537,0,0,0,232.228,332.359ZM291.041,97.847a159.685,159.685,0,1,1-40.823,222.108A159.685,159.685,0,0,1,291.041,97.847Z" transform="translate(-49.895 -11.907)" fill="none" stroke="#000" stroke-width="2"/>
        <path id="Path_4836" data-name="Path 4836" d="M551.153,323.783c3.1-4.712,5.936-9.6,8.559-14.6q3.91-7.518,7.089-15.4a177.1,177.1,0,0,0,9.616-32.558,183.22,183.22,0,0,0,.269-67.829,180.972,180.972,0,0,0-45.2-90.689A182.846,182.846,0,0,0,444.669,50.2,181.585,181.585,0,0,0,312.081,65.514a176.963,176.963,0,0,0-28.239,18.843q-6.583,5.359-12.615,11.328c-4.006,3.982-7.842,8.13-11.449,12.464,3.822-4.145,7.8-8.139,11.961-11.925s8.463-7.412,12.946-10.8a183.013,183.013,0,0,1,92.547-36.343q8.323-.838,16.693-.9t16.693.634A181.592,181.592,0,0,1,527.932,106q5.689,6.1,10.794,12.715t9.566,13.668a180.076,180.076,0,0,1,15.158,29.706q3.093,7.761,5.459,15.791,2.377,8.015,4,16.236a185.285,185.285,0,0,1,1.149,66.684,183.13,183.13,0,0,1-8.517,32.5q-2.87,7.921-6.487,15.558c-2.39,5.094-5.042,10.068-7.9,14.93" transform="translate(-64.766 -10.973)" fill="#e6afaf"/>
        <g id="Group_1683" data-name="Group 1683" transform="translate(187.798 68.186)" opacity="0.78">
          <g id="Group_1682" data-name="Group 1682">
            <g id="Group_1681" data-name="Group 1681" clip-path="url(#clip-path-3)">
              <path id="Path_4837" data-name="Path 4837" d="M255.085,271.893c-7.09-2.02-9.938-62.718,15.788-106.262,30.823-52.173,72.4-66.242,97.153-70.639,39.874-7.084,61.2-7.568,102.821,18.419,27.651,17.266,47.877,52.4,41.087,62.542-4.536,6.779-19.63.827-47.362-2.428-16.506-1.938-57.866-6.794-96.951,5.06-34.517,10.468-72.749,35.633-96.749,71.448-8.595,12.825-12.53,22.787-15.788,21.859" transform="translate(-250.168 -90.831)" fill="#e0a6a6"/>
            </g>
          </g>
        </g>
        <g id="Group_1686" data-name="Group 1686" transform="translate(379.779 220.661)" opacity="0.78">
          <g id="Group_1685" data-name="Group 1685">
            <g id="Group_1684" data-name="Group 1684" clip-path="url(#clip-path-4)">
              <path id="Path_4838" data-name="Path 4838" d="M542.9,335.282c9.81-17.876,12.79-29.555,26.11-36.432,7.255-3.746,21.126-7.9,28.539-1.822,14.862,12.185,5.59,66.985-29.146,89.26-23.468,15.049-56.959,14.226-61.936,3.643-4.184-8.895,15.568-16.627,36.432-54.649" transform="translate(-505.907 -293.945)" fill="#e0a6a6"/>
            </g>
          </g>
        </g>
        <path id="Path_4839" data-name="Path 4839" d="M282.629,381.427c7.192,10.337,30.425,7.338,40.692,6.49,34.317-2.835,71.181-18.435,69.967-19.576-5.357-5.034-17.517-17.907-21.672-34.536l3.6-5.859a.2.2,0,0,0,.037.044,146.719,146.719,0,0,0,10.39,11.379.009.009,0,0,0,.009.009c3.6,3.47,7.424,6.607,10.238,7.442,6.4,1.916,40.449-55.28,40.449-55.28l-15.316-20.7-26.481,37.329-.128-.085c-.141-.1-.4-.267-.753-.505-5.2-3.479-31.961-21.2-40.467-23.229-9.438-2.248-23.819-2.7-32.358-1.348s-23.821,7.641-28.763,25.168-16.629,62.921-9.439,73.257" transform="translate(-69.895 -67.523)" fill="#a62973"/>
        <path id="Path_4840" data-name="Path 4840" d="M282.629,381.427c7.192,10.337,30.425,7.338,40.692,6.49,34.317-2.835,71.181-18.435,69.967-19.576-5.357-5.034-17.517-17.907-21.672-34.536l3.6-5.859a.2.2,0,0,0,.037.044,146.719,146.719,0,0,0,10.39,11.379.009.009,0,0,0,.009.009c3.6,3.47,7.424,6.607,10.238,7.442,6.4,1.916,40.449-55.28,40.449-55.28l-15.316-20.7-26.481,37.329-.128-.085c-.141-.1-.4-.267-.753-.505-5.2-3.479-31.961-21.2-40.467-23.229-9.438-2.248-23.819-2.7-32.358-1.348s-23.821,7.641-28.763,25.168S275.439,371.09,282.629,381.427Z" transform="translate(-69.895 -67.523)" fill="none" stroke="#000" stroke-width="2"/>
      </g>
    </g>
    <g id="Group_1690" data-name="Group 1690" transform="translate(210.456 203.317)">
      <g id="Group_1689" data-name="Group 1689" clip-path="url(#clip-path-5)">
        <path id="Path_4841" data-name="Path 4841" d="M490.584,243.464a2.832,2.832,0,1,0,2.832-2.832,2.832,2.832,0,0,0-2.832,2.832" transform="translate(-332.764 -263.31)" fill="#fff"/>
        <path id="Path_4842" data-name="Path 4842" d="M463.825,243.464a2.832,2.832,0,1,0,2.832-2.832,2.832,2.832,0,0,0-2.832,2.832" transform="translate(-326.093 -263.31)" fill="#fff"/>
        <path id="Path_4843" data-name="Path 4843" d="M437.066,243.464a2.832,2.832,0,1,0,2.832-2.832,2.832,2.832,0,0,0-2.832,2.832" transform="translate(-319.422 -263.31)" fill="#fff"/>
        <path id="Path_4844" data-name="Path 4844" d="M490.584,269.428a2.832,2.832,0,1,0,2.832-2.832,2.832,2.832,0,0,0-2.832,2.832" transform="translate(-332.764 -269.783)" fill="#fff"/>
        <path id="Path_4845" data-name="Path 4845" d="M463.825,269.428a2.832,2.832,0,1,0,2.832-2.832,2.832,2.832,0,0,0-2.832,2.832" transform="translate(-326.093 -269.783)" fill="#fff"/>
        <path id="Path_4846" data-name="Path 4846" d="M437.066,269.428A2.832,2.832,0,1,0,439.9,266.6a2.832,2.832,0,0,0-2.832,2.832" transform="translate(-319.422 -269.783)" fill="#fff"/>
        <path id="Path_4847" data-name="Path 4847" d="M490.584,295.392a2.832,2.832,0,1,0,2.832-2.832,2.832,2.832,0,0,0-2.832,2.832" transform="translate(-332.764 -276.256)" fill="#fff"/>
        <path id="Path_4848" data-name="Path 4848" d="M463.825,295.392a2.832,2.832,0,1,0,2.832-2.832,2.832,2.832,0,0,0-2.832,2.832" transform="translate(-326.093 -276.256)" fill="#fff"/>
        <path id="Path_4849" data-name="Path 4849" d="M437.066,295.392a2.832,2.832,0,1,0,2.832-2.832,2.832,2.832,0,0,0-2.832,2.832" transform="translate(-319.422 -276.256)" fill="#fff"/>
        <path id="Path_4850" data-name="Path 4850" d="M490.584,321.357a2.832,2.832,0,1,0,2.832-2.832,2.832,2.832,0,0,0-2.832,2.832" transform="translate(-332.764 -282.729)" fill="#fff"/>
        <path id="Path_4851" data-name="Path 4851" d="M463.825,321.357a2.832,2.832,0,1,0,2.832-2.832,2.832,2.832,0,0,0-2.832,2.832" transform="translate(-326.093 -282.729)" fill="#fff"/>
        <path id="Path_4852" data-name="Path 4852" d="M437.066,321.357a2.832,2.832,0,1,0,2.832-2.832,2.832,2.832,0,0,0-2.832,2.832" transform="translate(-319.422 -282.729)" fill="#fff"/>
        <path id="Path_4853" data-name="Path 4853" d="M490.584,347.321a2.832,2.832,0,1,0,2.832-2.832,2.832,2.832,0,0,0-2.832,2.832" transform="translate(-332.764 -289.202)" fill="#fff"/>
        <path id="Path_4854" data-name="Path 4854" d="M463.825,347.321a2.832,2.832,0,1,0,2.832-2.832,2.832,2.832,0,0,0-2.832,2.832" transform="translate(-326.093 -289.202)" fill="#fff"/>
        <path id="Path_4855" data-name="Path 4855" d="M437.066,347.321a2.832,2.832,0,1,0,2.832-2.832,2.832,2.832,0,0,0-2.832,2.832" transform="translate(-319.422 -289.202)" fill="#fff"/>
        <path id="Path_4856" data-name="Path 4856" d="M490.584,373.285a2.832,2.832,0,1,0,2.832-2.832,2.832,2.832,0,0,0-2.832,2.832" transform="translate(-332.764 -295.675)" fill="#fff"/>
        <path id="Path_4857" data-name="Path 4857" d="M463.825,373.285a2.832,2.832,0,1,0,2.832-2.832,2.832,2.832,0,0,0-2.832,2.832" transform="translate(-326.093 -295.675)" fill="#fff"/>
        <path id="Path_4858" data-name="Path 4858" d="M437.066,373.285a2.832,2.832,0,1,0,2.832-2.832,2.832,2.832,0,0,0-2.832,2.832" transform="translate(-319.422 -295.675)" fill="#fff"/>
        <path id="Path_4859" data-name="Path 4859" d="M490.584,399.249a2.832,2.832,0,1,0,2.832-2.832,2.832,2.832,0,0,0-2.832,2.832" transform="translate(-332.764 -302.148)" fill="#fff"/>
        <path id="Path_4860" data-name="Path 4860" d="M463.825,399.249a2.832,2.832,0,1,0,2.832-2.832,2.832,2.832,0,0,0-2.832,2.832" transform="translate(-326.093 -302.148)" fill="#fff"/>
        <path id="Path_4861" data-name="Path 4861" d="M437.066,399.249a2.832,2.832,0,1,0,2.832-2.832,2.832,2.832,0,0,0-2.832,2.832" transform="translate(-319.422 -302.148)" fill="#fff"/>
        <path id="Path_4862" data-name="Path 4862" d="M490.584,425.213a2.832,2.832,0,1,0,2.832-2.832,2.832,2.832,0,0,0-2.832,2.832" transform="translate(-332.764 -308.622)" fill="#fff"/>
        <path id="Path_4863" data-name="Path 4863" d="M463.825,425.213a2.832,2.832,0,1,0,2.832-2.832,2.832,2.832,0,0,0-2.832,2.832" transform="translate(-326.093 -308.622)" fill="#fff"/>
        <path id="Path_4864" data-name="Path 4864" d="M437.066,425.213a2.832,2.832,0,1,0,2.832-2.832,2.832,2.832,0,0,0-2.832,2.832" transform="translate(-319.422 -308.622)" fill="#fff"/>
        <path id="Path_4865" data-name="Path 4865" d="M490.584,451.177a2.832,2.832,0,1,0,2.832-2.832,2.832,2.832,0,0,0-2.832,2.832" transform="translate(-332.764 -315.095)" fill="#fff"/>
        <path id="Path_4866" data-name="Path 4866" d="M463.825,451.177a2.832,2.832,0,1,0,2.832-2.832,2.832,2.832,0,0,0-2.832,2.832" transform="translate(-326.093 -315.095)" fill="#fff"/>
        <path id="Path_4867" data-name="Path 4867" d="M437.066,451.177a2.832,2.832,0,1,0,2.832-2.832,2.832,2.832,0,0,0-2.832,2.832" transform="translate(-319.422 -315.095)" fill="#fff"/>
        <path id="Path_4868" data-name="Path 4868" d="M411.107,243.464a2.832,2.832,0,1,0,2.832-2.832,2.832,2.832,0,0,0-2.832,2.832" transform="translate(-312.95 -263.31)" fill="#fff"/>
        <path id="Path_4869" data-name="Path 4869" d="M384.349,243.464a2.832,2.832,0,1,0,2.832-2.832,2.832,2.832,0,0,0-2.832,2.832" transform="translate(-306.279 -263.31)" fill="#fff"/>
        <path id="Path_4870" data-name="Path 4870" d="M357.59,243.464a2.832,2.832,0,1,0,2.832-2.832,2.832,2.832,0,0,0-2.832,2.832" transform="translate(-299.607 -263.31)" fill="#fff"/>
        <path id="Path_4871" data-name="Path 4871" d="M411.107,269.428a2.832,2.832,0,1,0,2.832-2.832,2.832,2.832,0,0,0-2.832,2.832" transform="translate(-312.95 -269.783)" fill="#fff"/>
        <path id="Path_4872" data-name="Path 4872" d="M384.349,269.428a2.832,2.832,0,1,0,2.832-2.832,2.832,2.832,0,0,0-2.832,2.832" transform="translate(-306.279 -269.783)" fill="#fff"/>
        <path id="Path_4873" data-name="Path 4873" d="M357.59,269.428a2.832,2.832,0,1,0,2.832-2.832,2.832,2.832,0,0,0-2.832,2.832" transform="translate(-299.607 -269.783)" fill="#fff"/>
        <path id="Path_4874" data-name="Path 4874" d="M411.107,295.392a2.832,2.832,0,1,0,2.832-2.832,2.832,2.832,0,0,0-2.832,2.832" transform="translate(-312.95 -276.256)" fill="#fff"/>
        <path id="Path_4875" data-name="Path 4875" d="M384.349,295.392a2.832,2.832,0,1,0,2.832-2.832,2.832,2.832,0,0,0-2.832,2.832" transform="translate(-306.279 -276.256)" fill="#fff"/>
        <path id="Path_4876" data-name="Path 4876" d="M357.59,295.392a2.832,2.832,0,1,0,2.832-2.832,2.832,2.832,0,0,0-2.832,2.832" transform="translate(-299.607 -276.256)" fill="#fff"/>
        <path id="Path_4877" data-name="Path 4877" d="M411.107,321.357a2.832,2.832,0,1,0,2.832-2.832,2.832,2.832,0,0,0-2.832,2.832" transform="translate(-312.95 -282.729)" fill="#fff"/>
        <path id="Path_4878" data-name="Path 4878" d="M384.349,321.357a2.832,2.832,0,1,0,2.832-2.832,2.832,2.832,0,0,0-2.832,2.832" transform="translate(-306.279 -282.729)" fill="#fff"/>
        <path id="Path_4879" data-name="Path 4879" d="M357.59,321.357a2.832,2.832,0,1,0,2.832-2.832,2.832,2.832,0,0,0-2.832,2.832" transform="translate(-299.607 -282.729)" fill="#fff"/>
        <path id="Path_4880" data-name="Path 4880" d="M411.107,347.321a2.832,2.832,0,1,0,2.832-2.832,2.832,2.832,0,0,0-2.832,2.832" transform="translate(-312.95 -289.202)" fill="#fff"/>
        <path id="Path_4881" data-name="Path 4881" d="M384.349,347.321a2.832,2.832,0,1,0,2.832-2.832,2.832,2.832,0,0,0-2.832,2.832" transform="translate(-306.279 -289.202)" fill="#fff"/>
        <path id="Path_4882" data-name="Path 4882" d="M357.59,347.321a2.832,2.832,0,1,0,2.832-2.832,2.832,2.832,0,0,0-2.832,2.832" transform="translate(-299.607 -289.202)" fill="#fff"/>
        <path id="Path_4883" data-name="Path 4883" d="M411.107,373.285a2.832,2.832,0,1,0,2.832-2.832,2.832,2.832,0,0,0-2.832,2.832" transform="translate(-312.95 -295.675)" fill="#fff"/>
        <path id="Path_4884" data-name="Path 4884" d="M384.349,373.285a2.832,2.832,0,1,0,2.832-2.832,2.832,2.832,0,0,0-2.832,2.832" transform="translate(-306.279 -295.675)" fill="#fff"/>
        <path id="Path_4885" data-name="Path 4885" d="M357.59,373.285a2.832,2.832,0,1,0,2.832-2.832,2.832,2.832,0,0,0-2.832,2.832" transform="translate(-299.607 -295.675)" fill="#fff"/>
        <path id="Path_4886" data-name="Path 4886" d="M411.107,399.249a2.832,2.832,0,1,0,2.832-2.832,2.832,2.832,0,0,0-2.832,2.832" transform="translate(-312.95 -302.148)" fill="#fff"/>
        <path id="Path_4887" data-name="Path 4887" d="M384.349,399.249a2.832,2.832,0,1,0,2.832-2.832,2.832,2.832,0,0,0-2.832,2.832" transform="translate(-306.279 -302.148)" fill="#fff"/>
        <path id="Path_4888" data-name="Path 4888" d="M357.59,399.249a2.832,2.832,0,1,0,2.832-2.832,2.832,2.832,0,0,0-2.832,2.832" transform="translate(-299.607 -302.148)" fill="#fff"/>
        <path id="Path_4889" data-name="Path 4889" d="M411.107,425.213a2.832,2.832,0,1,0,2.832-2.832,2.832,2.832,0,0,0-2.832,2.832" transform="translate(-312.95 -308.622)" fill="#fff"/>
        <path id="Path_4890" data-name="Path 4890" d="M384.349,425.213a2.832,2.832,0,1,0,2.832-2.832,2.832,2.832,0,0,0-2.832,2.832" transform="translate(-306.279 -308.622)" fill="#fff"/>
        <path id="Path_4891" data-name="Path 4891" d="M357.59,425.213a2.832,2.832,0,1,0,2.832-2.832,2.832,2.832,0,0,0-2.832,2.832" transform="translate(-299.607 -308.622)" fill="#fff"/>
        <path id="Path_4892" data-name="Path 4892" d="M411.107,451.177a2.832,2.832,0,1,0,2.832-2.832,2.832,2.832,0,0,0-2.832,2.832" transform="translate(-312.95 -315.095)" fill="#fff"/>
        <path id="Path_4893" data-name="Path 4893" d="M384.349,451.177a2.832,2.832,0,1,0,2.832-2.832,2.832,2.832,0,0,0-2.832,2.832" transform="translate(-306.279 -315.095)" fill="#fff"/>
        <path id="Path_4894" data-name="Path 4894" d="M357.59,451.177a2.832,2.832,0,1,0,2.832-2.832,2.832,2.832,0,0,0-2.832,2.832" transform="translate(-299.607 -315.095)" fill="#fff"/>
        <path id="Path_4895" data-name="Path 4895" d="M331.631,243.464a2.832,2.832,0,1,0,2.832-2.832,2.832,2.832,0,0,0-2.832,2.832" transform="translate(-293.136 -263.31)" fill="#fff"/>
        <path id="Path_4896" data-name="Path 4896" d="M304.872,243.464a2.832,2.832,0,1,0,2.832-2.832,2.832,2.832,0,0,0-2.832,2.832" transform="translate(-286.464 -263.31)" fill="#fff"/>
        <path id="Path_4897" data-name="Path 4897" d="M278.114,243.464a2.832,2.832,0,1,0,2.832-2.832,2.832,2.832,0,0,0-2.832,2.832" transform="translate(-279.793 -263.31)" fill="#fff"/>
        <path id="Path_4898" data-name="Path 4898" d="M331.631,269.428a2.832,2.832,0,1,0,2.832-2.832,2.832,2.832,0,0,0-2.832,2.832" transform="translate(-293.136 -269.783)" fill="#fff"/>
        <path id="Path_4899" data-name="Path 4899" d="M304.872,269.428A2.832,2.832,0,1,0,307.7,266.6a2.832,2.832,0,0,0-2.832,2.832" transform="translate(-286.464 -269.783)" fill="#fff"/>
        <path id="Path_4900" data-name="Path 4900" d="M278.114,269.428a2.832,2.832,0,1,0,2.832-2.832,2.832,2.832,0,0,0-2.832,2.832" transform="translate(-279.793 -269.783)" fill="#fff"/>
        <path id="Path_4901" data-name="Path 4901" d="M331.631,295.392a2.832,2.832,0,1,0,2.832-2.832,2.832,2.832,0,0,0-2.832,2.832" transform="translate(-293.136 -276.256)" fill="#fff"/>
        <path id="Path_4902" data-name="Path 4902" d="M304.872,295.392a2.832,2.832,0,1,0,2.832-2.832,2.832,2.832,0,0,0-2.832,2.832" transform="translate(-286.464 -276.256)" fill="#fff"/>
        <path id="Path_4903" data-name="Path 4903" d="M278.114,295.392a2.832,2.832,0,1,0,2.832-2.832,2.832,2.832,0,0,0-2.832,2.832" transform="translate(-279.793 -276.256)" fill="#fff"/>
        <path id="Path_4904" data-name="Path 4904" d="M331.631,321.357a2.832,2.832,0,1,0,2.832-2.832,2.832,2.832,0,0,0-2.832,2.832" transform="translate(-293.136 -282.729)" fill="#fff"/>
        <path id="Path_4905" data-name="Path 4905" d="M304.872,321.357a2.832,2.832,0,1,0,2.832-2.832,2.832,2.832,0,0,0-2.832,2.832" transform="translate(-286.464 -282.729)" fill="#fff"/>
        <path id="Path_4906" data-name="Path 4906" d="M278.114,321.357a2.832,2.832,0,1,0,2.832-2.832,2.832,2.832,0,0,0-2.832,2.832" transform="translate(-279.793 -282.729)" fill="#fff"/>
        <path id="Path_4907" data-name="Path 4907" d="M331.631,347.321a2.832,2.832,0,1,0,2.832-2.832,2.832,2.832,0,0,0-2.832,2.832" transform="translate(-293.136 -289.202)" fill="#fff"/>
        <path id="Path_4908" data-name="Path 4908" d="M304.872,347.321a2.832,2.832,0,1,0,2.832-2.832,2.832,2.832,0,0,0-2.832,2.832" transform="translate(-286.464 -289.202)" fill="#fff"/>
        <path id="Path_4909" data-name="Path 4909" d="M278.114,347.321a2.832,2.832,0,1,0,2.832-2.832,2.832,2.832,0,0,0-2.832,2.832" transform="translate(-279.793 -289.202)" fill="#fff"/>
        <path id="Path_4910" data-name="Path 4910" d="M331.631,373.285a2.832,2.832,0,1,0,2.832-2.832,2.832,2.832,0,0,0-2.832,2.832" transform="translate(-293.136 -295.675)" fill="#fff"/>
        <path id="Path_4911" data-name="Path 4911" d="M304.872,373.285a2.832,2.832,0,1,0,2.832-2.832,2.832,2.832,0,0,0-2.832,2.832" transform="translate(-286.464 -295.675)" fill="#fff"/>
        <path id="Path_4912" data-name="Path 4912" d="M278.114,373.285a2.832,2.832,0,1,0,2.832-2.832,2.832,2.832,0,0,0-2.832,2.832" transform="translate(-279.793 -295.675)" fill="#fff"/>
        <path id="Path_4913" data-name="Path 4913" d="M331.631,399.249a2.832,2.832,0,1,0,2.832-2.832,2.832,2.832,0,0,0-2.832,2.832" transform="translate(-293.136 -302.148)" fill="#fff"/>
        <path id="Path_4914" data-name="Path 4914" d="M304.872,399.249a2.832,2.832,0,1,0,2.832-2.832,2.832,2.832,0,0,0-2.832,2.832" transform="translate(-286.464 -302.148)" fill="#fff"/>
        <path id="Path_4915" data-name="Path 4915" d="M278.114,399.249a2.832,2.832,0,1,0,2.832-2.832,2.832,2.832,0,0,0-2.832,2.832" transform="translate(-279.793 -302.148)" fill="#fff"/>
        <path id="Path_4916" data-name="Path 4916" d="M331.631,425.213a2.832,2.832,0,1,0,2.832-2.832,2.832,2.832,0,0,0-2.832,2.832" transform="translate(-293.136 -308.622)" fill="#fff"/>
        <path id="Path_4917" data-name="Path 4917" d="M304.872,425.213a2.832,2.832,0,1,0,2.832-2.832,2.832,2.832,0,0,0-2.832,2.832" transform="translate(-286.464 -308.622)" fill="#fff"/>
        <path id="Path_4918" data-name="Path 4918" d="M278.114,425.213a2.832,2.832,0,1,0,2.832-2.832,2.832,2.832,0,0,0-2.832,2.832" transform="translate(-279.793 -308.622)" fill="#fff"/>
        <path id="Path_4919" data-name="Path 4919" d="M331.631,451.177a2.832,2.832,0,1,0,2.832-2.832,2.832,2.832,0,0,0-2.832,2.832" transform="translate(-293.136 -315.095)" fill="#fff"/>
        <path id="Path_4920" data-name="Path 4920" d="M304.872,451.177a2.832,2.832,0,1,0,2.832-2.832,2.832,2.832,0,0,0-2.832,2.832" transform="translate(-286.464 -315.095)" fill="#fff"/>
        <path id="Path_4921" data-name="Path 4921" d="M278.114,451.177a2.832,2.832,0,1,0,2.832-2.832,2.832,2.832,0,0,0-2.832,2.832" transform="translate(-279.793 -315.095)" fill="#fff"/>
      </g>
    </g>
    <g id="Group_1728" data-name="Group 1728">
      <g id="Group_1727" data-name="Group 1727" clip-path="url(#clip-path)">
        <g id="Group_1693" data-name="Group 1693" transform="translate(239.661 259.076)" opacity="0.53">
          <g id="Group_1692" data-name="Group 1692">
            <g id="Group_1691" data-name="Group 1691" clip-path="url(#clip-path-7)">
              <path id="Path_4923" data-name="Path 4923" d="M330.977,379.049l-.354-33.93-11.368,35.966Z" transform="translate(-319.255 -345.118)" fill="#261c17"/>
            </g>
          </g>
        </g>
        <g id="Group_1696" data-name="Group 1696" transform="translate(296.797 233.051)" opacity="0.53">
          <g id="Group_1695" data-name="Group 1695">
            <g id="Group_1694" data-name="Group 1694" clip-path="url(#clip-path-8)">
              <path id="Path_4924" data-name="Path 4924" d="M403.213,331.249c1.528,4.216.674,6.571.674,6.571a.2.2,0,0,0,.036.045,147.219,147.219,0,0,0,10.391,11.38L395.366,310.45c.324.89,5.6,15.253,7.847,20.8" transform="translate(-395.366 -310.45)" fill="#261c17"/>
            </g>
          </g>
        </g>
        <path id="Path_4925" data-name="Path 4925" d="M426.2,326.852l.775.453c.134-.232.308-.566.518-.976a25.824,25.824,0,0,1,3.633-5.631c-.141-.1-.4-.267-.752-.506a26.84,26.84,0,0,0-3.679,5.727c-.2.39-.366.712-.495.933" transform="translate(-106.256 -79.827)"/>
        <path id="Path_4926" data-name="Path 4926" d="M426.2,326.852l.775.453c.134-.232.308-.566.518-.976a25.824,25.824,0,0,1,3.633-5.631c-.141-.1-.4-.267-.752-.506a26.84,26.84,0,0,0-3.679,5.727C426.493,326.309,426.328,326.631,426.2,326.852Z" transform="translate(-106.256 -79.827)" fill="none" stroke="#000" stroke-width="1"/>
        <rect id="Rectangle_1270" data-name="Rectangle 1270" width="59.914" height="0.899" transform="translate(241.738 293.816) rotate(-7.456)"/>
        <rect id="Rectangle_1271" data-name="Rectangle 1271" width="59.914" height="0.899" transform="translate(241.738 293.816) rotate(-7.456)" fill="none" stroke="#000" stroke-width="1"/>
        <g id="Group_1699" data-name="Group 1699" transform="translate(275.195 294.282)" opacity="0.53">
          <g id="Group_1698" data-name="Group 1698">
            <g id="Group_1697" data-name="Group 1697" clip-path="url(#clip-path-9)">
              <path id="Path_4927" data-name="Path 4927" d="M393.51,400.517c-16.4,10.727-26.92,13.966-26.92,13.966s31.238-4.521,48.172-15.989l-6.072-6.477s-11.54,6.119-15.18,8.5" transform="translate(-366.59 -392.016)" fill="#261c17"/>
            </g>
          </g>
        </g>
        <path id="Path_4928" data-name="Path 4928" d="M401.067,378.7c.083-.21,11.636-11.054,19.595-10.633s8.229,4.584,8.229,4.584,4.081,2.043,2.851,5.681c0,0,2.413,1.277,1.344,4.572,0,0,2.635.716,2.094,2.282s-8.193,1.564-9.1,2.058-7.742,4.808-13.441,5.852a77.692,77.692,0,0,1-10.508,1.184Z" transform="translate(-99.99 -91.76)" fill="#ffac90"/>
        <path id="Path_4929" data-name="Path 4929" d="M401.067,378.7c.083-.21,11.636-11.054,19.595-10.633s8.229,4.584,8.229,4.584,4.081,2.043,2.851,5.681c0,0,2.413,1.277,1.344,4.572,0,0,2.635.716,2.094,2.282s-8.193,1.564-9.1,2.058-7.742,4.808-13.441,5.852a77.692,77.692,0,0,1-10.508,1.184Z" transform="translate(-99.99 -91.76)" fill="none" stroke="#000" stroke-width="2"/>
        <path id="Path_4930" data-name="Path 4930" d="M425.549,374.441h-.1a.113.113,0,0,1-.117-.108.111.111,0,0,1,.119-.107,29.774,29.774,0,0,0,3.472-.263,17.689,17.689,0,0,1,5.947-.031.106.106,0,0,1,.083.131.118.118,0,0,1-.144.076,17.515,17.515,0,0,0-5.857.037,30.887,30.887,0,0,1-3.407.265" transform="translate(-106.041 -93.164)"/>
        <path id="Path_4931" data-name="Path 4931" d="M425.549,374.441h-.1a.113.113,0,0,1-.117-.108.111.111,0,0,1,.119-.107,29.774,29.774,0,0,0,3.472-.263,17.689,17.689,0,0,1,5.947-.031.106.106,0,0,1,.083.131.118.118,0,0,1-.144.076,17.515,17.515,0,0,0-5.857.037A30.887,30.887,0,0,1,425.549,374.441Z" transform="translate(-106.041 -93.164)" fill="none" stroke="#000" stroke-width="1"/>
        <path id="Path_4932" data-name="Path 4932" d="M438.841,381.52a.133.133,0,0,1-.041-.007c-3.037-1.05-6.507-.644-9.569-.286a.115.115,0,0,1-.131-.093.11.11,0,0,1,.1-.12c3.089-.361,6.59-.771,9.682.3a.1.1,0,0,1,.068.138.116.116,0,0,1-.11.07" transform="translate(-106.979 -94.894)"/>
        <path id="Path_4933" data-name="Path 4933" d="M438.841,381.52a.133.133,0,0,1-.041-.007c-3.037-1.05-6.507-.644-9.569-.286a.115.115,0,0,1-.131-.093.11.11,0,0,1,.1-.12c3.089-.361,6.59-.771,9.682.3a.1.1,0,0,1,.068.138A.116.116,0,0,1,438.841,381.52Z" transform="translate(-106.979 -94.894)" fill="none" stroke="#000" stroke-width="1"/>
        <path id="Path_4934" data-name="Path 4934" d="M440.055,387.855a.122.122,0,0,1-.029,0,24.79,24.79,0,0,0-6.925-.214c-1.342.081-2.731.165-4.048.123a.112.112,0,0,1-.113-.111.114.114,0,0,1,.122-.1c1.305.042,2.688-.042,4.024-.123a24.988,24.988,0,0,1,7,.22.107.107,0,0,1,.085.131.115.115,0,0,1-.113.081" transform="translate(-106.94 -96.555)"/>
        <path id="Path_4935" data-name="Path 4935" d="M440.055,387.855a.122.122,0,0,1-.029,0,24.79,24.79,0,0,0-6.925-.214c-1.342.081-2.731.165-4.048.123a.112.112,0,0,1-.113-.111.114.114,0,0,1,.122-.1c1.305.042,2.688-.042,4.024-.123a24.988,24.988,0,0,1,7,.22.107.107,0,0,1,.085.131A.115.115,0,0,1,440.055,387.855Z" transform="translate(-106.94 -96.555)" fill="none" stroke="#000" stroke-width="1"/>
        <path id="Path_4936" data-name="Path 4936" d="M469.371,265.929s7.1-12.587,12.112-15.336c8.746-4.8,35.11-8.023,36.355-4.823.6,1.551-1.977,3.7-2.077,4.151.306.32.22,7.823-2.4,8.581s-.373,3.051-4.8,4.2-14.765,4.1-19.146,5.883-9.106,12.124-9.106,12.124Z" transform="translate(-117.019 -60.953)" fill="#ffac90"/>
        <path id="Path_4937" data-name="Path 4937" d="M469.371,265.929s7.1-12.587,12.112-15.336c8.746-4.8,35.11-8.023,36.355-4.823.6,1.551-1.977,3.7-2.077,4.151.306.32.22,7.823-2.4,8.581s-.373,3.051-4.8,4.2-14.765,4.1-19.146,5.883-9.106,12.124-9.106,12.124Z" transform="translate(-117.019 -60.953)" fill="none" stroke="#000" stroke-width="2"/>
        <g id="Group_1702" data-name="Group 1702" transform="translate(391.155 188.186)">
          <g id="Group_1701" data-name="Group 1701">
            <g id="Group_1700" data-name="Group 1700" clip-path="url(#clip-path-10)">
              <path id="Path_5056" data-name="Path 5056" d="M0,0,7.594-.447,7.579.664l-7.594.447Z" transform="translate(0 0.583) rotate(-1.003)" fill="#33150d" stroke="#000" stroke-width="2"/>
            </g>
          </g>
        </g>
        <g id="Group_1731" data-name="Group 1731" transform="translate(391.155 192.186)">
          <g id="Group_1701-2" data-name="Group 1701">
            <g id="Group_1700-2" data-name="Group 1700" clip-path="url(#clip-path-10)">
              <path id="Path_5056-2" data-name="Path 5056" d="M0,0,7.594-.447,7.579.664l-7.594.447Z" transform="translate(0 0.583) rotate(-1.003)" fill="#33150d" stroke="#000" stroke-width="2"/>
            </g>
          </g>
        </g>
        <g id="Group_1732" data-name="Group 1732" transform="translate(389.13 195.992)">
          <g id="Group_1701-3" data-name="Group 1701">
            <g id="Group_1700-3" data-name="Group 1700" clip-path="url(#clip-path-10)">
              <path id="Path_5056-3" data-name="Path 5056" d="M0,0,7.594-.447,7.579.664l-7.594.447Z" transform="translate(0 0.583) rotate(-1.003)" fill="#33150d" stroke="#000" stroke-width="2"/>
            </g>
          </g>
        </g>
        <path id="Path_4940" data-name="Path 4940" d="M490.294,233.181l2.778,30.184a.5.5,0,0,0,.521.432h19.119a.5.5,0,0,0,.521-.423l.378-3.829,2.6-26.175a.49.49,0,0,0-.513-.512l-20.063-.153-4.809-.035a.5.5,0,0,0-.53.512" transform="translate(-122.235 -58.007)" fill="#a62973"/>
        <g id="Group_1711" data-name="Group 1711" transform="translate(379.056 152.758)" opacity="0.78">
          <g id="Group_1710" data-name="Group 1710">
            <g id="Group_1709" data-name="Group 1709" clip-path="url(#clip-path-13)">
              <path id="Path_4941" data-name="Path 4941" d="M511.3,218.749c2.486-1.7,5.3-3.053,7.338-5.2s3.118-5.442,1.475-7.857a5.416,5.416,0,0,0-5.054-2.164,5.127,5.127,0,0,0-4.2,3.371c-.48,1.547-.088,3.258-.692,4.768a13.14,13.14,0,0,1-2.521,3.258,10.843,10.843,0,0,0-2.207,4.277c-.291,1.129-.878,3.8-.12,4.852,1.072,1.491,1.625-.914,2.175-1.721a14.234,14.234,0,0,1,3.809-3.588" transform="translate(-504.944 -203.49)" fill="#fff"/>
            </g>
          </g>
        </g>
        <g id="Group_1714" data-name="Group 1714" transform="translate(373.437 152.998)" opacity="0.78">
          <g id="Group_1713" data-name="Group 1713">
            <g id="Group_1712" data-name="Group 1712" clip-path="url(#clip-path-14)">
              <path id="Path_4942" data-name="Path 4942" d="M502.335,203.868a4.242,4.242,0,0,0-3.919,1.535c-2.244,2.724-.376,10.255,3.853,7.466,2.686-1.772,4.38-8.213.067-9" transform="translate(-497.459 -203.81)" fill="#fff"/>
            </g>
          </g>
        </g>
        <path id="Path_4943" data-name="Path 4943" d="M490.294,233.181l2.778,30.184a.5.5,0,0,0,.521.432h19.119a.5.5,0,0,0,.521-.423l.378-3.829c-1.717-.98-3.6-1.654-5.375-2.543a23.169,23.169,0,0,1-8.746-7.892c-1.923-2.895-3.612-6.173-3.793-9.654a67.228,67.228,0,0,1-.063-6.751l-4.809-.035a.5.5,0,0,0-.53.512" transform="translate(-122.235 -58.007)" fill="#7e1854"/>
        <path id="Path_4944" data-name="Path 4944" d="M496.224,244.581a7.543,7.543,0,0,1,2.85-1.1,2.278,2.278,0,0,1,2.142,3.824,7.664,7.664,0,0,1-2.142,1.685c-4.347,2.677-11.257,12.508-13.642,4.961-1.458-4.608,8.183-7.936,10.791-9.373" transform="translate(-120.987 -60.7)" fill="#ffac90"/>
        <path id="Path_4945" data-name="Path 4945" d="M494.081,258.869a.956.956,0,0,0,.242-1.88,7.913,7.913,0,0,1-.867-15.026.955.955,0,1,0-.694-1.78,9.824,9.824,0,0,0,1.077,18.655.967.967,0,0,0,.242.032" transform="translate(-121.292 -59.864)" fill="#a62973"/>
        <g id="Group_1717" data-name="Group 1717" transform="translate(352.352 204.976)" opacity="0.76">
          <g id="Group_1716" data-name="Group 1716">
            <g id="Group_1715" data-name="Group 1715" clip-path="url(#clip-path-15)">
              <path id="Path_4946" data-name="Path 4946" d="M469.371,273.05l10.935,14.78,1.6-3.139Z" transform="translate(-469.371 -273.05)" fill="#33150d"/>
            </g>
          </g>
        </g>
        <path id="Path_4947" data-name="Path 4947" d="M640.485,638.411a12.082,12.082,0,0,1-1.233.291c-3.937.766-9.212.33-13.193-.24-5.313-.761-13.247-4.023-19.5-4.918-1.354-.194-2.775-.3-4.209-.379l-1.055-.056c-4.814-.242-9.583-.426-12.3-3.143-.977-.98-1.965-4.024-2.839-7.5-.079-.341-.168-.684-.247-1.025-.2-.869-.408-1.759-.59-2.636-.6-2.744-1.077-5.406-1.394-7.27-.277-1.56-.432-2.561-.432-2.561l26.2-4.756a32.308,32.308,0,0,0,2.148,3.04,1.4,1.4,0,0,0,.1.131,60.946,60.946,0,0,0,8.764,9.038c2.943,2.473,10.321,5.666,16.151,9.138.3.182.607.363.909.555,3.955,2.448,6.99,5.019,7.049,7.58.052,2.528-1.716,3.964-4.331,4.707" transform="translate(-145.472 -150.639)" fill="#a62973"/>
        <path id="Path_4948" data-name="Path 4948" d="M640.485,638.411a12.082,12.082,0,0,1-1.233.291c-3.937.766-9.212.33-13.193-.24-5.313-.761-13.247-4.023-19.5-4.918-1.354-.194-2.775-.3-4.209-.379l-1.055-.056c-4.814-.242-9.583-.426-12.3-3.143-.977-.98-1.965-4.024-2.839-7.5-.079-.341-.168-.684-.247-1.025-.2-.869-.408-1.759-.59-2.636-.6-2.744-1.077-5.406-1.394-7.27-.277-1.56-.432-2.561-.432-2.561l26.2-4.756a32.308,32.308,0,0,0,2.148,3.04,1.4,1.4,0,0,0,.1.131,60.946,60.946,0,0,0,8.764,9.038c2.943,2.473,10.321,5.666,16.151,9.138.3.182.607.363.909.555,3.955,2.448,6.99,5.019,7.049,7.58C644.869,636.232,643.1,637.669,640.485,638.411Z" transform="translate(-145.472 -150.639)" fill="none" stroke="#000" stroke-width="2"/>
        <path id="Path_4949" data-name="Path 4949" d="M603.155,638.716l-1.055-.056a11.773,11.773,0,0,0-15.138-10.641c-.079-.341-.168-.683-.247-1.024a12.813,12.813,0,0,1,16.44,11.72" transform="translate(-146.275 -156.19)"/>
        <path id="Path_4950" data-name="Path 4950" d="M603.155,638.716l-1.055-.056a11.773,11.773,0,0,0-15.138-10.641c-.079-.341-.168-.683-.247-1.024a12.813,12.813,0,0,1,16.44,11.72Z" transform="translate(-146.275 -156.19)" fill="none" stroke="#000" stroke-width="1"/>
        <path id="Path_4951" data-name="Path 4951" d="M605.206,616.906a1.053,1.053,0,1,1-.893-1.191,1.052,1.052,0,0,1,.893,1.191" transform="translate(-150.362 -153.502)"/>
        <path id="Path_4952" data-name="Path 4952" d="M605.206,616.906a1.053,1.053,0,1,1-.893-1.191A1.052,1.052,0,0,1,605.206,616.906Z" transform="translate(-150.362 -153.502)" fill="none" stroke="#000" stroke-width="1"/>
        <path id="Path_4953" data-name="Path 4953" d="M622.254,631.386a1.053,1.053,0,1,1-.893-1.191,1.052,1.052,0,0,1,.893,1.191" transform="translate(-154.613 -157.112)"/>
        <path id="Path_4954" data-name="Path 4954" d="M622.254,631.386a1.053,1.053,0,1,1-.893-1.191A1.052,1.052,0,0,1,622.254,631.386Z" transform="translate(-154.613 -157.112)" fill="none" stroke="#000" stroke-width="1"/>
        <path id="Path_4955" data-name="Path 4955" d="M630.778,641.1a1.053,1.053,0,1,1-.893-1.191,1.052,1.052,0,0,1,.893,1.191" transform="translate(-156.738 -159.535)"/>
        <path id="Path_4956" data-name="Path 4956" d="M630.778,641.1a1.053,1.053,0,1,1-.893-1.191A1.052,1.052,0,0,1,630.778,641.1Z" transform="translate(-156.738 -159.535)" fill="none" stroke="#000" stroke-width="1"/>
        <path id="Path_4957" data-name="Path 4957" d="M607.384,626.424a1.053,1.053,0,1,1-.893-1.191,1.052,1.052,0,0,1,.893,1.191" transform="translate(-150.905 -155.875)"/>
        <path id="Path_4958" data-name="Path 4958" d="M607.384,626.424a1.053,1.053,0,1,1-.893-1.191A1.052,1.052,0,0,1,607.384,626.424Z" transform="translate(-150.905 -155.875)" fill="none" stroke="#000" stroke-width="1"/>
        <path id="Path_4959" data-name="Path 4959" d="M613.932,610.365a1.053,1.053,0,1,1-.893-1.191,1.052,1.052,0,0,1,.893,1.191" transform="translate(-152.538 -151.871)"/>
        <path id="Path_4960" data-name="Path 4960" d="M613.932,610.365a1.053,1.053,0,1,1-.893-1.191A1.052,1.052,0,0,1,613.932,610.365Z" transform="translate(-152.538 -151.871)" fill="none" stroke="#000" stroke-width="1"/>
        <path id="Path_4961" data-name="Path 4961" d="M621.068,619.885a1.053,1.053,0,1,1-.893-1.191,1.052,1.052,0,0,1,.893,1.191" transform="translate(-154.317 -154.245)"/>
        <path id="Path_4962" data-name="Path 4962" d="M621.068,619.885a1.053,1.053,0,1,1-.893-1.191A1.052,1.052,0,0,1,621.068,619.885Z" transform="translate(-154.317 -154.245)" fill="none" stroke="#000" stroke-width="1"/>
        <path id="Path_4963" data-name="Path 4963" d="M614.122,638.72a1.053,1.053,0,1,1-.893-1.191,1.052,1.052,0,0,1,.893,1.191" transform="translate(-152.585 -158.94)"/>
        <path id="Path_4964" data-name="Path 4964" d="M614.122,638.72a1.053,1.053,0,1,1-.893-1.191A1.052,1.052,0,0,1,614.122,638.72Z" transform="translate(-152.585 -158.94)" fill="none" stroke="#000" stroke-width="1"/>
        <path id="Path_4965" data-name="Path 4965" d="M633.954,628.811a1.053,1.053,0,1,1-.893-1.191,1.052,1.052,0,0,1,.893,1.191" transform="translate(-157.53 -156.47)"/>
        <path id="Path_4966" data-name="Path 4966" d="M633.954,628.811a1.053,1.053,0,1,1-.893-1.191A1.052,1.052,0,0,1,633.954,628.811Z" transform="translate(-157.53 -156.47)" fill="none" stroke="#000" stroke-width="1"/>
        <path id="Path_4967" data-name="Path 4967" d="M642.676,637.142a1.053,1.053,0,1,1-.893-1.191,1.052,1.052,0,0,1,.893,1.191" transform="translate(-159.704 -158.547)"/>
        <path id="Path_4968" data-name="Path 4968" d="M642.676,637.142a1.053,1.053,0,1,1-.893-1.191A1.052,1.052,0,0,1,642.676,637.142Z" transform="translate(-159.704 -158.547)" fill="none" stroke="#000" stroke-width="1"/>
        <path id="Path_4969" data-name="Path 4969" d="M591.723,617.1a1.053,1.053,0,1,1-.893-1.191,1.052,1.052,0,0,1,.893,1.191" transform="translate(-147.001 -153.55)"/>
        <path id="Path_4970" data-name="Path 4970" d="M591.723,617.1a1.053,1.053,0,1,1-.893-1.191A1.052,1.052,0,0,1,591.723,617.1Z" transform="translate(-147.001 -153.55)" fill="none" stroke="#000" stroke-width="1"/>
        <path id="Path_4971" data-name="Path 4971" d="M657.869,645.5a12.081,12.081,0,0,1-1.233.291,11.9,11.9,0,0,1-2.394-13.133c.3.182.607.363.909.555a10.6,10.6,0,0,0-.712,6.086,10.4,10.4,0,0,0,3.429,6.2" transform="translate(-162.856 -157.729)"/>
        <path id="Path_4972" data-name="Path 4972" d="M657.869,645.5a12.081,12.081,0,0,1-1.233.291,11.9,11.9,0,0,1-2.394-13.133c.3.182.607.363.909.555a10.6,10.6,0,0,0-.712,6.086A10.4,10.4,0,0,0,657.869,645.5Z" transform="translate(-162.856 -157.729)" fill="none" stroke="#000" stroke-width="1"/>
        <g id="Group_1720" data-name="Group 1720" transform="translate(438.456 456.531)" opacity="0.53">
          <g id="Group_1719" data-name="Group 1719">
            <g id="Group_1718" data-name="Group 1718" clip-path="url(#clip-path-16)">
              <path id="Path_4973" data-name="Path 4973" d="M612.608,608.149l-.521.223-26.621,11.415c-.6-2.743-1.076-5.406-1.394-7.27l27.917-4.276Z" transform="translate(-584.072 -608.149)" fill="#261c17"/>
            </g>
          </g>
        </g>
        <path id="Path_4974" data-name="Path 4974" d="M389.318,582.137s-15.353,3.639-24,8.514c-3.54,2-9.558,8.382-15.1,12.671-.324.251-.645.492-.966.733-3.289,2.4-6.337,3.931-8.524,3.171-4.892-1.7-2.83-8.975.006-15.119v-.01c.353-.757.713-1.492,1.079-2.2,0-.01-.009-.012,0-.021.329-.665.664-1.3.995-1.9,2.566-4.7,8.391-11.005,11.407-16.549.651-1.2,1.241-2.5,1.821-3.812.142-.32.274-.652.416-.971,1.91-4.426,3.753-8.841,7.246-10.435,1.252-.576,4.455-.447,8.014-.054.345.038.689.088,1.045.128,5.976.738,12.524,2.09,12.524,2.09Z" transform="translate(-84.211 -138.573)" fill="#a62973"/>
        <path id="Path_4975" data-name="Path 4975" d="M389.318,582.137s-15.353,3.639-24,8.514c-3.54,2-9.558,8.382-15.1,12.671-.324.251-.645.492-.966.733-3.289,2.4-6.337,3.931-8.524,3.171-4.892-1.7-2.83-8.975.006-15.119v-.01c.353-.757.713-1.492,1.079-2.2,0-.01-.009-.012,0-.021.329-.665.664-1.3.995-1.9,2.566-4.7,8.391-11.005,11.407-16.549.651-1.2,1.241-2.5,1.821-3.812.142-.32.274-.652.416-.971,1.91-4.426,3.753-8.841,7.246-10.435,1.252-.576,4.455-.447,8.014-.054.345.038.689.088,1.045.128,5.976.738,12.524,2.09,12.524,2.09Z" transform="translate(-84.211 -138.573)" fill="none" stroke="#000" stroke-width="2"/>
        <path id="Path_4976" data-name="Path 4976" d="M351.189,614.639c-.323.252-.645.492-.966.733a18.579,18.579,0,0,1-6.358-5.876,12.471,12.471,0,0,1-2.16-6.072v-.011c.353-.757.713-1.493,1.079-2.2a11.426,11.426,0,0,0,1.942,7.679c1.51,2.151,4.01,4.816,6.461,5.741" transform="translate(-85.191 -149.891)"/>
        <path id="Path_4977" data-name="Path 4977" d="M351.189,614.639c-.323.252-.645.492-.966.733a18.579,18.579,0,0,1-6.358-5.876,12.471,12.471,0,0,1-2.16-6.072v-.011c.353-.757.713-1.493,1.079-2.2a11.426,11.426,0,0,0,1.942,7.679C346.238,611.048,348.738,613.714,351.189,614.639Z" transform="translate(-85.191 -149.891)" fill="none" stroke="#000" stroke-width="1"/>
        <path id="Path_4978" data-name="Path 4978" d="M373.377,566.031a13.037,13.037,0,0,1-9.253,2.173,11.4,11.4,0,0,1-2.028-.471c.142-.32.274-.652.416-.972a11.782,11.782,0,0,0,15.26-10.489c.345.039.689.089,1.045.128a13.03,13.03,0,0,1-5.44,9.631" transform="translate(-90.275 -138.685)"/>
        <path id="Path_4979" data-name="Path 4979" d="M373.377,566.031a13.037,13.037,0,0,1-9.253,2.173,11.4,11.4,0,0,1-2.028-.471c.142-.32.274-.652.416-.972a11.782,11.782,0,0,0,15.26-10.489c.345.039.689.089,1.045.128A13.03,13.03,0,0,1,373.377,566.031Z" transform="translate(-90.275 -138.685)" fill="none" stroke="#000" stroke-width="1"/>
        <path id="Path_4980" data-name="Path 4980" d="M386.735,577.219a1.053,1.053,0,1,1,1.428-.421,1.053,1.053,0,0,1-1.428.421" transform="translate(-96.28 -143.414)"/>
        <path id="Path_4981" data-name="Path 4981" d="M386.735,577.219a1.053,1.053,0,1,1,1.428-.421A1.053,1.053,0,0,1,386.735,577.219Z" transform="translate(-96.28 -143.414)" fill="none" stroke="#000" stroke-width="1"/>
        <path id="Path_4982" data-name="Path 4982" d="M367.218,588.145a1.053,1.053,0,1,1,1.428-.421,1.053,1.053,0,0,1-1.428.421" transform="translate(-91.414 -146.138)"/>
        <path id="Path_4983" data-name="Path 4983" d="M367.218,588.145a1.053,1.053,0,1,1,1.428-.421A1.053,1.053,0,0,1,367.218,588.145Z" transform="translate(-91.414 -146.138)" fill="none" stroke="#000" stroke-width="1"/>
        <path id="Path_4984" data-name="Path 4984" d="M355.136,592.742a1.053,1.053,0,1,1,1.428-.421,1.053,1.053,0,0,1-1.428.421" transform="translate(-88.402 -147.284)"/>
        <path id="Path_4985" data-name="Path 4985" d="M355.136,592.742a1.053,1.053,0,1,1,1.428-.421A1.053,1.053,0,0,1,355.136,592.742Z" transform="translate(-88.402 -147.284)" fill="none" stroke="#000" stroke-width="1"/>
        <path id="Path_4986" data-name="Path 4986" d="M377.055,575.94a1.053,1.053,0,1,1,1.428-.421,1.053,1.053,0,0,1-1.428.421" transform="translate(-93.867 -143.095)"/>
        <path id="Path_4987" data-name="Path 4987" d="M377.055,575.94a1.053,1.053,0,1,1,1.428-.421A1.053,1.053,0,0,1,377.055,575.94Z" transform="translate(-93.867 -143.095)" fill="none" stroke="#000" stroke-width="1"/>
        <path id="Path_4988" data-name="Path 4988" d="M389.82,587.679a1.052,1.052,0,1,1,1.427-.421,1.052,1.052,0,0,1-1.427.421" transform="translate(-97.049 -146.022)"/>
        <path id="Path_4989" data-name="Path 4989" d="M389.82,587.679a1.052,1.052,0,1,1,1.427-.421A1.052,1.052,0,0,1,389.82,587.679Z" transform="translate(-97.049 -146.022)" fill="none" stroke="#000" stroke-width="1"/>
        <path id="Path_4990" data-name="Path 4990" d="M378.41,591.045a1.053,1.053,0,1,1,1.428-.421,1.053,1.053,0,0,1-1.428.421" transform="translate(-94.205 -146.861)"/>
        <path id="Path_4991" data-name="Path 4991" d="M378.41,591.045a1.053,1.053,0,1,1,1.428-.421A1.053,1.053,0,0,1,378.41,591.045Z" transform="translate(-94.205 -146.861)" fill="none" stroke="#000" stroke-width="1"/>
        <path id="Path_4992" data-name="Path 4992" d="M363.181,577.965a1.053,1.053,0,1,1,1.428-.421,1.053,1.053,0,0,1-1.428.421" transform="translate(-90.408 -143.6)"/>
        <path id="Path_4993" data-name="Path 4993" d="M363.181,577.965a1.053,1.053,0,1,1,1.428-.421A1.053,1.053,0,0,1,363.181,577.965Z" transform="translate(-90.408 -143.6)" fill="none" stroke="#000" stroke-width="1"/>
        <path id="Path_4994" data-name="Path 4994" d="M365.549,600.007a1.053,1.053,0,1,1,1.428-.421,1.053,1.053,0,0,1-1.428.421" transform="translate(-90.998 -149.096)"/>
        <path id="Path_4995" data-name="Path 4995" d="M365.549,600.007a1.053,1.053,0,1,1,1.428-.421A1.053,1.053,0,0,1,365.549,600.007Z" transform="translate(-90.998 -149.096)" fill="none" stroke="#000" stroke-width="1"/>
        <path id="Path_4996" data-name="Path 4996" d="M354.7,605.275a1.053,1.053,0,1,1,1.428-.421,1.053,1.053,0,0,1-1.428.421" transform="translate(-88.293 -150.409)"/>
        <path id="Path_4997" data-name="Path 4997" d="M354.7,605.275a1.053,1.053,0,1,1,1.428-.421A1.053,1.053,0,0,1,354.7,605.275Z" transform="translate(-88.293 -150.409)" fill="none" stroke="#000" stroke-width="1"/>
        <path id="Path_4998" data-name="Path 4998" d="M391.256,564.515a1.053,1.053,0,1,1,1.428-.421,1.053,1.053,0,0,1-1.428.421" transform="translate(-97.407 -140.247)" fill="#fff"/>
        <g id="Group_1723" data-name="Group 1723" transform="translate(291.189 418.074)" opacity="0.53">
          <g id="Group_1722" data-name="Group 1722">
            <g id="Group_1721" data-name="Group 1721" clip-path="url(#clip-path-17)">
              <path id="Path_4999" data-name="Path 4999" d="M387.9,556.921l3.918,28.311,8.619-2.477Z" transform="translate(-387.896 -556.921)" fill="#261c17"/>
            </g>
          </g>
        </g>
        <path id="Path_5000" data-name="Path 5000" d="M554.847,555.042l-45.075,6.914L472.7,506.144s-5.439,6.515-17.1,11.917c-6.4,2.971-67.686,31.747-67.686,31.747l-18.751-38.642,48.4-25.559-3.347-1.024c-3.413-1.057-9.153-2.866-15.948-5.135-16.083-5.378-38.043-13.32-48.751-19.9a50.6,50.6,0,0,1-23.159-32.7,36.037,36.037,0,0,1-1.028-6.3c47.97-3.238,81.994-21.242,81.994-21.242s25.351,13.45,48.482,26.058c4.724,2.574,9.355,5.114,13.656,7.5,12.533,6.939,22.291,12.549,23.477,13.822,3.6,3.846,61.9,108.357,61.9,108.357" transform="translate(-81.11 -99.552)" fill="#672376"/>
        <path id="Path_5001" data-name="Path 5001" d="M554.847,555.042l-45.075,6.914L472.7,506.144s-5.439,6.515-17.1,11.917c-6.4,2.971-67.686,31.747-67.686,31.747l-18.751-38.642,48.4-25.559-3.347-1.024c-3.413-1.057-9.153-2.866-15.948-5.135-16.083-5.378-38.043-13.32-48.751-19.9a50.6,50.6,0,0,1-23.159-32.7,36.037,36.037,0,0,1-1.028-6.3c47.97-3.238,81.994-21.242,81.994-21.242s25.351,13.45,48.482,26.058c4.724,2.574,9.355,5.114,13.656,7.5,12.533,6.939,22.291,12.549,23.477,13.822C496.544,450.531,554.847,555.042,554.847,555.042Z" transform="translate(-81.11 -99.552)" fill="none" stroke="#000" stroke-width="2"/>
        <path id="Path_5002" data-name="Path 5002" d="M521.644,531.488s10.579-9.713,10.364-28.086c0-.163,1.005.026,1.037.185,1.079,5.494,3.305,27.759-6.294,35.228Z" transform="translate(-130.052 -125.488)"/>
        <path id="Path_5003" data-name="Path 5003" d="M521.644,531.488s10.579-9.713,10.364-28.086c0-.163,1.005.026,1.037.185,1.079,5.494,3.305,27.759-6.294,35.228Z" transform="translate(-130.052 -125.488)" fill="none" stroke="#000" stroke-width="1"/>
        <path id="Path_5004" data-name="Path 5004" d="M510.313,484.549l1.05-.072c-.554-8.111-8.918-15.267-13.916-19.543-.481-.411-.932-.8-1.341-1.153-4.6-4.016-58.25-37.241-60.531-38.654l-.554.895c.558.345,55.853,34.592,60.394,38.552.411.359.863.746,1.347,1.161,4.872,4.168,13.027,11.144,13.55,18.814" transform="translate(-108.456 -105.989)"/>
        <path id="Path_5005" data-name="Path 5005" d="M510.313,484.549l1.05-.072c-.554-8.111-8.918-15.267-13.916-19.543-.481-.411-.932-.8-1.341-1.153-4.6-4.016-58.25-37.241-60.531-38.654l-.554.895c.558.345,55.853,34.592,60.394,38.552.411.359.863.746,1.347,1.161C501.635,469.9,509.79,476.879,510.313,484.549Z" transform="translate(-108.456 -105.989)" fill="none" stroke="#000" stroke-width="1"/>
        <path id="Path_5006" data-name="Path 5006" d="M342.526,438.635l-.272-.623,26.571-4.232.021.595c0,.135.363,13.548-9.579,16a10.176,10.176,0,0,1-6.657-.587c-6.354-2.773-10.037-11.04-10.084-11.149m1.261.2c1.314,2.622,6.909,12.566,15.228,10.517,7.957-1.959,8.714-11.8,8.776-14.339Z" transform="translate(-85.328 -108.146)"/>
        <path id="Path_5007" data-name="Path 5007" d="M342.526,438.635l-.272-.623,26.571-4.232.021.595c0,.135.363,13.548-9.579,16a10.176,10.176,0,0,1-6.657-.587C346.256,447.011,342.573,438.744,342.526,438.635Zm1.261.2c1.314,2.622,6.909,12.566,15.228,10.517,7.957-1.959,8.714-11.8,8.776-14.339Z" transform="translate(-85.328 -108.146)" fill="none" stroke="#000" stroke-width="1"/>
        <rect id="Rectangle_1282" data-name="Rectangle 1282" width="71.362" height="1.053" transform="translate(294.054 424.002) rotate(-27.055)"/>
        <rect id="Rectangle_1283" data-name="Rectangle 1283" width="71.362" height="1.053" transform="translate(294.054 424.002) rotate(-27.055)" fill="none" stroke="#000" stroke-width="1"/>
        <rect id="Rectangle_1284" data-name="Rectangle 1284" width="1.052" height="52.461" transform="translate(411.974 415.932) rotate(-30.662)"/>
        <rect id="Rectangle_1285" data-name="Rectangle 1285" width="1.052" height="52.461" transform="translate(411.974 415.932) rotate(-30.662)" fill="none" stroke="#000" stroke-width="1"/>
        <path id="Path_5008" data-name="Path 5008" d="M455.149,507.006l-12.693,5.215-3.349-1.025c-3.413-1.056-9.152-2.865-15.946-5.135,6.453.4,31.988.944,31.988.944" transform="translate(-105.499 -126.167)"/>
        <path id="Path_5009" data-name="Path 5009" d="M455.149,507.006l-12.693,5.215-3.349-1.025c-3.413-1.056-9.152-2.865-15.946-5.135C429.614,506.459,455.149,507.006,455.149,507.006Z" transform="translate(-105.499 -126.167)" fill="none" stroke="#000" stroke-width="1"/>
        <path id="Path_5010" data-name="Path 5010" d="M407.331,399.31s-30.152,26.775-80.967,27.543a35.984,35.984,0,0,1-1.027-6.3c43.921-2.429,81.994-21.242,81.994-21.242" transform="translate(-81.11 -99.552)"/>
        <path id="Path_5011" data-name="Path 5011" d="M407.331,399.31s-30.152,26.775-80.967,27.543a35.984,35.984,0,0,1-1.027-6.3C369.258,418.123,407.331,399.31,407.331,399.31Z" transform="translate(-81.11 -99.552)" fill="none" stroke="#000" stroke-width="1"/>
        <path id="Path_5012" data-name="Path 5012" d="M319.31,258.925c.2-.508.459-1.057.751-1.639a5.382,5.382,0,0,1-.287-1.667,5.235,5.235,0,0,1,4.042-5.207c2.256-4.247,4.231-8.862,3.341-12.569-2.475-10.308,5.716-17.791,8.363-19.311,4.477-2.574,17-4.671,24.529.843s6.178,18.676,5.656,18.787l-1.471,4.812s2.931,2.714,6.356,5.527-.467,7.52-.467,7.52,5-.832,5.349,5.741c.309,5.846-6.417,4.8-6.417,4.8-5.141,7.4-10.073.739-10.073.739L335.1,268.327s-1.369,5.6-6.671,4.308-4.171-5.553-4.171-5.553c-3.485-.084-7-3.031-4.948-8.157" transform="translate(-79.455 -53.827)" fill="#15192d"/>
        <path id="Path_5013" data-name="Path 5013" d="M319.31,258.925c.2-.508.459-1.057.751-1.639a5.382,5.382,0,0,1-.287-1.667,5.235,5.235,0,0,1,4.042-5.207c2.256-4.247,4.231-8.862,3.341-12.569-2.475-10.308,5.716-17.791,8.363-19.311,4.477-2.574,17-4.671,24.529.843s6.178,18.676,5.656,18.787l-1.471,4.812s2.931,2.714,6.356,5.527-.467,7.52-.467,7.52,5-.832,5.349,5.741c.309,5.846-6.417,4.8-6.417,4.8-5.141,7.4-10.073.739-10.073.739L335.1,268.327s-1.369,5.6-6.671,4.308-4.171-5.553-4.171-5.553C320.773,267,317.253,264.052,319.31,258.925Z" transform="translate(-79.455 -53.827)" fill="none" stroke="#000" stroke-width="2"/>
        <path id="Path_5014" data-name="Path 5014" d="M390.2,261.9a.271.271,0,0,0,.256-.194c.423-1.439.806-3.082-.017-4.375a5.257,5.257,0,0,0-3.172-1.876l-3.943-1.185a.27.27,0,0,0-.155.516l3.943,1.185a4.842,4.842,0,0,1,2.871,1.649c.7,1.1.345,2.606-.046,3.932a.27.27,0,0,0,.262.346" transform="translate(-95.482 -63.389)" fill="#15192d"/>
        <path id="Path_5015" data-name="Path 5015" d="M390.2,261.9a.271.271,0,0,0,.256-.194c.423-1.439.806-3.082-.017-4.375a5.257,5.257,0,0,0-3.172-1.876l-3.943-1.185a.27.27,0,0,0-.155.516l3.943,1.185a4.842,4.842,0,0,1,2.871,1.649c.7,1.1.345,2.606-.046,3.932a.27.27,0,0,0,.262.346Z" transform="translate(-95.482 -63.389)" fill="none" stroke="#000" stroke-width="2"/>
        <path id="Path_5016" data-name="Path 5016" d="M319.789,257.118a3.969,3.969,0,0,0,1.256-.214,8.181,8.181,0,0,0,3.681-3.2,27.865,27.865,0,0,0,2.157-3.568.27.27,0,0,0-.482-.244,27.393,27.393,0,0,1-2.115,3.5,7.714,7.714,0,0,1-3.419,3.005c-1.35.472-3.187.064-3.771-1.294a.27.27,0,0,0-.5.213,3.327,3.327,0,0,0,3.189,1.8" transform="translate(-78.926 -62.264)" fill="#15192d"/>
        <path id="Path_5017" data-name="Path 5017" d="M319.789,257.118a3.969,3.969,0,0,0,1.256-.214,8.181,8.181,0,0,0,3.681-3.2,27.865,27.865,0,0,0,2.157-3.568.27.27,0,0,0-.482-.244,27.393,27.393,0,0,1-2.115,3.5,7.714,7.714,0,0,1-3.419,3.005c-1.35.472-3.187.064-3.771-1.294a.27.27,0,0,0-.5.213A3.327,3.327,0,0,0,319.789,257.118Z" transform="translate(-78.926 -62.264)" fill="none" stroke="#000" stroke-width="2"/>
        <path id="Path_5018" data-name="Path 5018" d="M339.414,205.848a6.653,6.653,0,1,0,6.575-6.729,6.652,6.652,0,0,0-6.575,6.729" transform="translate(-84.62 -49.642)" fill="#15192d"/>
        <path id="Path_5019" data-name="Path 5019" d="M339.414,205.848a6.653,6.653,0,1,0,6.575-6.729A6.652,6.652,0,0,0,339.414,205.848Z" transform="translate(-84.62 -49.642)" fill="none" stroke="#000" stroke-width="2"/>
        <path id="Path_5020" data-name="Path 5020" d="M350.629,213.759a.2.2,0,0,0,.037,0,7.867,7.867,0,0,0,6.374-10.069.27.27,0,0,0-.516.157,7.328,7.328,0,0,1-5.936,9.378.27.27,0,0,0,.042.537" transform="translate(-87.348 -50.734)" fill="#15192d"/>
        <path id="Path_5021" data-name="Path 5021" d="M350.629,213.759a.2.2,0,0,0,.037,0,7.867,7.867,0,0,0,6.374-10.069.27.27,0,0,0-.516.157,7.328,7.328,0,0,1-5.936,9.378.27.27,0,0,0,.042.537Z" transform="translate(-87.348 -50.734)" fill="none" stroke="#000" stroke-width="2"/>
        <path id="Path_5022" data-name="Path 5022" d="M344.932,211.264a.27.27,0,0,0,.089-.523,22.582,22.582,0,0,1-4.065-1.784,7.317,7.317,0,0,1-2.947-3.1,5.563,5.563,0,0,1,1.368-6.3,3.12,3.12,0,0,1,2.492-.876,1.858,1.858,0,0,1,1.177.778,1.3,1.3,0,0,1,.223,1.007.27.27,0,1,0,.527.116,1.841,1.841,0,0,0-.3-1.424,2.379,2.379,0,0,0-1.534-1.007,3.635,3.635,0,0,0-2.938,1,6.117,6.117,0,0,0-1.505,6.93,7.854,7.854,0,0,0,3.157,3.335,22.911,22.911,0,0,0,4.162,1.829.266.266,0,0,0,.1.017" transform="translate(-84.023 -49.392)" fill="#15192d"/>
        <path id="Path_5023" data-name="Path 5023" d="M344.932,211.264a.27.27,0,0,0,.089-.523,22.582,22.582,0,0,1-4.065-1.784,7.317,7.317,0,0,1-2.947-3.1,5.563,5.563,0,0,1,1.368-6.3,3.12,3.12,0,0,1,2.492-.876,1.858,1.858,0,0,1,1.177.778,1.3,1.3,0,0,1,.223,1.007.27.27,0,1,0,.527.116,1.841,1.841,0,0,0-.3-1.424,2.379,2.379,0,0,0-1.534-1.007,3.635,3.635,0,0,0-2.938,1,6.117,6.117,0,0,0-1.505,6.93,7.854,7.854,0,0,0,3.157,3.335,22.911,22.911,0,0,0,4.162,1.829A.266.266,0,0,0,344.932,211.264Z" transform="translate(-84.023 -49.392)" fill="none" stroke="#000" stroke-width="2"/>
        <path id="Path_5024" data-name="Path 5024" d="M375.006,236.991a.27.27,0,0,0,.25-.176,16.244,16.244,0,0,0-19.819-21.226.27.27,0,1,0,.152.517,15.705,15.705,0,0,1,19.161,20.522.271.271,0,0,0,.159.348.292.292,0,0,0,.1.017" transform="translate(-88.566 -53.592)" fill="#15192d"/>
        <path id="Path_5025" data-name="Path 5025" d="M375.006,236.991a.27.27,0,0,0,.25-.176,16.244,16.244,0,0,0-19.819-21.226.27.27,0,1,0,.152.517,15.705,15.705,0,0,1,19.161,20.522.271.271,0,0,0,.159.348A.292.292,0,0,0,375.006,236.991Z" transform="translate(-88.566 -53.592)" fill="none" stroke="#000" stroke-width="2"/>
        <path id="Path_5026" data-name="Path 5026" d="M329.334,246.28c1.239,6.957,7.417,5.423,7.417,5.423l-.645,23.307s.068,5.807,11.7,7.5,13.885-4.641,14.7-5.923a10.777,10.777,0,0,0,.112-3.951l-.158-1.7-.672-7.194-.025-.256c4.356-2.164,5.729-15.062,5.729-15.062,6.957-.907,5.062-7.026,4.05-8.51s-5.31.061-5.31.061,2.328-14.129-13.1-13.952-16.752,15.126-16.752,15.126c-.843-1.15-8.287-1.826-7.044,5.127" transform="translate(-82.072 -56.351)" fill="#ffac90"/>
        <path id="Path_5027" data-name="Path 5027" d="M329.334,246.28c1.239,6.957,7.417,5.423,7.417,5.423l-.645,23.307s.068,5.807,11.7,7.5,13.885-4.641,14.7-5.923a10.777,10.777,0,0,0,.112-3.951l-.158-1.7-.672-7.194-.025-.256c4.356-2.164,5.729-15.062,5.729-15.062,6.957-.907,5.062-7.026,4.05-8.51s-5.31.061-5.31.061,2.328-14.129-13.1-13.952-16.752,15.126-16.752,15.126C335.534,240,328.09,239.327,329.334,246.28Z" transform="translate(-82.072 -56.351)" fill="none" stroke="#000" stroke-width="2"/>
        <g id="Group_1726" data-name="Group 1726" transform="translate(263.992 206.786)" opacity="0.76">
          <g id="Group_1725" data-name="Group 1725">
            <g id="Group_1724" data-name="Group 1724" clip-path="url(#clip-path-18)">
              <path id="Path_5028" data-name="Path 5028" d="M351.666,275.461c4.98,7.162,10.884,7.33,16.349,7.267l-.622-6.659c-7.762,4.694-15.542-.483-15.727-.609" transform="translate(-351.666 -275.461)" fill="#33150d"/>
            </g>
          </g>
        </g>
        <path id="Path_5029" data-name="Path 5029" d="M338.328,230.69c2.052-5.376,15.2-9.634,17.686-9.538s16.041,4.748,12.806,15.613c0,0-9.736-1.277-12.579-7.222A7.6,7.6,0,0,1,354.4,234.1a8.876,8.876,0,0,1-7.041,3.157c-.5.006-1-.011-1.507-.038a.27.27,0,1,1,.029-.539c2.833.147,5.4.027,8.121-2.945a6.916,6.916,0,0,0,1.555-5.925.268.268,0,0,1,.047-.223c-.005-.029-.014-.056-.018-.084,0,0-4.015,8.011-11.25,6.6,0,0,.813,5.759-5.906,5.834a11.522,11.522,0,0,1-.107-9.249" transform="translate(-84.128 -55.135)" fill="#15192d"/>
        <path id="Path_5030" data-name="Path 5030" d="M373.672,243.416a1.182,1.182,0,0,1,.472.243.462.462,0,0,1,.132.494c-.09.209-.348.267-.57.3-.745.1-5.561.783-5.5-.667.068-1.519,4.722-.607,5.461-.366" transform="translate(-91.799 -60.564)" fill="#15192d"/>
        <path id="Path_5031" data-name="Path 5031" d="M350.261,245.153a1.539,1.539,0,0,0-.553.272.408.408,0,0,0-.124.5c.124.2.439.244.709.26.907.055,6.768.43,6.586-1.013-.191-1.513-5.742-.308-6.617-.021" transform="translate(-87.144 -60.938)" fill="#15192d"/>
        <path id="Path_5032" data-name="Path 5032" d="M364.6,255.838h.022a4.894,4.894,0,0,0,2.732-1.161,1.356,1.356,0,0,0,.577-1.039,1.543,1.543,0,0,0-.3-.774l-1.462-2.3a.27.27,0,1,0-.456.288l1.462,2.3a1.093,1.093,0,0,1,.216.5c0,.185-.123.386-.39.616a4.345,4.345,0,0,1-2.428,1.034.269.269,0,0,0,.027.538" transform="translate(-90.83 -62.436)" fill="#5b1201"/>
        <path id="Path_5033" data-name="Path 5033" d="M350.362,255.759a2.754,2.754,0,1,0,2.722-2.786,2.754,2.754,0,0,0-2.722,2.786" transform="translate(-87.349 -63.069)" fill="#e25e5a"/>
        <path id="Path_5034" data-name="Path 5034" d="M372.018,254.415a2.754,2.754,0,1,0,2.722-2.786,2.754,2.754,0,0,0-2.722,2.786" transform="translate(-92.748 -62.734)" fill="#e25e5a"/>
        <path id="Path_5035" data-name="Path 5035" d="M331.921,251.925a.266.266,0,0,0,.1-.021.27.27,0,0,0,.146-.353,3.7,3.7,0,0,1-.422-1.871,1.558,1.558,0,0,1,.965-1.316,3.336,3.336,0,0,1,2.946.5.27.27,0,0,0,.324-.432,3.869,3.869,0,0,0-3.476-.565,2.093,2.093,0,0,0-1.293,1.736,4.169,4.169,0,0,0,.458,2.157.269.269,0,0,0,.252.167" transform="translate(-82.569 -61.745)" fill="#5b1201"/>
        <path id="Path_5036" data-name="Path 5036" d="M382.926,248.925a.268.268,0,0,0,.158-.053,1.648,1.648,0,0,0-2.01-2.613.27.27,0,0,0,.336.423,1.108,1.108,0,0,1,1.352,1.757.27.27,0,0,0,.164.486" transform="translate(-94.98 -61.311)" fill="#5b1201"/>
        <path id="Path_5037" data-name="Path 5037" d="M366.863,261.552s-5.153.854-7.457-.668c0,0-.878,3.891,2.922,4.355,4.3.526,4.534-3.687,4.534-3.687" transform="translate(-89.582 -65.041)" fill="#fff"/>
        <path id="Path_5038" data-name="Path 5038" d="M329.925,260.792a3.048,3.048,0,1,1,3.083,3.013,3.052,3.052,0,0,1-3.083-3.013m1.079-.013a1.969,1.969,0,1,0,1.946-1.991A1.971,1.971,0,0,0,331,260.778" transform="translate(-82.254 -64.249)" fill="#fff"/>
        <path id="Path_5039" data-name="Path 5039" d="M380.327,256.15a3.048,3.048,0,1,1,3.083,3.013,3.051,3.051,0,0,1-3.083-3.013m1.08-.013a1.969,1.969,0,1,0,1.946-1.992,1.971,1.971,0,0,0-1.946,1.992" transform="translate(-94.82 -63.092)" fill="#fff"/>
        <path id="Path_5040" data-name="Path 5040" d="M355.759,249.691a1.258,1.258,0,1,0-1.33,1.287,1.312,1.312,0,0,0,1.33-1.287" transform="translate(-88.07 -61.893)" fill="#15192d"/>
        <path id="Path_5041" data-name="Path 5041" d="M373.282,248.111a1.258,1.258,0,1,0-1.33,1.287,1.312,1.312,0,0,0,1.33-1.287" transform="translate(-92.438 -61.499)" fill="#15192d"/>
        <path id="Path_5042" data-name="Path 5042" d="M484.828,441.431c-10.053.469-22.226.742-35.339.742-34.542,0-62.543-1.9-62.543-4.25s28-4.25,62.543-4.25c7.622,0,14.927.093,21.683.261,4.724,2.575,9.355,5.115,13.657,7.5" transform="translate(-96.47 -108.12)"/>
        <path id="Path_5043" data-name="Path 5043" d="M484.828,441.431c-10.053.469-22.226.742-35.339.742-34.542,0-62.543-1.9-62.543-4.25s28-4.25,62.543-4.25c7.622,0,14.927.093,21.683.261C475.9,436.509,480.527,439.049,484.828,441.431Z" transform="translate(-96.47 -108.12)" fill="none" stroke="#000" stroke-width="1"/>
        <path id="Path_5044" data-name="Path 5044" d="M409.92,436.81l-19.724-.033a1.236,1.236,0,0,1-.673-2.313l10.112-5.38h45.414l-3.9,7.995Z" transform="translate(-96.954 -106.975)" fill="#ddd9d3"/>
        <path id="Path_5045" data-name="Path 5045" d="M409.92,436.81l-19.724-.033a1.236,1.236,0,0,1-.673-2.313l10.112-5.38h45.414l-3.9,7.995Z" transform="translate(-96.954 -106.975)" fill="none" stroke="#000" stroke-width="2"/>
        <path id="Path_5046" data-name="Path 5046" d="M420.941,420.938l72.749.626a2.183,2.183,0,0,0,1.953-1.171l26.818-51.277a2.183,2.183,0,0,0-1.916-3.195l-72.749-.626a2.184,2.184,0,0,0-1.953,1.171l-26.818,51.277a2.183,2.183,0,0,0,1.916,3.195" transform="translate(-104.405 -91.072)" fill="#ddd9d3"/>
        <path id="Path_5047" data-name="Path 5047" d="M420.941,420.938l72.749.626a2.183,2.183,0,0,0,1.953-1.171l26.818-51.277a2.183,2.183,0,0,0-1.916-3.195l-72.749-.626a2.184,2.184,0,0,0-1.953,1.171l-26.818,51.277A2.183,2.183,0,0,0,420.941,420.938Z" transform="translate(-104.405 -91.072)" fill="none" stroke="#000" stroke-width="2"/>
        <path id="Path_5048" data-name="Path 5048" d="M484.148,400.516c-1.239,2.87-.636,5.891,1.348,6.748s4.6-.775,5.837-3.645.636-5.891-1.348-6.748-4.6.775-5.837,3.645" transform="translate(-120.543 -98.887)" fill="#fff"/>
        <path id="Path_5049" data-name="Path 5049" d="M128.895,387.573c-3.7,4.691-11.294,5.986-16.868,2.682-5.283-3.13-8.475-9.839-7.944-16.7.412-5.327,2.932-10.841,7.139-15.686-3.914-4.88-7.844-11.877-6.51-19.294a12.842,12.842,0,0,1,2.707-5.377,46.135,46.135,0,0,1-12.626-6.056A64.619,64.619,0,0,1,68.71,278.783l1.256-.064a63.353,63.353,0,0,0,25.571,47.414,45.636,45.636,0,0,0,12.776,6.019c3.169-3.488,7.659-6.2,10.555-6.116a3.185,3.185,0,0,1,3.241,3.148,4.314,4.314,0,0,1-2.017,4.64c-2.872,1.678-8,.7-11.354-.231a11.975,11.975,0,0,0-2.788,5.21c-1.237,6.879,2.423,13.465,6.125,18.125.092-.1.183-.2.276-.293,2.985-3.135,7.718-6.864,13.305-6.825a10.886,10.886,0,0,1,7.936,3.734,7.822,7.822,0,0,1,1.992,6.237,7.929,7.929,0,0,1-3.321,5.239,11.089,11.089,0,0,1-8.237,1.931c-4.057-.7-7.833-3.228-11.883-7.966l-.108-.127c-3.949,4.6-6.311,9.8-6.7,14.8-.495,6.39,2.452,12.625,7.331,15.517,5.348,3.169,12.722,1.7,15.785-3.151l1.064.672a10.407,10.407,0,0,1-.622.878m-16.016-29.663c.074.087.146.173.22.259,3.849,4.5,7.388,6.9,11.14,7.542A9.938,9.938,0,0,0,131.522,364a6.665,6.665,0,0,0,2.817-4.4,6.585,6.585,0,0,0-1.7-5.238,9.591,9.591,0,0,0-6.991-3.3c-5.138-.036-9.571,3.479-12.386,6.433q-.194.2-.383.408m-3.191-25.37c4.057,1.068,7.782,1.36,9.77.2a3.113,3.113,0,0,0,1.4-3.405c-.162-1.356-.807-2-2.029-2.04-1.89-.055-4.871,1.429-7.594,3.781-.552.476-1.07.967-1.55,1.465" transform="translate(-17.13 -69.488)" fill="#a62973"/>
        <path id="Path_5057" data-name="Path 5057" d="M366.48,188.98s3.277-1.819,5.492-2.88a24.814,24.814,0,0,0,3.24-2.009c1.393-1,4.615-1.785,5.312-.609s-.522,4.31-3.266,5.268-7.184,6.792-7.184,6.792" fill="none" stroke="#000" stroke-width="2"/>
        <path id="Path_5050" data-name="Path 5050" d="M672.4,431.685,671.2,430.9c15.129-13.937,21.564-32.924,17.215-50.792a28.442,28.442,0,0,0-6.731-12.466,20.325,20.325,0,0,1-10.908-2.239,2.125,2.125,0,0,1-.878-3.268,3.577,3.577,0,0,1,4-1.066,21.652,21.652,0,0,1,8.484,5.269,18.108,18.108,0,0,0,7.352-2.178c7.039-4.087,9.33-11.214,9.93-16.994-.167.009-.336.018-.5.026-6.725.318-15.736-.505-20.483-6.217a7.3,7.3,0,0,1-.37-9.448,10.115,10.115,0,0,1,7.753-3.582,15.648,15.648,0,0,1,11.237,4.142c3.125,3.188,4.419,7.5,4.072,13.566,0,.054-.007.109-.01.163,7.571-.662,14.2-2.8,18.846-6.114,5.936-4.231,8.583-10.634,6.586-15.934-2.19-5.809-10.225-9.651-17.192-8.225l-.4-1.185c7.761-1.589,16.691,2.646,19.109,9.063,2.162,5.737-.665,12.642-7.035,17.182-4.949,3.527-12,5.791-20.013,6.454-.6,6.078-2.992,13.678-10.581,18.084a19.549,19.549,0,0,1-7.215,2.336,29.7,29.7,0,0,1,6.508,12.4c4.437,18.226-2.128,37.594-17.56,51.81m.2-69.6a1.665,1.665,0,0,0-1.335.65,1.068,1.068,0,0,0,.442,1.675,17.913,17.913,0,0,0,8.732,2.016,19.843,19.843,0,0,0-7.169-4.231,2.085,2.085,0,0,0-.67-.11m13.975-32.931q-.224,0-.446.011a8.465,8.465,0,0,0-6.484,2.994,6.3,6.3,0,0,0,.35,8.147c4.335,5.216,12.757,5.956,19.063,5.66.234-.011.468-.023.7-.038.007-.11.014-.221.021-.33.33-5.765-.863-9.823-3.753-12.771a13.753,13.753,0,0,0-9.452-3.672" transform="translate(-166.9 -78.289)" fill="#a62973"/>
        <path id="Path_5051" data-name="Path 5051" d="M158.464,205.945a12.864,12.864,0,1,1,12.863-12.864,12.878,12.878,0,0,1-12.863,12.864m0-24.554a11.69,11.69,0,1,0,11.69,11.69,11.7,11.7,0,0,0-11.69-11.69" transform="translate(-36.3 -44.93)" fill="#a62973"/>
        <path id="Path_5052" data-name="Path 5052" d="M360.861,25.728a12.864,12.864,0,1,1,12.865-12.864,12.878,12.878,0,0,1-12.865,12.864m0-24.554a11.69,11.69,0,1,0,11.69,11.69,11.7,11.7,0,0,0-11.69-11.69" transform="translate(-86.76)" fill="#a62973"/>
        <path id="Path_5053" data-name="Path 5053" d="M755.409,483.487H728.973V457.051h26.435Zm-25.444-.991h24.453V458.043H729.965Z" transform="translate(-181.741 -113.948)" fill="#a62973"/>
        <path id="Path_5054" data-name="Path 5054" d="M628.2,62.89H601.766V36.454H628.2ZM602.757,61.9H627.21V37.445H602.757Z" transform="translate(-150.027 -9.088)" fill="#a62973"/>
        <path id="Path_5055" data-name="Path 5055" d="M338.792,241.884s6.426.51,5.885-5.641c0,0,6.96,1.462,11.269-6.517,0,0,2.084,9.278-10.007,9.348,0,0,9.7,1.259,10.64-7.394,0,0,1.965,5.523,12.579,7.222" transform="translate(-84.465 -57.273)" fill="none" stroke="#000" stroke-linecap="round" stroke-linejoin="round" stroke-width="2"/>
      </g>
    </g>
  </g>
</svg>
