<svg width="19" height="19" viewBox="0 0 19 19" fill="none" xmlns="http://www.w3.org/2000/svg">
<path d="M6.56115 16.8867H12.5611C15.5761 16.8867 16.1161 15.6792 16.2736 14.2092L16.8361 8.20922C17.0386 6.37922 16.5136 4.88672 13.3111 4.88672H5.81115C2.60865 4.88672 2.08365 6.37922 2.28615 8.20922L2.84865 14.2092C3.00615 15.6792 3.54615 16.8867 6.56115 16.8867Z" stroke="#434343" stroke-width="1.2" stroke-miterlimit="10" stroke-linecap="round" stroke-linejoin="round"/>
<path d="M6.56055 4.88672V4.28672C6.56055 2.95922 6.56055 1.88672 8.96055 1.88672H10.1605C12.5605 1.88672 12.5605 2.95922 12.5605 4.28672V4.88672" stroke="#434343" stroke-width="1.2" stroke-miterlimit="10" stroke-linecap="round" stroke-linejoin="round"/>
<path d="M11.0605 10.1367V10.8867C11.0605 10.8942 11.0605 10.8942 11.0605 10.9017C11.0605 11.7192 11.053 12.3867 9.56055 12.3867C8.07555 12.3867 8.06055 11.7267 8.06055 10.9092V10.1367C8.06055 9.38672 8.06055 9.38672 8.81055 9.38672H10.3105C11.0605 9.38672 11.0605 9.38672 11.0605 10.1367Z" stroke="#434343" stroke-width="1.2" stroke-miterlimit="10" stroke-linecap="round" stroke-linejoin="round"/>
<path d="M16.798 8.63672C15.0655 9.89672 13.0855 10.6467 11.0605 10.9017" stroke="#434343" stroke-width="1.2" stroke-miterlimit="10" stroke-linecap="round" stroke-linejoin="round"/>
<path d="M2.52539 8.83984C4.21289 9.99484 6.11789 10.6923 8.06039 10.9098" stroke="#434343" stroke-width="1.2" stroke-miterlimit="10" stroke-linecap="round" stroke-linejoin="round"/>
</svg>
