<svg width="19" height="19" viewBox="0 0 19 19" fill="none" xmlns="http://www.w3.org/2000/svg">
<path d="M3.57555 5.28609C2.62305 6.54609 2.06055 8.11359 2.06055 9.80859C2.06055 13.9486 5.42055 17.3086 9.56055 17.3086C13.7005 17.3086 17.0605 13.9486 17.0605 9.80859C17.0605 5.66859 13.7005 2.30859 9.56055 2.30859" stroke="#434343" stroke-width="1.3" stroke-linecap="round" stroke-linejoin="round"/>
<path d="M4.31055 9.80859C4.31055 12.7111 6.65805 15.0586 9.56055 15.0586C12.463 15.0586 14.8105 12.7111 14.8105 9.80859C14.8105 6.90609 12.463 4.55859 9.56055 4.55859" stroke="#434343" stroke-width="1.3" stroke-linecap="round" stroke-linejoin="round"/>
<path d="M9.56055 12.8086C11.218 12.8086 12.5605 11.4661 12.5605 9.80859C12.5605 8.15109 11.218 6.80859 9.56055 6.80859" stroke="#434343" stroke-width="1.3" stroke-linecap="round" stroke-linejoin="round"/>
</svg>
