<svg width="18" height="17" viewBox="0 0 18 17" fill="none" xmlns="http://www.w3.org/2000/svg">
<path d="M7.67815 2.67839L3.41398 5.29839C2.0469 6.13839 2.0469 8.01839 3.41398 8.85839L7.67815 11.4784C8.44315 11.9517 9.70398 11.9517 10.469 11.4784L14.7119 8.85839C16.0719 8.01839 16.0719 6.14506 14.7119 5.30506L10.469 2.68506C9.70398 2.20506 8.44315 2.20506 7.67815 2.67839Z" stroke="#434343" stroke-width="1.3" stroke-linecap="round" stroke-linejoin="round"/>
<path d="M4.5481 9.70703L4.54102 12.8337C4.54102 13.6804 5.23518 14.587 6.08518 14.8537L8.34477 15.5604C8.73435 15.6804 9.37893 15.6804 9.7756 15.5604L12.0352 14.8537C12.8852 14.587 13.5793 13.6804 13.5793 12.8337V9.74036" stroke="#434343" stroke-width="1.3" stroke-linecap="round" stroke-linejoin="round"/>
<path d="M15.7207 10.9883V6.98828" stroke="#434343" stroke-width="1.3" stroke-linecap="round" stroke-linejoin="round"/>
</svg>
