<svg xmlns="http://www.w3.org/2000/svg" width="36" height="36" viewBox="0 0 36 36">
  <path id="facebook" d="M25.383,7.758a17.838,17.838,0,0,1,9.086,2.472,18.181,18.181,0,0,1,4.547,27.463,18.34,18.34,0,0,1-10.157,6.065V30.819h3.53l.8-5.085H27.842V22.4a2.894,2.894,0,0,1,.616-1.912,2.815,2.815,0,0,1,2.258-.859h3.228V15.178q-.069-.022-1.318-.177a26.2,26.2,0,0,0-2.845-.177,7.106,7.106,0,0,0-5.105,1.821,7.037,7.037,0,0,0-1.918,5.224v3.864H18.69v5.085h4.068V43.758A17.9,17.9,0,0,1,11.75,37.692,18.161,18.161,0,0,1,16.3,10.23a17.844,17.844,0,0,1,9.086-2.472Z" transform="translate(-7.383 -7.758)" fill="#fff" fill-rule="evenodd"/>
</svg>
