<svg xmlns="http://www.w3.org/2000/svg" xmlns:xlink="http://www.w3.org/1999/xlink" width="488.645" height="395.426" viewBox="0 0 488.645 395.426">
  <defs>
    <clipPath id="clip-path">
      <rect id="Rectangle_702" data-name="Rectangle 702" width="16.138" height="16.139" transform="translate(105.266 155.392)" fill="none"/>
    </clipPath>
  </defs>
  <g id="blog-banner" transform="translate(0)">
    <path id="Path_2373" data-name="Path 2373" d="M434.9,237c-.24,2.84-.56,5.67-.94,8.47a162.9,162.9,0,0,1-15.32,50.08c-.44.9-.89,1.79-1.36,2.67l-.39.75c-2.25,4.32-4.71,8.54-7.35,12.62a159.531,159.531,0,0,1-52.74,50.78c-.25.14-.49.29-.74.43a184.169,184.169,0,0,1-17.66,9.01,234.468,234.468,0,0,1-25.66,9.62c-1.13.35-2.27.7-3.4,1.03-1.48.45-2.96.87-4.44,1.29-7.94,2.23-15.94,4.11-23.85,5.69l-.75.15q-3.36.66-6.75,1.25c-1.54.27-3.08.53-4.63.76-1.33.22-2.67.42-4.01.61q-3.675.54-7.38.98c-.1.01-.21.03-.31.03a.2.2,0,0,1-.08.01,317.379,317.379,0,0,1-58.47,1.49q-10.8-.72-21.52-2.2a224.662,224.662,0,0,1-30.88-6.49c-.54-.16-1.08-.31-1.62-.48a204.529,204.529,0,0,1-27.36-10.17A180.148,180.148,0,0,1,65.6,340.2a230.017,230.017,0,0,1-24.81-28.61A209.033,209.033,0,0,1,23.4,283.4a206.606,206.606,0,0,1-14.48-36.29q-1.635-5.52-2.9-10.95v-.01c-13.78-58.13-.08-108.31,3.38-121.47,5.93-22.52,16.34-43.92,31.2-61.92.48-.58.96-1.16,1.46-1.74a145.24,145.24,0,0,1,34.87-29.76c.01-.01.02-.01.03-.02,1.78-1.08,3.58-2.13,5.41-3.13a140.795,140.795,0,0,1,13.84-6.65h.01A149.659,149.659,0,0,1,165.863.5c29.34,2.42,56.13,9.17,79.74,27.34,9.37,7.22,17.47,16.07,27.31,22.63,9.81,6.54,20.79,11.16,31.84,15.13,12.28,4.41,24.69,9.05,36.68,14.52h.01c19.56,8.9,37.98,19.98,52.89,35.76,25.14,26.61,38.72,60.58,40.87,97.24a168.094,168.094,0,0,1-.3,23.88" fill="#eabdf5"/>
    <rect id="Rectangle_701" data-name="Rectangle 701" width="488.645" height="395.426" fill="none"/>
    <path id="Path_2374" data-name="Path 2374" d="M488.645,281.764c-2.942,5.374-6.159,10.624-9.611,15.7a204.405,204.405,0,0,1-68.964,63.172c-.327.175-.641,3.361-.968,3.536H117.293V281.764Z" fill="#f2d578"/>
    <path id="Path_2375" data-name="Path 2375" d="M409.1,361.172a245.872,245.872,0,0,1-23.093,11.209H117.293V361.172Z" fill="#e6b964"/>
    <line id="Line_71" data-name="Line 71" x1="30.09" transform="translate(392.455 281.765)" fill="none" stroke="#43434d" stroke-linecap="round" stroke-width="1.286"/>
    <line id="Line_72" data-name="Line 72" x1="101.757" transform="translate(250.12 361.172)" fill="none" stroke="#43434d" stroke-linecap="round" stroke-width="1.286"/>
    <line id="Line_73" data-name="Line 73" x1="101.757" transform="translate(225.91 371.775)" fill="none" stroke="#43434d" stroke-linecap="round" stroke-width="1.286"/>
    <path id="Path_2376" data-name="Path 2376" d="M96.224,11.461h-.011a140.795,140.795,0,0,0-13.84,6.65c-1.83,1-3.63,2.05-5.409,3.13-.011.01-.021.01-.031.02a145.235,145.235,0,0,0-34.87,29.76c-.5.58-.98,1.159-1.459,1.74-14.861,18-25.271,39.4-31.2,61.92A263.191,263.191,0,0,0,0,183.112v.691a228.335,228.335,0,0,0,6.023,52.348v.01q1.275,5.43,2.9,10.949A206.5,206.5,0,0,0,23.4,283.4a209.1,209.1,0,0,0,17.39,28.19A230.089,230.089,0,0,0,65.6,340.2a180.168,180.168,0,0,0,51.69,35.18,204.714,204.714,0,0,0,27.36,10.17c.54.169,1.08.32,1.62.48a224.662,224.662,0,0,0,30.88,6.49q10.71,1.485,21.52,2.2,10.485.7,21.011.706h.549a314.437,314.437,0,0,0,36.91-2.2.2.2,0,0,0,.08-.01,2.934,2.934,0,0,0,.31-.031q3.705-.434,7.38-.979c1.34-.191,2.68-.39,4.01-.61,1.55-.23,3.09-.491,4.63-.76q3.39-.585,6.75-1.251l.75-.149c7.91-1.58,15.91-3.46,23.85-5.69,1.48-.42,2.96-.84,4.441-1.29,1.129-.33,2.269-.68,3.4-1.03a234.668,234.668,0,0,0,25.66-9.62,184.4,184.4,0,0,0,17.66-9.01c.25-.14.49-.29.74-.43a159.531,159.531,0,0,0,52.74-50.78c2.64-4.081,5.1-8.3,7.351-12.62l.389-.75c.47-.881.92-1.77,1.36-2.67a162.9,162.9,0,0,0,15.32-50.08c.38-2.8.7-5.63.94-8.47a168.094,168.094,0,0,0,.3-23.88c-2.15-36.66-15.73-70.63-40.87-97.24-14.91-15.78-33.329-26.86-52.89-35.76h-.01c-11.99-5.47-24.4-10.11-36.679-14.52-11.051-3.971-22.031-8.59-31.841-15.131-9.84-6.56-17.94-15.409-27.31-22.629C221.993,9.671,195.2,2.921,165.863.5Q159.788,0,153.687,0A149.593,149.593,0,0,0,96.224,11.461" fill="none"/>
    <path id="Path_2377" data-name="Path 2377" d="M140.5,42.264a17.813,17.813,0,0,0-25.153-18.385,22.247,22.247,0,0,0-42.208,9.838c0,.055.007.107.008.161a17.84,17.84,0,0,0,2.28,35.535l63.74.347a13.78,13.78,0,0,0,1.333-27.5" fill="#fff"/>
    <circle id="Ellipse_14" data-name="Ellipse 14" cx="5.801" cy="5.801" r="5.801" transform="translate(321.425 113)" fill="none" stroke="#0f1109" stroke-linecap="round" stroke-width="1.034"/>
    <circle id="Ellipse_15" data-name="Ellipse 15" cx="5.801" cy="5.801" r="5.801" transform="translate(2.848 235.521)" fill="none" stroke="#fff" stroke-linecap="round" stroke-width="1.034"/>
    <circle id="Ellipse_16" data-name="Ellipse 16" cx="5.801" cy="5.801" r="5.801" transform="translate(164.25 16.628)" fill="none" stroke="#0f1109" stroke-linecap="round" stroke-width="1.034"/>
    <path id="Path_2378" data-name="Path 2378" d="M298.766,4.984c-.737,2.67-1.335,3.268-4.005,4.005,2.67.737,3.268,1.335,4.005,4.005.737-2.67,1.335-3.268,4.005-4.005-2.67-.737-3.268-1.335-4.005-4.005" fill="#efcf56"/>
    <path id="Path_2379" data-name="Path 2379" d="M297.786,27.2c-1.441,5.222-2.61,6.391-7.833,7.833,5.223,1.442,6.392,2.611,7.833,7.833,1.442-5.222,2.611-6.391,7.834-7.833-5.223-1.442-6.392-2.611-7.834-7.833" fill="#efcf56"/>
    <path id="Path_2380" data-name="Path 2380" d="M272.192,15c-1.122,4.064-2.032,4.974-6.1,6.1,4.064,1.123,4.974,2.033,6.1,6.1,1.122-4.064,2.032-4.974,6.1-6.1-4.064-1.122-4.974-2.032-6.1-6.1" fill="#efcf56"/>
    <path id="Path_2381" data-name="Path 2381" d="M8.649,63.663c-1.122,4.064-2.032,4.974-6.1,6.1,4.064,1.123,4.974,2.033,6.1,6.1,1.122-4.064,2.032-4.974,6.1-6.1-4.064-1.122-4.974-2.032-6.1-6.1" fill="#efcf56"/>
    <path id="Path_2382" data-name="Path 2382" d="M184.579,213.143c-.818,2.962-1.481,3.625-4.443,4.443,2.962.818,3.625,1.481,4.443,4.443.818-2.962,1.481-3.625,4.443-4.443-2.962-.818-3.625-1.481-4.443-4.443" fill="#fff"/>
    <path id="Path_2383" data-name="Path 2383" d="M210.773,381.559c-.818,2.962-1.481,3.625-4.443,4.443,2.962.818,3.625,1.481,4.443,4.443.817-2.962,1.481-3.625,4.442-4.443-2.961-.818-3.625-1.481-4.442-4.443" fill="#fff"/>
    <path id="Path_2384" data-name="Path 2384" d="M387.629,149.393c-.818,2.962-1.481,3.625-4.443,4.443,2.962.818,3.625,1.481,4.443,4.442.818-2.961,1.481-3.624,4.443-4.442-2.962-.818-3.625-1.481-4.443-4.443" fill="#fff"/>
    <path id="Path_2385" data-name="Path 2385" d="M368.5,131.128c-1.223,4.427-2.213,5.418-6.64,6.64,4.427,1.223,5.417,2.214,6.64,6.64,1.222-4.426,2.213-5.417,6.64-6.64-4.427-1.222-5.418-2.213-6.64-6.64" fill="#fff"/>
    <path id="Path_2386" data-name="Path 2386" d="M28.519,202.366c-1.223,4.427-2.214,5.418-6.64,6.64,4.426,1.223,5.417,2.214,6.64,6.641,1.222-4.427,2.213-5.418,6.64-6.641-4.427-1.222-5.418-2.213-6.64-6.64" fill="#fff"/>
    <path id="Path_2387" data-name="Path 2387" d="M48.106,110.75c-.818,2.962-1.481,3.625-4.443,4.443,2.962.818,3.625,1.481,4.443,4.443.818-2.962,1.481-3.625,4.443-4.443-2.962-.818-3.625-1.481-4.443-4.443" fill="#fff"/>
    <path id="Path_2388" data-name="Path 2388" d="M16.033,35.308c2.284,0,2.284,3.8,4.567,3.8s2.284-3.8,4.568-3.8,2.284,3.8,4.568,3.8,2.284-3.8,4.568-3.8,2.285,3.8,4.57,3.8,2.284-3.8,4.568-3.8,2.282,3.8,4.565,3.8,2.284-3.8,4.568-3.8,2.283,3.8,4.566,3.8,2.284-3.8,4.568-3.8,2.285,3.8,4.57,3.8,2.285-3.8,4.57-3.8,2.284,3.8,4.569,3.8,2.285-3.8,4.569-3.8,2.285,3.8,4.569,3.8,2.287-3.8,4.574-3.8,2.288,3.8,4.576,3.8,2.289-3.8,4.577-3.8" fill="none" stroke="#efcf56" stroke-linecap="round" stroke-width="1.286"/>
    <path id="Path_2389" data-name="Path 2389" d="M207.092,165.063c2.389,0,2.389,3.795,4.777,3.795s2.39-3.795,4.78-3.795,2.39,3.795,4.779,3.795,2.39-3.795,4.78-3.795,2.39,3.795,4.78,3.795,2.39-3.795,4.779-3.795,2.391,3.795,4.782,3.795,2.393-3.795,4.786-3.795,2.392,3.795,4.785,3.795" fill="none" stroke="#43434d" stroke-linecap="round" stroke-width="1.286"/>
    <path id="Path_2390" data-name="Path 2390" d="M419.346,233.623c2.39,0,2.39,3.795,4.778,3.795s2.389-3.795,4.78-3.795,2.389,3.795,4.778,3.795,2.391-3.795,4.78-3.795,2.391,3.795,4.78,3.795" fill="none" stroke="#43434d" stroke-linecap="round" stroke-width="1.286"/>
    <path id="Path_2391" data-name="Path 2391" d="M410.6,241.743c2.389,0,2.389,3.795,4.777,3.795s2.39-3.795,4.78-3.795,2.389,3.795,4.779,3.795,2.39-3.795,4.78-3.795,2.39,3.795,4.78,3.795" fill="none" stroke="#43434d" stroke-linecap="round" stroke-width="1.286"/>
    <path id="Path_2392" data-name="Path 2392" d="M229.566,382.207c2.389,0,2.389,3.8,4.777,3.8s2.39-3.8,4.78-3.8,2.389,3.8,4.779,3.8,2.39-3.8,4.78-3.8,2.39,3.8,4.78,3.8" fill="none" stroke="#43434d" stroke-linecap="round" stroke-width="1.286"/>
    <path id="Path_2393" data-name="Path 2393" d="M188.412,172.742c2.389,0,2.389,3.795,4.777,3.795s2.39-3.795,4.78-3.795,2.39,3.795,4.779,3.795,2.39-3.795,4.78-3.795,2.39,3.795,4.78,3.795,2.39-3.795,4.779-3.795,2.391,3.795,4.782,3.795,2.393-3.795,4.786-3.795,2.392,3.795,4.785,3.795" fill="none" stroke="#43434d" stroke-linecap="round" stroke-width="1.286"/>
    <path id="Path_2394" data-name="Path 2394" d="M315.895,78.895c2.284,0,2.284,3.794,4.567,3.794s2.284-3.794,4.569-3.794,2.283,3.794,4.567,3.794,2.284-3.794,4.569-3.794,2.284,3.794,4.569,3.794,2.284-3.794,4.568-3.794,2.282,3.794,4.565,3.794,2.284-3.794,4.568-3.794,2.283,3.794,4.566,3.794,2.284-3.794,4.568-3.794,2.285,3.794,4.57,3.794,2.285-3.794,4.57-3.794,2.284,3.794,4.569,3.794,2.285-3.794,4.569-3.794,2.285,3.794,4.57,3.794,2.286-3.794,4.573-3.794,2.288,3.794,4.576,3.794,2.289-3.794,4.577-3.794" fill="none" stroke="#43434d" stroke-linecap="round" stroke-width="1.286"/>
    <path id="Path_2395" data-name="Path 2395" d="M31.085,49.824c2.284,0,2.284,3.794,4.567,3.794s2.284-3.794,4.569-3.794,2.283,3.794,4.567,3.794,2.284-3.794,4.568-3.794,2.285,3.794,4.57,3.794,2.284-3.794,4.568-3.794,2.283,3.794,4.565,3.794,2.284-3.794,4.568-3.794,2.283,3.794,4.566,3.794,2.284-3.794,4.568-3.794,2.285,3.794,4.57,3.794,2.285-3.794,4.57-3.794,2.285,3.794,4.57,3.794,2.284-3.794,4.568-3.794,2.285,3.794,4.57,3.794,2.286-3.794,4.573-3.794,2.288,3.794,4.576,3.794,2.289-3.794,4.577-3.794" fill="none" stroke="#efcf56" stroke-linecap="round" stroke-width="1.286"/>
    <path id="Path_2396" data-name="Path 2396" d="M252.8,82.872a37.577,37.577,0,1,0-37.577,37.578A37.578,37.578,0,0,0,252.8,82.872" fill="#fff"/>
    <path id="Path_2397" data-name="Path 2397" d="M186.544,125.76a12.905,12.905,0,1,0-12.9,12.9,12.905,12.905,0,0,0,12.9-12.9" fill="#fff"/>
    <path id="Path_2398" data-name="Path 2398" d="M231.253,84.207a15.753,15.753,0,1,0-28.176,5.174,10.221,10.221,0,0,1,1.659,8.358l-.424,1.685,12.922,3.25.406-1.614a10.388,10.388,0,0,1,5.476-6.67,15.681,15.681,0,0,0,8.137-10.183" fill="#efcf56"/>
    <path id="Path_2399" data-name="Path 2399" d="M207.52,85.223a4.7,4.7,0,0,0,3.146.644,7.189,7.189,0,0,0,3.019-1.2,7.63,7.63,0,0,0,2.532-2.69,5.3,5.3,0,0,0,.561-3.61,2.5,2.5,0,0,0-.609-1.238,1.34,1.34,0,0,0-1.272-.4,1.8,1.8,0,0,0-.9.742,5.885,5.885,0,0,0-.824,5.06,6.347,6.347,0,0,0,3.4,3.869,6.9,6.9,0,0,0,5.174.186" fill="none" stroke="#fff" stroke-width="1.264"/>
    <path id="Path_2400" data-name="Path 2400" d="M210.42,85.162l-1.32,17.255,2.751.692,6.786-16.471" fill="none" stroke="#43434d" stroke-linecap="round" stroke-width="1.177"/>
    <path id="Path_2401" data-name="Path 2401" d="M216.357,104.243l-12.015-3.022a1.735,1.735,0,1,1,.846-3.365l12.015,3.022a1.735,1.735,0,1,1-.846,3.365" fill="#672476"/>
    <path id="Path_2402" data-name="Path 2402" d="M215.51,107.607l-12.015-3.022a1.735,1.735,0,0,1,.846-3.365l12.015,3.022a1.735,1.735,0,1,1-.846,3.365" fill="#672476"/>
    <path id="Path_2403" data-name="Path 2403" d="M214.664,110.972l-12.015-3.022a1.735,1.735,0,0,1,.846-3.365l12.015,3.022a1.735,1.735,0,0,1-.846,3.365" fill="#672476"/>
    <line id="Line_74" data-name="Line 74" y1="3.084" x2="9.624" transform="translate(235.336 71.512)" fill="none" stroke="#efcf56" stroke-linecap="round" stroke-width="1.943"/>
    <line id="Line_75" data-name="Line 75" x2="9.901" y2="1.114" transform="translate(236.563 85.836)" fill="none" stroke="#efcf56" stroke-linecap="round" stroke-width="1.943"/>
    <line id="Line_76" data-name="Line 76" x2="6.594" y2="8.011" transform="translate(232.573 94.546)" fill="none" stroke="#efcf56" stroke-linecap="round" stroke-width="1.943"/>
    <line id="Line_77" data-name="Line 77" x1="8.452" y1="5.54" transform="translate(190.148 61.468)" fill="none" stroke="#efcf56" stroke-linecap="round" stroke-width="1.943"/>
    <line id="Line_78" data-name="Line 78" x1="9.839" y1="1.568" transform="translate(184.579 75.945)" fill="none" stroke="#efcf56" stroke-linecap="round" stroke-width="1.943"/>
    <line id="Line_79" data-name="Line 79" x1="8.492" y2="5.962" transform="translate(187.448 86.972)" fill="none" stroke="#efcf56" stroke-linecap="round" stroke-width="1.943"/>
    <path id="Path_2404" data-name="Path 2404" d="M242.32,309.716H385.037a4.1,4.1,0,0,0,4.056-3.5l15.591-105.944a4.1,4.1,0,0,0-4.056-4.7H257.911a4.1,4.1,0,0,0-4.056,3.5L238.264,305.02a4.1,4.1,0,0,0,4.056,4.7" fill="#424a5b"/>
    <path id="Path_2405" data-name="Path 2405" d="M186.939,345.9h151l49.844-37.339h-151Z" fill="#424a5b"/>
    <path id="Path_2406" data-name="Path 2406" d="M205.2,338.659,238.649,314.6h129.63l-33.447,24.061Z" fill="#63697d"/>
    <path id="Path_2407" data-name="Path 2407" d="M381.67,301.717l14.443-98.146H261.277l-14.442,98.146Z" fill="#d5d7fb"/>
    <path id="Path_2408" data-name="Path 2408" d="M276.575,164.882a9.289,9.289,0,0,1,9.19-7.935h99.879a6.811,6.811,0,0,1,6.738,7.8l-.02.131-8.038,54.606-.112-.224-12.142,82.45H256.435Z" fill="#fff"/>
    <line id="Line_80" data-name="Line 80" x1="46.255" transform="translate(308.945 171.831)" fill="none" stroke="#43434d" stroke-linecap="round" stroke-width="1.25"/>
    <line id="Line_81" data-name="Line 81" x1="40.831" transform="translate(283.304 189.523)" fill="none" stroke="#43434d" stroke-linecap="round" stroke-width="1.25"/>
    <line id="Line_82" data-name="Line 82" x1="37.747" transform="translate(330.476 189.523)" fill="none" stroke="#43434d" stroke-linecap="round" stroke-width="1.25"/>
    <line id="Line_83" data-name="Line 83" x1="20.215" transform="translate(282.217 198.37)" fill="none" stroke="#43434d" stroke-linecap="round" stroke-width="1.25"/>
    <line id="Line_84" data-name="Line 84" x1="63.365" transform="translate(313.544 198.37)" fill="none" stroke="#43434d" stroke-linecap="round" stroke-width="1.25"/>
    <line id="Line_85" data-name="Line 85" x1="67.92" transform="translate(281.132 207.216)" fill="none" stroke="#43434d" stroke-linecap="round" stroke-width="1.25"/>
    <line id="Line_86" data-name="Line 86" x1="18.387" transform="translate(357.437 207.216)" fill="none" stroke="#43434d" stroke-linecap="round" stroke-width="1.25"/>
    <line id="Line_87" data-name="Line 87" x1="74.384" transform="translate(300.354 216.062)" fill="none" stroke="#43434d" stroke-linecap="round" stroke-width="1.25"/>
    <line id="Line_88" data-name="Line 88" x1="43.003" transform="translate(278.96 224.908)" fill="none" stroke="#43434d" stroke-linecap="round" stroke-width="1.25"/>
    <line id="Line_89" data-name="Line 89" x1="33.539" transform="translate(328.141 224.908)" fill="none" stroke="#43434d" stroke-linecap="round" stroke-width="1.25"/>
    <line id="Line_90" data-name="Line 90" x1="9.753" transform="translate(277.874 233.754)" fill="none" stroke="#43434d" stroke-linecap="round" stroke-width="1.25"/>
    <line id="Line_91" data-name="Line 91" x1="80.241" transform="translate(292.325 233.754)" fill="none" stroke="#43434d" stroke-linecap="round" stroke-width="1.25"/>
    <line id="Line_92" data-name="Line 92" x1="23.673" transform="translate(276.788 242.6)" fill="none" stroke="#43434d" stroke-linecap="round" stroke-width="1.25"/>
    <line id="Line_93" data-name="Line 93" x1="33.099" transform="translate(306.282 242.6)" fill="none" stroke="#43434d" stroke-linecap="round" stroke-width="1.25"/>
    <line id="Line_94" data-name="Line 94" x1="26.254" transform="translate(345.227 242.6)" fill="none" stroke="#43434d" stroke-linecap="round" stroke-width="1.25"/>
    <line id="Line_95" data-name="Line 95" x1="73.722" transform="translate(296.672 251.446)" fill="none" stroke="#43434d" stroke-linecap="round" stroke-width="1.25"/>
    <line id="Line_96" data-name="Line 96" x1="37.507" transform="translate(274.616 260.292)" fill="none" stroke="#43434d" stroke-linecap="round" stroke-width="1.25"/>
    <line id="Line_97" data-name="Line 97" x1="42.974" transform="translate(318.705 260.292)" fill="none" stroke="#43434d" stroke-linecap="round" stroke-width="1.25"/>
    <line id="Line_98" data-name="Line 98" x1="17.111" transform="translate(273.531 269.138)" fill="none" stroke="#43434d" stroke-linecap="round" stroke-width="1.25"/>
    <line id="Line_99" data-name="Line 99" x1="45.593" transform="translate(294.6 269.138)" fill="none" stroke="#43434d" stroke-linecap="round" stroke-width="1.25"/>
    <line id="Line_100" data-name="Line 100" x1="21.616" transform="translate(346.606 269.138)" fill="none" stroke="#43434d" stroke-linecap="round" stroke-width="1.25"/>
    <line id="Line_101" data-name="Line 101" x1="77.292" transform="translate(271.76 277.984)" fill="none" stroke="#43434d" stroke-linecap="round" stroke-width="1.25"/>
    <path id="Path_2409" data-name="Path 2409" d="M199.063,310.511a41.643,41.643,0,0,0,12.27-13.96c8.215-1.907,20.391-4.818,27.01-10.417,3.284-2.778,4.456-6.165,4.523-10.539-1.372,2,4.37,5.434,6.792,5.364s2.284-2.162,2.354-4.584c.2-6.877.3-10.457-3.237-13.869,1.238-3.753-2.919-7.58-5.98-10.08-2.368-2.857-1.358-2.589-5.815-5.413-2.6-1.644-6.329-1.43-9.824-.039-3.472-.213-15.5,1.491-18.671,2.91-7.776,3.474-11.622,8.956-16.341,14.223-10.874,12.138-19.429,18.976-32.782,28.318,9.433,9.844,26.126,16.818,39.7,18.086" fill="#e8aa91"/>
    <path id="Path_2410" data-name="Path 2410" d="M247.38,262.694a19.747,19.747,0,0,0-9.428.792" fill="none" stroke="#43434d" stroke-linecap="round" stroke-width="1.286"/>
    <path id="Path_2411" data-name="Path 2411" d="M242.795,252.425a14.88,14.88,0,0,0-12.046,2.123" fill="none" stroke="#43434d" stroke-linecap="round" stroke-width="1.286"/>
    <path id="Path_2412" data-name="Path 2412" d="M227.157,246.974a15.5,15.5,0,0,0-7.028,4.354" fill="none" stroke="#43434d" stroke-linecap="round" stroke-width="1.286"/>
    <path id="Path_2413" data-name="Path 2413" d="M251.456,266.944c1.444,3.851,1.133,8.107.8,12.206a2.819,2.819,0,0,1-.468,1.608,2.332,2.332,0,0,1-1.478.7,6.579,6.579,0,0,1-7.373-8.262,14.059,14.059,0,0,1-3.637-.846,20.061,20.061,0,0,1-7.022,7.924" fill="none" stroke="#43434d" stroke-linecap="round" stroke-width="1.286"/>
    <path id="Path_2414" data-name="Path 2414" d="M243.155,277.815a11.357,11.357,0,0,1-4.164,8.472,25.531,25.531,0,0,1-8.56,4.534,112.415,112.415,0,0,1-12.241,3.746" fill="none" stroke="#43434d" stroke-linecap="round" stroke-width="1.286"/>
    <path id="Path_2415" data-name="Path 2415" d="M173.889,339.3l41.2-40.381-26.521-37.78s-57.206,30.042-69.683,59.8c18.713,6.2,37.318,12.749,55.748,19.879-.483-.987-.746-1.52-.746-1.52" fill="#fb847d"/>
    <path id="Path_2416" data-name="Path 2416" d="M150.293,156.609c-1.042,1.874-2.583,3.8-4.72,3.969-2.514.2-4.491-2.092-5.688-4.312-3.433-6.367-4.249-13.86-3.784-21.078.264-4.088,1.232-7.934,4.962-10.164,2.712-1.62,5.2-1.062,7.186,1.352,4.3,5.23,5.945,12.775,5.337,19.4a27.477,27.477,0,0,1-3.293,10.832" fill="#424a5b"/>
    <path id="Path_2417" data-name="Path 2417" d="M92.3,164.24c1.589,9.794,3.327,19.964,9.032,28.082s16.627,13.489,25.778,9.653c6.048-2.534,10.011-8.385,12.94-14.252a87.185,87.185,0,0,0,7.253-56.331c-1.957-9.327-12.35-12.568-21.881-12.474s-18.448,5.943-23.662,13.921-10.987,21.994-9.46,31.4" fill="#e8aa91"/>
    <path id="Path_2418" data-name="Path 2418" d="M74.461,197.738c1.694-2.006,3.179-4.106,4.429-5.762A90.389,90.389,0,0,0,91.9,166.825c3.008-8.854,7.318-20.132,7.353-29.482,7.774,4.29,16.261,7.7,25.133,8.076s18.2-2.655,23.922-9.444c6.641-7.879-9.9-18.68-15.156-21.9a52.75,52.75,0,0,0-33.627-7.49c-6.763.828-13.634,3.179-18.292,8.152-7.958,8.5-7.174,20.631-11.548,30.719-2.314,5.335-6.194,10.228-11.532,12.534-7.691,3.322-16.519.74-24.48-1.867.76,9.079,2.071,18.244,5.676,26.611C43,191.2,53.377,204.41,63.57,204.529c4.2.049,7.877-3.223,10.891-6.791" fill="#424a5b"/>
    <path id="Path_2419" data-name="Path 2419" d="M89.071,159.547c-6.9,19.958-14.469,52.041-26.644,69.3,9.052,7.825,30.677,1.568,42.127,5.044,5.427-19.505,6.006-43.8,15.944-61.436-2.788-.533-4.515-3.075-6.741-4.837-6.334-5.015-18.352-3.053-24.686-8.068" fill="#e8aa91"/>
    <path id="Path_2420" data-name="Path 2420" d="M98.585,136.3c-3.036-2.848-7.365-4.834-11.442-4.432-4.738.467-8.131,3.993-9.763,7.9A16.229,16.229,0,0,0,82.238,158.7c4.913,3.777,12.327,4.43,17.162,1.512,8.447-5.1,6.239-17.289-.815-23.906" fill="#e8aa91"/>
    <path id="Path_2421" data-name="Path 2421" d="M142.748,152.336a30.332,30.332,0,0,0-11.705,1.2" fill="none" stroke="#43434d" stroke-linecap="round" stroke-width="1.286"/>
    <path id="Path_2422" data-name="Path 2422" d="M136.669,160.4a1.377,1.377,0,1,1,.752,1.8,1.377,1.377,0,0,1-.752-1.8" fill="#43434d"/>
    <path id="Path_2423" data-name="Path 2423" d="M86.786,139.712l4.57,11.188" fill="none" stroke="#43434d" stroke-linecap="round" stroke-width="1.286"/>
    <path id="Path_2424" data-name="Path 2424" d="M95,141.841a36.722,36.722,0,0,0-10.149,6.624" fill="none" stroke="#43434d" stroke-linecap="round" stroke-width="1.286"/>
    <path id="Path_2425" data-name="Path 2425" d="M142.818,174.253a5.932,5.932,0,1,0,4.234-11.082c-1.7,2.824-3.853,7.807-4.234,11.082" fill="#e8aa91"/>
    <g id="Group_752" data-name="Group 752" opacity="0.3" style="mix-blend-mode: overlay;isolation: isolate">
      <g id="Group_751" data-name="Group 751">
        <g id="Group_750" data-name="Group 750" clip-path="url(#clip-path)">
          <path id="Path_2426" data-name="Path 2426" d="M105.87,160.4a8.067,8.067,0,1,1,4.406,10.523A8.067,8.067,0,0,1,105.87,160.4" fill="#222221"/>
        </g>
      </g>
    </g>
    <path id="Path_2427" data-name="Path 2427" d="M79.846,122.2a64.018,64.018,0,0,0-5.611,10.64c-1.389,3.366-1.855,7.549-3.608,10.672a22.783,22.783,0,0,1-36.157,4.766" fill="none" stroke="#424a5b" stroke-width="1.286"/>
    <path id="Path_2428" data-name="Path 2428" d="M104.554,138.593a58.857,58.857,0,0,0,15.327,7.048,29.769,29.769,0,0,0,16.7.015,21.456,21.456,0,0,0,8.38-4.969c2.094-2.03,5.122-5.278,4.969-8.4a4.373,4.373,0,0,0-2.3-3.594" fill="none" stroke="#424a5b" stroke-width="1.286"/>
    <path id="Path_2429" data-name="Path 2429" d="M107.437,198.221a36.128,36.128,0,0,1-16.812-16.508" fill="none" stroke="#43434d" stroke-linecap="round" stroke-width="1.286"/>
    <path id="Path_2430" data-name="Path 2430" d="M133.18,171.521a7.656,7.656,0,0,0,4.437,7.329" fill="none" stroke="#43434d" stroke-linecap="round" stroke-width="1.286"/>
    <path id="Path_2431" data-name="Path 2431" d="M250.451,348.449a41.641,41.641,0,0,0,17.134-7.2c12.3,2.8,27.146,2.1,37.518-5.087-2.106,1.2-1.363,4.828.847,5.822s4.855-.021,6.693-1.6a12.479,12.479,0,0,0,3.489-13.419c2.754-2.835.3-10.5-1.365-14.084s-.612-4.786-3.86-7.038c-3.13-2.17-4.534-2.88-8.864-2.88-3.031-1.707-13.17-4.832-16.648-4.942-8.512-.27-14.366,2.984-20.91,5.662-15.082,6.173-25.764,8.591-41.856,11.166,4.189,12.974,16.163,26.536,27.822,33.6" fill="#e8aa91"/>
    <path id="Path_2432" data-name="Path 2432" d="M314.8,326.522a19.738,19.738,0,0,0-8.828-3.4" fill="none" stroke="#43434d" stroke-linecap="round" stroke-width="1.286"/>
    <path id="Path_2433" data-name="Path 2433" d="M307.685,332.692a12.094,12.094,0,0,0-2.346,3.755" fill="none" stroke="#43434d" stroke-linecap="round" stroke-width="1.286"/>
    <path id="Path_2434" data-name="Path 2434" d="M314.767,312.878a27.232,27.232,0,0,0-11.378-.944" fill="none" stroke="#43434d" stroke-linecap="round" stroke-width="1.286"/>
    <path id="Path_2435" data-name="Path 2435" d="M302.043,302.96a19.718,19.718,0,0,0-6.8,1.44" fill="none" stroke="#43434d" stroke-linecap="round" stroke-width="1.286"/>
    <path id="Path_2436" data-name="Path 2436" d="M267.973,347.061s-63.621,39.295-93.731,27.865c-8.28-3.15-17.629-14.1-26.7-23.515-1.19,5.23-2.22,25.01-2.89,34.14a204.529,204.529,0,0,1-27.36-10.17A180.148,180.148,0,0,1,65.6,340.2a230.017,230.017,0,0,1-24.81-28.61A209.033,209.033,0,0,1,23.4,283.4c2.04-69.29,43.84-73.74,43.84-73.74,1.73-.09,3.48-.14,5.21-.14a97.59,97.59,0,0,1,35.94,6.5c17.8,6.92,34.25,19.64,47.24,39.49,4.17,6.37,8.12,12.49,11.8,18.24,1.91,2.99,3.74,5.88,5.5,8.64,7,11.08,12.67,20.26,16.41,26.38,3.21,5.25,5,8.24,5,8.24l2.98-.67,53.29-12.05,1.59,3.91,13.84,34.1Z" fill="#fb847d"/>
    <rect id="Rectangle_703" data-name="Rectangle 703" width="488.645" height="395.426" fill="none"/>
    <path id="Path_2437" data-name="Path 2437" d="M41.809,201.3a89.611,89.611,0,0,1,31.208,68.46c-.135,10.845-2.374,21.875-8.04,31.123s-15.055,16.524-25.785,18.105-22.536-3.284-27.78-12.777C7.6,299.316,8,289.594,14.093,284.6c3.819-3.13,9.2-3.9,14.028-2.865s9.165,3.7,12.988,6.828c14.647,11.964,22.55,30.921,23.624,49.8,1.912,33.624-4.979,39.494-12.112,54.841" fill="none" stroke="#fff" stroke-width="1.264"/>
    <path id="Path_2438" data-name="Path 2438" d="M140.628,221.4c-12.529,8.871-23.567,20.934-27.5,35.773s.823,32.592,13.857,40.7c10.3,6.409,23.394,5.913,34.809,10.022,19.091,6.872,31.931,28,29.239,48.112-.694,5.182-2.376,10.372-5.752,14.366s-8.646,6.612-13.826,5.9c-8.466-1.163-13.732-11.39-11.208-19.554s11.04-13.511,19.565-14.1,16.9,2.856,23.953,7.685a64.2,64.2,0,0,1,25.513,36.125" fill="none" stroke="#fff" stroke-width="1.264"/>
    <path id="Path_2439" data-name="Path 2439" d="M72.453,209.521c-1.73,0-3.48.05-5.21.14,0,0-41.8,4.45-43.84,73.74a209.1,209.1,0,0,0,17.39,28.19A230.089,230.089,0,0,0,65.6,340.2a180.168,180.168,0,0,0,51.69,35.18,204.714,204.714,0,0,0,27.36,10.17c.67-9.13,1.7-28.911,2.89-34.14,9.071,9.42,18.419,20.364,26.7,23.514,30.11,11.43,93.731-27.864,93.731-27.864l-1.93-4.76L252.2,308.2l-1.59-3.91-53.29,12.05-2.98.67s-1.79-2.99-5-8.241c-3.74-6.12-9.41-15.3-16.41-26.38-1.76-2.759-3.59-5.649-5.5-8.64-3.68-5.75-7.63-11.87-11.8-18.239-12.99-19.85-29.439-32.57-47.24-39.49a97.479,97.479,0,0,0-35.42-6.5h-.52" fill="none"/>
    <path id="Path_2440" data-name="Path 2440" d="M174.242,374.925c-13.633-5.85-57.286-55.5-66.691-73.262" fill="none" stroke="#43434d" stroke-linecap="round" stroke-width="1.286"/>
    <path id="Path_2441" data-name="Path 2441" d="M167.433,273.751l26.91,43.26,41.186-9.309" fill="none" stroke="#43434d" stroke-linecap="round" stroke-width="1.286"/>
    <line id="Line_102" data-name="Line 102" x2="25.55" y2="36.396" transform="translate(188.57 261.139)" fill="none" stroke="#43434d" stroke-linecap="round" stroke-width="1.286"/>
    <line id="Line_103" data-name="Line 103" x2="17.36" y2="42.77" transform="translate(250.613 304.291)" fill="none" stroke="#43434d" stroke-linecap="round" stroke-width="1.286"/>
  </g>
</svg>
