<svg xmlns="http://www.w3.org/2000/svg" width="36" height="36" viewBox="0 0 36 36">
  <path id="link" d="M18,0A18,18,0,1,0,36,18,18.02,18.02,0,0,0,18,0ZM16.834,24,15.2,25.636a4.535,4.535,0,0,1-3.215,1.332,4.513,4.513,0,0,1-3.165-7.712L12.97,15.1a4.517,4.517,0,0,1,3.2-1.329h.016a4.476,4.476,0,0,1,4.4,3.581.844.844,0,0,1-1.653.338,2.788,2.788,0,0,0-2.749-2.232h-.01a2.84,2.84,0,0,0-2.012.835l-4.152,4.152a2.84,2.84,0,0,0-.835,2.012,2.792,2.792,0,0,0,2.807,2.817h.01A2.84,2.84,0,0,0,14,24.443l1.636-1.636A.844.844,0,0,1,16.834,24Zm10.361-7.268L23.07,20.857a4.507,4.507,0,0,1-7.6-2.264.844.844,0,0,1,1.652-.343,2.8,2.8,0,0,0,.763,1.414,2.827,2.827,0,0,0,3.994,0L26,15.539a2.824,2.824,0,0,0-3.994-3.994L20.383,13.17a.844.844,0,0,1-1.193-1.193l1.625-1.625a4.512,4.512,0,0,1,6.38,6.38Z" fill="#fff"/>
</svg>
